<svg id="svg" version="1.1" xmlns="http://www.w3.org/2000/svg" xmlns:xlink="http://www.w3.org/1999/xlink" width="400" height="279.2176039119804" viewBox="0, 0, 400,279.2176039119804"><g id="svgg"><path id="path0" d="M196.508 29.003 C 194.665 30.048,192.625 31.240,191.975 31.652 C 191.325 32.065,190.725 32.402,190.642 32.402 C 190.559 32.402,190.022 32.697,189.449 33.058 C 188.876 33.419,187.528 34.223,186.453 34.844 C 185.377 35.466,182.297 37.261,179.609 38.832 C 176.920 40.403,174.155 42.004,173.464 42.390 C 172.772 42.776,172.081 43.187,171.927 43.304 C 171.774 43.420,171.208 43.763,170.670 44.064 C 170.133 44.366,167.996 45.594,165.922 46.793 C 163.848 47.992,161.459 49.371,160.615 49.857 C 159.770 50.343,156.753 52.096,153.911 53.753 C 151.068 55.409,147.863 57.276,146.788 57.902 C 145.712 58.527,144.141 59.444,143.296 59.940 C 142.451 60.435,135.538 64.455,127.933 68.873 C 120.328 73.291,112.032 78.121,109.497 79.607 C 106.962 81.093,104.260 82.656,103.492 83.080 C 102.723 83.504,101.561 84.185,100.908 84.593 L 99.722 85.335 99.725 138.827 C 99.728 168.247,99.822 192.457,99.934 192.626 C 100.137 192.931,102.431 194.286,115.503 201.822 C 132.960 211.886,133.606 212.260,136.435 213.936 C 138.852 215.368,139.029 215.364,141.760 213.801 C 142.989 213.097,146.068 211.382,148.603 209.989 C 151.138 208.596,155.286 206.297,157.821 204.879 C 160.356 203.462,164.441 201.202,166.899 199.858 C 169.358 198.514,173.003 196.502,175.000 195.387 C 176.997 194.272,179.381 192.956,180.297 192.461 C 181.213 191.967,183.601 190.647,185.604 189.528 C 191.394 186.293,191.780 186.078,196.927 183.243 C 199.616 181.761,204.392 179.117,207.542 177.366 C 210.691 175.616,214.902 173.276,216.899 172.168 L 220.531 170.153 220.742 166.990 C 221.008 163.015,221.755 160.098,223.367 156.739 C 224.904 153.536,225.057 153.942,220.715 149.672 C 209.192 138.340,194.639 129.929,179.928 126.099 C 176.558 125.222,176.714 125.199,175.654 126.746 C 164.204 143.454,137.659 141.552,128.449 123.363 C 116.315 99.401,144.410 75.228,167.916 89.405 L 168.932 90.018 174.480 86.946 C 177.531 85.256,180.502 83.606,181.081 83.279 C 181.661 82.952,183.797 81.786,185.830 80.687 C 187.862 79.588,190.361 78.206,191.382 77.617 C 192.404 77.027,195.546 75.271,198.366 73.715 C 201.185 72.159,203.994 70.607,204.609 70.267 C 212.723 65.779,217.454 63.171,218.715 62.491 C 219.560 62.036,221.068 61.192,222.067 60.616 C 223.066 60.040,224.763 59.093,225.838 58.512 C 226.913 57.930,229.365 56.579,231.285 55.509 C 233.205 54.439,235.937 52.919,237.354 52.131 C 238.772 51.343,239.935 50.553,239.938 50.375 C 239.943 50.088,236.835 48.151,232.821 45.941 C 232.053 45.518,231.091 44.938,230.683 44.653 C 230.275 44.368,229.861 44.134,229.762 44.134 C 229.663 44.134,228.894 43.694,228.054 43.156 C 227.213 42.619,226.471 42.179,226.404 42.179 C 226.336 42.179,225.616 41.786,224.803 41.306 C 222.839 40.146,207.147 31.087,205.881 30.382 C 205.335 30.077,204.763 29.731,204.609 29.611 C 204.261 29.340,200.106 27.093,199.964 27.099 C 199.907 27.102,198.352 27.958,196.508 29.003 M256.145 63.597 C 254.378 64.591,252.116 65.854,251.117 66.403 C 249.602 67.236,245.585 69.467,237.989 73.694 C 237.297 74.079,236.292 74.642,235.754 74.945 C 234.323 75.753,229.430 78.453,227.654 79.415 C 226.242 80.179,224.411 81.198,219.134 84.155 C 218.059 84.757,216.236 85.760,215.084 86.382 C 213.932 87.005,212.863 87.605,212.709 87.716 C 212.556 87.827,211.613 88.358,210.615 88.897 C 207.964 90.325,200.750 94.298,198.324 95.665 C 197.172 96.315,195.538 97.227,194.693 97.693 C 193.848 98.158,191.397 99.519,189.246 100.717 C 187.095 101.914,184.707 103.224,183.939 103.627 C 180.224 105.575,179.560 106.256,181.075 106.565 C 185.212 107.407,194.936 110.681,200.618 113.143 C 214.597 119.203,230.138 130.573,239.484 141.580 C 240.175 142.393,240.396 142.492,241.160 142.331 C 254.515 139.515,268.975 146.252,273.008 157.171 C 273.226 157.759,273.679 158.989,274.015 159.904 C 275.766 164.667,275.775 171.437,274.037 176.388 C 267.814 194.118,245.729 200.462,230.911 188.776 C 229.492 187.657,228.755 187.491,227.739 188.063 C 227.402 188.253,226.585 188.705,225.923 189.068 C 223.320 190.496,214.767 195.245,201.955 202.376 C 200.496 203.189,198.736 204.165,198.045 204.547 C 197.353 204.928,190.943 208.477,183.799 212.432 C 176.655 216.388,170.056 220.039,169.134 220.546 C 168.212 221.053,166.641 221.919,165.642 222.471 C 164.644 223.023,162.653 224.117,161.218 224.903 C 157.999 226.666,157.425 226.026,167.318 231.715 C 179.815 238.901,188.897 244.137,194.613 247.449 C 199.805 250.458,200.706 250.844,201.271 250.306 C 201.417 250.166,202.000 249.796,202.568 249.481 C 204.451 248.438,218.204 240.461,224.390 236.824 C 227.742 234.853,230.528 233.240,230.581 233.240 C 230.634 233.240,232.136 232.360,233.919 231.285 C 235.702 230.209,237.228 229.330,237.309 229.330 C 237.390 229.330,238.145 228.890,238.985 228.352 C 239.826 227.814,240.559 227.374,240.614 227.374 C 240.670 227.374,243.213 225.913,246.265 224.127 C 251.270 221.198,264.520 213.488,266.620 212.282 C 267.081 212.017,268.212 211.368,269.134 210.840 C 270.056 210.311,271.342 209.542,271.992 209.129 C 272.642 208.717,273.251 208.380,273.345 208.380 C 273.440 208.380,273.851 208.146,274.259 207.861 C 274.666 207.576,275.566 207.025,276.257 206.638 C 276.948 206.250,279.399 204.837,281.704 203.498 C 284.008 202.158,289.162 199.170,293.156 196.857 C 297.151 194.544,300.482 192.597,300.559 192.531 C 301.005 192.148,300.495 85.322,300.045 84.869 C 299.790 84.612,297.193 83.032,294.274 81.357 C 288.186 77.865,275.526 70.565,270.391 67.587 C 258.514 60.699,260.371 61.219,256.145 63.597 " stroke="none" fill="#f9fbfb" fill-rule="evenodd"></path><path id="path1" d="M198.324 27.551 C 195.811 29.008,195.329 29.287,191.620 31.424 C 189.546 32.620,186.027 34.678,183.799 35.999 C 181.571 37.319,179.497 38.539,179.190 38.709 C 178.883 38.879,177.374 39.748,175.838 40.639 C 171.849 42.953,158.167 50.893,155.028 52.715 C 153.568 53.562,151.683 54.667,150.838 55.170 C 149.993 55.673,148.862 56.336,148.324 56.643 C 147.786 56.950,146.215 57.861,144.832 58.667 C 143.450 59.474,141.753 60.448,141.061 60.833 C 140.370 61.218,139.471 61.766,139.063 62.051 C 138.655 62.336,138.261 62.570,138.188 62.570 C 138.114 62.570,135.242 64.219,131.806 66.234 C 128.370 68.250,124.993 70.219,124.302 70.611 C 123.610 71.002,120.908 72.571,118.296 74.098 C 115.684 75.625,113.045 77.160,112.430 77.509 C 111.816 77.859,109.742 79.057,107.821 80.173 C 105.901 81.289,103.764 82.516,103.073 82.901 C 102.381 83.285,101.501 83.801,101.116 84.048 C 100.731 84.295,100.166 84.637,99.859 84.807 C 99.342 85.095,99.095 190.820,99.606 192.747 C 99.669 192.983,101.072 193.944,102.723 194.881 C 104.375 195.819,107.675 197.712,110.056 199.089 C 118.879 204.187,123.917 207.084,125.140 207.763 C 125.831 208.146,126.730 208.693,127.138 208.978 C 127.546 209.264,127.944 209.497,128.023 209.497 C 128.102 209.497,129.088 210.042,130.214 210.707 C 132.515 212.066,134.364 213.124,136.517 214.313 C 138.725 215.532,138.727 215.522,135.894 217.054 C 133.869 218.149,132.456 218.927,129.330 220.670 C 125.410 222.855,125.106 223.023,122.277 224.579 C 120.779 225.402,119.553 226.172,119.553 226.290 C 119.553 226.475,124.165 229.330,124.464 229.330 C 124.525 229.330,125.845 230.084,127.397 231.006 C 128.949 231.927,130.268 232.682,130.328 232.682 C 130.387 232.682,131.124 233.122,131.964 233.659 C 132.805 234.197,133.624 234.637,133.785 234.637 C 133.946 234.637,134.078 234.763,134.078 234.916 C 134.078 235.070,134.192 235.196,134.331 235.196 C 134.470 235.196,135.362 235.635,136.313 236.173 C 138.747 237.549,138.324 237.643,143.994 234.479 C 144.763 234.051,147.654 232.454,150.419 230.931 C 153.184 229.408,156.014 227.845,156.706 227.456 L 157.966 226.750 164.527 230.524 C 168.137 232.599,173.855 235.897,177.235 237.851 C 202.311 252.354,200.289 251.245,200.930 250.845 C 201.239 250.652,202.068 250.176,202.771 249.788 C 203.475 249.400,204.384 248.849,204.792 248.563 C 205.200 248.278,205.592 248.045,205.664 248.045 C 205.737 248.045,209.029 246.156,212.981 243.848 C 216.934 241.540,220.689 239.354,221.327 238.989 C 221.964 238.625,224.057 237.415,225.978 236.302 C 227.898 235.189,230.161 233.879,231.006 233.391 C 231.851 232.904,233.074 232.167,233.723 231.755 C 234.373 231.343,234.957 231.006,235.021 231.006 C 235.085 231.006,237.193 229.796,239.705 228.318 C 242.218 226.839,244.839 225.310,245.531 224.919 C 246.222 224.528,247.730 223.647,248.883 222.961 C 250.035 222.276,251.543 221.396,252.235 221.006 C 253.808 220.118,262.445 215.113,266.899 212.508 C 268.743 211.429,271.131 210.039,272.207 209.418 C 273.282 208.797,274.728 207.953,275.419 207.542 C 276.110 207.131,277.619 206.251,278.771 205.587 C 279.923 204.922,281.432 204.040,282.123 203.627 C 282.814 203.214,287.151 200.701,291.760 198.042 C 296.369 195.384,300.378 193.008,300.669 192.763 C 301.185 192.329,301.194 191.424,301.019 156.006 C 300.920 136.034,300.839 111.832,300.838 102.224 L 300.838 84.755 299.372 83.906 C 292.151 79.727,288.168 77.422,286.872 76.670 C 285.477 75.860,282.806 74.324,280.394 72.944 C 275.915 70.381,267.189 65.327,264.572 63.780 C 263.445 63.114,262.459 62.570,262.380 62.570 C 262.302 62.570,261.862 62.303,261.404 61.977 C 260.493 61.328,260.537 61.224,262.081 60.362 C 262.657 60.040,263.600 59.509,264.176 59.182 C 264.752 58.855,266.166 58.077,267.318 57.453 C 268.471 56.830,271.363 55.243,273.745 53.928 C 276.127 52.612,278.433 51.352,278.869 51.126 L 279.661 50.716 278.892 50.102 C 278.468 49.764,277.419 49.122,276.561 48.674 C 275.702 48.227,274.378 47.462,273.618 46.975 C 272.859 46.488,272.128 46.089,271.994 46.089 C 271.860 46.089,271.338 45.775,270.835 45.391 C 270.331 45.007,269.839 44.693,269.742 44.693 C 269.644 44.693,268.900 44.284,268.088 43.785 C 266.418 42.758,265.599 42.285,263.408 41.082 C 262.563 40.619,261.543 40.028,261.140 39.770 C 260.423 39.310,260.362 39.328,257.928 40.706 C 256.563 41.479,254.818 42.457,254.050 42.880 C 253.282 43.302,251.020 44.553,249.022 45.659 C 242.755 49.131,241.117 50.000,240.841 50.000 C 240.694 50.000,237.646 48.303,234.068 46.229 C 230.490 44.155,227.517 42.458,227.463 42.458 C 227.408 42.458,226.831 42.122,226.182 41.710 C 225.532 41.299,223.680 40.211,222.067 39.294 C 218.999 37.548,218.516 37.271,215.782 35.693 C 207.793 31.080,204.313 29.062,202.561 28.027 C 200.166 26.611,199.981 26.590,198.324 27.551 M202.199 28.244 C 203.371 28.877,204.455 29.492,204.609 29.611 C 204.763 29.731,205.335 30.077,205.881 30.382 C 207.147 31.087,222.839 40.146,224.803 41.306 C 225.616 41.786,226.336 42.179,226.404 42.179 C 226.471 42.179,227.213 42.619,228.054 43.156 C 228.894 43.694,229.663 44.134,229.762 44.134 C 229.861 44.134,230.275 44.368,230.683 44.653 C 231.091 44.938,232.053 45.518,232.821 45.941 C 236.835 48.151,239.943 50.088,239.938 50.375 C 239.935 50.553,238.772 51.343,237.354 52.131 C 235.937 52.919,233.205 54.439,231.285 55.509 C 229.365 56.579,226.913 57.930,225.838 58.512 C 224.763 59.093,223.066 60.040,222.067 60.616 C 221.068 61.192,219.560 62.036,218.715 62.491 C 217.454 63.171,212.723 65.779,204.609 70.267 C 203.994 70.607,201.185 72.159,198.366 73.715 C 195.546 75.271,192.404 77.027,191.382 77.617 C 190.361 78.206,187.862 79.588,185.830 80.687 C 183.797 81.786,181.661 82.952,181.081 83.279 C 180.502 83.606,177.531 85.256,174.480 86.946 L 168.932 90.018 167.916 89.405 C 146.214 76.316,119.651 95.737,126.819 119.452 C 133.178 140.494,163.163 144.973,175.654 126.746 C 176.714 125.199,176.558 125.222,179.928 126.099 C 194.639 129.929,209.192 138.340,220.715 149.672 C 225.057 153.942,224.904 153.536,223.367 156.739 C 221.755 160.098,221.008 163.015,220.742 166.990 L 220.531 170.153 216.899 172.168 C 214.902 173.276,210.691 175.616,207.542 177.366 C 204.392 179.117,199.616 181.761,196.927 183.243 C 191.780 186.078,191.394 186.293,185.604 189.528 C 183.601 190.647,181.213 191.967,180.297 192.461 C 179.381 192.956,176.997 194.272,175.000 195.387 C 173.003 196.502,169.358 198.514,166.899 199.858 C 164.441 201.202,160.356 203.462,157.821 204.879 C 155.286 206.297,151.138 208.596,148.603 209.989 C 146.068 211.382,142.989 213.097,141.760 213.801 C 139.029 215.364,138.852 215.368,136.435 213.936 C 133.606 212.260,132.960 211.886,115.503 201.822 C 102.431 194.286,100.137 192.931,99.934 192.626 C 99.822 192.457,99.728 168.247,99.725 138.827 L 99.722 85.335 100.908 84.593 C 101.561 84.185,102.723 83.504,103.492 83.080 C 104.260 82.656,106.962 81.093,109.497 79.607 C 112.032 78.121,120.328 73.291,127.933 68.873 C 135.538 64.455,142.451 60.435,143.296 59.940 C 144.141 59.444,145.712 58.527,146.788 57.902 C 147.863 57.276,151.068 55.409,153.911 53.753 C 156.753 52.096,159.770 50.343,160.615 49.857 C 161.459 49.371,163.848 47.992,165.922 46.793 C 167.996 45.594,170.133 44.366,170.670 44.064 C 171.208 43.763,171.774 43.420,171.927 43.304 C 172.081 43.187,172.772 42.776,173.464 42.390 C 174.155 42.004,176.920 40.403,179.609 38.832 C 182.297 37.261,185.377 35.466,186.453 34.844 C 187.528 34.223,188.876 33.419,189.449 33.058 C 190.022 32.697,190.559 32.402,190.642 32.402 C 190.725 32.402,191.325 32.065,191.975 31.652 C 193.298 30.813,199.803 27.106,199.964 27.099 C 200.021 27.097,201.027 27.612,202.199 28.244 M263.567 63.647 C 265.400 64.700,268.471 66.473,270.391 67.587 C 275.526 70.565,288.186 77.865,294.274 81.357 C 297.193 83.032,299.790 84.612,300.045 84.869 C 300.495 85.322,301.005 192.148,300.559 192.531 C 300.482 192.597,297.151 194.544,293.156 196.857 C 289.162 199.170,284.008 202.158,281.704 203.498 C 279.399 204.837,276.948 206.250,276.257 206.638 C 275.566 207.025,274.666 207.576,274.259 207.861 C 273.851 208.146,273.440 208.380,273.345 208.380 C 273.251 208.380,272.642 208.717,271.992 209.129 C 271.342 209.542,270.056 210.311,269.134 210.840 C 268.212 211.368,267.081 212.017,266.620 212.282 C 264.520 213.488,251.270 221.198,246.265 224.127 C 243.213 225.913,240.670 227.374,240.614 227.374 C 240.559 227.374,239.826 227.814,238.985 228.352 C 238.145 228.890,237.390 229.330,237.309 229.330 C 237.228 229.330,235.702 230.209,233.919 231.285 C 232.136 232.360,230.634 233.240,230.581 233.240 C 230.528 233.240,227.742 234.853,224.390 236.824 C 218.204 240.461,204.451 248.438,202.568 249.481 C 202.000 249.796,201.417 250.166,201.271 250.306 C 200.706 250.844,199.805 250.458,194.613 247.449 C 188.897 244.137,179.815 238.901,167.318 231.715 C 157.425 226.026,157.999 226.666,161.218 224.903 C 162.653 224.117,164.644 223.023,165.642 222.471 C 166.641 221.919,168.212 221.053,169.134 220.546 C 170.056 220.039,176.655 216.388,183.799 212.432 C 190.943 208.477,197.353 204.928,198.045 204.547 C 198.736 204.165,200.496 203.189,201.955 202.376 C 214.767 195.245,223.320 190.496,225.923 189.068 C 226.585 188.705,227.402 188.253,227.739 188.063 C 228.755 187.491,229.492 187.657,230.911 188.776 C 245.729 200.462,267.814 194.118,274.037 176.388 C 275.775 171.437,275.766 164.667,274.015 159.904 C 273.679 158.989,273.226 157.759,273.008 157.171 C 268.975 146.252,254.515 139.515,241.160 142.331 C 240.396 142.492,240.175 142.393,239.484 141.580 C 230.138 130.573,214.597 119.203,200.618 113.143 C 194.936 110.681,185.212 107.407,181.075 106.565 C 179.560 106.256,180.224 105.575,183.939 103.627 C 184.707 103.224,187.095 101.914,189.246 100.717 C 191.397 99.519,193.848 98.158,194.693 97.693 C 195.538 97.227,197.172 96.315,198.324 95.665 C 200.750 94.298,207.964 90.325,210.615 88.897 C 211.613 88.358,212.556 87.827,212.709 87.716 C 212.863 87.605,213.932 87.005,215.084 86.382 C 216.236 85.760,218.059 84.757,219.134 84.155 C 224.411 81.198,226.242 80.179,227.654 79.415 C 229.430 78.453,234.323 75.753,235.754 74.945 C 236.292 74.642,237.297 74.079,237.989 73.694 C 245.585 69.467,249.602 67.236,251.117 66.403 C 252.116 65.854,254.378 64.591,256.145 63.597 C 260.116 61.363,259.587 61.359,263.567 63.647 " stroke="none" fill="#4de3fa" fill-rule="evenodd"></path><path id="path2" d="M198.045 5.604 C 197.200 6.080,196.068 6.728,195.531 7.044 C 194.993 7.359,194.113 7.866,193.575 8.170 C 193.038 8.474,191.759 9.211,190.733 9.808 C 189.708 10.405,188.775 10.894,188.660 10.894 C 188.546 10.894,188.253 11.070,188.011 11.285 C 187.768 11.499,187.098 11.939,186.522 12.262 C 185.946 12.585,185.003 13.113,184.427 13.436 C 183.851 13.759,183.191 14.172,182.961 14.353 C 182.730 14.534,181.976 14.982,181.285 15.348 C 180.594 15.714,178.603 16.872,176.861 17.923 C 175.119 18.973,173.636 19.832,173.565 19.832 C 173.495 19.832,172.749 20.272,171.909 20.810 C 171.068 21.348,170.314 21.788,170.233 21.788 C 170.151 21.788,169.431 22.198,168.632 22.699 C 167.833 23.201,166.487 23.977,165.642 24.423 C 164.797 24.870,164.043 25.310,163.966 25.401 C 163.890 25.492,163.294 25.817,162.643 26.122 C 161.992 26.426,161.457 26.770,161.456 26.885 C 161.454 27.001,161.321 27.095,161.160 27.095 C 160.999 27.095,160.213 27.512,159.414 28.021 C 158.615 28.530,157.270 29.315,156.425 29.766 C 155.580 30.218,154.846 30.681,154.795 30.796 C 154.744 30.911,154.581 31.006,154.433 31.006 C 154.284 31.006,153.475 31.446,152.635 31.983 C 151.794 32.521,150.983 32.961,150.833 32.961 C 150.682 32.961,150.559 33.068,150.559 33.198 C 150.559 33.328,150.024 33.673,149.372 33.965 C 148.719 34.256,147.559 34.904,146.794 35.404 C 146.029 35.904,145.302 36.313,145.177 36.313 C 145.052 36.313,144.297 36.753,143.498 37.291 C 142.700 37.828,141.942 38.268,141.814 38.268 C 141.686 38.268,141.056 38.619,140.413 39.048 C 139.771 39.478,138.932 39.989,138.547 40.184 C 137.109 40.917,133.898 42.782,130.307 44.970 C 129.385 45.532,128.443 46.074,128.212 46.174 C 127.982 46.275,127.291 46.667,126.676 47.047 C 126.061 47.426,125.244 47.911,124.860 48.125 C 122.944 49.190,121.040 50.289,117.656 52.282 C 115.615 53.485,113.882 54.469,113.807 54.469 C 113.731 54.469,112.811 55.035,111.761 55.726 C 110.712 56.418,109.767 56.983,109.662 56.983 C 109.557 56.983,108.816 57.393,108.017 57.895 C 107.218 58.396,105.873 59.175,105.028 59.626 C 104.183 60.076,103.366 60.549,103.212 60.676 C 102.918 60.918,98.282 63.687,98.170 63.687 C 98.060 63.687,91.601 67.438,89.665 68.626 C 88.666 69.238,87.095 70.158,86.173 70.669 C 79.321 74.472,80.151 69.128,80.201 109.129 C 80.224 127.537,80.267 143.038,80.297 143.575 C 80.327 144.113,80.373 157.959,80.399 174.344 L 80.447 204.135 81.215 204.442 C 81.638 204.611,82.360 204.978,82.821 205.258 C 83.282 205.538,84.476 206.214,85.475 206.761 C 90.994 209.782,92.658 210.717,93.292 211.156 C 93.678 211.424,95.189 212.310,96.648 213.127 C 98.108 213.943,99.742 214.864,100.279 215.172 C 100.817 215.481,101.634 215.922,102.095 216.153 C 102.556 216.383,103.436 216.903,104.050 217.309 C 104.665 217.714,106.865 219.019,108.939 220.210 C 111.013 221.400,112.898 222.484,113.128 222.618 C 113.359 222.752,114.641 223.500,115.978 224.280 C 117.315 225.060,118.489 225.698,118.587 225.698 C 118.685 225.698,119.006 225.981,119.299 226.327 C 119.596 226.675,119.767 226.762,119.684 226.521 C 119.574 226.200,120.253 225.691,122.267 224.584 C 125.188 222.979,125.590 222.756,129.469 220.590 C 130.852 219.819,132.675 218.811,133.520 218.351 C 139.146 215.288,138.895 215.626,136.517 214.313 C 134.364 213.124,132.515 212.066,130.214 210.707 C 129.088 210.042,128.102 209.497,128.023 209.497 C 127.944 209.497,127.546 209.264,127.138 208.978 C 126.730 208.693,125.831 208.146,125.140 207.763 C 123.917 207.084,118.879 204.187,110.056 199.089 C 107.675 197.712,104.375 195.819,102.723 194.881 C 101.072 193.944,99.669 192.983,99.606 192.747 C 99.095 190.820,99.342 85.095,99.859 84.807 C 100.166 84.637,100.731 84.295,101.116 84.048 C 101.501 83.801,102.381 83.285,103.073 82.901 C 103.764 82.516,105.901 81.289,107.821 80.173 C 109.742 79.057,111.816 77.859,112.430 77.509 C 113.045 77.160,115.684 75.625,118.296 74.098 C 120.908 72.571,123.610 71.002,124.302 70.611 C 124.993 70.219,128.370 68.250,131.806 66.234 C 135.242 64.219,138.114 62.570,138.188 62.570 C 138.261 62.570,138.655 62.336,139.063 62.051 C 139.471 61.766,140.370 61.218,141.061 60.833 C 141.753 60.448,143.450 59.474,144.832 58.667 C 146.215 57.861,147.786 56.950,148.324 56.643 C 148.862 56.336,149.993 55.673,150.838 55.170 C 151.683 54.667,153.568 53.562,155.028 52.715 C 158.167 50.893,171.849 42.953,175.838 40.639 C 177.374 39.748,178.883 38.879,179.190 38.709 C 179.497 38.539,181.571 37.319,183.799 35.999 C 186.027 34.678,189.546 32.620,191.620 31.424 C 195.329 29.287,195.811 29.008,198.324 27.551 C 199.981 26.590,200.166 26.611,202.561 28.027 C 204.313 29.062,207.793 31.080,215.782 35.693 C 218.516 37.271,218.999 37.548,222.067 39.294 C 223.680 40.211,225.532 41.299,226.182 41.710 C 226.831 42.122,227.408 42.458,227.463 42.458 C 227.517 42.458,230.490 44.155,234.068 46.229 C 237.646 48.303,240.694 50.000,240.841 50.000 C 241.120 50.000,242.850 49.081,249.162 45.578 C 251.236 44.427,253.696 43.070,254.630 42.562 C 257.354 41.081,260.794 39.037,260.293 39.198 C 260.040 39.280,259.418 39.041,258.912 38.668 C 258.406 38.294,257.886 37.989,257.756 37.989 C 257.626 37.989,256.867 37.549,256.068 37.011 C 255.270 36.473,254.512 36.034,254.384 36.034 C 254.256 36.034,253.625 35.678,252.983 35.243 C 252.341 34.808,251.627 34.384,251.397 34.300 C 251.166 34.217,249.784 33.426,248.324 32.543 C 246.865 31.660,244.979 30.556,244.134 30.091 C 243.289 29.626,241.236 28.448,239.572 27.472 C 237.907 26.497,236.497 25.698,236.437 25.698 C 236.378 25.698,235.351 25.117,234.156 24.405 C 231.072 22.570,230.138 22.032,229.229 21.566 C 228.789 21.341,227.658 20.674,226.715 20.084 C 225.772 19.494,224.120 18.527,223.045 17.935 C 221.969 17.342,220.335 16.416,219.413 15.875 C 218.492 15.334,216.166 13.980,214.246 12.865 C 206.079 8.124,204.881 7.414,204.749 7.234 C 204.672 7.130,204.043 6.753,203.352 6.397 C 202.661 6.042,201.969 5.585,201.815 5.383 C 201.219 4.601,199.663 4.692,198.045 5.604 M279.265 50.304 C 279.546 50.674,279.476 50.813,278.839 51.142 C 278.420 51.359,276.127 52.612,273.745 53.928 C 271.363 55.243,268.471 56.830,267.318 57.453 C 266.166 58.077,264.752 58.855,264.176 59.182 C 263.600 59.509,262.657 60.040,262.081 60.362 C 260.537 61.224,260.493 61.328,261.404 61.977 C 261.862 62.303,262.302 62.570,262.380 62.570 C 262.459 62.570,263.445 63.114,264.572 63.780 C 267.189 65.327,275.915 70.381,280.394 72.944 C 282.806 74.324,285.477 75.860,286.872 76.670 C 288.168 77.422,292.151 79.727,299.372 83.906 L 300.838 84.755 300.838 102.224 C 300.839 111.832,300.920 136.034,301.019 156.006 C 301.194 191.424,301.185 192.329,300.669 192.763 C 300.378 193.008,296.369 195.384,291.760 198.042 C 287.151 200.701,282.814 203.214,282.123 203.627 C 281.432 204.040,279.923 204.922,278.771 205.587 C 277.619 206.251,276.110 207.131,275.419 207.542 C 274.728 207.953,273.282 208.797,272.207 209.418 C 271.131 210.039,268.743 211.429,266.899 212.508 C 262.445 215.113,253.808 220.118,252.235 221.006 C 251.543 221.396,250.035 222.276,248.883 222.961 C 247.730 223.647,246.222 224.528,245.531 224.919 C 244.839 225.310,242.218 226.839,239.705 228.318 C 237.193 229.796,235.085 231.006,235.021 231.006 C 234.957 231.006,234.373 231.343,233.723 231.755 C 233.074 232.167,231.851 232.904,231.006 233.391 C 230.161 233.879,227.898 235.189,225.978 236.302 C 224.057 237.415,221.964 238.625,221.327 238.989 C 220.689 239.354,216.934 241.540,212.981 243.848 C 209.029 246.156,205.737 248.045,205.664 248.045 C 205.592 248.045,205.200 248.278,204.792 248.563 C 204.384 248.849,203.475 249.400,202.771 249.788 C 202.068 250.176,201.239 250.652,200.930 250.845 C 200.289 251.245,202.311 252.354,177.235 237.851 C 173.855 235.897,168.137 232.599,164.527 230.524 L 157.966 226.750 156.706 227.456 C 156.014 227.845,153.184 229.408,150.419 230.931 C 147.654 232.454,144.763 234.051,143.994 234.479 C 139.944 236.739,139.100 237.153,138.502 237.172 C 137.912 237.191,137.930 237.225,138.689 237.521 C 139.385 237.793,145.199 240.980,146.648 241.885 C 147.544 242.444,151.887 244.957,153.212 245.683 C 153.980 246.104,154.923 246.666,155.307 246.931 C 155.691 247.196,156.508 247.680,157.123 248.007 C 157.737 248.333,158.743 248.907,159.358 249.282 C 159.972 249.657,161.229 250.366,162.151 250.857 C 163.073 251.348,164.141 251.968,164.525 252.233 C 164.909 252.499,167.737 254.158,170.810 255.920 C 173.883 257.681,177.515 259.772,178.881 260.567 C 180.247 261.361,181.394 262.011,181.429 262.011 C 181.464 262.011,182.645 262.703,184.053 263.547 C 185.462 264.392,186.678 265.084,186.756 265.084 C 186.834 265.084,187.586 265.524,188.427 266.061 C 189.267 266.599,190.027 267.039,190.116 267.039 C 190.204 267.039,190.611 267.273,191.018 267.558 C 191.426 267.843,192.388 268.427,193.156 268.854 C 193.925 269.282,195.887 270.372,197.517 271.277 L 200.480 272.922 207.712 268.690 C 211.690 266.363,215.447 264.180,216.061 263.840 C 218.204 262.654,219.990 261.625,222.626 260.060 C 224.085 259.193,226.536 257.754,228.073 256.862 C 229.609 255.971,231.576 254.816,232.444 254.297 C 233.312 253.777,234.103 253.352,234.201 253.352 C 234.299 253.352,235.033 252.912,235.831 252.374 C 236.630 251.837,237.375 251.397,237.488 251.397 C 237.600 251.397,238.544 250.847,239.586 250.176 C 240.628 249.504,242.172 248.586,243.017 248.136 C 244.587 247.299,249.018 244.733,254.749 241.341 C 256.515 240.296,259.218 238.717,260.754 237.833 C 264.672 235.578,268.679 233.277,269.832 232.620 C 270.370 232.313,271.501 231.650,272.346 231.146 C 275.801 229.084,279.828 226.759,281.983 225.581 C 282.291 225.414,284.365 224.193,286.592 222.869 C 289.856 220.928,297.302 216.592,302.374 213.677 C 314.617 206.641,318.063 204.485,318.855 203.368 L 319.693 202.187 319.764 138.194 L 319.836 74.202 319.227 73.553 C 318.892 73.197,318.512 72.905,318.383 72.905 C 318.168 72.905,316.637 72.054,314.011 70.474 C 313.449 70.136,312.807 69.767,312.584 69.655 C 312.208 69.465,304.570 65.093,303.631 64.531 C 303.401 64.392,299.881 62.363,295.810 60.022 C 289.523 56.406,286.681 54.746,284.358 53.336 C 284.127 53.196,283.122 52.622,282.123 52.061 C 281.124 51.499,279.997 50.774,279.617 50.450 C 279.238 50.126,279.079 50.060,279.265 50.304 " stroke="none" fill="#047ad1" fill-rule="evenodd"></path><path id="path3" d="M197.765 5.221 C 196.767 5.779,195.573 6.463,195.112 6.742 C 194.651 7.020,193.815 7.499,193.255 7.805 C 192.695 8.111,192.063 8.523,191.851 8.720 C 191.638 8.917,190.714 9.453,189.796 9.912 C 188.879 10.370,187.374 11.212,186.453 11.782 C 185.531 12.353,184.148 13.155,183.380 13.565 C 182.612 13.975,181.817 14.445,181.613 14.609 C 181.145 14.987,179.069 16.130,178.422 16.367 C 178.153 16.465,177.933 16.657,177.933 16.792 C 177.933 16.928,177.798 17.039,177.633 17.039 C 177.468 17.039,176.493 17.574,175.468 18.227 C 174.442 18.881,173.009 19.705,172.283 20.060 C 171.557 20.414,170.894 20.814,170.811 20.949 C 170.727 21.083,169.978 21.516,169.145 21.910 C 168.312 22.304,167.558 22.744,167.469 22.888 C 167.380 23.031,166.648 23.450,165.842 23.819 C 165.036 24.188,164.190 24.668,163.962 24.885 C 163.734 25.102,163.108 25.506,162.570 25.782 C 160.731 26.727,159.333 27.514,158.507 28.068 C 158.053 28.372,157.404 28.771,157.064 28.953 C 155.533 29.776,154.598 30.319,154.469 30.461 C 154.392 30.546,153.890 30.833,153.352 31.098 C 152.814 31.363,152.130 31.733,151.832 31.921 C 150.403 32.821,148.381 33.996,147.626 34.365 C 147.165 34.591,146.725 34.858,146.648 34.958 C 146.571 35.059,145.783 35.517,144.896 35.977 C 144.009 36.437,143.129 36.938,142.941 37.089 C 142.752 37.241,141.969 37.701,141.201 38.111 C 140.433 38.521,139.006 39.353,138.031 39.959 C 137.055 40.565,136.172 41.061,136.069 41.061 C 135.966 41.061,135.247 41.470,134.473 41.969 C 133.698 42.469,132.632 43.119,132.105 43.415 C 131.577 43.710,131.082 44.025,131.006 44.113 C 130.869 44.271,128.401 45.618,127.167 46.209 C 126.823 46.373,126.540 46.603,126.538 46.718 C 126.537 46.833,126.357 46.927,126.137 46.927 C 125.918 46.927,125.572 47.084,125.369 47.277 C 125.166 47.469,124.623 47.814,124.162 48.044 C 123.701 48.274,123.261 48.526,123.184 48.603 C 123.004 48.784,122.025 49.336,120.260 50.251 C 119.486 50.653,118.475 51.232,118.014 51.538 C 116.673 52.429,116.144 52.744,114.713 53.505 C 113.972 53.899,112.526 54.750,111.501 55.396 C 110.476 56.042,109.043 56.859,108.316 57.212 C 107.590 57.565,106.928 57.964,106.844 58.099 C 106.761 58.234,106.014 58.666,105.184 59.058 C 104.355 59.451,103.509 59.930,103.304 60.123 C 103.100 60.317,102.493 60.694,101.955 60.962 C 100.940 61.468,99.962 62.049,99.721 62.291 C 99.490 62.521,98.524 63.084,97.486 63.591 C 96.948 63.854,95.880 64.461,95.112 64.939 C 94.344 65.416,93.275 66.027,92.737 66.295 C 92.200 66.563,91.320 67.061,90.782 67.402 C 90.244 67.744,89.382 68.273,88.865 68.578 C 88.348 68.884,87.527 69.385,87.040 69.693 C 86.553 70.000,85.410 70.628,84.501 71.089 C 83.592 71.550,82.600 72.146,82.296 72.413 C 81.993 72.680,81.522 72.969,81.250 73.056 C 80.978 73.142,80.681 73.446,80.590 73.732 C 80.500 74.017,80.242 74.320,80.019 74.406 C 79.461 74.620,79.403 144.091,79.960 144.983 C 80.229 145.414,80.230 145.647,79.961 146.076 C 79.747 146.420,79.722 146.685,79.894 146.791 C 80.070 146.900,80.168 157.227,80.168 175.656 L 80.168 204.353 81.634 205.130 C 84.644 206.726,85.338 207.128,85.428 207.332 C 85.480 207.448,85.762 207.542,86.057 207.542 C 86.351 207.542,86.592 207.641,86.592 207.762 C 86.592 207.883,87.315 208.353,88.198 208.806 C 89.082 209.259,90.458 210.040,91.258 210.541 C 92.057 211.042,92.777 211.453,92.858 211.453 C 92.939 211.453,93.694 211.892,94.534 212.430 C 95.375 212.968,96.134 213.408,96.221 213.408 C 96.308 213.408,96.888 213.729,97.510 214.121 C 98.131 214.513,99.040 215.062,99.529 215.340 C 100.019 215.618,101.550 216.504,102.933 217.311 C 106.664 219.486,106.664 219.486,112.849 223.034 C 115.999 224.841,118.764 226.468,118.994 226.649 C 119.225 226.831,119.791 227.162,120.251 227.386 C 120.712 227.609,121.152 227.862,121.229 227.947 C 121.306 228.032,122.123 228.523,123.045 229.038 C 123.966 229.553,125.144 230.212,125.661 230.504 C 126.179 230.795,126.656 230.979,126.722 230.913 C 126.823 230.812,125.855 230.214,123.045 228.643 C 120.307 227.114,119.204 226.399,119.080 226.077 C 119.000 225.869,118.816 225.698,118.672 225.698 C 118.527 225.698,117.315 225.060,115.978 224.280 C 114.641 223.500,113.359 222.752,113.128 222.618 C 112.898 222.484,111.013 221.400,108.939 220.210 C 106.865 219.019,104.665 217.714,104.050 217.309 C 103.436 216.903,102.556 216.383,102.095 216.153 C 101.634 215.922,100.817 215.481,100.279 215.172 C 99.742 214.864,98.108 213.943,96.648 213.127 C 95.189 212.310,93.678 211.424,93.292 211.156 C 92.658 210.717,90.994 209.782,85.475 206.761 C 84.476 206.214,83.282 205.538,82.821 205.258 C 82.360 204.978,81.638 204.611,81.215 204.442 L 80.447 204.135 80.399 174.344 C 80.373 157.959,80.327 144.113,80.297 143.575 C 80.267 143.038,80.224 127.537,80.201 109.129 C 80.155 72.334,80.060 74.451,81.808 73.212 C 82.530 72.700,82.827 72.527,86.173 70.669 C 87.095 70.158,88.666 69.238,89.665 68.626 C 91.601 67.438,98.060 63.687,98.170 63.687 C 98.282 63.687,102.918 60.918,103.212 60.676 C 103.366 60.549,104.183 60.076,105.028 59.626 C 105.873 59.175,107.218 58.396,108.017 57.895 C 108.816 57.393,109.557 56.983,109.662 56.983 C 109.767 56.983,110.712 56.418,111.761 55.726 C 112.811 55.035,113.731 54.469,113.807 54.469 C 113.882 54.469,115.615 53.485,117.656 52.282 C 121.040 50.289,122.944 49.190,124.860 48.125 C 125.244 47.911,126.061 47.426,126.676 47.047 C 127.291 46.667,127.982 46.275,128.212 46.174 C 128.443 46.074,129.385 45.532,130.307 44.970 C 133.898 42.782,137.109 40.917,138.547 40.184 C 138.932 39.989,139.771 39.478,140.413 39.048 C 141.056 38.619,141.686 38.268,141.814 38.268 C 141.942 38.268,142.700 37.828,143.498 37.291 C 144.297 36.753,145.052 36.313,145.177 36.313 C 145.302 36.313,146.029 35.904,146.794 35.404 C 147.559 34.904,148.719 34.256,149.372 33.965 C 150.024 33.673,150.559 33.328,150.559 33.198 C 150.559 33.068,150.682 32.961,150.833 32.961 C 150.983 32.961,151.794 32.521,152.635 31.983 C 153.475 31.446,154.284 31.006,154.433 31.006 C 154.581 31.006,154.744 30.911,154.795 30.796 C 154.846 30.681,155.580 30.218,156.425 29.766 C 157.270 29.315,158.615 28.530,159.414 28.021 C 160.213 27.512,160.999 27.095,161.160 27.095 C 161.321 27.095,161.454 27.001,161.456 26.885 C 161.457 26.770,161.992 26.426,162.643 26.122 C 163.294 25.817,163.890 25.492,163.966 25.401 C 164.043 25.310,164.797 24.870,165.642 24.423 C 166.487 23.977,167.833 23.201,168.632 22.699 C 169.431 22.198,170.151 21.788,170.233 21.788 C 170.314 21.788,171.068 21.348,171.909 20.810 C 172.749 20.272,173.495 19.832,173.565 19.832 C 173.636 19.832,175.119 18.973,176.861 17.923 C 178.603 16.872,180.594 15.714,181.285 15.348 C 181.976 14.982,182.730 14.534,182.961 14.353 C 183.191 14.172,183.851 13.759,184.427 13.436 C 185.003 13.113,185.946 12.585,186.522 12.262 C 187.098 11.939,187.768 11.499,188.011 11.285 C 188.253 11.070,188.549 10.894,188.667 10.894 C 188.785 10.894,189.950 10.265,191.255 9.497 C 192.560 8.729,193.691 8.101,193.768 8.101 C 193.845 8.101,194.242 7.868,194.650 7.583 C 198.142 5.148,201.162 4.237,201.878 5.404 C 201.997 5.598,202.661 6.047,203.352 6.401 C 204.043 6.755,204.672 7.130,204.749 7.234 C 204.881 7.414,206.079 8.124,214.246 12.865 C 216.166 13.980,218.492 15.334,219.413 15.875 C 220.335 16.416,221.969 17.342,223.045 17.935 C 224.120 18.527,225.772 19.494,226.715 20.084 C 227.658 20.674,228.789 21.341,229.229 21.566 C 230.138 22.032,231.072 22.570,234.156 24.405 C 235.351 25.117,236.378 25.698,236.437 25.698 C 236.497 25.698,237.907 26.497,239.572 27.472 C 241.236 28.448,243.289 29.626,244.134 30.091 C 244.979 30.556,246.865 31.660,248.324 32.543 C 249.784 33.426,251.166 34.217,251.397 34.300 C 251.627 34.384,252.341 34.808,252.983 35.243 C 253.625 35.678,254.254 36.034,254.380 36.035 C 254.506 36.035,255.175 36.418,255.866 36.885 C 256.557 37.353,257.500 37.914,257.961 38.133 C 258.422 38.352,259.070 38.731,259.401 38.975 C 259.803 39.271,260.064 39.319,260.187 39.121 C 260.288 38.957,260.143 38.739,259.864 38.636 C 259.585 38.533,259.295 38.372,259.218 38.278 C 259.050 38.072,253.973 35.196,253.779 35.196 C 253.704 35.196,252.917 34.731,252.031 34.164 C 251.144 33.597,249.728 32.736,248.883 32.252 C 240.126 27.234,235.983 24.836,234.992 24.210 C 234.342 23.799,233.740 23.464,233.655 23.464 C 233.570 23.464,232.279 22.730,230.787 21.833 C 229.294 20.936,227.381 19.821,226.536 19.355 C 225.039 18.529,224.309 18.111,219.164 15.128 C 217.798 14.335,216.629 13.687,216.567 13.687 C 216.504 13.687,215.800 13.271,215.001 12.762 C 214.201 12.254,213.359 11.754,213.128 11.651 C 212.898 11.548,212.207 11.152,211.592 10.771 C 210.978 10.390,210.035 9.859,209.497 9.591 C 208.959 9.323,207.866 8.689,207.066 8.183 C 206.267 7.677,205.482 7.263,205.321 7.263 C 205.160 7.263,205.028 7.157,205.028 7.028 C 205.028 6.898,204.431 6.453,203.701 6.037 C 202.971 5.621,201.997 5.045,201.536 4.756 C 200.347 4.010,199.817 4.076,197.765 5.221 M261.034 39.556 C 261.997 40.301,263.687 41.086,263.687 40.788 C 263.687 40.631,263.559 40.503,263.402 40.503 C 263.246 40.503,262.620 40.189,262.011 39.804 C 260.794 39.036,260.150 38.872,261.034 39.556 M264.557 41.583 C 264.924 41.870,265.978 42.499,266.899 42.982 C 268.822 43.989,269.905 44.615,271.077 45.398 C 271.531 45.701,272.379 46.201,272.962 46.508 C 275.211 47.695,279.216 50.078,279.749 50.547 C 280.056 50.818,281.124 51.499,282.123 52.061 C 283.122 52.622,284.127 53.196,284.358 53.336 C 286.681 54.746,289.523 56.406,295.810 60.022 C 299.881 62.363,303.401 64.392,303.631 64.531 C 304.570 65.093,312.208 69.465,312.584 69.655 C 312.807 69.767,313.449 70.136,314.011 70.474 C 316.637 72.054,318.168 72.905,318.383 72.905 C 318.512 72.905,318.892 73.197,319.227 73.553 L 319.836 74.202 319.764 138.194 L 319.693 202.187 318.855 203.368 C 318.063 204.485,314.617 206.641,302.374 213.677 C 297.374 216.551,289.857 220.928,286.592 222.867 C 284.365 224.190,282.102 225.514,281.564 225.810 C 281.027 226.106,280.335 226.487,280.028 226.658 C 279.251 227.089,274.204 230.038,272.346 231.146 C 271.501 231.650,270.370 232.313,269.832 232.620 C 268.679 233.277,264.672 235.578,260.754 237.833 C 259.218 238.717,256.515 240.296,254.749 241.341 C 249.018 244.733,244.587 247.299,243.017 248.136 C 242.172 248.586,240.628 249.504,239.586 250.176 C 238.544 250.847,237.600 251.397,237.488 251.397 C 237.375 251.397,236.630 251.837,235.831 252.374 C 235.033 252.912,234.299 253.352,234.201 253.352 C 234.103 253.352,233.312 253.777,232.444 254.297 C 231.576 254.816,229.609 255.971,228.073 256.862 C 226.536 257.754,224.085 259.193,222.626 260.060 C 219.990 261.625,218.204 262.654,216.061 263.840 C 215.447 264.180,211.690 266.363,207.712 268.690 L 200.480 272.922 197.517 271.277 C 195.887 270.372,193.925 269.282,193.156 268.854 C 192.388 268.427,191.426 267.843,191.018 267.558 C 190.611 267.273,190.204 267.039,190.116 267.039 C 190.027 267.039,189.267 266.599,188.427 266.061 C 187.586 265.524,186.834 265.084,186.756 265.084 C 186.678 265.084,185.462 264.392,184.053 263.547 C 182.645 262.703,181.464 262.011,181.429 262.011 C 181.394 262.011,180.247 261.361,178.881 260.567 C 177.515 259.772,173.883 257.681,170.810 255.920 C 167.737 254.158,164.909 252.499,164.525 252.233 C 164.141 251.968,163.073 251.348,162.151 250.857 C 161.229 250.366,159.972 249.657,159.358 249.282 C 158.743 248.907,157.737 248.333,157.123 248.007 C 156.508 247.680,155.691 247.196,155.307 246.931 C 154.923 246.666,153.980 246.104,153.212 245.683 C 151.949 244.991,147.688 242.528,146.648 241.889 C 144.927 240.831,139.194 237.687,138.718 237.541 C 138.067 237.340,135.853 236.126,135.196 235.610 C 134.965 235.429,134.525 235.197,134.218 235.095 C 133.427 234.832,134.606 235.745,135.987 236.466 C 136.550 236.760,138.017 237.584,139.246 238.299 C 140.475 239.013,144.057 241.076,147.207 242.885 C 154.412 247.021,160.613 250.599,166.341 253.923 C 172.368 257.420,174.056 258.380,174.183 258.380 C 174.242 258.380,174.979 258.820,175.819 259.358 C 176.660 259.895,177.408 260.335,177.482 260.335 C 177.556 260.335,178.222 260.698,178.962 261.142 C 182.793 263.440,195.977 271.071,199.065 272.779 L 200.504 273.574 201.643 272.821 C 202.269 272.406,202.853 272.067,202.940 272.067 C 203.028 272.067,203.753 271.651,204.553 271.142 C 205.352 270.634,206.194 270.130,206.425 270.023 C 206.655 269.916,207.346 269.513,207.961 269.126 C 208.575 268.740,209.267 268.339,209.497 268.234 C 209.728 268.130,211.173 267.300,212.709 266.390 C 214.246 265.480,216.194 264.361,217.039 263.903 C 217.884 263.446,218.774 262.896,219.016 262.681 C 219.259 262.466,219.532 262.291,219.622 262.291 C 219.713 262.291,221.086 261.520,222.673 260.578 C 224.260 259.637,226.124 258.550,226.816 258.164 C 227.507 257.778,228.406 257.229,228.814 256.943 C 229.222 256.658,229.608 256.425,229.672 256.425 C 229.797 256.425,233.985 254.025,240.642 250.139 C 244.881 247.664,248.756 245.415,251.816 243.654 C 252.737 243.123,253.617 242.591,253.771 242.471 C 253.925 242.352,254.616 241.940,255.307 241.558 C 257.186 240.517,263.507 236.861,268.733 233.792 C 271.278 232.298,273.603 230.941,273.900 230.777 C 274.198 230.613,275.384 229.925,276.536 229.249 C 277.689 228.574,279.197 227.703,279.888 227.315 C 280.580 226.926,282.444 225.838,284.031 224.897 C 285.618 223.955,286.976 223.184,287.047 223.184 C 287.119 223.184,287.865 222.744,288.706 222.207 C 289.547 221.669,290.297 221.229,290.374 221.229 C 290.451 221.229,291.022 220.908,291.644 220.516 C 292.265 220.123,293.237 219.542,293.803 219.224 C 297.948 216.897,310.581 209.531,311.453 208.933 C 311.837 208.670,313.031 207.978,314.106 207.395 C 318.065 205.248,318.844 204.635,319.646 203.039 L 320.401 201.536 320.326 137.581 L 320.251 73.625 318.156 72.334 C 316.271 71.173,314.267 70.022,311.872 68.725 C 311.411 68.475,310.490 67.923,309.825 67.498 C 309.160 67.073,308.406 66.647,308.149 66.550 C 307.892 66.454,307.028 65.959,306.229 65.450 C 305.429 64.941,304.709 64.525,304.628 64.525 C 304.547 64.525,303.792 64.085,302.952 63.547 C 302.111 63.010,301.349 62.570,301.257 62.570 C 301.113 62.570,300.378 62.136,297.609 60.418 C 296.668 59.833,287.397 54.519,282.961 52.021 C 282.270 51.632,281.178 50.955,280.536 50.517 C 279.894 50.079,279.294 49.721,279.204 49.721 C 279.113 49.721,278.526 49.397,277.900 49.001 C 276.902 48.372,275.531 47.584,273.603 46.534 C 273.296 46.366,272.982 46.166,272.905 46.089 C 272.828 46.013,272.514 45.813,272.207 45.645 C 269.780 44.323,268.797 43.752,268.436 43.455 C 268.205 43.265,267.577 42.905,267.039 42.653 C 266.501 42.402,265.684 41.942,265.223 41.631 C 264.170 40.920,263.664 40.883,264.557 41.583 M127.096 231.220 C 127.096 231.332,127.819 231.797,128.702 232.253 C 129.585 232.708,130.978 233.504,131.797 234.022 C 132.616 234.540,133.348 234.901,133.424 234.826 C 133.500 234.750,132.766 234.235,131.795 233.680 C 130.823 233.126,129.839 232.555,129.609 232.412 C 128.385 231.652,127.095 231.040,127.096 231.220 " stroke="none" fill="#0b4973" fill-rule="evenodd"></path></g></svg>