<svg id="svg" version="1.1" xmlns="http://www.w3.org/2000/svg" xmlns:xlink="http://www.w3.org/1999/xlink" width="400" height="400" viewBox="0, 0, 400,400"><g id="svgg"><path id="path0" d="M253.726 37.868 C 253.930 40.847,254.335 44.265,255.828 55.600 C 256.190 58.350,256.602 61.590,256.743 62.800 C 256.962 64.677,257.117 64.991,257.800 64.940 C 259.124 64.839,268.395 63.601,278.400 62.188 C 280.930 61.830,283.945 61.445,285.100 61.332 C 287.672 61.080,287.685 60.939,285.300 59.128 C 284.255 58.334,281.600 56.294,279.400 54.593 C 277.200 52.892,274.140 50.545,272.600 49.378 C 271.060 48.210,268.330 46.118,266.532 44.727 C 264.735 43.337,261.071 40.520,258.389 38.468 L 253.512 34.736 253.726 37.868 M75.200 73.200 C 75.200 82.000,75.335 89.194,75.500 89.187 C 75.665 89.180,77.600 88.914,79.800 88.595 C 82.786 88.163,88.085 88.014,100.700 88.008 L 117.600 88.000 117.600 93.800 L 117.600 99.600 116.200 99.600 C 114.708 99.600,114.348 100.290,115.328 101.271 C 121.250 107.203,126.136 120.558,125.472 129.000 C 124.992 135.093,123.597 140.906,121.756 144.480 C 121.450 145.074,121.200 145.749,121.200 145.980 C 121.200 146.268,127.875 146.400,142.435 146.400 L 163.670 146.400 163.418 144.700 C 163.280 143.765,163.000 141.830,162.797 140.400 C 162.594 138.970,162.216 136.405,161.957 134.700 L 161.487 131.600 146.743 131.600 L 132.000 131.600 132.000 124.200 L 132.000 116.800 145.803 116.800 L 159.607 116.800 159.373 114.500 C 159.245 113.235,158.983 111.300,158.792 110.200 C 158.601 109.100,158.338 107.030,158.207 105.600 C 158.077 104.170,157.774 102.235,157.533 101.300 L 157.096 99.600 144.548 99.600 L 132.000 99.600 132.000 93.800 L 132.000 88.000 143.800 88.000 L 155.600 88.000 155.592 87.100 C 155.584 86.254,155.187 82.955,153.776 72.000 C 153.450 69.470,153.022 66.050,152.826 64.400 C 152.630 62.750,152.364 60.905,152.235 60.300 C 152.106 59.695,151.907 58.750,151.792 58.200 L 151.585 57.200 113.392 57.200 L 75.200 57.200 75.200 73.200 M72.028 230.299 C 72.044 258.954,72.206 280.652,72.400 280.200 C 72.694 279.516,72.748 279.501,72.772 280.100 C 72.798 280.752,73.714 280.800,86.178 280.800 L 99.556 280.800 99.678 278.900 C 99.790 277.160,99.893 276.989,100.900 276.873 C 101.917 276.756,102.004 276.606,102.049 274.873 C 102.076 273.843,102.211 269.850,102.349 266.000 L 102.600 259.000 103.700 258.873 L 104.800 258.747 104.801 253.273 C 104.802 250.263,104.920 244.425,105.064 240.300 L 105.326 232.800 106.663 232.800 L 108.000 232.800 108.000 224.460 C 108.000 215.417,108.321 210.000,108.856 210.000 C 109.043 210.000,109.242 224.715,109.300 242.700 L 109.405 275.400 109.502 238.871 L 109.600 202.341 127.300 202.512 C 149.459 202.726,151.546 203.200,157.900 209.455 C 160.731 212.241,161.436 212.685,160.177 210.889 C 159.591 210.052,159.606 210.000,160.421 210.000 C 161.187 210.000,161.267 210.175,161.113 211.498 C 160.987 212.575,161.240 213.614,162.014 215.198 C 162.606 216.409,163.214 217.916,163.365 218.547 C 163.516 219.178,163.736 219.597,163.854 219.479 C 164.127 219.206,162.401 214.048,161.942 213.764 C 161.267 213.347,161.618 212.800,162.561 212.800 C 163.437 212.800,163.546 213.010,163.800 215.200 C 164.051 217.367,164.169 217.600,165.010 217.600 C 165.849 217.600,165.968 217.831,166.196 219.900 C 166.335 221.165,166.485 222.470,166.528 222.800 C 166.571 223.130,167.079 223.455,167.657 223.522 C 168.703 223.644,168.708 223.662,168.993 228.222 C 169.268 232.631,169.312 232.800,170.187 232.800 C 171.181 232.800,171.587 234.146,171.596 237.476 C 171.601 239.549,171.873 239.723,174.573 239.386 L 176.731 239.116 176.994 236.658 C 177.366 233.188,177.525 232.800,178.575 232.800 C 179.448 232.800,179.512 232.610,179.778 229.200 C 180.047 225.766,180.104 225.600,181.001 225.600 C 181.996 225.600,182.229 224.669,182.503 219.600 C 182.591 217.962,182.699 217.789,183.700 217.673 C 184.729 217.555,184.800 217.424,184.800 215.629 C 184.800 211.534,185.202 210.055,186.351 209.922 C 187.211 209.822,187.423 209.566,187.525 208.500 C 187.607 207.648,187.864 207.200,188.269 207.200 C 188.707 207.200,188.824 207.462,188.671 208.100 C 188.303 209.630,187.986 212.227,188.230 211.710 C 188.356 211.440,188.943 209.280,189.533 206.910 L 190.606 202.600 203.439 202.495 L 216.271 202.389 217.173 206.368 C 217.859 209.392,218.210 210.294,218.638 210.130 C 218.982 209.998,219.200 210.173,219.200 210.581 C 219.200 210.947,219.020 211.136,218.800 211.000 C 218.251 210.661,218.245 210.621,219.633 216.540 C 221.175 223.121,221.674 224.588,221.354 221.600 C 221.225 220.390,220.957 219.229,220.759 219.020 C 220.095 218.317,220.392 217.600,221.348 217.600 C 222.446 217.600,222.788 218.893,222.796 223.073 C 222.800 225.473,222.833 225.551,223.900 225.673 C 224.800 225.777,225.018 226.018,225.100 227.000 C 225.617 233.187,225.620 233.200,226.576 233.200 C 227.576 233.200,227.989 235.023,227.997 239.473 C 228.000 241.437,228.058 241.554,229.100 241.673 C 230.000 241.777,230.218 242.018,230.300 243.000 C 230.819 249.215,230.816 249.200,231.798 249.200 C 232.668 249.200,232.751 249.404,233.011 252.178 C 233.276 255.012,233.340 255.161,234.341 255.278 C 235.034 255.358,235.434 255.673,235.512 256.200 C 235.869 258.598,236.001 258.800,237.208 258.800 C 237.863 258.800,238.400 258.620,238.400 258.400 C 238.400 258.180,239.016 258.000,239.768 258.000 C 240.963 258.000,241.170 257.848,241.400 256.800 C 241.600 255.888,241.886 255.600,242.589 255.600 C 243.611 255.600,244.000 254.930,244.000 253.167 C 244.000 252.143,244.143 252.000,245.175 252.000 C 246.208 252.000,246.364 251.843,246.475 250.700 C 246.578 249.629,246.787 249.378,247.663 249.277 C 248.645 249.163,248.748 248.970,249.003 246.777 C 249.249 244.655,249.376 244.400,250.185 244.400 C 251.163 244.400,251.600 242.733,251.600 239.000 C 251.600 235.256,251.164 233.600,250.177 233.600 C 249.348 233.600,249.238 233.360,248.985 231.000 C 248.715 228.477,248.673 228.400,247.572 228.400 C 246.460 228.400,246.436 228.351,246.319 225.900 C 246.206 223.534,246.143 223.393,245.150 223.278 C 244.159 223.163,244.083 222.998,243.825 220.378 C 243.574 217.824,243.477 217.600,242.630 217.600 C 241.567 217.600,241.192 215.921,241.211 211.244 L 241.221 208.600 242.656 210.921 C 243.445 212.198,244.170 213.163,244.268 213.065 C 244.365 212.968,243.729 211.717,242.853 210.287 C 241.977 208.856,240.605 206.492,239.804 205.034 L 238.346 202.382 245.673 202.491 L 253.000 202.600 254.777 205.749 C 256.245 208.350,256.612 208.768,256.884 208.149 C 257.134 207.579,257.166 207.645,257.017 208.425 C 256.882 209.139,257.292 210.255,258.367 212.094 C 259.216 213.547,260.843 216.461,261.983 218.568 C 263.927 222.164,264.864 223.535,263.986 221.500 C 263.772 221.005,263.401 220.105,263.160 219.500 C 262.919 218.895,262.559 218.400,262.361 218.400 C 262.162 218.400,262.000 218.055,262.000 217.633 C 262.000 217.212,261.844 216.807,261.653 216.733 C 260.864 216.430,260.689 214.720,261.461 214.867 C 261.964 214.962,262.240 215.420,262.325 216.303 C 262.434 217.428,262.600 217.600,263.575 217.600 C 264.505 217.600,264.742 217.808,264.940 218.800 C 265.301 220.606,270.267 220.695,270.473 218.900 C 270.578 217.988,270.818 217.779,271.876 217.676 C 272.988 217.569,273.169 217.388,273.276 216.276 C 273.371 215.304,273.614 214.970,274.300 214.872 C 275.315 214.728,275.385 214.907,274.768 216.061 C 274.530 216.505,274.418 216.952,274.520 217.054 C 274.622 217.155,275.331 216.105,276.097 214.719 C 277.695 211.825,278.305 210.727,280.994 205.900 L 282.943 202.400 290.304 202.400 L 297.665 202.400 296.892 203.700 C 293.093 210.089,290.700 214.400,290.951 214.400 C 291.067 214.400,291.819 213.275,292.622 211.900 C 293.425 210.525,294.153 209.325,294.241 209.233 C 294.328 209.142,294.400 210.447,294.400 212.133 L 294.400 215.200 293.200 215.200 C 291.558 215.200,291.473 216.667,293.100 216.913 L 294.200 217.080 293.124 217.140 C 292.183 217.193,292.033 217.387,291.924 218.700 C 291.816 220.002,291.655 220.217,290.700 220.327 C 289.299 220.488,289.212 221.600,290.600 221.600 C 292.079 221.600,291.989 223.102,290.500 223.273 C 289.446 223.395,289.395 223.504,289.281 225.900 C 289.163 228.375,289.150 228.400,287.981 228.400 C 286.719 228.400,286.774 228.239,286.614 232.400 C 286.581 233.257,286.362 233.418,285.088 233.524 L 283.600 233.648 283.600 238.991 C 283.600 245.192,283.699 245.600,285.196 245.600 C 286.379 245.600,286.784 246.335,286.795 248.500 C 286.799 249.449,286.961 249.600,287.975 249.600 C 289.008 249.600,289.164 249.757,289.275 250.900 C 289.378 251.968,289.588 252.222,290.456 252.322 C 291.441 252.436,291.530 252.617,291.788 255.022 C 292.055 257.515,292.101 257.600,293.187 257.600 C 294.155 257.600,294.347 257.795,294.574 259.000 C 294.785 260.128,295.019 260.400,295.775 260.400 C 296.734 260.400,297.200 261.065,297.200 262.433 C 297.200 262.979,297.480 263.200,298.173 263.200 C 299.211 263.200,299.371 263.505,299.806 266.300 C 300.055 267.901,300.147 268.000,301.384 268.000 L 302.697 268.000 302.976 271.200 C 303.237 274.192,303.315 274.400,304.176 274.400 C 305.004 274.400,305.124 274.640,305.368 276.800 C 305.632 279.130,305.674 279.200,306.820 279.200 C 307.733 279.200,308.000 279.381,308.000 280.000 C 308.000 281.168,327.981 281.268,328.028 280.100 C 328.052 279.505,328.105 279.521,328.379 280.200 C 329.130 282.061,329.227 275.269,329.116 228.600 L 329.000 179.800 200.500 179.699 L 72.000 179.599 72.028 230.299 M279.093 208.422 C 278.823 208.854,278.540 209.020,278.464 208.791 C 278.241 208.122,278.757 207.127,279.189 207.393 C 279.440 207.548,279.405 207.924,279.093 208.422 M259.605 210.900 C 259.608 211.395,259.723 212.250,259.860 212.800 C 260.215 214.226,259.429 213.376,258.658 211.500 C 258.069 210.069,258.077 210.000,258.820 210.000 C 259.361 210.000,259.602 210.276,259.605 210.900 M277.717 210.700 C 277.575 211.085,277.352 211.490,277.221 211.600 C 277.091 211.710,276.756 212.318,276.477 212.952 C 275.786 214.521,275.546 214.104,275.853 211.865 C 276.074 210.251,276.234 210.000,277.042 210.000 C 277.762 210.000,277.916 210.160,277.717 210.700 M187.478 213.200 C 187.359 213.530,187.168 214.520,187.053 215.400 L 186.843 217.000 187.423 215.206 C 187.946 213.589,187.996 211.756,187.478 213.200 M202.307 213.890 C 203.026 213.979,204.106 213.977,204.707 213.886 C 205.308 213.795,204.720 213.722,203.400 213.724 C 202.080 213.726,201.588 213.801,202.307 213.890 M125.720 214.298 C 127.655 214.372,130.715 214.371,132.520 214.297 C 134.324 214.223,132.740 214.163,129.000 214.164 C 125.260 214.164,123.784 214.225,125.720 214.298 M139.800 214.800 C 140.240 214.989,140.960 215.144,141.400 215.144 L 142.200 215.144 141.400 214.800 C 140.960 214.611,140.240 214.456,139.800 214.456 L 139.000 214.456 139.800 214.800 M289.770 216.063 C 289.391 216.798,288.817 217.805,288.495 218.300 C 288.172 218.795,288.003 219.200,288.120 219.200 C 288.459 219.200,290.866 215.133,290.653 214.919 C 290.546 214.813,290.149 215.327,289.770 216.063 M142.400 215.334 C 142.400 215.437,142.981 215.724,143.691 215.972 C 144.401 216.219,144.806 216.257,144.591 216.056 C 144.135 215.629,142.400 215.058,142.400 215.334 M145.882 217.002 C 146.354 217.333,147.385 218.356,148.171 219.274 C 148.957 220.193,149.600 220.814,149.600 220.655 C 149.600 220.175,145.923 216.400,145.456 216.400 C 145.217 216.400,145.409 216.671,145.882 217.002 M199.800 217.600 C 199.648 218.291,199.607 218.941,199.709 219.042 C 199.811 219.144,200.009 218.653,200.150 217.950 C 200.483 216.283,200.160 215.960,199.800 217.600 M131.745 218.200 C 131.618 218.530,131.618 219.070,131.745 219.400 C 131.922 219.862,131.656 220.000,130.587 220.000 C 129.210 220.000,129.200 220.013,129.200 221.800 C 129.200 223.496,129.137 223.600,128.100 223.603 C 126.276 223.608,126.304 232.616,128.129 232.876 C 128.989 232.998,129.003 233.126,129.245 242.800 C 129.380 248.190,129.515 253.173,129.545 253.873 C 129.591 254.949,129.771 255.167,130.700 255.273 C 131.549 255.371,131.828 255.639,131.922 256.449 C 132.111 258.082,139.556 258.533,140.165 256.948 C 140.280 256.646,140.811 256.400,141.345 256.400 C 141.878 256.400,142.413 256.143,142.534 255.829 C 142.654 255.515,143.258 255.200,143.876 255.129 C 144.944 255.006,145.017 254.864,145.347 252.300 C 145.658 249.875,145.785 249.600,146.588 249.600 C 148.814 249.600,148.676 223.780,146.449 223.522 C 145.556 223.418,145.382 223.181,145.277 221.924 C 145.166 220.587,145.034 220.436,143.877 220.324 C 142.836 220.223,142.578 220.007,142.478 219.151 C 142.372 218.234,142.127 218.071,140.523 217.851 C 136.892 217.354,131.995 217.548,131.745 218.200 M186.031 219.631 C 185.785 220.778,185.660 221.793,185.753 221.886 C 185.846 221.979,186.123 221.117,186.369 219.969 C 186.615 218.822,186.740 217.807,186.647 217.714 C 186.554 217.621,186.277 218.483,186.031 219.631 M273.503 218.500 C 272.619 219.850,270.656 223.860,271.104 223.400 C 271.638 222.851,274.514 217.600,274.280 217.600 C 274.177 217.600,273.827 218.005,273.503 218.500 M247.600 218.986 C 247.600 219.405,249.206 222.000,249.465 222.000 C 249.575 222.000,249.259 221.325,248.763 220.500 C 247.658 218.662,247.600 218.587,247.600 218.986 M286.846 221.204 C 286.352 222.082,286.036 222.800,286.142 222.800 C 286.449 222.800,288.110 219.977,287.917 219.783 C 287.821 219.687,287.339 220.327,286.846 221.204 M164.237 221.400 C 164.765 224.733,165.170 225.900,164.932 223.400 C 164.806 222.080,164.541 220.730,164.343 220.400 C 164.114 220.018,164.076 220.382,164.237 221.400 M198.578 222.578 C 198.427 223.381,198.394 224.127,198.504 224.237 C 198.614 224.347,198.827 223.781,198.978 222.978 C 199.128 222.175,199.162 221.428,199.052 221.318 C 198.942 221.208,198.728 221.775,198.578 222.578 M185.073 223.353 C 184.923 223.745,184.811 224.366,184.825 224.733 C 184.842 225.175,184.981 225.074,185.237 224.434 C 185.449 223.903,185.561 223.282,185.485 223.054 C 185.409 222.827,185.224 222.961,185.073 223.353 M221.641 224.080 C 221.532 224.828,222.511 228.400,222.825 228.400 C 223.035 228.400,223.036 228.027,222.828 227.500 C 222.633 227.005,222.295 225.970,222.078 225.200 C 221.860 224.430,221.663 223.926,221.641 224.080 M150.868 225.000 C 150.862 225.440,151.011 226.160,151.200 226.600 C 151.638 227.619,151.638 226.568,151.200 225.200 C 150.943 224.396,150.877 224.357,150.868 225.000 M208.446 226.000 C 208.427 226.550,208.587 227.270,208.800 227.600 C 209.294 228.364,209.294 227.542,208.800 226.000 L 208.480 225.000 208.446 226.000 M283.440 227.198 C 282.840 228.299,282.434 229.200,282.537 229.200 C 282.833 229.200,284.889 225.556,284.700 225.367 C 284.606 225.273,284.039 226.097,283.440 227.198 M184.257 226.700 C 184.148 227.085,183.955 228.030,183.828 228.800 C 183.538 230.549,184.160 229.221,184.530 227.300 C 184.793 225.934,184.595 225.499,184.257 226.700 M197.646 226.467 C 197.621 226.834,197.496 227.464,197.370 227.867 C 197.152 228.562,197.163 228.563,197.597 227.887 C 197.848 227.496,197.973 226.866,197.873 226.487 C 197.711 225.868,197.688 225.866,197.646 226.467 M165.510 234.800 C 165.671 244.718,165.877 245.901,165.893 237.000 C 165.900 233.040,165.789 229.260,165.647 228.600 C 165.505 227.940,165.443 230.730,165.510 234.800 M151.765 237.400 C 151.764 242.364,151.891 245.503,152.058 244.600 C 152.430 242.590,152.423 233.266,152.049 230.600 C 151.889 229.458,151.767 232.376,151.765 237.400 M222.846 229.400 C 222.915 231.031,223.515 232.387,223.554 231.000 C 223.573 230.340,223.413 229.530,223.200 229.200 C 222.881 228.706,222.818 228.741,222.846 229.400 M209.444 230.200 C 209.773 231.671,210.002 231.990,209.994 230.967 C 209.991 230.545,209.805 229.930,209.582 229.600 C 209.285 229.162,209.248 229.324,209.444 230.200 M196.602 230.900 C 196.458 231.615,196.243 232.560,196.125 233.000 C 195.983 233.528,196.044 233.664,196.304 233.400 C 196.702 232.996,197.357 229.600,197.037 229.600 C 196.941 229.600,196.746 230.185,196.602 230.900 M281.253 231.000 C 280.799 231.770,280.568 232.400,280.739 232.400 C 280.911 232.400,281.352 231.770,281.719 231.000 C 282.087 230.230,282.318 229.600,282.233 229.600 C 282.148 229.600,281.707 230.230,281.253 231.000 M201.200 232.000 C 201.200 232.587,201.467 232.800,202.200 232.800 C 202.933 232.800,203.200 232.587,203.200 232.000 C 203.200 231.413,202.933 231.200,202.200 231.200 C 201.467 231.200,201.200 231.413,201.200 232.000 M200.800 234.975 C 200.800 236.228,200.680 236.400,199.800 236.400 C 198.924 236.400,198.800 236.573,198.800 237.800 C 198.800 239.017,198.927 239.200,199.775 239.200 C 200.582 239.200,200.771 239.423,200.875 240.500 C 200.986 241.650,201.139 241.800,202.200 241.800 L 203.400 241.800 203.400 237.800 L 203.400 233.800 202.100 233.675 C 200.853 233.554,200.800 233.608,200.800 234.975 M210.456 234.400 C 210.456 234.730,210.611 235.360,210.800 235.800 C 211.017 236.304,211.144 236.378,211.144 236.000 C 211.144 235.670,210.989 235.040,210.800 234.600 C 210.583 234.096,210.456 234.022,210.456 234.400 M224.068 234.400 C 224.088 235.439,224.718 237.146,224.732 236.200 C 224.738 235.760,224.589 235.040,224.400 234.600 C 224.189 234.110,224.061 234.032,224.068 234.400 M195.429 235.429 C 195.281 236.015,195.251 236.584,195.361 236.694 C 195.471 236.804,195.681 236.415,195.829 235.829 C 195.976 235.242,196.006 234.673,195.896 234.563 C 195.786 234.453,195.576 234.842,195.429 235.429 M181.829 236.629 C 181.681 237.215,181.638 237.772,181.732 237.866 C 181.827 237.960,182.024 237.558,182.171 236.971 C 182.319 236.385,182.362 235.828,182.268 235.734 C 182.173 235.640,181.976 236.042,181.829 236.629 M225.053 238.813 C 225.498 241.117,226.032 242.013,225.760 240.000 C 225.627 239.010,225.353 238.026,225.151 237.813 C 224.928 237.576,224.890 237.967,225.053 238.813 M194.446 239.667 C 194.421 240.034,194.296 240.664,194.170 241.067 C 193.952 241.762,193.963 241.763,194.397 241.087 C 194.648 240.696,194.773 240.066,194.673 239.687 C 194.511 239.068,194.488 239.066,194.446 239.667 M226.234 243.600 C 226.647 245.746,227.234 246.907,226.942 245.000 C 226.808 244.120,226.533 243.130,226.331 242.800 C 226.093 242.409,226.059 242.687,226.234 243.600 M193.429 243.829 C 193.281 244.415,193.238 244.972,193.332 245.066 C 193.427 245.160,193.624 244.758,193.771 244.171 C 193.919 243.585,193.962 243.028,193.868 242.934 C 193.773 242.840,193.576 243.242,193.429 243.829 M179.849 244.615 C 179.712 244.973,179.615 245.566,179.634 245.933 C 179.653 246.300,179.827 246.069,180.021 245.420 C 180.398 244.158,180.265 243.533,179.849 244.615 M281.220 246.839 C 281.680 247.740,282.141 248.393,282.244 248.289 C 282.438 248.095,280.853 245.200,280.552 245.200 C 280.460 245.200,280.760 245.937,281.220 246.839 M151.056 249.284 C 150.921 249.788,150.827 250.560,150.846 251.000 C 150.865 251.440,151.045 251.098,151.246 250.240 C 151.636 248.578,151.470 247.740,151.056 249.284 M178.629 249.829 C 178.481 250.415,178.438 250.972,178.532 251.066 C 178.627 251.160,178.824 250.758,178.971 250.171 C 179.119 249.585,179.162 249.028,179.068 248.934 C 178.973 248.840,178.776 249.242,178.629 249.829 M228.249 251.800 C 228.642 254.173,229.217 255.352,228.932 253.200 C 228.800 252.210,228.533 251.130,228.338 250.800 C 228.118 250.427,228.084 250.805,228.249 251.800 M284.420 252.439 C 284.880 253.340,285.341 253.993,285.444 253.889 C 285.638 253.695,284.053 250.800,283.752 250.800 C 283.660 250.800,283.960 251.537,284.420 252.439 M177.429 254.629 C 177.281 255.215,177.238 255.772,177.332 255.866 C 177.427 255.960,177.624 255.558,177.771 254.971 C 177.919 254.385,177.962 253.828,177.868 253.734 C 177.773 253.640,177.576 254.042,177.429 254.629 M146.621 259.129 L 145.443 260.600 146.921 259.222 C 148.449 257.797,148.610 257.580,148.100 257.629 C 147.935 257.645,147.270 258.320,146.621 259.129 M230.468 260.600 C 230.462 261.040,230.611 261.760,230.800 262.200 C 231.238 263.219,231.238 262.168,230.800 260.800 C 230.543 259.996,230.477 259.957,230.468 260.600 M189.467 261.067 C 189.320 261.213,189.203 261.528,189.206 261.767 C 189.210 262.044,189.320 262.030,189.513 261.728 C 189.678 261.468,190.620 261.184,191.607 261.097 L 193.400 260.940 191.567 260.870 C 190.558 260.831,189.613 260.920,189.467 261.067 M212.707 261.090 C 213.426 261.179,214.506 261.177,215.107 261.086 C 215.708 260.995,215.120 260.922,213.800 260.924 C 212.480 260.926,211.988 261.001,212.707 261.090 M131.717 263.097 C 133.211 263.174,135.551 263.174,136.917 263.096 C 138.282 263.018,137.060 262.955,134.200 262.955 C 131.340 262.956,130.222 263.020,131.717 263.097 M188.046 266.067 C 188.021 266.434,187.896 267.064,187.770 267.467 C 187.552 268.162,187.563 268.163,187.997 267.487 C 188.248 267.096,188.373 266.466,188.273 266.087 C 188.111 265.468,188.088 265.466,188.046 266.067 M157.600 267.800 C 156.628 268.790,155.923 269.600,156.033 269.600 C 156.143 269.600,157.028 268.790,158.000 267.800 C 158.972 266.810,159.677 266.000,159.567 266.000 C 159.457 266.000,158.572 266.810,157.600 267.800 M174.229 267.429 C 174.081 268.015,174.038 268.572,174.132 268.666 C 174.227 268.760,174.424 268.358,174.571 267.771 C 174.719 267.185,174.762 266.628,174.668 266.534 C 174.573 266.440,174.376 266.842,174.229 267.429 M293.925 268.900 C 294.360 269.615,295.094 270.830,295.556 271.600 C 296.019 272.370,296.398 272.844,296.399 272.652 C 296.400 272.208,293.610 267.600,293.338 267.600 C 293.226 267.600,293.490 268.185,293.925 268.900 M201.200 269.753 L 201.200 271.107 198.600 271.385 C 196.128 271.650,195.999 271.716,195.972 272.732 C 195.914 274.925,195.908 277.056,195.953 278.900 L 196.000 280.800 202.400 280.800 L 208.800 280.800 208.800 279.224 C 208.800 278.357,208.989 277.531,209.219 277.388 C 209.511 277.208,209.508 276.972,209.211 276.614 C 208.976 276.330,208.820 275.581,208.865 274.949 C 209.094 271.713,209.063 271.674,206.000 271.373 L 203.200 271.097 203.200 269.748 C 203.200 268.577,203.069 268.400,202.200 268.400 C 201.330 268.400,201.200 268.576,201.200 269.753 M232.644 269.800 C 232.973 271.271,233.202 271.590,233.194 270.567 C 233.191 270.145,233.005 269.530,232.782 269.200 C 232.485 268.762,232.448 268.924,232.644 269.800 M187.049 269.815 C 186.912 270.173,186.815 270.766,186.834 271.133 C 186.853 271.500,187.027 271.269,187.221 270.620 C 187.598 269.358,187.465 268.733,187.049 269.815 M173.449 270.615 C 173.312 270.973,173.215 271.566,173.234 271.933 C 173.253 272.300,173.427 272.069,173.621 271.420 C 173.998 270.158,173.865 269.533,173.449 270.615 M296.720 273.680 C 297.634 274.594,297.244 275.198,295.700 275.264 L 294.200 275.328 295.538 275.492 C 297.597 275.745,298.088 275.430,297.533 274.213 C 297.279 273.656,296.884 273.200,296.656 273.200 C 296.404 273.200,296.429 273.389,296.720 273.680 M185.753 274.570 C 185.392 275.349,185.412 275.494,185.853 275.324 C 186.154 275.209,186.400 274.774,186.400 274.357 C 186.400 273.370,186.293 273.405,185.753 274.570 M233.606 274.300 C 233.603 274.795,233.780 275.200,234.000 275.200 C 234.501 275.200,234.501 274.776,234.000 274.000 C 233.686 273.515,233.611 273.572,233.606 274.300 M265.136 275.500 C 264.733 278.362,265.230 280.800,266.217 280.800 C 267.054 280.800,267.169 280.593,267.278 278.900 C 267.399 277.018,267.414 276.999,268.900 276.876 C 270.265 276.763,270.400 276.646,270.400 275.576 L 270.400 274.400 267.845 274.400 C 265.363 274.400,265.286 274.431,265.136 275.500 " stroke="none" fill="#2194d0" fill-rule="evenodd"></path><path id="path1" d="M231.600 79.856 C 230.011 80.089,225.435 80.702,219.656 81.456 L 214.312 82.153 214.583 83.977 C 214.733 84.979,215.121 87.870,215.447 90.400 C 216.103 95.498,216.493 98.472,217.363 105.000 C 217.686 107.420,218.138 110.930,218.368 112.800 C 218.598 114.670,218.965 117.460,219.183 119.000 C 219.402 120.540,219.860 123.960,220.201 126.600 C 220.542 129.240,220.991 132.570,221.199 134.000 C 221.407 135.430,221.684 137.680,221.814 139.000 C 221.945 140.320,222.204 142.300,222.390 143.400 C 222.576 144.500,222.957 147.267,223.235 149.548 L 223.742 153.696 226.571 153.468 C 228.127 153.343,231.380 152.962,233.800 152.622 C 236.220 152.282,239.421 151.886,240.913 151.743 C 244.234 151.423,244.139 151.581,243.551 147.376 L 243.069 143.928 241.834 144.149 C 237.195 144.980,231.927 145.329,231.616 144.826 C 231.436 144.535,231.080 142.565,230.825 140.449 C 230.570 138.332,230.198 135.520,229.999 134.200 C 229.801 132.880,229.349 129.550,228.995 126.800 C 228.641 124.050,228.090 119.820,227.769 117.400 C 227.449 114.980,227.012 111.650,226.798 110.000 C 225.777 102.118,225.101 97.056,224.575 93.349 C 224.259 91.120,224.000 89.108,224.000 88.877 C 224.000 88.404,226.589 87.837,231.582 87.217 C 235.701 86.705,235.799 86.619,235.241 84.019 C 234.999 82.887,234.800 81.429,234.800 80.780 C 234.800 79.536,234.456 79.436,231.600 79.856 M81.800 101.037 C 67.635 103.062,56.770 117.097,58.814 130.727 C 63.068 159.084,100.549 163.874,111.020 137.400 C 118.483 118.530,102.095 98.136,81.800 101.037 M109.600 238.771 L 109.600 275.200 124.956 275.200 C 147.010 275.200,151.644 274.101,157.957 267.375 C 163.606 261.355,165.361 254.361,165.375 237.800 C 165.390 221.338,163.801 215.373,157.809 209.400 C 151.605 203.216,149.435 202.726,127.300 202.512 L 109.600 202.341 109.600 238.771 M190.670 202.700 C 190.573 202.865,189.672 206.330,188.669 210.400 C 184.778 226.183,179.098 249.170,176.019 261.600 C 174.247 268.750,172.798 274.739,172.799 274.910 C 172.800 275.080,175.725 275.170,179.300 275.110 L 185.800 275.000 186.473 272.400 C 186.843 270.970,187.653 267.840,188.273 265.444 L 189.400 261.087 202.934 261.075 C 212.600 261.065,216.547 261.191,216.747 261.515 C 216.902 261.764,217.900 264.946,218.965 268.584 L 220.903 275.200 227.251 275.200 C 233.354 275.200,233.600 275.169,233.600 274.392 C 233.600 273.948,232.332 268.413,230.782 262.092 C 226.469 244.507,221.982 226.127,217.944 209.500 L 216.219 202.400 203.533 202.400 C 196.556 202.400,190.768 202.535,190.670 202.700 M239.809 205.043 C 240.607 206.496,241.967 208.839,242.830 210.250 C 243.694 211.660,244.400 212.904,244.400 213.015 C 244.400 213.125,244.822 213.887,245.337 214.708 C 246.210 216.098,250.716 223.853,256.663 234.200 C 259.785 239.634,260.045 238.095,254.400 247.600 C 251.760 252.045,249.600 255.731,249.600 255.792 C 249.600 255.853,247.080 260.157,244.000 265.358 C 240.920 270.558,238.400 274.904,238.400 275.015 C 238.400 275.127,241.661 275.169,245.646 275.109 L 252.892 275.000 256.089 269.400 C 257.847 266.320,259.852 262.800,260.543 261.577 C 266.078 251.790,267.840 248.891,268.099 249.145 C 268.387 249.427,280.566 270.662,282.191 273.714 L 282.982 275.200 290.091 275.200 C 294.414 275.200,297.200 275.048,297.200 274.812 C 297.200 274.599,296.321 272.934,295.246 271.112 C 294.172 269.291,292.934 267.158,292.495 266.374 C 292.056 265.590,290.296 262.530,288.583 259.574 C 283.472 250.755,277.906 241.065,277.367 240.050 C 276.729 238.847,276.552 239.249,281.589 230.452 C 283.935 226.353,288.258 218.770,291.194 213.600 C 294.131 208.430,296.794 203.795,297.113 203.300 L 297.692 202.400 290.318 202.400 L 282.943 202.400 280.994 205.900 C 279.921 207.825,278.696 210.030,278.270 210.800 C 277.844 211.570,276.287 214.360,274.809 217.000 C 273.332 219.640,271.530 222.880,270.805 224.200 C 267.877 229.531,268.078 229.483,265.803 225.400 C 265.190 224.300,263.484 221.240,262.012 218.600 C 255.812 207.476,253.483 203.371,253.104 202.900 C 252.809 202.534,250.786 202.400,245.529 202.400 L 238.357 202.400 239.809 205.043 M206.214 215.600 C 206.485 216.590,207.275 219.830,207.969 222.800 C 208.663 225.770,209.391 228.830,209.587 229.600 C 209.782 230.370,210.220 232.170,210.558 233.600 C 210.897 235.030,211.810 238.834,212.587 242.053 C 213.364 245.272,214.000 248.107,214.000 248.353 C 214.000 248.671,210.889 248.800,203.200 248.800 C 195.822 248.800,192.400 248.665,192.400 248.374 C 192.400 248.139,192.842 246.204,193.383 244.074 C 194.342 240.294,197.384 227.821,199.499 219.000 C 200.815 213.509,200.795 213.535,203.524 213.682 L 205.720 213.800 206.214 215.600 M142.000 214.985 C 148.315 217.214,150.605 220.477,151.812 228.966 C 153.164 238.474,152.151 249.804,149.444 255.453 C 146.419 261.764,142.935 263.188,130.500 263.195 L 122.400 263.200 122.400 238.538 L 122.400 213.876 131.300 214.113 C 137.916 214.288,140.662 214.512,142.000 214.985 " stroke="none" fill="#eef4f7" fill-rule="evenodd"></path><path id="path2" d="M249.200 30.749 C 249.200 30.940,247.040 31.226,244.400 31.384 C 241.760 31.541,239.600 31.811,239.600 31.984 C 239.600 32.156,237.441 32.426,234.802 32.584 C 232.163 32.741,229.902 33.034,229.778 33.235 C 229.654 33.436,228.483 33.600,227.176 33.600 C 225.869 33.600,224.800 33.760,224.800 33.956 C 224.800 34.151,222.640 34.441,220.000 34.600 C 217.360 34.759,215.200 35.029,215.200 35.200 C 215.200 35.371,213.038 35.641,210.396 35.800 C 207.754 35.959,205.493 36.249,205.373 36.444 C 205.252 36.640,204.173 36.800,202.976 36.800 C 201.779 36.800,200.800 36.957,200.800 37.149 C 200.800 37.340,198.640 37.626,196.000 37.784 C 193.360 37.941,191.200 38.213,191.200 38.387 C 191.200 38.561,188.949 38.834,186.199 38.992 C 183.448 39.151,181.097 39.443,180.975 39.640 C 180.853 39.838,179.773 40.000,178.576 40.000 C 177.379 40.000,176.400 40.157,176.400 40.349 C 176.400 40.540,174.240 40.826,171.600 40.984 C 168.960 41.141,166.800 41.413,166.800 41.587 C 166.800 41.761,164.549 42.034,161.799 42.192 C 159.048 42.351,156.697 42.643,156.575 42.840 C 156.453 43.038,155.373 43.200,154.176 43.200 C 152.979 43.200,152.000 43.380,152.000 43.600 C 152.000 43.820,151.550 44.000,151.000 44.000 C 150.044 44.000,150.000 44.107,150.000 46.400 C 150.000 47.720,150.153 48.800,150.340 48.800 C 150.527 48.800,150.799 50.627,150.946 52.860 C 151.121 55.541,151.398 57.070,151.759 57.360 C 152.060 57.602,152.419 58.610,152.556 59.600 C 153.071 63.304,154.045 70.758,154.620 75.400 C 154.947 78.040,155.311 80.464,155.428 80.787 C 155.546 81.110,155.820 84.980,156.037 89.387 C 156.254 93.794,156.605 97.460,156.816 97.533 C 157.027 97.607,157.200 98.181,157.200 98.810 C 157.200 99.438,157.356 100.049,157.546 100.167 C 157.877 100.371,158.191 101.910,158.616 105.400 C 158.723 106.280,159.106 109.151,159.466 111.780 C 159.836 114.480,159.965 116.611,159.761 116.679 C 159.322 116.824,159.538 122.000,159.983 122.000 C 160.156 122.000,160.426 124.025,160.585 126.500 C 160.774 129.458,161.066 131.217,161.437 131.633 C 162.516 132.841,163.571 140.848,163.769 149.334 C 163.854 152.984,164.079 155.439,164.354 155.714 C 164.599 155.959,164.800 157.204,164.800 158.480 C 164.800 159.756,164.957 160.800,165.149 160.800 C 165.340 160.800,165.626 162.960,165.784 165.600 C 165.941 168.240,166.208 170.400,166.376 170.400 C 166.544 170.400,166.786 172.018,166.915 173.996 C 167.043 175.973,167.260 177.773,167.397 177.996 C 167.950 178.889,292.221 178.516,292.288 177.621 C 292.321 177.193,293.259 175.491,294.374 173.839 C 295.488 172.188,296.400 170.719,296.400 170.576 C 296.400 170.432,296.914 169.659,297.542 168.858 C 298.170 168.056,298.755 167.220,298.843 167.000 C 298.930 166.780,300.056 164.996,301.345 163.035 L 303.689 159.470 303.404 154.535 C 303.248 151.821,302.958 149.600,302.760 149.600 C 302.562 149.600,302.400 148.520,302.400 147.200 C 302.400 145.880,302.238 144.800,302.040 144.800 C 301.842 144.800,301.551 142.550,301.392 139.800 C 301.234 137.050,300.961 134.800,300.787 134.800 C 300.613 134.800,300.341 132.640,300.184 130.000 C 300.026 127.360,299.740 125.200,299.549 125.200 C 299.357 125.200,299.200 124.210,299.200 123.000 C 299.200 121.790,299.042 120.800,298.848 120.800 C 298.655 120.800,298.366 118.549,298.208 115.799 C 298.049 113.048,297.775 110.708,297.599 110.599 C 297.423 110.491,297.149 108.328,296.991 105.795 C 296.833 103.261,296.545 101.090,296.352 100.970 C 296.158 100.851,296.000 99.773,296.000 98.576 C 296.000 97.379,295.842 96.400,295.648 96.400 C 295.455 96.400,295.166 94.149,295.008 91.399 C 294.849 88.648,294.575 86.308,294.399 86.199 C 294.223 86.091,293.949 83.928,293.791 81.395 C 293.633 78.861,293.345 76.690,293.152 76.570 C 292.958 76.451,292.800 75.373,292.800 74.176 C 292.800 72.979,292.643 72.000,292.451 72.000 C 292.260 72.000,291.972 69.810,291.812 67.132 C 291.614 63.813,291.343 62.086,290.960 61.703 C 290.354 61.097,290.046 61.123,277.400 62.838 C 254.671 65.920,256.649 66.108,256.042 60.800 C 255.804 58.710,255.416 55.740,255.182 54.200 C 254.947 52.660,254.695 50.770,254.622 50.000 C 254.549 49.230,254.294 47.070,254.054 45.200 C 253.815 43.330,253.348 39.640,253.016 37.000 C 252.188 30.412,252.184 30.400,250.553 30.400 C 249.809 30.400,249.200 30.557,249.200 30.749 M346.012 73.069 C 344.809 73.167,343.639 73.400,343.412 73.585 C 343.185 73.771,341.965 74.051,340.700 74.208 C 339.435 74.364,338.400 74.651,338.400 74.846 C 338.400 75.041,337.950 75.200,337.400 75.200 C 336.850 75.200,336.400 75.380,336.400 75.600 C 336.400 75.820,336.175 76.006,335.900 76.014 C 335.625 76.021,334.680 76.375,333.800 76.800 C 332.920 77.225,331.975 77.579,331.700 77.586 C 331.425 77.594,331.200 77.780,331.200 78.000 C 331.200 78.220,330.930 78.400,330.600 78.400 C 330.270 78.400,330.000 78.568,330.000 78.773 C 330.000 78.978,329.603 79.272,329.119 79.426 C 328.634 79.580,328.023 79.907,327.760 80.153 C 327.498 80.399,326.707 81.050,326.001 81.600 C 324.875 82.478,324.158 83.157,322.106 85.287 C 321.834 85.569,321.070 86.340,320.407 87.000 C 319.743 87.660,319.201 88.343,319.200 88.518 C 319.200 88.693,318.750 89.286,318.200 89.836 C 317.650 90.386,317.200 91.098,317.200 91.418 C 317.200 91.738,317.034 92.000,316.832 92.000 C 316.629 92.000,316.345 92.540,316.200 93.200 C 316.055 93.860,315.771 94.400,315.568 94.400 C 315.366 94.400,315.200 94.814,315.200 95.320 C 315.200 95.826,314.975 96.465,314.700 96.741 C 314.327 97.114,314.200 99.767,314.200 107.201 C 314.200 114.635,314.327 117.287,314.700 117.660 C 314.975 117.935,315.200 118.844,315.200 119.680 C 315.200 120.516,315.363 121.200,315.562 121.200 C 315.760 121.200,316.052 123.090,316.209 125.400 C 316.367 127.710,316.654 129.600,316.848 129.600 C 317.042 129.600,317.200 130.950,317.200 132.600 C 317.200 134.250,317.040 135.600,316.845 135.600 C 316.649 135.600,316.371 136.230,316.226 137.000 C 316.082 137.770,315.792 138.400,315.582 138.400 C 315.372 138.400,315.200 138.760,315.200 139.200 C 315.200 139.640,315.024 140.000,314.810 140.000 C 314.416 140.000,312.800 143.198,312.800 143.978 C 312.800 144.210,312.659 144.400,312.486 144.400 C 312.314 144.400,311.856 144.985,311.469 145.700 C 310.883 146.782,310.877 146.849,311.431 146.100 C 312.256 144.986,312.302 144.987,314.888 146.149 C 322.747 149.682,333.555 152.000,342.174 152.000 C 345.320 152.000,345.360 152.012,344.389 152.688 C 343.291 153.451,341.990 154.920,342.212 155.145 C 342.291 155.224,342.771 154.850,343.278 154.313 C 344.344 153.185,346.589 152.000,347.661 152.000 C 348.068 152.000,348.400 151.832,348.400 151.627 C 348.400 151.423,349.840 151.129,351.600 150.976 C 353.360 150.822,354.800 150.559,354.800 150.391 C 354.800 150.224,356.601 149.957,358.803 149.800 C 361.005 149.642,362.906 149.353,363.027 149.157 C 363.148 148.960,363.957 148.800,364.824 148.800 C 366.133 148.800,366.400 148.665,366.400 148.000 C 366.400 147.560,366.535 147.236,366.700 147.280 C 367.903 147.602,383.103 138.645,384.777 136.627 C 385.064 136.282,385.557 136.000,385.873 136.000 C 386.205 136.000,386.327 135.805,386.162 135.538 C 385.981 135.246,386.053 135.185,386.357 135.373 C 386.712 135.593,386.611 136.054,385.975 137.135 L 385.112 138.600 385.956 137.838 C 386.420 137.419,386.800 136.834,386.800 136.538 C 386.800 136.242,386.966 136.000,387.168 136.000 C 387.371 136.000,387.655 135.460,387.800 134.800 C 387.945 134.140,388.229 133.600,388.432 133.600 C 388.634 133.600,388.800 133.240,388.800 132.800 C 388.800 132.360,388.966 132.000,389.168 132.000 C 389.371 132.000,389.655 131.460,389.800 130.800 C 389.945 130.140,390.212 129.600,390.394 129.600 C 390.576 129.600,390.849 128.700,391.000 127.600 C 391.151 126.500,391.438 125.600,391.638 125.600 C 391.837 125.600,392.000 125.096,392.000 124.480 C 392.000 123.864,392.225 123.135,392.500 122.860 C 392.867 122.493,393.000 120.195,393.000 114.200 C 393.000 108.206,392.867 105.907,392.500 105.540 C 392.225 105.265,392.000 104.536,392.000 103.920 C 392.000 103.304,391.843 102.800,391.652 102.800 C 391.460 102.800,391.184 101.900,391.038 100.800 C 390.892 99.700,390.599 98.800,390.386 98.800 C 390.174 98.800,390.000 98.512,390.000 98.160 C 390.000 97.473,388.814 94.729,388.375 94.400 C 388.228 94.290,387.984 93.804,387.833 93.320 C 387.341 91.742,385.081 91.684,384.588 93.237 C 384.455 93.657,384.178 94.000,383.973 94.000 C 383.768 94.000,383.600 94.276,383.600 94.613 C 383.600 94.949,383.330 95.329,383.000 95.455 C 382.670 95.582,382.400 95.893,382.400 96.147 C 382.400 96.401,381.995 97.066,381.500 97.625 C 380.538 98.713,379.765 99.835,379.320 100.791 C 379.168 101.116,378.654 101.746,378.178 102.191 C 377.701 102.636,377.184 103.405,377.029 103.900 C 376.873 104.395,376.578 104.800,376.373 104.800 C 376.168 104.800,376.000 105.070,376.000 105.400 C 376.000 105.730,375.835 106.000,375.633 106.000 C 375.431 106.000,374.853 106.675,374.350 107.500 C 373.846 108.325,373.291 109.060,373.117 109.133 C 372.943 109.207,372.800 109.522,372.800 109.833 C 372.800 110.145,372.665 110.401,372.500 110.403 C 372.335 110.404,371.750 111.079,371.200 111.903 C 368.510 115.930,366.057 117.741,363.251 117.772 C 361.518 117.791,360.612 117.635,360.500 117.300 C 360.408 117.025,360.078 116.800,359.767 116.800 C 359.455 116.800,359.200 116.640,359.200 116.443 C 359.200 116.247,358.750 115.974,358.200 115.836 C 357.650 115.698,357.200 115.408,357.200 115.192 C 357.200 114.977,356.924 114.800,356.587 114.800 C 356.251 114.800,355.871 114.530,355.745 114.200 C 355.618 113.870,355.307 113.600,355.053 113.600 C 354.799 113.600,354.134 113.195,353.575 112.700 C 352.509 111.757,351.377 110.973,350.451 110.536 C 350.148 110.393,349.377 109.764,348.737 109.138 C 348.096 108.512,347.321 108.000,347.013 108.000 C 346.706 108.000,346.328 107.603,346.174 107.119 C 346.020 106.634,345.648 105.991,345.347 105.690 C 345.046 105.389,344.800 104.886,344.800 104.571 C 344.800 104.257,344.620 104.000,344.400 104.000 C 344.180 104.000,344.000 103.471,344.000 102.824 C 344.000 102.177,344.180 101.536,344.400 101.400 C 344.620 101.264,344.800 100.884,344.800 100.554 C 344.800 99.641,346.368 96.400,346.810 96.400 C 347.024 96.400,347.200 96.173,347.200 95.896 C 347.200 95.619,347.605 94.934,348.100 94.375 C 349.062 93.287,349.835 92.165,350.280 91.209 C 350.432 90.884,350.946 90.254,351.422 89.809 C 351.899 89.364,352.416 88.595,352.571 88.100 C 352.727 87.605,353.022 87.200,353.227 87.200 C 353.432 87.200,353.600 86.930,353.600 86.600 C 353.600 86.270,353.765 86.000,353.967 86.000 C 354.169 86.000,354.747 85.325,355.250 84.500 C 355.754 83.675,356.309 82.940,356.483 82.867 C 356.657 82.793,356.800 82.478,356.800 82.167 C 356.800 81.855,356.944 81.600,357.120 81.600 C 357.295 81.600,357.880 80.885,358.420 80.011 C 358.959 79.137,359.535 78.417,359.700 78.411 C 359.865 78.405,360.000 78.207,360.000 77.971 C 360.000 77.736,360.225 77.292,360.500 76.985 C 362.374 74.895,362.434 74.405,360.903 73.693 C 359.752 73.159,349.943 72.747,346.012 73.069 M235.251 80.776 C 235.404 81.533,235.591 83.228,235.665 84.543 L 235.800 86.934 233.600 87.436 C 232.390 87.712,229.896 88.065,228.058 88.220 L 224.715 88.502 224.956 91.151 C 225.516 97.338,226.221 102.760,226.500 103.036 C 226.665 103.200,226.804 104.158,226.808 105.167 C 226.812 106.175,227.005 108.170,227.237 109.600 C 227.824 113.227,228.314 117.023,228.899 122.469 C 229.174 125.037,229.535 127.272,229.700 127.436 C 229.865 127.599,230.000 128.594,230.000 129.647 C 230.000 130.699,230.185 132.424,230.411 133.480 C 230.636 134.536,230.991 136.930,231.199 138.800 C 231.747 143.742,232.043 145.221,232.435 144.979 C 233.135 144.546,243.001 143.641,243.338 143.978 C 243.824 144.464,244.523 151.240,244.126 151.619 C 243.947 151.790,242.090 152.112,240.000 152.334 C 237.910 152.556,233.950 153.050,231.200 153.432 C 222.348 154.660,223.521 155.684,222.234 145.600 C 221.912 143.070,221.355 138.840,220.997 136.200 C 220.638 133.560,220.181 130.140,219.981 128.600 C 219.780 127.060,219.339 123.730,219.000 121.200 C 218.661 118.670,218.120 114.530,217.799 112.000 C 217.477 109.470,217.043 106.140,216.835 104.600 C 216.626 103.060,216.260 100.180,216.021 98.200 C 215.782 96.220,215.413 93.520,215.202 92.200 C 213.545 81.829,213.579 81.675,217.647 81.202 C 226.612 80.159,230.962 79.572,231.154 79.379 C 232.064 78.469,234.984 79.465,235.251 80.776 M86.575 88.385 C 86.363 88.597,84.431 88.894,82.281 89.045 C 80.132 89.196,78.279 89.473,78.163 89.660 C 77.867 90.139,75.200 90.085,75.200 89.600 C 75.200 89.380,74.750 89.200,74.200 89.200 C 73.650 89.200,73.200 89.380,73.200 89.600 C 73.200 89.820,72.790 90.000,72.289 90.000 C 71.103 90.000,64.395 93.375,63.536 94.404 C 63.171 94.842,62.595 95.200,62.256 95.200 C 61.917 95.200,61.496 95.425,61.320 95.700 C 61.144 95.975,60.190 96.825,59.200 97.589 C 58.210 98.353,57.071 99.389,56.669 99.891 C 56.267 100.393,55.682 101.060,55.369 101.374 C 55.056 101.687,54.800 102.054,54.800 102.191 C 54.800 102.327,54.350 102.855,53.800 103.365 C 53.250 103.875,52.800 104.496,52.800 104.746 C 52.800 104.996,52.623 105.200,52.408 105.200 C 52.192 105.200,51.902 105.650,51.764 106.200 C 51.626 106.750,51.367 107.200,51.188 107.200 C 51.010 107.200,50.745 107.740,50.600 108.400 C 50.455 109.060,50.171 109.600,49.968 109.600 C 49.766 109.600,49.600 109.960,49.600 110.400 C 49.600 110.840,49.428 111.200,49.218 111.200 C 49.008 111.200,48.712 111.875,48.560 112.700 C 48.409 113.525,48.126 114.304,47.932 114.430 C 47.738 114.557,47.469 115.592,47.334 116.730 C 47.199 117.869,46.934 118.800,46.744 118.800 C 46.555 118.800,46.400 119.509,46.400 120.376 C 46.400 121.243,46.220 122.064,46.000 122.200 C 45.468 122.529,45.468 133.071,46.000 133.400 C 46.220 133.536,46.400 134.447,46.400 135.424 C 46.400 136.401,46.559 137.200,46.754 137.200 C 46.949 137.200,47.232 138.190,47.383 139.400 C 47.534 140.610,47.825 141.600,48.029 141.600 C 48.233 141.600,48.400 141.869,48.400 142.197 C 48.400 143.031,49.723 146.000,50.094 146.000 C 50.262 146.000,50.400 146.366,50.400 146.813 C 50.400 147.259,50.670 147.729,51.000 147.855 C 51.330 147.982,51.600 148.432,51.600 148.855 C 51.600 149.279,51.870 149.729,52.200 149.855 C 52.530 149.982,52.800 150.336,52.800 150.643 C 52.800 150.949,52.968 151.200,53.173 151.200 C 53.378 151.200,53.671 151.594,53.824 152.076 C 54.252 153.424,62.004 160.800,62.993 160.800 C 63.125 160.800,63.627 161.167,64.109 161.615 C 64.590 162.064,65.393 162.534,65.892 162.659 C 66.391 162.784,66.800 163.039,66.800 163.225 C 66.800 163.411,67.430 163.682,68.200 163.826 C 68.970 163.971,69.600 164.205,69.600 164.347 C 69.600 164.714,71.559 165.533,73.203 165.854 C 73.971 166.003,74.702 166.280,74.827 166.469 C 74.952 166.658,76.797 166.926,78.927 167.066 C 81.057 167.206,82.800 167.474,82.800 167.660 C 82.800 168.104,88.288 168.104,88.562 167.661 C 88.678 167.474,90.443 167.203,92.486 167.058 C 94.529 166.914,96.260 166.616,96.333 166.398 C 96.407 166.179,96.857 166.001,97.333 166.002 C 98.470 166.005,102.000 164.733,102.000 164.321 C 102.000 164.144,102.230 164.000,102.511 164.000 C 102.792 164.000,104.063 163.460,105.335 162.800 C 107.989 161.423,108.000 161.420,108.000 162.134 C 108.000 162.607,110.115 164.800,110.570 164.800 C 110.668 164.800,112.916 166.960,115.567 169.600 C 118.218 172.240,120.491 174.400,120.619 174.400 C 120.871 174.400,122.731 176.060,124.093 177.500 C 125.003 178.462,145.207 178.959,145.779 178.034 C 146.113 177.494,145.304 175.615,144.626 175.355 C 144.304 175.231,141.963 173.076,139.425 170.565 C 136.886 168.054,134.702 166.000,134.572 166.000 C 134.442 166.000,132.819 164.515,130.965 162.700 C 126.406 158.236,125.289 157.200,125.035 157.200 C 124.570 157.200,118.800 151.111,118.800 150.620 C 118.800 150.333,119.070 149.874,119.400 149.600 C 119.730 149.326,120.000 148.873,120.000 148.594 C 120.000 148.314,120.279 147.979,120.619 147.848 C 121.087 147.669,121.175 147.276,120.982 146.244 C 120.818 145.370,120.945 144.395,121.335 143.539 C 121.670 142.802,122.255 141.210,122.634 140.000 C 123.014 138.790,123.522 137.368,123.762 136.839 C 124.417 135.402,124.360 118.720,123.700 118.500 C 123.425 118.408,123.200 117.920,123.200 117.416 C 123.200 116.539,122.629 114.888,121.375 112.140 C 121.059 111.446,120.800 110.773,120.800 110.642 C 120.800 110.286,117.335 104.790,116.508 103.834 C 114.311 101.294,113.474 99.925,113.942 99.636 C 114.273 99.431,113.907 98.902,112.790 97.968 C 111.889 97.216,110.775 96.285,110.315 95.900 C 109.854 95.515,109.278 95.200,109.035 95.200 C 108.792 95.200,108.368 94.840,108.093 94.400 C 107.818 93.960,107.398 93.600,107.160 93.600 C 106.921 93.600,106.269 93.240,105.709 92.800 C 105.150 92.360,104.356 92.000,103.946 92.000 C 103.536 92.000,103.200 91.864,103.200 91.698 C 103.200 91.335,101.459 90.551,99.800 90.167 C 99.140 90.015,98.387 89.723,98.128 89.519 C 97.868 89.315,96.653 89.044,95.428 88.918 C 94.202 88.792,93.200 88.533,93.200 88.344 C 93.200 87.870,87.052 87.908,86.575 88.385 M92.900 100.611 C 93.725 100.763,94.400 101.048,94.400 101.244 C 94.400 101.440,94.680 101.600,95.022 101.600 C 95.851 101.600,98.963 103.036,100.971 104.345 C 102.509 105.348,103.018 105.739,105.088 107.512 C 106.625 108.829,109.480 112.750,110.627 115.121 C 111.233 116.374,111.891 117.729,112.087 118.131 C 112.284 118.532,112.550 119.747,112.678 120.831 C 112.806 121.914,113.066 122.800,113.256 122.800 C 113.445 122.800,113.600 123.026,113.600 123.301 C 113.600 123.577,114.215 124.668,114.967 125.725 C 129.104 145.609,104.689 170.471,84.241 157.016 C 82.592 155.931,81.022 155.200,80.341 155.200 C 79.713 155.200,79.200 155.044,79.200 154.854 C 79.200 154.664,78.407 154.400,77.437 154.267 C 75.758 154.037,73.731 153.086,70.209 150.874 C 68.437 149.762,68.461 149.782,65.634 147.031 C 64.521 145.948,63.506 144.733,63.378 144.331 C 63.250 143.929,63.018 143.600,62.860 143.600 C 62.606 143.600,60.414 139.504,59.542 137.400 C 57.450 132.354,57.475 122.948,59.593 118.200 C 59.789 117.760,60.075 116.950,60.228 116.400 C 60.936 113.860,67.886 105.200,69.217 105.200 C 69.396 105.200,69.785 104.975,70.082 104.700 C 71.019 103.831,75.564 101.600,76.399 101.600 C 76.840 101.600,77.200 101.420,77.200 101.200 C 77.200 100.980,77.695 100.787,78.300 100.772 C 78.905 100.756,79.760 100.582,80.200 100.385 C 81.068 99.995,90.464 100.162,92.900 100.611 M382.229 141.409 C 381.805 141.729,381.565 142.099,381.696 142.229 C 381.826 142.360,382.308 142.092,382.767 141.633 C 383.719 140.681,383.379 140.539,382.229 141.409 M374.100 145.882 C 373.605 145.978,373.200 146.198,373.200 146.372 C 373.200 146.547,373.650 146.603,374.200 146.498 C 374.750 146.393,375.200 146.148,375.200 145.953 C 375.200 145.759,375.155 145.625,375.100 145.654 C 375.045 145.684,374.595 145.787,374.100 145.882 M295.700 178.297 C 297.405 178.372,300.195 178.372,301.900 178.297 C 303.605 178.222,302.210 178.161,298.800 178.161 C 295.390 178.161,293.995 178.222,295.700 178.297 M310.923 178.299 C 313.741 178.368,318.241 178.368,320.923 178.299 C 323.605 178.230,321.300 178.173,315.800 178.173 C 310.300 178.174,308.105 178.230,310.923 178.299 M92.900 316.254 C 92.405 316.365,92.000 316.600,92.000 316.777 C 92.000 316.953,91.323 317.206,90.496 317.338 C 89.658 317.472,88.733 317.938,88.408 318.389 C 88.086 318.835,87.597 319.200,87.321 319.200 C 87.045 319.200,86.503 319.695,86.118 320.300 C 85.733 320.905,85.315 321.490,85.188 321.600 C 83.604 322.978,82.825 336.211,84.300 336.701 C 84.575 336.792,84.800 337.085,84.800 337.353 C 84.800 338.966,90.865 343.200,93.174 343.200 C 93.628 343.200,94.000 343.380,94.000 343.600 C 94.000 343.820,94.529 344.000,95.176 344.000 C 95.823 344.000,96.449 344.156,96.567 344.347 C 96.686 344.538,97.909 344.822,99.287 344.978 C 100.665 345.134,101.974 345.405,102.196 345.580 C 102.418 345.756,103.455 346.023,104.500 346.174 C 105.545 346.325,106.400 346.618,106.400 346.825 C 106.400 347.031,106.670 347.200,107.000 347.200 C 107.672 347.200,108.814 348.240,109.808 349.756 C 111.469 352.291,109.829 360.000,107.629 360.000 C 107.393 360.000,107.200 360.172,107.200 360.382 C 107.200 360.592,106.568 360.882,105.796 361.027 C 105.023 361.172,104.293 361.450,104.172 361.645 C 103.887 362.107,93.308 362.110,93.133 361.648 C 93.060 361.455,91.020 361.230,88.600 361.148 L 84.200 361.000 84.082 363.903 C 83.943 367.341,84.262 367.600,88.626 367.600 C 90.075 367.600,91.200 367.775,91.200 368.000 C 91.200 368.253,94.133 368.400,99.200 368.400 C 103.600 368.400,107.200 368.243,107.200 368.051 C 107.200 367.859,107.882 367.593,108.715 367.460 C 109.548 367.327,110.621 366.854,111.098 366.409 C 111.576 365.964,112.141 365.600,112.355 365.600 C 113.087 365.600,115.545 362.957,115.816 361.879 C 115.965 361.285,116.247 360.800,116.443 360.800 C 116.640 360.800,116.800 360.361,116.800 359.824 C 116.800 359.287,116.980 358.736,117.200 358.600 C 118.310 357.914,117.460 346.015,116.300 346.003 C 116.135 346.001,116.000 345.743,116.000 345.428 C 116.000 344.548,113.487 342.087,112.279 341.784 C 111.685 341.635,111.200 341.353,111.200 341.157 C 111.200 340.960,110.855 340.800,110.433 340.800 C 110.012 340.800,109.606 340.617,109.531 340.393 C 109.456 340.169,108.451 339.874,107.298 339.737 C 106.144 339.600,105.200 339.348,105.200 339.176 C 105.200 339.004,104.030 338.738,102.600 338.585 C 101.170 338.432,100.000 338.148,100.000 337.953 C 100.000 337.759,99.471 337.600,98.824 337.600 C 98.177 337.600,97.546 337.436,97.422 337.235 C 97.297 337.034,96.465 336.746,95.571 336.595 C 93.884 336.310,91.841 334.681,90.900 332.871 C 90.304 331.725,90.223 326.800,90.800 326.800 C 91.020 326.800,91.200 326.573,91.200 326.296 C 91.200 325.596,93.112 323.600,93.783 323.600 C 94.086 323.600,94.409 323.375,94.502 323.100 C 94.728 322.428,114.095 322.485,114.319 323.158 C 114.809 324.626,116.000 323.521,116.000 321.600 C 116.000 320.500,116.180 319.600,116.400 319.600 C 116.620 319.600,116.800 319.060,116.800 318.400 C 116.800 317.631,116.596 317.200,116.233 317.200 C 115.922 317.200,115.599 316.998,115.517 316.750 C 115.363 316.288,94.768 315.836,92.900 316.254 M287.500 316.269 C 286.895 316.370,286.400 316.621,286.400 316.827 C 286.400 317.032,286.055 317.200,285.632 317.200 C 284.765 317.200,282.406 318.442,282.403 318.900 C 282.401 319.065,282.157 319.200,281.860 319.200 C 281.563 319.200,280.888 319.776,280.360 320.480 C 279.832 321.184,279.090 322.079,278.710 322.470 C 278.331 322.860,277.898 323.679,277.749 324.290 C 277.599 324.900,277.370 325.490,277.238 325.600 C 276.534 326.191,275.959 327.878,275.736 330.005 C 275.599 331.322,275.332 332.400,275.143 332.400 C 274.954 332.400,274.800 336.900,274.800 342.400 C 274.800 347.900,274.955 352.400,275.144 352.400 C 275.333 352.400,275.593 353.416,275.721 354.657 C 275.849 355.898,276.144 357.104,276.377 357.337 C 276.610 357.570,276.800 358.084,276.800 358.480 C 276.800 358.876,276.957 359.200,277.150 359.200 C 277.343 359.200,277.599 359.697,277.721 360.305 C 277.970 361.552,281.709 365.600,282.612 365.600 C 282.935 365.600,283.200 365.738,283.200 365.906 C 283.200 366.365,286.263 367.600,287.403 367.600 C 287.951 367.600,288.400 367.780,288.400 368.000 C 288.400 368.519,302.154 368.540,303.105 368.022 C 303.487 367.814,304.475 367.536,305.300 367.404 C 306.125 367.272,306.800 366.992,306.800 366.782 C 306.800 366.572,307.070 366.400,307.400 366.400 C 307.730 366.400,308.000 366.220,308.000 366.000 C 308.000 365.780,308.289 365.600,308.643 365.600 C 310.048 365.600,314.400 360.187,314.400 358.440 C 314.400 358.198,314.580 358.000,314.800 358.000 C 315.020 358.000,315.200 357.496,315.200 356.880 C 315.200 356.264,315.425 355.535,315.700 355.260 C 316.078 354.882,316.200 351.755,316.200 342.400 C 316.200 333.045,316.078 329.918,315.700 329.540 C 315.425 329.265,315.200 328.536,315.200 327.920 C 315.200 327.304,315.020 326.800,314.800 326.800 C 314.580 326.800,314.400 326.610,314.400 326.378 C 314.400 325.598,312.784 322.400,312.390 322.400 C 312.176 322.400,312.000 322.218,312.000 321.997 C 312.000 321.370,309.931 319.200,309.334 319.200 C 309.040 319.200,308.800 319.059,308.800 318.886 C 308.800 318.401,306.572 317.200,305.672 317.200 C 305.229 317.200,304.792 316.975,304.700 316.700 C 304.533 316.198,290.087 315.836,287.500 316.269 M119.467 316.667 C 119.320 316.813,119.200 318.253,119.200 319.867 L 119.200 322.800 127.200 322.800 L 135.200 322.800 135.200 345.200 L 135.200 367.600 138.400 367.600 L 141.600 367.600 141.600 345.200 L 141.600 322.800 149.600 322.800 L 157.600 322.800 157.600 319.600 L 157.600 316.400 138.667 316.400 C 128.253 316.400,119.613 316.520,119.467 316.667 M211.600 342.020 L 211.600 367.640 224.900 367.520 C 238.194 367.400,239.317 367.287,240.400 365.954 C 240.510 365.819,241.005 365.581,241.500 365.427 C 241.995 365.272,242.400 364.978,242.400 364.773 C 242.400 364.568,242.630 364.400,242.911 364.400 C 243.192 364.400,243.687 364.081,244.011 363.692 C 245.600 361.782,246.715 360.105,246.996 359.200 C 247.168 358.650,247.419 358.110,247.554 358.000 C 248.231 357.449,248.869 355.726,249.084 353.869 C 249.215 352.731,249.516 351.674,249.753 351.520 C 250.413 351.090,250.362 332.321,249.700 332.100 C 249.422 332.007,249.199 331.282,249.198 330.467 C 249.196 329.660,248.926 328.484,248.598 327.854 C 248.269 327.224,248.000 326.459,248.000 326.154 C 248.000 325.849,247.840 325.600,247.643 325.600 C 247.447 325.600,247.174 325.150,247.036 324.600 C 246.898 324.050,246.608 323.600,246.392 323.600 C 246.177 323.600,246.000 323.406,246.000 323.169 C 246.000 322.633,243.801 320.400,243.274 320.400 C 243.060 320.400,242.782 320.130,242.655 319.800 C 242.529 319.470,242.059 319.200,241.613 319.200 C 241.166 319.200,240.800 319.020,240.800 318.800 C 240.800 318.580,240.545 318.400,240.233 318.400 C 239.922 318.400,239.606 318.217,239.531 317.994 C 239.457 317.771,238.182 317.475,236.698 317.336 C 235.214 317.198,234.000 316.930,234.000 316.742 C 234.000 316.554,228.960 316.400,222.800 316.400 L 211.600 316.400 211.600 342.020 M162.800 337.605 C 162.800 348.828,162.958 358.323,163.151 358.705 C 163.344 359.087,163.791 360.075,164.145 360.900 C 164.498 361.725,164.970 362.400,165.194 362.400 C 165.417 362.400,165.600 362.642,165.600 362.939 C 165.600 363.612,166.947 365.200,167.518 365.200 C 167.752 365.200,168.188 365.425,168.487 365.700 C 169.484 366.616,170.749 367.182,172.383 367.444 C 173.272 367.586,174.000 367.859,174.000 368.051 C 174.000 368.243,177.240 368.400,181.200 368.400 C 185.160 368.400,188.400 368.243,188.400 368.052 C 188.400 367.860,189.268 367.588,190.329 367.447 C 191.403 367.305,192.637 366.838,193.113 366.396 C 193.582 365.958,194.140 365.600,194.352 365.600 C 194.967 365.600,198.000 362.428,198.000 361.785 C 198.000 361.463,198.178 361.200,198.395 361.200 C 198.613 361.200,198.906 360.480,199.046 359.600 C 199.187 358.720,199.459 358.000,199.651 358.000 C 199.845 358.000,200.000 348.940,200.000 337.600 L 200.000 317.200 196.800 317.200 L 193.600 317.200 193.600 334.800 C 193.600 344.480,193.445 352.400,193.256 352.400 C 193.066 352.400,192.810 353.510,192.687 354.866 C 192.537 356.521,192.256 357.449,191.832 357.686 C 191.484 357.881,191.200 358.301,191.200 358.620 C 191.200 358.939,191.054 359.200,190.875 359.200 C 190.697 359.200,190.144 359.579,189.647 360.042 C 189.150 360.505,188.032 360.979,187.162 361.096 C 186.292 361.212,185.484 361.464,185.367 361.654 C 185.084 362.112,176.800 362.103,176.800 361.645 C 176.800 361.449,176.154 361.168,175.365 361.020 C 172.803 360.539,170.364 357.642,170.104 354.770 C 169.986 353.466,169.734 352.400,169.544 352.400 C 169.355 352.400,169.200 344.480,169.200 334.800 L 169.200 317.200 166.000 317.200 L 162.800 317.200 162.800 337.605 M258.800 342.400 L 258.800 367.600 262.000 367.600 L 265.200 367.600 265.200 342.400 L 265.200 317.200 262.000 317.200 L 258.800 317.200 258.800 342.400 M302.005 323.230 C 304.620 324.714,306.384 326.270,306.616 327.300 C 306.752 327.905,307.013 328.400,307.197 328.400 C 307.380 328.400,307.651 329.119,307.800 329.998 C 307.948 330.877,308.234 331.697,308.435 331.822 C 308.636 331.946,308.800 332.656,308.800 333.400 C 308.800 334.144,308.980 334.864,309.200 335.000 C 309.444 335.151,309.600 338.204,309.600 342.824 C 309.600 347.608,309.453 350.400,309.200 350.400 C 308.980 350.400,308.800 350.919,308.800 351.554 C 308.800 352.189,308.531 353.224,308.202 353.854 C 307.874 354.484,307.600 355.360,307.593 355.800 C 307.573 357.216,303.480 360.839,301.620 361.088 C 300.729 361.208,300.000 361.462,300.000 361.653 C 300.000 361.844,298.110 362.000,295.800 362.000 C 293.490 362.000,291.600 361.840,291.600 361.645 C 291.600 361.450,290.801 361.171,289.823 361.024 C 288.238 360.787,284.400 357.897,284.400 356.942 C 284.400 356.719,283.506 354.611,282.659 352.839 C 282.053 351.570,282.014 332.098,282.617 331.685 C 282.846 331.528,283.288 330.611,283.598 329.647 C 283.909 328.683,284.396 327.661,284.681 327.376 C 284.967 327.090,285.200 326.729,285.200 326.572 C 285.200 326.001,287.595 324.016,288.584 323.768 C 289.143 323.628,289.600 323.365,289.600 323.183 C 289.600 322.265,300.377 322.306,302.005 323.230 M230.800 323.144 C 230.800 323.334,231.905 323.589,233.256 323.712 C 234.607 323.834,235.822 324.086,235.956 324.271 C 236.090 324.456,236.830 324.938,237.600 325.341 C 238.929 326.037,241.600 329.784,241.600 330.952 C 241.600 331.220,241.798 331.638,242.041 331.881 C 242.284 332.124,242.580 334.230,242.699 336.561 C 242.818 338.892,243.069 340.800,243.257 340.800 C 243.446 340.800,243.600 341.070,243.600 341.400 C 243.600 341.730,243.445 342.000,243.256 342.000 C 243.066 342.000,242.819 344.108,242.705 346.684 C 242.575 349.621,242.331 351.423,242.049 351.517 C 241.802 351.599,241.599 351.967,241.598 352.333 C 241.594 354.367,238.998 358.201,236.800 359.422 C 236.030 359.850,235.272 360.380,235.115 360.600 C 234.946 360.838,231.423 361.050,226.415 361.122 L 218.000 361.245 218.000 342.022 L 218.000 322.800 224.400 322.800 C 227.920 322.800,230.800 322.955,230.800 323.144 " stroke="none" fill="#282428" fill-rule="evenodd"></path><path id="path3" d="M252.186 31.100 C 252.335 31.485,252.632 33.420,252.846 35.400 C 253.338 39.955,253.529 40.457,253.568 37.301 L 253.600 34.802 258.432 38.501 C 261.090 40.535,264.735 43.337,266.532 44.727 C 268.330 46.118,271.060 48.210,272.600 49.378 C 274.140 50.545,277.200 52.892,279.400 54.593 C 281.600 56.294,284.255 58.334,285.300 59.128 C 286.345 59.921,287.200 60.712,287.200 60.885 C 287.200 61.058,286.345 61.203,285.300 61.206 C 284.255 61.209,283.130 61.387,282.800 61.600 C 282.002 62.116,282.980 62.121,286.200 61.621 C 287.520 61.415,289.202 61.160,289.938 61.053 C 290.673 60.945,291.361 60.772,291.466 60.667 C 291.797 60.336,290.276 58.829,289.867 59.082 C 289.652 59.215,289.600 59.124,289.751 58.879 C 289.916 58.612,289.381 58.139,288.405 57.692 C 287.514 57.283,286.904 56.830,287.049 56.684 C 287.195 56.538,286.974 56.293,286.557 56.139 C 286.141 55.984,285.672 55.665,285.515 55.429 C 285.358 55.193,285.043 54.977,284.815 54.950 C 284.587 54.923,284.175 54.875,283.900 54.844 C 283.543 54.804,283.566 54.683,283.979 54.421 C 284.435 54.133,284.335 53.999,283.508 53.791 C 282.930 53.646,282.356 53.263,282.232 52.939 C 282.107 52.614,281.820 52.464,281.593 52.604 C 281.366 52.745,281.230 52.621,281.290 52.330 C 281.351 52.038,281.170 51.847,280.889 51.904 C 280.608 51.961,280.273 51.736,280.146 51.404 C 280.019 51.072,279.664 50.800,279.357 50.800 C 279.051 50.800,278.799 50.575,278.797 50.300 C 278.793 49.721,276.853 48.720,276.344 49.035 C 276.155 49.152,276.000 49.057,276.000 48.824 C 276.000 47.972,275.827 47.786,274.327 47.024 C 273.337 46.521,272.968 46.143,273.279 45.951 C 273.586 45.761,273.371 45.558,272.679 45.384 C 272.086 45.235,271.600 44.953,271.600 44.757 C 271.600 44.560,271.330 44.400,271.000 44.400 C 270.670 44.400,270.400 44.230,270.400 44.023 C 270.400 43.815,269.679 43.216,268.799 42.691 C 267.918 42.165,267.301 41.632,267.427 41.506 C 267.554 41.380,267.123 41.159,266.469 41.015 C 265.771 40.862,265.198 40.435,265.079 39.979 C 264.967 39.553,264.544 39.082,264.138 38.932 C 263.732 38.783,263.254 38.418,263.075 38.122 C 262.897 37.826,262.582 37.688,262.375 37.815 C 262.169 37.943,262.000 37.767,262.000 37.424 C 262.000 37.081,261.770 36.800,261.489 36.800 C 261.208 36.800,260.387 36.260,259.664 35.600 C 258.942 34.940,258.005 34.400,257.583 34.400 C 257.098 34.400,256.723 34.032,256.565 33.403 C 256.427 32.854,256.153 32.506,255.955 32.628 C 255.756 32.751,255.486 32.569,255.354 32.225 C 255.222 31.881,254.774 31.600,254.357 31.600 C 253.941 31.600,253.600 31.330,253.600 31.000 C 253.600 30.657,253.240 30.400,252.757 30.400 C 252.118 30.400,251.980 30.569,252.186 31.100 M253.665 41.200 C 253.662 41.750,253.901 43.730,254.196 45.600 L 254.731 49.000 254.506 45.605 C 254.382 43.738,254.143 41.758,253.974 41.205 L 253.669 40.200 253.665 41.200 M255.069 52.400 C 255.197 53.830,255.444 55.720,255.620 56.600 C 255.823 57.623,255.854 57.046,255.706 55.000 C 255.579 53.240,255.331 51.350,255.156 50.800 C 254.971 50.221,254.935 50.894,255.069 52.400 M151.868 58.600 C 152.171 60.577,152.402 60.914,152.394 59.367 C 152.391 58.725,152.216 57.930,152.005 57.600 C 151.745 57.191,151.701 57.510,151.868 58.600 M256.269 61.400 C 256.396 62.720,256.568 63.875,256.650 63.967 C 256.941 64.290,256.716 60.986,256.379 60.000 C 256.158 59.352,256.120 59.845,256.269 61.400 M276.209 62.446 C 274.894 62.637,273.634 62.876,273.409 62.976 C 272.798 63.249,278.384 62.755,280.000 62.394 L 281.400 62.080 280.000 62.089 C 279.230 62.094,277.524 62.254,276.209 62.446 M152.890 64.800 C 152.884 65.790,153.024 67.050,153.200 67.600 L 153.520 68.600 153.530 67.600 C 153.536 67.050,153.397 65.790,153.220 64.800 L 152.900 63.000 152.890 64.800 M268.200 63.600 L 267.000 63.905 268.200 63.923 C 268.860 63.933,270.210 63.797,271.200 63.620 L 273.000 63.300 271.200 63.297 C 270.210 63.296,268.860 63.432,268.200 63.600 M261.463 64.423 C 259.957 64.598,258.608 64.858,258.465 65.001 C 258.167 65.300,262.707 64.865,264.800 64.395 C 266.630 63.984,265.135 63.996,261.463 64.423 M153.898 72.800 C 154.025 74.450,154.271 76.250,154.446 76.800 C 154.836 78.032,154.440 73.171,153.989 71.200 C 153.787 70.320,153.754 70.914,153.898 72.800 M154.880 79.800 C 154.874 80.460,155.112 82.620,155.409 84.600 L 155.950 88.200 155.735 85.000 C 155.490 81.348,154.900 77.758,154.880 79.800 M83.705 88.287 C 84.314 88.379,85.214 88.377,85.705 88.282 C 86.197 88.187,85.700 88.111,84.600 88.114 C 83.500 88.117,83.097 88.195,83.705 88.287 M76.000 89.200 L 75.000 89.520 76.000 89.520 C 76.550 89.520,77.450 89.376,78.000 89.200 L 79.000 88.880 78.000 88.880 C 77.450 88.880,76.550 89.024,76.000 89.200 M114.000 99.951 C 114.000 100.144,114.256 100.514,114.569 100.774 C 115.035 101.161,115.098 101.098,114.922 100.423 C 114.712 99.619,114.000 99.255,114.000 99.951 M157.228 100.276 C 157.318 101.315,157.944 102.196,157.972 101.324 C 157.987 100.842,157.820 100.336,157.600 100.200 C 157.380 100.064,157.213 100.098,157.228 100.276 M116.000 102.600 C 116.517 103.150,117.006 103.600,117.088 103.600 C 117.421 103.600,115.772 101.624,115.430 101.613 C 115.227 101.606,115.483 102.050,116.000 102.600 M158.280 105.911 C 158.404 107.512,158.650 109.402,158.827 110.111 C 159.234 111.738,158.836 106.879,158.376 104.600 C 158.156 103.506,158.125 103.921,158.280 105.911 M118.749 106.200 C 118.965 106.640,119.434 107.360,119.793 107.800 L 120.444 108.600 120.051 107.800 C 119.835 107.360,119.366 106.640,119.007 106.200 L 118.356 105.400 118.749 106.200 M159.240 113.433 C 159.262 114.295,159.433 115.450,159.621 116.000 C 159.842 116.648,159.880 116.155,159.731 114.600 C 159.463 111.820,159.182 111.151,159.240 113.433 M123.873 118.000 C 124.321 120.428,124.807 121.580,124.547 119.600 C 124.416 118.610,124.153 117.530,123.962 117.200 C 123.746 116.829,123.712 117.133,123.873 118.000 M124.930 127.600 C 124.930 130.642,125.055 132.476,125.217 131.800 C 125.376 131.140,125.505 129.250,125.505 127.600 C 125.505 125.950,125.376 124.060,125.217 123.400 C 125.055 122.724,124.930 124.558,124.930 127.600 M161.687 132.600 C 161.691 133.040,161.832 133.940,162.000 134.600 C 162.274 135.678,162.306 135.698,162.313 134.800 C 162.317 134.250,162.176 133.350,162.000 132.800 C 161.749 132.016,161.681 131.973,161.687 132.600 M124.183 135.900 C 124.044 136.725,123.847 137.760,123.746 138.200 C 123.602 138.826,123.643 138.869,123.936 138.400 C 124.378 137.692,124.968 134.400,124.653 134.400 C 124.534 134.400,124.322 135.075,124.183 135.900 M162.447 137.633 C 162.473 138.605,162.642 139.940,162.821 140.600 C 163.027 141.357,163.065 140.766,162.925 139.000 C 162.671 135.821,162.376 134.976,162.447 137.633 M122.123 142.541 C 121.421 144.323,120.906 145.839,120.978 145.911 C 121.181 146.114,123.663 139.983,123.524 139.622 C 123.456 139.446,122.826 140.760,122.123 142.541 M163.206 143.833 C 163.209 144.255,163.395 144.870,163.618 145.200 C 163.915 145.638,163.952 145.476,163.756 144.600 C 163.427 143.129,163.198 142.810,163.206 143.833 M187.525 208.500 C 187.423 209.566,187.211 209.822,186.351 209.922 C 185.202 210.055,184.800 211.534,184.800 215.629 C 184.800 217.424,184.729 217.555,183.700 217.673 C 182.699 217.789,182.591 217.962,182.503 219.600 C 182.229 224.669,181.996 225.600,181.001 225.600 C 180.104 225.600,180.047 225.766,179.778 229.200 C 179.512 232.610,179.448 232.800,178.575 232.800 C 177.525 232.800,177.366 233.188,176.994 236.658 L 176.731 239.116 174.573 239.386 C 171.873 239.723,171.601 239.549,171.596 237.476 C 171.587 234.146,171.181 232.800,170.187 232.800 C 169.312 232.800,169.268 232.631,168.993 228.222 C 168.708 223.662,168.703 223.644,167.657 223.522 C 167.079 223.455,166.571 223.130,166.528 222.800 C 166.485 222.470,166.335 221.165,166.196 219.900 C 165.968 217.831,165.849 217.600,165.010 217.600 C 164.169 217.600,164.051 217.367,163.800 215.200 C 163.546 213.010,163.437 212.800,162.561 212.800 C 161.556 212.800,161.340 213.177,161.976 213.820 C 166.086 217.971,167.352 253.533,163.541 257.780 C 163.353 257.989,163.200 258.434,163.200 258.769 C 163.200 263.852,154.679 271.871,146.724 274.274 C 144.761 274.867,111.433 275.752,109.700 275.257 C 109.305 275.144,109.200 268.260,109.200 242.557 C 109.200 224.651,109.046 210.000,108.859 210.000 C 108.321 210.000,108.000 215.404,108.000 224.460 L 108.000 232.800 106.663 232.800 L 105.326 232.800 105.064 240.300 C 104.920 244.425,104.802 250.263,104.801 253.273 L 104.800 258.747 103.700 258.873 L 102.600 259.000 102.349 266.000 C 102.211 269.850,102.076 273.843,102.049 274.873 C 102.004 276.606,101.917 276.756,100.900 276.873 C 99.893 276.989,99.790 277.160,99.678 278.900 L 99.556 280.800 86.178 280.800 C 73.714 280.800,72.798 280.752,72.772 280.100 C 72.748 279.501,72.694 279.516,72.400 280.200 C 72.211 280.640,72.044 284.915,72.028 289.700 L 72.000 298.400 200.600 298.400 L 329.200 298.400 329.146 288.700 C 329.116 283.365,329.003 279.450,328.896 280.000 C 328.713 280.933,328.679 280.947,328.378 280.200 C 328.105 279.521,328.052 279.506,328.028 280.100 C 327.981 281.268,308.000 281.168,308.000 280.000 C 308.000 279.381,307.733 279.200,306.820 279.200 C 305.674 279.200,305.632 279.130,305.368 276.800 C 305.124 274.640,305.004 274.400,304.176 274.400 C 303.315 274.400,303.237 274.192,302.976 271.200 L 302.697 268.000 301.384 268.000 C 300.147 268.000,300.055 267.901,299.806 266.300 C 299.371 263.505,299.211 263.200,298.173 263.200 C 297.480 263.200,297.200 262.979,297.200 262.433 C 297.200 261.065,296.734 260.400,295.775 260.400 C 295.019 260.400,294.785 260.128,294.574 259.000 C 294.347 257.795,294.155 257.600,293.187 257.600 C 292.101 257.600,292.055 257.515,291.788 255.022 C 291.530 252.617,291.441 252.436,290.456 252.322 C 289.588 252.222,289.378 251.968,289.275 250.900 C 289.164 249.757,289.008 249.600,287.975 249.600 C 286.961 249.600,286.799 249.449,286.795 248.500 C 286.784 246.335,286.379 245.600,285.196 245.600 C 283.699 245.600,283.600 245.192,283.600 238.991 L 283.600 233.648 285.088 233.524 C 286.362 233.418,286.581 233.257,286.614 232.400 C 286.774 228.239,286.719 228.400,287.981 228.400 C 289.150 228.400,289.163 228.375,289.281 225.900 C 289.395 223.504,289.446 223.395,290.500 223.273 C 291.989 223.102,292.079 221.600,290.600 221.600 C 289.212 221.600,289.299 220.488,290.700 220.327 C 291.651 220.217,291.817 220.000,291.923 218.724 C 292.027 217.469,292.206 217.224,293.123 217.084 L 294.200 216.920 293.100 216.860 C 291.441 216.770,291.536 215.200,293.200 215.200 L 294.400 215.200 294.400 212.133 C 294.400 210.447,294.333 209.142,294.252 209.233 C 293.947 209.577,290.800 214.889,290.800 215.060 C 290.800 215.158,290.170 216.223,289.400 217.427 C 288.630 218.631,288.000 219.728,288.000 219.865 C 288.000 220.001,287.280 221.254,286.400 222.647 C 285.520 224.040,284.800 225.279,284.800 225.399 C 284.800 225.788,281.012 232.195,280.701 232.333 C 280.536 232.407,280.398 232.677,280.396 232.933 C 280.394 233.190,279.674 234.532,278.796 235.916 C 276.777 239.099,276.731 238.742,279.800 243.755 C 281.230 246.091,282.400 248.088,282.400 248.194 C 282.400 248.299,283.120 249.562,284.000 251.000 C 284.880 252.438,285.600 253.698,285.600 253.800 C 285.600 253.902,286.320 255.162,287.200 256.600 C 288.080 258.038,288.800 259.391,288.800 259.607 C 288.800 259.823,288.980 260.000,289.200 260.000 C 289.420 260.000,289.600 260.182,289.600 260.403 C 289.600 260.798,292.625 266.174,295.138 270.244 C 295.832 271.369,296.400 272.494,296.400 272.744 C 296.400 272.995,296.551 273.200,296.736 273.200 C 297.189 273.200,298.045 275.128,297.685 275.337 C 297.528 275.429,294.084 275.390,290.031 275.252 L 282.662 275.000 281.809 273.400 C 280.719 271.358,279.250 268.769,277.656 266.082 C 276.965 264.918,276.400 263.889,276.400 263.797 C 276.400 263.704,275.615 262.317,274.655 260.714 C 273.696 259.111,271.889 255.962,270.641 253.715 C 267.806 248.612,267.977 248.682,266.248 251.905 C 264.278 255.577,262.554 258.630,261.164 260.906 C 260.524 261.954,260.000 262.903,260.000 263.014 C 260.000 263.125,259.579 263.887,259.064 264.708 C 258.138 266.182,257.202 267.825,254.508 272.700 L 253.127 275.200 245.563 275.200 C 238.224 275.200,237.338 275.047,238.600 274.000 C 238.930 273.726,239.200 273.352,239.200 273.169 C 239.200 272.986,240.430 270.803,241.934 268.318 C 246.410 260.921,248.800 256.762,248.800 256.369 C 248.800 256.166,248.980 256.000,249.200 256.000 C 249.420 256.000,249.600 255.791,249.600 255.535 C 249.600 255.279,250.567 253.515,251.748 251.614 C 252.929 249.713,254.021 247.763,254.175 247.279 C 254.328 246.796,254.622 246.400,254.827 246.400 C 255.032 246.400,255.200 246.232,255.200 246.027 C 255.200 245.822,256.100 244.172,257.200 242.360 L 259.201 239.067 258.351 237.634 C 257.884 236.845,256.948 235.210,256.271 234.000 C 255.595 232.790,254.938 231.710,254.812 231.600 C 254.687 231.490,254.368 230.950,254.105 230.400 C 253.842 229.850,253.083 228.500,252.419 227.400 C 251.754 226.300,251.087 225.130,250.935 224.800 C 250.783 224.470,249.971 223.101,249.130 221.757 C 248.288 220.413,247.600 219.108,247.600 218.857 C 247.600 218.606,247.420 218.400,247.200 218.400 C 246.980 218.400,246.800 218.222,246.800 218.006 C 246.800 217.789,245.585 215.628,244.100 213.205 L 241.400 208.799 241.269 210.700 C 240.993 214.702,241.556 217.600,242.608 217.600 C 243.483 217.600,243.572 217.803,243.825 220.378 C 244.083 222.998,244.159 223.163,245.150 223.278 C 246.143 223.393,246.206 223.534,246.319 225.900 C 246.436 228.351,246.460 228.400,247.572 228.400 C 248.673 228.400,248.715 228.477,248.985 231.000 C 249.238 233.360,249.348 233.600,250.177 233.600 C 251.164 233.600,251.600 235.256,251.600 239.000 C 251.600 242.733,251.163 244.400,250.185 244.400 C 249.376 244.400,249.249 244.655,249.003 246.777 C 248.748 248.970,248.645 249.163,247.663 249.277 C 246.787 249.378,246.578 249.629,246.475 250.700 C 246.364 251.843,246.208 252.000,245.175 252.000 C 244.143 252.000,244.000 252.143,244.000 253.167 C 244.000 254.930,243.611 255.600,242.589 255.600 C 241.886 255.600,241.600 255.888,241.400 256.800 C 241.170 257.848,240.963 258.000,239.768 258.000 C 239.016 258.000,238.400 258.180,238.400 258.400 C 238.400 258.620,237.863 258.800,237.208 258.800 C 236.001 258.800,235.869 258.598,235.512 256.200 C 235.434 255.673,235.034 255.358,234.341 255.278 C 233.340 255.161,233.276 255.012,233.011 252.178 C 232.751 249.404,232.668 249.200,231.798 249.200 C 230.816 249.200,230.819 249.215,230.300 243.000 C 230.218 242.018,230.000 241.777,229.100 241.673 C 228.058 241.554,228.000 241.437,227.997 239.473 C 227.989 235.023,227.576 233.200,226.576 233.200 C 225.620 233.200,225.617 233.187,225.100 227.000 C 225.018 226.018,224.800 225.777,223.900 225.673 C 222.833 225.551,222.800 225.473,222.796 223.073 C 222.788 218.893,222.446 217.600,221.348 217.600 C 220.423 217.600,220.020 218.518,220.747 218.967 C 220.938 219.085,221.219 220.117,221.370 221.259 C 221.601 223.001,221.927 224.420,222.965 228.200 C 223.093 228.667,223.271 229.472,224.201 233.800 C 224.579 235.560,225.042 237.360,225.230 237.800 C 225.418 238.240,225.752 239.500,225.972 240.600 C 226.564 243.565,227.491 247.585,228.001 249.400 C 228.249 250.280,228.621 251.810,228.829 252.800 C 229.285 254.975,232.264 267.238,232.813 269.200 C 233.029 269.970,233.363 271.320,233.556 272.200 C 233.749 273.080,234.038 274.115,234.197 274.500 C 234.465 275.151,234.003 275.200,227.634 275.200 C 220.903 275.200,220.776 275.184,220.420 274.300 C 220.049 273.379,217.268 263.722,216.907 262.100 L 216.707 261.200 203.196 261.200 C 190.698 261.200,189.665 261.252,189.416 261.900 C 189.268 262.285,188.907 263.680,188.613 265.000 C 188.320 266.320,187.702 268.824,187.240 270.564 C 186.778 272.304,186.400 274.059,186.400 274.464 C 186.400 274.869,186.175 275.208,185.900 275.218 C 184.148 275.282,172.611 275.145,172.526 275.060 C 172.430 274.963,172.616 274.134,173.576 270.400 C 173.774 269.630,174.235 267.830,174.600 266.400 C 174.965 264.970,175.427 263.170,175.626 262.400 C 175.825 261.630,176.805 257.580,177.803 253.400 C 178.801 249.220,179.791 245.170,180.003 244.400 C 180.215 243.630,181.205 239.580,182.203 235.400 C 183.918 228.217,184.235 226.933,185.197 223.300 C 186.115 219.835,187.200 214.833,187.200 214.069 C 187.200 213.617,187.355 213.152,187.544 213.035 C 187.733 212.918,188.000 212.007,188.136 211.011 C 188.273 210.015,188.498 208.750,188.636 208.200 C 188.822 207.457,188.728 207.200,188.269 207.200 C 187.864 207.200,187.607 207.648,187.525 208.500 M278.559 207.761 C 278.171 208.775,278.567 209.265,279.093 208.422 C 279.405 207.924,279.440 207.548,279.189 207.393 C 278.972 207.259,278.689 207.425,278.559 207.761 M160.270 211.100 C 160.648 211.705,161.012 212.275,161.079 212.367 C 161.146 212.458,161.200 211.963,161.200 211.267 C 161.200 210.262,161.033 210.000,160.391 210.000 C 159.608 210.000,159.604 210.036,160.270 211.100 M258.658 211.500 C 259.429 213.376,260.215 214.226,259.860 212.800 C 259.723 212.250,259.608 211.395,259.605 210.900 C 259.602 210.276,259.361 210.000,258.820 210.000 C 258.077 210.000,258.069 210.069,258.658 211.500 M275.853 211.865 C 275.546 214.104,275.786 214.521,276.477 212.952 C 276.756 212.318,277.091 211.710,277.221 211.600 C 278.023 210.924,277.920 210.000,277.042 210.000 C 276.234 210.000,276.074 210.251,275.853 211.865 M200.616 215.300 C 200.241 217.269,199.169 221.844,198.295 225.200 C 197.866 226.850,197.342 229.190,197.132 230.400 C 196.921 231.610,196.594 232.960,196.405 233.400 C 196.215 233.840,195.967 234.650,195.853 235.200 C 195.739 235.750,195.356 237.370,195.002 238.800 C 194.648 240.230,194.191 242.177,193.986 243.127 C 193.782 244.076,193.528 244.992,193.424 245.162 C 193.319 245.331,193.065 246.219,192.859 247.135 L 192.485 248.800 203.189 248.800 L 213.893 248.800 213.600 247.300 C 213.322 245.876,211.295 237.541,209.538 230.600 C 209.092 228.840,208.481 226.230,208.179 224.800 C 207.877 223.370,207.265 220.760,206.820 219.000 C 206.374 217.240,206.007 215.395,206.005 214.900 C 206.000 214.061,205.827 214.000,203.432 214.000 L 200.864 214.000 200.616 215.300 M122.400 238.825 L 122.400 263.251 130.700 262.993 C 145.475 262.533,148.661 260.394,151.215 249.224 C 152.015 245.725,151.895 229.288,151.045 225.910 C 148.681 216.519,144.876 214.400,130.380 214.400 L 122.400 214.400 122.400 238.825 M261.014 215.663 C 261.175 216.178,261.462 216.660,261.653 216.733 C 261.844 216.807,262.000 217.197,262.000 217.600 C 262.000 218.003,262.145 218.393,262.323 218.467 C 262.501 218.540,263.186 219.680,263.845 221.000 C 266.044 225.403,267.720 228.400,267.983 228.400 C 268.126 228.400,269.404 226.217,270.822 223.548 C 272.240 220.879,273.800 217.954,274.289 217.048 C 275.409 214.970,275.411 214.714,274.300 214.872 C 273.614 214.970,273.371 215.304,273.276 216.276 C 273.169 217.388,272.988 217.569,271.876 217.676 C 270.818 217.779,270.578 217.988,270.473 218.900 C 270.267 220.695,265.301 220.606,264.940 218.800 C 264.742 217.808,264.505 217.600,263.575 217.600 C 262.600 217.600,262.434 217.428,262.325 216.303 C 262.240 215.420,261.964 214.962,261.461 214.867 C 260.853 214.751,260.774 214.891,261.014 215.663 M140.523 217.851 C 142.127 218.071,142.372 218.234,142.478 219.151 C 142.578 220.007,142.836 220.223,143.877 220.324 C 145.034 220.436,145.166 220.587,145.277 221.924 C 145.382 223.181,145.556 223.418,146.449 223.522 C 147.835 223.682,148.000 224.943,148.000 235.395 C 148.000 246.937,147.735 249.600,146.588 249.600 C 145.785 249.600,145.658 249.875,145.347 252.300 C 145.017 254.864,144.944 255.006,143.876 255.129 C 143.258 255.200,142.654 255.515,142.534 255.829 C 142.413 256.143,141.878 256.400,141.345 256.400 C 140.811 256.400,140.280 256.646,140.165 256.948 C 139.556 258.533,132.111 258.082,131.922 256.449 C 131.828 255.639,131.549 255.371,130.700 255.273 C 129.771 255.167,129.591 254.949,129.545 253.873 C 129.515 253.173,129.380 248.190,129.245 242.800 C 129.003 233.126,128.989 232.998,128.129 232.876 C 126.304 232.616,126.276 223.608,128.100 223.603 C 129.137 223.600,129.200 223.496,129.200 221.800 C 129.200 220.013,129.210 220.000,130.587 220.000 C 131.656 220.000,131.922 219.862,131.745 219.400 C 131.074 217.652,134.568 217.035,140.523 217.851 M203.200 232.000 C 203.200 232.587,202.933 232.800,202.200 232.800 C 201.467 232.800,201.200 232.587,201.200 232.000 C 201.200 231.413,201.467 231.200,202.200 231.200 C 202.933 231.200,203.200 231.413,203.200 232.000 M203.400 237.800 L 203.400 241.800 202.200 241.800 C 201.139 241.800,200.986 241.650,200.875 240.500 C 200.771 239.423,200.582 239.200,199.775 239.200 C 198.927 239.200,198.800 239.017,198.800 237.800 C 198.800 236.573,198.924 236.400,199.800 236.400 C 200.680 236.400,200.800 236.228,200.800 234.975 C 200.800 233.608,200.853 233.554,202.100 233.675 L 203.400 233.800 203.400 237.800 M203.200 269.748 L 203.200 271.097 206.000 271.373 C 209.063 271.674,209.094 271.713,208.865 274.949 C 208.820 275.581,208.976 276.330,209.211 276.614 C 209.508 276.972,209.511 277.208,209.219 277.388 C 208.989 277.531,208.800 278.357,208.800 279.224 L 208.800 280.800 202.400 280.800 L 196.000 280.800 195.953 278.900 C 195.908 277.056,195.914 274.925,195.972 272.732 C 195.999 271.716,196.128 271.650,198.600 271.385 L 201.200 271.107 201.200 269.753 C 201.200 268.576,201.330 268.400,202.200 268.400 C 203.069 268.400,203.200 268.577,203.200 269.748 M270.400 275.576 C 270.400 276.646,270.265 276.763,268.900 276.876 C 267.414 276.999,267.399 277.018,267.278 278.900 C 267.085 281.908,265.344 281.746,265.129 278.700 C 264.836 274.543,264.926 274.400,267.845 274.400 L 270.400 274.400 270.400 275.576 " stroke="none" fill="#2476a8" fill-rule="evenodd"></path><path id="path4" d="M230.200 79.631 C 229.406 79.853,229.982 79.897,231.900 79.759 L 234.800 79.552 234.847 81.076 C 234.873 81.914,235.047 83.140,235.234 83.800 C 235.475 84.654,235.520 84.269,235.389 82.466 C 235.137 78.997,234.230 78.502,230.200 79.631 M223.294 80.394 C 221.915 80.551,220.655 80.814,220.494 80.979 C 220.182 81.297,224.710 80.915,227.400 80.396 L 229.000 80.088 227.400 80.099 C 226.520 80.105,224.672 80.238,223.294 80.394 M215.200 81.556 C 214.465 81.758,214.187 82.120,214.151 82.921 C 214.111 83.817,214.133 83.842,214.272 83.065 C 214.421 82.235,214.765 82.073,217.121 81.721 C 219.495 81.366,219.595 81.318,218.000 81.300 C 217.010 81.289,215.750 81.404,215.200 81.556 M214.660 87.539 C 214.787 89.376,215.042 91.356,215.228 91.939 C 215.659 93.293,215.244 87.548,214.770 85.600 C 214.544 84.672,214.507 85.326,214.660 87.539 M235.399 86.208 C 235.130 86.621,233.824 86.960,231.400 87.246 C 226.286 87.851,224.135 88.439,228.000 88.176 C 233.301 87.815,236.271 87.014,235.944 86.033 C 235.856 85.768,235.641 85.838,235.399 86.208 M82.845 88.444 C 80.779 88.627,78.979 88.897,78.845 89.043 C 78.458 89.462,86.156 88.801,86.580 88.379 C 86.789 88.170,86.879 88.025,86.780 88.055 C 86.681 88.085,84.910 88.260,82.845 88.444 M224.000 88.827 C 224.000 89.461,225.184 97.891,225.597 100.200 C 225.871 101.731,225.902 101.308,225.729 98.400 C 225.604 96.310,225.344 94.183,225.151 93.674 C 224.958 93.165,224.800 91.770,224.800 90.574 C 224.800 89.378,224.620 88.400,224.400 88.400 C 224.180 88.400,224.000 88.592,224.000 88.827 M76.200 89.600 L 75.000 89.905 76.476 89.953 C 77.288 89.979,78.064 89.820,78.200 89.600 C 78.477 89.151,77.963 89.151,76.200 89.600 M215.815 96.400 C 215.923 98.050,216.183 100.390,216.392 101.600 C 216.602 102.810,216.893 104.880,217.040 106.200 C 217.187 107.520,217.396 108.350,217.505 108.045 C 217.715 107.458,216.569 97.715,215.971 95.000 C 215.698 93.761,215.663 94.076,215.815 96.400 M113.600 99.847 C 113.600 100.152,115.363 102.551,116.487 103.774 C 116.878 104.200,117.939 105.775,118.845 107.274 C 120.492 110.000,121.000 110.616,120.519 109.300 C 119.913 107.646,113.600 99.020,113.600 99.847 M80.200 100.385 C 79.760 100.582,78.905 100.756,78.300 100.772 C 77.695 100.787,77.200 100.980,77.200 101.200 C 77.200 101.420,76.840 101.600,76.399 101.600 C 75.564 101.600,71.019 103.831,70.082 104.700 C 69.785 104.975,69.396 105.200,69.217 105.200 C 67.886 105.200,60.936 113.860,60.228 116.400 C 60.075 116.950,59.789 117.760,59.593 118.200 C 57.475 122.948,57.450 132.354,59.542 137.400 C 60.414 139.504,62.606 143.600,62.860 143.600 C 63.018 143.600,63.250 143.929,63.378 144.331 C 63.506 144.733,64.521 145.948,65.634 147.031 C 68.461 149.782,68.437 149.762,70.209 150.874 C 73.731 153.086,75.758 154.037,77.437 154.267 C 78.407 154.400,79.200 154.664,79.200 154.854 C 79.200 155.044,79.713 155.200,80.341 155.200 C 81.022 155.200,82.592 155.931,84.241 157.016 C 104.689 170.471,129.104 145.609,114.967 125.725 C 114.215 124.668,113.600 123.577,113.600 123.301 C 113.600 123.026,113.445 122.800,113.256 122.800 C 113.066 122.800,112.806 121.914,112.678 120.831 C 112.550 119.747,112.284 118.532,112.087 118.131 C 111.891 117.729,111.233 116.374,110.627 115.121 C 109.480 112.750,106.625 108.829,105.088 107.512 C 103.018 105.739,102.509 105.348,100.971 104.345 C 98.963 103.036,95.851 101.600,95.022 101.600 C 94.680 101.600,94.400 101.440,94.400 101.244 C 94.400 100.412,81.834 99.651,80.200 100.385 M94.110 101.939 C 117.730 110.368,119.422 142.194,96.800 152.553 C 74.995 162.538,51.342 139.519,60.713 117.434 C 66.144 104.633,81.585 97.470,94.110 101.939 M226.183 105.248 C 226.334 106.652,226.616 108.880,226.810 110.200 C 227.005 111.520,227.459 114.940,227.819 117.800 C 228.806 125.629,229.208 127.349,228.941 122.600 C 228.817 120.400,228.554 118.297,228.358 117.926 C 228.161 117.556,228.000 116.385,228.000 115.324 C 228.000 114.263,227.821 112.770,227.602 112.006 C 227.383 111.242,227.086 108.942,226.942 106.895 C 226.798 104.848,226.507 103.066,226.295 102.935 C 226.052 102.785,226.011 103.644,226.183 105.248 M217.871 112.400 C 217.996 114.490,218.262 116.470,218.462 116.800 C 218.883 117.497,218.496 111.997,217.978 109.932 C 217.770 109.102,217.729 110.032,217.871 112.400 M120.800 110.640 C 120.800 110.771,121.059 111.446,121.375 112.140 C 122.639 114.910,123.200 116.543,123.200 117.449 C 123.200 117.972,123.380 118.400,123.600 118.400 C 124.115 118.400,124.128 118.498,123.235 115.752 C 121.997 111.943,120.800 109.430,120.800 110.640 M219.032 120.800 C 219.146 122.450,219.410 124.790,219.619 126.000 C 219.828 127.210,220.120 129.280,220.267 130.600 C 220.415 131.920,220.616 132.643,220.715 132.207 C 220.897 131.404,219.803 122.345,219.168 119.400 C 218.910 118.202,218.876 118.553,219.032 120.800 M124.200 127.584 C 124.200 132.132,124.340 135.176,124.526 134.676 C 124.939 133.562,124.929 122.161,124.513 120.708 C 124.336 120.091,124.200 123.088,124.200 127.584 M229.380 129.648 C 229.529 131.052,229.811 133.190,230.006 134.400 C 230.201 135.610,230.569 138.310,230.824 140.400 C 231.078 142.490,231.456 144.470,231.662 144.800 C 231.915 145.204,231.963 144.878,231.807 143.800 C 231.680 142.920,231.406 140.670,231.199 138.800 C 230.991 136.930,230.636 134.536,230.411 133.480 C 230.185 132.424,230.000 130.680,230.000 129.604 C 230.000 128.528,229.800 127.523,229.555 127.372 C 229.235 127.175,229.186 127.817,229.380 129.648 M221.066 136.400 C 221.195 138.270,221.454 140.160,221.643 140.600 C 222.057 141.567,221.646 136.165,221.163 134.289 C 220.957 133.490,220.920 134.292,221.066 136.400 M386.162 135.538 C 386.327 135.805,386.205 136.000,385.873 136.000 C 385.557 136.000,385.064 136.282,384.777 136.627 C 383.103 138.645,367.903 147.602,366.700 147.280 C 366.535 147.236,366.400 147.380,366.400 147.600 C 366.400 148.106,368.673 148.129,368.984 147.625 C 369.112 147.419,369.527 147.245,369.908 147.237 C 371.238 147.212,373.200 146.707,373.200 146.390 C 373.200 146.214,373.920 145.949,374.800 145.800 C 375.680 145.651,376.401 145.411,376.401 145.265 C 376.402 145.119,377.167 144.682,378.101 144.294 C 379.036 143.906,380.424 143.038,381.188 142.365 C 381.951 141.692,382.766 141.020,382.998 140.871 C 384.480 139.923,386.999 135.770,386.339 135.362 C 386.052 135.185,385.985 135.252,386.162 135.538 M123.473 137.243 C 123.392 137.549,123.014 138.762,122.634 139.937 C 122.253 141.112,122.026 142.159,122.129 142.263 C 122.233 142.366,122.715 141.258,123.200 139.800 C 123.685 138.342,123.978 137.045,123.851 136.917 C 123.723 136.790,123.553 136.936,123.473 137.243 M222.265 145.569 C 222.392 147.422,222.654 149.491,222.848 150.167 C 223.041 150.842,223.200 151.987,223.200 152.710 C 223.200 154.336,223.812 154.609,226.301 154.090 L 228.200 153.695 225.965 153.647 L 223.729 153.600 223.227 149.500 C 222.493 143.507,221.981 141.415,222.265 145.569 M121.211 143.771 C 120.617 145.334,120.734 145.580,121.447 144.265 C 121.786 143.640,121.964 143.030,121.842 142.909 C 121.721 142.788,121.437 143.176,121.211 143.771 M242.242 143.875 C 242.971 144.018,243.148 144.497,243.559 147.432 C 244.119 151.435,244.055 151.593,241.876 151.623 C 240.954 151.636,239.480 151.809,238.600 152.007 C 237.412 152.276,237.874 152.312,240.396 152.148 C 244.689 151.870,244.475 152.079,244.157 148.468 C 243.806 144.478,243.463 143.585,242.310 143.654 C 241.452 143.706,241.448 143.718,242.242 143.875 M235.463 144.423 C 233.957 144.598,232.607 144.864,232.463 145.015 C 232.148 145.344,238.068 144.867,240.023 144.406 L 241.400 144.082 239.800 144.094 C 238.920 144.100,236.968 144.248,235.463 144.423 M310.877 147.012 C 310.175 148.008,309.600 148.998,309.600 149.212 C 309.600 149.425,309.441 149.600,309.247 149.600 C 309.052 149.600,308.788 149.915,308.658 150.300 C 308.430 150.980,307.604 152.396,307.200 152.800 C 306.846 153.154,306.009 154.574,305.609 155.500 C 305.395 155.995,305.035 156.400,304.810 156.400 C 304.584 156.400,304.400 156.760,304.400 157.200 C 304.400 157.640,304.220 158.000,304.000 158.000 C 303.780 158.000,303.600 158.362,303.600 158.804 C 303.600 159.246,302.565 161.181,301.301 163.104 C 300.036 165.027,298.930 166.780,298.843 167.000 C 298.755 167.220,298.170 168.056,297.542 168.858 C 296.914 169.659,296.400 170.432,296.400 170.576 C 296.400 170.719,295.515 172.148,294.433 173.751 C 291.232 178.494,289.639 178.036,309.319 178.029 C 326.096 178.023,327.200 177.969,327.200 177.150 C 327.200 176.928,327.605 176.174,328.101 175.473 C 329.491 173.509,330.003 172.662,330.258 171.900 C 330.388 171.515,330.624 171.200,330.784 171.200 C 330.943 171.200,331.413 170.570,331.828 169.800 C 332.243 169.030,332.721 168.400,332.891 168.400 C 333.061 168.400,333.200 168.139,333.200 167.820 C 333.200 167.501,333.439 167.096,333.730 166.920 C 334.022 166.744,334.384 166.330,334.535 166.000 C 334.685 165.670,335.165 164.860,335.600 164.200 C 336.035 163.540,336.516 162.730,336.668 162.400 C 336.820 162.070,337.229 161.530,337.578 161.200 C 337.926 160.870,338.658 159.926,339.205 159.103 C 339.752 158.279,340.335 157.604,340.500 157.603 C 340.665 157.601,340.800 157.412,340.800 157.183 C 340.800 156.503,343.319 153.333,344.400 152.651 C 345.359 152.047,345.269 152.021,342.185 152.011 C 333.469 151.982,322.734 149.677,314.888 146.149 C 312.184 144.934,312.370 144.894,310.877 147.012 M231.659 152.831 C 227.807 153.331,227.774 153.620,231.600 153.345 C 234.997 153.100,237.963 152.422,235.400 152.476 C 234.740 152.490,233.057 152.650,231.659 152.831 " stroke="none" fill="#5f5f62" fill-rule="evenodd"></path></g></svg>