<svg id="svg" version="1.1" xmlns="http://www.w3.org/2000/svg" xmlns:xlink="http://www.w3.org/1999/xlink" width="400" height="400" viewBox="0, 0, 400,400"><g id="svgg"><path id="path0" d="M106.229 177.429 C 105.267 178.390,105.267 308.410,106.229 309.371 C 107.060 310.203,293.090 310.350,293.920 309.520 C 294.876 308.564,294.585 177.727,293.626 177.214 C 292.189 176.445,107.001 176.657,106.229 177.429 M172.400 190.000 C 173.286 190.886,173.660 214.653,172.809 216.000 C 172.313 216.785,119.885 217.135,118.951 216.359 C 118.199 215.735,118.132 190.428,118.880 189.680 C 119.848 188.712,171.420 189.020,172.400 190.000 M281.120 189.680 C 281.941 190.501,281.794 216.240,280.967 216.557 C 279.808 217.002,187.211 216.834,186.374 216.386 C 185.633 215.990,185.600 215.415,185.600 202.973 L 185.600 189.974 186.500 189.612 C 187.961 189.025,280.531 189.091,281.120 189.680 M172.571 229.829 C 173.519 230.776,173.519 256.024,172.571 256.971 C 171.609 257.933,119.012 257.929,118.643 256.967 C 118.150 255.684,118.372 230.188,118.880 229.680 C 119.703 228.857,171.744 229.001,172.571 229.829 M281.105 229.533 C 281.500 229.783,281.588 232.874,281.505 243.627 L 281.400 257.400 234.043 257.502 C 199.379 257.576,186.540 257.483,186.143 257.153 C 185.209 256.377,185.358 230.181,186.300 229.632 C 187.146 229.139,280.331 229.042,281.105 229.533 M172.426 270.414 C 173.649 271.069,173.625 295.575,172.400 296.800 C 171.420 297.780,119.848 298.088,118.880 297.120 C 118.193 296.433,118.193 271.167,118.880 270.480 C 119.514 269.846,171.246 269.782,172.426 270.414 M280.967 270.243 C 281.794 270.560,281.941 296.299,281.120 297.120 C 280.483 297.757,187.562 297.822,186.374 297.186 C 185.231 296.574,185.161 271.096,186.300 270.432 C 187.060 269.989,279.824 269.804,280.967 270.243 " stroke="none" fill="#e3f3ec" fill-rule="evenodd"></path><path id="path1" d="M72.800 14.600 C 72.800 15.014,72.385 15.200,71.462 15.200 C 70.632 15.200,69.849 15.504,69.400 16.000 C 69.002 16.440,68.344 16.800,67.938 16.800 C 67.532 16.800,67.200 17.070,67.200 17.400 C 67.200 17.800,66.800 18.000,66.000 18.000 C 65.245 18.000,64.800 18.205,64.800 18.553 C 64.800 18.858,64.440 19.201,64.000 19.316 C 63.560 19.431,63.200 19.812,63.200 20.163 C 63.200 20.513,62.930 20.800,62.600 20.800 C 62.270 20.800,62.000 21.070,62.000 21.400 C 62.000 21.730,61.730 22.000,61.400 22.000 C 61.070 22.000,60.800 22.249,60.800 22.553 C 60.800 22.858,60.440 23.201,60.000 23.316 C 59.560 23.431,59.200 23.812,59.200 24.163 C 59.200 24.513,58.930 24.800,58.600 24.800 C 58.200 24.800,58.000 25.200,58.000 26.000 C 58.000 26.800,57.800 27.200,57.400 27.200 C 57.067 27.200,56.800 27.556,56.800 28.000 C 56.800 28.533,56.533 28.800,56.000 28.800 C 55.378 28.800,55.200 29.067,55.200 30.000 C 55.200 30.800,55.000 31.200,54.600 31.200 C 54.157 31.200,53.989 31.696,53.959 33.100 C 53.920 34.904,53.902 34.933,53.605 33.680 C 53.035 31.271,52.145 31.534,51.731 34.235 C 51.600 35.096,51.201 36.134,50.846 36.542 C 49.832 37.707,49.855 365.272,50.869 368.000 C 51.238 368.990,51.654 370.372,51.795 371.071 C 51.936 371.770,52.461 372.760,52.962 373.271 C 53.463 373.782,54.077 374.798,54.326 375.530 C 54.575 376.261,55.234 377.400,55.790 378.061 C 56.345 378.721,56.800 379.428,56.800 379.631 C 56.800 379.834,57.026 380.000,57.301 380.000 C 57.866 380.000,59.505 381.649,60.570 383.289 C 60.960 383.889,62.206 384.819,63.339 385.356 C 64.473 385.894,66.083 386.799,66.918 387.367 C 67.753 387.935,68.657 388.400,68.929 388.400 C 69.200 388.400,69.819 388.678,70.304 389.018 C 70.790 389.358,72.135 389.743,73.293 389.873 C 74.452 390.003,75.653 390.310,75.961 390.555 C 76.795 391.215,322.297 391.188,323.639 390.527 C 324.168 390.268,325.455 389.941,326.500 389.803 C 327.545 389.664,328.400 389.382,328.400 389.175 C 328.400 388.969,328.767 388.800,329.216 388.800 C 330.214 388.800,333.290 387.284,333.695 386.593 C 333.857 386.316,334.456 385.972,335.026 385.829 C 336.501 385.459,343.539 378.250,344.513 376.111 C 344.742 375.610,345.067 375.200,345.237 375.200 C 345.407 375.200,345.661 374.795,345.801 374.300 C 345.940 373.805,346.343 372.770,346.695 372.000 C 347.660 369.891,348.229 368.413,348.948 366.146 C 349.728 363.689,349.977 123.080,349.200 122.600 C 348.980 122.464,348.800 121.941,348.800 121.438 C 348.800 119.103,346.715 118.905,346.293 121.200 L 346.109 122.200 346.055 121.200 L 346.000 120.200 293.009 120.307 L 240.019 120.414 239.796 119.507 C 239.674 119.008,239.624 95.065,239.687 66.300 L 239.800 14.000 156.300 14.000 C 82.344 14.000,72.800 14.069,72.800 14.600 M52.746 40.100 C 52.686 44.146,52.510 43.827,52.305 39.300 C 52.233 37.705,52.315 36.400,52.487 36.400 C 52.659 36.400,52.775 38.065,52.746 40.100 M294.943 177.500 C 295.080 178.325,295.191 207.980,295.191 243.400 C 295.191 278.820,295.080 308.475,294.943 309.300 L 294.695 310.800 200.135 310.800 C 110.454 310.800,105.560 310.764,105.287 310.100 C 104.912 309.185,104.912 177.615,105.287 176.700 C 105.560 176.036,110.454 176.000,200.135 176.000 L 294.695 176.000 294.943 177.500 M119.200 203.197 L 119.200 215.600 145.606 215.600 L 172.012 215.600 171.906 203.300 L 171.800 191.000 145.500 190.897 L 119.200 190.794 119.200 203.197 M187.067 191.067 C 186.920 191.213,186.800 196.793,186.800 203.467 L 186.800 215.600 233.800 215.600 L 280.800 215.600 280.800 203.200 L 280.800 190.800 234.067 190.800 C 208.363 190.800,187.213 190.920,187.067 191.067 M119.200 243.400 L 119.200 256.400 145.357 256.400 C 168.840 256.400,171.539 256.335,171.757 255.767 C 172.074 254.941,172.074 231.859,171.757 231.033 C 171.539 230.465,168.840 230.400,145.357 230.400 L 119.200 230.400 119.200 243.400 M186.982 230.904 C 186.875 231.181,186.836 236.986,186.894 243.804 L 187.000 256.200 233.900 256.302 L 280.800 256.403 280.800 243.402 L 280.800 230.400 233.987 230.400 C 196.713 230.400,187.135 230.503,186.982 230.904 M119.200 283.400 L 119.200 296.006 145.500 295.903 L 171.800 295.800 171.800 283.400 L 171.800 271.000 145.500 270.897 L 119.200 270.794 119.200 283.400 M186.981 271.304 C 186.875 271.582,186.836 277.207,186.894 283.804 L 187.000 295.800 233.900 295.902 L 280.800 296.003 280.800 283.402 L 280.800 270.800 233.987 270.800 C 196.690 270.800,187.136 270.903,186.981 271.304 " stroke="none" fill="#0b9953" fill-rule="evenodd"></path><path id="path2" d="M240.585 14.500 C 240.480 14.775,240.441 38.490,240.497 67.200 L 240.600 119.400 240.800 66.700 C 240.910 37.715,240.949 14.000,240.887 14.000 C 240.826 14.000,240.689 14.225,240.585 14.500 M241.500 15.831 C 241.041 16.293,241.145 17.285,241.779 18.500 C 242.094 19.105,242.183 19.600,241.975 19.600 C 241.739 19.600,241.635 38.230,241.698 69.100 L 241.800 118.600 291.000 118.564 C 318.060 118.545,340.380 118.480,340.600 118.420 C 340.820 118.361,341.765 118.445,342.700 118.607 C 343.870 118.810,344.400 118.761,344.400 118.451 C 344.400 118.203,344.220 118.000,344.000 118.000 C 343.406 118.000,342.000 116.484,342.000 115.844 C 342.000 115.539,341.685 115.314,341.300 115.344 C 340.915 115.375,340.641 115.186,340.692 114.924 C 340.742 114.663,340.427 114.336,339.992 114.197 C 339.556 114.059,339.200 113.688,339.200 113.373 C 339.200 113.058,338.949 112.800,338.643 112.800 C 338.336 112.800,337.982 112.530,337.855 112.200 C 337.729 111.870,337.349 111.600,337.013 111.600 C 336.676 111.600,336.400 111.370,336.400 111.089 C 336.400 110.808,336.032 110.263,335.583 109.878 C 335.134 109.493,334.873 109.006,335.004 108.794 C 335.136 108.580,334.968 108.514,334.624 108.646 C 334.260 108.786,333.906 108.619,333.761 108.242 C 333.625 107.889,333.264 107.600,332.957 107.600 C 332.651 107.600,332.400 107.240,332.400 106.800 C 332.400 106.360,332.220 106.000,332.000 106.000 C 331.481 106.000,330.000 104.519,330.000 104.000 C 330.000 103.780,329.640 103.600,329.200 103.600 C 328.748 103.600,328.400 103.333,328.400 102.987 C 328.400 102.651,328.146 102.278,327.836 102.159 C 327.526 102.039,327.161 101.498,327.024 100.955 C 326.888 100.412,326.602 100.075,326.388 100.207 C 326.175 100.339,326.000 100.257,326.000 100.024 C 326.000 99.791,325.640 99.600,325.200 99.600 C 324.756 99.600,324.400 99.333,324.400 99.000 C 324.400 98.670,324.130 98.400,323.800 98.400 C 323.467 98.400,323.200 98.044,323.200 97.600 C 323.200 97.156,322.933 96.800,322.600 96.800 C 322.270 96.800,322.000 96.530,322.000 96.200 C 322.000 95.870,321.724 95.600,321.387 95.600 C 321.051 95.600,320.671 95.330,320.545 95.000 C 320.418 94.670,320.064 94.400,319.757 94.400 C 319.451 94.400,319.200 94.040,319.200 93.600 C 319.200 93.160,318.942 92.800,318.627 92.800 C 318.312 92.800,317.939 92.437,317.798 91.994 C 317.657 91.551,317.375 91.292,317.171 91.418 C 316.967 91.544,316.800 91.256,316.800 90.777 C 316.800 90.104,316.619 89.954,316.000 90.116 C 315.366 90.282,315.200 90.128,315.200 89.375 C 315.200 88.695,315.030 88.491,314.600 88.655 C 314.220 88.801,314.000 88.650,314.000 88.243 C 314.000 87.889,313.809 87.600,313.576 87.600 C 313.343 87.600,313.267 87.416,313.406 87.190 C 313.545 86.965,313.511 86.823,313.330 86.875 C 312.795 87.028,311.200 85.852,311.200 85.304 C 311.200 85.027,311.011 84.800,310.781 84.800 C 310.293 84.800,308.400 82.845,308.400 82.342 C 308.400 82.154,308.130 82.000,307.800 82.000 C 307.470 82.000,307.200 81.730,307.200 81.400 C 307.200 81.070,306.949 80.800,306.643 80.800 C 306.336 80.800,305.982 80.530,305.855 80.200 C 305.729 79.870,305.349 79.600,305.013 79.600 C 304.676 79.600,304.400 79.324,304.400 78.987 C 304.400 78.651,304.130 78.271,303.800 78.145 C 303.470 78.018,303.200 77.664,303.200 77.357 C 303.200 77.051,302.924 76.800,302.587 76.800 C 302.251 76.800,301.871 76.530,301.745 76.200 C 301.618 75.870,301.264 75.600,300.957 75.600 C 300.651 75.600,300.400 75.240,300.400 74.800 C 300.400 74.356,300.133 74.000,299.800 74.000 C 299.470 74.000,299.200 73.730,299.200 73.400 C 299.200 73.070,298.930 72.800,298.600 72.800 C 298.270 72.800,298.000 72.551,298.000 72.247 C 298.000 71.942,297.640 71.599,297.200 71.484 C 296.760 71.369,296.400 70.988,296.400 70.637 C 296.400 70.287,296.130 70.000,295.800 70.000 C 295.470 70.000,295.200 69.730,295.200 69.400 C 295.200 69.070,294.949 68.800,294.643 68.800 C 294.336 68.800,293.982 68.530,293.855 68.200 C 293.729 67.870,293.349 67.600,293.013 67.600 C 292.676 67.600,292.400 67.324,292.400 66.987 C 292.400 66.651,292.130 66.271,291.800 66.145 C 291.470 66.018,291.200 65.664,291.200 65.357 C 291.200 65.051,291.020 64.800,290.800 64.800 C 290.279 64.800,287.200 61.721,287.200 61.200 C 287.200 60.980,286.930 60.800,286.600 60.800 C 286.261 60.800,286.000 60.442,286.000 59.976 C 286.000 59.523,285.849 59.246,285.665 59.360 C 285.262 59.609,282.000 56.646,282.000 56.031 C 282.000 55.794,281.848 55.600,281.661 55.600 C 281.475 55.600,280.674 54.970,279.881 54.200 C 279.088 53.430,278.240 52.800,277.996 52.800 C 277.752 52.800,277.665 52.619,277.802 52.397 C 277.939 52.176,277.776 51.889,277.441 51.760 C 277.105 51.631,276.721 51.183,276.588 50.763 C 276.455 50.343,276.088 50.000,275.773 50.000 C 275.458 50.000,275.200 49.730,275.200 49.400 C 275.200 49.070,274.846 48.800,274.413 48.800 C 273.877 48.800,273.699 48.608,273.855 48.200 C 274.015 47.784,273.828 47.600,273.243 47.600 C 272.667 47.600,272.400 47.347,272.400 46.800 C 272.400 46.342,272.133 46.000,271.776 46.000 C 271.433 46.000,271.272 45.808,271.417 45.573 C 271.562 45.338,271.315 45.051,270.868 44.934 C 270.421 44.817,269.959 44.469,269.840 44.161 C 269.722 43.852,269.349 43.600,269.013 43.600 C 268.667 43.600,268.400 43.252,268.400 42.800 C 268.400 42.356,268.133 42.000,267.800 42.000 C 267.470 42.000,267.200 41.646,267.200 41.213 C 267.200 40.710,267.002 40.501,266.652 40.636 C 266.350 40.751,265.996 40.566,265.864 40.223 C 265.733 39.880,265.349 39.600,265.013 39.600 C 264.667 39.600,264.400 39.252,264.400 38.800 C 264.400 38.360,264.220 38.000,264.000 38.000 C 263.481 38.000,262.000 36.519,262.000 36.000 C 262.000 35.780,261.640 35.600,261.200 35.600 C 260.760 35.600,260.400 35.349,260.400 35.043 C 260.400 34.736,260.130 34.382,259.800 34.255 C 259.470 34.129,259.200 33.749,259.200 33.413 C 259.200 33.076,258.930 32.800,258.600 32.800 C 258.270 32.800,258.000 32.530,258.000 32.200 C 258.000 31.867,257.644 31.600,257.200 31.600 C 256.760 31.600,256.400 31.399,256.400 31.153 C 256.400 30.571,253.429 27.600,252.847 27.600 C 252.601 27.600,252.400 27.330,252.400 27.000 C 252.400 26.670,252.130 26.400,251.800 26.400 C 251.470 26.400,251.200 26.139,251.200 25.820 C 251.200 25.501,250.961 25.096,250.670 24.920 C 250.378 24.744,250.024 24.285,249.882 23.900 C 249.741 23.515,249.339 23.200,248.989 23.200 C 248.639 23.200,248.464 23.020,248.600 22.800 C 248.736 22.580,248.477 22.400,248.024 22.400 C 247.571 22.400,247.200 22.139,247.200 21.820 C 247.200 21.501,246.961 21.096,246.670 20.920 C 246.378 20.744,246.023 20.283,245.881 19.896 C 245.739 19.509,245.392 19.239,245.111 19.296 C 244.830 19.353,244.641 19.186,244.692 18.924 C 244.742 18.663,244.427 18.336,243.992 18.197 C 243.556 18.059,243.200 17.688,243.200 17.373 C 243.200 17.058,242.943 16.800,242.629 16.800 C 242.315 16.800,242.000 16.514,241.929 16.164 C 241.858 15.814,241.665 15.664,241.500 15.831 M294.595 243.400 C 294.595 279.700,294.642 294.491,294.700 276.268 C 294.758 258.046,294.758 228.346,294.700 210.268 C 294.642 192.191,294.595 207.100,294.595 243.400 M105.395 243.400 C 105.395 279.480,105.442 294.181,105.500 276.068 C 105.558 257.956,105.558 228.436,105.500 210.468 C 105.442 192.501,105.395 207.320,105.395 243.400 M186.443 190.548 C 186.120 190.938,186.020 194.607,186.100 203.248 L 186.212 215.400 186.306 203.180 C 186.374 194.318,186.532 190.828,186.880 190.480 C 187.144 190.216,187.256 190.000,187.129 190.000 C 187.002 190.000,186.693 190.247,186.443 190.548 M281.378 203.400 C 281.378 210.220,281.432 213.066,281.499 209.725 C 281.566 206.384,281.566 200.804,281.499 197.325 C 281.433 193.846,281.378 196.580,281.378 203.400 M132.329 216.300 C 139.660 216.361,151.540 216.361,158.729 216.300 C 165.918 216.239,159.920 216.189,145.400 216.189 C 130.880 216.189,124.998 216.239,132.329 216.300 M210.500 216.300 C 223.425 216.358,244.575 216.358,257.500 216.300 C 270.425 216.241,259.850 216.193,234.000 216.193 C 208.150 216.193,197.575 216.241,210.500 216.300 M119.062 229.900 C 118.893 230.172,137.988 230.168,161.800 229.891 C 166.860 229.833,159.356 229.743,145.124 229.692 C 130.892 229.642,119.164 229.735,119.062 229.900 M204.200 229.895 C 248.481 230.169,281.106 230.171,280.938 229.900 C 280.836 229.735,259.748 229.643,234.076 229.696 C 208.404 229.748,194.960 229.838,204.200 229.895 M186.178 243.400 C 186.179 250.440,186.233 253.264,186.299 249.675 C 186.366 246.086,186.366 240.326,186.299 236.875 C 186.233 233.424,186.178 236.360,186.178 243.400 M281.378 243.400 C 281.378 250.220,281.432 253.066,281.499 249.725 C 281.566 246.384,281.566 240.804,281.499 237.325 C 281.433 233.846,281.378 236.580,281.378 243.400 M119.143 256.903 C 119.310 257.070,131.136 257.160,145.423 257.103 L 171.400 257.000 145.120 256.800 C 130.666 256.690,118.976 256.736,119.143 256.903 M234.200 256.800 L 187.400 257.005 234.076 257.102 C 264.868 257.167,280.837 257.064,281.000 256.800 C 281.136 256.580,281.192 256.444,281.124 256.498 C 281.056 256.551,259.940 256.687,234.200 256.800 M281.378 283.400 C 281.378 290.220,281.432 293.066,281.499 289.725 C 281.566 286.384,281.566 280.804,281.499 277.325 C 281.433 273.846,281.378 276.580,281.378 283.400 M186.178 283.600 C 186.178 290.310,186.232 293.055,186.299 289.700 C 186.366 286.345,186.366 280.855,186.299 277.500 C 186.232 274.145,186.178 276.890,186.178 283.600 " stroke="none" fill="#7ccca4" fill-rule="evenodd"></path><path id="path3" d="M241.009 14.443 C 240.894 14.749,240.754 38.535,240.700 67.300 L 240.600 119.600 293.300 119.600 C 326.885 119.600,346.000 119.460,346.000 119.214 C 346.000 118.572,344.492 117.925,344.304 118.487 C 344.183 118.850,343.696 118.865,342.308 118.548 C 341.274 118.311,340.209 118.275,339.869 118.465 C 339.537 118.651,317.336 118.757,290.533 118.702 L 241.800 118.600 241.698 69.100 C 241.635 38.230,241.739 19.600,241.975 19.600 C 242.183 19.600,242.094 19.105,241.779 18.500 C 241.122 17.241,241.034 16.150,241.564 15.822 C 241.962 15.576,241.916 14.583,241.488 14.154 C 241.340 14.006,241.124 14.136,241.009 14.443 M105.867 176.667 C 105.720 176.813,105.600 177.186,105.600 177.495 C 105.600 177.949,105.720 177.937,106.229 177.429 C 107.001 176.657,292.189 176.445,293.626 177.214 C 294.235 177.540,294.400 177.497,294.400 177.014 C 294.400 176.370,106.510 176.024,105.867 176.667 M118.880 189.680 C 118.132 190.428,118.199 215.735,118.951 216.359 C 119.885 217.135,172.313 216.785,172.809 216.000 C 173.660 214.653,173.286 190.886,172.400 190.000 C 171.420 189.020,119.848 188.712,118.880 189.680 M186.500 189.612 L 185.600 189.974 185.600 202.973 C 185.600 215.415,185.633 215.990,186.374 216.386 C 187.211 216.834,279.808 217.002,280.967 216.557 C 281.315 216.424,281.600 216.118,281.600 215.877 C 281.600 215.585,281.441 215.599,281.120 215.920 C 280.483 216.557,187.962 216.622,186.774 215.986 C 185.821 215.476,185.544 191.416,186.480 190.480 C 187.370 189.590,280.648 189.806,281.168 190.700 C 281.504 191.276,281.578 191.290,281.588 190.780 C 281.595 190.439,281.384 189.944,281.120 189.680 C 280.531 189.091,187.961 189.025,186.500 189.612 M172.306 203.091 L 172.411 215.982 171.506 216.201 C 171.007 216.322,158.990 216.371,144.800 216.310 L 119.000 216.200 118.894 203.604 C 118.836 196.676,118.876 190.779,118.983 190.501 C 119.137 190.098,124.591 190.015,145.689 190.097 L 172.200 190.200 172.306 203.091 M118.880 229.680 C 118.372 230.188,118.150 255.684,118.643 256.967 C 119.012 257.929,171.609 257.933,172.571 256.971 C 173.519 256.024,173.519 230.776,172.571 229.829 C 171.744 229.001,119.703 228.857,118.880 229.680 M186.300 229.632 C 185.358 230.181,185.209 256.377,186.143 257.153 C 186.540 257.483,199.379 257.576,234.043 257.502 L 281.400 257.400 281.496 256.400 C 281.591 255.415,281.586 255.413,281.209 256.300 L 280.826 257.200 233.827 257.200 C 187.770 257.200,186.820 257.184,186.414 256.426 C 186.154 255.941,186.000 251.081,186.000 243.400 C 186.000 235.719,186.154 230.859,186.414 230.374 C 186.820 229.616,187.770 229.600,233.827 229.600 L 280.826 229.600 281.188 230.500 C 281.545 231.390,281.550 231.391,281.575 230.543 C 281.589 230.071,281.315 229.576,280.967 229.443 C 279.824 229.004,187.060 229.189,186.300 229.632 M171.920 230.080 C 172.274 230.434,172.400 234.007,172.400 243.672 L 172.400 256.785 171.500 257.003 C 171.005 257.123,158.990 257.171,144.800 257.110 L 119.000 257.000 118.894 243.803 C 118.836 236.545,118.876 230.380,118.982 230.103 C 119.257 229.387,171.205 229.365,171.920 230.080 M118.880 270.480 C 118.193 271.167,118.193 296.433,118.880 297.120 C 119.848 298.088,171.420 297.780,172.400 296.800 C 173.625 295.575,173.649 271.069,172.426 270.414 C 171.246 269.782,119.514 269.846,118.880 270.480 M186.300 270.432 C 185.161 271.096,185.231 296.574,186.374 297.186 C 187.562 297.822,280.483 297.757,281.120 297.120 C 281.384 296.856,281.595 296.361,281.588 296.020 C 281.578 295.510,281.504 295.524,281.168 296.100 C 280.497 297.251,187.031 297.179,186.414 296.026 C 185.793 294.866,185.854 271.506,186.480 270.880 C 187.177 270.183,280.423 270.183,281.120 270.880 C 281.441 271.201,281.600 271.215,281.600 270.923 C 281.600 270.682,281.315 270.376,280.967 270.243 C 279.824 269.804,187.060 269.989,186.300 270.432 M171.906 270.733 C 172.300 270.983,172.388 273.875,172.306 283.827 L 172.200 296.600 145.600 296.600 L 119.000 296.600 118.894 284.004 C 118.836 277.076,118.875 271.181,118.982 270.904 C 119.204 270.323,170.997 270.156,171.906 270.733 M105.662 309.428 C 105.867 310.493,293.991 310.664,294.317 309.600 C 294.465 309.116,294.398 309.096,293.970 309.500 C 293.031 310.386,107.073 310.216,106.185 309.328 C 105.556 308.699,105.523 308.706,105.662 309.428 " stroke="none" fill="#84ccac" fill-rule="evenodd"></path><path id="path4" d="M239.857 15.500 C 239.536 17.441,239.522 118.932,239.843 119.767 C 240.110 120.464,343.043 120.691,345.200 120.000 C 345.750 119.824,322.394 119.662,293.297 119.640 L 240.394 119.600 240.497 66.800 C 240.554 37.760,240.489 14.000,240.352 14.000 C 240.216 14.000,239.993 14.675,239.857 15.500 M242.000 16.013 C 242.000 16.446,242.270 16.800,242.600 16.800 C 242.930 16.800,243.200 17.058,243.200 17.373 C 243.200 17.688,243.556 18.059,243.992 18.197 C 244.427 18.336,244.742 18.663,244.692 18.924 C 244.641 19.186,244.830 19.353,245.111 19.296 C 245.392 19.239,245.739 19.509,245.881 19.896 C 246.023 20.283,246.378 20.744,246.670 20.920 C 246.961 21.096,247.200 21.501,247.200 21.820 C 247.200 22.139,247.571 22.400,248.024 22.400 C 248.477 22.400,248.736 22.580,248.600 22.800 C 248.464 23.020,248.639 23.200,248.989 23.200 C 249.339 23.200,249.741 23.515,249.882 23.900 C 250.024 24.285,250.378 24.744,250.670 24.920 C 250.961 25.096,251.200 25.501,251.200 25.820 C 251.200 26.139,251.470 26.400,251.800 26.400 C 252.130 26.400,252.400 26.670,252.400 27.000 C 252.400 27.330,252.601 27.600,252.847 27.600 C 253.429 27.600,256.400 30.571,256.400 31.153 C 256.400 31.399,256.760 31.600,257.200 31.600 C 257.644 31.600,258.000 31.867,258.000 32.200 C 258.000 32.530,258.270 32.800,258.600 32.800 C 258.930 32.800,259.200 33.076,259.200 33.413 C 259.200 33.749,259.470 34.129,259.800 34.255 C 260.130 34.382,260.400 34.736,260.400 35.043 C 260.400 35.349,260.760 35.600,261.200 35.600 C 261.640 35.600,262.000 35.780,262.000 36.000 C 262.000 36.519,263.481 38.000,264.000 38.000 C 264.220 38.000,264.400 38.360,264.400 38.800 C 264.400 39.240,264.661 39.600,264.980 39.600 C 265.299 39.600,265.738 39.915,265.955 40.300 C 266.264 40.848,266.456 40.895,266.839 40.516 C 267.355 40.006,264.602 36.800,263.647 36.800 C 263.401 36.800,263.197 36.575,263.193 36.300 C 263.185 35.690,261.458 34.000,260.844 34.000 C 260.600 34.000,260.400 33.730,260.400 33.400 C 260.400 33.070,260.130 32.800,259.800 32.800 C 259.470 32.800,259.200 32.599,259.200 32.353 C 259.200 31.771,256.229 28.800,255.647 28.800 C 255.401 28.800,255.200 28.599,255.200 28.353 C 255.200 27.771,252.229 24.800,251.647 24.800 C 251.401 24.800,251.200 24.592,251.200 24.338 C 251.200 23.793,248.140 20.800,247.583 20.800 C 247.372 20.800,247.200 20.629,247.200 20.421 C 247.200 19.870,245.388 18.000,244.854 18.000 C 244.604 18.000,244.400 17.730,244.400 17.400 C 244.400 17.070,244.130 16.800,243.800 16.800 C 243.470 16.800,243.200 16.549,243.200 16.243 C 243.200 15.936,242.930 15.582,242.600 15.455 C 242.192 15.299,242.000 15.477,242.000 16.013 M267.200 41.400 C 267.200 41.730,267.470 42.000,267.800 42.000 C 268.133 42.000,268.400 42.356,268.400 42.800 C 268.400 43.252,268.667 43.600,269.013 43.600 C 269.349 43.600,269.722 43.852,269.840 44.161 C 269.959 44.469,270.421 44.817,270.868 44.934 C 271.315 45.051,271.562 45.338,271.417 45.573 C 271.272 45.808,271.433 46.000,271.776 46.000 C 272.133 46.000,272.400 46.342,272.400 46.800 C 272.400 47.347,272.667 47.600,273.243 47.600 C 273.828 47.600,274.015 47.784,273.855 48.200 C 273.699 48.608,273.877 48.800,274.413 48.800 C 274.846 48.800,275.200 49.070,275.200 49.400 C 275.200 49.730,275.458 50.000,275.773 50.000 C 276.088 50.000,276.455 50.343,276.588 50.763 C 276.721 51.183,277.105 51.631,277.441 51.760 C 277.776 51.889,277.939 52.176,277.802 52.397 C 277.665 52.619,277.752 52.800,277.996 52.800 C 278.240 52.800,279.088 53.430,279.881 54.200 C 280.674 54.970,281.475 55.600,281.661 55.600 C 281.848 55.600,282.000 55.794,282.000 56.031 C 282.000 56.792,285.331 59.629,285.742 59.218 C 286.174 58.786,284.507 56.818,283.700 56.807 C 283.425 56.803,283.197 56.575,283.193 56.300 C 283.185 55.690,281.458 54.000,280.844 54.000 C 280.600 54.000,280.400 53.730,280.400 53.400 C 280.400 53.070,280.130 52.800,279.800 52.800 C 279.470 52.800,279.200 52.629,279.200 52.421 C 279.200 51.870,277.388 50.000,276.854 50.000 C 276.604 50.000,276.400 49.730,276.400 49.400 C 276.400 49.070,276.130 48.800,275.800 48.800 C 275.470 48.800,275.200 48.628,275.200 48.417 C 275.200 47.860,272.207 44.800,271.662 44.800 C 271.408 44.800,271.200 44.628,271.200 44.417 C 271.200 43.860,268.207 40.800,267.662 40.800 C 267.408 40.800,267.200 41.070,267.200 41.400 M286.000 60.000 C 286.000 60.444,286.267 60.800,286.600 60.800 C 286.930 60.800,287.200 60.980,287.200 61.200 C 287.200 61.721,290.279 64.800,290.800 64.800 C 291.020 64.800,291.200 65.051,291.200 65.357 C 291.200 65.664,291.470 66.018,291.800 66.145 C 292.130 66.271,292.400 66.651,292.400 66.987 C 292.400 67.324,292.676 67.600,293.013 67.600 C 293.349 67.600,293.729 67.870,293.855 68.200 C 293.982 68.530,294.336 68.800,294.643 68.800 C 294.949 68.800,295.200 69.070,295.200 69.400 C 295.200 69.730,295.449 70.000,295.753 70.000 C 296.058 70.000,296.401 70.360,296.516 70.800 C 296.631 71.240,297.012 71.600,297.363 71.600 C 297.713 71.600,298.000 71.870,298.000 72.200 C 298.000 72.530,298.270 72.800,298.600 72.800 C 298.930 72.800,299.200 73.070,299.200 73.400 C 299.200 73.730,299.470 74.000,299.800 74.000 C 300.133 74.000,300.400 74.356,300.400 74.800 C 300.400 75.240,300.651 75.600,300.957 75.600 C 301.264 75.600,301.618 75.870,301.745 76.200 C 301.871 76.530,302.251 76.800,302.587 76.800 C 302.924 76.800,303.200 77.051,303.200 77.357 C 303.200 77.664,303.470 78.018,303.800 78.145 C 304.130 78.271,304.400 78.651,304.400 78.987 C 304.400 79.324,304.676 79.600,305.013 79.600 C 305.349 79.600,305.729 79.870,305.855 80.200 C 305.982 80.530,306.336 80.800,306.643 80.800 C 306.949 80.800,307.200 81.070,307.200 81.400 C 307.200 81.730,307.470 82.000,307.800 82.000 C 308.130 82.000,308.400 82.154,308.400 82.342 C 308.400 82.845,310.293 84.800,310.781 84.800 C 311.011 84.800,311.205 85.025,311.211 85.300 C 311.217 85.575,311.842 86.250,312.600 86.800 C 313.358 87.350,313.983 88.025,313.989 88.300 C 314.002 88.884,314.649 88.968,314.983 88.428 C 315.255 87.988,313.512 86.000,312.854 86.000 C 312.604 86.000,312.400 85.730,312.400 85.400 C 312.400 85.070,312.130 84.800,311.800 84.800 C 311.470 84.800,311.200 84.628,311.200 84.417 C 311.200 83.860,308.207 80.800,307.662 80.800 C 307.408 80.800,307.200 80.628,307.200 80.417 C 307.200 79.860,304.207 76.800,303.662 76.800 C 303.408 76.800,303.200 76.628,303.200 76.417 C 303.200 75.860,300.207 72.800,299.662 72.800 C 299.408 72.800,299.197 72.575,299.193 72.300 C 299.185 71.690,297.458 70.000,296.844 70.000 C 296.600 70.000,296.400 69.730,296.400 69.400 C 296.400 69.070,296.130 68.800,295.800 68.800 C 295.470 68.800,295.197 68.575,295.193 68.300 C 295.185 67.690,293.458 66.000,292.844 66.000 C 292.600 66.000,292.400 65.730,292.400 65.400 C 292.400 65.070,292.130 64.800,291.800 64.800 C 291.470 64.800,291.200 64.599,291.200 64.353 C 291.200 63.798,288.241 60.800,287.694 60.800 C 287.473 60.800,287.199 60.440,287.084 60.000 C 286.969 59.560,286.678 59.200,286.437 59.200 C 286.197 59.200,286.000 59.560,286.000 60.000 M315.200 89.563 C 315.200 90.128,315.407 90.271,316.000 90.116 C 316.619 89.954,316.800 90.104,316.800 90.777 C 316.800 91.256,316.967 91.544,317.171 91.418 C 317.375 91.292,317.657 91.551,317.798 91.994 C 317.939 92.437,318.312 92.800,318.627 92.800 C 318.942 92.800,319.200 93.160,319.200 93.600 C 319.200 94.040,319.451 94.400,319.757 94.400 C 320.064 94.400,320.418 94.670,320.545 95.000 C 320.671 95.330,321.051 95.600,321.387 95.600 C 321.724 95.600,322.000 95.870,322.000 96.200 C 322.000 96.530,322.270 96.800,322.600 96.800 C 322.933 96.800,323.200 97.156,323.200 97.600 C 323.200 98.044,323.467 98.400,323.800 98.400 C 324.130 98.400,324.400 98.670,324.400 99.000 C 324.400 99.333,324.756 99.600,325.200 99.600 C 325.640 99.600,326.000 99.791,326.000 100.024 C 326.000 100.257,326.175 100.339,326.388 100.207 C 326.602 100.075,326.888 100.412,327.024 100.955 C 327.161 101.498,327.526 102.039,327.836 102.159 C 328.146 102.278,328.400 102.651,328.400 102.987 C 328.400 103.333,328.748 103.600,329.200 103.600 C 329.640 103.600,330.000 103.780,330.000 104.000 C 330.000 104.519,331.481 106.000,332.000 106.000 C 332.220 106.000,332.400 106.360,332.400 106.800 C 332.400 107.240,332.572 107.600,332.783 107.600 C 333.340 107.600,336.400 110.593,336.400 111.138 C 336.400 111.392,336.676 111.600,337.013 111.600 C 337.349 111.600,337.729 111.870,337.855 112.200 C 337.982 112.530,338.336 112.800,338.643 112.800 C 338.949 112.800,339.200 113.058,339.200 113.373 C 339.200 113.688,339.556 114.059,339.992 114.197 C 340.427 114.336,340.742 114.663,340.692 114.924 C 340.641 115.186,340.915 115.375,341.300 115.344 C 341.685 115.314,342.000 115.539,342.000 115.844 C 342.000 116.484,343.406 118.000,344.000 118.000 C 344.220 118.000,344.400 117.730,344.400 117.400 C 344.400 117.070,344.130 116.800,343.800 116.800 C 343.470 116.800,343.200 116.628,343.200 116.417 C 343.200 115.860,340.207 112.800,339.662 112.800 C 339.408 112.800,339.200 112.629,339.200 112.421 C 339.200 111.870,337.388 110.000,336.854 110.000 C 336.604 110.000,336.400 109.730,336.400 109.400 C 336.400 109.061,336.042 108.800,335.576 108.800 C 335.123 108.800,334.857 108.631,334.984 108.425 C 335.257 107.985,332.338 104.800,331.662 104.800 C 331.408 104.800,331.197 104.575,331.193 104.300 C 331.185 103.690,329.458 102.000,328.844 102.000 C 328.600 102.000,328.400 101.730,328.400 101.400 C 328.400 101.070,328.130 100.800,327.800 100.800 C 327.470 100.800,327.197 100.575,327.193 100.300 C 327.185 99.690,325.458 98.000,324.844 98.000 C 324.600 98.000,324.400 97.730,324.400 97.400 C 324.400 97.070,324.130 96.800,323.800 96.800 C 323.470 96.800,323.197 96.575,323.193 96.300 C 323.185 95.690,321.458 94.000,320.844 94.000 C 320.600 94.000,320.400 93.730,320.400 93.400 C 320.400 93.070,320.130 92.800,319.800 92.800 C 319.470 92.800,319.200 92.599,319.200 92.353 C 319.200 92.107,318.501 91.207,317.647 90.353 C 315.935 88.641,315.200 88.403,315.200 89.563 M105.287 176.700 C 104.912 177.615,104.912 309.185,105.287 310.100 C 105.560 310.764,110.456 310.800,200.187 310.800 L 294.800 310.800 294.754 309.900 C 294.719 309.223,294.662 309.173,294.524 309.700 C 294.351 310.364,289.514 310.400,200.021 310.400 L 105.700 310.400 105.450 309.150 C 105.313 308.463,105.200 278.875,105.200 243.400 C 105.200 207.925,105.313 178.338,105.450 177.650 L 105.700 176.400 200.021 176.400 C 289.514 176.400,294.351 176.436,294.524 177.100 C 294.662 177.627,294.719 177.577,294.754 176.900 L 294.800 176.000 200.187 176.000 C 110.456 176.000,105.560 176.036,105.287 176.700 M294.995 243.400 C 294.995 279.480,295.042 294.181,295.100 276.068 C 295.158 257.956,295.158 228.436,295.100 210.468 C 295.042 192.501,294.995 207.320,294.995 243.400 M119.067 190.267 C 118.920 190.413,118.800 196.265,118.800 203.270 L 118.800 216.006 145.500 215.903 L 172.200 215.800 172.306 203.448 C 172.381 194.667,172.280 190.938,171.957 190.548 C 171.472 189.964,119.645 189.688,119.067 190.267 M186.861 190.526 C 186.564 190.884,186.411 195.073,186.388 203.428 L 186.355 215.800 233.783 215.902 L 281.211 216.003 281.106 203.102 L 281.000 190.200 234.150 190.098 C 195.670 190.015,187.222 190.091,186.861 190.526 M171.906 203.300 L 172.012 215.600 145.606 215.600 L 119.200 215.600 119.200 203.197 L 119.200 190.794 145.500 190.897 L 171.800 191.000 171.906 203.300 M280.800 203.200 L 280.800 215.600 233.800 215.600 L 186.800 215.600 186.800 203.467 C 186.800 196.793,186.920 191.213,187.067 191.067 C 187.213 190.920,208.363 190.800,234.067 190.800 L 280.800 190.800 280.800 203.200 M145.000 229.996 L 119.000 230.200 119.000 243.400 L 119.000 256.600 145.340 256.800 C 169.747 256.985,171.706 256.951,172.040 256.326 C 173.067 254.406,172.357 229.337,171.286 229.696 C 171.129 229.748,159.300 229.883,145.000 229.996 M186.780 230.180 C 186.273 230.687,186.273 256.113,186.780 256.620 C 187.018 256.858,204.698 256.925,234.080 256.800 L 281.000 256.600 281.000 243.400 L 281.000 230.200 234.080 230.000 C 204.698 229.875,187.018 229.942,186.780 230.180 M171.757 231.033 C 172.074 231.859,172.074 254.941,171.757 255.767 C 171.539 256.335,168.840 256.400,145.357 256.400 L 119.200 256.400 119.200 243.400 L 119.200 230.400 145.357 230.400 C 168.840 230.400,171.539 230.465,171.757 231.033 M280.800 243.402 L 280.800 256.403 233.900 256.302 L 187.000 256.200 186.894 243.804 C 186.836 236.986,186.875 231.181,186.982 230.904 C 187.135 230.503,196.713 230.400,233.987 230.400 L 280.800 230.400 280.800 243.402 M118.982 270.904 C 118.875 271.181,118.836 277.076,118.894 284.004 L 119.000 296.600 145.156 296.703 C 164.143 296.778,171.460 296.682,171.856 296.354 C 172.601 295.735,172.662 271.622,171.920 270.880 C 171.204 270.164,119.257 270.187,118.982 270.904 M186.878 270.743 C 186.189 271.181,186.173 295.445,186.861 296.274 C 187.222 296.709,195.670 296.785,234.150 296.702 L 281.000 296.600 281.000 283.600 L 281.000 270.600 234.200 270.505 C 208.460 270.453,187.165 270.560,186.878 270.743 M171.800 283.400 L 171.800 295.800 145.500 295.903 L 119.200 296.006 119.200 283.400 L 119.200 270.794 145.500 270.897 L 171.800 271.000 171.800 283.400 M280.800 283.402 L 280.800 296.003 233.900 295.902 L 187.000 295.800 186.894 283.804 C 186.836 277.207,186.875 271.582,186.981 271.304 C 187.136 270.903,196.690 270.800,233.987 270.800 L 280.800 270.800 280.800 283.402 " stroke="none" fill="#67b78b" fill-rule="evenodd"></path></g></svg>