<svg id="svg" version="1.1" xmlns="http://www.w3.org/2000/svg" xmlns:xlink="http://www.w3.org/1999/xlink" width="400" height="400" viewBox="0, 0, 400,400"><g id="svgg"><path id="path0" d="M145.804 184.005 C 140.104 185.498,135.457 190.179,133.993 195.902 C 133.220 198.926,133.220 301.074,133.993 304.098 C 135.469 309.871,140.129 314.531,145.902 316.007 C 148.926 316.780,251.074 316.780,254.098 316.007 C 259.871 314.531,264.531 309.871,266.007 304.098 C 266.780 301.074,266.780 198.926,266.007 195.902 C 264.531 190.129,259.871 185.469,254.098 183.993 C 251.129 183.234,148.704 183.245,145.804 184.005 M250.000 250.000 L 250.000 283.500 200.000 283.500 L 150.000 283.500 150.000 250.000 L 150.000 216.500 200.000 216.500 L 250.000 216.500 250.000 250.000 " stroke="none" fill="#fcfbfb" fill-rule="evenodd"></path><path id="path1" d="M250.000 66.750 L 250.000 108.250 291.562 108.250 L 333.124 108.250 291.625 66.750 C 268.800 43.925,250.097 25.250,250.063 25.250 C 250.028 25.250,250.000 43.925,250.000 66.750 M174.687 183.437 C 188.609 183.473,211.391 183.473,225.312 183.437 C 239.234 183.402,227.844 183.373,200.000 183.373 C 172.156 183.373,160.766 183.402,174.687 183.437 M133.373 250.000 C 133.373 277.844,133.402 289.234,133.437 275.313 C 133.473 261.391,133.473 238.609,133.437 224.687 C 133.402 210.766,133.373 222.156,133.373 250.000 M266.623 250.000 C 266.623 277.844,266.652 289.234,266.687 275.313 C 266.723 261.391,266.723 238.609,266.687 224.687 C 266.652 210.766,266.623 222.156,266.623 250.000 M174.938 216.687 C 188.722 216.723,211.278 216.723,225.063 216.687 C 238.847 216.652,227.569 216.623,200.000 216.623 C 172.431 216.623,161.153 216.652,174.938 216.687 M174.938 283.437 C 188.722 283.473,211.278 283.473,225.063 283.437 C 238.847 283.402,227.569 283.373,200.000 283.373 C 172.431 283.373,161.153 283.402,174.938 283.437 M174.687 316.687 C 188.609 316.723,211.391 316.723,225.312 316.687 C 239.234 316.652,227.844 316.623,200.000 316.623 C 172.156 316.623,160.766 316.652,174.687 316.687 " stroke="none" fill="#fcebb3" fill-rule="evenodd"></path><path id="path2" d="M87.125 25.269 C 76.675 27.026,68.085 36.147,66.776 46.875 C 66.386 50.070,66.386 349.930,66.776 353.125 C 67.997 363.129,75.187 371.425,85.125 374.297 L 87.125 374.875 200.000 374.875 L 312.875 374.875 314.875 374.297 C 324.813 371.425,332.003 363.129,333.224 353.125 C 333.418 351.534,333.499 327.584,333.499 271.376 L 333.500 191.877 291.750 150.124 L 250.000 108.371 250.000 66.686 L 250.000 25.000 169.188 25.029 C 124.741 25.045,87.813 25.153,87.125 25.269 M254.500 183.837 C 260.280 185.778,264.431 189.973,266.165 195.625 C 266.606 197.062,266.625 199.359,266.625 250.000 C 266.625 309.585,266.823 303.708,264.672 307.875 C 262.713 311.669,258.824 314.800,254.375 316.165 C 252.037 316.882,147.963 316.882,145.625 316.165 C 139.913 314.412,135.588 310.087,133.835 304.375 C 133.118 302.037,133.118 197.963,133.835 195.625 C 135.802 189.215,141.395 184.265,147.625 183.422 C 150.689 183.008,253.215 183.405,254.500 183.837 M150.000 250.000 L 150.000 283.250 200.000 283.250 L 250.000 283.250 250.000 250.000 L 250.000 216.750 200.000 216.750 L 150.000 216.750 150.000 250.000 " stroke="none" fill="#fcc404" fill-rule="evenodd"></path><path id="path3" d="M250.250 108.437 C 250.250 108.541,268.982 127.357,291.876 150.250 L 333.501 191.875 333.438 150.125 L 333.375 108.375 291.813 108.312 C 268.953 108.277,250.250 108.333,250.250 108.437 " stroke="none" fill="#fca404" fill-rule="evenodd"></path><path id="path4" d="M291.500 66.625 C 314.393 89.519,333.181 108.250,333.249 108.250 C 333.318 108.250,314.643 89.519,291.750 66.625 C 268.857 43.731,250.069 25.000,250.001 25.000 C 249.932 25.000,268.607 43.731,291.500 66.625 " stroke="none" fill="#fcdb79" fill-rule="evenodd"></path></g></svg>