<svg id="svg" version="1.1" xmlns="http://www.w3.org/2000/svg" xmlns:xlink="http://www.w3.org/1999/xlink" width="400" height="463.3204633204633" viewBox="0, 0, 400,463.3204633204633"><g id="svgg"><path id="path0" d="M182.935 42.772 C 182.019 42.922,181.029 43.242,180.735 43.484 C 180.424 43.739,177.908 43.982,174.742 44.062 C 170.234 44.176,169.148 44.322,168.510 44.900 C 167.921 45.433,167.029 45.601,164.769 45.605 C 161.269 45.612,160.000 45.889,160.000 46.647 C 160.000 47.055,159.382 47.200,157.633 47.200 C 154.903 47.200,154.000 47.459,154.000 48.243 C 154.000 48.663,153.350 48.800,151.363 48.800 C 149.332 48.800,148.493 48.984,147.709 49.600 C 147.017 50.145,146.086 50.400,144.795 50.400 C 143.673 50.400,142.711 50.625,142.441 50.950 C 142.190 51.253,141.277 51.613,140.411 51.752 C 139.546 51.890,138.694 52.245,138.519 52.541 C 138.344 52.837,137.320 53.197,136.244 53.340 C 135.168 53.483,134.083 53.881,133.832 54.224 C 133.581 54.568,132.799 54.865,132.095 54.885 C 131.390 54.905,130.513 55.254,130.145 55.661 C 129.749 56.098,128.932 56.400,128.141 56.400 C 127.240 56.400,126.645 56.660,126.307 57.200 C 125.969 57.742,125.374 58.000,124.466 58.000 C 123.462 58.000,123.073 58.201,122.916 58.800 C 122.760 59.397,122.370 59.600,121.380 59.600 C 120.405 59.600,119.987 59.812,119.800 60.400 C 119.611 60.995,119.195 61.200,118.173 61.200 C 117.276 61.200,116.800 61.390,116.800 61.749 C 116.800 62.080,116.165 62.399,115.200 62.554 C 114.320 62.694,113.600 62.976,113.600 63.179 C 113.600 63.382,112.970 63.776,112.200 64.054 C 111.430 64.333,110.800 64.795,110.800 65.080 C 110.800 65.366,110.575 65.614,110.300 65.631 C 108.969 65.712,108.229 66.004,107.910 66.575 C 107.718 66.919,107.119 67.200,106.580 67.200 C 106.041 67.200,105.271 67.529,104.869 67.931 C 104.468 68.332,103.838 68.777,103.469 68.918 C 103.101 69.059,102.800 69.451,102.800 69.787 C 102.800 70.217,102.395 70.400,101.447 70.400 C 100.430 70.400,100.041 70.599,99.884 71.200 C 99.759 71.679,99.338 72.000,98.837 72.000 C 98.377 72.000,98.000 72.256,98.000 72.568 C 98.000 72.881,97.448 73.258,96.773 73.406 C 96.098 73.554,95.449 73.928,95.330 74.238 C 95.212 74.547,94.935 74.800,94.715 74.800 C 94.495 74.800,93.781 75.250,93.127 75.800 C 92.473 76.350,91.682 76.800,91.369 76.800 C 91.056 76.800,90.800 77.070,90.800 77.400 C 90.800 77.730,90.452 78.000,90.027 78.000 C 89.602 78.000,89.140 78.360,89.000 78.800 C 88.860 79.240,88.501 79.600,88.202 79.600 C 87.902 79.600,86.812 80.410,85.778 81.400 C 84.745 82.390,83.736 83.200,83.536 83.200 C 83.337 83.200,82.679 83.705,82.075 84.323 C 81.471 84.941,80.667 85.565,80.289 85.711 C 79.910 85.856,79.600 86.251,79.600 86.587 C 79.600 86.924,79.340 87.200,79.023 87.200 C 78.705 87.200,78.210 87.534,77.923 87.943 C 77.635 88.351,77.014 88.807,76.542 88.956 C 76.071 89.105,75.261 89.850,74.742 90.611 C 74.224 91.372,73.579 91.996,73.309 91.997 C 73.039 91.999,72.525 92.448,72.165 92.997 C 71.806 93.545,71.352 93.894,71.156 93.773 C 70.833 93.573,70.632 94.135,70.753 94.900 C 70.779 95.065,70.536 95.200,70.214 95.200 C 69.892 95.200,69.435 95.560,69.200 96.000 C 68.965 96.440,68.508 96.800,68.186 96.800 C 67.864 96.800,67.600 96.972,67.600 97.182 C 67.600 97.392,66.441 98.745,65.024 100.190 C 63.608 101.635,62.335 103.173,62.197 103.609 C 62.059 104.044,61.778 104.400,61.573 104.400 C 61.368 104.400,61.200 104.658,61.200 104.973 C 61.200 105.288,60.840 105.660,60.400 105.800 C 59.960 105.940,59.600 106.312,59.600 106.627 C 59.600 106.942,59.326 107.200,58.990 107.200 C 58.655 107.200,58.218 107.625,58.021 108.145 C 57.823 108.665,57.377 109.200,57.031 109.333 C 56.684 109.466,56.400 109.851,56.400 110.187 C 56.400 110.524,56.243 110.800,56.051 110.800 C 55.859 110.800,55.094 111.786,54.351 112.992 C 53.608 114.197,52.775 115.187,52.500 115.192 C 52.225 115.196,52.000 115.447,52.000 115.750 C 52.000 116.052,51.374 116.983,50.608 117.819 C 49.843 118.655,49.019 119.937,48.777 120.669 C 48.536 121.401,48.082 122.000,47.769 122.000 C 47.456 122.000,47.245 122.135,47.300 122.300 C 47.355 122.465,46.995 123.005,46.500 123.500 C 46.005 123.995,45.600 124.717,45.600 125.104 C 45.600 125.491,45.240 126.032,44.800 126.307 C 44.360 126.582,44.000 127.212,44.000 127.707 C 44.000 128.202,43.640 128.832,43.200 129.107 C 42.760 129.382,42.400 129.875,42.400 130.203 C 42.400 130.532,42.150 130.800,41.845 130.800 C 41.525 130.800,41.176 131.403,41.022 132.221 C 40.876 133.003,40.496 133.742,40.178 133.864 C 39.831 133.997,39.600 134.628,39.600 135.443 C 39.600 136.533,39.443 136.800,38.800 136.800 C 38.261 136.800,38.000 137.067,38.000 137.617 C 38.000 138.066,37.640 138.820,37.200 139.292 C 36.746 139.779,36.400 140.704,36.400 141.429 C 36.400 142.370,36.189 142.762,35.600 142.916 C 35.060 143.057,34.800 143.462,34.800 144.159 C 34.800 144.760,34.465 145.403,34.000 145.693 C 33.533 145.985,33.200 146.626,33.200 147.234 C 33.200 147.807,32.840 148.602,32.400 149.000 C 31.901 149.452,31.600 150.232,31.600 151.075 C 31.600 151.895,31.369 152.514,31.011 152.651 C 30.687 152.776,30.309 153.477,30.172 154.211 C 30.034 154.944,29.696 155.631,29.420 155.737 C 29.144 155.843,28.802 156.780,28.659 157.821 C 28.517 158.861,28.105 159.928,27.743 160.192 C 27.202 160.588,27.182 163.600,27.721 163.600 C 27.767 163.600,28.399 163.770,29.124 163.978 C 30.276 164.308,30.550 164.234,31.282 163.392 C 31.743 162.861,32.275 162.523,32.463 162.639 C 32.652 162.755,32.924 162.544,33.068 162.168 C 33.212 161.793,34.650 160.152,36.265 158.522 C 37.879 156.891,39.200 155.387,39.200 155.179 C 39.200 154.970,39.476 154.800,39.813 154.800 C 40.150 154.800,40.589 154.395,40.788 153.900 C 40.987 153.405,41.161 153.137,41.175 153.303 C 41.189 153.470,41.785 153.043,42.500 152.355 C 43.215 151.666,43.755 150.945,43.700 150.751 C 43.645 150.558,43.977 150.400,44.437 150.400 C 44.938 150.400,45.359 150.079,45.484 149.600 C 45.600 149.157,46.030 148.800,46.447 148.800 C 46.861 148.800,47.200 148.542,47.200 148.227 C 47.200 147.912,47.560 147.540,48.000 147.400 C 48.440 147.260,48.800 146.888,48.800 146.573 C 48.800 146.258,49.167 146.000,49.616 146.000 C 50.064 146.000,51.158 145.280,52.047 144.400 C 52.936 143.520,53.919 142.800,54.232 142.800 C 54.544 142.800,54.800 142.440,54.800 142.000 C 54.800 141.413,55.067 141.200,55.804 141.200 C 56.356 141.200,57.116 140.840,57.493 140.400 C 57.870 139.960,58.396 139.600,58.662 139.600 C 58.928 139.600,59.260 139.240,59.400 138.800 C 59.540 138.360,59.989 138.000,60.398 138.000 C 60.808 138.000,61.413 137.730,61.743 137.400 C 62.073 137.070,62.643 136.800,63.009 136.800 C 63.375 136.800,63.769 136.440,63.884 136.000 C 64.000 135.557,64.430 135.200,64.847 135.200 C 65.261 135.200,65.960 134.840,66.400 134.400 C 66.840 133.960,67.442 133.600,67.738 133.600 C 68.034 133.600,68.602 133.240,69.000 132.800 C 69.398 132.360,70.134 132.000,70.635 132.000 C 71.195 132.000,71.644 131.692,71.800 131.200 C 71.962 130.690,72.405 130.400,73.024 130.400 C 73.560 130.400,74.216 130.043,74.493 129.600 C 74.820 129.076,75.426 128.800,76.250 128.800 C 77.170 128.800,77.563 128.586,77.716 128.000 C 77.833 127.554,78.262 127.200,78.686 127.200 C 79.105 127.200,79.796 126.936,80.224 126.613 C 80.651 126.290,81.291 126.020,81.646 126.013 C 82.001 126.006,82.721 125.663,83.246 125.252 C 83.771 124.841,84.797 124.374,85.527 124.214 C 86.257 124.055,86.944 123.689,87.055 123.402 C 87.165 123.114,87.873 122.763,88.628 122.621 C 89.444 122.468,90.000 122.128,90.000 121.782 C 90.000 121.367,90.471 121.200,91.637 121.200 C 92.938 121.200,93.318 121.036,93.484 120.400 C 93.664 119.714,95.945 119.186,96.510 119.700 C 96.731 119.902,97.911 118.591,97.749 118.323 C 97.657 118.171,98.351 117.991,99.291 117.923 C 100.489 117.837,101.000 117.620,101.000 117.200 C 101.000 116.757,101.556 116.568,103.121 116.478 C 104.514 116.398,105.318 116.158,105.464 115.778 C 105.594 115.438,106.221 115.200,106.989 115.200 C 107.706 115.200,108.721 114.867,109.246 114.461 C 109.771 114.054,111.100 113.603,112.200 113.458 C 113.300 113.313,114.400 112.926,114.644 112.597 C 114.911 112.239,115.737 112.000,116.711 112.000 C 118.719 112.000,119.600 111.682,119.600 110.957 C 119.600 110.547,120.192 110.400,121.837 110.400 C 123.738 110.400,124.106 110.280,124.284 109.600 C 124.469 108.893,124.830 108.800,127.385 108.800 C 129.768 108.800,130.403 108.659,131.000 108.000 C 131.599 107.338,132.232 107.200,134.659 107.200 C 137.160 107.200,137.667 107.082,138.093 106.400 C 138.511 105.730,139.026 105.600,141.263 105.600 C 142.942 105.600,143.991 105.427,144.089 105.133 C 144.187 104.839,145.908 104.557,148.736 104.370 C 151.536 104.185,153.562 103.855,154.116 103.492 C 154.734 103.087,156.676 102.844,160.514 102.693 C 164.355 102.542,166.293 102.300,166.913 101.894 C 167.581 101.456,169.657 101.265,175.267 101.124 C 181.346 100.972,182.920 100.813,183.751 100.269 C 185.284 99.264,213.100 99.254,214.631 100.257 C 215.440 100.787,217.078 100.950,223.117 101.102 C 228.785 101.244,230.756 101.427,231.243 101.856 C 231.597 102.167,232.407 102.425,233.043 102.430 C 238.656 102.473,243.469 102.922,244.065 103.460 C 244.515 103.867,245.995 104.133,248.665 104.288 C 250.961 104.421,252.929 104.741,253.389 105.058 C 253.856 105.379,255.248 105.600,256.801 105.600 C 258.965 105.600,259.524 105.740,260.000 106.400 C 260.486 107.074,261.035 107.200,263.488 107.200 C 265.776 107.200,266.557 107.357,267.132 107.932 C 267.658 108.458,268.562 108.689,270.354 108.754 C 272.203 108.820,273.044 109.044,273.622 109.622 C 274.136 110.136,274.948 110.400,276.017 110.400 C 277.081 110.400,277.927 110.674,278.492 111.200 C 279.111 111.777,279.904 112.000,281.331 112.000 C 282.623 112.000,283.466 112.208,283.756 112.597 C 284.000 112.926,285.100 113.316,286.200 113.463 C 287.300 113.611,288.386 113.984,288.614 114.293 C 288.842 114.601,289.832 114.958,290.814 115.085 C 291.796 115.213,292.744 115.561,292.920 115.859 C 293.119 116.195,293.972 116.400,295.173 116.400 C 296.770 116.400,297.143 116.539,297.316 117.200 C 297.475 117.806,297.862 118.000,298.916 118.000 C 299.970 118.000,300.357 118.194,300.516 118.800 C 300.680 119.429,301.062 119.600,302.301 119.600 C 303.368 119.600,304.109 119.858,304.600 120.400 C 305.030 120.875,305.832 121.200,306.573 121.200 C 307.327 121.200,308.094 121.517,308.507 122.000 C 308.884 122.440,309.644 122.800,310.196 122.800 C 310.818 122.800,311.200 123.026,311.200 123.395 C 311.200 123.779,311.760 124.080,312.775 124.242 C 313.642 124.381,314.453 124.762,314.579 125.089 C 314.705 125.417,315.073 125.581,315.403 125.454 C 315.732 125.328,316.000 125.399,316.000 125.613 C 316.000 125.826,316.338 126.000,316.751 126.000 C 317.164 126.000,317.726 126.270,318.000 126.600 C 318.274 126.930,319.016 127.200,319.649 127.200 C 320.533 127.200,320.800 127.385,320.800 128.000 C 320.800 128.642,321.067 128.800,322.153 128.800 C 323.177 128.800,323.558 128.998,323.719 129.611 C 323.836 130.058,324.082 130.396,324.266 130.364 C 325.717 130.109,326.800 130.466,326.800 131.200 C 326.800 131.665,327.067 132.000,327.437 132.000 C 327.787 132.000,328.531 132.360,329.091 132.800 C 329.650 133.240,330.444 133.600,330.854 133.600 C 331.264 133.600,331.600 133.856,331.600 134.169 C 331.600 134.482,332.214 134.941,332.965 135.188 C 333.715 135.436,334.430 135.900,334.552 136.219 C 334.675 136.539,335.031 136.800,335.345 136.800 C 335.658 136.800,336.018 137.070,336.145 137.400 C 336.287 137.771,336.896 138.000,337.741 138.000 C 338.770 138.000,339.158 138.197,339.316 138.800 C 339.431 139.240,339.791 139.600,340.116 139.600 C 340.441 139.600,340.801 139.960,340.916 140.400 C 341.041 140.877,341.462 141.200,341.959 141.200 C 342.418 141.200,343.018 141.560,343.293 142.000 C 343.568 142.440,344.088 142.800,344.450 142.800 C 344.811 142.800,345.202 143.165,345.319 143.611 C 345.436 144.058,345.682 144.373,345.866 144.311 C 346.049 144.250,346.588 144.560,347.062 145.000 C 348.233 146.087,350.126 147.395,350.532 147.398 C 350.715 147.399,351.095 147.715,351.376 148.100 C 351.658 148.485,352.072 148.800,352.297 148.800 C 352.523 148.800,352.801 149.160,352.916 149.600 C 353.045 150.092,353.462 150.400,354.000 150.400 C 354.537 150.400,354.955 150.707,355.083 151.196 C 355.197 151.633,355.431 151.904,355.603 151.798 C 355.774 151.692,356.027 152.054,356.165 152.603 C 356.303 153.151,356.682 153.600,357.008 153.600 C 357.333 153.600,357.600 153.768,357.600 153.974 C 357.600 154.180,358.316 154.855,359.191 155.474 C 360.067 156.093,360.787 156.813,360.791 157.073 C 360.796 157.333,361.141 157.654,361.557 157.786 C 361.973 157.918,362.406 158.381,362.519 158.813 C 362.633 159.246,363.012 159.600,363.363 159.600 C 363.713 159.600,364.000 159.861,364.000 160.180 C 364.000 160.499,364.239 160.904,364.530 161.080 C 364.822 161.256,365.176 161.715,365.318 162.100 C 365.459 162.485,365.941 162.800,366.387 162.800 C 366.834 162.800,367.200 163.051,367.200 163.357 C 367.200 164.653,370.098 164.511,370.811 163.180 C 371.379 162.118,371.286 160.408,370.647 160.163 C 370.343 160.046,369.981 159.242,369.842 158.375 C 369.680 157.360,369.379 156.800,368.995 156.800 C 368.570 156.800,368.400 156.354,368.400 155.233 C 368.400 153.278,368.077 152.400,367.357 152.400 C 366.984 152.400,366.800 151.925,366.800 150.963 C 366.800 149.862,366.613 149.476,366.000 149.316 C 365.504 149.186,365.181 148.744,365.150 148.153 C 365.055 146.349,364.998 146.200,364.400 146.200 C 363.992 146.200,363.759 145.705,363.673 144.656 C 363.581 143.529,363.337 143.056,362.773 142.909 C 362.201 142.759,362.000 142.355,362.000 141.353 C 362.000 140.465,361.809 140.000,361.445 140.000 C 361.125 140.000,360.776 139.397,360.622 138.579 C 360.476 137.797,360.116 137.066,359.823 136.953 C 359.530 136.841,359.185 136.226,359.057 135.587 C 358.930 134.948,358.459 134.014,358.013 133.513 C 356.201 131.478,356.000 131.168,356.000 130.414 C 356.000 129.982,355.640 129.435,355.200 129.200 C 354.733 128.950,354.400 128.362,354.400 127.789 C 354.400 127.240,354.047 126.587,353.600 126.307 C 353.160 126.032,352.800 125.491,352.800 125.104 C 352.800 124.667,352.497 124.400,352.000 124.400 C 351.376 124.400,351.200 124.133,351.200 123.187 C 351.200 122.493,350.950 121.879,350.615 121.750 C 350.294 121.627,349.921 121.183,349.788 120.763 C 349.655 120.343,349.288 120.000,348.973 120.000 C 348.658 120.000,348.400 119.674,348.400 119.275 C 348.400 118.877,348.040 118.164,347.600 117.692 C 347.160 117.220,346.800 116.539,346.800 116.179 C 346.800 115.819,346.457 115.435,346.037 115.326 C 345.617 115.216,345.184 114.783,345.074 114.363 C 344.965 113.943,344.588 113.600,344.237 113.600 C 343.867 113.600,343.600 113.265,343.600 112.800 C 343.600 112.360,343.240 111.640,342.800 111.200 C 342.360 110.760,342.000 110.241,342.000 110.046 C 342.000 109.851,341.544 109.393,340.987 109.028 C 340.430 108.663,340.081 108.193,340.211 107.982 C 340.341 107.772,340.077 107.600,339.624 107.600 C 339.171 107.600,338.800 107.339,338.800 107.021 C 338.800 106.316,337.085 104.400,336.454 104.400 C 336.204 104.400,336.001 104.085,336.003 103.700 C 336.006 103.000,334.715 101.600,327.339 94.305 C 322.310 89.331,321.697 88.800,320.986 88.800 C 320.664 88.800,320.400 88.440,320.400 88.000 C 320.400 87.467,320.133 87.200,319.600 87.200 C 319.160 87.200,318.800 86.942,318.800 86.627 C 318.800 86.312,318.440 85.940,318.000 85.800 C 317.560 85.660,317.200 85.288,317.200 84.973 C 317.200 84.658,316.936 84.400,316.614 84.400 C 316.292 84.400,315.835 84.040,315.600 83.600 C 315.365 83.160,314.856 82.800,314.469 82.800 C 314.083 82.800,313.105 82.080,312.296 81.200 C 311.487 80.320,310.593 79.600,310.309 79.600 C 310.025 79.600,309.557 79.222,309.269 78.761 C 308.980 78.300,308.656 78.011,308.548 78.119 C 308.440 78.227,307.921 77.884,307.394 77.358 C 306.867 76.831,306.201 76.400,305.914 76.400 C 305.627 76.400,305.163 76.033,304.883 75.584 C 304.603 75.136,304.209 74.871,304.007 74.996 C 303.805 75.120,303.453 74.872,303.223 74.444 C 302.994 74.015,302.265 73.546,301.603 73.401 C 300.941 73.255,300.400 72.881,300.400 72.568 C 300.400 72.256,300.083 72.000,299.696 72.000 C 299.309 72.000,298.768 71.640,298.493 71.200 C 298.174 70.690,297.560 70.400,296.797 70.400 C 296.000 70.400,295.600 70.200,295.600 69.800 C 295.600 69.470,295.340 69.200,295.023 69.200 C 294.705 69.200,294.202 68.853,293.905 68.428 C 293.607 68.004,292.863 67.531,292.250 67.377 C 291.637 67.223,291.043 66.855,290.929 66.559 C 290.816 66.264,290.123 65.909,289.389 65.772 C 288.656 65.634,287.962 65.279,287.849 64.983 C 287.735 64.687,287.003 64.324,286.221 64.178 C 285.439 64.031,284.800 63.681,284.800 63.400 C 284.800 63.119,284.187 62.774,283.439 62.634 C 282.690 62.493,281.976 62.113,281.851 61.789 C 281.713 61.429,281.093 61.200,280.259 61.200 C 279.230 61.200,278.842 61.003,278.684 60.400 C 278.525 59.794,278.138 59.600,277.084 59.600 C 276.030 59.600,275.643 59.406,275.484 58.800 C 275.325 58.190,274.938 58.000,273.857 58.000 C 272.972 58.000,272.305 57.759,272.080 57.358 C 271.866 56.974,270.985 56.632,269.894 56.509 C 268.549 56.358,268.016 56.106,267.872 55.552 C 267.726 54.994,267.308 54.800,266.257 54.800 C 265.372 54.800,264.705 54.559,264.480 54.158 C 264.259 53.761,263.370 53.433,262.160 53.301 C 261.082 53.183,260.062 52.853,259.893 52.567 C 259.725 52.281,258.765 51.924,257.761 51.773 C 256.758 51.623,255.841 51.252,255.725 50.950 C 255.587 50.590,254.857 50.400,253.611 50.400 C 252.314 50.400,251.384 50.145,250.691 49.600 C 249.907 48.984,249.068 48.800,247.037 48.800 C 245.050 48.800,244.400 48.663,244.400 48.243 C 244.400 47.479,243.505 47.200,241.056 47.200 C 239.473 47.200,238.815 47.009,238.293 46.400 C 237.705 45.714,237.113 45.600,234.135 45.600 C 231.390 45.600,230.501 45.454,229.890 44.900 C 229.252 44.323,228.165 44.176,223.684 44.060 C 219.483 43.952,218.022 43.771,217.243 43.260 C 216.173 42.558,186.793 42.140,182.935 42.772 M28.800 283.130 C 27.242 283.880,26.804 285.146,27.768 286.111 C 28.313 286.656,29.095 289.733,28.883 290.500 C 28.837 290.665,29.054 290.800,29.365 290.800 C 29.712 290.800,30.034 291.416,30.200 292.400 C 30.366 293.384,30.688 294.000,31.035 294.000 C 31.410 294.000,31.600 294.453,31.600 295.346 C 31.600 296.086,31.960 297.150,32.400 297.709 C 32.840 298.269,33.200 299.103,33.200 299.563 C 33.200 300.023,33.560 300.760,34.000 301.200 C 34.440 301.640,34.800 302.270,34.800 302.600 C 34.800 302.930,35.160 303.560,35.600 304.000 C 36.040 304.440,36.400 305.252,36.400 305.804 C 36.400 306.356,36.760 307.116,37.200 307.493 C 37.640 307.870,38.000 308.486,38.000 308.862 C 38.000 309.238,38.321 309.648,38.713 309.772 C 39.130 309.905,39.463 310.449,39.515 311.085 C 39.565 311.682,39.867 312.318,40.187 312.496 C 40.506 312.675,40.885 313.447,41.028 314.211 C 41.177 315.004,41.527 315.600,41.845 315.600 C 42.150 315.600,42.400 315.842,42.400 316.138 C 42.400 316.434,42.760 317.002,43.200 317.400 C 43.640 317.798,44.000 318.563,44.000 319.099 C 44.000 319.738,44.276 320.147,44.800 320.284 C 45.240 320.399,45.600 320.818,45.600 321.214 C 45.600 322.362,46.040 323.200,46.643 323.200 C 46.949 323.200,47.200 323.539,47.200 323.953 C 47.200 324.370,47.557 324.800,48.000 324.916 C 48.540 325.057,48.800 325.462,48.800 326.159 C 48.800 326.760,49.135 327.403,49.600 327.693 C 50.040 327.968,50.400 328.413,50.400 328.682 C 50.400 328.951,50.760 329.365,51.200 329.600 C 51.640 329.835,52.000 330.292,52.000 330.614 C 52.000 330.936,52.270 331.200,52.600 331.200 C 52.938 331.200,53.200 331.558,53.200 332.019 C 53.200 332.470,53.650 333.255,54.200 333.765 C 54.750 334.275,55.200 334.896,55.200 335.146 C 55.200 335.396,55.449 335.600,55.753 335.600 C 56.058 335.600,56.401 335.960,56.516 336.400 C 56.631 336.840,57.012 337.200,57.363 337.200 C 57.713 337.200,58.000 337.486,58.000 337.835 C 58.000 338.185,59.080 339.667,60.400 341.130 C 61.720 342.592,62.800 344.016,62.800 344.294 C 62.800 344.573,63.160 344.800,63.600 344.800 C 64.052 344.800,64.400 345.067,64.400 345.413 C 64.400 345.749,64.663 346.126,64.985 346.250 C 65.306 346.373,65.679 346.817,65.812 347.237 C 65.945 347.657,66.291 348.000,66.580 348.000 C 66.870 348.000,67.201 348.360,67.316 348.800 C 67.431 349.240,67.791 349.600,68.116 349.600 C 68.441 349.600,68.801 349.960,68.916 350.400 C 69.031 350.840,69.391 351.200,69.716 351.200 C 70.041 351.200,70.401 351.560,70.516 352.000 C 70.631 352.440,70.991 352.800,71.316 352.800 C 71.641 352.800,72.001 353.160,72.116 353.600 C 72.231 354.040,72.612 354.400,72.963 354.400 C 73.313 354.400,73.600 354.649,73.600 354.953 C 73.600 355.258,73.960 355.601,74.400 355.716 C 74.840 355.831,75.200 356.212,75.200 356.563 C 75.200 356.913,75.410 357.200,75.666 357.200 C 75.923 357.200,76.418 357.458,76.766 357.774 C 80.480 361.136,81.579 362.000,82.141 362.000 C 82.533 362.000,82.800 362.324,82.800 362.800 C 82.800 363.333,83.067 363.600,83.600 363.600 C 84.040 363.600,84.400 363.780,84.400 364.000 C 84.400 364.220,84.658 364.400,84.973 364.400 C 85.288 364.400,85.665 364.776,85.811 365.235 C 85.957 365.695,86.562 366.280,87.156 366.535 C 88.273 367.016,89.177 367.693,90.317 368.900 C 90.680 369.285,91.164 369.600,91.393 369.600 C 91.621 369.600,92.032 369.960,92.307 370.400 C 92.626 370.910,93.240 371.200,94.003 371.200 C 94.933 371.200,95.200 371.378,95.200 372.000 C 95.200 372.517,95.467 372.800,95.953 372.800 C 96.370 372.800,96.800 373.157,96.916 373.600 C 97.066 374.174,97.462 374.400,98.316 374.400 C 99.170 374.400,99.566 374.626,99.716 375.200 C 99.851 375.716,100.262 376.000,100.874 376.000 C 101.396 376.000,102.083 376.360,102.400 376.800 C 102.717 377.240,103.297 377.600,103.688 377.600 C 104.080 377.600,104.400 377.862,104.400 378.182 C 104.400 378.528,104.956 378.868,105.772 379.021 C 106.527 379.163,107.241 379.531,107.360 379.839 C 107.478 380.148,107.933 380.400,108.370 380.400 C 109.261 380.400,112.028 382.153,112.520 383.030 C 112.696 383.343,113.331 383.600,113.931 383.600 C 114.531 383.600,115.330 383.960,115.707 384.400 C 116.084 384.840,116.844 385.200,117.396 385.200 C 117.948 385.200,118.760 385.560,119.200 386.000 C 119.640 386.440,120.270 386.800,120.600 386.800 C 120.930 386.800,121.560 387.160,122.000 387.600 C 122.440 388.040,123.267 388.400,123.837 388.400 C 124.407 388.400,125.331 388.760,125.891 389.200 C 126.450 389.640,127.424 390.000,128.054 390.000 C 128.763 390.000,129.200 390.211,129.200 390.553 C 129.200 391.107,130.359 391.584,131.729 391.595 C 132.129 391.598,132.727 391.870,133.057 392.200 C 133.410 392.553,134.387 392.800,135.429 392.800 C 136.676 392.800,137.200 392.965,137.200 393.357 C 137.200 394.045,138.067 394.400,139.744 394.400 C 140.524 394.400,141.229 394.685,141.550 395.130 C 141.918 395.641,142.672 395.888,144.059 395.951 C 145.400 396.012,146.293 396.293,146.821 396.821 C 147.409 397.409,148.153 397.600,149.856 397.600 C 151.505 397.600,152.244 397.780,152.602 398.271 C 152.941 398.735,153.878 398.998,155.642 399.126 C 157.285 399.244,158.350 399.526,158.635 399.916 C 158.879 400.249,159.274 400.402,159.512 400.255 C 159.750 400.107,160.058 400.170,160.196 400.393 C 160.334 400.617,161.722 400.800,163.280 400.800 C 165.484 400.800,166.222 400.951,166.609 401.480 C 167.020 402.042,167.999 402.190,172.233 402.331 C 175.855 402.452,177.520 402.663,177.908 403.051 C 178.723 403.866,219.677 403.866,220.492 403.051 C 220.880 402.663,222.545 402.452,226.167 402.331 C 230.401 402.190,231.380 402.042,231.791 401.480 C 232.161 400.974,232.892 400.799,234.644 400.796 C 237.878 400.790,240.000 400.393,240.000 399.794 C 240.000 399.460,240.883 399.237,242.648 399.125 C 244.533 399.005,245.440 398.760,245.792 398.278 C 246.157 397.779,246.885 397.600,248.544 397.600 C 250.235 397.600,250.992 397.408,251.568 396.832 C 252.071 396.329,253.001 396.029,254.268 395.962 C 256.686 395.834,257.200 395.658,257.200 394.957 C 257.200 394.564,257.726 394.400,258.986 394.400 C 260.362 394.400,260.870 394.217,261.200 393.600 C 261.511 393.019,262.038 392.800,263.125 392.800 C 263.948 392.800,264.977 392.556,265.411 392.257 C 265.845 391.958,266.858 391.593,267.661 391.446 C 268.465 391.299,269.224 390.913,269.349 390.589 C 269.473 390.265,269.941 390.000,270.387 390.000 C 270.834 390.000,271.560 389.640,272.000 389.200 C 272.495 388.705,273.333 388.400,274.200 388.400 C 275.067 388.400,275.905 388.095,276.400 387.600 C 276.840 387.160,277.478 386.800,277.817 386.800 C 278.156 386.800,278.820 386.440,279.292 386.000 C 279.764 385.560,280.567 385.200,281.075 385.200 C 281.584 385.200,282.360 384.840,282.800 384.400 C 283.240 383.960,283.962 383.600,284.404 383.600 C 284.846 383.600,285.516 383.240,285.893 382.800 C 286.270 382.360,286.898 382.000,287.289 382.000 C 287.733 382.000,288.000 381.700,288.000 381.200 C 288.000 380.533,288.267 380.400,289.600 380.400 C 290.699 380.400,291.200 380.226,291.200 379.845 C 291.200 379.526,291.798 379.177,292.600 379.026 C 293.438 378.869,294.000 378.530,294.000 378.182 C 294.000 377.862,294.317 377.600,294.704 377.600 C 295.091 377.600,295.632 377.240,295.907 376.800 C 296.184 376.357,296.840 376.000,297.376 376.000 C 297.995 376.000,298.438 375.710,298.600 375.200 C 298.740 374.760,299.202 374.400,299.627 374.400 C 300.052 374.400,300.760 374.040,301.200 373.600 C 301.640 373.160,302.249 372.800,302.553 372.800 C 302.858 372.800,303.201 372.440,303.316 372.000 C 303.441 371.520,303.862 371.200,304.366 371.200 C 304.829 371.200,305.516 370.840,305.893 370.400 C 306.270 369.960,306.898 369.600,307.289 369.600 C 307.733 369.600,308.000 369.300,308.000 368.800 C 308.000 368.360,308.135 368.021,308.300 368.047 C 309.125 368.178,309.600 367.941,309.600 367.400 C 309.600 367.062,309.958 366.800,310.419 366.800 C 310.870 366.800,311.655 366.350,312.165 365.800 C 312.675 365.250,313.296 364.800,313.546 364.800 C 313.796 364.800,314.000 364.530,314.000 364.200 C 314.000 363.867,314.356 363.600,314.800 363.600 C 315.265 363.600,315.600 363.333,315.600 362.963 C 315.600 362.612,315.960 362.231,316.400 362.116 C 316.840 362.001,317.200 361.653,317.200 361.343 C 317.200 361.034,317.655 360.607,318.210 360.396 C 318.766 360.185,319.325 359.739,319.453 359.406 C 319.581 359.073,319.929 358.800,320.227 358.800 C 320.525 358.800,321.482 358.080,322.353 357.200 C 323.224 356.320,324.131 355.600,324.369 355.600 C 324.606 355.600,324.800 355.342,324.800 355.027 C 324.800 354.712,325.141 354.346,325.557 354.214 C 325.973 354.082,326.411 353.601,326.530 353.147 C 326.657 352.659,326.933 352.435,327.200 352.600 C 327.468 352.766,327.744 352.537,327.874 352.040 C 327.994 351.578,328.359 351.200,328.684 351.200 C 329.009 351.200,329.365 350.857,329.474 350.437 C 329.584 350.017,330.022 349.583,330.448 349.471 C 330.874 349.360,331.176 349.118,331.118 348.934 C 330.990 348.526,333.087 346.400,333.618 346.400 C 333.828 346.400,334.000 346.249,334.000 346.063 C 334.000 345.727,334.472 345.134,337.300 341.910 C 338.125 340.970,338.800 339.885,338.800 339.500 C 338.800 339.067,339.105 338.800,339.600 338.800 C 340.133 338.800,340.400 338.533,340.400 338.000 C 340.400 337.467,340.667 337.200,341.200 337.200 C 341.717 337.200,342.000 336.933,342.000 336.447 C 342.000 336.030,342.357 335.600,342.800 335.484 C 343.277 335.359,343.600 334.938,343.600 334.441 C 343.600 333.982,343.960 333.382,344.400 333.107 C 344.840 332.832,345.200 332.291,345.200 331.904 C 345.200 331.517,345.474 331.200,345.810 331.200 C 346.145 331.200,346.591 330.750,346.800 330.200 C 347.009 329.650,347.365 329.200,347.590 329.200 C 347.816 329.200,348.000 328.944,348.000 328.631 C 348.000 328.318,348.450 327.527,349.000 326.873 C 349.550 326.219,350.000 325.485,350.000 325.242 C 350.000 324.999,350.270 324.800,350.600 324.800 C 350.933 324.800,351.200 324.444,351.200 324.000 C 351.200 323.560,351.560 322.840,352.000 322.400 C 352.440 321.960,352.800 321.351,352.800 321.047 C 352.800 320.742,353.160 320.399,353.600 320.284 C 354.140 320.143,354.400 319.738,354.400 319.041 C 354.400 318.440,354.735 317.797,355.200 317.507 C 355.640 317.232,356.000 316.731,356.000 316.393 C 356.000 316.054,356.360 315.470,356.800 315.093 C 357.240 314.716,357.600 314.055,357.600 313.624 C 357.600 313.193,357.881 312.682,358.225 312.490 C 358.796 312.171,359.088 311.431,359.169 310.100 C 359.186 309.825,359.468 309.600,359.795 309.600 C 360.180 309.600,360.481 309.035,360.646 308.000 C 360.801 307.035,361.120 306.400,361.451 306.400 C 361.753 306.400,362.000 306.040,362.000 305.600 C 362.000 305.160,362.360 304.440,362.800 304.000 C 363.240 303.560,363.600 302.778,363.600 302.262 C 363.600 301.746,363.960 300.998,364.400 300.600 C 364.896 300.151,365.200 299.368,365.200 298.538 C 365.200 297.328,365.511 296.996,366.500 297.153 C 366.665 297.179,366.800 296.480,366.800 295.600 C 366.800 294.444,366.967 294.000,367.400 294.000 C 367.730 294.000,368.007 293.955,368.015 293.900 C 368.023 293.845,368.133 293.080,368.259 292.200 C 368.386 291.320,368.622 290.510,368.784 290.400 C 369.349 290.019,370.000 288.448,370.000 287.469 C 370.000 286.928,370.270 286.382,370.600 286.255 C 371.574 285.882,371.324 284.099,370.194 283.359 C 368.984 282.566,366.029 283.177,365.382 284.353 C 364.115 286.658,363.058 287.949,362.277 288.145 C 361.766 288.273,361.192 288.886,360.929 289.583 C 360.677 290.251,360.139 290.915,359.735 291.057 C 358.968 291.327,358.040 292.118,355.937 294.291 C 355.250 295.001,354.373 295.682,353.987 295.804 C 353.602 295.926,353.189 296.399,353.070 296.853 C 352.943 297.341,352.667 297.565,352.400 297.400 C 352.132 297.234,351.856 297.463,351.726 297.960 C 351.601 298.438,351.182 298.800,350.753 298.800 C 350.267 298.800,350.000 299.083,350.000 299.600 C 350.000 300.111,349.733 300.400,349.262 300.400 C 348.856 300.400,348.202 300.755,347.809 301.190 C 347.416 301.624,346.758 302.086,346.347 302.217 C 345.936 302.347,345.600 302.712,345.600 303.027 C 345.600 303.342,345.280 303.600,344.889 303.600 C 344.498 303.600,343.870 303.960,343.493 304.400 C 343.116 304.840,342.581 305.201,342.304 305.202 C 342.027 305.203,341.115 305.833,340.278 306.602 C 339.440 307.371,338.527 308.000,338.247 308.000 C 337.968 308.000,337.322 308.444,336.812 308.988 C 336.301 309.531,335.750 309.893,335.587 309.792 C 335.187 309.545,334.338 310.604,334.670 310.937 C 334.815 311.082,334.455 311.200,333.870 311.200 C 333.240 311.200,332.603 311.526,332.307 312.000 C 332.032 312.440,331.401 312.800,330.904 312.800 C 330.267 312.800,330.000 313.036,330.000 313.600 C 330.000 314.249,329.733 314.400,328.587 314.400 C 327.722 314.400,327.089 314.625,326.952 314.981 C 326.830 315.300,326.115 315.764,325.365 316.012 C 324.614 316.259,324.000 316.628,324.000 316.831 C 324.000 317.034,323.674 317.200,323.275 317.200 C 322.877 317.200,322.164 317.560,321.692 318.000 C 321.220 318.440,320.466 318.800,320.017 318.800 C 319.286 318.800,319.012 319.212,319.153 320.100 C 319.179 320.265,318.523 320.400,317.696 320.400 C 316.626 320.400,316.049 320.630,315.693 321.200 C 315.374 321.710,314.760 322.000,313.997 322.000 C 313.333 322.000,312.443 322.357,312.000 322.800 C 311.560 323.240,310.958 323.600,310.662 323.600 C 310.366 323.600,309.798 323.960,309.400 324.400 C 308.918 324.932,308.168 325.200,307.158 325.200 C 306.163 325.200,305.512 325.427,305.271 325.860 C 305.068 326.223,304.326 326.582,303.622 326.659 C 302.919 326.736,302.073 327.070,301.743 327.400 C 301.413 327.730,300.730 328.000,300.225 328.000 C 299.721 328.000,298.850 328.360,298.291 328.800 C 297.731 329.240,296.852 329.601,296.337 329.601 C 295.822 329.602,294.811 329.962,294.090 330.401 C 293.370 330.841,292.247 331.200,291.594 331.200 C 290.840 331.200,290.224 331.492,289.907 332.000 C 289.522 332.617,288.974 332.800,287.518 332.800 C 286.038 332.800,285.535 332.973,285.200 333.600 C 284.852 334.250,284.362 334.400,282.586 334.400 C 280.933 334.400,280.205 334.595,279.600 335.200 C 279.072 335.728,278.267 336.000,277.229 336.000 C 276.364 336.000,275.409 336.248,275.105 336.552 C 274.802 336.855,273.394 337.235,271.977 337.395 C 270.560 337.555,269.130 337.913,268.800 338.190 C 268.470 338.467,266.874 338.799,265.253 338.928 C 263.440 339.071,262.042 339.400,261.621 339.781 C 261.221 340.143,260.202 340.401,259.169 340.401 C 258.107 340.402,256.876 340.722,256.090 341.201 C 255.038 341.843,254.074 342.000,251.190 342.000 C 248.191 342.000,247.474 342.126,246.837 342.763 C 246.172 343.428,245.338 343.545,240.404 343.663 C 235.683 343.777,234.654 343.911,234.249 344.466 C 233.839 345.026,232.778 345.152,227.522 345.266 C 222.265 345.379,221.161 345.510,220.510 346.100 C 219.795 346.748,218.198 346.800,199.200 346.800 C 180.202 346.800,178.605 346.748,177.890 346.100 C 177.239 345.510,176.135 345.379,170.878 345.266 C 165.621 345.152,164.561 345.026,164.152 344.466 C 163.750 343.915,162.744 343.777,158.354 343.667 C 153.954 343.556,152.882 343.408,152.114 342.804 C 151.381 342.228,150.422 342.067,147.523 342.036 C 144.648 342.005,143.687 341.846,143.061 341.298 C 142.569 340.868,142.391 340.818,142.598 341.169 C 142.843 341.586,142.677 341.559,141.977 341.069 C 141.380 340.651,140.238 340.400,138.931 340.400 C 137.417 340.400,136.739 340.221,136.476 339.751 C 136.212 339.278,135.311 339.044,133.168 338.891 C 131.548 338.775,130.004 338.461,129.737 338.195 C 129.470 337.928,128.128 337.582,126.754 337.427 C 125.379 337.271,123.888 336.887,123.439 336.572 C 122.989 336.257,121.942 336.000,121.111 336.000 C 120.133 336.000,119.318 335.718,118.800 335.200 C 118.208 334.608,117.467 334.400,115.944 334.400 C 114.448 334.400,113.749 334.209,113.376 333.700 C 112.811 332.927,112.789 332.921,110.133 332.850 C 109.107 332.822,108.385 332.682,108.530 332.537 C 108.999 332.068,107.930 331.200,106.883 331.200 C 106.322 331.200,105.539 330.907,105.144 330.549 C 104.748 330.191,103.665 329.810,102.738 329.703 C 101.810 329.596,100.802 329.259,100.497 328.954 C 100.192 328.649,99.731 328.373,99.471 328.339 C 99.212 328.306,98.820 328.254,98.600 328.224 C 98.380 328.194,97.740 327.864,97.178 327.490 C 96.616 327.116,95.558 326.745,94.827 326.665 C 94.097 326.585,93.332 326.223,93.129 325.860 C 92.903 325.455,92.251 325.200,91.442 325.200 C 90.632 325.200,89.845 324.892,89.400 324.400 C 89.002 323.960,88.319 323.600,87.882 323.600 C 87.445 323.600,86.882 323.318,86.630 322.973 C 86.378 322.629,85.418 322.246,84.497 322.122 C 83.344 321.968,82.748 321.666,82.586 321.157 C 82.457 320.750,82.227 320.434,82.076 320.455 C 80.866 320.628,79.600 320.313,79.600 319.839 C 79.600 319.531,79.105 319.089,78.500 318.858 C 77.895 318.627,76.950 318.183,76.400 317.870 C 75.850 317.557,74.590 316.887,73.600 316.381 C 72.610 315.876,71.656 315.223,71.480 314.931 C 71.304 314.639,70.650 314.400,70.027 314.400 C 69.230 314.400,68.831 314.163,68.684 313.600 C 68.524 312.987,68.138 312.800,67.037 312.800 C 65.867 312.800,65.600 312.652,65.600 312.000 C 65.600 311.483,65.333 311.200,64.847 311.200 C 64.430 311.200,64.000 310.843,63.884 310.400 C 63.730 309.811,63.338 309.600,62.400 309.600 C 61.462 309.600,61.070 309.389,60.916 308.800 C 60.800 308.357,60.370 308.000,59.953 308.000 C 59.539 308.000,59.200 307.846,59.200 307.658 C 59.200 307.240,55.630 304.964,55.175 305.092 C 54.995 305.142,54.736 304.827,54.597 304.392 C 54.459 303.956,54.076 303.600,53.746 303.600 C 53.416 303.600,52.559 302.977,51.841 302.216 C 51.123 301.455,50.055 300.649,49.468 300.426 C 48.880 300.202,48.400 299.735,48.400 299.386 C 48.400 299.038,48.208 298.872,47.973 299.017 C 47.738 299.162,47.449 298.908,47.330 298.453 C 47.211 297.999,46.759 297.514,46.326 297.377 C 45.893 297.239,44.947 296.558,44.223 295.863 C 43.500 295.169,42.220 294.060,41.380 293.400 C 39.613 292.012,38.000 290.344,38.000 289.904 C 38.000 289.737,37.730 289.600,37.400 289.600 C 37.070 289.600,36.797 289.465,36.793 289.300 C 36.782 288.872,31.808 283.600,31.415 283.600 C 31.235 283.600,30.888 283.342,30.644 283.028 C 30.261 282.535,30.007 282.549,28.800 283.130 " stroke="none" fill="#f47424" fill-rule="evenodd"></path><path id="path1" d="M326.916 4.800 C 326.732 5.502,326.370 5.600,323.967 5.600 C 321.623 5.600,321.165 5.717,320.793 6.413 C 320.554 6.860,320.143 7.198,319.879 7.165 C 318.537 6.997,317.600 7.258,317.600 7.800 C 317.600 8.130,317.308 8.400,316.952 8.400 C 316.043 8.400,312.832 10.495,312.815 11.100 C 312.807 11.375,312.440 11.600,312.000 11.600 C 311.467 11.600,311.200 11.867,311.200 12.400 C 311.200 12.865,310.933 13.200,310.563 13.200 C 310.212 13.200,309.831 13.560,309.716 14.000 C 309.601 14.440,309.258 14.800,308.953 14.800 C 308.649 14.800,308.400 15.160,308.400 15.600 C 308.400 16.133,308.133 16.400,307.600 16.400 C 307.013 16.400,306.800 16.667,306.800 17.400 C 306.800 17.950,306.440 18.760,306.000 19.200 C 305.505 19.695,305.200 20.533,305.200 21.400 C 305.200 22.330,305.013 22.800,304.643 22.800 C 303.918 22.800,303.600 23.681,303.600 25.689 C 303.600 26.773,303.368 27.481,302.900 27.823 C 301.734 28.674,301.630 38.263,302.773 39.483 C 303.344 40.093,303.600 40.899,303.600 42.087 C 303.600 43.374,303.801 43.933,304.400 44.307 C 304.953 44.652,305.200 45.240,305.200 46.207 C 305.200 47.113,305.483 47.850,306.000 48.293 C 306.440 48.670,306.800 49.291,306.800 49.673 C 306.800 50.056,307.520 51.082,308.400 51.953 C 309.280 52.824,310.000 53.658,310.000 53.805 C 310.000 54.271,312.178 56.400,312.656 56.400 C 312.908 56.400,313.212 56.653,313.330 56.962 C 313.449 57.272,314.098 57.646,314.773 57.794 C 315.448 57.942,316.000 58.316,316.000 58.624 C 316.000 58.932,316.443 59.296,316.984 59.432 C 317.525 59.567,318.177 59.931,318.433 60.239 C 318.699 60.560,319.628 60.800,320.602 60.800 C 321.970 60.800,322.348 60.958,322.516 61.600 C 322.775 62.590,339.336 62.868,340.379 61.900 C 340.799 61.510,340.856 61.509,340.638 61.895 C 340.448 62.232,340.565 62.312,341.002 62.144 C 341.356 62.008,341.551 61.650,341.436 61.348 C 341.275 60.929,341.693 60.800,343.213 60.800 C 344.713 60.800,345.200 60.653,345.200 60.200 C 345.200 59.659,345.675 59.422,346.500 59.553 C 346.665 59.579,346.800 59.420,346.800 59.200 C 346.800 58.980,347.025 58.845,347.300 58.900 C 347.575 58.955,347.755 58.775,347.700 58.500 C 347.641 58.203,348.021 58.000,348.637 58.000 C 349.338 58.000,349.743 57.741,349.884 57.200 C 349.999 56.760,350.342 56.400,350.647 56.400 C 351.495 56.400,354.400 53.304,354.400 52.400 C 354.400 51.867,354.667 51.600,355.200 51.600 C 355.644 51.600,356.000 51.333,356.000 51.000 C 356.000 50.670,356.360 50.040,356.800 49.600 C 357.240 49.160,357.600 48.483,357.600 48.096 C 357.600 47.709,357.932 47.185,358.338 46.931 C 358.787 46.651,359.090 45.972,359.112 45.198 C 359.133 44.464,359.456 43.701,359.874 43.395 C 360.940 42.616,360.992 25.022,359.931 24.247 C 359.563 23.978,359.175 23.137,359.068 22.379 C 358.961 21.620,358.834 20.955,358.787 20.900 C 358.739 20.845,358.678 20.613,358.650 20.385 C 358.623 20.157,358.389 19.841,358.132 19.682 C 357.875 19.523,357.605 19.124,357.532 18.796 C 357.459 18.468,357.085 17.965,356.700 17.677 C 356.315 17.390,356.000 16.815,356.000 16.400 C 356.000 15.985,355.673 15.410,355.274 15.123 C 354.874 14.835,354.430 14.285,354.286 13.900 C 354.143 13.515,353.762 13.200,353.440 13.200 C 353.117 13.200,352.740 12.840,352.600 12.400 C 352.460 11.960,352.088 11.600,351.773 11.600 C 351.458 11.600,351.200 11.333,351.200 11.008 C 351.200 10.682,350.763 10.306,350.229 10.172 C 349.696 10.038,348.948 9.584,348.567 9.164 C 348.187 8.744,347.699 8.400,347.482 8.400 C 347.265 8.400,346.888 8.132,346.644 7.804 C 346.400 7.476,345.592 7.143,344.849 7.063 C 344.106 6.984,343.332 6.623,343.129 6.260 C 342.848 5.757,342.168 5.600,340.276 5.600 C 338.226 5.600,337.705 5.460,337.293 4.800 C 336.527 3.573,327.237 3.573,326.916 4.800 M31.907 48.000 C 31.510 48.635,30.974 48.800,29.304 48.800 C 27.772 48.800,27.200 48.952,27.200 49.357 C 27.200 49.966,26.360 50.400,25.181 50.400 C 24.767 50.400,24.235 50.760,24.000 51.200 C 23.765 51.640,23.308 52.000,22.986 52.000 C 22.664 52.000,22.400 52.270,22.400 52.600 C 22.400 52.930,22.113 53.200,21.763 53.200 C 21.412 53.200,21.031 53.560,20.916 54.000 C 20.801 54.440,20.453 54.800,20.143 54.800 C 19.834 54.800,19.409 55.250,19.200 55.800 C 18.991 56.350,18.635 56.800,18.410 56.800 C 18.184 56.800,18.000 57.145,18.000 57.567 C 18.000 58.759,17.569 59.600,16.957 59.600 C 16.563 59.600,16.400 60.128,16.400 61.400 C 16.400 62.667,16.163 63.437,15.600 64.000 C 14.397 65.203,14.397 73.263,15.600 74.293 C 16.183 74.792,16.400 75.473,16.400 76.800 C 16.400 78.127,16.617 78.808,17.200 79.307 C 17.640 79.684,18.000 80.236,18.000 80.534 C 18.000 80.832,18.360 81.402,18.800 81.800 C 19.240 82.198,19.600 82.772,19.600 83.075 C 19.600 83.377,19.870 83.729,20.200 83.855 C 20.530 83.982,20.800 84.341,20.800 84.653 C 20.800 84.965,21.225 85.382,21.745 85.579 C 22.265 85.777,22.800 86.223,22.933 86.569 C 23.077 86.944,23.648 87.200,24.341 87.200 C 25.170 87.200,25.567 87.431,25.716 88.000 C 25.831 88.440,26.212 88.800,26.563 88.800 C 26.913 88.800,27.560 89.160,28.000 89.600 C 28.625 90.225,29.346 90.403,31.300 90.414 C 32.708 90.422,34.237 90.678,34.800 91.000 C 36.116 91.752,38.176 91.752,38.800 91.000 C 39.159 90.568,40.107 90.400,42.187 90.400 C 44.523 90.400,45.208 90.254,45.767 89.636 C 46.148 89.216,46.896 88.762,47.429 88.628 C 47.963 88.494,48.400 88.118,48.400 87.792 C 48.400 87.467,48.760 87.200,49.200 87.200 C 49.640 87.200,50.360 86.840,50.800 86.400 C 51.240 85.960,51.784 85.600,52.009 85.600 C 52.233 85.600,52.636 85.105,52.904 84.500 C 53.502 83.148,54.222 82.355,54.552 82.686 C 54.689 82.822,54.800 82.555,54.800 82.094 C 54.800 81.605,55.135 81.148,55.600 81.000 C 56.180 80.816,56.400 80.395,56.400 79.469 C 56.400 78.659,56.671 78.023,57.141 77.730 C 57.731 77.361,57.897 76.709,57.957 74.540 C 58.010 72.627,58.206 71.716,58.616 71.487 C 59.409 71.043,59.407 67.292,58.613 66.414 C 58.261 66.026,57.995 64.823,57.949 63.419 C 57.895 61.749,57.660 60.860,57.136 60.336 C 56.731 59.931,56.400 59.240,56.400 58.800 C 56.400 58.360,56.040 57.640,55.600 57.200 C 55.160 56.760,54.800 56.113,54.800 55.763 C 54.800 55.412,54.440 55.031,54.000 54.916 C 53.560 54.801,53.200 54.470,53.200 54.180 C 53.200 53.891,52.840 53.540,52.400 53.400 C 51.960 53.260,51.600 52.888,51.600 52.573 C 51.600 52.258,51.336 52.000,51.014 52.000 C 50.692 52.000,50.235 51.640,50.000 51.200 C 49.723 50.683,49.162 50.400,48.413 50.400 C 47.605 50.400,47.177 50.158,47.000 49.600 C 46.789 48.935,46.395 48.800,44.662 48.800 C 43.073 48.800,42.415 48.610,41.893 48.000 C 41.285 47.290,40.713 47.200,36.807 47.200 C 32.840 47.200,32.358 47.279,31.907 48.000 M268.100 175.673 C 267.605 175.920,267.200 176.275,267.200 176.461 C 267.200 176.648,265.955 176.800,264.433 176.800 C 261.312 176.800,260.400 177.036,260.400 177.843 C 260.400 178.149,260.114 178.400,259.764 178.400 C 258.028 178.400,257.627 179.873,257.613 186.300 L 257.600 192.400 253.616 192.400 C 248.146 192.400,248.000 192.563,248.000 198.647 C 248.000 204.439,247.965 204.400,253.217 204.400 L 257.177 204.400 257.288 222.632 C 257.391 239.459,257.454 240.904,258.100 241.377 C 258.623 241.759,258.800 242.457,258.800 244.144 C 258.800 245.867,258.989 246.589,259.600 247.200 C 260.040 247.640,260.400 248.440,260.400 248.977 C 260.400 249.515,260.727 250.190,261.126 250.477 C 261.526 250.765,261.970 251.315,262.114 251.700 C 262.257 252.085,262.651 252.400,262.987 252.400 C 263.324 252.400,263.600 252.650,263.600 252.957 C 263.600 253.263,264.087 253.635,264.682 253.785 C 265.277 253.934,266.007 254.404,266.305 254.828 C 266.668 255.346,267.316 255.600,268.279 255.600 C 269.116 255.600,269.902 255.860,270.168 256.224 C 271.105 257.505,281.284 257.459,282.575 256.168 C 282.887 255.855,283.876 255.600,284.771 255.600 C 285.952 255.600,286.400 255.435,286.400 255.000 C 286.400 254.670,286.756 254.044,287.192 253.608 C 288.071 252.729,287.946 250.560,286.970 249.770 C 286.637 249.500,286.393 248.230,286.319 246.370 L 286.200 243.400 280.915 243.315 C 275.404 243.226,274.000 242.761,274.000 241.027 C 274.000 240.712,273.640 240.340,273.200 240.200 C 272.416 239.951,272.400 239.595,272.400 222.182 L 272.400 204.417 280.100 204.309 L 287.800 204.200 287.912 199.096 C 288.070 191.885,288.695 192.400,279.786 192.400 L 272.400 192.400 272.400 184.449 C 272.400 178.276,272.280 176.398,271.862 176.051 C 271.037 175.367,269.102 175.172,268.100 175.673 M147.400 191.600 C 146.853 192.204,146.168 192.400,144.599 192.400 C 143.097 192.400,142.267 192.621,141.600 193.200 C 141.093 193.640,140.264 194.000,139.759 194.000 C 139.253 194.000,138.696 194.239,138.520 194.530 C 138.344 194.822,137.885 195.176,137.500 195.318 C 137.115 195.459,136.800 195.851,136.800 196.187 C 136.800 196.524,136.480 196.800,136.088 196.800 C 135.697 196.800,135.117 197.160,134.800 197.600 C 133.895 198.856,133.705 198.584,133.526 195.773 C 133.311 192.397,133.346 192.413,126.509 192.406 C 120.968 192.400,120.802 192.425,120.200 193.344 C 119.651 194.182,119.594 198.938,119.691 236.098 L 119.800 277.909 120.945 279.055 L 122.091 280.200 127.881 280.200 C 135.907 280.200,135.200 281.650,135.200 265.193 L 135.200 252.075 136.063 252.301 C 136.538 252.425,137.258 252.858,137.663 253.263 C 138.068 253.668,138.670 254.000,139.000 254.000 C 139.330 254.000,139.960 254.360,140.400 254.800 C 140.907 255.307,141.733 255.600,142.656 255.600 C 143.561 255.600,144.299 255.856,144.606 256.276 C 145.616 257.657,158.000 257.387,158.000 255.985 C 158.000 255.773,158.795 255.600,159.767 255.600 C 161.914 255.600,162.800 255.296,162.800 254.557 C 162.800 254.235,163.207 254.000,163.767 254.000 C 165.148 254.000,166.000 253.602,166.000 252.957 C 166.000 252.651,166.360 252.400,166.800 252.400 C 167.240 252.400,167.929 252.071,168.331 251.669 C 168.732 251.268,169.362 250.823,169.731 250.682 C 170.099 250.541,170.400 250.149,170.400 249.813 C 170.400 249.476,170.594 249.200,170.831 249.200 C 171.678 249.200,173.600 246.862,173.600 245.831 C 173.600 245.067,173.807 244.800,174.400 244.800 C 174.987 244.800,175.200 244.533,175.200 243.800 C 175.200 243.212,175.430 242.800,175.757 242.800 C 176.329 242.800,176.800 241.973,176.800 240.967 C 176.800 240.655,177.160 240.040,177.600 239.600 C 178.165 239.035,178.400 238.267,178.400 236.983 C 178.400 235.719,178.643 234.905,179.200 234.308 C 180.608 232.796,180.382 212.400,178.957 212.400 C 178.550 212.400,178.400 211.823,178.400 210.262 C 178.400 208.632,178.210 207.952,177.600 207.400 C 177.160 207.002,176.800 206.254,176.800 205.738 C 176.800 205.067,176.573 204.800,176.000 204.800 C 175.378 204.800,175.200 204.533,175.200 203.603 C 175.200 202.840,174.910 202.226,174.400 201.907 C 173.960 201.632,173.600 201.091,173.600 200.704 C 173.600 200.317,173.330 200.000,173.000 200.000 C 172.670 200.000,172.400 199.724,172.400 199.387 C 172.400 199.051,172.112 198.664,171.760 198.529 C 171.039 198.252,169.208 196.513,169.184 196.082 C 169.168 195.779,165.622 193.982,165.063 193.993 C 164.878 193.997,164.269 193.640,163.709 193.200 C 162.955 192.607,162.086 192.400,160.346 192.400 C 158.607 192.400,158.000 192.256,158.000 191.843 C 158.000 190.455,148.630 190.241,147.400 191.600 M320.800 191.600 C 320.125 192.275,319.467 192.400,316.587 192.400 C 314.003 192.400,313.122 192.538,312.956 192.970 C 312.836 193.284,312.028 193.660,311.161 193.807 C 310.294 193.953,309.331 194.327,309.021 194.636 C 308.711 194.946,308.157 195.200,307.791 195.200 C 307.425 195.200,307.031 195.560,306.916 196.000 C 306.801 196.440,306.466 196.800,306.172 196.800 C 305.877 196.800,305.186 197.250,304.636 197.800 C 304.086 198.350,303.376 198.800,303.057 198.800 C 302.739 198.800,302.289 199.342,302.058 200.005 C 301.827 200.668,301.359 201.317,301.019 201.448 C 300.679 201.579,300.400 202.026,300.400 202.443 C 300.400 202.859,300.124 203.200,299.787 203.200 C 299.451 203.200,299.060 203.515,298.919 203.900 C 298.779 204.285,298.334 205.029,297.932 205.554 C 297.529 206.079,297.200 206.766,297.200 207.083 C 297.200 207.399,296.952 207.905,296.648 208.209 C 296.345 208.512,295.976 209.563,295.829 210.545 C 295.681 211.533,295.302 212.429,294.981 212.552 C 294.544 212.720,294.400 213.525,294.400 215.804 C 294.400 218.243,294.238 219.051,293.569 219.957 C 292.430 221.496,292.533 231.804,293.700 233.091 C 294.194 233.635,294.400 234.532,294.400 236.131 C 294.400 237.873,294.538 238.400,294.995 238.400 C 295.380 238.400,295.681 238.965,295.846 240.000 C 295.988 240.885,296.327 241.600,296.607 241.600 C 296.884 241.600,297.231 242.239,297.378 243.021 C 297.524 243.803,297.886 244.535,298.183 244.649 C 298.479 244.762,298.812 245.203,298.923 245.628 C 299.034 246.052,299.391 246.400,299.716 246.400 C 300.041 246.400,300.401 246.760,300.516 247.200 C 300.631 247.640,301.012 248.000,301.363 248.000 C 301.713 248.000,302.000 248.270,302.000 248.600 C 302.000 248.933,302.356 249.200,302.800 249.200 C 303.333 249.200,303.600 249.467,303.600 250.000 C 303.600 250.517,303.867 250.800,304.353 250.800 C 304.770 250.800,305.200 251.157,305.316 251.600 C 305.431 252.040,305.819 252.400,306.179 252.400 C 306.539 252.400,307.220 252.760,307.692 253.200 C 308.164 253.640,308.884 254.000,309.292 254.000 C 309.700 254.000,310.420 254.360,310.892 254.800 C 311.439 255.310,312.304 255.600,313.275 255.600 C 314.114 255.600,314.800 255.772,314.800 255.981 C 314.800 257.646,334.972 257.685,335.526 256.021 C 335.605 255.785,336.793 255.600,338.237 255.600 C 340.313 255.600,340.940 255.446,341.493 254.800 C 341.904 254.320,342.673 254.000,343.414 254.000 C 344.923 254.000,346.803 252.209,346.795 250.778 C 346.786 249.220,346.349 248.000,345.800 248.000 C 345.459 248.000,345.238 247.134,345.125 245.352 C 344.893 241.721,340.889 239.871,338.640 242.356 C 338.126 242.924,337.253 243.152,335.141 243.271 C 333.014 243.391,332.233 243.597,331.944 244.115 C 331.323 245.224,322.457 245.126,321.493 244.000 C 320.996 243.420,320.313 243.200,319.004 243.200 C 317.697 243.200,317.200 243.041,317.200 242.622 C 317.200 242.064,316.179 241.349,313.924 240.329 C 313.332 240.061,312.740 239.415,312.609 238.893 C 312.478 238.371,311.747 237.321,310.985 236.559 C 310.008 235.582,309.600 234.812,309.600 233.949 C 309.600 233.062,309.380 232.668,308.800 232.516 C 308.114 232.337,308.000 231.970,308.000 229.953 L 308.000 227.600 328.782 227.600 L 349.564 227.600 349.837 226.146 C 350.301 223.671,349.766 216.311,349.086 215.813 C 348.669 215.508,348.448 214.393,348.342 212.054 C 348.225 209.477,348.034 208.614,347.495 208.220 C 347.071 207.910,346.800 207.182,346.800 206.352 C 346.800 205.426,346.545 204.833,346.000 204.493 C 345.560 204.218,345.200 203.636,345.200 203.200 C 345.200 202.764,344.840 202.182,344.400 201.907 C 343.960 201.632,343.600 201.194,343.600 200.932 C 343.600 200.203,340.181 196.800,339.448 196.800 C 339.092 196.800,338.800 196.513,338.800 196.163 C 338.800 195.812,338.440 195.431,338.000 195.316 C 337.560 195.201,337.200 194.858,337.200 194.553 C 337.200 194.211,336.763 194.000,336.054 194.000 C 335.424 194.000,334.450 193.640,333.891 193.200 C 333.074 192.558,332.268 192.400,329.800 192.400 C 327.332 192.400,326.526 192.242,325.709 191.600 C 325.091 191.113,324.086 190.800,323.146 190.800 C 322.133 190.800,321.324 191.076,320.800 191.600 M385.916 191.586 C 385.557 192.160,384.983 192.400,383.965 192.400 C 383.097 192.400,382.155 192.718,381.600 193.200 C 381.093 193.640,380.435 194.000,380.139 194.000 C 379.842 194.000,378.880 194.720,378.000 195.600 C 376.048 197.552,375.600 197.598,375.600 195.849 C 375.600 195.106,375.330 194.274,375.000 194.000 C 374.670 193.726,374.400 193.254,374.400 192.951 C 374.400 192.508,373.246 192.400,368.500 192.403 L 362.600 192.405 361.900 193.635 C 361.119 195.008,360.995 196.226,361.600 196.600 C 361.844 196.751,362.000 199.863,362.000 204.600 C 362.000 209.337,361.844 212.449,361.600 212.600 C 360.796 213.097,361.082 252.928,361.900 254.365 L 362.600 255.595 368.667 255.597 C 372.004 255.599,375.019 255.491,375.367 255.357 C 375.932 255.141,376.000 253.108,376.000 236.540 C 376.000 218.519,376.024 217.941,376.800 217.108 C 377.364 216.502,377.600 215.696,377.600 214.371 C 377.600 212.830,377.743 212.456,378.400 212.284 C 378.879 212.159,379.200 211.738,379.200 211.237 C 379.200 210.760,379.458 210.400,379.800 210.400 C 380.130 210.400,380.400 210.142,380.400 209.827 C 380.400 209.512,380.760 209.140,381.200 209.000 C 381.640 208.860,382.000 208.488,382.000 208.173 C 382.000 207.858,382.287 207.600,382.637 207.600 C 382.988 207.600,383.369 207.240,383.484 206.800 C 383.660 206.129,384.030 206.000,385.785 206.000 C 387.368 206.000,388.052 205.806,388.600 205.200 C 389.180 204.560,389.832 204.400,391.872 204.400 L 394.419 204.400 394.310 197.700 L 394.200 191.000 390.312 190.886 C 386.768 190.781,386.380 190.843,385.916 191.586 M19.467 192.667 C 19.320 192.813,19.200 206.007,19.200 221.987 C 19.200 244.696,19.091 251.149,18.700 251.540 C 18.405 251.835,18.103 253.671,17.963 256.019 C 17.791 258.908,17.545 260.198,17.063 260.730 C 16.698 261.133,16.400 261.793,16.400 262.196 C 16.400 262.901,14.202 265.200,13.528 265.200 C 13.348 265.200,13.200 265.470,13.200 265.800 C 13.200 266.198,12.802 266.400,12.014 266.400 C 11.238 266.400,10.680 266.676,10.400 267.200 C 10.046 267.861,9.562 268.000,7.619 268.000 C 4.903 268.000,4.000 268.260,4.000 269.043 C 4.000 269.349,3.751 269.600,3.447 269.600 C 2.330 269.600,2.336 273.047,3.453 273.476 C 3.852 273.629,4.000 274.540,4.000 276.835 C 4.000 280.604,3.915 280.553,9.816 280.339 C 12.914 280.227,13.765 280.063,14.177 279.500 C 14.458 279.115,15.141 278.800,15.694 278.800 C 17.548 278.800,19.200 278.305,19.200 277.750 C 19.200 277.385,19.684 277.200,20.637 277.200 C 21.738 277.200,22.124 277.013,22.284 276.400 C 22.400 275.957,22.830 275.600,23.247 275.600 C 23.733 275.600,24.000 275.317,24.000 274.800 C 24.000 274.218,24.267 274.000,24.977 274.000 C 26.028 274.000,27.200 272.688,27.200 271.511 C 27.200 271.120,27.470 270.800,27.800 270.800 C 28.130 270.800,28.400 270.461,28.400 270.047 C 28.400 269.630,28.757 269.200,29.200 269.084 C 29.766 268.936,30.000 268.538,30.000 267.726 C 30.000 267.073,30.345 266.283,30.800 265.893 C 31.368 265.406,31.600 264.713,31.600 263.500 C 31.600 262.226,31.803 261.666,32.400 261.293 C 33.078 260.869,33.202 260.352,33.213 257.897 C 33.221 255.986,33.425 254.736,33.813 254.224 C 34.605 253.176,34.596 249.461,33.800 248.800 C 33.277 248.366,33.200 244.708,33.200 220.351 L 33.200 192.400 26.467 192.400 C 22.763 192.400,19.613 192.520,19.467 192.667 M50.175 195.090 C 49.604 200.413,50.230 239.487,50.897 240.154 C 51.223 240.480,51.608 241.640,51.753 242.731 C 51.898 243.823,52.283 244.937,52.608 245.207 C 52.934 245.477,53.200 246.010,53.200 246.391 C 53.200 247.020,53.628 247.605,56.026 250.256 C 56.451 250.727,56.800 251.300,56.800 251.529 C 56.800 251.759,57.136 252.053,57.547 252.183 C 57.958 252.314,58.616 252.776,59.009 253.210 C 59.402 253.645,59.966 254.000,60.262 254.000 C 60.558 254.000,61.160 254.360,61.600 254.800 C 62.130 255.330,62.933 255.600,63.980 255.600 C 65.048 255.600,65.683 255.819,65.939 256.277 C 66.714 257.662,79.200 257.387,79.200 255.985 C 79.200 255.773,79.918 255.600,80.797 255.600 C 81.960 255.600,82.529 255.383,82.893 254.800 C 83.196 254.314,83.826 254.000,84.496 254.000 C 85.333 254.000,85.600 253.807,85.600 253.200 C 85.600 252.581,85.867 252.400,86.777 252.400 C 87.456 252.400,88.176 252.093,88.477 251.674 C 89.704 249.969,90.400 250.280,90.400 252.533 C 90.400 253.692,90.616 254.856,90.880 255.120 C 91.467 255.707,102.688 255.785,103.600 255.208 C 104.464 254.663,104.513 194.103,103.651 193.062 C 103.180 192.494,102.146 192.400,96.341 192.400 L 89.580 192.400 89.190 193.426 C 88.956 194.042,88.800 202.289,88.800 214.063 C 88.800 233.068,88.775 233.705,88.000 234.691 C 87.560 235.250,87.200 236.024,87.200 236.411 C 87.200 236.798,86.947 237.212,86.638 237.330 C 86.328 237.449,85.957 238.086,85.812 238.747 C 85.614 239.647,85.262 240.011,84.407 240.198 C 83.780 240.336,83.167 240.708,83.046 241.024 C 82.924 241.341,82.487 241.600,82.075 241.600 C 81.662 241.600,80.998 241.960,80.600 242.400 C 79.673 243.424,71.850 243.628,71.470 242.638 C 71.351 242.328,70.702 241.954,70.027 241.806 C 69.317 241.650,68.800 241.281,68.800 240.931 C 68.800 240.598,68.457 240.235,68.038 240.126 C 67.552 239.999,67.182 239.432,67.019 238.563 C 66.868 237.754,66.527 237.200,66.182 237.200 C 65.739 237.200,65.600 236.640,65.600 234.854 C 65.600 233.117,65.393 232.245,64.804 231.496 C 64.038 230.522,64.004 229.763,63.904 211.542 L 63.800 192.600 57.133 192.490 L 50.466 192.381 50.175 195.090 M184.562 193.409 C 184.181 194.929,184.770 199.503,185.378 199.736 C 185.665 199.846,186.017 200.563,186.160 201.329 C 186.304 202.096,186.662 202.815,186.955 202.927 C 187.248 203.040,187.584 203.985,187.702 205.026 C 187.831 206.174,188.168 207.062,188.558 207.280 C 188.920 207.483,189.200 208.152,189.200 208.816 C 189.200 209.560,189.495 210.177,190.000 210.493 C 190.518 210.816,190.800 211.426,190.800 212.221 C 190.800 212.896,191.160 213.836,191.600 214.308 C 192.096 214.840,192.400 215.719,192.400 216.621 C 192.400 217.738,192.585 218.123,193.200 218.284 C 193.809 218.443,194.000 218.830,194.000 219.903 C 194.000 220.733,194.263 221.504,194.641 221.780 C 195.000 222.043,195.374 223.073,195.493 224.124 C 195.618 225.236,195.906 226.000,196.200 226.000 C 196.494 226.000,196.782 226.764,196.907 227.876 C 197.024 228.907,197.379 229.942,197.697 230.176 C 198.015 230.409,198.401 231.275,198.556 232.100 C 198.727 233.017,199.062 233.600,199.418 233.600 C 199.830 233.600,200.000 234.067,200.000 235.200 C 200.000 236.267,200.267 237.067,200.800 237.600 C 201.243 238.043,201.600 238.933,201.600 239.597 C 201.600 240.360,201.890 240.974,202.400 241.293 C 202.942 241.631,203.200 242.226,203.200 243.134 C 203.200 244.138,203.401 244.527,204.000 244.684 C 204.663 244.858,204.800 245.230,204.800 246.859 C 204.800 248.222,204.981 248.895,205.389 249.051 C 206.441 249.455,206.592 251.830,205.642 253.038 C 205.179 253.626,204.800 254.444,204.800 254.854 C 204.800 255.264,204.440 255.960,204.000 256.400 C 203.560 256.840,203.200 257.560,203.200 258.000 C 203.200 258.533,202.933 258.800,202.400 258.800 C 201.867 258.800,201.600 259.067,201.600 259.600 C 201.600 260.040,201.342 260.400,201.027 260.400 C 200.712 260.400,200.340 260.760,200.200 261.200 C 200.060 261.640,199.688 262.000,199.373 262.000 C 199.058 262.000,198.800 262.270,198.800 262.600 C 198.800 262.930,198.606 263.200,198.369 263.200 C 197.809 263.200,195.600 265.409,195.600 265.969 C 195.600 266.206,195.062 266.400,194.403 266.400 C 193.640 266.400,193.026 266.690,192.707 267.200 C 192.432 267.640,191.891 268.000,191.504 268.000 C 191.117 268.000,190.440 268.360,190.000 268.800 C 189.560 269.240,188.840 269.600,188.400 269.600 C 187.279 269.600,187.184 275.927,188.288 277.031 C 188.667 277.410,189.072 278.547,189.188 279.560 L 189.400 281.400 192.779 281.517 C 196.318 281.640,200.000 280.513,200.000 279.306 C 200.000 279.028,200.452 278.800,201.004 278.800 C 201.556 278.800,202.316 278.440,202.693 278.000 C 203.070 277.560,203.556 277.200,203.775 277.200 C 203.993 277.200,204.538 276.849,204.986 276.419 C 209.626 271.967,210.800 270.721,210.800 270.247 C 210.800 269.942,211.160 269.599,211.600 269.484 C 212.060 269.364,212.400 268.938,212.400 268.484 C 212.400 268.030,212.740 267.604,213.200 267.484 C 213.640 267.369,214.000 266.981,214.000 266.621 C 214.000 266.261,214.360 265.580,214.800 265.108 C 215.240 264.636,215.600 263.942,215.600 263.567 C 215.600 263.192,215.870 262.782,216.200 262.655 C 216.535 262.527,216.800 261.932,216.800 261.309 C 216.800 260.626,217.110 259.999,217.600 259.693 C 218.099 259.381,218.400 258.760,218.400 258.043 C 218.400 257.230,218.634 256.832,219.200 256.684 C 219.804 256.526,220.000 256.138,220.000 255.099 C 220.000 254.232,220.295 253.457,220.800 253.000 C 221.327 252.523,221.600 251.768,221.600 250.785 C 221.600 249.630,221.780 249.246,222.400 249.084 C 222.964 248.937,223.200 248.538,223.200 247.734 C 223.200 247.026,223.504 246.403,224.000 246.093 C 224.508 245.776,224.800 245.160,224.800 244.406 C 224.800 243.753,225.159 242.630,225.599 241.910 C 226.038 241.189,226.398 240.105,226.399 239.500 C 226.399 238.790,226.612 238.400,227.000 238.400 C 227.427 238.400,227.600 237.965,227.600 236.889 C 227.600 235.873,227.862 235.153,228.400 234.693 C 228.937 234.233,229.200 233.513,229.200 232.500 C 229.200 231.426,229.430 230.849,230.000 230.493 C 230.514 230.172,230.800 229.560,230.800 228.780 C 230.800 228.113,231.160 227.180,231.600 226.708 C 232.066 226.208,232.400 225.296,232.400 224.525 C 232.400 223.733,232.722 222.878,233.200 222.400 C 233.695 221.905,234.000 221.067,234.000 220.200 C 234.000 219.333,234.305 218.495,234.800 218.000 C 235.240 217.560,235.600 216.809,235.600 216.331 C 235.600 215.854,235.885 215.148,236.234 214.763 C 236.583 214.377,236.972 213.283,237.098 212.331 C 237.225 211.379,237.588 210.409,237.905 210.176 C 238.222 209.942,238.576 208.907,238.693 207.876 C 238.830 206.657,239.096 206.000,239.452 206.000 C 239.825 206.000,240.000 205.488,240.000 204.400 C 240.000 203.299,240.174 202.800,240.557 202.800 C 241.267 202.800,241.600 201.925,241.600 200.064 C 241.600 199.014,241.835 198.446,242.419 198.081 C 243.125 197.640,243.221 197.229,243.119 195.085 L 243.000 192.600 236.138 192.491 C 228.667 192.372,228.000 192.547,228.000 194.629 C 228.000 195.163,227.640 195.960,227.200 196.400 C 226.645 196.955,226.400 197.733,226.400 198.938 C 226.400 200.168,226.166 200.888,225.600 201.400 C 225.011 201.933,224.800 202.632,224.800 204.048 C 224.800 205.562,224.630 206.063,224.000 206.400 C 223.468 206.685,223.200 207.238,223.200 208.051 C 223.200 208.724,222.840 209.731,222.400 210.291 C 221.906 210.919,221.600 211.914,221.600 212.891 C 221.600 213.868,221.294 214.863,220.800 215.491 C 220.360 216.050,220.000 216.929,220.000 217.444 C 220.000 217.959,219.641 218.970,219.201 219.690 C 218.762 220.411,218.402 221.566,218.401 222.257 C 218.401 223.005,218.157 223.608,217.800 223.745 C 217.380 223.906,217.200 224.561,217.200 225.925 C 217.200 227.368,216.992 228.065,216.400 228.600 C 215.872 229.078,215.600 229.832,215.600 230.819 C 215.600 231.814,215.388 232.396,214.967 232.557 C 214.036 232.915,214.000 232.888,214.000 231.833 C 214.000 230.452,213.602 229.600,212.957 229.600 C 212.563 229.600,212.400 229.072,212.400 227.800 C 212.400 226.533,212.163 225.763,211.600 225.200 C 211.160 224.760,210.800 223.888,210.800 223.262 C 210.800 222.632,210.443 221.801,210.000 221.400 C 209.467 220.917,209.200 220.168,209.200 219.152 C 209.200 218.038,208.985 217.513,208.400 217.200 C 207.762 216.858,207.600 216.362,207.600 214.748 C 207.600 213.062,207.467 212.690,206.800 212.516 C 206.206 212.361,206.000 211.970,206.000 211.002 C 206.000 210.285,205.730 209.474,205.400 209.200 C 205.070 208.926,204.798 208.229,204.795 207.651 C 204.786 205.984,204.354 204.800,203.753 204.800 C 203.411 204.800,203.200 204.362,203.200 203.650 C 203.200 201.663,202.721 200.000,202.150 200.000 C 201.794 200.000,201.600 199.533,201.600 198.675 C 201.600 197.904,201.266 196.992,200.800 196.492 C 200.360 196.020,200.000 195.122,200.000 194.497 C 200.000 192.502,199.608 192.400,191.928 192.400 L 184.815 192.400 184.562 193.409 M328.018 203.817 C 328.373 204.137,328.860 204.400,329.100 204.400 C 329.734 204.400,332.690 207.424,332.995 208.384 C 333.137 208.833,333.512 209.200,333.827 209.200 C 334.166 209.200,334.400 209.594,334.400 210.167 C 334.400 211.548,334.798 212.400,335.443 212.400 C 335.826 212.400,336.000 212.899,336.000 214.000 L 336.000 215.600 322.000 215.600 L 308.000 215.600 308.000 214.647 C 308.000 214.030,308.282 213.619,308.800 213.484 C 309.413 213.324,309.600 212.938,309.600 211.837 C 309.600 210.826,309.778 210.400,310.200 210.400 C 310.530 210.400,310.800 210.246,310.800 210.058 C 310.800 209.871,311.250 209.231,311.800 208.638 C 312.350 208.044,312.800 207.208,312.800 206.779 C 312.800 206.215,313.075 206.000,313.797 206.000 C 314.360 206.000,315.010 205.652,315.293 205.200 C 315.568 204.760,316.109 204.400,316.496 204.400 C 316.883 204.400,317.200 204.140,317.200 203.822 C 317.200 202.684,326.761 202.679,328.018 203.817 M151.376 203.813 C 151.804 204.136,152.839 204.400,153.676 204.400 C 154.667 204.400,155.480 204.680,156.000 205.200 C 156.440 205.640,157.139 206.000,157.553 206.000 C 157.970 206.000,158.400 206.357,158.516 206.800 C 158.631 207.240,158.991 207.600,159.316 207.600 C 159.641 207.600,160.001 207.960,160.116 208.400 C 160.231 208.840,160.612 209.200,160.963 209.200 C 161.313 209.200,161.600 209.476,161.600 209.813 C 161.600 210.149,161.852 210.522,162.161 210.640 C 162.469 210.759,162.834 211.455,162.971 212.188 C 163.109 212.920,163.464 213.721,163.760 213.967 C 164.056 214.213,164.415 215.292,164.558 216.365 C 164.700 217.438,165.083 218.537,165.408 218.807 C 165.866 219.187,166.000 220.314,166.000 223.800 C 166.000 227.286,165.866 228.413,165.408 228.793 C 165.083 229.063,164.698 230.177,164.553 231.269 C 164.408 232.360,164.058 233.485,163.774 233.769 C 163.490 234.053,163.135 234.941,162.984 235.743 C 162.826 236.588,162.478 237.200,162.155 237.200 C 161.850 237.200,161.600 237.462,161.600 237.782 C 161.600 238.436,159.777 240.400,159.169 240.400 C 158.952 240.400,158.678 240.652,158.560 240.961 C 158.441 241.269,157.997 241.612,157.572 241.723 C 157.148 241.834,156.800 242.189,156.800 242.511 C 156.800 242.910,156.211 243.162,154.940 243.306 C 153.820 243.432,152.936 243.771,152.720 244.158 C 152.161 245.156,147.839 245.046,146.509 244.000 C 145.950 243.560,144.886 243.200,144.146 243.200 C 143.207 243.200,142.800 243.016,142.800 242.590 C 142.800 242.255,142.395 241.825,141.900 241.636 C 140.795 241.212,138.000 238.617,138.000 238.014 C 138.000 237.773,137.748 237.478,137.439 237.360 C 137.131 237.241,136.761 236.518,136.617 235.751 C 136.473 234.985,136.096 234.258,135.778 234.136 C 134.911 233.803,134.915 215.200,135.782 215.200 C 136.133 215.200,136.470 214.631,136.632 213.768 C 136.780 212.981,137.148 212.241,137.451 212.125 C 137.753 212.009,138.004 211.709,138.008 211.457 C 138.023 210.600,142.577 205.991,143.404 205.995 C 143.846 205.998,144.432 205.640,144.707 205.200 C 145.096 204.578,145.640 204.400,147.154 204.400 C 148.398 204.400,149.282 204.183,149.600 203.800 C 150.209 203.066,150.391 203.068,151.376 203.813 M53.969 390.100 C 53.707 390.958,53.754 391.600,54.078 391.600 C 54.302 391.600,54.386 391.342,54.265 391.026 C 54.144 390.710,54.260 390.364,54.522 390.257 C 54.877 390.113,54.872 390.055,54.500 390.032 C 54.225 390.014,53.986 390.045,53.969 390.100 M74.200 390.800 C 74.532 391.167,75.073 391.467,75.403 391.467 C 75.935 391.467,75.935 391.391,75.400 390.800 C 75.068 390.433,74.527 390.133,74.197 390.133 C 73.665 390.133,73.665 390.209,74.200 390.800 M46.500 393.465 C 45.804 393.746,45.873 394.400,46.600 394.400 C 46.930 394.400,47.200 394.130,47.200 393.800 C 47.200 393.470,47.155 393.214,47.100 393.232 C 47.045 393.249,46.775 393.354,46.500 393.465 M85.661 396.218 C 86.024 396.589,86.540 396.820,86.806 396.731 C 87.073 396.642,86.775 396.339,86.145 396.056 C 85.073 395.576,85.042 395.586,85.661 396.218 M41.867 396.667 C 41.484 397.049,41.538 397.600,41.957 397.600 C 42.154 397.600,42.418 397.330,42.545 397.000 C 42.779 396.390,42.353 396.181,41.867 396.667 M38.116 400.000 C 38.001 400.440,37.652 400.800,37.341 400.800 C 37.030 400.800,36.659 401.115,36.518 401.500 C 36.376 401.885,36.018 402.346,35.722 402.525 C 35.426 402.703,35.288 403.018,35.415 403.225 C 35.543 403.431,35.457 403.600,35.224 403.600 C 34.991 403.600,34.800 403.782,34.800 404.003 C 34.800 404.243,35.126 404.203,35.600 403.907 C 36.040 403.632,36.400 403.181,36.400 402.904 C 36.400 402.627,36.591 402.400,36.824 402.400 C 37.057 402.400,37.142 402.229,37.012 402.020 C 36.883 401.811,37.120 401.457,37.539 401.233 C 38.218 400.869,39.028 399.200,38.525 399.200 C 38.415 399.200,38.231 399.560,38.116 400.000 M33.338 405.817 C 33.208 406.157,33.213 406.547,33.351 406.684 C 33.488 406.821,33.600 406.647,33.600 406.296 C 33.600 405.945,33.915 405.576,34.300 405.476 C 34.956 405.304,34.955 405.290,34.287 405.246 C 33.896 405.221,33.468 405.478,33.338 405.817 M32.000 408.000 C 31.765 408.440,31.715 408.800,31.890 408.800 C 32.065 408.800,32.432 408.440,32.707 408.000 C 32.984 407.557,33.033 407.200,32.817 407.200 C 32.603 407.200,32.235 407.560,32.000 408.000 M96.400 409.178 C 96.400 409.312,96.760 409.730,97.200 410.107 C 97.869 410.680,98.000 410.695,98.000 410.196 C 98.000 409.868,97.809 409.600,97.576 409.600 C 97.343 409.600,97.245 409.450,97.359 409.267 C 97.472 409.083,97.303 408.933,96.982 408.933 C 96.662 408.933,96.400 409.043,96.400 409.178 M30.828 410.966 C 30.196 411.728,30.385 412.104,31.160 411.625 C 31.456 411.442,31.624 411.072,31.534 410.802 C 31.418 410.454,31.214 410.501,30.828 410.966 M27.949 422.900 C 27.758 423.275,27.518 425.236,27.516 426.445 C 27.513 428.055,28.413 430.161,28.716 429.253 C 28.816 428.953,28.651 428.551,28.349 428.360 C 27.884 428.065,27.884 428.011,28.349 428.006 C 28.782 428.001,28.797 427.878,28.419 427.423 C 27.869 426.760,28.003 423.544,28.600 423.106 C 28.848 422.924,28.810 422.810,28.500 422.806 C 28.225 422.803,27.977 422.845,27.949 422.900 M99.817 431.099 C 99.358 432.297,99.552 432.937,100.210 432.392 C 100.545 432.114,100.727 431.793,100.613 431.680 C 100.500 431.566,100.583 431.262,100.797 431.003 C 101.065 430.680,101.007 430.533,100.611 430.533 C 100.294 430.533,99.937 430.788,99.817 431.099 M98.138 438.217 C 98.008 438.557,98.013 438.947,98.151 439.084 C 98.288 439.221,98.400 439.113,98.400 438.843 C 98.400 438.573,98.608 438.481,98.862 438.638 C 99.135 438.807,99.216 438.749,99.059 438.496 C 98.914 438.261,99.021 437.977,99.298 437.866 C 99.596 437.745,99.511 437.650,99.087 437.632 C 98.696 437.614,98.268 437.878,98.138 438.217 M92.092 449.201 C 91.690 449.844,91.691 449.983,92.096 449.901 C 92.635 449.793,93.184 449.192,93.194 448.700 C 93.206 448.125,92.589 448.406,92.092 449.201 M36.877 450.430 C 36.956 450.667,37.191 450.860,37.400 450.860 C 37.609 450.860,37.845 450.667,37.923 450.430 C 38.002 450.194,37.767 450.000,37.400 450.000 C 37.033 450.000,36.798 450.194,36.877 450.430 M38.770 452.112 C 39.743 453.204,40.487 453.669,39.652 452.663 C 39.407 452.368,39.340 451.963,39.503 451.763 C 39.667 451.563,39.637 451.533,39.437 451.697 C 39.237 451.860,38.787 451.775,38.437 451.509 C 38.087 451.242,38.236 451.514,38.770 452.112 M86.913 454.354 C 85.816 454.905,84.924 455.918,85.291 456.198 C 85.351 456.244,86.179 455.678,87.131 454.941 C 88.998 453.495,88.940 453.337,86.913 454.354 M44.254 456.598 C 44.381 456.926,44.630 457.105,44.808 456.995 C 44.986 456.885,45.223 457.021,45.334 457.298 C 45.463 457.618,45.548 457.562,45.568 457.143 C 45.586 456.781,45.315 456.376,44.967 456.243 C 44.064 455.896,43.998 455.929,44.254 456.598 M47.371 458.281 C 47.423 458.638,47.856 458.990,48.333 459.063 C 49.450 459.233,49.427 459.041,48.238 458.261 C 47.357 457.684,47.283 457.686,47.371 458.281 M50.669 459.464 C 50.524 459.609,50.776 459.988,51.228 460.305 C 51.681 460.622,52.156 460.777,52.283 460.650 C 52.410 460.523,52.220 460.306,51.860 460.168 C 51.499 460.029,51.304 459.755,51.426 459.558 C 51.681 459.146,51.064 459.069,50.669 459.464 M57.062 461.818 C 57.174 462.108,57.598 462.320,58.005 462.290 C 58.906 462.222,58.697 461.771,57.636 461.494 C 57.106 461.355,56.924 461.458,57.062 461.818 " stroke="none" fill="#555555" fill-rule="evenodd"></path><path id="path2" d="M54.192 390.618 C 53.757 390.971,53.625 391.145,53.900 391.006 C 54.175 390.867,54.400 390.943,54.400 391.176 C 54.400 391.409,53.781 391.600,53.024 391.600 C 52.267 391.600,51.524 391.799,51.374 392.043 C 51.183 392.351,50.996 392.321,50.756 391.943 C 50.505 391.546,50.411 391.641,50.406 392.295 C 50.402 392.902,50.174 393.172,49.700 393.132 C 48.086 392.997,47.200 393.234,47.200 393.800 C 47.200 394.169,46.825 394.400,46.224 394.400 C 45.687 394.400,45.134 394.583,44.996 394.807 C 44.858 395.030,44.547 395.091,44.304 394.941 C 44.021 394.766,43.955 394.906,44.119 395.334 C 44.303 395.811,44.159 396.000,43.614 396.000 C 43.196 396.000,42.750 396.327,42.623 396.727 C 42.496 397.127,41.772 397.697,41.014 397.994 C 40.256 398.292,39.729 398.685,39.842 398.868 C 39.955 399.050,39.762 399.200,39.414 399.200 C 39.065 399.200,38.618 399.625,38.421 400.145 C 38.223 400.665,37.766 401.204,37.405 401.343 C 37.044 401.481,36.861 401.776,36.998 401.997 C 37.135 402.219,37.057 402.400,36.824 402.400 C 36.591 402.400,36.400 402.670,36.400 403.000 C 36.400 403.330,36.209 403.600,35.976 403.600 C 35.743 403.600,35.682 403.375,35.841 403.100 C 36.008 402.810,35.976 402.740,35.764 402.933 C 35.564 403.117,35.376 403.387,35.346 403.533 C 35.104 404.735,34.623 405.600,34.197 405.600 C 33.916 405.600,33.584 406.009,33.459 406.508 C 33.334 407.007,32.904 407.772,32.505 408.208 C 32.105 408.644,31.737 409.533,31.687 410.186 C 31.636 410.838,31.340 411.514,31.029 411.688 C 30.717 411.862,30.335 412.586,30.179 413.297 C 30.023 414.007,29.658 414.951,29.368 415.394 C 29.064 415.859,28.790 417.679,28.721 419.696 C 28.654 421.619,28.510 423.195,28.400 423.198 C 27.974 423.210,28.010 426.930,28.442 427.450 C 28.791 427.871,28.769 428.001,28.349 428.006 C 28.018 428.010,27.959 428.129,28.200 428.306 C 28.420 428.468,28.639 430.115,28.686 431.968 C 28.742 434.190,28.946 435.448,29.286 435.668 C 29.694 435.932,29.677 436.081,29.200 436.394 C 28.686 436.731,28.701 436.789,29.300 436.794 C 29.726 436.798,30.000 437.106,30.000 437.581 C 30.000 438.435,30.806 440.471,31.282 440.817 C 31.446 440.937,31.661 441.477,31.760 442.017 C 31.859 442.558,31.975 443.090,32.018 443.200 C 32.060 443.310,32.066 443.557,32.031 443.749 C 31.996 443.941,32.245 443.992,32.584 443.862 C 33.166 443.638,33.367 444.197,33.309 445.888 C 33.300 446.156,33.623 446.480,34.026 446.608 C 34.429 446.736,34.870 447.192,35.006 447.620 C 35.143 448.049,35.512 448.400,35.827 448.400 C 36.142 448.400,36.400 448.760,36.400 449.200 C 36.400 449.747,36.667 450.000,37.243 450.000 C 37.806 450.000,38.013 450.188,37.868 450.567 C 37.662 451.103,38.617 451.812,39.330 451.654 C 39.511 451.613,39.562 451.738,39.443 451.930 C 39.325 452.122,39.671 452.665,40.214 453.137 C 40.756 453.609,41.200 454.176,41.200 454.397 C 41.200 454.619,41.405 454.800,41.656 454.800 C 41.907 454.800,42.326 455.093,42.588 455.451 C 42.850 455.810,43.500 456.147,44.032 456.200 C 45.573 456.356,45.600 456.370,45.600 457.000 C 45.600 457.342,45.960 457.600,46.438 457.600 C 46.899 457.600,47.814 457.983,48.470 458.450 C 49.127 458.918,50.103 459.300,50.639 459.300 C 51.430 459.300,51.527 459.406,51.151 459.859 C 50.782 460.303,50.814 460.370,51.303 460.182 C 51.642 460.052,52.038 460.138,52.183 460.373 C 52.328 460.608,53.317 460.800,54.381 460.800 C 55.684 460.800,56.386 460.986,56.533 461.369 C 56.673 461.733,57.070 461.855,57.638 461.706 C 58.234 461.550,58.434 461.621,58.248 461.922 C 58.048 462.245,59.803 462.361,64.586 462.341 C 68.224 462.325,71.200 462.152,71.200 461.956 C 71.200 461.760,71.425 461.645,71.700 461.700 C 71.975 461.755,72.155 461.575,72.100 461.300 C 72.031 460.953,72.674 460.785,74.200 460.750 C 75.410 460.723,76.580 460.655,76.800 460.600 C 77.020 460.545,77.380 460.477,77.600 460.450 C 77.820 460.423,78.000 460.141,78.000 459.824 C 78.000 459.447,78.519 459.205,79.500 459.124 C 80.511 459.040,81.000 458.805,81.000 458.400 C 81.000 458.043,81.445 457.749,82.100 457.673 C 82.705 457.604,83.383 457.205,83.606 456.788 C 83.830 456.371,84.263 456.126,84.570 456.244 C 84.897 456.369,85.231 456.131,85.378 455.669 C 85.613 454.929,87.308 454.147,88.200 454.368 C 88.420 454.422,88.466 454.333,88.303 454.169 C 88.139 454.006,88.367 453.618,88.809 453.309 C 89.252 452.999,89.493 452.550,89.345 452.311 C 89.197 452.072,89.241 451.978,89.443 452.103 C 89.995 452.444,90.911 451.574,91.763 449.900 C 92.183 449.075,92.768 448.400,93.063 448.400 C 93.549 448.400,93.774 447.901,93.647 447.100 C 93.621 446.935,93.825 446.845,94.100 446.900 C 94.379 446.956,94.655 446.523,94.725 445.919 C 94.800 445.270,95.161 444.739,95.631 444.590 C 96.060 444.454,96.342 444.220,96.256 444.071 C 95.963 443.562,96.680 442.200,97.240 442.200 C 97.839 442.200,97.873 442.074,97.950 439.563 C 97.989 438.285,98.176 437.879,98.800 437.716 C 99.511 437.530,99.601 437.168,99.606 434.453 C 99.612 431.456,99.939 430.200,100.645 430.466 C 101.372 430.741,101.242 421.451,100.511 420.900 C 100.088 420.581,100.030 420.400,100.352 420.400 C 100.706 420.400,100.670 420.212,100.229 419.771 C 99.780 419.323,99.600 418.362,99.600 416.418 C 99.600 414.030,99.501 413.667,98.800 413.484 C 98.217 413.332,98.000 412.938,98.000 412.034 C 98.000 411.287,97.681 410.519,97.200 410.107 C 96.745 409.717,96.400 408.927,96.400 408.274 C 96.400 407.462,96.166 407.064,95.600 406.916 C 95.160 406.801,94.800 406.402,94.800 406.029 C 94.800 405.656,94.475 405.002,94.078 404.575 C 93.351 403.796,93.200 403.498,93.200 402.847 C 93.200 402.652,92.822 402.394,92.360 402.274 C 91.863 402.144,91.634 401.868,91.800 401.600 C 91.966 401.332,91.737 401.056,91.240 400.926 C 90.778 400.806,90.400 400.441,90.400 400.116 C 90.400 399.791,90.040 399.431,89.600 399.316 C 89.160 399.201,88.800 398.861,88.800 398.561 C 88.800 398.261,88.342 397.900,87.781 397.760 C 87.221 397.619,86.860 397.407,86.979 397.288 C 87.098 397.169,86.791 396.870,86.298 396.624 C 85.804 396.378,85.400 395.927,85.400 395.621 C 85.400 395.316,84.989 395.036,84.487 394.999 C 83.985 394.962,83.030 394.529,82.363 394.036 C 81.335 393.276,80.468 392.990,78.700 392.828 C 78.535 392.812,78.400 392.530,78.400 392.200 C 78.400 391.686,76.038 391.284,75.461 391.700 C 75.171 391.910,74.019 390.693,74.212 390.381 C 74.641 389.686,55.057 389.918,54.192 390.618 " stroke="none" fill="#9c9c9c" fill-rule="evenodd"></path><path id="path3" d="" stroke="none" fill="#f87440" fill-rule="evenodd"></path><path id="path4" d="" stroke="none" fill="#f87440" fill-rule="evenodd"></path></g></svg>