<svg id="svg" version="1.1" xmlns="http://www.w3.org/2000/svg" xmlns:xlink="http://www.w3.org/1999/xlink" width="400" height="359.22038980509745" viewBox="0, 0, 400,359.22038980509745"><g id="svgg"><path id="path0" d="M256.063 7.130 C 251.444 9.947,245.175 19.804,240.483 31.628 C 236.826 40.843,233.195 50.329,232.504 52.471 C 231.015 57.090,223.336 76.201,219.546 84.722 C 219.173 85.560,218.868 86.396,218.868 86.580 C 218.868 86.764,218.635 87.372,218.350 87.931 C 218.066 88.491,217.299 90.243,216.646 91.824 C 215.993 93.405,214.753 96.155,213.890 97.934 C 213.026 99.712,212.032 101.896,211.679 102.785 C 211.326 103.675,209.587 107.556,207.814 111.411 C 206.040 115.265,204.223 119.227,203.776 120.216 C 203.328 121.204,202.162 123.711,201.184 125.786 C 200.206 127.862,199.083 130.288,198.688 131.177 C 198.293 132.066,196.738 135.256,195.232 138.265 C 192.704 143.315,191.644 146.284,193.759 142.392 C 194.785 140.503,196.366 137.636,198.456 133.872 C 199.225 132.489,200.010 130.952,200.200 130.458 C 200.391 129.964,201.117 128.508,201.813 127.223 C 203.269 124.539,213.118 104.648,213.118 104.393 C 213.118 104.300,214.169 102.022,215.454 99.330 C 216.739 96.639,217.790 94.385,217.790 94.320 C 217.790 94.193,220.694 87.962,222.640 83.917 C 224.475 80.101,228.571 70.958,228.571 70.679 C 228.571 70.422,229.258 68.843,231.309 64.383 C 231.978 62.930,232.525 61.578,232.525 61.381 C 232.525 61.183,232.929 60.216,233.423 59.232 C 233.917 58.248,234.323 57.254,234.324 57.023 C 234.325 56.793,234.584 56.119,234.900 55.526 C 235.215 54.933,236.567 51.941,237.904 48.877 C 243.134 36.895,244.460 33.950,244.776 33.621 C 244.956 33.433,245.103 33.045,245.103 32.758 C 245.103 32.307,246.176 29.813,247.365 27.497 C 247.567 27.104,249.471 23.384,251.595 19.231 C 255.844 10.925,256.097 10.450,257.246 8.625 C 258.603 6.471,258.128 5.871,256.063 7.130 M143.376 119.741 C 142.078 120.531,134.052 128.546,134.052 129.053 C 134.052 129.233,133.931 129.381,133.783 129.383 C 133.289 129.387,131.810 131.874,132.003 132.376 C 133.618 136.585,157.412 127.308,157.412 122.469 C 157.412 121.752,157.177 121.368,156.604 121.147 C 155.317 120.652,151.583 120.036,149.844 120.032 C 148.966 120.029,147.412 119.805,146.390 119.533 C 144.677 119.077,144.442 119.093,143.376 119.741 M111.411 154.233 C 111.411 154.401,111.193 154.537,110.927 154.537 C 110.661 154.537,109.973 154.760,109.399 155.032 C 108.825 155.303,107.830 155.747,107.188 156.018 C 106.545 156.288,106.020 156.632,106.020 156.781 C 106.020 156.931,105.842 157.053,105.625 157.053 C 105.250 157.053,104.780 157.239,101.613 158.646 C 100.870 158.977,100.120 159.159,99.947 159.052 C 99.774 158.945,99.432 159.099,99.188 159.393 C 98.944 159.687,98.473 159.928,98.141 159.928 C 97.809 159.928,97.385 160.080,97.197 160.266 C 97.009 160.452,96.384 160.689,95.808 160.792 C 95.232 160.895,94.594 161.148,94.389 161.353 C 94.184 161.557,93.725 161.725,93.369 161.725 C 93.013 161.725,92.722 161.887,92.722 162.084 C 92.722 162.282,92.439 162.443,92.093 162.442 C 91.187 162.440,88.050 163.611,88.050 163.952 C 88.050 164.111,87.631 164.241,87.117 164.241 C 86.604 164.241,85.674 164.506,85.051 164.831 C 83.036 165.880,82.768 165.985,81.446 166.233 C 80.730 166.367,80.144 166.621,80.144 166.797 C 80.144 166.972,79.901 167.116,79.605 167.116 C 79.308 167.116,79.066 167.242,79.066 167.397 C 79.066 167.551,78.655 167.712,78.153 167.753 C 77.651 167.795,76.357 168.320,75.278 168.921 C 74.198 169.521,73.315 169.902,73.315 169.766 C 73.315 169.631,73.032 169.763,72.686 170.060 C 72.114 170.552,71.632 170.790,70.620 171.081 C 70.422 171.138,69.188 171.626,67.877 172.167 C 66.566 172.707,64.991 173.260,64.377 173.395 C 63.763 173.530,63.168 173.789,63.056 173.972 C 62.943 174.154,62.456 174.304,61.973 174.304 C 61.491 174.304,61.096 174.447,61.096 174.623 C 61.096 174.799,60.530 175.049,59.838 175.178 C 59.146 175.308,58.580 175.569,58.580 175.758 C 58.580 175.946,58.115 176.101,57.546 176.101 C 56.977 176.101,56.311 176.343,56.065 176.640 C 55.819 176.936,55.233 177.179,54.763 177.179 C 54.293 177.179,53.908 177.341,53.908 177.538 C 53.908 177.736,53.514 177.898,53.031 177.898 C 52.549 177.898,52.062 178.047,51.949 178.229 C 51.836 178.412,51.260 178.667,50.670 178.797 C 50.079 178.927,49.596 179.182,49.596 179.364 C 49.596 179.546,49.377 179.695,49.110 179.695 C 48.843 179.695,47.864 180.099,46.935 180.593 C 46.005 181.087,44.940 181.491,44.566 181.491 C 44.193 181.491,43.792 181.647,43.675 181.836 C 43.557 182.026,42.578 182.460,41.497 182.800 C 40.417 183.141,39.533 183.552,39.533 183.713 C 39.533 183.875,39.229 184.007,38.858 184.007 C 38.221 184.007,37.053 184.419,34.142 185.671 C 33.450 185.969,32.561 186.346,32.165 186.511 C 31.770 186.675,30.856 187.068,30.134 187.385 C 29.413 187.701,28.724 187.960,28.603 187.960 C 28.376 187.960,25.421 189.225,24.393 189.762 C 24.071 189.930,23.186 190.184,22.425 190.327 C 21.665 190.470,20.825 190.804,20.558 191.070 C 20.292 191.337,19.843 191.575,19.561 191.599 C 18.565 191.686,18.386 191.737,18.119 192.004 C 17.971 192.152,17.567 192.273,17.221 192.273 C 16.875 192.273,16.538 192.394,16.472 192.543 C 16.293 192.945,11.696 195.148,11.036 195.148 C 10.722 195.148,10.365 195.310,10.243 195.508 C 10.120 195.705,9.707 195.867,9.323 195.867 C 8.939 195.867,8.625 196.021,8.625 196.210 C 8.625 196.399,8.058 196.660,7.364 196.790 C 6.669 196.920,6.013 197.170,5.905 197.345 C 5.796 197.521,5.313 197.664,4.831 197.664 C 4.348 197.664,3.953 197.808,3.953 197.984 C 3.953 198.161,3.509 198.430,2.965 198.584 C 2.421 198.738,1.896 198.898,1.797 198.941 C 1.698 198.984,1.253 199.137,0.809 199.282 C -0.506 199.709,0.071 202.336,1.480 202.336 C 1.672 202.336,2.234 202.740,2.728 203.235 C 3.222 203.729,3.952 204.133,4.350 204.133 C 4.748 204.133,4.981 204.284,4.867 204.468 C 4.689 204.756,5.198 205.304,5.750 205.416 C 6.430 205.555,7.457 206.160,7.949 206.714 C 8.268 207.073,8.700 207.367,8.909 207.367 C 9.117 207.367,9.941 208.014,10.739 208.805 C 11.538 209.596,12.359 210.243,12.565 210.243 C 12.770 210.243,12.938 210.414,12.938 210.623 C 12.938 210.833,13.069 210.923,13.229 210.824 C 13.390 210.725,14.077 211.120,14.757 211.703 C 15.437 212.285,16.276 212.853,16.622 212.964 C 16.968 213.075,17.251 213.317,17.251 213.501 C 17.251 213.686,17.503 213.836,17.811 213.836 C 18.119 213.836,18.279 213.985,18.167 214.167 C 18.055 214.348,18.409 214.595,18.955 214.715 C 19.500 214.836,20.328 215.415,20.795 216.002 C 21.262 216.590,21.846 217.071,22.093 217.071 C 22.339 217.071,22.844 217.475,23.216 217.969 C 23.587 218.464,24.070 218.868,24.290 218.868 C 24.510 218.868,25.360 219.353,26.178 219.946 C 26.997 220.539,27.770 221.024,27.897 221.024 C 28.024 221.024,28.389 221.316,28.709 221.672 C 29.029 222.028,29.897 222.688,30.638 223.139 C 31.379 223.589,31.986 224.107,31.986 224.288 C 31.986 224.470,32.292 224.618,32.666 224.618 C 33.040 224.618,33.439 224.861,33.553 225.157 C 33.667 225.454,34.008 225.696,34.310 225.696 C 34.613 225.696,34.861 225.819,34.861 225.969 C 34.861 226.119,35.952 226.968,37.287 227.856 C 38.621 228.743,39.766 229.591,39.832 229.739 C 39.898 229.888,40.158 230.009,40.409 230.009 C 40.660 230.009,41.302 230.413,41.835 230.907 C 42.368 231.402,42.888 231.806,42.989 231.806 C 43.326 231.806,45.813 233.770,46.296 234.417 C 46.557 234.767,46.907 234.967,47.076 234.863 C 47.244 234.760,47.983 235.242,48.718 235.936 C 49.454 236.629,50.186 237.197,50.344 237.197 C 50.503 237.197,50.844 237.498,51.103 237.867 C 51.579 238.548,51.746 238.634,52.577 238.634 C 52.832 238.634,53.713 239.261,54.534 240.026 C 55.355 240.792,56.278 241.514,56.585 241.632 C 56.892 241.750,57.143 242.013,57.143 242.217 C 57.143 242.421,57.385 242.588,57.682 242.588 C 57.978 242.588,58.221 242.749,58.221 242.947 C 58.221 243.145,58.464 243.306,58.760 243.306 C 59.057 243.306,59.299 243.478,59.299 243.687 C 59.299 243.896,59.461 243.968,59.659 243.845 C 59.856 243.723,60.018 243.795,60.018 244.004 C 60.018 244.213,60.269 244.385,60.575 244.385 C 60.881 244.385,61.715 244.951,62.427 245.642 C 63.139 246.334,63.866 246.900,64.042 246.900 C 64.374 246.900,64.434 246.943,66.487 248.625 C 67.179 249.192,68.262 249.955,68.893 250.321 C 69.525 250.686,69.960 251.117,69.860 251.279 C 69.761 251.440,69.942 251.572,70.263 251.572 C 70.585 251.572,71.378 251.977,72.026 252.471 C 72.673 252.965,73.390 253.369,73.619 253.369 C 73.847 253.369,74.034 253.531,74.034 253.729 C 74.034 253.926,74.241 254.088,74.493 254.088 C 74.746 254.088,75.208 254.371,75.520 254.717 C 76.404 255.697,79.673 258.152,79.973 258.061 C 80.122 258.017,80.342 258.121,80.463 258.292 C 80.584 258.464,81.491 259.246,82.480 260.030 C 83.468 260.814,84.406 261.658,84.564 261.905 C 85.122 262.776,88.285 262.139,89.488 260.913 C 89.587 260.812,90.294 260.408,91.059 260.015 C 91.825 259.621,92.632 259.016,92.853 258.670 C 93.074 258.324,93.445 258.041,93.677 258.041 C 93.910 258.041,94.154 257.899,94.220 257.725 C 94.286 257.551,96.280 256.385,98.652 255.132 C 101.024 253.880,103.336 252.486,103.790 252.034 C 104.244 251.583,104.769 251.213,104.958 251.213 C 105.147 251.213,105.301 250.951,105.301 250.632 C 105.301 250.228,105.082 250.108,104.582 250.239 C 103.733 250.461,103.643 250.047,104.403 249.416 C 104.699 249.170,104.942 248.640,104.942 248.238 C 104.942 247.836,105.346 246.977,105.840 246.329 C 106.347 245.665,106.739 244.671,106.739 244.049 C 106.739 243.443,106.900 242.947,107.098 242.947 C 107.296 242.947,107.457 242.654,107.457 242.297 C 107.457 241.939,107.695 241.333,107.985 240.949 C 108.275 240.566,108.518 239.883,108.524 239.432 C 108.530 238.981,108.778 238.519,109.075 238.405 C 109.371 238.291,109.614 237.811,109.614 237.338 C 109.614 236.865,109.775 236.478,109.973 236.478 C 110.171 236.478,110.332 236.002,110.332 235.421 C 110.332 234.840,110.494 234.264,110.692 234.142 C 110.889 234.020,111.051 233.456,111.051 232.889 C 111.051 232.321,111.294 231.615,111.590 231.318 C 111.887 231.022,112.129 230.282,112.129 229.675 C 112.129 229.068,112.281 228.571,112.467 228.571 C 112.653 228.571,112.917 227.436,113.053 226.048 C 113.190 224.660,113.442 223.437,113.614 223.331 C 113.786 223.225,113.926 222.672,113.926 222.102 C 113.926 221.533,114.077 220.974,114.261 220.860 C 114.444 220.746,114.706 219.767,114.841 218.683 C 114.976 217.599,115.230 216.712,115.405 216.712 C 115.580 216.712,115.723 215.854,115.723 214.807 C 115.723 213.759,115.896 212.729,116.107 212.519 C 116.318 212.308,116.584 210.896,116.699 209.381 C 116.813 207.865,117.045 206.541,117.214 206.436 C 117.382 206.332,117.520 204.730,117.520 202.875 C 117.520 201.021,117.660 199.417,117.831 199.311 C 118.001 199.206,118.248 197.943,118.379 196.505 C 118.510 195.067,118.632 193.729,118.650 193.531 C 118.668 193.333,118.583 192.413,118.462 191.485 C 118.334 190.502,118.391 189.706,118.600 189.577 C 119.084 189.278,119.057 185.328,118.567 184.838 C 118.286 184.557,118.286 184.380,118.567 184.206 C 119.067 183.897,119.096 176.947,118.598 176.640 C 118.401 176.518,118.239 174.981,118.239 173.226 C 118.239 171.470,118.077 169.933,117.880 169.811 C 117.682 169.689,117.520 168.476,117.520 167.116 C 117.520 165.756,117.358 164.543,117.161 164.420 C 116.651 164.106,116.704 161.366,117.219 161.366 C 117.449 161.366,118.425 161.872,119.389 162.490 C 120.353 163.108,121.257 163.499,121.397 163.358 C 121.672 163.082,118.355 159.964,116.697 158.939 C 116.145 158.597,115.296 157.477,114.809 156.449 C 114.323 155.420,113.723 154.453,113.476 154.299 C 112.853 153.911,111.411 153.865,111.411 154.233 M121.294 243.436 C 120.701 243.868,118.547 245.471,116.507 246.998 C 114.467 248.525,112.122 250.173,111.296 250.660 C 109.662 251.624,105.301 255.631,105.301 256.169 C 105.301 256.352,106.312 256.607,107.547 256.736 L 109.793 256.971 113.500 253.104 C 115.539 250.977,118.086 248.330,119.160 247.223 C 120.235 246.115,121.114 245.073,121.114 244.906 C 121.114 244.740,121.549 244.150,122.080 243.596 C 123.219 242.406,122.817 242.324,121.294 243.436 M106.289 249.304 C 105.943 249.395,105.660 249.619,105.660 249.802 C 105.660 250.243,105.760 250.227,106.967 249.598 C 107.949 249.086,107.639 248.952,106.289 249.304 " stroke="none" fill="#67c5be" fill-rule="evenodd"></path><path id="path1" d="M257.851 3.476 C 257.589 3.738,257.262 3.953,257.126 3.953 C 256.990 3.953,256.232 4.600,255.441 5.391 C 254.650 6.181,253.872 6.828,253.711 6.828 C 253.550 6.828,253.315 7.152,253.190 7.547 C 253.064 7.942,252.672 8.266,252.318 8.266 C 251.606 8.266,247.978 11.467,247.978 12.095 C 247.978 12.313,247.738 12.690,247.443 12.935 C 247.149 13.179,246.998 13.523,247.107 13.700 C 247.216 13.877,247.043 14.122,246.723 14.245 C 246.402 14.368,246.214 14.662,246.305 14.898 C 246.396 15.134,245.758 16.029,244.888 16.887 C 244.018 17.744,243.306 18.662,243.306 18.926 C 243.306 19.191,243.156 19.407,242.972 19.407 C 242.788 19.407,242.284 20.115,241.852 20.981 C 241.420 21.847,240.590 23.100,240.009 23.766 C 238.730 25.233,237.853 26.815,237.987 27.412 C 238.159 28.176,234.014 35.570,232.638 36.953 C 232.378 37.214,232.165 37.606,232.165 37.823 C 232.165 38.040,231.897 38.515,231.568 38.878 C 230.905 39.611,230.778 39.825,228.802 43.521 C 227.462 46.028,226.408 47.761,223.360 52.463 C 219.325 58.690,216.899 62.372,216.725 62.534 C 216.619 62.633,215.813 63.765,214.934 65.049 C 214.055 66.334,213.234 67.466,213.111 67.565 C 212.987 67.664,212.159 68.877,211.270 70.261 C 210.381 71.644,208.610 74.070,207.334 75.651 C 206.059 77.233,204.754 78.931,204.435 79.425 C 203.799 80.410,199.016 85.905,194.792 90.503 C 181.096 105.411,165.642 114.368,154.056 114.113 C 151.082 114.047,148.896 114.844,147.086 116.654 C 146.807 116.933,146.470 117.161,146.336 117.161 C 145.860 117.162,144.003 118.965,144.237 119.199 C 144.367 119.330,144.474 119.344,144.474 119.230 C 144.474 119.116,145.323 119.249,146.361 119.525 C 147.399 119.801,148.966 120.029,149.844 120.032 C 151.583 120.036,155.317 120.652,156.604 121.147 C 159.178 122.137,156.413 125.365,150.225 128.594 C 141.436 133.180,131.996 134.935,132.104 131.963 C 132.120 131.531,132.085 131.177,132.027 131.177 C 131.759 131.177,129.739 133.345,129.739 133.632 C 129.739 133.809,128.931 134.776,127.942 135.780 C 126.954 136.784,126.146 137.746,126.146 137.918 C 126.146 138.090,125.660 138.695,125.067 139.263 C 124.474 139.831,123.989 140.509,123.989 140.768 C 123.989 141.028,123.827 141.240,123.630 141.240 C 122.456 141.240,123.464 142.576,125.158 143.265 C 126.877 143.965,127.395 144.007,130.997 143.741 C 137.183 143.285,147.284 141.223,152.621 139.327 C 159.414 136.915,160.274 136.562,164.489 134.454 C 166.823 133.287,169.137 132.210,169.632 132.062 C 170.126 131.913,171.162 131.392,171.935 130.904 C 172.708 130.416,174.370 129.555,175.629 128.991 C 176.887 128.426,178.675 127.434,179.602 126.785 C 185.950 122.346,197.011 117.065,200.059 117.020 C 203.372 116.970,203.358 116.942,201.813 120.461 C 201.091 122.105,200.160 124.340,199.743 125.427 C 198.456 128.788,186.825 151.530,183.348 157.484 C 181.536 160.587,180.054 163.200,180.054 163.290 C 180.054 164.024,165.168 188.327,164.283 189.039 C 164.160 189.137,163.451 190.148,162.709 191.285 C 161.966 192.421,161.198 193.351,161.003 193.351 C 160.541 193.351,160.543 192.739,161.006 192.453 C 161.456 192.175,161.482 190.836,161.037 190.836 C 160.674 190.836,152.524 184.564,149.686 182.101 C 148.697 181.244,146.946 179.826,145.794 178.950 C 144.642 178.075,143.105 176.907,142.380 176.355 C 141.654 175.803,140.898 175.151,140.701 174.905 C 140.503 174.659,139.370 173.717,138.183 172.810 C 136.996 171.904,135.520 170.690,134.902 170.113 C 134.284 169.536,132.866 168.375,131.751 167.533 C 128.524 165.097,125.898 162.520,122.902 158.850 C 121.369 156.972,119.531 154.878,118.818 154.197 C 118.102 153.514,117.520 152.607,117.520 152.175 C 117.520 150.661,116.542 150.354,115.351 151.495 C 114.765 152.056,114.286 152.728,114.286 152.987 C 114.286 153.247,113.972 153.459,113.588 153.459 C 113.204 153.459,112.775 153.646,112.634 153.874 C 112.487 154.112,112.534 154.192,112.745 154.062 C 113.224 153.766,113.992 154.688,114.941 156.701 C 115.363 157.595,116.156 158.604,116.704 158.943 C 118.357 159.966,121.671 163.083,121.397 163.358 C 121.257 163.499,120.353 163.108,119.389 162.490 C 118.425 161.872,117.449 161.366,117.219 161.366 C 116.704 161.366,116.651 164.106,117.161 164.420 C 117.358 164.543,117.520 165.756,117.520 167.116 C 117.520 168.476,117.682 169.689,117.880 169.811 C 118.077 169.933,118.239 171.470,118.239 173.226 C 118.239 174.981,118.401 176.518,118.598 176.640 C 119.091 176.944,119.063 183.758,118.567 184.254 C 118.286 184.535,118.286 184.712,118.567 184.886 C 119.057 185.189,119.085 189.277,118.600 189.577 C 118.391 189.706,118.334 190.502,118.462 191.485 C 118.583 192.413,118.668 193.333,118.650 193.531 C 118.632 193.729,118.510 195.067,118.379 196.505 C 118.248 197.943,118.001 199.206,117.831 199.311 C 117.660 199.417,117.520 201.021,117.520 202.875 C 117.520 204.730,117.382 206.332,117.214 206.436 C 117.045 206.541,116.813 207.865,116.699 209.381 C 116.584 210.896,116.318 212.308,116.107 212.519 C 115.896 212.729,115.723 213.759,115.723 214.807 C 115.723 215.854,115.580 216.712,115.405 216.712 C 115.230 216.712,114.976 217.599,114.841 218.683 C 114.706 219.767,114.444 220.746,114.261 220.860 C 114.077 220.974,113.926 221.533,113.926 222.102 C 113.926 222.672,113.786 223.225,113.614 223.331 C 113.442 223.437,113.190 224.660,113.053 226.048 C 112.917 227.436,112.653 228.571,112.467 228.571 C 112.281 228.571,112.129 229.068,112.129 229.675 C 112.129 230.282,111.887 231.022,111.590 231.318 C 111.294 231.615,111.051 232.321,111.051 232.889 C 111.051 233.456,110.889 234.020,110.692 234.142 C 110.494 234.264,110.332 234.840,110.332 235.421 C 110.332 236.002,110.171 236.478,109.973 236.478 C 109.775 236.478,109.614 236.865,109.614 237.338 C 109.614 237.811,109.371 238.291,109.075 238.405 C 108.778 238.519,108.530 238.981,108.524 239.432 C 108.518 239.883,108.275 240.566,107.985 240.949 C 107.695 241.333,107.457 241.939,107.457 242.297 C 107.457 242.654,107.296 242.947,107.098 242.947 C 106.900 242.947,106.739 243.443,106.739 244.049 C 106.739 244.671,106.347 245.665,105.840 246.329 C 105.346 246.977,104.942 247.836,104.942 248.238 C 104.942 248.640,104.699 249.170,104.403 249.416 C 103.643 250.047,103.733 250.461,104.582 250.239 C 105.082 250.108,105.301 250.228,105.301 250.632 C 105.301 250.951,105.156 251.213,104.980 251.213 C 104.354 251.213,102.393 253.308,102.867 253.469 C 103.119 253.555,103.004 253.573,102.613 253.510 C 101.902 253.394,94.446 257.143,94.220 257.730 C 94.154 257.901,93.871 258.041,93.591 258.041 C 93.311 258.041,93.082 258.209,93.082 258.413 C 93.082 258.617,92.477 259.141,91.739 259.577 C 90.719 260.178,90.550 260.399,91.038 260.493 C 91.391 260.561,92.070 260.361,92.548 260.048 C 93.025 259.735,93.764 259.479,94.189 259.479 C 94.811 259.479,94.930 259.310,94.798 258.620 C 94.651 257.849,94.996 257.571,98.139 255.924 C 101.864 253.973,103.188 253.567,101.490 254.897 C 100.440 255.719,99.191 256.890,99.191 257.053 C 99.191 257.102,100.566 256.991,102.246 256.804 C 103.926 256.618,105.301 256.324,105.301 256.151 C 105.301 255.627,109.690 251.607,111.296 250.660 C 112.122 250.173,114.467 248.525,116.507 246.999 C 122.398 242.590,124.533 241.298,122.011 243.667 C 121.518 244.131,121.114 244.688,121.114 244.905 C 121.114 245.123,120.427 245.969,119.587 246.785 C 116.215 250.063,110.153 256.675,110.153 257.075 C 110.153 257.310,110.881 257.599,111.770 257.717 C 112.659 257.835,113.649 258.046,113.970 258.186 C 114.396 258.374,115.116 257.809,116.665 256.071 C 117.827 254.767,121.123 251.321,123.989 248.413 C 129.078 243.251,133.848 237.931,137.466 233.385 C 138.455 232.143,141.204 228.750,143.576 225.845 C 145.948 222.939,148.535 219.715,149.326 218.680 C 152.936 213.953,157.282 208.202,157.772 207.503 C 158.705 206.171,166.809 193.950,167.632 192.633 C 168.725 190.884,171.056 187.242,171.774 186.164 C 172.103 185.669,172.896 184.376,173.537 183.288 C 174.178 182.201,175.148 180.584,175.694 179.695 C 176.239 178.805,177.253 177.026,177.946 175.741 C 179.385 173.073,182.097 168.654,182.822 167.794 C 184.054 166.333,195.628 144.907,198.383 138.989 C 198.679 138.352,199.759 136.212,200.782 134.234 C 203.649 128.690,206.439 123.073,208.191 119.317 C 209.068 117.439,210.838 113.720,212.125 111.051 C 216.139 102.732,217.507 99.779,218.021 98.324 C 218.295 97.550,218.656 96.742,218.825 96.527 C 218.994 96.312,219.464 95.247,219.870 94.160 C 220.276 93.073,220.848 91.698,221.142 91.105 C 222.772 87.810,224.978 83.047,224.978 82.821 C 224.978 82.676,225.286 81.894,225.663 81.082 C 226.041 80.269,226.625 78.958,226.961 78.167 C 227.298 77.376,227.872 76.083,228.237 75.292 C 228.603 74.501,229.561 72.237,230.368 70.261 C 232.537 64.942,234.173 61.110,235.585 58.041 C 236.040 57.053,236.843 55.112,237.370 53.729 C 237.897 52.345,238.882 50.058,239.559 48.647 C 240.237 47.236,240.791 45.987,240.791 45.872 C 240.791 45.636,242.029 42.870,244.031 38.634 C 244.778 37.053,246.231 33.738,247.259 31.267 C 248.288 28.796,249.257 26.613,249.414 26.415 C 249.570 26.217,250.833 23.792,252.220 21.024 C 256.221 13.041,259.069 8.757,263.425 4.168 L 264.676 2.850 261.502 2.924 C 259.430 2.973,258.163 3.164,257.851 3.476 M258.040 6.918 C 258.039 7.165,257.682 7.934,257.246 8.625 C 256.097 10.450,255.844 10.925,251.595 19.231 C 249.471 23.384,247.567 27.104,247.365 27.497 C 246.176 29.813,245.103 32.307,245.103 32.758 C 245.103 33.045,244.956 33.433,244.776 33.621 C 244.460 33.950,243.134 36.895,237.904 48.877 C 236.567 51.941,235.215 54.933,234.900 55.526 C 234.584 56.119,234.325 56.793,234.324 57.023 C 234.323 57.254,233.917 58.248,233.423 59.232 C 232.929 60.216,232.525 61.183,232.525 61.381 C 232.525 61.578,231.978 62.930,231.309 64.383 C 229.258 68.843,228.571 70.422,228.571 70.679 C 228.571 70.958,224.475 80.101,222.640 83.917 C 220.694 87.962,217.790 94.193,217.790 94.320 C 217.790 94.385,216.739 96.639,215.454 99.330 C 214.169 102.022,213.118 104.300,213.118 104.393 C 213.118 104.648,203.269 124.539,201.813 127.223 C 201.117 128.508,200.391 129.964,200.200 130.458 C 200.010 130.952,199.225 132.489,198.456 133.872 C 196.366 137.636,194.785 140.503,193.759 142.392 C 191.644 146.284,192.704 143.315,195.232 138.265 C 196.738 135.256,198.293 132.066,198.688 131.177 C 199.083 130.288,200.206 127.862,201.184 125.786 C 202.162 123.711,203.328 121.204,203.776 120.216 C 204.223 119.227,206.040 115.265,207.814 111.411 C 209.587 107.556,211.326 103.675,211.679 102.785 C 212.032 101.896,213.026 99.712,213.890 97.934 C 214.753 96.155,215.993 93.405,216.646 91.824 C 217.299 90.243,218.066 88.491,218.350 87.931 C 218.635 87.372,218.868 86.764,218.868 86.580 C 218.868 86.396,219.173 85.560,219.546 84.722 C 223.336 76.201,231.015 57.090,232.504 52.471 C 232.664 51.977,233.554 49.551,234.484 47.080 C 243.228 23.829,246.754 16.677,252.572 10.393 C 255.628 7.093,258.044 5.557,258.040 6.918 M159.675 195.398 C 157.964 198.192,156.756 199.996,155.125 202.191 C 154.757 202.687,154.366 203.003,154.257 202.894 C 154.147 202.785,154.540 202.089,155.128 201.348 C 155.717 200.606,157.072 198.673,158.139 197.050 C 159.945 194.303,161.118 193.043,159.675 195.398 M152.085 206.307 C 151.655 206.708,151.303 206.921,151.303 206.781 C 151.303 206.371,152.478 205.188,152.682 205.392 C 152.784 205.495,152.516 205.906,152.085 206.307 M150.225 208.625 C 149.971 208.931,149.682 209.101,149.583 209.002 C 149.484 208.903,149.611 208.572,149.865 208.266 C 150.119 207.960,150.408 207.790,150.507 207.889 C 150.606 207.988,150.479 208.319,150.225 208.625 M146.343 213.549 C 146.113 213.780,145.805 213.849,145.659 213.703 C 145.513 213.557,145.627 213.294,145.912 213.118 C 146.583 212.703,146.886 213.006,146.343 213.549 M144.709 215.497 C 144.184 216.021,143.756 216.590,143.756 216.761 C 143.756 216.931,143.575 217.071,143.355 217.071 C 142.887 217.071,143.957 215.305,144.806 214.674 C 145.773 213.956,145.709 214.496,144.709 215.497 M142.274 218.571 C 141.802 219.234,141.399 219.526,141.314 219.269 C 141.154 218.790,142.222 217.430,142.758 217.430 C 142.938 217.430,142.720 217.944,142.274 218.571 M132.969 228.841 C 132.966 228.989,132.056 230.000,130.947 231.087 C 128.579 233.409,128.505 233.019,130.817 230.402 C 132.337 228.681,132.981 228.214,132.969 228.841 M106.967 249.598 C 105.760 250.227,105.660 250.243,105.660 249.802 C 105.660 249.472,106.417 249.177,107.457 249.101 C 107.754 249.079,107.533 249.303,106.967 249.598 M107.073 250.913 C 106.210 251.538,105.187 252.345,104.799 252.706 C 104.064 253.391,103.608 253.355,104.046 252.647 C 104.346 252.160,107.852 249.820,108.320 249.794 C 108.498 249.784,107.937 250.287,107.073 250.913 M75.833 255.411 C 75.835 255.573,76.320 255.981,76.912 256.318 C 78.296 257.105,78.295 256.872,76.909 255.885 C 76.316 255.463,75.832 255.250,75.833 255.411 " stroke="none" fill="#579d98" fill-rule="evenodd"></path><path id="path2" d="M261.815 1.797 C 261.693 1.995,261.348 2.156,261.049 2.156 C 260.750 2.156,260.300 2.362,260.048 2.614 C 259.677 2.985,260.074 3.046,262.140 2.936 L 264.690 2.801 263.432 4.143 C 258.972 8.903,256.214 13.054,252.220 21.024 C 250.833 23.792,249.570 26.217,249.414 26.415 C 249.257 26.613,248.288 28.796,247.259 31.267 C 246.231 33.738,244.778 37.053,244.031 38.634 C 242.029 42.870,240.791 45.636,240.791 45.872 C 240.791 45.987,240.237 47.236,239.559 48.647 C 238.882 50.058,237.897 52.345,237.370 53.729 C 236.843 55.112,236.040 57.053,235.585 58.041 C 234.173 61.110,232.537 64.942,230.368 70.261 C 229.561 72.237,228.603 74.501,228.237 75.292 C 227.872 76.083,227.298 77.376,226.961 78.167 C 226.625 78.958,226.041 80.269,225.663 81.082 C 225.286 81.894,224.978 82.676,224.978 82.821 C 224.978 83.047,222.772 87.810,221.142 91.105 C 220.848 91.698,220.276 93.073,219.870 94.160 C 219.464 95.247,218.994 96.312,218.825 96.527 C 218.656 96.742,218.295 97.550,218.021 98.324 C 217.507 99.779,216.139 102.732,212.125 111.051 C 210.838 113.720,209.068 117.439,208.191 119.317 C 206.439 123.073,203.649 128.690,200.782 134.234 C 199.759 136.212,198.679 138.352,198.383 138.989 C 195.628 144.907,184.054 166.333,182.822 167.794 C 182.097 168.654,179.385 173.073,177.946 175.741 C 177.253 177.026,176.239 178.805,175.694 179.695 C 175.148 180.584,174.178 182.201,173.537 183.288 C 172.896 184.376,172.103 185.669,171.774 186.164 C 171.056 187.242,168.725 190.884,167.632 192.633 C 166.809 193.950,158.705 206.171,157.772 207.503 C 157.282 208.202,152.936 213.953,149.326 218.680 C 148.535 219.715,145.948 222.939,143.576 225.845 C 141.204 228.750,138.455 232.143,137.466 233.385 C 133.857 237.920,129.081 243.247,123.989 248.418 C 121.123 251.329,117.786 254.811,116.574 256.156 L 114.370 258.603 115.298 259.041 C 115.808 259.282,116.367 259.479,116.539 259.479 C 116.712 259.479,117.078 259.681,117.354 259.928 C 118.434 260.897,118.936 261.276,119.140 261.276 C 119.466 261.276,127.942 269.808,127.950 270.144 C 127.954 270.307,128.688 271.166,129.582 272.054 C 130.475 272.942,131.307 274.074,131.429 274.570 C 131.551 275.066,131.908 275.714,132.223 276.011 C 132.537 276.307,133.103 277.156,133.480 277.898 C 133.857 278.639,134.284 279.245,134.429 279.245 C 134.574 279.245,134.794 279.650,134.918 280.144 C 135.042 280.638,135.303 281.042,135.497 281.042 C 135.690 281.042,135.849 281.285,135.849 281.581 C 135.849 281.878,136.008 282.120,136.202 282.120 C 136.395 282.120,136.656 282.525,136.780 283.019 C 136.904 283.513,137.149 283.917,137.326 283.917 C 137.502 283.917,137.646 284.241,137.646 284.636 C 137.646 285.031,137.808 285.355,138.005 285.355 C 138.203 285.355,138.365 285.528,138.365 285.740 C 138.365 285.952,138.567 286.350,138.814 286.626 C 139.912 287.850,140.147 288.224,140.366 289.098 C 140.494 289.609,140.730 290.027,140.890 290.027 C 141.050 290.027,141.469 290.795,141.821 291.734 C 142.173 292.673,142.580 293.525,142.726 293.628 C 142.872 293.731,143.354 294.620,143.798 295.605 C 144.440 297.029,144.632 297.235,144.740 296.616 C 144.815 296.188,145.092 295.755,145.356 295.654 C 145.620 295.552,146.783 294.752,147.940 293.875 C 149.098 292.998,150.692 291.927,151.482 291.495 C 152.273 291.064,153.324 290.484,153.819 290.207 C 154.313 289.931,156.092 289.036,157.772 288.218 C 159.452 287.401,161.797 286.186,162.983 285.517 C 165.321 284.199,170.961 281.402,171.280 281.402 C 171.388 281.402,171.991 281.016,172.621 280.545 C 173.250 280.074,174.132 279.577,174.580 279.440 C 175.029 279.304,176.080 278.679,176.916 278.051 C 177.753 277.423,178.922 276.670,179.515 276.377 C 180.108 276.085,181.136 275.446,181.800 274.957 C 182.988 274.083,184.942 272.966,187.062 271.949 C 187.655 271.664,188.532 271.006,189.011 270.487 C 189.491 269.967,190.037 269.542,190.226 269.542 C 190.414 269.542,191.169 269.016,191.904 268.374 C 193.830 266.688,194.636 266.060,195.071 265.905 C 195.282 265.830,196.235 265.031,197.188 264.129 C 198.142 263.228,199.220 262.378,199.585 262.241 C 199.950 262.103,200.323 261.702,200.416 261.350 C 200.508 260.997,200.937 260.553,201.370 260.363 C 201.802 260.173,202.316 259.654,202.511 259.209 C 202.706 258.765,203.044 258.401,203.262 258.401 C 203.480 258.401,203.842 257.996,204.068 257.502 C 204.293 257.008,204.723 256.604,205.024 256.604 C 205.324 256.604,205.571 256.381,205.571 256.109 C 205.571 255.836,205.835 255.394,206.158 255.126 C 206.482 254.857,207.110 254.069,207.554 253.375 C 207.999 252.680,209.028 251.397,209.842 250.524 C 210.655 249.651,211.321 248.750,211.321 248.520 C 211.321 248.291,211.725 247.724,212.219 247.260 C 212.713 246.795,213.118 246.242,213.118 246.029 C 213.118 245.816,213.779 244.915,214.586 244.025 C 215.393 243.136,216.217 241.963,216.418 241.420 C 216.618 240.876,216.928 240.431,217.106 240.431 C 217.284 240.431,217.430 240.108,217.430 239.712 C 217.430 239.317,217.589 238.994,217.783 238.994 C 217.977 238.994,218.237 238.589,218.361 238.095 C 218.485 237.601,218.731 237.197,218.907 237.197 C 219.083 237.197,219.227 236.954,219.227 236.658 C 219.227 236.361,219.372 236.119,219.548 236.119 C 219.724 236.119,219.970 235.714,220.094 235.220 C 220.218 234.726,220.478 234.322,220.672 234.322 C 220.866 234.322,221.024 234.079,221.024 233.783 C 221.024 233.486,221.186 233.243,221.384 233.243 C 221.581 233.243,221.744 232.960,221.745 232.615 C 221.746 232.269,221.971 231.557,222.245 231.032 C 222.519 230.508,222.930 229.510,223.160 228.815 C 223.389 228.119,223.811 227.356,224.097 227.119 C 224.384 226.881,224.618 226.312,224.618 225.853 C 224.618 225.395,224.780 224.920,224.978 224.798 C 225.175 224.676,225.337 224.327,225.337 224.022 C 225.337 223.485,225.609 222.802,227.322 219.048 C 227.773 218.059,228.421 216.280,228.762 215.094 C 229.103 213.908,229.524 212.784,229.696 212.597 C 229.868 212.409,230.009 211.893,230.009 211.450 C 230.009 211.007,230.152 210.556,230.328 210.447 C 230.503 210.339,230.760 209.642,230.899 208.899 C 231.038 208.155,231.281 207.385,231.438 207.188 C 231.596 206.990,232.006 205.858,232.350 204.672 C 232.693 203.486,233.093 202.192,233.239 201.797 C 233.907 199.982,234.322 198.452,234.322 197.800 C 234.322 197.409,234.458 196.935,234.624 196.748 C 234.790 196.560,235.450 194.142,236.089 191.375 C 236.729 188.607,237.401 185.847,237.584 185.240 C 237.766 184.633,237.916 183.775,237.916 183.335 C 237.916 182.894,238.134 182.097,238.401 181.563 C 238.669 181.030,239.090 179.299,239.338 177.718 C 239.585 176.137,240.105 173.306,240.493 171.429 C 240.881 169.551,241.417 166.801,241.684 165.319 C 241.952 163.836,242.361 161.977,242.594 161.186 C 242.827 160.395,243.242 158.131,243.516 156.155 C 243.790 154.178,244.179 152.189,244.379 151.735 C 244.580 151.281,244.897 149.179,245.085 147.063 C 245.273 144.948,245.667 142.082,245.961 140.696 C 246.255 139.310,246.580 137.207,246.684 136.024 C 246.787 134.841,247.212 131.770,247.628 129.200 C 248.043 126.631,248.613 122.992,248.895 121.114 C 249.585 116.509,250.076 113.426,250.500 111.030 C 250.694 109.931,250.854 108.347,250.854 107.510 C 250.854 106.674,251.084 104.824,251.366 103.399 C 251.648 101.974,252.057 99.111,252.275 97.035 C 252.494 94.960,252.822 92.534,253.005 91.644 C 253.706 88.236,255.191 78.369,255.520 74.933 C 255.709 72.956,256.369 68.428,256.985 64.870 C 257.602 61.312,258.230 57.592,258.382 56.604 C 260.822 40.666,262.578 31.909,264.366 26.762 C 264.643 25.965,264.870 25.100,264.870 24.840 C 264.870 24.580,265.105 23.858,265.393 23.235 C 265.681 22.612,266.250 21.196,266.657 20.089 C 268.007 16.419,271.210 13.960,273.525 14.816 C 273.979 14.984,274.805 15.022,275.360 14.900 C 275.916 14.778,276.370 14.832,276.370 15.019 C 276.370 15.207,277.175 15.468,278.159 15.598 C 281.688 16.067,288.979 24.249,293.880 33.243 C 295.829 36.819,303.146 51.482,303.654 52.830 C 303.915 53.522,304.456 54.816,304.856 55.705 C 305.768 57.729,307.790 62.707,308.924 65.721 C 309.398 66.979,310.349 69.324,311.037 70.932 C 312.343 73.980,313.550 77.139,315.037 81.402 C 315.519 82.785,316.159 84.437,316.458 85.073 C 316.758 85.708,317.409 87.487,317.905 89.026 C 318.401 90.565,319.124 92.509,319.512 93.347 C 319.899 94.185,320.216 95.115,320.216 95.414 C 320.216 95.713,320.387 95.957,320.596 95.957 C 320.806 95.957,320.894 96.091,320.793 96.254 C 320.692 96.418,321.339 98.641,322.232 101.196 C 323.124 103.750,324.231 106.966,324.692 108.343 C 325.153 109.720,325.701 110.903,325.908 110.972 C 326.115 111.041,326.209 111.295,326.117 111.536 C 326.024 111.778,326.370 113.101,326.885 114.478 C 327.400 115.855,328.046 117.790,328.320 118.778 C 328.594 119.766,329.054 121.141,329.342 121.833 C 329.630 122.525,330.620 125.517,331.542 128.482 C 332.463 131.447,333.360 134.196,333.535 134.591 C 333.710 134.987,334.083 135.957,334.364 136.748 C 334.644 137.538,335.051 138.670,335.267 139.263 C 335.482 139.856,336.012 141.530,336.444 142.983 C 336.876 144.435,337.437 145.831,337.690 146.084 C 337.944 146.338,338.071 146.625,337.974 146.722 C 337.877 146.819,338.056 147.606,338.373 148.472 C 339.098 150.456,339.983 153.645,340.230 155.166 C 340.335 155.809,340.551 156.334,340.710 156.334 C 340.870 156.334,341.177 157.155,341.392 158.159 C 341.607 159.162,342.165 160.820,342.632 161.843 C 343.099 162.865,343.596 164.268,343.736 164.960 C 343.875 165.651,344.281 166.864,344.637 167.655 C 344.992 168.446,345.397 169.659,345.535 170.350 C 345.673 171.042,346.113 172.326,346.512 173.203 C 346.911 174.080,347.324 175.334,347.430 175.988 C 347.536 176.643,347.745 177.179,347.895 177.179 C 348.044 177.179,348.252 177.624,348.356 178.167 C 348.711 180.019,349.374 182.388,349.715 183.022 C 350.297 184.105,353.899 194.184,354.177 195.508 C 354.322 196.199,354.567 196.927,354.721 197.125 C 354.876 197.323,355.213 198.212,355.471 199.102 C 355.729 199.991,356.031 200.800,356.143 200.898 C 356.339 201.071,357.046 203.339,357.487 205.211 C 357.604 205.705,357.805 206.190,357.934 206.289 C 358.335 206.596,359.300 208.923,359.575 210.243 C 359.718 210.934,360.140 212.100,360.511 212.834 C 360.882 213.567,361.186 214.461,361.186 214.820 C 361.186 215.180,361.637 216.359,362.188 217.440 C 362.740 218.522,363.583 220.701,364.063 222.282 C 364.543 223.863,365.029 225.238,365.143 225.337 C 365.256 225.436,365.573 226.244,365.846 227.134 C 366.119 228.023,366.548 229.155,366.798 229.650 C 367.048 230.144,367.518 231.395,367.841 232.431 C 368.164 233.466,368.578 234.406,368.761 234.518 C 368.943 234.631,369.093 235.036,369.093 235.418 C 369.093 235.801,369.901 237.798,370.889 239.858 C 371.878 241.917,372.686 243.783,372.686 244.006 C 372.686 244.228,372.969 244.842,373.315 245.369 C 373.969 246.367,374.762 248.292,375.094 249.686 C 375.199 250.130,375.416 250.494,375.575 250.494 C 375.734 250.494,375.972 251.020,376.103 251.662 C 376.437 253.290,377.723 255.924,378.076 255.706 C 378.238 255.606,378.285 255.848,378.182 256.244 C 378.076 256.646,378.170 256.963,378.395 256.963 C 378.615 256.963,378.796 257.304,378.796 257.720 C 378.796 258.207,378.969 258.411,379.279 258.292 C 379.631 258.157,379.714 258.358,379.585 259.031 C 379.438 259.804,379.514 259.915,380.052 259.709 C 380.581 259.506,380.618 259.554,380.264 259.982 C 379.825 260.511,380.396 261.995,381.039 261.995 C 381.189 261.995,381.312 262.237,381.312 262.534 C 381.312 262.830,381.483 263.073,381.692 263.073 C 381.902 263.073,381.959 263.275,381.819 263.522 C 381.624 263.868,381.671 263.874,382.022 263.550 C 382.272 263.318,382.700 263.214,382.973 263.319 C 383.245 263.424,383.468 263.328,383.468 263.106 C 383.468 262.698,383.316 262.347,382.262 260.322 C 381.937 259.698,381.671 258.930,381.671 258.615 C 381.671 258.299,381.509 258.041,381.312 258.041 C 381.114 258.041,380.952 257.783,380.952 257.467 C 380.952 257.151,380.710 256.342,380.413 255.670 C 380.117 254.997,379.632 253.897,379.335 253.225 C 379.039 252.553,378.796 251.830,378.796 251.619 C 378.796 251.407,378.417 250.380,377.954 249.337 C 377.491 248.293,376.899 246.509,376.639 245.373 C 376.378 244.236,376.052 243.306,375.912 243.306 C 375.773 243.306,375.380 242.538,375.038 241.599 C 374.696 240.660,374.027 239.039,373.552 237.996 C 373.076 236.952,372.686 235.861,372.686 235.570 C 372.686 235.279,372.525 235.040,372.327 235.040 C 372.129 235.040,371.968 234.727,371.968 234.343 C 371.968 233.959,371.797 233.540,371.589 233.411 C 371.381 233.283,371.277 232.990,371.358 232.761 C 371.439 232.532,371.231 231.941,370.894 231.447 C 370.558 230.952,369.976 229.659,369.601 228.571 C 369.226 227.484,368.816 226.514,368.691 226.415 C 368.566 226.316,368.346 225.669,368.201 224.978 C 368.056 224.286,367.551 222.938,367.078 221.983 C 366.605 221.028,366.217 219.775,366.217 219.198 C 366.217 218.621,366.056 218.149,365.858 218.149 C 365.660 218.149,365.499 217.907,365.499 217.610 C 365.499 217.314,365.355 217.071,365.179 217.071 C 365.004 217.071,364.751 216.491,364.618 215.781 C 364.329 214.243,363.691 212.758,363.318 212.758 C 363.171 212.758,362.939 211.950,362.803 210.961 C 362.667 209.973,362.410 209.164,362.230 209.164 C 362.051 209.164,361.905 208.922,361.905 208.625 C 361.905 208.329,361.753 208.086,361.567 208.086 C 361.382 208.086,361.121 207.357,360.987 206.465 C 360.853 205.573,360.601 204.754,360.426 204.646 C 360.251 204.538,360.108 204.136,360.108 203.752 C 360.108 203.369,359.953 203.055,359.765 203.055 C 359.576 203.055,359.318 202.448,359.191 201.707 C 358.926 200.160,358.241 198.383,357.910 198.383 C 357.787 198.383,357.600 197.620,357.494 196.687 C 357.389 195.755,357.126 194.933,356.909 194.861 C 356.692 194.788,356.514 194.419,356.514 194.040 C 356.514 193.661,356.371 193.351,356.196 193.351 C 356.021 193.351,355.767 192.462,355.631 191.375 C 355.495 190.288,355.234 189.398,355.051 189.398 C 354.867 189.398,354.717 189.075,354.717 188.679 C 354.717 188.284,354.576 187.960,354.404 187.960 C 354.231 187.960,353.987 187.316,353.861 186.528 C 353.735 185.740,353.337 184.567,352.976 183.922 C 352.615 183.277,352.221 182.131,352.099 181.375 C 351.844 179.785,351.071 177.898,350.676 177.898 C 350.527 177.898,350.404 177.270,350.404 176.504 C 350.404 175.704,350.175 174.920,349.865 174.663 C 349.569 174.417,349.326 173.922,349.326 173.562 C 349.326 173.203,349.164 172.809,348.967 172.686 C 348.769 172.564,348.607 172.045,348.607 171.533 C 348.607 171.021,348.217 169.777,347.739 168.769 C 347.262 167.761,346.767 166.168,346.639 165.229 C 346.512 164.290,346.288 163.522,346.142 163.522 C 345.843 163.522,345.193 161.778,344.835 160.018 C 344.704 159.376,344.448 158.850,344.266 158.850 C 344.084 158.850,343.935 158.365,343.935 157.772 C 343.935 157.179,343.795 156.694,343.623 156.694 C 343.452 156.694,343.219 156.010,343.107 155.174 C 342.995 154.338,342.731 153.597,342.521 153.527 C 342.311 153.457,342.138 152.937,342.138 152.372 C 342.138 151.807,341.998 151.258,341.826 151.152 C 341.654 151.046,341.410 150.309,341.283 149.514 C 341.156 148.719,340.892 148.068,340.697 148.068 C 340.501 148.068,340.341 147.502,340.341 146.810 C 340.341 146.119,340.194 145.553,340.014 145.553 C 339.833 145.553,339.577 144.906,339.443 144.115 C 339.309 143.324,339.053 142.677,338.872 142.677 C 338.692 142.677,338.544 142.202,338.544 141.620 C 338.544 141.039,338.383 140.464,338.185 140.341 C 337.987 140.219,337.826 139.736,337.826 139.268 C 337.826 138.799,337.583 138.174,337.287 137.877 C 336.990 137.581,336.748 136.932,336.748 136.435 C 336.748 135.938,336.600 135.441,336.419 135.329 C 336.239 135.218,335.982 134.480,335.849 133.691 C 335.715 132.901,335.459 132.255,335.278 132.255 C 335.098 132.255,334.951 131.760,334.951 131.156 C 334.951 130.551,334.809 130.144,334.637 130.250 C 334.464 130.357,334.216 129.639,334.085 128.654 C 333.955 127.670,333.692 126.864,333.501 126.864 C 333.310 126.864,333.154 126.379,333.154 125.786 C 333.154 125.193,333.010 124.708,332.835 124.708 C 332.660 124.708,332.407 123.980,332.274 123.091 C 332.141 122.201,331.880 121.473,331.694 121.473 C 331.509 121.473,331.357 120.998,331.357 120.417 C 331.357 119.835,331.195 119.260,330.997 119.137 C 330.800 119.015,330.638 118.666,330.638 118.362 C 330.638 118.058,330.406 117.299,330.123 116.676 C 329.840 116.053,329.344 114.739,329.022 113.755 C 328.699 112.772,328.318 111.802,328.175 111.599 C 328.032 111.397,327.866 110.746,327.805 110.153 C 327.744 109.560,327.548 109.021,327.369 108.955 C 327.190 108.889,327.044 108.480,327.044 108.046 C 327.044 107.613,326.837 106.939,326.584 106.549 C 326.331 106.159,326.072 105.355,326.008 104.762 C 325.944 104.169,325.776 103.603,325.634 103.504 C 325.309 103.278,322.372 94.700,322.372 93.976 C 322.372 93.682,322.210 93.441,322.013 93.441 C 321.815 93.441,321.653 93.217,321.653 92.943 C 321.653 92.669,321.412 91.982,321.116 91.416 C 320.821 90.850,320.578 90.098,320.577 89.745 C 320.576 89.392,320.350 88.745,320.076 88.307 C 319.801 87.869,319.366 86.662,319.109 85.624 C 318.852 84.587,318.542 83.738,318.419 83.738 C 318.296 83.738,317.896 82.727,317.530 81.491 C 317.164 80.256,316.761 79.164,316.636 79.066 C 316.510 78.967,316.107 77.875,315.739 76.640 C 315.371 75.404,314.948 74.394,314.799 74.394 C 314.650 74.394,314.419 73.747,314.286 72.958 C 314.153 72.168,313.896 71.431,313.715 71.319 C 313.535 71.208,313.387 70.791,313.387 70.393 C 313.387 69.996,313.145 69.428,312.848 69.131 C 312.552 68.835,312.289 68.280,312.264 67.899 C 312.174 66.504,311.634 65.049,311.207 65.049 C 311.022 65.049,310.872 64.753,310.872 64.391 C 310.872 64.028,310.759 63.619,310.622 63.482 C 310.484 63.344,310.340 63.014,310.301 62.749 C 310.262 62.483,309.983 61.719,309.681 61.052 C 309.379 60.384,309.017 59.434,308.876 58.940 C 308.736 58.446,308.342 57.637,308.002 57.143 C 307.661 56.649,307.266 55.759,307.123 55.166 C 306.980 54.573,306.327 52.956,305.670 51.572 C 305.014 50.189,304.209 48.410,303.883 47.619 C 303.557 46.828,303.107 45.858,302.884 45.463 C 302.417 44.636,301.789 43.374,301.147 41.971 C 300.901 41.434,300.563 41.080,300.395 41.184 C 300.227 41.287,300.090 40.958,300.090 40.452 C 300.090 39.947,299.928 39.533,299.730 39.533 C 299.533 39.533,299.371 39.229,299.371 38.858 C 299.371 38.487,299.128 37.982,298.832 37.736 C 298.535 37.490,298.293 36.985,298.293 36.614 C 298.293 36.243,298.131 35.939,297.934 35.939 C 297.736 35.939,297.574 35.635,297.574 35.264 C 297.574 34.893,297.332 34.388,297.035 34.142 C 296.739 33.896,296.496 33.497,296.496 33.255 C 296.496 32.672,295.462 30.618,295.036 30.354 C 294.850 30.240,294.699 29.832,294.699 29.449 C 294.699 29.065,294.537 28.751,294.340 28.751 C 294.142 28.751,293.980 28.445,293.980 28.071 C 293.980 27.697,293.738 27.297,293.441 27.184 C 293.145 27.070,292.902 26.648,292.902 26.247 C 292.902 25.845,292.740 25.517,292.543 25.517 C 292.345 25.517,292.183 25.294,292.183 25.022 C 292.183 24.749,291.941 24.325,291.644 24.079 C 291.348 23.833,291.105 23.323,291.105 22.946 C 291.105 22.568,290.863 22.166,290.566 22.053 C 290.270 21.939,290.027 21.621,290.027 21.345 C 290.027 21.070,289.865 20.845,289.668 20.845 C 289.470 20.845,289.308 20.521,289.308 20.126 C 289.308 19.730,289.160 19.407,288.978 19.407 C 288.797 19.407,288.274 18.801,287.817 18.059 C 287.027 16.778,286.732 16.384,285.265 14.650 C 284.919 14.241,284.636 13.773,284.636 13.611 C 284.636 13.167,277.021 5.750,276.565 5.750 C 276.458 5.750,276.075 5.467,275.714 5.121 C 274.335 3.798,272.956 2.875,272.360 2.875 C 272.019 2.875,271.641 2.713,271.518 2.516 C 271.396 2.318,270.740 2.156,270.060 2.156 C 269.379 2.156,268.823 1.995,268.823 1.797 C 268.823 1.583,267.452 1.438,265.430 1.438 C 263.556 1.438,261.938 1.598,261.815 1.797 M254.391 5.750 C 253.770 6.343,253.123 6.828,252.953 6.828 C 252.508 6.828,250.345 8.956,250.566 9.176 C 250.668 9.278,250.956 9.115,251.206 8.814 C 251.456 8.512,251.953 8.266,252.311 8.266 C 252.669 8.266,253.061 7.951,253.184 7.566 C 253.306 7.180,253.681 6.772,254.017 6.658 C 254.601 6.460,256.133 4.672,255.719 4.672 C 255.609 4.672,255.011 5.157,254.391 5.750 M246.810 13.107 C 246.091 14.096,246.011 14.492,246.568 14.307 C 246.780 14.236,246.954 14.020,246.953 13.827 C 246.952 13.635,247.208 13.194,247.521 12.848 C 247.834 12.502,247.943 12.224,247.765 12.231 C 247.586 12.237,247.156 12.631,246.810 13.107 M244.768 15.890 C 244.487 16.525,243.881 17.392,243.422 17.818 C 242.963 18.243,242.588 18.775,242.588 18.999 C 242.588 19.223,242.426 19.407,242.228 19.407 C 242.031 19.407,241.869 19.550,241.869 19.725 C 241.869 20.053,239.030 24.475,238.614 24.798 C 238.486 24.897,238.083 25.624,237.719 26.415 C 237.354 27.206,236.845 27.982,236.587 28.140 C 236.329 28.298,236.119 28.578,236.119 28.762 C 236.119 28.946,235.553 29.981,234.861 31.063 C 234.169 32.144,233.603 33.181,233.603 33.367 C 233.603 33.553,233.360 33.799,233.064 33.913 C 232.767 34.026,232.525 34.448,232.525 34.849 C 232.525 35.251,232.363 35.580,232.165 35.580 C 231.968 35.580,231.806 35.886,231.806 36.260 C 231.806 36.634,231.563 37.033,231.267 37.147 C 230.970 37.261,230.728 37.647,230.728 38.005 C 230.728 38.363,230.410 38.884,230.022 39.164 C 229.634 39.444,229.217 40.126,229.095 40.681 C 228.973 41.235,228.725 41.689,228.543 41.689 C 228.361 41.689,228.212 41.914,228.212 42.190 C 228.212 42.465,227.969 42.783,227.673 42.897 C 227.376 43.011,227.134 43.423,227.134 43.814 C 227.134 44.204,226.812 44.749,226.418 45.025 C 226.024 45.301,225.599 46.038,225.474 46.663 C 225.347 47.301,225.022 47.799,224.735 47.799 C 224.453 47.799,223.983 48.372,223.690 49.072 C 223.397 49.773,222.930 50.433,222.652 50.540 C 222.374 50.647,222.034 51.246,221.896 51.872 C 221.759 52.497,221.368 53.252,221.027 53.549 C 220.687 53.845,220.281 54.492,220.126 54.987 C 219.970 55.481,219.543 56.147,219.176 56.466 C 218.809 56.786,218.509 57.223,218.509 57.438 C 218.509 57.653,218.137 58.200,217.683 58.654 C 217.229 59.108,216.542 60.045,216.156 60.737 C 215.770 61.429,215.252 62.124,215.004 62.282 C 214.757 62.440,214.555 62.723,214.555 62.911 C 214.555 63.099,214.272 63.552,213.926 63.917 C 212.762 65.148,212.040 66.133,212.040 66.491 C 212.040 66.686,211.878 66.846,211.680 66.846 C 211.482 66.846,211.321 67.098,211.321 67.407 C 211.321 67.954,209.555 70.446,208.407 71.518 C 208.090 71.815,207.717 72.413,207.580 72.848 C 207.443 73.282,207.016 73.738,206.630 73.860 C 206.245 73.983,205.930 74.322,205.930 74.614 C 205.930 75.108,203.948 77.446,202.066 79.172 C 201.622 79.580,201.258 80.110,201.258 80.350 C 201.258 80.590,201.015 80.879,200.719 80.992 C 200.422 81.106,200.180 81.517,200.180 81.905 C 200.180 82.293,199.865 82.711,199.479 82.833 C 199.094 82.956,198.681 83.363,198.562 83.738 C 198.443 84.113,198.039 84.517,197.664 84.636 C 197.289 84.755,196.882 85.168,196.760 85.553 C 196.637 85.938,196.393 86.253,196.217 86.253 C 195.823 86.253,194.070 88.107,194.070 88.524 C 194.070 88.876,192.078 90.925,191.736 90.925 C 191.465 90.925,190.208 92.007,189.146 93.154 C 188.908 93.411,188.504 93.815,188.247 94.053 C 187.991 94.290,187.586 94.695,187.349 94.951 C 186.668 95.686,185.857 96.316,185.591 96.316 C 185.457 96.316,184.973 96.721,184.515 97.215 C 184.057 97.709,183.553 98.118,183.395 98.123 C 183.238 98.128,182.408 98.775,181.551 99.560 C 180.694 100.346,179.764 100.988,179.484 100.988 C 179.204 100.988,178.976 101.150,178.976 101.348 C 178.976 101.545,178.714 101.707,178.395 101.707 C 178.076 101.707,177.065 102.248,176.149 102.908 C 174.081 104.400,170.363 106.196,168.104 106.795 C 167.165 107.043,166.397 107.367,166.397 107.514 C 166.397 107.661,165.423 107.891,164.233 108.026 C 163.042 108.161,161.982 108.411,161.876 108.583 C 161.769 108.754,161.288 108.895,160.805 108.895 C 160.323 108.895,159.928 109.039,159.928 109.214 C 159.928 109.390,159.390 109.635,158.733 109.758 C 158.076 109.881,157.193 110.303,156.772 110.696 C 156.350 111.089,155.850 111.411,155.660 111.411 C 155.210 111.411,153.092 112.541,152.462 113.118 C 152.191 113.365,151.757 113.567,151.497 113.567 C 151.236 113.567,150.641 113.900,150.175 114.307 L 149.326 115.047 150.225 114.545 C 150.823 114.211,152.102 114.066,154.056 114.110 C 165.630 114.374,181.094 105.413,194.792 90.503 C 199.016 85.905,203.799 80.410,204.435 79.425 C 204.754 78.931,206.059 77.233,207.334 75.651 C 208.610 74.070,210.381 71.644,211.270 70.261 C 212.159 68.877,212.987 67.664,213.111 67.565 C 213.234 67.466,214.055 66.334,214.934 65.049 C 215.813 63.765,216.619 62.633,216.725 62.534 C 216.899 62.372,219.325 58.690,223.360 52.463 C 226.408 47.761,227.462 46.028,228.802 43.521 C 230.778 39.825,230.905 39.611,231.568 38.878 C 231.897 38.515,232.165 38.040,232.165 37.823 C 232.165 37.606,232.378 37.214,232.638 36.953 C 234.014 35.570,238.159 28.176,237.987 27.412 C 237.853 26.815,238.730 25.233,240.009 23.766 C 240.590 23.100,241.420 21.847,241.852 20.981 C 242.284 20.115,242.788 19.407,242.972 19.407 C 243.156 19.407,243.306 19.191,243.306 18.926 C 243.306 18.662,244.023 17.739,244.899 16.876 C 246.415 15.382,246.660 14.735,245.709 14.735 C 245.472 14.735,245.049 15.255,244.768 15.890 M198.023 117.122 C 195.962 117.577,183.187 124.278,179.602 126.785 C 178.675 127.434,176.887 128.426,175.629 128.991 C 174.370 129.555,172.708 130.416,171.935 130.904 C 171.162 131.392,170.126 131.913,169.632 132.062 C 169.137 132.210,166.823 133.287,164.489 134.454 C 160.274 136.562,159.414 136.915,152.621 139.327 C 147.284 141.223,137.183 143.285,130.997 143.741 C 127.395 144.007,126.877 143.965,125.158 143.265 C 123.323 142.519,122.669 141.543,123.720 141.119 C 123.971 141.017,123.998 140.925,123.779 140.909 C 123.321 140.876,121.473 142.866,121.473 143.393 C 121.473 143.592,121.323 143.756,121.138 143.756 C 120.954 143.756,120.708 144.054,120.592 144.420 C 120.477 144.785,119.657 145.873,118.771 146.838 C 117.886 147.802,117.161 148.705,117.161 148.843 C 117.161 148.982,116.959 149.309,116.712 149.571 C 115.666 150.680,115.131 151.524,115.813 150.989 C 116.607 150.367,117.520 151.001,117.520 152.175 C 117.520 152.607,118.102 153.514,118.818 154.197 C 119.531 154.878,121.369 156.972,122.902 158.850 C 125.898 162.520,128.524 165.097,131.751 167.533 C 132.866 168.375,134.284 169.536,134.902 170.113 C 135.520 170.690,136.996 171.904,138.183 172.810 C 139.370 173.717,140.503 174.659,140.701 174.905 C 140.898 175.151,141.654 175.803,142.380 176.355 C 143.105 176.907,144.642 178.075,145.794 178.950 C 146.946 179.826,148.697 181.244,149.686 182.101 C 152.524 184.564,160.674 190.836,161.037 190.836 C 161.482 190.836,161.456 192.175,161.006 192.453 C 160.543 192.739,160.541 193.351,161.003 193.351 C 161.198 193.351,161.966 192.421,162.709 191.285 C 163.451 190.148,164.160 189.137,164.283 189.039 C 165.168 188.327,180.054 164.024,180.054 163.290 C 180.054 163.200,181.536 160.587,183.348 157.484 C 186.825 151.530,198.456 128.788,199.743 125.427 C 200.160 124.340,201.091 122.105,201.813 120.461 C 202.535 118.816,203.051 117.396,202.959 117.305 C 202.630 116.976,199.255 116.851,198.023 117.122 M125.606 138.146 C 124.144 139.886,123.972 140.216,125.064 139.185 C 125.737 138.549,126.216 137.959,126.127 137.873 C 126.038 137.788,125.804 137.911,125.606 138.146 M158.139 197.050 C 157.072 198.673,155.717 200.606,155.128 201.348 C 154.540 202.089,154.147 202.785,154.257 202.894 C 154.554 203.192,156.829 200.046,159.675 195.398 C 161.118 193.043,159.945 194.303,158.139 197.050 M151.900 205.866 C 151.029 206.828,151.169 207.161,152.085 206.307 C 152.516 205.906,152.784 205.495,152.682 205.392 C 152.580 205.290,152.228 205.503,151.900 205.866 M149.865 208.266 C 149.611 208.572,149.484 208.903,149.583 209.002 C 149.682 209.101,149.971 208.931,150.225 208.625 C 150.479 208.319,150.606 207.988,150.507 207.889 C 150.408 207.790,150.119 207.960,149.865 208.266 M145.912 213.118 C 145.627 213.294,145.513 213.557,145.659 213.703 C 145.805 213.849,146.113 213.780,146.343 213.549 C 146.886 213.006,146.583 212.703,145.912 213.118 M144.806 214.674 C 143.957 215.305,142.887 217.071,143.355 217.071 C 143.575 217.071,143.756 216.931,143.756 216.761 C 143.756 216.590,144.184 216.021,144.709 215.497 C 145.709 214.496,145.773 213.956,144.806 214.674 M141.798 218.128 C 141.450 218.512,141.233 219.026,141.314 219.269 C 141.399 219.526,141.802 219.234,142.274 218.571 C 143.160 217.326,142.814 217.005,141.798 218.128 M130.817 230.402 C 128.505 233.019,128.579 233.409,130.947 231.087 C 132.056 230.000,132.966 228.989,132.969 228.841 C 132.981 228.214,132.337 228.681,130.817 230.402 M106.148 251.024 C 104.340 252.209,103.638 252.905,103.943 253.210 C 104.027 253.293,104.412 253.067,104.799 252.706 C 105.187 252.345,106.210 251.538,107.073 250.913 C 109.151 249.407,108.493 249.486,106.148 251.024 M98.055 255.951 C 95.598 257.252,94.641 257.940,94.781 258.305 C 94.995 258.864,97.256 258.653,97.916 258.013 C 98.103 257.831,98.629 257.682,99.084 257.682 C 99.538 257.682,99.910 257.511,99.910 257.301 C 99.910 257.092,99.748 257.021,99.551 257.143 C 98.328 257.898,99.731 256.274,101.490 254.897 C 103.207 253.552,101.730 254.006,98.055 255.951 M382.762 264.487 C 382.253 265.438,382.295 265.702,382.918 265.463 C 383.208 265.352,383.541 265.415,383.657 265.604 C 383.774 265.793,383.699 265.948,383.489 265.948 C 383.280 265.948,383.109 266.127,383.109 266.346 C 383.109 266.565,383.360 266.647,383.666 266.530 C 383.986 266.407,384.131 266.467,384.005 266.671 C 383.884 266.866,383.956 267.026,384.166 267.026 C 384.375 267.026,384.546 267.278,384.546 267.586 C 384.546 267.895,384.386 268.048,384.191 267.927 C 383.983 267.799,383.929 267.952,384.061 268.295 C 384.239 268.757,384.349 268.782,384.578 268.413 C 384.935 267.834,385.602 269.376,385.420 270.360 C 385.356 270.711,385.456 270.904,385.643 270.788 C 385.831 270.672,385.984 270.749,385.984 270.958 C 385.984 271.670,386.073 271.878,386.747 272.735 C 387.118 273.206,387.421 274.146,387.421 274.823 C 387.421 275.499,387.572 275.960,387.756 275.846 C 388.190 275.578,388.483 276.074,388.579 277.237 C 388.622 277.748,388.783 278.167,388.937 278.167 C 389.092 278.167,389.199 278.288,389.176 278.437 C 389.057 279.186,389.258 279.964,389.569 279.964 C 389.985 279.964,389.607 277.685,389.161 277.508 C 388.995 277.442,388.859 277.088,388.859 276.721 C 388.859 276.354,388.697 275.953,388.500 275.831 C 388.302 275.709,388.140 275.224,388.140 274.753 C 388.140 274.282,387.976 273.795,387.775 273.671 C 387.574 273.547,387.503 273.295,387.616 273.111 C 387.730 272.927,387.652 272.776,387.443 272.776 C 387.233 272.776,387.062 272.382,387.062 271.899 C 387.062 271.417,386.900 270.922,386.703 270.800 C 386.505 270.677,386.343 270.275,386.343 269.906 C 386.343 269.536,386.101 268.991,385.804 268.695 C 385.508 268.398,385.265 267.740,385.265 267.231 C 385.265 266.723,385.121 266.307,384.946 266.307 C 384.770 266.307,384.520 265.741,384.390 265.049 C 384.129 263.655,383.351 263.386,382.762 264.487 M357.233 266.180 C 357.233 266.706,359.403 268.570,359.686 268.287 C 359.816 268.157,359.638 267.891,359.291 267.697 C 358.943 267.503,358.338 266.999,357.946 266.578 C 357.554 266.157,357.233 265.978,357.233 266.180 M365.704 274.248 C 366.283 274.958,366.829 275.479,366.918 275.404 C 367.006 275.330,366.533 274.749,365.866 274.112 L 364.652 272.956 365.704 274.248 M390.857 282.570 C 391.232 283.784,392.125 285.443,392.306 285.262 C 392.394 285.174,392.221 284.634,391.922 284.061 C 391.624 283.488,391.378 282.736,391.377 282.390 C 391.376 282.044,391.202 281.761,390.991 281.761 C 390.759 281.761,390.706 282.080,390.857 282.570 M394.147 289.668 C 394.550 290.359,394.981 291.168,395.106 291.465 C 395.230 291.761,395.244 291.545,395.136 290.985 C 395.028 290.424,394.597 289.616,394.178 289.188 L 393.416 288.410 394.147 289.668 M383.675 291.059 C 384.055 291.429,384.430 291.675,384.508 291.607 C 384.734 291.406,383.776 290.386,383.361 290.386 C 383.153 290.386,383.294 290.689,383.675 291.059 M387.323 294.146 C 387.674 294.620,388.243 295.085,388.589 295.179 C 389.594 295.453,389.292 294.945,387.937 294.081 L 386.685 293.283 387.323 294.146 M392.273 298.133 C 392.866 298.626,393.564 299.204,393.824 299.416 C 394.084 299.629,394.375 299.725,394.470 299.630 C 394.676 299.424,391.944 297.210,391.503 297.226 C 391.333 297.232,391.680 297.641,392.273 298.133 M398.244 298.293 C 398.261 298.589,398.404 299.236,398.562 299.730 L 398.850 300.629 398.881 299.730 C 398.897 299.236,398.754 298.589,398.562 298.293 C 398.253 297.814,398.217 297.814,398.244 298.293 M394.969 300.039 C 394.969 300.408,396.057 300.918,396.309 300.667 C 396.396 300.579,396.130 300.327,395.718 300.106 C 395.306 299.886,394.969 299.855,394.969 300.039 M397.484 301.887 C 398.370 302.655,399.641 302.854,399.641 302.225 C 399.641 302.016,399.508 301.927,399.345 302.027 C 399.183 302.127,398.598 301.975,398.046 301.689 C 396.672 300.976,396.503 301.036,397.484 301.887 " stroke="none" fill="#51201b" fill-rule="evenodd"></path><path id="path3" d="M269.405 23.834 C 266.564 26.859,264.371 37.062,262.904 54.088 C 261.820 66.668,261.433 93.277,262.152 105.840 C 262.300 108.410,262.460 111.402,262.509 112.489 C 262.735 117.528,263.477 128.448,263.797 131.447 C 263.992 133.275,264.312 136.267,264.508 138.095 C 264.705 139.924,265.114 144.088,265.417 147.350 C 265.924 152.804,266.073 154.170,266.499 157.233 C 266.581 157.826,266.737 160.171,266.847 162.444 C 267.054 166.779,267.610 171.110,268.114 172.327 C 268.278 172.722,268.515 175.067,268.642 177.538 C 268.768 180.009,269.023 182.084,269.207 182.150 C 269.391 182.216,269.542 183.537,269.542 185.085 C 269.542 186.837,269.693 187.951,269.943 188.034 C 270.204 188.121,270.410 190.136,270.533 193.814 C 270.638 196.920,270.862 199.461,271.031 199.461 C 271.200 199.461,271.339 200.580,271.339 201.947 C 271.339 203.373,271.501 204.486,271.719 204.559 C 271.966 204.641,272.174 208.102,272.314 214.472 C 272.433 219.855,272.666 224.259,272.833 224.259 C 272.999 224.259,273.136 225.714,273.136 227.493 C 273.136 229.410,272.989 230.728,272.776 230.728 C 272.579 230.728,272.417 231.536,272.417 232.525 C 272.417 233.513,272.579 234.322,272.776 234.322 C 273.292 234.322,273.220 235.300,272.686 235.550 C 272.327 235.717,272.327 235.801,272.686 235.969 C 273.216 236.216,273.297 238.520,272.782 238.694 C 272.413 238.819,272.217 273.415,272.583 273.781 C 272.689 273.887,272.776 273.801,272.776 273.589 C 272.776 273.372,273.130 273.287,273.585 273.394 C 274.386 273.583,274.387 273.579,273.675 272.974 C 273.279 272.638,273.166 272.471,273.424 272.603 C 273.695 272.741,274.261 272.442,274.771 271.892 C 275.259 271.366,275.656 271.151,275.662 271.410 C 275.668 271.667,275.856 271.554,276.079 271.159 C 276.303 270.764,276.787 270.198,277.155 269.901 C 278.858 268.530,280.966 266.351,280.775 266.160 C 280.658 266.043,280.727 265.948,280.927 265.948 C 281.127 265.948,281.883 265.373,282.607 264.670 C 283.396 263.904,284.101 263.496,284.369 263.650 C 284.615 263.791,284.700 263.779,284.559 263.622 C 284.340 263.380,285.419 262.207,286.924 261.050 C 289.527 259.050,291.498 257.682,291.779 257.682 C 291.968 257.682,292.177 257.557,292.243 257.404 C 292.417 257.000,296.780 254.088,297.211 254.088 C 297.411 254.088,297.574 253.926,297.574 253.729 C 297.574 253.531,297.824 253.369,298.129 253.369 C 298.434 253.369,299.120 252.965,299.653 252.471 C 300.186 251.977,300.852 251.572,301.133 251.572 C 301.414 251.572,302.345 251.161,303.203 250.659 C 304.060 250.156,304.767 249.873,304.773 250.030 C 304.779 250.186,304.949 250.031,305.150 249.686 C 305.352 249.340,305.733 249.057,305.999 249.057 C 306.597 249.057,307.133 247.152,306.586 246.969 C 306.056 246.793,306.098 245.929,306.649 245.672 C 307.008 245.505,307.008 245.421,306.649 245.253 C 306.401 245.138,306.199 244.411,306.199 243.636 C 306.199 242.862,306.054 242.228,305.876 242.228 C 305.698 242.228,305.436 240.207,305.294 237.736 C 305.151 235.265,304.893 233.243,304.719 233.243 C 304.545 233.243,304.403 232.287,304.403 231.117 C 304.403 229.948,304.246 228.937,304.055 228.871 C 303.865 228.805,303.598 227.174,303.463 225.247 C 303.329 223.320,303.080 221.743,302.912 221.743 C 302.743 221.743,302.606 221.096,302.606 220.305 C 302.606 219.515,302.463 218.868,302.289 218.868 C 302.115 218.868,301.857 217.332,301.716 215.454 C 301.576 213.576,301.314 212.040,301.134 212.040 C 300.654 212.040,300.739 210.820,301.258 210.270 C 301.617 209.889,301.617 209.760,301.258 209.629 C 300.983 209.528,300.809 208.789,300.809 207.727 C 300.809 206.771,300.656 205.936,300.469 205.870 C 300.282 205.804,300.031 203.756,299.910 201.319 C 299.789 198.882,299.538 196.486,299.351 195.994 C 299.164 195.503,299.012 194.093,299.012 192.861 C 299.012 191.628,298.848 190.457,298.649 190.257 C 298.336 189.944,297.979 185.492,297.340 173.944 C 297.257 172.462,297.010 170.891,296.789 170.453 C 296.490 169.859,296.495 169.527,296.809 169.149 C 297.105 168.792,297.125 168.364,296.877 167.711 C 296.682 167.199,296.513 166.331,296.502 165.780 C 296.490 165.230,296.316 162.354,296.115 159.389 C 295.914 156.424,295.679 152.785,295.593 151.303 C 295.507 149.820,295.291 147.556,295.113 146.271 C 294.935 144.987,294.774 143.369,294.756 142.677 C 294.738 141.986,294.541 139.641,294.319 137.466 C 294.096 135.292,293.860 132.646,293.793 131.586 C 293.727 130.526,293.513 128.586,293.318 127.273 C 293.123 125.961,292.968 124.564,292.974 124.169 C 292.981 123.774,292.787 121.186,292.544 118.419 C 292.301 115.651,292.064 112.659,292.016 111.770 C 291.872 109.051,290.682 98.775,290.019 94.519 C 289.638 92.079,289.440 90.229,289.121 86.157 C 289.017 84.819,288.601 81.665,288.197 79.149 C 287.793 76.632,287.415 74.007,287.358 73.315 C 287.301 72.624,286.999 70.764,286.687 69.182 C 286.375 67.601,285.863 64.771,285.550 62.893 C 285.236 61.015,284.671 58.104,284.294 56.424 C 283.917 54.744,283.364 52.156,283.066 50.674 C 282.767 49.191,282.247 46.765,281.911 45.283 C 281.575 43.801,281.178 41.941,281.029 41.150 C 280.786 39.861,279.579 36.373,277.523 31.018 C 276.106 27.326,273.757 24.048,271.812 23.046 C 270.715 22.481,270.659 22.499,269.405 23.834 M180.234 302.599 C 179.838 302.762,177.493 303.085,175.022 303.318 C 166.251 304.141,157.144 306.921,152.846 310.085 C 152.212 310.551,151.539 310.838,151.350 310.721 C 151.065 310.545,151.046 311.254,151.318 311.950 C 151.356 312.049,151.369 312.251,151.345 312.399 C 151.322 312.547,151.465 312.668,151.662 312.668 C 151.860 312.668,152.022 312.907,152.022 313.200 C 152.022 313.492,152.414 314.583,152.893 315.625 C 153.373 316.668,154.027 318.167,154.348 318.958 C 154.669 319.748,155.085 320.676,155.273 321.019 C 155.462 321.363,155.615 322.040,155.615 322.526 C 155.615 323.011,155.765 323.500,155.947 323.613 C 156.130 323.726,156.385 324.301,156.515 324.892 C 156.645 325.483,156.900 325.966,157.082 325.966 C 157.264 325.966,157.412 326.373,157.412 326.871 C 157.412 327.370,157.817 328.418,158.311 329.200 C 158.805 329.983,159.209 330.837,159.209 331.098 C 159.209 331.359,159.350 331.726,159.521 331.914 C 159.693 332.102,160.127 333.064,160.485 334.052 C 160.844 335.040,161.350 336.168,161.611 336.558 C 161.871 336.948,162.084 337.554,162.084 337.906 C 162.084 338.257,162.246 338.544,162.444 338.544 C 162.642 338.544,162.804 338.908,162.805 339.353 C 162.806 339.798,163.210 340.957,163.703 341.930 C 164.197 342.902,164.600 343.913,164.600 344.176 C 164.600 344.439,164.748 344.654,164.928 344.654 C 165.108 344.654,165.365 345.301,165.499 346.092 C 165.632 346.882,165.889 347.529,166.069 347.529 C 166.250 347.529,166.397 347.828,166.397 348.193 C 166.397 348.798,166.995 350.325,167.858 351.927 C 168.043 352.270,168.194 352.796,168.194 353.095 C 168.194 353.394,168.322 353.639,168.479 353.639 C 168.636 353.639,169.053 354.488,169.407 355.526 C 170.387 358.401,171.150 359.168,172.782 358.915 C 177.585 358.171,179.196 357.845,179.497 357.558 C 179.685 357.379,180.201 357.233,180.644 357.233 C 181.087 357.233,181.540 357.086,181.650 356.907 C 181.761 356.728,182.660 356.470,183.648 356.334 C 184.636 356.198,185.445 355.941,185.445 355.761 C 185.445 355.582,185.768 355.436,186.164 355.436 C 186.559 355.436,186.882 355.287,186.882 355.105 C 186.882 354.923,187.367 354.668,187.960 354.537 C 188.553 354.407,189.039 354.152,189.039 353.970 C 189.039 353.788,189.268 353.639,189.549 353.639 C 190.148 353.639,192.399 352.502,192.573 352.111 C 192.639 351.963,192.908 351.842,193.172 351.842 C 193.749 351.842,195.997 350.695,196.167 350.314 C 196.232 350.166,196.596 350.045,196.975 350.045 C 197.354 350.045,197.664 349.901,197.664 349.724 C 197.664 349.548,198.068 349.303,198.562 349.179 C 199.057 349.055,199.461 348.794,199.461 348.601 C 199.461 348.407,199.704 348.248,200.000 348.248 C 200.296 348.248,200.539 348.104,200.539 347.928 C 200.539 347.751,200.943 347.506,201.438 347.382 C 201.932 347.258,202.336 346.997,202.336 346.804 C 202.336 346.610,202.658 346.451,203.052 346.451 C 203.446 346.451,204.133 346.144,204.579 345.769 C 209.146 341.928,210.221 341.060,210.413 341.060 C 210.536 341.060,211.011 340.656,211.469 340.162 C 211.927 339.668,212.421 339.263,212.567 339.263 C 212.845 339.263,214.280 337.959,217.823 334.488 C 218.991 333.344,219.946 332.520,219.946 332.657 C 219.946 332.794,220.917 331.911,222.104 330.694 C 223.291 329.477,224.349 328.482,224.456 328.482 C 224.677 328.482,225.531 327.799,226.163 327.117 C 226.400 326.860,226.803 326.456,227.056 326.218 C 227.310 325.981,227.715 325.602,227.955 325.377 C 228.195 325.152,228.715 324.519,229.111 323.970 C 229.506 323.422,230.678 322.151,231.716 321.147 C 232.754 320.143,233.603 319.134,233.603 318.905 C 233.603 318.353,237.208 314.465,237.720 314.465 C 237.939 314.465,238.153 314.044,238.196 313.529 C 238.249 312.890,238.125 312.649,237.808 312.771 C 237.537 312.875,237.322 312.665,237.292 312.266 C 237.264 311.890,236.988 311.331,236.680 311.022 C 236.371 310.713,236.119 310.297,236.119 310.097 C 236.119 309.897,235.553 309.184,234.861 308.512 C 234.169 307.840,233.603 307.045,233.603 306.745 C 233.603 306.445,233.459 306.199,233.282 306.199 C 233.106 306.199,232.863 305.806,232.743 305.325 C 232.622 304.844,232.210 304.351,231.828 304.230 C 231.446 304.108,231.082 303.653,231.020 303.218 L 230.907 302.426 205.930 302.364 C 192.192 302.330,180.629 302.436,180.234 302.599 " stroke="none" fill="#fa8904" fill-rule="evenodd"></path><path id="path4" d="M271.622 14.656 C 270.149 14.844,267.533 17.708,266.657 20.089 C 266.250 21.196,265.681 22.612,265.393 23.235 C 265.105 23.858,264.870 24.580,264.870 24.840 C 264.870 25.100,264.643 25.965,264.366 26.762 C 262.578 31.909,260.822 40.666,258.382 56.604 C 258.230 57.592,257.602 61.312,256.985 64.870 C 256.369 68.428,255.709 72.956,255.520 74.933 C 255.191 78.369,253.706 88.236,253.005 91.644 C 252.822 92.534,252.494 94.960,252.275 97.035 C 252.057 99.111,251.648 101.974,251.366 103.399 C 251.084 104.824,250.854 106.674,250.854 107.510 C 250.854 108.347,250.694 109.931,250.500 111.030 C 250.076 113.426,249.585 116.509,248.895 121.114 C 248.613 122.992,248.043 126.631,247.628 129.200 C 247.212 131.770,246.787 134.841,246.684 136.024 C 246.580 137.207,246.255 139.310,245.961 140.696 C 245.667 142.082,245.273 144.948,245.085 147.063 C 244.897 149.179,244.580 151.281,244.379 151.735 C 244.179 152.189,243.790 154.178,243.516 156.155 C 243.242 158.131,242.827 160.395,242.594 161.186 C 242.361 161.977,241.952 163.836,241.684 165.319 C 241.417 166.801,240.881 169.551,240.493 171.429 C 240.105 173.306,239.585 176.137,239.338 177.718 C 239.090 179.299,238.669 181.030,238.401 181.563 C 238.134 182.097,237.916 182.894,237.916 183.335 C 237.916 183.775,237.766 184.633,237.584 185.240 C 237.401 185.847,236.729 188.607,236.089 191.375 C 235.450 194.142,234.790 196.560,234.624 196.748 C 234.458 196.935,234.322 197.409,234.322 197.800 C 234.322 198.452,233.907 199.982,233.239 201.797 C 233.093 202.192,232.693 203.486,232.350 204.672 C 232.006 205.858,231.596 206.990,231.438 207.188 C 231.281 207.385,231.038 208.155,230.899 208.899 C 230.760 209.642,230.503 210.339,230.328 210.447 C 230.152 210.556,230.009 211.007,230.009 211.450 C 230.009 211.893,229.868 212.409,229.696 212.597 C 229.524 212.784,229.103 213.908,228.762 215.094 C 228.421 216.280,227.773 218.059,227.322 219.048 C 225.609 222.802,225.337 223.485,225.337 224.022 C 225.337 224.327,225.175 224.676,224.978 224.798 C 224.780 224.920,224.618 225.395,224.618 225.853 C 224.618 226.312,224.384 226.881,224.097 227.119 C 223.811 227.356,223.389 228.119,223.160 228.815 C 222.930 229.510,222.519 230.508,222.245 231.032 C 221.971 231.557,221.746 232.269,221.745 232.615 C 221.744 232.960,221.581 233.243,221.384 233.243 C 221.186 233.243,221.024 233.486,221.024 233.783 C 221.024 234.079,220.866 234.322,220.672 234.322 C 220.478 234.322,220.218 234.726,220.094 235.220 C 219.970 235.714,219.724 236.119,219.548 236.119 C 219.372 236.119,219.227 236.361,219.227 236.658 C 219.227 236.954,219.083 237.197,218.907 237.197 C 218.731 237.197,218.485 237.601,218.361 238.095 C 218.237 238.589,217.977 238.994,217.783 238.994 C 217.589 238.994,217.430 239.317,217.430 239.712 C 217.430 240.108,217.284 240.431,217.106 240.431 C 216.928 240.431,216.618 240.876,216.418 241.420 C 216.217 241.963,215.393 243.136,214.586 244.025 C 213.779 244.915,213.118 245.816,213.118 246.029 C 213.118 246.242,212.713 246.795,212.219 247.260 C 211.725 247.724,211.321 248.291,211.321 248.520 C 211.321 248.750,210.655 249.651,209.842 250.524 C 209.028 251.397,207.999 252.680,207.554 253.375 C 207.110 254.069,206.482 254.857,206.158 255.126 C 205.835 255.394,205.571 255.836,205.571 256.109 C 205.571 256.381,205.324 256.604,205.024 256.604 C 204.723 256.604,204.293 257.008,204.068 257.502 C 203.842 257.996,203.480 258.401,203.262 258.401 C 203.044 258.401,202.706 258.765,202.511 259.209 C 202.316 259.654,201.802 260.173,201.370 260.363 C 200.937 260.553,200.508 260.997,200.416 261.350 C 200.323 261.702,199.950 262.103,199.585 262.241 C 199.220 262.378,198.142 263.228,197.188 264.129 C 196.235 265.031,195.282 265.830,195.071 265.905 C 194.636 266.060,193.830 266.688,191.904 268.374 C 191.169 269.016,190.414 269.542,190.226 269.542 C 190.037 269.542,189.491 269.967,189.011 270.487 C 188.532 271.006,187.655 271.664,187.062 271.949 C 184.942 272.966,182.988 274.083,181.800 274.957 C 181.136 275.446,180.108 276.085,179.515 276.377 C 178.922 276.670,177.753 277.423,176.916 278.051 C 176.080 278.679,175.029 279.304,174.580 279.440 C 174.132 279.577,173.250 280.074,172.621 280.545 C 171.991 281.016,171.388 281.402,171.280 281.402 C 170.961 281.402,165.321 284.199,162.983 285.517 C 161.797 286.186,159.452 287.401,157.772 288.218 C 156.092 289.036,154.313 289.931,153.819 290.207 C 153.324 290.484,152.273 291.064,151.482 291.495 C 150.692 291.927,149.098 292.998,147.940 293.875 C 146.783 294.752,145.610 295.556,145.335 295.662 C 144.631 295.932,144.712 297.229,145.554 299.194 C 145.950 300.118,146.183 301.021,146.072 301.200 C 145.960 301.380,146.041 301.527,146.250 301.527 C 146.459 301.527,146.631 301.851,146.631 302.246 C 146.631 302.642,146.765 302.965,146.930 302.965 C 147.095 302.965,147.232 303.167,147.235 303.414 C 147.238 303.661,147.895 305.238,148.695 306.918 C 149.495 308.598,150.243 310.256,150.356 310.602 C 150.469 310.948,150.738 311.231,150.953 311.231 C 151.169 311.231,151.230 311.044,151.089 310.816 C 150.927 310.554,150.991 310.499,151.263 310.667 C 151.504 310.816,152.199 310.561,152.846 310.085 C 157.102 306.952,166.196 304.160,174.843 303.333 C 177.215 303.106,179.721 302.765,180.413 302.575 C 181.178 302.364,191.316 302.268,206.289 302.327 L 230.907 302.426 231.020 303.218 C 231.082 303.653,231.446 304.108,231.828 304.230 C 232.210 304.351,232.622 304.844,232.743 305.325 C 232.863 305.806,233.106 306.199,233.282 306.199 C 233.459 306.199,233.603 306.445,233.603 306.745 C 233.603 307.045,234.169 307.840,234.861 308.512 C 235.553 309.184,236.119 309.897,236.119 310.097 C 236.119 310.297,236.371 310.713,236.680 311.022 C 236.988 311.331,237.265 311.897,237.293 312.281 C 237.322 312.664,237.492 312.888,237.671 312.777 C 237.850 312.667,238.130 312.793,238.293 313.057 C 238.658 313.647,240.072 312.532,240.072 311.654 C 240.072 311.356,240.180 311.219,240.312 311.351 C 240.586 311.625,241.869 310.571,241.869 310.073 C 241.869 309.893,242.433 309.150,243.124 308.422 C 243.814 307.694,244.380 306.896,244.381 306.649 C 244.383 306.402,244.600 306.199,244.863 306.199 C 245.126 306.199,245.558 305.795,245.822 305.301 C 246.087 304.807,246.449 304.403,246.627 304.403 C 247.031 304.403,247.977 303.479,247.982 303.080 C 247.983 302.918,248.785 301.977,249.763 300.988 C 250.742 300.000,251.549 299.062,251.557 298.905 C 251.566 298.747,251.977 298.243,252.471 297.785 C 252.965 297.327,253.369 296.824,253.369 296.667 C 253.369 296.398,254.865 294.753,258.311 291.232 C 259.151 290.374,259.838 289.576,259.838 289.460 C 259.838 289.344,260.404 288.699,261.096 288.027 C 261.788 287.355,262.354 286.638,262.354 286.433 C 262.354 286.228,262.898 285.533,263.563 284.887 C 264.228 284.241,264.878 283.379,265.008 282.971 C 265.137 282.563,265.644 282.047,266.134 281.823 C 266.625 281.600,267.026 281.210,267.026 280.957 C 267.026 280.704,267.350 280.294,267.745 280.047 C 268.140 279.801,268.464 279.357,268.464 279.063 C 268.464 278.768,268.637 278.527,268.849 278.527 C 269.446 278.527,270.333 277.496,270.083 277.092 C 269.959 276.893,270.122 276.730,270.445 276.730 C 271.483 276.730,272.146 275.770,271.694 274.925 C 271.330 274.245,271.357 274.219,271.999 274.620 C 272.579 274.983,272.812 274.949,273.336 274.424 C 273.862 273.899,273.885 273.736,273.473 273.481 C 273.166 273.292,272.870 273.339,272.701 273.604 C 272.551 273.841,272.422 273.872,272.416 273.675 C 272.217 267.794,272.521 238.783,272.782 238.694 C 273.297 238.520,273.216 236.216,272.686 235.969 C 272.327 235.801,272.327 235.717,272.686 235.550 C 273.220 235.300,273.292 234.322,272.776 234.322 C 272.579 234.322,272.417 233.513,272.417 232.525 C 272.417 231.536,272.579 230.728,272.776 230.728 C 272.989 230.728,273.136 229.410,273.136 227.493 C 273.136 225.714,272.999 224.259,272.833 224.259 C 272.666 224.259,272.433 219.855,272.314 214.472 C 272.174 208.102,271.966 204.641,271.719 204.559 C 271.501 204.486,271.339 203.373,271.339 201.947 C 271.339 200.580,271.200 199.461,271.031 199.461 C 270.862 199.461,270.638 196.920,270.533 193.814 C 270.410 190.136,270.204 188.121,269.943 188.034 C 269.693 187.951,269.542 186.837,269.542 185.085 C 269.542 183.537,269.391 182.216,269.207 182.150 C 269.023 182.084,268.768 180.009,268.642 177.538 C 268.515 175.067,268.278 172.722,268.114 172.327 C 267.610 171.110,267.054 166.779,266.847 162.444 C 266.737 160.171,266.581 157.826,266.499 157.233 C 266.073 154.170,265.924 152.804,265.417 147.350 C 265.114 144.088,264.705 139.924,264.508 138.095 C 264.312 136.267,263.992 133.275,263.797 131.447 C 263.477 128.448,262.735 117.528,262.509 112.489 C 262.460 111.402,262.300 108.410,262.152 105.840 C 260.618 79.025,262.909 41.125,266.759 29.650 C 269.152 22.517,270.431 21.475,273.433 24.213 C 274.546 25.228,276.633 28.701,277.523 31.018 C 279.579 36.373,280.786 39.861,281.029 41.150 C 281.178 41.941,281.575 43.801,281.911 45.283 C 282.247 46.765,282.767 49.191,283.066 50.674 C 283.364 52.156,283.917 54.744,284.294 56.424 C 284.671 58.104,285.236 61.015,285.550 62.893 C 285.863 64.771,286.375 67.601,286.687 69.182 C 286.999 70.764,287.301 72.624,287.358 73.315 C 287.415 74.007,287.793 76.632,288.197 79.149 C 288.601 81.665,289.017 84.819,289.121 86.157 C 289.440 90.229,289.638 92.079,290.019 94.519 C 290.682 98.775,291.872 109.051,292.016 111.770 C 292.064 112.659,292.301 115.651,292.544 118.419 C 292.787 121.186,292.981 123.774,292.974 124.169 C 292.968 124.564,293.123 125.961,293.318 127.273 C 293.513 128.586,293.727 130.526,293.793 131.586 C 293.860 132.646,294.096 135.292,294.319 137.466 C 294.541 139.641,294.738 141.986,294.756 142.677 C 294.774 143.369,294.935 144.987,295.113 146.271 C 295.291 147.556,295.507 149.820,295.593 151.303 C 295.679 152.785,295.914 156.424,296.115 159.389 C 296.316 162.354,296.490 165.230,296.502 165.780 C 296.513 166.331,296.682 167.199,296.877 167.711 C 297.125 168.364,297.105 168.792,296.809 169.149 C 296.495 169.527,296.490 169.859,296.789 170.453 C 297.010 170.891,297.257 172.462,297.340 173.944 C 297.979 185.492,298.336 189.944,298.649 190.257 C 298.848 190.457,299.012 191.628,299.012 192.861 C 299.012 194.093,299.164 195.503,299.351 195.994 C 299.538 196.486,299.789 198.882,299.910 201.319 C 300.031 203.756,300.282 205.804,300.469 205.870 C 300.656 205.936,300.809 206.771,300.809 207.727 C 300.809 208.789,300.983 209.528,301.258 209.629 C 301.617 209.760,301.617 209.889,301.258 210.270 C 300.739 210.820,300.654 212.040,301.134 212.040 C 301.314 212.040,301.576 213.576,301.716 215.454 C 301.857 217.332,302.115 218.868,302.289 218.868 C 302.463 218.868,302.606 219.515,302.606 220.305 C 302.606 221.096,302.743 221.743,302.912 221.743 C 303.080 221.743,303.329 223.320,303.463 225.247 C 303.598 227.174,303.865 228.805,304.055 228.871 C 304.246 228.937,304.403 229.948,304.403 231.117 C 304.403 232.287,304.545 233.243,304.719 233.243 C 304.893 233.243,305.151 235.265,305.294 237.736 C 305.436 240.207,305.698 242.228,305.876 242.228 C 306.054 242.228,306.199 242.862,306.199 243.636 C 306.199 244.411,306.401 245.138,306.649 245.253 C 307.008 245.421,307.008 245.505,306.649 245.672 C 306.098 245.929,306.056 246.793,306.586 246.969 C 307.131 247.151,306.598 249.057,306.002 249.057 C 305.739 249.057,305.407 249.244,305.266 249.473 C 305.084 249.767,305.262 249.814,305.874 249.634 C 306.349 249.494,306.936 249.339,307.177 249.289 C 307.419 249.238,307.729 249.085,307.866 248.947 C 308.004 248.810,308.494 248.697,308.955 248.697 C 309.416 248.697,309.793 248.550,309.793 248.370 C 309.793 248.190,311.208 247.940,312.938 247.815 C 314.668 247.689,316.363 247.432,316.707 247.243 C 317.478 246.819,319.388 246.793,319.641 247.203 C 319.744 247.369,320.926 247.532,322.268 247.566 C 325.756 247.653,328.482 248.010,328.482 248.379 C 328.482 248.554,328.778 248.697,329.140 248.697 C 329.503 248.697,329.921 248.819,330.069 248.967 C 330.217 249.115,330.446 249.245,330.578 249.257 C 331.588 249.342,333.154 249.893,333.154 250.163 C 333.154 250.345,333.639 250.494,334.232 250.494 C 334.825 250.494,335.310 250.638,335.310 250.814 C 335.310 250.989,335.876 251.239,336.568 251.369 C 337.260 251.499,337.826 251.735,337.826 251.893 C 337.826 252.052,338.513 252.486,339.353 252.859 C 340.193 253.231,341.042 253.721,341.240 253.949 C 341.438 254.176,342.489 254.947,343.576 255.662 C 344.663 256.376,345.748 257.123,345.987 257.321 C 346.225 257.520,346.553 257.682,346.715 257.682 C 346.877 257.682,347.280 257.998,347.611 258.384 C 347.941 258.769,348.867 259.519,349.667 260.049 C 350.468 260.578,351.123 261.243,351.123 261.524 C 351.123 261.806,351.282 261.939,351.477 261.818 C 351.672 261.698,352.313 262.093,352.903 262.695 C 353.492 263.298,354.116 263.792,354.290 263.792 C 354.763 263.792,356.215 265.129,356.114 265.471 C 356.066 265.635,356.338 265.826,356.719 265.897 C 357.100 265.968,357.680 266.291,358.007 266.616 C 358.335 266.940,359.345 267.847,360.254 268.632 C 361.162 269.416,361.905 270.292,361.905 270.578 C 361.905 270.865,362.000 271.003,362.117 270.886 C 362.401 270.603,365.706 273.849,365.580 274.286 C 365.525 274.473,365.644 274.526,365.844 274.402 C 366.043 274.279,366.532 274.712,366.929 275.364 C 367.327 276.016,367.653 276.430,367.654 276.284 C 367.654 276.138,367.978 276.295,368.374 276.633 C 368.769 276.972,369.093 277.465,369.093 277.729 C 369.093 277.993,369.256 278.109,369.455 277.985 C 369.655 277.862,370.100 278.257,370.444 278.864 C 370.788 279.470,371.352 280.057,371.698 280.169 C 372.044 280.281,372.327 280.523,372.327 280.707 C 372.327 280.891,372.544 281.042,372.809 281.042 C 373.074 281.042,374.301 282.093,375.534 283.378 C 376.768 284.663,378.007 285.714,378.287 285.714 C 378.567 285.714,378.796 285.966,378.796 286.275 C 378.796 286.583,378.929 286.753,379.091 286.652 C 379.429 286.444,380.593 287.687,380.593 288.255 C 380.593 288.462,380.714 288.567,380.863 288.488 C 381.249 288.281,382.377 289.555,382.090 289.875 C 381.959 290.022,382.039 290.035,382.269 289.903 C 382.501 289.770,383.367 290.317,384.221 291.138 C 385.064 291.948,386.128 292.856,386.585 293.155 C 387.042 293.455,387.310 293.884,387.181 294.109 C 387.052 294.335,387.075 294.404,387.231 294.262 C 387.618 293.913,388.880 294.629,389.687 295.655 C 390.051 296.117,390.589 296.496,390.883 296.496 C 391.177 296.496,391.317 296.658,391.195 296.855 C 391.073 297.053,391.161 297.215,391.392 297.215 C 391.622 297.215,392.429 297.705,393.186 298.304 C 395.097 299.818,397.902 301.711,398.641 301.985 C 399.495 302.303,399.806 301.642,399.124 300.960 C 398.815 300.651,398.562 300.120,398.562 299.781 C 398.562 299.441,398.235 298.523,397.834 297.740 C 397.434 296.957,397.075 295.952,397.037 295.508 C 396.999 295.063,396.849 294.699,396.703 294.699 C 396.558 294.699,396.332 294.131,396.202 293.436 C 396.071 292.741,395.781 292.054,395.557 291.909 C 394.944 291.512,393.858 289.292,394.091 288.914 C 394.204 288.733,394.042 288.487,393.733 288.369 C 393.424 288.250,393.172 287.847,393.172 287.473 C 393.172 287.099,393.010 286.792,392.812 286.792 C 392.615 286.792,392.453 286.606,392.453 286.379 C 392.453 286.152,392.040 285.121,391.535 284.089 C 391.030 283.057,390.567 281.747,390.507 281.178 C 390.442 280.567,390.156 280.096,389.808 280.028 C 389.291 279.926,389.040 279.294,389.176 278.437 C 389.199 278.288,389.092 278.167,388.937 278.167 C 388.783 278.167,388.622 277.748,388.579 277.237 C 388.480 276.041,388.188 275.580,387.714 275.873 C 387.467 276.025,387.385 275.602,387.476 274.643 C 387.553 273.839,387.546 273.251,387.461 273.336 C 387.376 273.421,387.050 273.128,386.737 272.684 C 386.183 271.898,386.122 271.749,386.029 270.958 C 386.004 270.749,385.848 270.661,385.682 270.764 C 385.516 270.866,385.399 270.322,385.421 269.554 C 385.458 268.272,385.051 267.840,384.506 268.584 C 384.386 268.748,384.185 268.619,384.061 268.295 C 383.929 267.952,383.983 267.799,384.191 267.927 C 384.386 268.048,384.546 267.895,384.546 267.586 C 384.546 267.278,384.375 267.026,384.166 267.026 C 383.956 267.026,383.884 266.866,384.005 266.671 C 384.131 266.467,383.986 266.407,383.666 266.530 C 383.360 266.647,383.109 266.565,383.109 266.346 C 383.109 266.127,383.280 265.948,383.489 265.948 C 383.699 265.948,383.774 265.793,383.657 265.604 C 383.541 265.415,383.208 265.352,382.918 265.463 C 382.242 265.722,382.244 265.237,382.924 264.267 C 383.550 263.374,382.831 262.802,382.022 263.550 C 381.671 263.874,381.624 263.868,381.819 263.522 C 381.959 263.275,381.902 263.073,381.692 263.073 C 381.483 263.073,381.312 262.830,381.312 262.534 C 381.312 262.237,381.189 261.995,381.039 261.995 C 380.396 261.995,379.825 260.511,380.264 259.982 C 380.618 259.554,380.581 259.506,380.052 259.709 C 379.514 259.915,379.438 259.804,379.585 259.031 C 379.714 258.358,379.631 258.157,379.279 258.292 C 378.969 258.411,378.796 258.207,378.796 257.720 C 378.796 257.304,378.615 256.963,378.395 256.963 C 378.170 256.963,378.076 256.646,378.182 256.244 C 378.285 255.848,378.238 255.606,378.076 255.706 C 377.723 255.924,376.437 253.290,376.103 251.662 C 375.972 251.020,375.734 250.494,375.575 250.494 C 375.416 250.494,375.199 250.130,375.094 249.686 C 374.762 248.292,373.969 246.367,373.315 245.369 C 372.969 244.842,372.686 244.228,372.686 244.006 C 372.686 243.783,371.878 241.917,370.889 239.858 C 369.901 237.798,369.093 235.801,369.093 235.418 C 369.093 235.036,368.943 234.631,368.761 234.518 C 368.578 234.406,368.164 233.466,367.841 232.431 C 367.518 231.395,367.048 230.144,366.798 229.650 C 366.548 229.155,366.119 228.023,365.846 227.134 C 365.573 226.244,365.256 225.436,365.143 225.337 C 365.029 225.238,364.543 223.863,364.063 222.282 C 363.583 220.701,362.740 218.522,362.188 217.440 C 361.637 216.359,361.186 215.180,361.186 214.820 C 361.186 214.461,360.882 213.567,360.511 212.834 C 360.140 212.100,359.718 210.934,359.575 210.243 C 359.300 208.923,358.335 206.596,357.934 206.289 C 357.805 206.190,357.604 205.705,357.487 205.211 C 357.046 203.339,356.339 201.071,356.143 200.898 C 356.031 200.800,355.729 199.991,355.471 199.102 C 355.213 198.212,354.876 197.323,354.721 197.125 C 354.567 196.927,354.322 196.199,354.177 195.508 C 353.899 194.184,350.297 184.105,349.715 183.022 C 349.374 182.388,348.711 180.019,348.356 178.167 C 348.252 177.624,348.044 177.179,347.895 177.179 C 347.745 177.179,347.536 176.643,347.430 175.988 C 347.324 175.334,346.911 174.080,346.512 173.203 C 346.113 172.326,345.673 171.042,345.535 170.350 C 345.397 169.659,344.992 168.446,344.637 167.655 C 344.281 166.864,343.875 165.651,343.736 164.960 C 343.596 164.268,343.099 162.865,342.632 161.843 C 342.165 160.820,341.607 159.162,341.392 158.159 C 341.177 157.155,340.870 156.334,340.710 156.334 C 340.551 156.334,340.335 155.809,340.230 155.166 C 339.983 153.645,339.098 150.456,338.373 148.472 C 338.056 147.606,337.877 146.819,337.974 146.722 C 338.071 146.625,337.944 146.338,337.690 146.084 C 337.437 145.831,336.876 144.435,336.444 142.983 C 336.012 141.530,335.482 139.856,335.267 139.263 C 335.051 138.670,334.644 137.538,334.364 136.748 C 334.083 135.957,333.710 134.987,333.535 134.591 C 333.360 134.196,332.463 131.447,331.542 128.482 C 330.620 125.517,329.630 122.525,329.342 121.833 C 329.054 121.141,328.594 119.766,328.320 118.778 C 328.046 117.790,327.400 115.855,326.885 114.478 C 326.370 113.101,326.024 111.778,326.117 111.536 C 326.209 111.295,326.115 111.041,325.908 110.972 C 325.701 110.903,325.153 109.720,324.692 108.343 C 324.231 106.966,323.124 103.750,322.232 101.196 C 321.339 98.641,320.692 96.418,320.793 96.254 C 320.894 96.091,320.806 95.957,320.596 95.957 C 320.387 95.957,320.216 95.713,320.216 95.414 C 320.216 95.115,319.899 94.185,319.512 93.347 C 319.124 92.509,318.401 90.565,317.905 89.026 C 317.409 87.487,316.758 85.708,316.458 85.073 C 316.159 84.437,315.519 82.785,315.037 81.402 C 313.550 77.139,312.343 73.980,311.037 70.932 C 310.349 69.324,309.398 66.979,308.924 65.721 C 307.790 62.707,305.768 57.729,304.856 55.705 C 304.456 54.816,303.915 53.522,303.654 52.830 C 303.146 51.482,295.829 36.819,293.880 33.243 C 288.979 24.249,281.688 16.067,278.159 15.598 C 277.175 15.468,276.370 15.207,276.370 15.019 C 276.370 14.832,275.913 14.778,275.354 14.901 C 274.796 15.024,273.947 14.991,273.468 14.827 C 272.989 14.664,272.158 14.587,271.622 14.656 M303.504 250.528 C 302.911 250.939,302.668 251.181,302.965 251.065 C 303.261 250.949,303.787 250.754,304.133 250.632 C 304.479 250.510,304.762 250.267,304.762 250.093 C 304.762 249.664,304.737 249.673,303.504 250.528 M299.780 252.303 C 298.678 253.221,299.274 253.211,300.449 252.291 C 300.943 251.905,301.186 251.590,300.988 251.592 C 300.791 251.594,300.247 251.914,299.780 252.303 M288.769 259.702 C 288.053 260.286,287.932 260.493,288.410 260.319 C 289.191 260.035,290.193 259.165,289.980 258.955 C 289.907 258.883,289.362 259.220,288.769 259.702 M283.185 264.136 C 282.501 264.721,282.040 265.206,282.162 265.215 C 282.283 265.223,282.930 264.747,283.599 264.157 C 284.268 263.567,284.729 263.082,284.623 263.079 C 284.516 263.075,283.869 263.551,283.185 264.136 M276.904 270.119 C 276.389 270.634,276.062 271.151,276.178 271.267 C 276.294 271.383,276.861 270.961,277.438 270.330 C 278.691 268.958,278.242 268.780,276.904 270.119 M274.753 271.923 C 274.358 272.391,273.824 272.695,273.566 272.599 C 273.309 272.503,273.197 272.585,273.318 272.780 C 273.902 273.726,275.853 272.698,275.591 271.582 C 275.504 271.209,275.278 271.301,274.753 271.923 M235.462 316.477 C 234.439 317.583,233.603 318.663,233.603 318.878 C 233.603 319.092,234.094 318.712,234.695 318.034 C 235.295 317.356,236.355 316.276,237.051 315.633 C 237.746 314.991,238.091 314.465,237.818 314.465 C 237.545 314.465,236.485 315.371,235.462 316.477 " stroke="none" fill="#e76a04" fill-rule="evenodd"></path></g></svg>