<svg id="svg" version="1.1" xmlns="http://www.w3.org/2000/svg" xmlns:xlink="http://www.w3.org/1999/xlink" width="400" height="400" viewBox="0, 0, 400,400"><g id="svgg"><path id="path0" d="M82.400 158.782 C 82.400 158.993,82.914 160.037,83.543 161.103 C 84.172 162.170,85.137 163.843,85.687 164.821 C 86.238 165.799,88.175 169.120,89.992 172.200 C 93.633 178.371,94.397 179.682,95.643 181.900 C 96.106 182.725,96.622 183.580,96.789 183.800 C 96.956 184.020,97.545 185.010,98.097 186.000 C 98.649 186.990,99.776 188.970,100.600 190.400 C 101.424 191.830,102.409 193.540,102.788 194.200 C 103.168 194.860,104.064 196.349,104.779 197.508 C 106.363 200.077,106.796 199.002,99.803 209.856 C 96.611 214.810,94.000 218.938,94.000 219.028 C 94.000 219.118,93.190 220.375,92.200 221.821 C 91.210 223.267,90.400 224.513,90.400 224.589 C 90.400 224.665,88.060 228.374,85.200 232.831 C 82.340 237.287,80.000 241.087,80.000 241.274 C 80.000 241.461,84.333 241.566,89.629 241.507 L 99.258 241.400 100.362 239.400 C 100.970 238.300,102.601 235.240,103.986 232.600 C 105.372 229.960,106.634 227.620,106.792 227.400 C 106.949 227.180,107.984 225.290,109.092 223.200 C 110.199 221.110,112.062 217.600,113.230 215.400 C 114.398 213.200,115.545 210.996,115.777 210.503 C 116.538 208.889,117.345 209.496,119.226 213.101 C 123.502 221.293,126.125 226.226,126.402 226.600 C 126.566 226.820,127.553 228.620,128.596 230.600 C 132.839 238.654,134.157 241.014,134.568 241.294 C 135.333 241.814,153.200 241.662,153.200 241.135 C 153.200 240.714,152.366 239.264,149.789 235.200 C 149.301 234.430,147.292 231.272,145.325 228.182 C 143.358 225.093,141.629 222.303,141.482 221.982 C 141.336 221.662,139.589 218.880,137.602 215.800 C 135.614 212.720,133.241 208.940,132.328 207.400 C 131.415 205.860,130.563 204.510,130.434 204.400 C 130.305 204.290,129.943 203.750,129.629 203.200 C 129.315 202.650,128.775 201.705,128.429 201.100 C 127.848 200.083,127.857 199.901,128.551 198.700 C 128.964 197.985,129.657 196.770,130.092 196.000 C 130.526 195.230,131.133 194.316,131.441 193.969 C 131.748 193.621,132.000 193.206,132.000 193.047 C 132.000 192.887,132.720 191.696,133.600 190.400 C 134.480 189.104,135.200 187.968,135.200 187.874 C 135.200 187.781,137.239 184.396,139.732 180.352 C 142.225 176.309,145.258 171.380,146.473 169.400 C 147.688 167.420,149.608 164.302,150.741 162.471 C 151.873 160.639,152.800 158.974,152.800 158.771 C 152.800 158.554,149.083 158.400,143.864 158.400 L 134.927 158.400 133.792 160.500 C 133.168 161.655,132.336 163.179,131.942 163.888 C 131.276 165.088,130.522 166.476,127.048 172.900 C 125.730 175.337,125.008 176.648,122.039 182.000 C 121.246 183.430,120.069 185.625,119.425 186.879 C 117.672 190.288,118.518 191.507,106.981 168.934 C 104.488 164.058,102.215 159.693,101.928 159.234 C 101.357 158.319,82.400 157.880,82.400 158.782 " stroke="none" fill="#f8f9f8" fill-rule="evenodd"></path><path id="path1" d="M127.400 49.600 C 127.264 49.820,126.623 50.000,125.976 50.000 C 125.329 50.000,124.800 50.160,124.800 50.357 C 124.800 50.553,124.350 50.826,123.800 50.964 C 123.250 51.102,122.800 51.392,122.800 51.608 C 122.800 51.823,122.601 52.000,122.357 52.000 C 121.757 52.000,118.000 56.039,118.000 56.685 C 118.000 56.968,117.820 57.200,117.600 57.200 C 117.380 57.200,117.200 57.549,117.200 57.976 C 117.200 58.403,117.020 58.864,116.800 59.000 C 116.580 59.136,116.400 59.957,116.400 60.824 C 116.400 61.691,116.220 62.400,116.000 62.400 C 115.737 62.400,115.600 71.533,115.600 89.000 L 115.600 115.600 81.700 115.631 C 63.055 115.647,47.440 115.758,47.000 115.876 C 46.560 115.994,45.345 116.178,44.300 116.284 C 43.255 116.390,42.400 116.640,42.400 116.839 C 42.400 117.037,42.124 117.200,41.786 117.200 C 41.190 117.200,39.448 118.171,38.566 118.995 C 38.327 119.218,37.652 119.758,37.066 120.195 C 36.480 120.632,36.000 121.217,36.000 121.495 C 36.000 121.773,35.730 122.000,35.400 122.000 C 35.070 122.000,34.800 122.276,34.800 122.614 C 34.800 122.952,34.504 123.679,34.143 124.230 C 33.782 124.782,33.295 125.990,33.060 126.916 C 32.461 129.281,32.462 270.758,33.061 273.000 C 33.593 274.991,34.454 276.907,34.992 277.294 C 35.216 277.456,35.262 277.591,35.093 277.594 C 34.924 277.597,35.404 278.185,36.160 278.900 C 39.068 281.650,40.549 282.800,41.183 282.800 C 41.544 282.800,42.011 282.962,42.220 283.159 C 43.468 284.338,114.465 284.960,116.112 283.807 C 116.870 283.276,121.396 283.200,152.439 283.200 C 190.050 283.200,188.660 283.262,192.636 281.402 C 194.341 280.604,197.529 277.332,198.271 275.619 C 200.000 271.628,199.990 271.846,199.995 235.096 L 200.000 199.993 220.700 200.096 L 241.400 200.200 241.747 275.200 C 242.002 330.250,242.215 350.278,242.547 350.494 C 243.232 350.938,352.800 350.872,352.800 350.426 C 352.800 350.221,353.236 350.132,353.768 350.229 C 354.301 350.325,355.246 350.207,355.868 349.967 C 356.491 349.726,357.340 349.461,357.755 349.377 C 358.170 349.293,358.814 348.949,359.186 348.612 C 359.558 348.276,360.042 348.000,360.262 348.000 C 360.481 348.000,361.078 347.556,361.588 347.012 C 362.099 346.469,362.670 346.120,362.858 346.236 C 363.046 346.352,363.200 346.194,363.200 345.886 C 363.200 345.577,363.560 344.998,364.000 344.600 C 364.440 344.202,364.800 343.707,364.800 343.500 C 364.800 343.293,365.132 342.646,365.538 342.062 C 366.342 340.907,367.276 337.646,366.953 337.124 C 366.843 336.946,366.932 336.800,367.152 336.800 C 367.371 336.800,367.523 336.440,367.490 336.000 C 367.457 335.560,367.288 335.200,367.115 335.200 C 366.942 335.200,366.800 321.970,366.800 305.800 C 366.800 286.467,366.937 276.400,367.200 276.400 C 367.464 276.400,367.600 263.433,367.600 238.300 L 367.600 200.200 304.700 200.200 L 241.800 200.200 241.449 124.700 L 241.099 49.200 184.373 49.200 C 146.987 49.200,127.563 49.336,127.400 49.600 M102.271 158.943 C 102.672 159.461,104.620 163.106,106.600 167.043 C 108.580 170.979,110.290 174.290,110.400 174.400 C 110.510 174.510,112.130 177.630,114.000 181.332 C 117.620 188.500,117.857 188.854,118.274 187.725 C 118.421 187.326,118.645 186.910,118.771 186.800 C 118.897 186.690,119.420 185.790,119.933 184.800 C 122.021 180.771,124.934 175.375,125.223 175.000 C 125.392 174.780,126.290 173.160,127.217 171.400 C 128.145 169.640,129.357 167.390,129.911 166.400 C 130.465 165.410,131.541 163.430,132.301 162.000 C 134.601 157.672,133.639 158.000,144.019 158.000 C 154.166 158.000,154.269 158.030,152.569 160.531 C 152.036 161.316,151.600 162.147,151.600 162.379 C 151.600 162.610,151.420 162.800,151.200 162.800 C 150.980 162.800,150.800 162.978,150.800 163.196 C 150.800 163.414,149.990 164.855,149.000 166.400 C 148.010 167.945,147.200 169.386,147.200 169.604 C 147.200 169.822,147.020 170.000,146.800 170.000 C 146.580 170.000,146.400 170.182,146.400 170.404 C 146.400 170.735,144.354 174.139,141.698 178.227 C 141.421 178.652,140.893 179.585,140.523 180.300 C 140.154 181.015,139.705 181.600,139.526 181.600 C 139.347 181.600,139.200 181.778,139.200 181.996 C 139.200 182.214,138.390 183.655,137.400 185.200 C 136.410 186.745,135.600 188.186,135.600 188.404 C 135.600 188.622,135.420 188.800,135.200 188.800 C 134.980 188.800,134.800 188.978,134.800 189.196 C 134.800 189.414,133.990 190.855,133.000 192.400 C 132.010 193.945,131.200 195.386,131.200 195.604 C 131.200 195.822,131.020 196.000,130.800 196.000 C 130.580 196.000,130.400 196.184,130.400 196.409 C 130.400 196.633,129.926 197.533,129.347 198.409 L 128.294 200.000 129.347 201.591 C 129.926 202.467,130.400 203.367,130.400 203.591 C 130.400 203.816,130.580 204.000,130.800 204.000 C 131.020 204.000,131.200 204.270,131.200 204.600 C 131.200 204.930,131.380 205.200,131.600 205.200 C 131.820 205.200,132.000 205.378,132.000 205.596 C 132.000 205.814,133.620 208.526,135.600 211.622 C 137.580 214.718,139.200 217.419,139.200 217.625 C 139.200 217.831,139.380 218.000,139.600 218.000 C 139.820 218.000,140.000 218.175,140.000 218.388 C 140.000 218.602,140.518 219.547,141.150 220.488 C 143.647 224.204,147.200 230.027,147.200 230.403 C 147.200 230.621,147.380 230.800,147.600 230.800 C 147.820 230.800,148.000 231.055,148.000 231.367 C 148.000 231.678,148.135 231.993,148.300 232.067 C 148.638 232.217,150.800 235.457,150.800 235.813 C 150.800 235.940,151.520 237.104,152.400 238.400 C 155.003 242.233,155.492 242.030,143.956 241.907 L 133.911 241.800 132.322 238.800 C 131.447 237.150,129.937 234.386,128.966 232.657 C 127.995 230.928,127.200 229.263,127.200 228.957 C 127.200 228.651,127.020 228.400,126.800 228.400 C 126.580 228.400,126.400 228.055,126.400 227.633 C 126.400 227.212,126.244 226.807,126.053 226.733 C 125.863 226.660,124.624 224.530,123.301 222.000 C 119.270 214.294,119.008 213.807,118.779 213.600 C 118.658 213.490,118.244 212.725,117.860 211.900 C 116.800 209.621,116.844 209.580,113.576 215.845 C 111.814 219.225,110.873 221.007,106.315 229.600 C 105.557 231.030,104.140 233.640,103.168 235.400 C 102.196 237.160,101.038 239.320,100.595 240.200 L 99.790 241.800 89.823 241.907 C 82.695 241.984,79.776 241.885,79.574 241.559 C 79.281 241.084,80.376 238.807,80.900 238.803 C 81.065 238.801,81.200 238.619,81.200 238.399 C 81.200 238.178,83.000 235.200,85.200 231.780 C 87.400 228.361,89.200 225.474,89.200 225.365 C 89.200 225.256,89.388 224.949,89.617 224.683 C 89.847 224.417,90.649 223.210,91.400 222.000 C 92.151 220.790,92.953 219.583,93.183 219.317 C 93.412 219.051,93.600 218.720,93.600 218.580 C 93.600 218.441,94.293 217.309,95.140 216.064 C 98.865 210.591,105.200 200.342,105.200 199.790 C 105.200 199.457,104.740 198.456,104.179 197.566 C 103.617 196.676,102.807 195.330,102.379 194.574 C 101.950 193.818,101.250 192.582,100.821 191.826 C 100.393 191.070,99.583 189.724,99.021 188.834 C 98.460 187.944,98.000 187.124,98.000 187.012 C 98.000 186.900,97.223 185.591,96.273 184.104 C 95.323 182.617,94.289 180.815,93.975 180.100 C 93.661 179.385,93.269 178.800,93.102 178.800 C 92.936 178.800,92.800 178.616,92.800 178.392 C 92.800 178.168,92.340 177.256,91.779 176.366 C 90.762 174.755,89.992 173.428,88.086 170.000 C 87.536 169.010,86.751 167.722,86.343 167.138 C 85.934 166.554,85.600 165.952,85.600 165.800 C 85.600 165.648,85.265 165.046,84.857 164.462 C 83.353 162.314,81.572 158.769,81.806 158.390 C 81.952 158.154,85.892 158.000,91.795 158.000 L 101.542 158.000 102.271 158.943 " stroke="none" fill="#127c44" fill-rule="evenodd"></path><path id="path2" d="M242.000 87.000 L 242.000 124.800 304.800 124.800 L 367.600 124.800 367.600 93.600 C 367.600 73.067,367.463 62.400,367.200 62.400 C 366.980 62.400,366.800 61.776,366.800 61.014 C 366.800 59.751,365.299 56.450,364.235 55.372 C 363.996 55.130,363.442 54.452,363.005 53.866 C 362.568 53.280,361.983 52.800,361.705 52.800 C 361.427 52.800,361.200 52.620,361.200 52.400 C 361.200 52.180,360.930 52.000,360.600 52.000 C 360.270 52.000,360.000 51.855,360.000 51.677 C 360.000 51.279,357.170 50.000,356.289 50.000 C 355.936 50.000,355.536 49.820,355.400 49.600 C 355.237 49.336,335.863 49.200,298.576 49.200 L 242.000 49.200 242.000 87.000 M87.300 158.299 C 89.885 158.368,94.115 158.368,96.700 158.299 C 99.285 158.229,97.170 158.172,92.000 158.172 C 86.830 158.172,84.715 158.229,87.300 158.299 M143.900 158.300 C 148.877 158.364,152.800 158.575,152.800 158.778 C 152.800 158.978,151.873 160.639,150.741 162.471 C 149.608 164.302,147.688 167.420,146.473 169.400 C 145.258 171.380,142.225 176.309,139.732 180.352 C 137.239 184.396,135.200 187.781,135.200 187.874 C 135.200 187.968,134.464 189.128,133.564 190.453 C 132.664 191.778,132.011 192.944,132.111 193.044 C 132.326 193.259,135.600 188.129,135.600 187.577 C 135.600 187.370,135.780 187.200,136.000 187.200 C 136.220 187.200,136.400 187.018,136.400 186.796 C 136.400 186.462,137.956 183.870,141.096 178.973 C 141.369 178.548,141.952 177.570,142.393 176.800 C 142.833 176.030,144.007 174.140,145.000 172.600 C 145.993 171.060,146.930 169.530,147.081 169.200 C 147.232 168.870,148.310 167.117,149.478 165.304 C 150.645 163.491,151.600 161.826,151.600 161.604 C 151.600 161.382,151.736 161.200,151.902 161.200 C 152.370 161.200,153.291 158.870,153.006 158.409 C 152.843 158.146,149.597 158.033,143.876 158.092 L 135.000 158.184 143.900 158.300 M82.000 158.829 C 82.000 159.169,82.630 160.493,83.400 161.772 C 84.170 163.051,84.800 164.255,84.800 164.448 C 84.800 164.642,84.980 164.800,85.200 164.800 C 85.420 164.800,85.600 164.960,85.600 165.156 C 85.600 165.352,87.065 168.007,88.855 171.056 C 90.646 174.105,92.421 177.140,92.801 177.800 C 94.691 181.085,95.317 182.017,95.507 181.827 C 95.621 181.713,95.528 181.390,95.300 181.110 C 95.072 180.829,94.528 179.970,94.091 179.200 C 93.654 178.430,91.810 175.280,89.993 172.200 C 88.176 169.120,86.337 165.970,85.905 165.200 C 85.474 164.430,84.798 163.260,84.403 162.600 C 84.008 161.940,83.305 160.683,82.842 159.806 C 82.379 158.929,82.000 158.490,82.000 158.829 M103.400 162.000 C 103.741 162.660,104.111 163.200,104.221 163.200 C 104.331 163.200,104.141 162.660,103.800 162.000 C 103.459 161.340,103.089 160.800,102.979 160.800 C 102.869 160.800,103.059 161.340,103.400 162.000 M132.932 161.300 C 132.731 161.575,132.311 162.340,131.998 163.000 C 131.685 163.660,131.107 164.678,130.714 165.262 C 129.974 166.362,129.733 167.247,130.355 166.580 C 130.853 166.046,133.681 160.800,133.471 160.800 C 133.376 160.800,133.133 161.025,132.932 161.300 M104.400 163.688 C 104.400 163.881,108.123 171.227,113.326 181.303 C 114.207 183.009,114.992 184.342,115.069 184.264 C 115.246 184.088,105.112 164.183,104.566 163.633 C 104.475 163.542,104.400 163.566,104.400 163.688 M128.970 168.463 C 126.828 172.623,125.498 175.044,125.171 175.380 C 124.967 175.589,124.800 175.940,124.800 176.160 C 124.800 176.879,125.471 175.887,127.210 172.600 C 128.141 170.840,129.164 168.979,129.484 168.465 C 129.803 167.951,129.973 167.439,129.861 167.328 C 129.750 167.217,129.349 167.727,128.970 168.463 M123.967 177.666 C 123.693 178.180,123.130 179.206,122.715 179.947 C 122.300 180.688,122.025 181.358,122.103 181.436 C 122.180 181.514,122.824 180.568,123.533 179.333 C 124.242 178.099,124.742 177.009,124.644 176.910 C 124.545 176.812,124.241 177.152,123.967 177.666 M120.035 184.835 C 119.136 186.394,118.400 187.834,118.400 188.035 C 118.400 189.019,117.237 188.213,116.591 186.781 C 116.190 185.890,115.700 185.062,115.503 184.940 C 115.307 184.819,115.599 185.615,116.154 186.710 C 117.672 189.705,118.005 189.609,120.133 185.561 C 122.376 181.297,122.318 180.875,120.035 184.835 M95.621 182.528 C 95.609 182.708,96.102 183.608,96.715 184.528 C 97.328 185.448,98.170 186.860,98.587 187.666 C 99.004 188.472,99.692 189.552,100.115 190.066 C 100.915 191.037,100.871 190.950,98.044 185.956 C 96.725 183.626,95.648 182.103,95.621 182.528 M100.800 191.318 C 100.800 191.485,101.790 193.264,103.000 195.271 C 105.584 199.557,105.659 200.266,103.800 202.853 C 103.030 203.925,102.400 204.879,102.400 204.973 C 102.400 205.068,100.250 208.476,97.623 212.548 C 94.996 216.620,92.565 220.457,92.221 221.075 C 91.877 221.694,91.305 222.605,90.949 223.100 C 90.594 223.595,90.409 224.000,90.538 224.000 C 90.756 224.000,94.000 219.318,94.000 219.004 C 94.000 218.927,96.611 214.810,99.803 209.856 C 106.877 198.877,106.424 200.134,104.444 196.975 C 103.540 195.533,102.800 194.265,102.800 194.156 C 102.800 194.047,102.350 193.295,101.800 192.486 C 101.250 191.677,100.800 191.151,100.800 191.318 M130.940 194.636 C 128.166 198.869,127.753 199.946,128.446 201.142 C 128.782 201.724,129.315 202.650,129.629 203.200 C 129.943 203.750,130.308 204.290,130.440 204.400 C 130.572 204.510,130.902 205.020,131.173 205.534 C 131.443 206.048,131.750 206.384,131.854 206.280 C 131.958 206.176,131.223 204.824,130.221 203.275 C 128.045 199.911,128.060 200.093,129.739 197.468 C 131.414 194.850,132.087 193.600,131.823 193.600 C 131.711 193.600,131.313 194.066,130.940 194.636 M132.200 207.200 C 132.653 208.055,139.935 219.585,140.843 220.884 C 141.259 221.480,141.600 222.050,141.600 222.150 C 141.600 222.251,143.243 224.913,145.251 228.067 C 147.258 231.220,149.301 234.430,149.789 235.200 C 152.366 239.264,153.200 240.714,153.200 241.135 C 153.200 241.662,135.333 241.814,134.568 241.294 C 134.208 241.049,132.554 238.127,130.022 233.266 C 129.754 232.752,129.451 232.416,129.348 232.519 C 129.245 232.622,129.554 233.402,130.035 234.253 C 130.516 235.104,131.537 236.970,132.305 238.400 C 133.073 239.830,133.880 241.225,134.100 241.500 C 134.573 242.094,152.634 242.219,153.557 241.635 C 154.015 241.345,153.963 241.071,153.257 240.080 C 152.786 239.418,152.400 238.679,152.400 238.438 C 152.400 238.197,152.220 238.000,152.000 238.000 C 151.780 238.000,151.600 237.819,151.600 237.599 C 151.600 237.378,149.845 234.440,147.700 231.070 C 145.555 227.700,143.588 224.595,143.329 224.171 C 142.896 223.462,141.144 220.682,135.029 211.000 C 132.999 207.787,131.307 205.514,132.200 207.200 M115.777 210.503 C 115.545 210.996,114.398 213.200,113.230 215.400 C 107.845 225.540,107.111 226.975,107.505 226.600 C 107.736 226.380,108.872 224.402,110.030 222.204 C 111.187 220.006,112.602 217.396,113.172 216.404 C 113.743 215.412,114.741 213.565,115.390 212.300 C 116.781 209.586,116.943 209.534,117.867 211.500 C 118.255 212.325,119.181 214.080,119.925 215.400 C 121.201 217.661,123.254 221.489,126.898 228.400 C 128.413 231.273,129.200 232.467,129.200 231.892 C 129.200 231.745,128.871 231.034,128.469 230.312 C 124.710 223.561,122.434 219.322,119.123 212.900 C 117.360 209.481,116.537 208.892,115.777 210.503 M89.673 224.887 C 89.413 225.147,89.200 225.492,89.200 225.653 C 89.200 225.813,87.029 229.309,84.376 233.421 C 81.723 237.533,79.647 241.145,79.763 241.449 C 79.935 241.896,81.778 242.000,89.525 242.000 C 100.585 242.000,99.252 242.543,102.292 236.800 C 103.399 234.710,104.961 231.760,105.764 230.245 C 106.566 228.730,107.143 227.409,107.044 227.311 C 106.945 227.212,106.693 227.462,106.482 227.866 C 104.552 231.566,101.254 237.783,100.362 239.400 L 99.258 241.400 89.629 241.507 C 84.333 241.566,80.000 241.461,80.000 241.274 C 80.000 241.087,82.345 237.279,85.212 232.812 C 89.957 225.417,91.006 223.554,89.673 224.887 " stroke="none" fill="#2cc47c" fill-rule="evenodd"></path><path id="path3" d="M241.390 124.500 C 241.549 165.915,241.806 199.936,241.961 200.101 C 242.116 200.267,270.403 200.357,304.821 200.301 L 367.400 200.200 367.502 162.500 L 367.604 124.800 304.802 124.800 L 242.000 124.800 242.000 87.000 C 242.000 59.260,241.880 49.200,241.550 49.200 C 241.217 49.200,241.175 68.804,241.390 124.500 M360.000 51.384 C 360.000 51.723,360.270 52.000,360.600 52.000 C 360.930 52.000,361.200 52.210,361.200 52.467 C 361.200 52.723,361.322 52.811,361.471 52.662 C 361.620 52.513,361.350 52.026,360.871 51.580 C 360.172 50.929,360.000 50.890,360.000 51.384 M364.398 55.700 C 364.634 55.975,365.094 56.560,365.419 57.000 C 365.764 57.466,365.967 57.561,365.906 57.228 C 365.773 56.512,364.731 55.200,364.295 55.200 C 364.116 55.200,364.162 55.425,364.398 55.700 " stroke="none" fill="#1cac64" fill-rule="evenodd"></path><path id="path4" d="M44.800 116.000 C 44.800 116.506,45.617 116.506,46.400 116.000 C 46.868 115.698,46.757 115.611,45.900 115.606 C 45.295 115.603,44.800 115.780,44.800 116.000 M39.100 117.957 C 38.303 118.765,38.140 119.455,38.900 118.802 C 39.175 118.566,39.760 118.115,40.200 117.799 C 40.782 117.382,40.836 117.228,40.400 117.236 C 40.070 117.243,39.485 117.567,39.100 117.957 M32.406 128.100 C 32.411 128.828,32.486 128.885,32.800 128.400 C 33.301 127.624,33.301 127.200,32.800 127.200 C 32.580 127.200,32.403 127.605,32.406 128.100 M199.995 235.096 C 199.990 271.846,200.000 271.628,198.271 275.619 C 197.529 277.332,194.341 280.604,192.636 281.402 C 188.660 283.262,190.044 283.200,152.523 283.200 C 128.903 283.200,116.890 283.338,116.374 283.614 C 115.489 284.088,115.122 337.257,116.000 337.800 C 116.220 337.936,116.400 338.757,116.400 339.624 C 116.400 340.491,116.580 341.200,116.800 341.200 C 117.020 341.200,117.200 341.449,117.200 341.754 C 117.200 343.241,122.460 349.200,123.773 349.200 C 124.118 349.200,124.400 349.380,124.400 349.600 C 124.400 349.820,125.030 350.000,125.800 350.000 C 126.570 350.000,127.200 350.180,127.200 350.400 C 127.200 350.665,146.763 350.798,185.100 350.794 C 216.945 350.791,242.796 350.656,242.547 350.494 C 242.215 350.278,242.002 330.250,241.747 275.200 L 241.400 200.200 220.700 200.096 L 200.000 199.993 199.995 235.096 M32.406 271.900 C 32.403 272.395,32.580 272.800,32.800 272.800 C 33.301 272.800,33.301 272.376,32.800 271.600 C 32.486 271.115,32.411 271.172,32.406 271.900 M366.800 305.800 C 366.800 325.133,366.937 335.200,367.200 335.200 C 367.463 335.200,367.600 325.133,367.600 305.800 C 367.600 286.467,367.463 276.400,367.200 276.400 C 366.937 276.400,366.800 286.467,366.800 305.800 M45.000 284.000 C 45.136 284.220,45.642 284.387,46.124 284.372 C 46.969 284.345,46.971 284.331,46.200 284.000 C 45.099 283.527,44.708 283.527,45.000 284.000 M366.915 338.015 C 366.866 338.710,366.995 339.127,367.215 338.991 C 367.666 338.712,367.740 336.800,367.300 336.801 C 367.135 336.801,366.962 337.348,366.915 338.015 M366.451 340.200 C 366.413 340.640,366.030 341.450,365.600 342.000 C 365.170 342.550,364.814 343.197,364.809 343.438 C 364.804 343.679,364.440 344.202,364.000 344.600 C 363.560 344.998,363.200 345.504,363.200 345.723 C 363.200 345.943,363.830 345.474,364.600 344.681 C 365.370 343.888,366.000 342.976,366.000 342.653 C 366.000 342.331,366.196 342.001,366.435 341.922 C 366.674 341.842,366.791 341.242,366.695 340.588 C 366.595 339.907,366.491 339.741,366.451 340.200 M361.600 347.000 C 361.083 347.550,360.481 348.000,360.262 348.000 C 360.042 348.000,359.558 348.276,359.186 348.612 C 358.814 348.949,358.101 349.304,357.601 349.400 C 356.176 349.674,356.140 350.000,357.533 350.000 C 358.230 350.000,358.800 349.820,358.800 349.600 C 358.800 349.380,359.147 349.200,359.571 349.200 C 359.995 349.200,360.696 348.750,361.129 348.200 C 361.561 347.650,362.114 347.200,362.358 347.200 C 362.601 347.200,362.800 346.930,362.800 346.600 C 362.800 345.798,362.697 345.833,361.600 347.000 M352.800 350.500 C 352.800 350.665,353.520 350.800,354.400 350.800 C 355.280 350.800,356.000 350.655,356.000 350.479 C 356.000 350.302,355.280 350.167,354.400 350.179 C 353.520 350.190,352.800 350.335,352.800 350.500 " stroke="none" fill="#19492c" fill-rule="evenodd"></path></g></svg>