<svg id="svg" version="1.1" xmlns="http://www.w3.org/2000/svg" xmlns:xlink="http://www.w3.org/1999/xlink" width="400" height="400" viewBox="0, 0, 400,400"><g id="svgg"><path id="path0" d="M192.917 210.450 C 187.143 210.974,181.574 213.947,179.669 217.521 C 178.098 220.468,177.731 230.483,179.085 233.460 C 180.510 236.596,184.272 239.193,189.400 240.580 C 192.876 241.520,193.081 241.536,203.333 241.667 C 214.996 241.817,216.312 241.995,218.240 243.693 C 219.635 244.920,219.667 245.059,219.665 249.785 L 219.664 253.917 219.175 254.769 C 218.359 256.192,217.281 256.914,215.028 257.546 C 213.762 257.902,213.581 257.906,195.958 257.961 L 178.167 258.017 178.167 262.092 L 178.167 266.167 196.292 266.164 C 206.977 266.162,215.067 266.094,216.000 265.997 C 224.292 265.138,230.753 261.057,231.828 256.000 C 231.962 255.369,232.007 253.241,231.970 249.167 L 231.917 243.250 231.400 242.167 C 229.814 238.837,225.042 235.959,219.257 234.842 C 216.474 234.305,213.558 234.170,204.667 234.165 C 195.662 234.160,194.923 234.099,193.310 233.221 C 191.071 232.003,190.666 230.863,190.668 225.785 C 190.672 218.062,189.200 218.514,214.375 218.506 L 232.500 218.500 232.500 214.417 L 232.500 210.333 213.042 210.361 C 202.340 210.377,193.283 210.417,192.917 210.450 M255.147 210.512 C 248.131 211.256,242.811 214.179,240.748 218.421 C 239.614 220.755,239.652 220.009,239.704 238.629 L 239.750 255.417 240.218 256.799 C 241.924 261.840,247.422 265.262,255.257 266.160 C 257.677 266.437,270.422 266.376,275.944 266.061 L 280.804 265.784 285.611 270.136 L 290.417 274.488 297.472 274.494 C 301.836 274.498,304.507 274.440,304.472 274.342 C 304.442 274.256,302.204 272.183,299.500 269.736 C 296.796 267.289,294.184 264.923,293.696 264.478 L 292.808 263.668 293.279 263.490 C 296.103 262.425,298.611 259.576,299.447 256.485 C 299.873 254.908,299.995 223.174,299.582 221.083 C 298.424 215.210,292.900 211.426,284.139 210.503 C 282.282 210.307,257.003 210.316,255.147 210.512 M307.333 232.053 C 307.333 247.022,307.390 254.079,307.515 254.761 C 308.590 260.610,313.717 264.308,322.507 265.576 C 326.153 266.102,328.461 266.163,344.625 266.165 L 361.000 266.167 361.000 262.093 L 361.000 258.019 343.542 257.953 C 324.711 257.881,325.186 257.903,322.760 256.991 C 321.522 256.526,320.347 255.396,319.904 254.244 C 319.597 253.447,319.584 252.622,319.538 231.875 L 319.490 210.333 313.412 210.333 L 307.333 210.333 307.333 232.053 M283.137 218.889 C 285.393 219.487,286.927 220.528,287.755 222.024 L 288.250 222.917 288.250 238.250 L 288.250 253.583 287.842 254.382 C 287.403 255.241,285.844 256.833,285.442 256.833 C 285.307 256.833,283.259 255.073,280.890 252.922 L 276.583 249.011 269.528 249.006 C 265.251 249.002,262.494 249.061,262.528 249.155 C 262.558 249.240,264.778 251.303,267.460 253.738 L 272.336 258.167 266.710 258.162 C 257.960 258.154,255.729 257.614,254.040 255.100 C 252.780 253.224,252.821 253.834,252.871 237.583 L 252.917 223.083 253.406 222.199 C 254.487 220.249,256.658 219.050,259.802 218.668 C 262.090 218.390,281.964 218.579,283.137 218.889 M364.000 258.750 L 364.000 259.500 365.250 259.500 L 366.500 259.500 366.500 262.833 L 366.500 266.167 367.417 266.167 L 368.333 266.167 368.333 262.833 L 368.333 259.500 369.500 259.500 L 370.667 259.500 370.667 258.750 L 370.667 258.000 367.333 258.000 L 364.000 258.000 364.000 258.750 M372.333 262.083 L 372.333 266.167 373.246 266.167 L 374.159 266.167 374.204 263.375 L 374.250 260.583 375.272 263.333 L 376.293 266.083 377.022 266.131 L 377.750 266.178 378.750 263.464 L 379.750 260.750 379.796 263.458 L 379.842 266.167 380.754 266.167 L 381.667 266.167 381.667 262.083 L 381.667 258.000 380.348 258.000 L 379.029 258.000 378.602 259.125 C 378.368 259.744,377.929 260.936,377.628 261.774 L 377.080 263.299 376.024 260.649 L 374.969 258.000 373.651 258.000 L 372.333 258.000 372.333 262.083 " stroke="none" fill="#cc8c2c" fill-rule="evenodd"></path><path id="path1" d="M251.711 93.745 C 248.169 94.746,245.989 97.916,246.213 101.740 C 246.378 104.560,247.644 107.120,250.912 111.250 C 255.962 117.629,257.151 119.543,257.999 122.661 C 260.323 131.210,264.787 141.043,267.760 144.167 C 269.291 145.774,269.409 146.077,268.905 147.096 C 268.682 147.547,268.311 148.704,268.080 149.667 C 267.850 150.629,267.399 152.392,267.080 153.583 C 263.893 165.456,265.212 177.766,270.498 185.484 C 273.486 189.846,276.898 191.414,280.040 189.867 C 282.230 188.789,282.789 187.571,283.581 182.167 C 284.094 178.660,284.494 176.450,284.645 176.293 C 284.711 176.225,285.585 177.837,286.587 179.876 C 289.694 186.193,292.921 190.086,299.215 195.114 C 300.334 196.008,302.226 197.680,303.419 198.828 C 304.903 200.258,305.863 201.044,306.460 201.320 C 308.089 202.073,307.818 201.668,305.078 199.255 C 301.423 196.036,295.833 188.034,291.161 179.333 C 288.990 175.290,286.062 168.786,285.428 166.602 C 284.823 164.515,284.567 164.445,283.333 166.028 C 282.829 166.674,282.057 167.664,281.617 168.227 C 279.313 171.175,278.333 174.820,277.408 183.888 C 277.116 186.744,274.382 184.497,272.373 179.750 C 268.808 171.327,268.649 161.248,271.938 152.161 C 274.348 145.501,274.300 144.525,271.412 141.500 C 268.369 138.313,266.636 134.810,264.075 126.667 C 261.352 118.008,260.021 115.539,253.834 107.667 C 249.715 102.425,249.564 98.563,253.476 98.510 C 256.313 98.471,265.261 102.678,268.503 105.574 C 270.134 107.031,271.041 107.497,272.250 107.497 C 272.800 107.498,274.000 107.573,274.917 107.663 C 275.833 107.754,277.656 107.906,278.967 108.001 C 287.015 108.583,300.668 116.768,310.427 126.860 C 317.257 133.923,323.145 142.647,326.082 150.057 C 327.391 153.358,327.979 154.684,330.419 159.833 C 331.309 161.712,332.934 165.237,334.028 167.667 C 339.114 178.953,339.699 179.635,346.083 181.716 C 354.081 184.323,355.021 184.754,359.750 187.983 C 361.767 189.359,364.824 191.428,366.544 192.579 C 369.879 194.811,370.876 195.610,371.265 196.362 L 371.509 196.833 368.796 196.834 C 363.780 196.835,359.214 197.476,355.722 198.669 C 354.637 199.040,353.176 199.517,352.474 199.730 C 350.140 200.438,349.476 201.116,350.038 202.215 C 350.189 202.509,350.570 203.313,350.884 204.000 C 352.152 206.768,354.228 209.115,357.744 211.754 C 361.751 214.761,362.510 215.201,369.200 218.388 C 372.743 220.076,378.134 223.680,380.583 225.999 C 382.216 227.544,382.832 227.718,382.208 226.457 C 382.016 226.068,381.676 225.338,381.453 224.833 C 381.157 224.167,380.641 223.525,379.565 222.484 C 378.750 221.697,377.461 220.296,376.701 219.372 C 375.062 217.380,372.741 215.127,370.442 213.295 C 368.585 211.816,368.266 211.603,365.417 209.946 C 361.159 207.471,358.961 205.724,358.184 204.201 L 357.827 203.500 358.242 203.500 C 358.471 203.500,359.841 203.192,361.287 202.817 C 365.097 201.826,365.731 201.701,368.893 201.317 C 371.610 200.986,373.947 200.489,376.625 199.670 C 378.124 199.212,378.244 198.781,377.197 197.621 C 376.847 197.234,376.202 196.443,375.763 195.865 C 374.035 193.588,372.986 192.583,368.983 189.373 C 364.581 185.844,358.600 181.724,355.921 180.375 C 353.888 179.352,349.324 177.299,347.105 176.409 C 344.621 175.413,344.069 174.790,342.260 170.949 C 341.777 169.923,340.403 167.096,339.208 164.667 C 336.155 158.463,333.373 152.296,331.502 147.583 C 327.030 136.320,316.791 123.700,304.776 114.639 C 293.501 106.137,286.763 103.188,277.418 102.663 C 273.400 102.438,273.659 102.525,271.370 100.631 C 265.599 95.853,256.067 92.515,251.711 93.745 M275.750 116.417 C 275.658 116.449,275.170 116.521,274.665 116.578 C 273.011 116.763,273.069 117.048,275.266 119.535 C 275.901 120.253,276.569 121.332,277.385 122.958 C 278.708 125.592,278.614 125.497,279.312 124.909 C 281.126 123.383,281.241 120.655,279.590 118.293 C 278.764 117.112,276.684 116.095,275.750 116.417 M26.750 209.409 C 21.064 210.507,18.943 211.940,17.856 215.417 C 17.626 216.153,17.589 219.140,17.543 241.208 L 17.490 266.167 23.661 266.167 L 29.832 266.167 29.874 242.651 L 29.917 219.135 31.444 222.526 C 49.303 262.165,49.604 262.799,51.313 264.363 C 54.731 267.493,63.325 267.794,67.124 264.917 C 69.320 263.254,68.874 264.138,79.852 239.697 L 89.083 219.144 89.126 242.655 L 89.168 266.167 95.334 266.167 L 101.500 266.167 101.498 241.458 C 101.495 214.589,101.532 215.706,100.573 213.813 C 99.689 212.069,97.778 210.776,94.962 210.017 C 87.314 207.955,81.418 209.545,78.435 214.473 C 78.016 215.166,61.550 251.646,59.513 256.395 L 59.237 257.040 50.676 237.228 C 39.697 211.821,40.467 213.402,38.219 211.639 C 35.490 209.499,30.904 208.607,26.750 209.409 M156.833 242.667 L 156.833 258.333 143.292 258.328 C 126.168 258.320,125.468 258.216,124.101 255.472 L 123.667 254.601 123.667 240.884 L 123.667 227.167 117.542 227.167 L 111.417 227.167 111.417 241.459 C 111.417 255.676,111.419 255.755,111.775 256.696 C 113.344 260.842,118.407 264.077,125.159 265.249 C 127.977 265.738,130.791 265.826,143.708 265.830 L 156.667 265.833 156.695 267.708 C 156.763 272.245,156.143 273.186,152.309 274.367 L 151.083 274.744 131.375 274.793 L 111.667 274.843 111.667 278.921 L 111.667 283.000 131.340 283.000 C 144.040 283.000,151.587 282.938,152.632 282.824 C 160.191 282.000,165.719 279.169,167.901 275.004 C 169.157 272.607,169.066 274.516,169.124 249.458 L 169.176 227.000 163.005 227.000 L 156.833 227.000 156.833 242.667 " stroke="none" fill="#04648c" fill-rule="evenodd"></path><path id="path2" d="" stroke="none" fill="#d0785c" fill-rule="evenodd"></path><path id="path3" d="" stroke="none" fill="#38785c" fill-rule="evenodd"></path><path id="path4" d="" stroke="none" fill="#047890" fill-rule="evenodd"></path></g></svg>