<svg id="svg" version="1.1" xmlns="http://www.w3.org/2000/svg" xmlns:xlink="http://www.w3.org/1999/xlink" width="400" height="400" viewBox="0, 0, 400,400"><g id="svgg"><path id="path0" d="M190.000 0.400 C 190.000 0.620,190.270 0.800,190.600 0.800 C 190.930 0.800,191.200 0.620,191.200 0.400 C 191.200 0.180,190.930 0.000,190.600 0.000 C 190.270 0.000,190.000 0.180,190.000 0.400 M133.274 2.444 C 132.765 2.636,132.461 2.975,132.599 3.198 C 132.809 3.538,133.994 3.198,134.727 2.586 C 135.125 2.253,134.057 2.148,133.274 2.444 M128.000 4.476 C 128.000 5.247,128.060 5.277,128.500 4.722 C 128.775 4.376,129.270 3.996,129.600 3.878 C 129.932 3.759,129.708 3.649,129.100 3.632 C 128.225 3.606,128.000 3.779,128.000 4.476 M123.200 5.800 C 123.200 6.130,123.361 6.400,123.557 6.400 C 123.754 6.400,124.018 6.130,124.145 5.800 C 124.285 5.435,124.145 5.200,123.787 5.200 C 123.464 5.200,123.200 5.470,123.200 5.800 M115.384 8.427 C 114.928 9.164,115.532 9.325,116.210 8.648 C 116.769 8.088,116.775 8.000,116.252 8.000 C 115.919 8.000,115.529 8.192,115.384 8.427 M226.655 8.600 C 226.930 9.316,227.444 9.376,227.838 8.738 C 228.015 8.452,227.948 8.385,227.662 8.562 C 227.408 8.719,227.200 8.657,227.200 8.424 C 227.200 8.191,227.026 8.000,226.813 8.000 C 226.599 8.000,226.529 8.270,226.655 8.600 M112.162 10.069 C 111.743 10.547,111.626 10.806,111.901 10.644 C 112.177 10.483,112.897 10.093,113.501 9.778 C 114.459 9.279,114.492 9.205,113.762 9.202 C 113.301 9.201,112.581 9.591,112.162 10.069 M109.100 11.076 C 108.163 11.321,108.205 12.000,109.157 12.000 C 109.574 12.000,110.018 11.730,110.145 11.400 C 110.381 10.785,110.305 10.761,109.100 11.076 M106.200 12.800 C 105.635 13.424,105.602 13.600,106.049 13.600 C 106.364 13.600,106.930 13.240,107.307 12.800 C 107.814 12.208,107.853 12.000,107.458 12.000 C 107.164 12.000,106.598 12.360,106.200 12.800 M100.797 15.603 C 100.288 16.044,99.971 16.504,100.091 16.625 C 100.212 16.745,100.807 16.384,101.414 15.822 C 102.709 14.622,102.155 14.425,100.797 15.603 M98.284 17.200 C 98.169 17.640,98.108 18.000,98.149 18.000 C 98.189 18.000,98.530 17.640,98.907 17.200 C 99.432 16.587,99.463 16.400,99.043 16.400 C 98.741 16.400,98.399 16.760,98.284 17.200 M95.884 18.401 C 95.518 18.924,95.299 19.432,95.397 19.530 C 95.698 19.832,97.600 18.412,97.594 17.891 C 97.590 17.544,97.487 17.560,97.242 17.945 C 96.964 18.384,96.863 18.389,96.723 17.970 C 96.607 17.622,96.331 17.763,95.884 18.401 M94.196 19.607 C 94.058 19.830,93.749 19.892,93.511 19.745 C 93.266 19.593,93.190 19.661,93.338 19.899 C 93.485 20.138,93.076 20.505,92.400 20.740 C 91.740 20.970,91.200 21.348,91.200 21.579 C 91.200 21.811,90.840 22.000,90.400 22.000 C 89.960 22.000,89.600 22.188,89.600 22.418 C 89.600 23.029,90.876 22.713,91.800 21.873 C 92.240 21.472,93.056 21.053,93.614 20.940 C 94.276 20.806,94.629 20.468,94.629 19.967 C 94.629 19.095,94.552 19.031,94.196 19.607 M259.623 22.628 C 259.880 22.938,260.262 23.085,260.472 22.956 C 260.938 22.668,260.592 22.275,259.766 22.154 C 259.284 22.083,259.254 22.183,259.623 22.628 M86.900 24.345 C 86.185 24.957,85.600 25.665,85.600 25.917 C 85.600 26.169,85.330 26.271,85.000 26.145 C 84.640 26.007,84.400 26.142,84.400 26.483 C 84.400 26.796,83.770 27.352,83.000 27.719 C 82.230 28.087,81.600 28.570,81.600 28.794 C 81.600 29.017,81.375 29.203,81.100 29.207 C 80.490 29.215,78.800 30.942,78.800 31.556 C 78.800 31.800,78.440 32.000,78.000 32.000 C 77.556 32.000,77.200 32.267,77.200 32.600 C 77.200 32.933,76.844 33.200,76.400 33.200 C 75.867 33.200,75.600 33.467,75.600 34.000 C 75.600 34.444,75.333 34.800,75.000 34.800 C 74.670 34.800,74.400 35.070,74.400 35.400 C 74.400 35.941,73.925 36.178,73.100 36.047 C 72.935 36.021,72.800 36.360,72.800 36.800 C 72.800 37.244,72.533 37.600,72.200 37.600 C 71.870 37.600,71.600 37.870,71.600 38.200 C 71.600 38.533,71.244 38.800,70.800 38.800 C 70.283 38.800,70.000 39.067,70.000 39.553 C 70.000 39.971,69.643 40.400,69.198 40.516 C 68.664 40.656,68.478 40.938,68.641 41.363 C 68.784 41.735,68.679 42.000,68.389 42.000 C 67.813 42.000,65.776 44.054,65.910 44.500 C 65.993 44.777,65.394 44.953,64.714 44.852 C 64.557 44.829,64.522 45.052,64.636 45.349 C 64.836 45.871,63.137 48.269,62.107 48.920 C 61.828 49.096,61.600 49.411,61.600 49.620 C 61.600 49.829,61.285 50.347,60.900 50.771 C 59.556 52.252,59.186 52.786,58.804 53.789 C 58.593 54.345,58.235 54.800,58.010 54.800 C 57.784 54.800,57.600 55.070,57.600 55.400 C 57.600 55.941,57.125 56.178,56.300 56.047 C 56.135 56.021,56.021 56.135,56.047 56.300 C 56.235 57.491,55.918 58.800,55.440 58.800 C 54.851 58.800,53.200 61.609,53.200 62.612 C 53.200 62.936,52.938 63.200,52.618 63.200 C 52.270 63.200,51.931 63.762,51.774 64.600 C 51.623 65.402,51.274 66.000,50.955 66.000 C 50.615 66.000,50.400 66.430,50.400 67.111 C 50.400 67.727,50.044 68.527,49.600 68.907 C 49.160 69.284,48.800 70.025,48.800 70.553 C 48.800 71.082,48.530 71.618,48.200 71.745 C 47.870 71.871,47.600 72.258,47.600 72.604 C 47.600 72.950,47.240 73.620,46.800 74.092 C 46.089 74.856,45.780 75.916,45.969 76.949 C 46.004 77.141,45.755 77.192,45.416 77.062 C 45.075 76.930,44.785 77.042,44.767 77.313 C 44.660 78.899,44.287 80.170,43.780 80.677 C 43.461 80.996,43.200 81.590,43.200 81.996 C 43.200 83.095,42.774 84.000,42.257 84.001 C 42.006 84.001,41.756 84.496,41.702 85.101 C 41.554 86.751,41.409 87.315,40.881 88.274 C 40.616 88.754,40.400 89.634,40.400 90.230 C 40.400 90.825,40.104 91.528,39.742 91.793 C 39.380 92.058,39.045 92.926,38.996 93.724 C 38.948 94.522,38.630 95.599,38.291 96.118 C 37.951 96.636,37.624 97.766,37.563 98.630 C 37.502 99.493,37.235 100.470,36.970 100.800 C 36.704 101.130,36.356 102.390,36.196 103.600 C 36.037 104.810,35.657 106.286,35.353 106.880 C 35.049 107.475,34.800 109.138,34.800 110.580 C 34.800 112.021,34.641 113.200,34.447 113.200 C 33.889 113.200,33.560 114.730,33.328 118.400 C 33.211 120.270,32.933 122.023,32.711 122.296 C 32.490 122.569,32.214 123.967,32.099 125.403 C 31.727 130.038,28.289 129.605,65.162 129.571 C 101.045 129.538,99.269 129.687,99.524 126.676 C 99.592 125.871,99.952 124.984,100.324 124.706 C 100.779 124.365,101.044 123.481,101.134 122.000 C 101.208 120.790,101.517 119.260,101.823 118.600 C 102.128 117.940,102.420 116.709,102.473 115.864 C 102.525 115.019,102.846 114.119,103.184 113.864 C 103.531 113.602,103.859 112.615,103.936 111.600 C 104.012 110.594,104.321 109.659,104.636 109.480 C 104.946 109.304,105.200 108.629,105.200 107.980 C 105.200 107.331,105.515 106.484,105.900 106.099 C 106.285 105.713,106.662 104.784,106.737 104.033 C 106.812 103.283,107.127 102.415,107.437 102.106 C 107.747 101.796,108.000 101.146,108.000 100.660 C 108.000 100.175,108.360 99.470,108.800 99.093 C 109.240 98.716,109.600 97.937,109.600 97.361 C 109.600 96.599,109.762 96.376,110.195 96.543 C 110.523 96.668,110.771 96.643,110.748 96.486 C 110.500 94.823,110.871 93.600,111.624 93.600 C 112.077 93.600,112.345 93.435,112.221 93.234 C 111.879 92.680,112.739 90.715,113.199 91.000 C 113.438 91.147,113.600 90.682,113.600 89.851 C 113.600 88.805,113.801 88.390,114.400 88.200 C 114.840 88.060,115.200 87.664,115.200 87.320 C 115.200 86.976,115.515 86.403,115.900 86.047 C 116.285 85.691,116.660 85.130,116.732 84.800 C 116.805 84.470,117.120 84.056,117.432 83.880 C 117.745 83.704,118.000 83.190,118.000 82.737 C 118.000 82.183,118.189 81.987,118.580 82.137 C 118.944 82.277,119.085 82.167,118.960 81.840 C 118.851 81.555,119.217 80.889,119.774 80.361 C 120.331 79.832,120.789 79.175,120.793 78.900 C 120.797 78.625,120.986 78.400,121.213 78.400 C 121.439 78.400,121.745 78.085,121.892 77.700 C 122.039 77.315,122.484 76.651,122.880 76.225 C 123.276 75.798,123.600 75.234,123.600 74.971 C 123.600 74.708,123.960 74.399,124.400 74.284 C 124.840 74.169,125.200 73.788,125.200 73.437 C 125.200 73.087,125.470 72.800,125.800 72.800 C 126.133 72.800,126.400 72.444,126.400 72.000 C 126.400 71.467,126.667 71.200,127.200 71.200 C 127.640 71.200,128.000 70.949,128.000 70.643 C 128.000 70.336,128.270 69.982,128.600 69.855 C 128.930 69.729,129.200 69.370,129.200 69.059 C 129.200 68.748,129.578 68.394,130.040 68.274 C 130.502 68.153,130.774 67.882,130.645 67.672 C 130.515 67.463,130.767 67.197,131.204 67.083 C 131.642 66.969,132.000 66.588,132.000 66.237 C 132.000 65.887,132.225 65.597,132.500 65.593 C 133.096 65.585,134.553 64.084,134.914 63.107 C 135.069 62.687,135.412 62.507,135.785 62.650 C 136.179 62.801,136.400 62.658,136.400 62.250 C 136.400 61.901,136.838 61.505,137.373 61.371 C 137.996 61.215,138.269 60.923,138.131 60.563 C 137.982 60.175,138.214 60.000,138.877 60.000 C 139.914 60.000,140.800 59.336,140.800 58.557 C 140.800 58.272,140.474 58.160,140.000 58.284 C 139.560 58.399,139.200 58.656,139.200 58.855 C 139.200 59.054,138.750 59.422,138.200 59.673 C 137.650 59.923,137.200 60.370,137.200 60.664 C 137.200 60.959,136.949 61.200,136.641 61.200 C 136.334 61.200,135.530 61.830,134.854 62.600 C 134.178 63.370,133.259 64.000,132.812 64.000 C 132.365 64.000,132.000 64.249,132.000 64.554 C 132.000 64.859,131.325 65.426,130.500 65.814 C 129.675 66.201,128.910 66.644,128.800 66.798 C 128.225 67.604,125.200 67.609,125.200 66.805 C 125.200 66.267,124.935 66.000,124.400 66.000 C 123.867 66.000,123.600 65.733,123.600 65.200 C 123.600 64.756,123.333 64.400,123.000 64.400 C 122.667 64.400,122.400 64.044,122.400 63.600 C 122.400 62.952,122.133 62.800,121.000 62.800 C 120.022 62.800,119.600 62.619,119.600 62.200 C 119.600 61.867,119.244 61.600,118.800 61.600 C 118.267 61.600,118.000 61.333,118.000 60.800 C 118.000 60.356,117.733 60.000,117.400 60.000 C 117.070 60.000,116.800 59.730,116.800 59.400 C 116.800 59.067,116.444 58.800,116.000 58.800 C 115.467 58.800,115.200 58.533,115.200 58.000 C 115.200 57.467,114.933 57.200,114.400 57.200 C 113.956 57.200,113.600 56.933,113.600 56.600 C 113.600 56.270,113.330 56.000,113.000 56.000 C 112.667 56.000,112.400 55.644,112.400 55.200 C 112.400 54.667,112.133 54.400,111.600 54.400 C 111.156 54.400,110.800 54.133,110.800 53.800 C 110.800 53.470,110.530 53.200,110.200 53.200 C 109.867 53.200,109.600 52.844,109.600 52.400 C 109.600 51.752,109.333 51.600,108.200 51.600 C 107.222 51.600,106.800 51.419,106.800 51.000 C 106.800 50.667,106.444 50.400,106.000 50.400 C 105.467 50.400,105.200 50.133,105.200 49.600 C 105.200 49.156,104.933 48.800,104.600 48.800 C 104.270 48.800,104.000 48.530,104.000 48.200 C 104.000 47.867,103.644 47.600,103.200 47.600 C 102.667 47.600,102.400 47.333,102.400 46.800 C 102.400 46.356,102.133 46.000,101.800 46.000 C 101.470 46.000,101.200 45.730,101.200 45.400 C 101.200 45.067,100.844 44.800,100.400 44.800 C 99.867 44.800,99.600 44.533,99.600 44.000 C 99.600 43.556,99.333 43.200,99.000 43.200 C 98.667 43.200,98.400 42.844,98.400 42.400 C 98.400 41.867,98.133 41.600,97.600 41.600 C 97.156 41.600,96.800 41.333,96.800 41.000 C 96.800 40.581,96.378 40.400,95.400 40.400 C 94.267 40.400,94.000 40.248,94.000 39.600 C 94.000 39.067,93.733 38.800,93.200 38.800 C 92.756 38.800,92.400 38.533,92.400 38.200 C 92.400 37.870,92.130 37.600,91.800 37.600 C 91.467 37.600,91.200 37.244,91.200 36.800 C 91.200 36.267,90.933 36.000,90.400 36.000 C 89.956 36.000,89.600 35.733,89.600 35.400 C 89.600 35.070,89.330 34.800,89.000 34.800 C 88.667 34.800,88.400 34.444,88.400 34.000 C 88.400 33.467,88.133 33.200,87.600 33.200 C 87.156 33.200,86.800 32.933,86.800 32.600 C 86.800 32.181,86.378 32.000,85.400 32.000 C 84.086 32.000,84.000 31.920,84.006 30.700 C 84.010 29.836,84.126 29.579,84.351 29.934 C 84.612 30.346,84.735 30.292,84.890 29.700 C 85.055 29.067,84.907 28.955,84.045 29.063 C 83.229 29.165,83.285 29.104,84.300 28.785 C 85.015 28.561,85.600 28.107,85.600 27.776 C 85.600 27.445,85.870 27.071,86.200 26.945 C 86.530 26.818,86.800 26.498,86.800 26.232 C 86.800 25.759,88.804 24.063,89.994 23.528 C 90.377 23.357,90.157 23.252,89.400 23.244 C 88.653 23.237,87.709 23.653,86.900 24.345 M272.239 29.538 C 272.100 29.761,272.182 30.065,272.420 30.212 C 273.035 30.593,273.432 30.072,272.918 29.558 C 272.631 29.271,272.407 29.264,272.239 29.538 M193.776 38.187 C 193.097 38.701,193.085 38.776,193.676 38.787 C 194.048 38.794,194.466 38.617,194.604 38.393 C 194.742 38.170,195.051 38.108,195.289 38.255 C 195.549 38.415,195.609 38.337,195.438 38.062 C 195.062 37.453,194.713 37.479,193.776 38.187 M184.032 39.277 C 184.008 39.776,183.553 39.994,182.300 40.107 L 180.600 40.260 182.256 40.330 C 183.353 40.376,184.169 40.164,184.675 39.700 C 185.094 39.315,185.222 39.143,184.958 39.317 C 184.680 39.500,184.391 39.416,184.270 39.117 C 184.135 38.779,184.052 38.834,184.032 39.277 M228.100 40.276 C 228.485 40.376,229.115 40.376,229.500 40.276 C 229.885 40.175,229.570 40.093,228.800 40.093 C 228.030 40.093,227.715 40.175,228.100 40.276 M177.450 40.914 C 176.792 41.395,176.800 41.429,177.563 41.429 C 178.013 41.429,178.469 41.197,178.578 40.914 C 178.686 40.631,178.635 40.400,178.464 40.400 C 178.293 40.400,177.836 40.631,177.450 40.914 M167.562 43.846 C 167.098 44.405,167.127 44.473,167.780 44.346 C 168.194 44.266,168.609 43.975,168.700 43.700 C 168.938 42.986,168.196 43.082,167.562 43.846 M244.000 43.800 C 244.000 44.130,244.264 44.400,244.587 44.400 C 244.945 44.400,245.085 44.165,244.945 43.800 C 244.818 43.470,244.554 43.200,244.357 43.200 C 244.161 43.200,244.000 43.470,244.000 43.800 M248.533 44.981 C 248.533 45.303,248.799 45.668,249.124 45.792 C 250.023 46.137,250.089 45.805,249.269 45.063 C 248.661 44.512,248.533 44.498,248.533 44.981 M294.655 45.400 C 294.782 45.730,295.158 46.000,295.492 46.000 C 295.985 46.000,296.005 45.888,295.600 45.400 C 295.326 45.070,294.950 44.800,294.764 44.800 C 294.577 44.800,294.529 45.070,294.655 45.400 M163.400 45.600 C 162.629 45.931,162.631 45.945,163.476 45.972 C 163.958 45.987,164.464 45.820,164.600 45.600 C 164.892 45.127,164.501 45.127,163.400 45.600 M161.796 46.007 C 161.658 46.230,161.422 46.339,161.272 46.249 C 161.123 46.158,160.768 46.335,160.484 46.642 C 160.062 47.099,160.069 47.200,160.522 47.200 C 160.827 47.200,161.402 46.840,161.800 46.400 C 162.198 45.960,162.417 45.600,162.286 45.600 C 162.154 45.600,161.934 45.783,161.796 46.007 M157.443 47.833 C 156.955 49.104,157.736 49.241,158.400 48.000 C 158.735 47.374,158.704 47.200,158.257 47.200 C 157.943 47.200,157.576 47.485,157.443 47.833 M154.666 49.373 C 154.522 49.748,154.693 49.928,155.156 49.893 C 155.547 49.864,155.867 49.606,155.867 49.320 C 155.867 48.616,154.940 48.658,154.666 49.373 M152.400 50.571 C 152.400 50.885,152.085 51.224,151.700 51.326 C 151.315 51.428,151.495 51.492,152.100 51.468 C 153.144 51.428,153.825 50.000,152.800 50.000 C 152.580 50.000,152.400 50.257,152.400 50.571 M149.458 52.397 C 148.735 53.128,148.737 53.142,149.558 52.927 C 150.021 52.806,150.400 52.458,150.400 52.153 C 150.400 51.468,150.370 51.475,149.458 52.397 M145.891 54.564 C 145.110 55.094,144.176 55.589,143.814 55.664 C 143.453 55.739,143.212 55.953,143.279 56.139 C 143.345 56.326,142.908 56.686,142.308 56.939 C 141.469 57.293,141.305 57.539,141.601 58.000 C 141.937 58.521,141.989 58.514,141.994 57.947 C 141.999 57.422,143.219 56.737,143.955 56.845 C 144.041 56.858,144.259 56.628,144.441 56.334 C 144.622 56.040,144.957 55.778,145.185 55.750 C 145.413 55.723,145.791 55.678,146.024 55.650 C 146.257 55.623,146.336 55.420,146.200 55.199 C 146.063 54.979,146.413 54.623,146.976 54.409 C 147.539 54.195,148.000 53.925,148.000 53.810 C 148.000 53.370,147.261 53.634,145.891 54.564 M364.254 156.998 C 364.381 157.326,364.645 157.496,364.842 157.374 C 365.039 157.252,365.200 157.373,365.200 157.643 C 365.200 157.913,365.316 158.018,365.457 157.876 C 365.751 157.583,364.875 156.400,364.364 156.400 C 364.177 156.400,364.128 156.669,364.254 156.998 M381.292 156.875 C 381.379 157.136,381.664 157.421,381.925 157.508 C 382.218 157.606,382.307 157.423,382.157 157.033 C 381.878 156.306,381.052 156.155,381.292 156.875 M389.443 179.769 C 389.564 180.082,389.938 180.444,390.275 180.574 C 390.715 180.742,390.820 180.629,390.645 180.172 C 390.510 179.821,390.400 179.459,390.400 179.367 C 390.400 179.275,390.136 179.200,389.813 179.200 C 389.469 179.200,389.316 179.436,389.443 179.769 M374.167 186.256 C 374.224 186.641,374.479 187.026,374.735 187.112 C 375.386 187.329,375.316 186.594,374.632 186.027 C 374.176 185.648,374.084 185.693,374.167 186.256 M375.246 190.867 C 375.181 191.812,375.613 192.800,376.092 192.800 C 376.367 192.800,376.367 192.638,376.092 192.300 C 375.869 192.025,375.598 191.440,375.489 191.000 C 375.344 190.410,375.281 190.375,375.246 190.867 M378.101 207.400 C 378.105 208.280,378.187 208.593,378.283 208.095 C 378.379 207.598,378.375 206.878,378.275 206.495 C 378.175 206.113,378.096 206.520,378.101 207.400 M378.390 244.818 C 377.986 245.574,378.015 245.597,378.776 245.122 C 379.642 244.581,379.869 244.000,379.214 244.000 C 379.002 244.000,378.631 244.368,378.390 244.818 M124.000 253.078 C 123.670 253.196,123.220 253.499,123.000 253.752 C 121.565 255.403,116.962 258.244,114.000 259.308 C 110.221 260.665,107.565 260.800,84.603 260.800 C 65.131 260.800,61.638 260.887,60.976 261.387 C 60.291 261.906,63.134 261.976,85.224 261.987 C 106.620 261.998,110.360 261.915,111.024 261.413 C 111.451 261.090,112.537 260.820,113.438 260.813 C 114.556 260.804,115.306 260.546,115.800 260.000 C 116.198 259.560,116.924 259.200,117.413 259.200 C 117.902 259.200,118.526 258.930,118.800 258.600 C 119.074 258.270,119.524 258.000,119.800 258.000 C 120.076 258.000,120.567 257.601,120.891 257.114 L 121.479 256.227 121.954 257.114 C 122.215 257.601,122.692 258.000,123.014 258.000 C 123.336 258.000,123.600 258.360,123.600 258.800 C 123.600 259.333,123.867 259.600,124.400 259.600 C 124.844 259.600,125.200 259.867,125.200 260.200 C 125.200 260.530,125.470 260.800,125.800 260.800 C 126.133 260.800,126.400 261.156,126.400 261.600 C 126.400 262.133,126.667 262.400,127.200 262.400 C 127.644 262.400,128.000 262.667,128.000 263.000 C 128.000 263.330,128.270 263.600,128.600 263.600 C 128.951 263.600,129.200 263.964,129.200 264.476 C 129.200 265.332,129.214 265.334,129.772 264.576 C 130.087 264.149,130.177 263.740,129.972 263.667 C 129.767 263.593,129.600 263.358,129.600 263.143 C 129.600 262.928,129.825 262.880,130.100 263.035 C 130.485 263.252,130.492 263.201,130.131 262.810 C 129.873 262.531,129.755 262.009,129.869 261.651 C 130.021 261.171,129.979 261.135,129.706 261.514 C 129.160 262.272,127.893 261.653,128.130 260.744 C 128.238 260.334,128.178 260.090,127.999 260.201 C 127.438 260.547,126.440 259.960,126.652 259.408 C 126.763 259.118,126.450 258.505,125.956 258.045 C 125.462 257.585,125.180 257.087,125.329 256.938 C 125.478 256.789,125.600 256.877,125.600 257.133 C 125.600 257.390,126.005 257.594,126.500 257.587 L 127.400 257.573 126.500 256.823 C 126.005 256.410,125.600 255.938,125.600 255.774 C 125.600 255.610,125.960 255.802,126.400 256.200 C 126.840 256.598,127.200 256.735,127.200 256.505 C 127.200 256.274,126.919 255.978,126.575 255.846 C 126.231 255.714,126.060 255.426,126.195 255.207 C 126.336 254.981,126.184 254.908,125.843 255.039 C 125.420 255.201,125.263 255.023,125.307 254.434 C 125.342 253.975,125.602 253.600,125.885 253.600 C 126.168 253.600,126.400 253.420,126.400 253.200 C 126.400 252.781,125.026 252.711,124.000 253.078 M375.733 260.678 C 375.733 260.977,375.917 261.161,376.142 261.086 C 376.779 260.874,376.885 260.133,376.278 260.133 C 375.978 260.133,375.733 260.378,375.733 260.678 M130.648 264.322 C 130.488 264.582,130.919 265.041,131.687 265.429 C 132.540 265.859,132.796 265.900,132.418 265.546 C 132.098 265.246,131.631 264.748,131.379 264.439 C 131.060 264.048,130.840 264.012,130.648 264.322 M375.200 264.505 C 375.200 264.856,374.975 265.385,374.700 265.681 C 373.932 266.508,373.799 267.464,374.538 266.851 C 375.173 266.325,375.773 264.440,375.419 264.086 C 375.299 263.965,375.200 264.154,375.200 264.505 M130.800 267.200 C 130.800 268.132,132.190 268.324,132.530 267.439 C 132.799 266.736,132.477 266.400,131.533 266.400 C 131.067 266.400,130.800 266.691,130.800 267.200 M371.823 274.489 C 371.027 275.626,371.019 276.248,371.810 275.592 C 372.145 275.314,372.327 274.993,372.213 274.880 C 372.100 274.766,372.207 274.432,372.452 274.137 C 372.697 273.842,372.796 273.600,372.672 273.600 C 372.547 273.600,372.165 274.000,371.823 274.489 M370.096 278.795 C 369.386 279.932,369.482 280.093,370.400 279.307 C 371.214 278.610,371.446 278.000,370.896 278.000 C 370.729 278.000,370.369 278.358,370.096 278.795 M398.860 285.067 C 398.827 285.543,398.633 285.993,398.430 286.067 C 398.226 286.140,397.955 286.740,397.827 287.400 C 397.700 288.060,397.707 288.330,397.844 288.000 C 397.980 287.670,398.355 287.190,398.676 286.934 C 399.031 286.650,399.193 286.025,399.090 285.334 C 398.968 284.521,398.903 284.445,398.860 285.067 M367.211 285.387 C 366.943 285.709,366.817 286.204,366.931 286.487 C 367.063 286.817,367.148 286.758,367.168 286.320 C 367.186 285.946,367.515 285.456,367.900 285.232 C 368.285 285.008,368.397 284.819,368.149 284.812 C 367.901 284.805,367.479 285.064,367.211 285.387 M397.600 291.000 C 397.600 291.550,397.645 292.058,397.700 292.129 C 397.755 292.199,397.485 292.572,397.100 292.957 C 396.715 293.342,396.414 293.869,396.432 294.129 C 396.454 294.458,396.524 294.448,396.666 294.098 C 396.777 293.821,397.033 293.697,397.234 293.821 C 397.435 293.945,397.609 293.902,397.620 293.724 C 397.632 293.546,397.738 292.635,397.858 291.700 C 397.977 290.765,397.968 290.000,397.837 290.000 C 397.707 290.000,397.600 290.450,397.600 291.000 M176.540 312.897 C 176.384 313.149,176.466 313.207,176.738 313.038 C 177.023 312.862,177.200 313.034,177.200 313.489 C 177.200 314.011,177.520 314.243,178.300 314.287 C 178.976 314.324,179.169 314.242,178.800 314.074 C 178.470 313.923,178.200 313.547,178.200 313.238 C 178.200 312.561,176.911 312.297,176.540 312.897 M180.571 315.222 C 180.571 316.033,180.994 316.257,181.372 315.645 C 181.493 315.450,181.362 315.100,181.081 314.867 C 180.698 314.549,180.571 314.637,180.571 315.222 M181.867 315.467 C 181.720 315.613,181.586 316.108,181.568 316.567 C 181.551 317.025,181.446 317.175,181.335 316.900 C 181.056 316.207,180.533 316.273,180.533 317.000 C 180.533 317.330,180.773 317.600,181.067 317.600 C 181.360 317.600,181.600 317.870,181.600 318.200 C 181.600 318.533,181.956 318.800,182.400 318.800 C 182.933 318.800,183.200 319.067,183.200 319.600 C 183.200 320.044,183.467 320.400,183.800 320.400 C 184.219 320.400,184.400 320.822,184.400 321.800 C 184.400 322.933,184.552 323.200,185.200 323.200 C 185.644 323.200,186.000 323.467,186.000 323.800 C 186.000 324.130,186.270 324.400,186.600 324.400 C 186.933 324.400,187.200 324.756,187.200 325.200 C 187.200 325.733,187.467 326.000,188.000 326.000 C 188.444 326.000,188.800 326.267,188.800 326.600 C 188.800 326.930,189.070 327.200,189.400 327.200 C 189.733 327.200,190.000 327.556,190.000 328.000 C 190.000 328.533,190.267 328.800,190.800 328.800 C 191.448 328.800,191.600 329.067,191.600 330.200 C 191.600 331.178,191.781 331.600,192.200 331.600 C 192.530 331.600,192.800 331.870,192.800 332.200 C 192.800 332.533,193.156 332.800,193.600 332.800 C 194.133 332.800,194.400 333.067,194.400 333.600 C 194.400 334.044,194.667 334.400,195.000 334.400 C 195.330 334.400,195.600 334.670,195.600 335.000 C 195.600 335.333,195.956 335.600,196.400 335.600 C 197.067 335.600,197.200 335.867,197.200 337.200 C 197.200 338.356,197.367 338.800,197.800 338.800 C 198.130 338.800,198.400 339.070,198.400 339.400 C 198.400 339.733,198.756 340.000,199.200 340.000 C 199.733 340.000,200.000 340.267,200.000 340.800 C 200.000 341.333,200.267 341.600,200.800 341.600 C 201.448 341.600,201.600 341.867,201.600 343.000 C 201.600 343.978,201.781 344.400,202.200 344.400 C 202.530 344.400,202.800 344.670,202.800 345.000 C 202.800 345.333,203.156 345.600,203.600 345.600 C 204.133 345.600,204.400 345.867,204.400 346.400 C 204.400 346.844,204.667 347.200,205.000 347.200 C 205.330 347.200,205.600 347.470,205.600 347.800 C 205.600 348.133,205.956 348.400,206.400 348.400 C 207.048 348.400,207.200 348.667,207.200 349.800 C 207.200 350.778,207.381 351.200,207.800 351.200 C 208.133 351.200,208.400 351.556,208.400 352.000 C 208.400 352.533,208.667 352.800,209.200 352.800 C 209.644 352.800,210.000 353.067,210.000 353.400 C 210.000 353.730,210.270 354.000,210.600 354.000 C 211.019 354.000,211.200 354.422,211.200 355.400 C 211.200 356.533,211.352 356.800,212.000 356.800 C 212.533 356.800,212.800 357.067,212.800 357.600 C 212.800 358.044,213.067 358.400,213.400 358.400 C 213.819 358.400,214.000 358.822,214.000 359.800 C 214.000 360.933,214.152 361.200,214.800 361.200 C 215.333 361.200,215.600 361.467,215.600 362.000 C 215.600 362.444,215.867 362.800,216.200 362.800 C 216.530 362.800,216.800 363.070,216.800 363.400 C 216.800 363.733,217.156 364.000,217.600 364.000 C 218.248 364.000,218.400 364.267,218.400 365.400 C 218.400 366.378,218.581 366.800,219.000 366.800 C 219.333 366.800,219.600 367.156,219.600 367.600 C 219.600 368.133,219.867 368.400,220.400 368.400 C 221.048 368.400,221.200 368.667,221.200 369.800 C 221.200 370.933,221.352 371.200,222.000 371.200 C 222.444 371.200,222.800 371.467,222.800 371.800 C 222.800 372.130,223.070 372.400,223.400 372.400 C 223.819 372.400,224.000 372.822,224.000 373.800 C 224.000 374.933,224.152 375.200,224.800 375.200 C 225.333 375.200,225.600 375.467,225.600 376.000 C 225.600 376.444,225.867 376.800,226.200 376.800 C 226.619 376.800,226.800 377.222,226.800 378.200 C 226.800 379.333,226.952 379.600,227.600 379.600 C 228.133 379.600,228.400 379.867,228.400 380.400 C 228.400 380.844,228.667 381.200,229.000 381.200 C 229.419 381.200,229.600 381.622,229.600 382.600 C 229.600 383.733,229.752 384.000,230.400 384.000 C 231.048 384.000,231.200 384.267,231.200 385.400 C 231.200 386.378,231.381 386.800,231.800 386.800 C 232.130 386.800,232.400 387.070,232.400 387.400 C 232.400 387.733,232.756 388.000,233.200 388.000 C 233.848 388.000,234.000 388.267,234.000 389.400 C 234.000 390.378,234.181 390.800,234.600 390.800 C 234.933 390.800,235.200 391.156,235.200 391.600 C 235.200 392.133,235.467 392.400,236.000 392.400 C 236.648 392.400,236.800 392.667,236.800 393.800 C 236.800 394.778,236.981 395.200,237.400 395.200 C 237.730 395.200,238.000 395.470,238.000 395.800 C 238.000 396.130,238.270 396.400,238.600 396.400 C 238.930 396.400,239.200 396.664,239.200 396.986 C 239.200 397.723,240.301 398.273,241.579 398.176 C 242.665 398.094,243.519 398.734,243.362 399.514 C 243.306 399.792,243.352 399.836,243.463 399.610 C 243.725 399.083,244.800 399.075,244.800 399.600 C 244.800 399.820,244.999 400.000,245.243 400.000 C 245.491 400.000,245.578 399.692,245.442 399.300 C 245.221 398.666,245.252 398.669,245.764 399.329 C 246.312 400.034,246.336 400.034,246.519 399.329 C 246.690 398.666,246.711 398.664,246.754 399.300 C 246.808 400.119,286.000 400.419,286.000 399.600 C 286.000 399.024,287.096 399.106,287.335 399.700 C 287.496 400.100,287.543 400.100,287.568 399.700 C 287.590 399.362,288.345 399.199,289.900 399.197 C 291.522 399.196,292.554 398.961,293.400 398.400 C 294.276 397.820,295.278 397.605,297.113 397.603 C 298.975 397.601,299.685 397.445,299.855 397.000 C 300.014 396.587,300.665 396.398,301.943 396.394 C 302.964 396.391,304.064 396.221,304.387 396.017 C 304.752 395.786,305.151 395.794,305.444 396.037 C 305.778 396.314,305.899 396.219,305.858 395.714 C 305.810 395.126,306.117 395.000,307.600 395.000 C 309.293 395.000,310.501 394.507,310.167 393.953 C 309.949 393.591,313.602 393.155,314.141 393.479 C 314.418 393.645,314.398 393.504,314.090 393.123 C 313.475 392.364,313.916 392.138,315.875 392.206 C 316.576 392.231,317.140 392.149,317.128 392.025 C 317.025 390.998,317.888 390.623,321.062 390.312 C 321.316 390.287,321.432 390.027,321.319 389.733 C 321.179 389.368,321.464 389.200,322.226 389.200 C 322.837 389.200,323.621 388.946,323.969 388.636 C 324.316 388.326,324.960 388.011,325.400 387.936 C 326.366 387.772,327.184 387.113,326.934 386.700 C 326.835 386.535,327.393 386.400,328.176 386.400 C 329.175 386.400,329.600 386.221,329.600 385.800 C 329.600 385.470,329.846 385.200,330.146 385.200 C 330.446 385.200,331.150 384.840,331.709 384.400 C 332.269 383.960,333.103 383.600,333.563 383.600 C 334.023 383.600,334.400 383.420,334.400 383.200 C 334.400 382.980,334.591 382.800,334.824 382.800 C 335.057 382.800,335.118 383.025,334.959 383.300 C 334.792 383.590,334.824 383.660,335.036 383.467 C 335.236 383.283,335.401 382.923,335.402 382.667 C 335.403 382.410,335.800 382.221,336.284 382.246 C 336.768 382.272,337.151 382.182,337.135 382.046 C 337.032 381.186,337.300 380.800,338.000 380.800 C 338.440 380.800,338.800 380.601,338.800 380.357 C 338.800 380.114,339.068 380.017,339.395 380.143 C 339.739 380.275,339.950 380.166,339.895 379.886 C 339.843 379.619,340.041 379.450,340.334 379.511 C 340.628 379.573,340.964 379.258,341.081 378.811 C 341.270 378.088,341.879 377.850,343.447 377.884 C 343.692 377.889,343.872 377.602,343.847 377.247 C 343.819 376.866,344.083 376.622,344.488 376.654 C 344.866 376.683,345.283 376.368,345.415 375.954 C 345.546 375.539,345.912 375.200,346.227 375.200 C 347.170 375.200,346.892 373.718,345.900 373.452 C 345.405 373.319,342.300 373.204,339.000 373.196 C 335.700 373.188,332.280 372.993,331.400 372.763 C 330.520 372.533,329.350 372.254,328.800 372.143 C 325.254 371.429,320.022 367.140,318.378 363.600 C 317.919 362.610,317.363 361.467,317.143 361.059 C 316.461 359.797,316.098 354.943,316.033 346.215 C 315.988 340.136,315.837 337.744,315.485 337.521 C 314.678 337.008,312.830 337.162,311.816 337.826 C 311.290 338.171,310.215 338.486,309.427 338.526 C 308.458 338.576,307.922 338.827,307.770 339.300 C 307.560 339.956,306.599 340.146,303.520 340.142 C 303.146 340.141,302.924 340.277,303.026 340.443 C 303.357 340.977,302.251 341.374,300.200 341.457 C 299.100 341.502,298.110 341.574,298.000 341.617 C 297.890 341.660,297.665 341.673,297.500 341.647 C 297.335 341.621,297.245 341.806,297.300 342.058 C 297.356 342.314,296.783 342.579,296.000 342.660 C 292.360 343.034,291.230 343.282,290.801 343.799 C 290.454 344.217,289.148 344.368,285.668 344.393 C 279.023 344.441,277.796 344.539,277.154 345.072 C 276.472 345.639,267.196 345.731,265.762 345.186 C 265.243 344.988,263.914 344.775,262.810 344.713 C 261.707 344.651,260.803 344.508,260.802 344.395 C 260.801 344.282,258.884 344.241,256.542 344.304 C 253.271 344.393,252.135 344.285,251.642 343.842 C 251.265 343.503,249.693 343.159,247.830 343.006 C 245.067 342.781,242.862 342.068,243.371 341.564 C 243.462 341.474,242.458 341.462,241.141 341.537 C 239.332 341.640,238.566 341.512,238.015 341.013 C 237.613 340.650,236.411 340.264,235.342 340.155 C 234.227 340.042,233.145 339.669,232.800 339.279 C 232.412 338.840,231.635 338.611,230.600 338.632 C 229.720 338.650,228.701 338.412,228.336 338.103 C 227.971 337.794,227.073 337.447,226.341 337.332 C 225.608 337.216,224.521 336.869,223.924 336.561 C 223.328 336.252,222.394 336.000,221.848 336.000 C 221.303 336.000,220.600 335.743,220.286 335.429 C 219.972 335.115,219.066 334.736,218.272 334.587 C 217.478 334.438,216.620 334.065,216.365 333.758 C 216.110 333.451,215.564 333.200,215.151 333.200 C 214.738 333.200,214.400 333.040,214.400 332.845 C 214.400 332.549,212.637 332.014,211.000 331.813 C 210.780 331.786,210.635 331.577,210.678 331.348 C 210.721 331.120,210.531 330.933,210.257 330.933 C 209.662 330.933,205.238 328.894,204.439 328.251 C 204.130 328.003,203.572 327.800,203.200 327.800 C 202.828 327.800,202.228 327.555,201.867 327.255 C 201.506 326.956,200.898 326.830,200.517 326.976 C 200.136 327.123,199.951 327.116,200.106 326.961 C 200.482 326.584,199.186 325.629,198.276 325.613 C 197.878 325.606,197.664 325.420,197.800 325.200 C 197.936 324.980,197.761 324.800,197.411 324.800 C 197.061 324.800,196.672 324.531,196.546 324.202 C 196.419 323.874,196.155 323.704,195.958 323.826 C 195.761 323.948,195.600 323.846,195.600 323.600 C 195.600 323.354,195.408 323.271,195.173 323.416 C 194.939 323.561,194.494 323.347,194.186 322.940 C 193.878 322.533,193.620 322.335,193.613 322.500 C 193.606 322.665,193.253 322.485,192.829 322.100 C 191.204 320.626,190.800 320.367,190.800 320.800 C 190.800 321.037,190.413 320.870,189.939 320.429 C 189.466 319.988,188.924 319.723,188.736 319.840 C 188.214 320.162,186.756 319.594,187.018 319.171 C 187.144 318.967,186.972 318.800,186.636 318.800 C 186.237 318.800,186.102 318.558,186.246 318.100 C 186.400 317.613,186.193 317.705,185.567 318.400 C 185.029 318.998,184.764 319.132,184.909 318.732 C 185.047 318.351,184.818 317.682,184.375 317.171 C 183.903 316.626,183.600 316.488,183.600 316.815 C 183.600 317.154,183.391 317.067,183.034 316.579 C 182.614 316.004,182.588 315.729,182.934 315.509 C 183.249 315.308,183.195 315.210,182.767 315.206 C 182.418 315.203,182.013 315.320,181.867 315.467 " stroke="none" fill="#20a1ca" fill-rule="evenodd"></path><path id="path1" d="M311.200 60.600 C 310.846 61.027,309.908 61.200,307.945 61.200 C 305.025 61.200,300.624 62.182,299.569 63.069 C 299.221 63.361,298.762 63.600,298.549 63.600 C 298.336 63.600,297.399 64.332,296.468 65.227 C 295.397 66.256,294.264 66.937,293.387 67.080 C 292.128 67.284,292.000 67.427,292.000 68.632 C 292.000 69.481,291.747 70.102,291.300 70.352 C 290.651 70.715,290.591 72.162,290.480 90.272 C 290.355 110.500,290.436 112.400,291.418 112.400 C 291.829 112.400,292.000 112.863,292.000 113.971 C 292.000 114.836,292.235 115.781,292.522 116.071 C 292.810 116.362,293.164 116.915,293.310 117.300 C 293.456 117.685,293.851 118.000,294.187 118.000 C 294.524 118.000,294.803 118.225,294.807 118.500 C 294.815 119.100,296.537 120.800,297.137 120.800 C 297.370 120.800,297.722 121.089,297.920 121.442 C 298.136 121.829,299.020 122.168,300.140 122.294 C 301.346 122.430,302.000 122.697,302.000 123.052 C 302.000 123.891,342.612 123.866,342.934 123.027 C 343.055 122.712,343.749 122.397,344.477 122.327 C 345.509 122.228,345.829 121.996,345.931 121.274 C 346.003 120.765,346.876 119.595,347.870 118.674 C 350.188 116.528,351.453 114.547,352.051 112.128 C 352.313 111.068,352.858 109.771,353.264 109.246 C 354.291 107.915,354.423 68.800,353.400 68.800 C 353.026 68.800,352.800 68.422,352.800 67.796 C 352.800 67.244,352.440 66.484,352.000 66.107 C 351.560 65.730,351.200 65.192,351.200 64.911 C 351.200 64.630,350.951 64.400,350.647 64.400 C 350.342 64.400,349.999 64.040,349.884 63.600 C 349.769 63.160,349.388 62.800,349.037 62.800 C 348.687 62.800,348.400 62.530,348.400 62.200 C 348.400 61.781,347.978 61.600,347.000 61.600 C 346.070 61.600,345.600 61.413,345.600 61.043 C 345.600 60.059,344.606 60.000,328.016 60.000 C 313.999 60.000,311.628 60.085,311.200 60.600 M342.625 71.626 L 343.800 72.853 343.800 91.619 L 343.800 110.385 342.492 111.692 L 341.185 113.000 322.562 113.000 L 303.939 113.000 302.569 111.506 L 301.200 110.012 301.200 91.768 C 301.200 72.039,301.214 71.903,303.368 70.858 C 303.889 70.605,311.169 70.444,322.825 70.427 L 341.450 70.400 342.625 71.626 M20.945 128.600 C 20.779 129.031,20.106 129.200,18.557 129.200 C 16.948 129.200,16.201 129.399,15.616 129.984 C 15.184 130.416,14.361 130.831,13.786 130.908 C 13.211 130.985,12.619 131.231,12.470 131.453 C 12.322 131.676,11.885 131.975,11.500 132.117 C 11.115 132.259,10.800 132.651,10.800 132.987 C 10.800 133.333,10.452 133.600,10.000 133.600 C 9.560 133.600,8.840 133.960,8.400 134.400 C 7.960 134.840,7.330 135.200,7.000 135.200 C 6.670 135.200,6.400 135.451,6.400 135.757 C 6.400 136.064,6.130 136.418,5.800 136.545 C 5.470 136.671,5.200 137.011,5.200 137.299 C 5.200 137.587,4.840 138.130,4.400 138.507 C 3.960 138.884,3.600 139.533,3.600 139.949 C 3.600 140.370,3.245 140.800,2.800 140.916 C 2.217 141.068,2.000 141.462,2.000 142.363 C 2.000 143.196,1.804 143.600,1.400 143.600 C 0.981 143.600,0.800 144.022,0.800 145.000 C 0.800 145.770,0.620 146.400,0.400 146.400 C 0.136 146.400,0.000 162.933,0.000 195.200 C 0.000 227.467,0.136 244.000,0.400 244.000 C 0.620 244.000,0.800 244.617,0.800 245.371 C 0.800 246.126,1.070 247.013,1.400 247.343 C 1.730 247.673,2.000 248.243,2.000 248.609 C 2.000 248.975,2.360 249.369,2.800 249.484 C 3.361 249.631,3.600 250.030,3.600 250.820 C 3.600 251.595,3.850 252.025,4.400 252.200 C 4.840 252.340,5.200 252.712,5.200 253.027 C 5.200 253.342,5.449 253.600,5.753 253.600 C 6.058 253.600,6.401 253.960,6.516 254.400 C 6.631 254.840,7.012 255.200,7.363 255.200 C 7.713 255.200,8.000 255.470,8.000 255.800 C 8.000 256.130,8.230 256.400,8.511 256.400 C 8.792 256.400,9.330 256.760,9.707 257.200 C 10.084 257.640,10.754 258.000,11.196 258.000 C 11.644 258.000,12.000 258.266,12.000 258.600 C 12.000 259.015,12.417 259.200,13.353 259.200 C 14.370 259.200,14.759 259.399,14.916 260.000 C 15.091 260.668,15.462 260.800,17.163 260.800 C 18.707 260.800,19.200 260.945,19.200 261.400 C 19.200 262.295,59.793 262.283,60.976 261.387 C 61.638 260.887,65.131 260.800,84.603 260.800 C 107.565 260.800,110.221 260.665,114.000 259.308 C 117.106 258.193,122.051 255.096,122.911 253.727 C 123.082 253.455,123.892 253.108,124.711 252.957 C 126.222 252.678,128.000 251.200,128.000 250.222 C 128.000 249.927,128.270 249.582,128.600 249.455 C 128.943 249.324,129.200 248.727,129.200 248.059 C 129.200 247.230,129.431 246.833,130.000 246.684 C 130.613 246.524,130.800 246.138,130.800 245.037 C 130.800 244.026,130.978 243.600,131.400 243.600 C 131.930 243.600,132.000 237.960,132.000 195.243 C 132.000 152.628,131.929 146.858,131.400 146.655 C 131.044 146.519,130.800 145.917,130.800 145.175 C 130.800 144.262,130.585 143.869,130.000 143.716 C 129.399 143.559,129.200 143.170,129.200 142.153 C 129.200 141.217,129.015 140.800,128.600 140.800 C 128.267 140.800,128.000 140.444,128.000 140.000 C 128.000 139.467,127.733 139.200,127.200 139.200 C 126.611 139.200,126.400 138.933,126.400 138.187 C 126.400 137.631,126.137 137.074,125.815 136.950 C 125.494 136.827,125.121 136.383,124.988 135.963 C 124.855 135.543,124.442 135.200,124.069 135.200 C 123.697 135.200,123.168 134.840,122.893 134.400 C 122.618 133.960,122.035 133.600,121.597 133.600 C 121.158 133.600,120.800 133.333,120.800 133.008 C 120.800 132.682,120.357 132.304,119.816 132.168 C 119.275 132.033,118.623 131.669,118.367 131.361 C 118.111 131.052,117.557 130.800,117.134 130.800 C 116.712 130.800,115.980 130.440,115.508 130.000 C 114.901 129.435,114.096 129.200,112.767 129.200 C 111.464 129.200,110.815 129.016,110.655 128.600 C 110.265 127.584,100.136 127.755,98.800 128.800 C 97.211 130.043,33.065 130.043,32.400 128.800 C 31.829 127.733,21.347 127.550,20.945 128.600 M110.600 139.349 C 111.480 139.760,112.470 140.257,112.800 140.451 C 113.130 140.646,113.850 141.025,114.400 141.294 C 117.431 142.772,120.821 147.557,121.810 151.749 C 122.667 155.384,122.672 235.013,121.815 238.600 C 120.561 243.847,117.205 247.961,112.151 250.447 L 109.400 251.800 65.600 251.800 L 21.800 251.800 19.467 250.656 C 14.463 248.201,11.019 244.008,9.566 238.600 C 8.401 234.264,8.401 156.136,9.566 151.800 C 11.476 144.691,17.047 139.595,23.800 138.780 C 29.909 138.043,108.915 138.560,110.600 139.349 M326.145 289.800 C 326.018 290.130,325.588 290.400,325.190 290.400 C 324.038 290.400,323.200 290.839,323.200 291.443 C 323.200 291.749,322.840 292.000,322.400 292.000 C 321.960 292.000,321.600 292.249,321.600 292.553 C 321.600 292.858,321.240 293.201,320.800 293.316 C 320.360 293.431,320.000 293.812,320.000 294.163 C 320.000 294.513,319.730 294.800,319.400 294.800 C 319.070 294.800,318.800 294.980,318.800 295.200 C 318.800 295.420,318.440 295.960,318.000 296.400 C 317.560 296.840,317.200 297.566,317.200 298.013 C 317.200 298.459,316.930 298.929,316.600 299.055 C 316.169 299.221,316.000 299.894,316.000 301.443 C 316.000 302.629,315.838 303.600,315.639 303.600 C 314.611 303.600,314.400 306.678,314.400 321.660 C 314.400 336.641,314.427 337.200,315.157 337.200 C 316.317 337.200,316.398 337.829,316.434 347.133 C 316.481 359.209,316.875 361.349,319.786 365.343 C 323.860 370.932,328.816 372.800,339.576 372.800 C 344.711 372.800,345.996 372.913,346.400 373.400 C 346.830 373.919,349.565 373.999,366.549 373.995 C 386.596 373.989,388.000 373.921,388.000 372.953 C 388.000 372.588,388.475 372.400,389.400 372.400 C 390.378 372.400,390.800 372.219,390.800 371.800 C 390.800 371.470,391.145 371.200,391.567 371.200 C 392.730 371.200,393.600 370.774,393.600 370.204 C 393.600 369.923,393.960 369.599,394.400 369.484 C 394.840 369.369,395.200 368.988,395.200 368.637 C 395.200 368.287,395.470 368.000,395.800 368.000 C 396.130 368.000,396.400 367.730,396.400 367.400 C 396.400 367.070,396.662 366.800,396.982 366.800 C 397.330 366.800,397.669 366.238,397.826 365.400 C 397.977 364.598,398.326 364.000,398.645 364.000 C 399.044 364.000,399.200 363.440,399.200 362.000 C 399.200 360.900,399.380 360.000,399.600 360.000 C 399.863 360.000,400.000 350.067,400.000 331.000 C 400.000 311.933,399.863 302.000,399.600 302.000 C 399.380 302.000,399.200 301.392,399.200 300.649 C 399.200 299.906,398.930 299.074,398.600 298.800 C 398.270 298.526,398.000 297.885,398.000 297.375 C 398.000 296.286,397.687 296.041,396.053 295.851 C 395.371 295.771,393.978 294.986,392.866 294.055 C 391.778 293.145,390.704 292.400,390.478 292.400 C 390.252 292.400,390.007 292.256,389.933 292.081 C 389.039 289.941,378.000 289.241,344.687 289.215 C 328.769 289.202,326.345 289.278,326.145 289.800 M384.376 299.391 C 386.603 300.177,387.964 301.297,389.079 303.261 L 390.000 304.882 390.000 331.294 L 390.000 357.706 389.115 359.138 C 386.289 363.710,388.572 363.400,357.734 363.400 L 330.869 363.400 329.134 362.198 C 327.998 361.410,327.020 360.247,326.300 358.826 L 325.200 356.657 325.200 331.306 C 325.200 301.606,325.150 301.889,330.800 299.466 C 332.885 298.571,381.859 298.503,384.376 299.391 " stroke="none" fill="#d65606" fill-rule="evenodd"></path><path id="path2" d="M308.400 60.800 L 305.800 61.062 308.276 61.131 C 309.638 61.169,310.864 61.020,311.000 60.800 C 311.136 60.580,311.192 60.431,311.124 60.469 C 311.056 60.507,309.830 60.656,308.400 60.800 M302.400 61.600 C 301.605 62.114,302.604 62.114,303.800 61.600 L 304.600 61.256 303.800 61.234 C 303.360 61.222,302.730 61.387,302.400 61.600 M303.368 70.858 C 301.214 71.903,301.200 72.039,301.200 91.768 L 301.200 110.012 302.569 111.506 L 303.939 113.000 322.562 113.000 L 341.185 113.000 342.492 111.692 L 343.800 110.385 343.800 91.619 L 343.800 72.853 342.625 71.626 L 341.450 70.400 322.825 70.427 C 311.169 70.444,303.889 70.605,303.368 70.858 M352.903 109.690 C 352.677 109.971,352.373 110.830,352.227 111.600 C 351.967 112.968,351.979 112.960,352.787 111.240 C 353.617 109.476,353.672 108.737,352.903 109.690 M348.975 117.700 L 347.800 119.000 349.100 117.825 C 349.815 117.179,350.400 116.594,350.400 116.525 C 350.400 116.216,350.070 116.488,348.975 117.700 M23.800 138.780 C 17.047 139.595,11.476 144.691,9.566 151.800 C 8.401 156.136,8.401 234.264,9.566 238.600 C 11.019 244.008,14.463 248.201,19.467 250.656 L 21.800 251.800 65.600 251.800 L 109.400 251.800 112.151 250.447 C 117.205 247.961,120.561 243.847,121.815 238.600 C 122.672 235.013,122.667 155.384,121.810 151.749 C 120.821 147.557,117.431 142.772,114.400 141.294 C 113.850 141.025,113.130 140.646,112.800 140.451 C 109.474 138.487,112.260 138.604,67.600 138.545 C 44.830 138.515,25.120 138.621,23.800 138.780 M330.800 299.466 C 325.150 301.889,325.200 301.606,325.200 331.306 L 325.200 356.657 326.300 358.826 C 327.020 360.247,327.998 361.410,329.134 362.198 L 330.869 363.400 357.734 363.400 C 388.572 363.400,386.289 363.710,389.115 359.138 L 390.000 357.706 390.000 331.294 L 390.000 304.882 389.079 303.261 C 387.964 301.297,386.603 300.177,384.376 299.391 C 381.859 298.503,332.885 298.571,330.800 299.466 " stroke="none" fill="#fc7c2c" fill-rule="evenodd"></path><path id="path3" d="M148.400 0.400 C 148.400 0.639,146.867 0.800,144.600 0.800 C 142.510 0.800,140.800 0.966,140.800 1.168 C 140.800 1.614,138.716 2.140,136.800 2.176 C 136.030 2.191,134.950 2.461,134.400 2.776 C 133.850 3.092,132.415 3.486,131.211 3.652 C 130.007 3.819,128.837 4.200,128.611 4.500 C 128.371 4.819,127.552 5.020,126.638 4.985 C 125.624 4.946,124.832 5.168,124.381 5.619 C 123.999 6.001,122.767 6.439,121.644 6.594 C 120.288 6.781,119.600 7.064,119.600 7.438 C 119.600 7.811,119.140 8.000,118.229 8.000 C 117.474 8.000,116.609 8.248,116.306 8.551 C 116.003 8.854,115.192 9.226,114.505 9.377 C 113.818 9.528,113.041 9.910,112.779 10.226 C 112.517 10.542,111.868 10.800,111.338 10.800 C 110.809 10.800,110.271 11.070,110.145 11.400 C 110.018 11.730,109.491 12.000,108.973 12.000 C 108.455 12.000,107.696 12.359,107.287 12.799 C 106.878 13.238,106.046 13.638,105.437 13.689 C 104.829 13.739,104.164 14.093,103.960 14.475 C 103.755 14.857,103.339 15.075,103.035 14.958 C 102.731 14.841,102.130 15.123,101.700 15.584 C 101.271 16.046,100.496 16.504,99.980 16.604 C 99.463 16.703,98.885 17.062,98.696 17.401 C 98.506 17.740,98.182 17.912,97.975 17.785 C 97.769 17.657,97.600 17.754,97.600 18.000 C 97.600 18.246,97.392 18.319,97.138 18.162 C 96.860 17.990,96.785 18.052,96.949 18.318 C 97.253 18.809,95.923 19.670,95.116 19.505 C 94.832 19.447,94.622 19.697,94.649 20.060 C 94.679 20.471,94.302 20.800,93.649 20.933 C 93.072 21.050,92.154 21.562,91.609 22.073 C 91.065 22.583,90.525 23.000,90.409 23.000 C 90.294 23.000,90.245 23.135,90.300 23.300 C 90.355 23.465,90.210 23.600,89.979 23.600 C 89.349 23.600,86.800 25.731,86.800 26.257 C 86.800 26.509,86.530 26.818,86.200 26.945 C 85.870 27.071,85.600 27.445,85.600 27.776 C 85.600 28.107,85.015 28.561,84.300 28.785 C 83.285 29.104,83.229 29.165,84.045 29.063 C 84.907 28.955,85.055 29.067,84.890 29.700 C 84.735 30.292,84.612 30.346,84.351 29.934 C 84.126 29.579,84.010 29.836,84.006 30.700 C 84.000 31.920,84.086 32.000,85.400 32.000 C 86.378 32.000,86.800 32.181,86.800 32.600 C 86.800 32.933,87.156 33.200,87.600 33.200 C 88.133 33.200,88.400 33.467,88.400 34.000 C 88.400 34.444,88.667 34.800,89.000 34.800 C 89.330 34.800,89.600 35.070,89.600 35.400 C 89.600 35.733,89.956 36.000,90.400 36.000 C 90.933 36.000,91.200 36.267,91.200 36.800 C 91.200 37.244,91.467 37.600,91.800 37.600 C 92.130 37.600,92.400 37.870,92.400 38.200 C 92.400 38.533,92.756 38.800,93.200 38.800 C 93.733 38.800,94.000 39.067,94.000 39.600 C 94.000 40.248,94.267 40.400,95.400 40.400 C 96.378 40.400,96.800 40.581,96.800 41.000 C 96.800 41.333,97.156 41.600,97.600 41.600 C 98.133 41.600,98.400 41.867,98.400 42.400 C 98.400 42.844,98.667 43.200,99.000 43.200 C 99.333 43.200,99.600 43.556,99.600 44.000 C 99.600 44.533,99.867 44.800,100.400 44.800 C 100.844 44.800,101.200 45.067,101.200 45.400 C 101.200 45.730,101.470 46.000,101.800 46.000 C 102.133 46.000,102.400 46.356,102.400 46.800 C 102.400 47.333,102.667 47.600,103.200 47.600 C 103.644 47.600,104.000 47.867,104.000 48.200 C 104.000 48.530,104.270 48.800,104.600 48.800 C 104.933 48.800,105.200 49.156,105.200 49.600 C 105.200 50.133,105.467 50.400,106.000 50.400 C 106.444 50.400,106.800 50.667,106.800 51.000 C 106.800 51.419,107.222 51.600,108.200 51.600 C 109.333 51.600,109.600 51.752,109.600 52.400 C 109.600 52.844,109.867 53.200,110.200 53.200 C 110.530 53.200,110.800 53.470,110.800 53.800 C 110.800 54.133,111.156 54.400,111.600 54.400 C 112.133 54.400,112.400 54.667,112.400 55.200 C 112.400 55.644,112.667 56.000,113.000 56.000 C 113.330 56.000,113.600 56.270,113.600 56.600 C 113.600 56.933,113.956 57.200,114.400 57.200 C 114.933 57.200,115.200 57.467,115.200 58.000 C 115.200 58.533,115.467 58.800,116.000 58.800 C 116.444 58.800,116.800 59.067,116.800 59.400 C 116.800 59.730,117.070 60.000,117.400 60.000 C 117.733 60.000,118.000 60.356,118.000 60.800 C 118.000 61.333,118.267 61.600,118.800 61.600 C 119.244 61.600,119.600 61.867,119.600 62.200 C 119.600 62.619,120.022 62.800,121.000 62.800 C 122.133 62.800,122.400 62.952,122.400 63.600 C 122.400 64.044,122.667 64.400,123.000 64.400 C 123.333 64.400,123.600 64.756,123.600 65.200 C 123.600 65.733,123.867 66.000,124.400 66.000 C 124.935 66.000,125.200 66.267,125.200 66.805 C 125.200 67.741,128.118 67.539,129.123 66.534 C 129.612 66.046,130.493 65.817,131.330 65.963 C 131.511 65.994,131.545 65.835,131.406 65.610 C 131.267 65.384,131.343 65.200,131.576 65.200 C 131.809 65.200,132.000 64.930,132.000 64.600 C 132.000 64.244,132.367 64.000,132.904 64.000 C 133.401 64.000,134.037 63.633,134.317 63.184 C 134.597 62.736,135.005 62.479,135.223 62.614 C 135.441 62.749,135.570 62.628,135.510 62.344 C 135.449 62.061,135.805 61.645,136.300 61.420 C 136.795 61.195,137.200 60.783,137.200 60.505 C 137.200 60.227,137.380 60.000,137.600 60.000 C 137.820 60.000,138.383 59.617,138.850 59.150 C 139.317 58.683,140.138 58.300,140.674 58.300 C 141.332 58.300,141.579 58.123,141.438 57.754 C 141.307 57.415,141.596 57.116,142.201 56.964 C 142.736 56.830,143.134 56.529,143.087 56.295 C 143.039 56.062,143.360 55.761,143.800 55.628 C 145.052 55.247,147.600 53.565,147.600 53.118 C 147.600 52.896,147.850 52.810,148.156 52.928 C 148.462 53.045,149.077 52.802,149.522 52.387 C 149.967 51.972,150.797 51.516,151.366 51.373 C 151.935 51.230,152.400 50.863,152.400 50.557 C 152.400 50.233,152.810 50.000,153.380 50.000 C 153.919 50.000,154.511 49.731,154.695 49.403 C 154.878 49.074,155.518 48.765,156.115 48.715 C 156.751 48.663,157.295 48.330,157.428 47.913 C 157.575 47.448,158.052 47.200,158.798 47.200 C 159.428 47.200,160.219 46.924,160.557 46.586 C 160.895 46.248,161.268 45.978,161.386 45.986 C 161.504 45.994,161.645 45.987,161.700 45.970 C 161.755 45.954,162.250 45.861,162.800 45.763 C 163.350 45.665,164.000 45.318,164.244 44.993 C 164.488 44.667,165.194 44.400,165.813 44.400 C 166.431 44.400,167.225 44.139,167.577 43.821 C 167.929 43.502,169.024 43.187,170.009 43.121 C 171.046 43.051,172.064 42.715,172.427 42.324 C 172.847 41.870,173.796 41.617,175.308 41.556 C 176.549 41.506,177.474 41.320,177.365 41.144 C 177.078 40.679,179.823 40.083,182.500 40.030 C 183.553 40.009,184.000 39.821,184.000 39.400 C 184.000 38.903,184.757 38.800,188.414 38.800 C 191.545 38.800,193.086 38.635,193.714 38.232 C 194.829 37.517,195.032 37.506,206.500 37.558 C 214.320 37.593,216.000 37.698,216.000 38.156 C 216.000 38.461,216.225 38.703,216.500 38.693 C 221.282 38.515,227.200 38.875,227.200 39.344 C 227.200 39.882,229.825 40.389,232.651 40.397 C 233.339 40.398,234.126 40.670,234.400 41.000 C 234.738 41.407,235.644 41.600,237.222 41.600 C 239.102 41.600,239.589 41.737,239.773 42.314 C 239.950 42.874,240.495 43.049,242.289 43.124 C 243.813 43.188,244.690 43.417,244.910 43.810 C 245.121 44.187,245.859 44.400,246.958 44.400 C 248.168 44.400,248.890 44.637,249.400 45.200 C 249.798 45.640,250.602 46.000,251.186 46.000 C 251.769 46.000,252.596 46.264,253.024 46.587 C 253.451 46.910,254.475 47.180,255.300 47.187 C 256.303 47.196,256.800 47.383,256.800 47.753 C 256.800 48.074,257.559 48.496,258.617 48.763 C 259.639 49.020,260.327 49.395,260.188 49.620 C 260.052 49.840,260.089 49.994,260.270 49.963 C 261.890 49.681,263.572 50.080,263.800 50.800 C 263.989 51.395,264.405 51.600,265.427 51.600 C 266.334 51.600,266.800 51.789,266.800 52.157 C 266.800 52.761,267.638 53.200,268.790 53.200 C 269.188 53.200,269.618 53.470,269.745 53.800 C 269.879 54.151,270.479 54.400,271.187 54.400 C 272.007 54.400,272.400 54.597,272.400 55.010 C 272.400 55.367,272.894 55.719,273.591 55.858 C 274.246 55.989,274.988 56.345,275.240 56.648 C 275.492 56.952,276.036 57.200,276.449 57.200 C 276.862 57.200,277.560 57.560,278.000 58.000 C 278.440 58.440,279.081 58.800,279.424 58.800 C 279.767 58.800,279.939 58.975,279.807 59.188 C 279.675 59.402,280.070 59.697,280.684 59.845 C 281.298 59.992,282.122 60.447,282.516 60.856 C 282.909 61.265,283.565 61.600,283.973 61.600 C 284.381 61.600,284.818 61.870,284.945 62.200 C 285.071 62.530,285.440 62.800,285.765 62.800 C 286.089 62.800,286.638 63.205,286.985 63.700 C 287.332 64.195,287.702 64.555,287.808 64.500 C 288.397 64.193,289.200 64.482,289.200 65.000 C 289.200 65.330,289.486 65.600,289.836 65.600 C 290.186 65.600,290.784 65.986,291.166 66.458 C 292.116 67.631,294.202 67.224,295.773 65.560 C 298.422 62.754,301.692 61.376,306.600 60.998 C 311.108 60.651,311.600 60.513,311.600 59.592 C 311.600 59.155,311.331 58.800,311.000 58.800 C 310.670 58.800,310.400 58.530,310.400 58.200 C 310.400 57.870,310.234 57.600,310.031 57.600 C 309.550 57.600,307.200 55.250,307.200 54.769 C 307.200 54.566,306.930 54.400,306.600 54.400 C 306.270 54.400,306.000 54.216,306.000 53.990 C 306.000 53.765,305.525 53.400,304.945 53.179 C 304.364 52.958,304.003 52.664,304.142 52.525 C 304.404 52.262,303.383 51.560,301.526 50.727 C 300.936 50.461,300.368 49.919,300.264 49.522 C 300.160 49.125,299.788 48.800,299.437 48.800 C 299.087 48.800,298.800 48.530,298.800 48.200 C 298.800 47.870,298.536 47.600,298.214 47.600 C 297.892 47.600,297.435 47.240,297.200 46.800 C 296.955 46.342,296.362 46.000,295.813 46.000 C 295.205 46.000,294.761 45.707,294.600 45.200 C 294.460 44.760,294.088 44.400,293.773 44.400 C 293.458 44.400,293.200 44.130,293.200 43.800 C 293.200 43.470,292.939 43.200,292.621 43.200 C 292.302 43.200,291.559 42.753,290.970 42.207 C 290.381 41.662,289.742 41.312,289.550 41.431 C 289.357 41.550,289.200 41.367,289.200 41.024 C 289.200 40.667,288.858 40.400,288.400 40.400 C 287.960 40.400,287.600 40.244,287.600 40.053 C 287.600 39.572,284.553 37.600,283.809 37.600 C 283.474 37.600,283.200 37.370,283.200 37.089 C 283.200 36.345,281.558 35.044,280.421 34.887 C 279.882 34.812,279.197 34.402,278.898 33.976 C 278.599 33.549,278.095 33.200,277.777 33.200 C 277.460 33.200,277.245 32.983,277.300 32.718 C 277.399 32.242,277.159 32.147,275.600 32.050 C 275.160 32.023,274.800 31.726,274.800 31.390 C 274.800 31.028,274.297 30.679,273.566 30.533 C 272.887 30.397,272.237 30.042,272.123 29.743 C 272.008 29.444,271.574 29.200,271.157 29.200 C 270.741 29.200,270.400 29.011,270.400 28.780 C 270.400 28.548,269.786 28.103,269.037 27.790 C 268.287 27.476,267.604 27.013,267.520 26.760 C 267.436 26.507,266.894 26.300,266.317 26.300 C 265.627 26.300,265.200 26.043,265.071 25.550 C 264.963 25.137,264.522 24.800,264.091 24.800 C 263.660 24.800,262.850 24.440,262.291 24.000 C 261.731 23.560,261.009 23.200,260.686 23.200 C 260.363 23.200,259.874 22.930,259.600 22.600 C 259.326 22.270,258.792 22.000,258.413 22.000 C 258.034 22.000,257.398 21.640,257.000 21.200 C 256.602 20.760,255.938 20.400,255.525 20.400 C 255.113 20.400,254.671 20.130,254.545 19.800 C 254.418 19.470,253.850 19.200,253.283 19.200 C 252.716 19.200,251.869 18.841,251.402 18.402 C 250.935 17.963,250.047 17.562,249.429 17.511 C 248.811 17.459,248.217 17.189,248.110 16.909 C 248.002 16.629,247.304 16.400,246.557 16.400 C 245.664 16.400,245.200 16.210,245.200 15.843 C 245.200 15.240,244.363 14.800,243.216 14.800 C 242.821 14.800,242.274 14.530,242.000 14.200 C 241.726 13.870,240.978 13.600,240.338 13.600 C 239.675 13.600,239.076 13.343,238.946 13.002 C 238.819 12.674,238.567 12.496,238.386 12.609 C 238.204 12.721,237.942 12.630,237.804 12.407 C 237.666 12.183,237.043 12.000,236.419 12.000 C 235.796 12.000,235.186 11.740,235.064 11.423 C 234.924 11.058,234.137 10.800,232.921 10.723 C 231.535 10.634,231.000 10.433,231.000 10.000 C 231.000 9.565,230.458 9.366,229.026 9.275 C 227.898 9.204,226.869 8.903,226.626 8.573 C 226.392 8.256,225.480 7.949,224.600 7.891 C 223.720 7.834,222.968 7.616,222.930 7.409 C 222.825 6.849,221.601 6.460,219.844 6.428 C 218.916 6.411,218.102 6.145,217.827 5.770 C 217.533 5.367,216.474 5.058,214.893 4.915 C 213.533 4.792,212.513 4.541,212.627 4.357 C 212.891 3.929,211.571 3.634,208.800 3.504 C 207.489 3.442,206.631 3.225,206.678 2.967 C 206.768 2.465,206.758 2.463,202.800 2.143 C 201.150 2.010,199.445 1.653,199.011 1.351 C 198.466 0.970,196.952 0.800,194.111 0.800 C 191.637 0.800,190.000 0.641,190.000 0.400 C 190.000 0.138,182.800 0.000,169.200 0.000 C 155.600 0.000,148.400 0.138,148.400 0.400 M353.057 110.642 C 352.476 112.058,352.000 113.383,352.000 113.588 C 352.000 114.267,349.669 117.377,348.000 118.926 C 345.894 120.879,345.498 121.898,346.467 122.867 C 346.870 123.270,347.200 123.870,347.200 124.200 C 347.200 124.530,347.470 124.800,347.800 124.800 C 348.130 124.800,348.400 125.132,348.400 125.538 C 348.400 125.944,348.760 126.602,349.200 127.000 C 349.640 127.398,350.000 128.056,350.000 128.462 C 350.000 128.868,350.270 129.200,350.600 129.200 C 350.933 129.200,351.200 129.556,351.200 130.000 C 351.200 130.440,351.560 131.160,352.000 131.600 C 352.440 132.040,352.800 132.597,352.800 132.837 C 352.800 133.077,353.158 133.728,353.595 134.284 C 354.032 134.839,354.283 135.465,354.154 135.674 C 354.025 135.883,354.298 136.153,354.760 136.274 C 355.364 136.432,355.600 136.812,355.600 137.627 C 355.600 138.250,355.865 138.909,356.189 139.090 C 356.684 139.367,357.030 140.287,357.170 141.700 C 357.187 141.865,357.470 142.000,357.800 142.000 C 358.165 142.000,358.400 142.372,358.400 142.951 C 358.400 143.474,358.670 144.126,359.000 144.400 C 359.330 144.674,359.600 145.236,359.600 145.649 C 359.600 146.062,359.960 146.760,360.400 147.200 C 360.844 147.644,361.200 148.533,361.200 149.200 C 361.200 149.957,361.405 150.400,361.755 150.400 C 362.074 150.400,362.423 150.998,362.574 151.800 C 362.731 152.638,363.070 153.200,363.418 153.200 C 363.811 153.200,364.000 153.634,364.000 154.538 C 364.000 155.368,364.304 156.151,364.800 156.600 C 365.299 157.052,365.600 157.832,365.600 158.675 C 365.600 159.506,365.831 160.114,366.200 160.255 C 366.542 160.387,366.800 160.983,366.800 161.643 C 366.800 162.279,367.160 163.160,367.600 163.600 C 368.095 164.095,368.400 164.933,368.400 165.800 C 368.400 166.778,368.581 167.200,369.000 167.200 C 369.431 167.200,369.600 167.641,369.600 168.767 C 369.600 170.722,369.923 171.600,370.643 171.600 C 371.044 171.600,371.200 172.154,371.200 173.580 C 371.200 174.818,371.402 175.680,371.740 175.880 C 372.037 176.056,372.394 177.190,372.533 178.400 C 372.677 179.653,373.047 180.791,373.393 181.044 C 373.796 181.339,374.000 182.163,374.000 183.495 C 374.000 184.702,374.217 185.683,374.546 185.955 C 374.855 186.212,375.182 187.538,375.301 189.023 C 375.429 190.612,375.764 191.918,376.155 192.351 C 376.628 192.873,376.800 193.867,376.800 196.083 C 376.800 198.127,376.974 199.247,377.339 199.549 C 377.703 199.851,377.965 201.518,378.145 204.674 C 378.332 207.941,378.591 209.548,379.006 210.007 C 379.890 210.983,379.899 244.285,379.016 244.956 C 378.597 245.274,378.372 246.578,378.220 249.564 C 378.081 252.291,377.800 254.046,377.404 254.650 C 377.022 255.233,376.800 256.526,376.800 258.166 C 376.800 259.988,376.631 260.855,376.233 261.080 C 375.886 261.276,375.594 262.298,375.480 263.717 C 375.372 265.057,375.021 266.335,374.647 266.748 C 374.287 267.146,374.000 268.146,374.000 269.000 C 374.000 269.845,373.746 270.821,373.436 271.169 C 373.126 271.516,372.761 272.511,372.626 273.380 C 372.490 274.249,372.114 275.253,371.789 275.612 C 371.465 275.970,371.200 276.794,371.200 277.443 C 371.200 278.127,370.864 278.910,370.400 279.307 C 369.941 279.700,369.600 280.487,369.600 281.153 C 369.600 281.816,369.343 282.413,369.000 282.545 C 368.656 282.677,368.400 283.274,368.400 283.945 C 368.400 284.588,368.147 285.212,367.838 285.330 C 367.528 285.449,367.145 286.141,366.985 286.867 C 366.826 287.594,366.406 288.400,366.053 288.658 C 365.097 289.357,366.847 289.538,376.409 289.728 C 384.506 289.888,389.371 290.735,389.933 292.081 C 390.007 292.256,390.244 292.400,390.460 292.400 C 390.677 292.400,391.857 293.217,393.082 294.215 C 395.554 296.229,396.141 296.293,396.325 294.569 C 396.394 293.926,396.664 293.219,396.925 292.999 C 397.515 292.500,397.573 292.211,397.747 288.948 C 397.835 287.298,398.089 286.192,398.429 285.982 C 398.806 285.749,399.019 284.431,399.131 281.624 C 399.220 279.411,399.452 277.600,399.647 277.600 C 399.848 277.600,400.000 266.133,400.000 251.000 C 400.000 233.533,399.863 224.400,399.600 224.400 C 399.357 224.400,399.200 222.657,399.200 219.971 C 399.200 216.568,399.061 215.404,398.600 214.943 C 398.228 214.571,397.974 213.478,397.932 212.071 C 397.894 210.822,397.823 209.530,397.774 209.200 C 397.725 208.870,397.666 208.184,397.643 207.676 C 397.619 207.168,397.432 206.856,397.228 206.983 C 396.622 207.357,396.467 206.744,396.346 203.487 C 396.264 201.295,396.081 200.400,395.715 200.400 C 395.432 200.400,395.189 199.995,395.175 199.500 C 395.107 197.021,394.703 194.957,394.214 194.581 C 393.896 194.337,393.627 193.248,393.571 191.981 C 393.515 190.720,393.214 189.496,392.857 189.080 C 392.505 188.669,392.279 187.769,392.332 186.986 C 392.397 186.021,392.183 185.406,391.612 184.918 C 391.044 184.431,390.800 183.735,390.800 182.600 C 390.800 181.473,390.556 180.769,390.000 180.293 C 389.398 179.777,389.200 179.113,389.200 177.604 C 389.200 176.234,389.045 175.632,388.709 175.700 C 388.440 175.755,388.164 175.350,388.098 174.800 C 387.843 172.703,387.565 172.000,386.992 172.000 C 386.549 172.000,386.400 171.502,386.400 170.020 C 386.400 168.769,386.199 167.922,385.854 167.720 C 385.390 167.448,384.980 166.138,384.727 164.122 C 384.694 163.859,384.472 163.679,384.233 163.722 C 383.995 163.765,383.741 163.180,383.669 162.421 C 383.597 161.663,383.295 160.853,382.998 160.621 C 382.701 160.390,382.400 159.662,382.329 159.004 C 382.258 158.346,381.885 157.491,381.500 157.104 C 380.908 156.509,380.570 155.058,380.753 153.900 C 380.779 153.735,380.530 153.600,380.200 153.600 C 379.796 153.600,379.600 153.196,379.600 152.363 C 379.600 151.462,379.383 151.068,378.800 150.916 C 378.205 150.760,378.000 150.370,378.000 149.396 C 378.000 148.622,377.763 147.995,377.422 147.864 C 377.104 147.742,376.724 147.003,376.578 146.221 C 376.424 145.403,376.075 144.800,375.755 144.800 C 375.410 144.800,375.200 144.364,375.200 143.643 C 375.200 143.006,374.953 142.391,374.651 142.275 C 374.348 142.159,373.980 141.419,373.832 140.632 C 373.670 139.769,373.333 139.200,372.982 139.200 C 372.607 139.200,372.400 138.789,372.400 138.043 C 372.400 137.383,372.142 136.787,371.800 136.655 C 371.470 136.529,371.200 135.976,371.200 135.427 C 371.200 134.838,370.872 134.253,370.400 134.000 C 369.933 133.750,369.600 133.162,369.600 132.589 C 369.600 132.040,369.247 131.387,368.800 131.107 C 368.360 130.832,368.000 130.214,368.000 129.732 C 368.000 129.251,367.730 128.587,367.400 128.257 C 367.070 127.927,366.800 127.547,366.800 127.412 C 366.800 127.277,366.440 126.780,366.000 126.308 C 365.560 125.836,365.200 125.123,365.200 124.725 C 365.200 124.326,365.022 124.000,364.805 124.000 C 364.588 124.000,364.148 123.370,363.826 122.600 C 363.504 121.830,363.052 121.200,362.820 121.200 C 362.589 121.200,362.400 120.849,362.400 120.420 C 362.400 119.991,362.121 119.484,361.781 119.293 C 361.440 119.103,361.130 118.526,361.091 118.012 C 361.052 117.499,360.711 116.997,360.333 116.898 C 359.954 116.799,359.586 116.332,359.513 115.859 C 359.440 115.387,359.160 115.045,358.891 115.100 C 358.621 115.155,358.400 114.855,358.400 114.433 C 358.400 113.303,357.979 112.400,357.452 112.400 C 356.993 112.400,356.461 111.578,355.596 109.532 C 354.794 107.635,354.182 107.903,353.057 110.642 M316.169 346.200 C 316.170 350.820,316.228 352.655,316.299 350.278 C 316.370 347.901,316.369 344.121,316.298 341.878 C 316.227 339.635,316.169 341.580,316.169 346.200 M316.501 357.800 C 316.505 358.680,316.587 358.993,316.683 358.495 C 316.779 357.998,316.775 357.278,316.675 356.895 C 316.575 356.513,316.496 356.920,316.501 357.800 M318.308 363.800 C 318.828 364.799,321.200 367.800,321.200 367.458 C 321.200 367.235,318.633 363.706,318.102 363.200 C 317.986 363.090,318.079 363.360,318.308 363.800 M321.600 367.733 C 321.600 367.843,322.320 368.503,323.200 369.200 C 324.080 369.897,324.800 370.377,324.800 370.267 C 324.800 370.157,324.080 369.497,323.200 368.800 C 322.320 368.103,321.600 367.623,321.600 367.733 M326.344 371.222 C 327.083 371.673,327.983 371.963,328.344 371.867 C 328.848 371.733,328.815 371.679,328.200 371.634 C 327.760 371.601,327.051 371.310,326.624 370.987 C 326.196 370.664,325.656 370.401,325.424 370.401 C 325.191 370.402,325.605 370.772,326.344 371.222 M330.200 372.454 C 330.705 372.775,332.844 373.008,336.000 373.087 C 338.750 373.156,342.212 373.260,343.693 373.319 C 345.174 373.377,346.254 373.298,346.093 373.142 C 345.932 372.986,342.560 372.783,338.600 372.691 C 334.640 372.598,330.950 372.393,330.400 372.234 C 329.470 371.965,329.456 371.981,330.200 372.454 " stroke="none" fill="#54c2dd" fill-rule="evenodd"></path><path id="path4" d="M119.383 6.828 C 119.237 7.063,118.732 7.413,118.259 7.605 C 117.472 7.924,117.490 7.948,118.476 7.891 C 119.137 7.853,119.623 7.555,119.738 7.115 C 119.948 6.314,119.783 6.181,119.383 6.828 M102.800 14.249 C 102.800 14.780,102.909 14.808,103.400 14.400 C 103.730 14.126,104.000 13.834,104.000 13.751 C 104.000 13.668,103.730 13.600,103.400 13.600 C 103.070 13.600,102.800 13.892,102.800 14.249 M93.600 19.561 C 93.600 19.759,93.060 20.110,92.400 20.340 C 91.740 20.570,91.200 20.848,91.200 20.958 C 91.200 21.068,91.730 20.974,92.377 20.748 C 93.647 20.305,94.841 19.200,94.049 19.200 C 93.802 19.200,93.600 19.362,93.600 19.561 M81.433 28.257 C 81.083 29.169,81.280 29.192,82.100 28.333 C 82.633 27.775,82.667 27.600,82.243 27.600 C 81.936 27.600,81.572 27.896,81.433 28.257 M64.372 45.500 C 63.808 46.105,63.223 46.960,63.072 47.400 C 62.882 47.952,63.103 47.828,63.787 47.000 C 64.332 46.340,65.053 45.485,65.389 45.100 C 66.392 43.951,65.483 44.308,64.372 45.500 M60.000 50.957 C 60.000 51.264,59.730 51.618,59.400 51.745 C 59.070 51.871,58.800 52.263,58.800 52.616 C 58.800 53.152,58.888 53.169,59.337 52.720 C 60.210 51.847,60.882 50.400,60.414 50.400 C 60.186 50.400,60.000 50.651,60.000 50.957 M57.232 55.300 C 57.253 55.901,57.339 56.001,57.492 55.600 C 57.617 55.270,57.918 54.868,58.160 54.706 C 58.431 54.525,58.332 54.410,57.900 54.406 C 57.430 54.402,57.210 54.695,57.232 55.300 M53.338 60.617 C 52.978 61.555,53.367 61.666,53.919 60.782 C 54.228 60.287,54.254 60.000,53.991 60.000 C 53.762 60.000,53.468 60.278,53.338 60.617 M138.000 60.376 C 138.000 61.047,138.709 61.213,138.946 60.598 C 139.085 60.235,138.944 60.000,138.587 60.000 C 138.264 60.000,138.000 60.169,138.000 60.376 M51.738 63.417 C 51.608 63.757,51.613 64.147,51.751 64.284 C 51.888 64.421,52.000 64.247,52.000 63.896 C 52.000 63.545,52.315 63.176,52.700 63.076 C 53.356 62.904,53.355 62.890,52.687 62.846 C 52.296 62.821,51.868 63.078,51.738 63.417 M49.494 67.589 C 48.499 69.007,48.591 69.826,49.636 68.852 C 50.096 68.423,50.409 67.741,50.330 67.336 C 50.204 66.683,50.110 66.711,49.494 67.589 M48.066 70.355 C 47.772 70.539,47.560 70.759,47.594 70.845 C 47.728 71.178,46.826 73.137,46.425 73.385 C 46.191 73.529,46.000 73.941,46.000 74.299 C 46.000 74.832,46.145 74.795,46.800 74.092 C 47.240 73.620,47.600 72.965,47.600 72.637 C 47.600 72.308,47.888 71.878,48.241 71.681 C 48.594 71.484,48.819 71.029,48.741 70.672 C 48.648 70.240,48.420 70.134,48.066 70.355 M45.078 76.256 C 44.779 76.555,45.106 77.200,45.557 77.200 C 45.727 77.200,45.867 76.930,45.867 76.600 C 45.867 75.973,45.514 75.819,45.078 76.256 M41.855 83.400 C 41.720 83.752,41.850 84.000,42.170 84.000 C 42.469 84.000,42.818 83.730,42.945 83.400 C 43.080 83.048,42.950 82.800,42.630 82.800 C 42.331 82.800,41.982 83.070,41.855 83.400 M40.559 87.361 C 40.171 88.375,40.567 88.865,41.093 88.022 C 41.405 87.524,41.440 87.148,41.189 86.993 C 40.972 86.859,40.689 87.025,40.559 87.361 M39.490 91.101 C 39.110 91.520,38.814 92.209,38.832 92.631 C 38.855 93.194,38.921 93.239,39.078 92.800 C 39.196 92.470,39.560 91.986,39.888 91.725 C 40.215 91.464,40.415 91.045,40.332 90.795 C 40.237 90.511,39.919 90.627,39.490 91.101 M36.464 100.096 C 36.209 100.351,36.027 101.289,36.060 102.180 C 36.110 103.540,36.148 103.608,36.293 102.600 C 36.389 101.940,36.734 101.103,37.060 100.740 C 37.734 99.989,37.175 99.385,36.464 100.096 M34.886 106.668 C 34.789 107.845,34.871 107.825,35.560 106.500 C 35.932 105.785,35.920 105.600,35.501 105.600 C 35.212 105.600,34.935 106.081,34.886 106.668 M104.500 109.488 C 104.225 109.586,104.000 109.960,104.000 110.319 C 104.000 110.913,104.061 110.911,104.676 110.295 C 105.399 109.572,105.317 109.196,104.500 109.488 M33.467 112.667 C 33.320 112.813,33.219 113.488,33.243 114.167 L 33.285 115.400 33.720 114.300 C 33.959 113.695,34.300 113.200,34.477 113.200 C 34.655 113.200,34.800 113.020,34.800 112.800 C 34.800 112.350,33.876 112.258,33.467 112.667 M102.838 114.155 C 102.554 114.497,102.514 114.823,102.739 114.962 C 102.946 115.090,103.229 114.901,103.368 114.540 C 103.707 113.656,103.423 113.450,102.838 114.155 M101.892 118.242 C 101.731 118.402,101.600 118.809,101.600 119.147 C 101.600 119.597,101.718 119.642,102.045 119.315 C 102.290 119.070,102.421 118.663,102.337 118.410 C 102.252 118.157,102.052 118.081,101.892 118.242 M32.267 121.067 C 32.120 121.213,32.021 121.978,32.046 122.767 C 32.074 123.612,32.172 123.872,32.285 123.400 C 32.391 122.960,32.640 122.429,32.839 122.220 C 33.597 121.422,33.038 120.295,32.267 121.067 M399.200 223.400 C 399.200 223.730,399.380 224.000,399.600 224.000 C 399.820 224.000,400.000 223.730,400.000 223.400 C 400.000 223.070,399.820 222.800,399.600 222.800 C 399.380 222.800,399.200 223.070,399.200 223.400 M125.307 254.434 C 125.263 255.023,125.420 255.201,125.843 255.039 C 126.184 254.908,126.336 254.981,126.195 255.207 C 126.060 255.426,126.231 255.714,126.575 255.846 C 126.919 255.978,127.200 256.274,127.200 256.505 C 127.200 256.735,126.840 256.598,126.400 256.200 C 125.960 255.802,125.600 255.610,125.600 255.774 C 125.600 255.938,126.005 256.410,126.500 256.823 L 127.400 257.573 126.500 257.587 C 126.005 257.594,125.600 257.390,125.600 257.133 C 125.600 256.877,125.478 256.789,125.329 256.938 C 125.180 257.087,125.462 257.585,125.956 258.045 C 126.450 258.505,126.763 259.118,126.652 259.408 C 126.440 259.960,127.438 260.547,127.999 260.201 C 128.178 260.090,128.238 260.334,128.130 260.744 C 127.893 261.653,129.160 262.272,129.706 261.514 C 129.979 261.135,130.021 261.171,129.869 261.651 C 129.755 262.009,129.873 262.531,130.131 262.810 C 130.492 263.201,130.485 263.252,130.100 263.035 C 129.825 262.880,129.600 262.928,129.600 263.143 C 129.600 263.358,129.767 263.593,129.972 263.667 C 130.177 263.740,130.087 264.149,129.772 264.576 C 129.214 265.334,129.200 265.332,129.200 264.476 C 129.200 263.964,128.951 263.600,128.600 263.600 C 128.270 263.600,128.000 263.330,128.000 263.000 C 128.000 262.667,127.644 262.400,127.200 262.400 C 126.667 262.400,126.400 262.133,126.400 261.600 C 126.400 261.156,126.133 260.800,125.800 260.800 C 125.470 260.800,125.200 260.530,125.200 260.200 C 125.200 259.867,124.844 259.600,124.400 259.600 C 123.867 259.600,123.600 259.333,123.600 258.800 C 123.600 258.360,123.352 258.000,123.049 258.000 C 122.746 258.000,122.233 257.601,121.909 257.114 L 121.321 256.227 120.846 257.114 C 120.585 257.601,120.130 258.000,119.835 258.000 C 119.540 258.000,119.074 258.270,118.800 258.600 C 118.526 258.930,117.902 259.200,117.413 259.200 C 116.924 259.200,116.198 259.560,115.800 260.000 C 115.306 260.546,114.556 260.804,113.438 260.813 C 112.537 260.820,111.451 261.090,111.024 261.413 C 110.360 261.915,106.594 262.000,85.124 262.000 L 60.000 262.000 60.000 263.151 C 60.000 263.850,60.313 264.518,60.797 264.851 C 61.235 265.153,61.656 265.840,61.733 266.379 C 61.810 266.917,62.082 267.427,62.337 267.512 C 62.591 267.597,62.800 267.984,62.800 268.371 C 62.800 268.759,63.160 269.402,63.600 269.800 C 64.040 270.198,64.400 270.856,64.400 271.262 C 64.400 271.668,64.670 272.000,65.000 272.000 C 65.330 272.000,65.600 272.345,65.600 272.767 C 65.600 273.959,66.031 274.800,66.643 274.800 C 66.949 274.800,67.200 275.145,67.200 275.567 C 67.200 276.699,67.633 277.627,68.042 277.374 C 68.239 277.252,68.400 277.540,68.400 278.014 C 68.400 278.538,68.713 278.957,69.200 279.084 C 69.736 279.224,70.000 279.630,70.000 280.311 C 70.000 280.975,70.522 281.811,71.500 282.712 C 72.325 283.473,72.730 283.958,72.400 283.789 C 71.913 283.540,71.894 283.584,72.300 284.021 C 72.575 284.318,72.800 284.901,72.800 285.317 C 72.800 285.738,73.155 286.168,73.600 286.284 C 74.040 286.399,74.400 286.742,74.400 287.047 C 74.400 288.070,74.455 288.199,75.028 288.520 C 75.343 288.696,75.600 289.191,75.600 289.620 C 75.600 290.133,75.873 290.400,76.400 290.400 C 76.923 290.400,77.200 290.667,77.200 291.171 C 77.200 291.596,77.470 292.213,77.800 292.543 C 78.130 292.873,78.400 293.443,78.400 293.809 C 78.400 294.175,78.760 294.569,79.200 294.684 C 79.640 294.799,80.000 295.142,80.000 295.447 C 80.000 295.751,80.270 296.000,80.600 296.000 C 80.930 296.000,81.200 296.345,81.200 296.767 C 81.200 297.959,81.631 298.800,82.243 298.800 C 82.549 298.800,82.800 299.160,82.800 299.600 C 82.800 300.044,83.067 300.400,83.400 300.400 C 83.730 300.400,84.000 300.670,84.000 301.000 C 84.000 301.333,84.356 301.600,84.800 301.600 C 85.535 301.600,85.746 302.224,85.570 303.880 C 85.554 304.034,85.926 304.303,86.396 304.477 C 86.866 304.651,87.132 304.987,86.985 305.224 C 86.838 305.463,87.093 305.751,87.560 305.874 C 88.022 305.994,88.400 306.302,88.400 306.558 C 88.400 306.813,88.715 307.320,89.100 307.683 C 90.286 308.803,90.763 309.504,90.509 309.757 C 90.376 309.891,90.456 310.000,90.687 310.000 C 90.918 310.000,91.201 310.360,91.316 310.800 C 91.431 311.240,91.812 311.600,92.163 311.600 C 92.513 311.600,92.800 311.876,92.800 312.213 C 92.800 312.549,93.070 312.929,93.400 313.055 C 93.730 313.182,94.000 313.536,94.000 313.843 C 94.000 314.149,94.360 314.400,94.800 314.400 C 95.333 314.400,95.600 314.667,95.600 315.200 C 95.600 315.644,95.867 316.000,96.200 316.000 C 96.530 316.000,96.800 316.270,96.800 316.600 C 96.800 316.930,97.160 317.560,97.600 318.000 C 98.040 318.440,98.400 318.936,98.400 319.103 C 98.400 319.269,99.030 319.984,99.800 320.690 C 100.570 321.397,101.200 322.161,101.200 322.388 C 101.200 322.614,101.449 322.800,101.753 322.800 C 102.058 322.800,102.401 323.160,102.516 323.600 C 102.631 324.040,103.012 324.400,103.363 324.400 C 103.713 324.400,104.000 324.670,104.000 325.000 C 104.000 325.330,104.258 325.600,104.573 325.600 C 104.888 325.600,105.260 325.960,105.400 326.400 C 105.540 326.840,105.912 327.200,106.227 327.200 C 106.542 327.200,106.800 327.404,106.800 327.654 C 106.800 328.188,108.670 330.000,109.221 330.000 C 109.429 330.000,109.603 330.225,109.607 330.500 C 109.615 331.110,111.342 332.800,111.956 332.800 C 112.200 332.800,112.400 333.087,112.400 333.437 C 112.400 333.788,112.760 334.169,113.200 334.284 C 113.640 334.399,114.000 334.742,114.000 335.047 C 114.000 335.351,114.270 335.600,114.600 335.600 C 114.933 335.600,115.200 335.956,115.200 336.400 C 115.200 336.933,115.467 337.200,116.000 337.200 C 116.444 337.200,116.800 337.467,116.800 337.800 C 116.800 338.130,117.070 338.400,117.400 338.400 C 117.730 338.400,118.000 338.687,118.000 339.037 C 118.000 339.388,118.360 339.769,118.800 339.884 C 119.240 339.999,119.600 340.342,119.600 340.647 C 119.600 340.951,119.858 341.200,120.173 341.200 C 120.488 341.200,120.861 341.563,121.002 342.006 C 121.143 342.449,121.393 342.728,121.557 342.626 C 121.722 342.524,122.147 342.747,122.501 343.120 C 123.600 344.282,124.571 345.004,124.892 344.900 C 125.061 344.845,125.200 344.980,125.200 345.200 C 125.200 345.420,125.470 345.600,125.800 345.600 C 126.130 345.600,126.400 345.870,126.400 346.200 C 126.400 346.533,126.756 346.800,127.200 346.800 C 127.733 346.800,128.000 347.067,128.000 347.600 C 128.000 348.141,128.267 348.400,128.824 348.400 C 129.277 348.400,129.557 348.546,129.447 348.724 C 129.255 349.035,131.281 351.200,131.764 351.200 C 131.894 351.200,132.360 351.560,132.800 352.000 C 133.240 352.440,133.960 352.800,134.400 352.800 C 134.844 352.800,135.200 353.067,135.200 353.400 C 135.200 353.730,135.470 354.000,135.800 354.000 C 136.130 354.000,136.400 354.274,136.400 354.610 C 136.400 354.945,136.833 355.384,137.361 355.585 C 137.890 355.786,138.440 356.142,138.585 356.375 C 138.729 356.609,139.287 356.800,139.824 356.800 C 140.533 356.800,140.800 357.018,140.800 357.600 C 140.800 358.044,141.067 358.400,141.400 358.400 C 141.730 358.400,142.000 358.670,142.000 359.000 C 142.000 359.330,142.278 359.600,142.617 359.600 C 142.956 359.600,143.620 359.960,144.092 360.400 C 144.564 360.840,145.277 361.200,145.675 361.200 C 146.074 361.200,146.400 361.470,146.400 361.800 C 146.400 362.130,146.664 362.400,146.986 362.400 C 147.308 362.400,147.765 362.760,148.000 363.200 C 148.250 363.668,148.838 364.000,149.414 364.000 C 150.024 364.000,150.400 364.229,150.400 364.600 C 150.400 364.930,150.739 365.200,151.153 365.200 C 151.570 365.200,152.000 365.557,152.116 366.000 C 152.268 366.583,152.662 366.800,153.563 366.800 C 154.396 366.800,154.800 366.996,154.800 367.400 C 154.800 367.730,155.139 368.000,155.553 368.000 C 155.970 368.000,156.400 368.357,156.516 368.800 C 156.668 369.383,157.062 369.600,157.963 369.600 C 158.805 369.600,159.200 369.795,159.200 370.210 C 159.200 370.567,159.695 370.919,160.394 371.059 C 161.050 371.190,161.500 371.438,161.394 371.610 C 161.288 371.782,161.741 372.110,162.400 372.340 C 163.060 372.570,163.600 372.933,163.600 373.147 C 163.600 373.361,164.125 373.652,164.767 373.793 C 165.408 373.934,166.033 374.308,166.154 374.624 C 166.276 374.943,166.895 375.200,167.541 375.200 C 168.370 375.200,168.767 375.431,168.916 376.000 C 169.066 376.575,169.462 376.800,170.320 376.800 C 171.013 376.800,171.611 377.052,171.745 377.400 C 171.871 377.730,172.424 378.000,172.973 378.000 C 173.562 378.000,174.147 378.328,174.400 378.800 C 174.635 379.240,175.163 379.600,175.571 379.600 C 175.980 379.600,176.418 379.870,176.545 380.200 C 176.689 380.576,177.300 380.800,178.184 380.800 C 179.160 380.800,179.747 381.046,180.093 381.600 C 180.426 382.134,181.026 382.400,181.896 382.400 C 182.788 382.400,183.200 382.589,183.200 383.000 C 183.200 383.419,183.622 383.600,184.600 383.600 C 185.733 383.600,186.000 383.752,186.000 384.400 C 186.000 385.048,186.267 385.200,187.400 385.200 C 188.378 385.200,188.800 385.381,188.800 385.800 C 188.800 386.234,189.245 386.400,190.404 386.400 C 191.513 386.400,192.219 386.647,192.693 387.200 C 193.119 387.698,193.873 388.000,194.689 388.000 C 195.588 388.000,196.000 388.189,196.000 388.600 C 196.000 389.053,196.489 389.200,198.000 389.200 C 199.733 389.200,200.000 389.307,200.000 390.000 C 200.000 390.648,200.267 390.800,201.400 390.800 C 202.267 390.800,203.105 391.105,203.600 391.600 C 204.165 392.165,204.933 392.400,206.213 392.400 C 207.455 392.400,208.098 392.589,208.255 393.000 C 208.420 393.428,209.089 393.600,210.596 393.600 C 212.299 393.600,212.743 393.740,212.897 394.326 C 213.045 394.894,213.544 395.073,215.194 395.148 C 216.380 395.202,217.554 395.497,217.879 395.822 C 218.253 396.196,219.295 396.400,220.832 396.400 C 222.713 396.400,223.351 396.567,223.893 397.200 C 224.453 397.854,225.073 398.000,227.289 398.000 C 229.432 398.000,230.000 398.126,230.000 398.600 C 230.000 399.095,230.733 399.200,234.200 399.200 C 236.733 399.200,238.400 399.359,238.400 399.600 C 238.400 400.200,243.097 400.108,243.299 399.504 C 243.547 398.758,242.684 398.092,241.579 398.176 C 240.301 398.273,239.200 397.723,239.200 396.986 C 239.200 396.664,238.930 396.400,238.600 396.400 C 238.270 396.400,238.000 396.130,238.000 395.800 C 238.000 395.470,237.730 395.200,237.400 395.200 C 236.981 395.200,236.800 394.778,236.800 393.800 C 236.800 392.667,236.648 392.400,236.000 392.400 C 235.467 392.400,235.200 392.133,235.200 391.600 C 235.200 391.156,234.933 390.800,234.600 390.800 C 234.181 390.800,234.000 390.378,234.000 389.400 C 234.000 388.267,233.848 388.000,233.200 388.000 C 232.756 388.000,232.400 387.733,232.400 387.400 C 232.400 387.070,232.130 386.800,231.800 386.800 C 231.381 386.800,231.200 386.378,231.200 385.400 C 231.200 384.267,231.048 384.000,230.400 384.000 C 229.752 384.000,229.600 383.733,229.600 382.600 C 229.600 381.622,229.419 381.200,229.000 381.200 C 228.667 381.200,228.400 380.844,228.400 380.400 C 228.400 379.867,228.133 379.600,227.600 379.600 C 226.952 379.600,226.800 379.333,226.800 378.200 C 226.800 377.222,226.619 376.800,226.200 376.800 C 225.867 376.800,225.600 376.444,225.600 376.000 C 225.600 375.467,225.333 375.200,224.800 375.200 C 224.152 375.200,224.000 374.933,224.000 373.800 C 224.000 372.822,223.819 372.400,223.400 372.400 C 223.070 372.400,222.800 372.130,222.800 371.800 C 222.800 371.467,222.444 371.200,222.000 371.200 C 221.352 371.200,221.200 370.933,221.200 369.800 C 221.200 368.667,221.048 368.400,220.400 368.400 C 219.867 368.400,219.600 368.133,219.600 367.600 C 219.600 367.156,219.333 366.800,219.000 366.800 C 218.581 366.800,218.400 366.378,218.400 365.400 C 218.400 364.267,218.248 364.000,217.600 364.000 C 217.156 364.000,216.800 363.733,216.800 363.400 C 216.800 363.070,216.530 362.800,216.200 362.800 C 215.867 362.800,215.600 362.444,215.600 362.000 C 215.600 361.467,215.333 361.200,214.800 361.200 C 214.152 361.200,214.000 360.933,214.000 359.800 C 214.000 358.822,213.819 358.400,213.400 358.400 C 213.067 358.400,212.800 358.044,212.800 357.600 C 212.800 357.067,212.533 356.800,212.000 356.800 C 211.352 356.800,211.200 356.533,211.200 355.400 C 211.200 354.422,211.019 354.000,210.600 354.000 C 210.270 354.000,210.000 353.730,210.000 353.400 C 210.000 353.067,209.644 352.800,209.200 352.800 C 208.667 352.800,208.400 352.533,208.400 352.000 C 208.400 351.556,208.133 351.200,207.800 351.200 C 207.381 351.200,207.200 350.778,207.200 349.800 C 207.200 348.667,207.048 348.400,206.400 348.400 C 205.956 348.400,205.600 348.133,205.600 347.800 C 205.600 347.470,205.330 347.200,205.000 347.200 C 204.667 347.200,204.400 346.844,204.400 346.400 C 204.400 345.867,204.133 345.600,203.600 345.600 C 203.156 345.600,202.800 345.333,202.800 345.000 C 202.800 344.670,202.530 344.400,202.200 344.400 C 201.781 344.400,201.600 343.978,201.600 343.000 C 201.600 341.867,201.448 341.600,200.800 341.600 C 200.267 341.600,200.000 341.333,200.000 340.800 C 200.000 340.267,199.733 340.000,199.200 340.000 C 198.756 340.000,198.400 339.733,198.400 339.400 C 198.400 339.070,198.130 338.800,197.800 338.800 C 197.367 338.800,197.200 338.356,197.200 337.200 C 197.200 335.867,197.067 335.600,196.400 335.600 C 195.956 335.600,195.600 335.333,195.600 335.000 C 195.600 334.670,195.330 334.400,195.000 334.400 C 194.667 334.400,194.400 334.044,194.400 333.600 C 194.400 333.067,194.133 332.800,193.600 332.800 C 193.156 332.800,192.800 332.533,192.800 332.200 C 192.800 331.870,192.530 331.600,192.200 331.600 C 191.781 331.600,191.600 331.178,191.600 330.200 C 191.600 329.067,191.448 328.800,190.800 328.800 C 190.267 328.800,190.000 328.533,190.000 328.000 C 190.000 327.556,189.733 327.200,189.400 327.200 C 189.070 327.200,188.800 326.930,188.800 326.600 C 188.800 326.267,188.444 326.000,188.000 326.000 C 187.467 326.000,187.200 325.733,187.200 325.200 C 187.200 324.756,186.933 324.400,186.600 324.400 C 186.270 324.400,186.000 324.130,186.000 323.800 C 186.000 323.467,185.644 323.200,185.200 323.200 C 184.552 323.200,184.400 322.933,184.400 321.800 C 184.400 320.822,184.219 320.400,183.800 320.400 C 183.467 320.400,183.200 320.044,183.200 319.600 C 183.200 319.067,182.933 318.800,182.400 318.800 C 181.956 318.800,181.600 318.533,181.600 318.200 C 181.600 317.870,181.360 317.600,181.067 317.600 C 180.773 317.600,180.533 317.330,180.533 317.000 C 180.533 316.279,181.183 316.187,181.240 316.900 C 181.262 317.175,181.405 316.951,181.557 316.402 C 181.711 315.849,182.184 315.349,182.618 315.281 C 183.110 315.203,183.228 315.277,182.934 315.481 C 182.587 315.723,182.612 316.002,183.034 316.579 C 183.391 317.067,183.600 317.154,183.600 316.815 C 183.600 316.488,183.903 316.626,184.375 317.171 C 184.818 317.682,185.047 318.351,184.909 318.732 C 184.764 319.132,185.029 318.998,185.567 318.400 C 186.193 317.705,186.400 317.613,186.246 318.100 C 186.102 318.558,186.237 318.800,186.636 318.800 C 186.972 318.800,187.144 318.967,187.018 319.171 C 186.756 319.594,188.214 320.162,188.736 319.840 C 188.924 319.723,189.466 319.988,189.939 320.429 C 190.413 320.870,190.800 321.037,190.800 320.800 C 190.800 320.367,191.204 320.626,192.829 322.100 C 193.253 322.485,193.606 322.665,193.613 322.500 C 193.620 322.335,193.878 322.533,194.186 322.940 C 194.494 323.347,194.939 323.561,195.173 323.416 C 195.408 323.271,195.600 323.354,195.600 323.600 C 195.600 323.846,195.761 323.948,195.958 323.826 C 196.155 323.704,196.419 323.874,196.546 324.202 C 196.672 324.531,197.061 324.800,197.411 324.800 C 197.761 324.800,197.936 324.980,197.800 325.200 C 197.664 325.420,197.934 325.600,198.400 325.600 C 198.877 325.600,199.136 325.779,198.994 326.010 C 198.855 326.235,198.889 326.394,199.070 326.363 C 199.877 326.222,200.427 326.433,200.203 326.795 C 200.062 327.023,200.224 327.089,200.584 326.951 C 200.929 326.819,201.506 326.956,201.867 327.255 C 202.228 327.555,202.828 327.800,203.200 327.800 C 203.572 327.800,204.130 328.003,204.439 328.251 C 205.241 328.897,209.663 330.933,210.262 330.933 C 210.539 330.933,210.680 331.071,210.576 331.239 C 210.472 331.407,210.570 331.658,210.793 331.796 C 211.028 331.941,211.200 331.615,211.200 331.024 C 211.200 330.120,211.035 330.000,209.800 330.000 C 208.822 330.000,208.400 329.819,208.400 329.400 C 208.400 328.985,207.983 328.800,207.047 328.800 C 206.030 328.800,205.641 328.601,205.484 328.000 C 205.332 327.417,204.938 327.200,204.037 327.200 C 203.204 327.200,202.800 327.004,202.800 326.600 C 202.800 326.270,202.451 326.000,202.024 326.000 C 201.597 326.000,201.134 325.817,200.996 325.593 C 200.858 325.370,200.573 325.293,200.362 325.423 C 200.152 325.553,200.030 325.425,200.090 325.139 C 200.151 324.853,199.795 324.557,199.300 324.482 C 198.805 324.406,198.400 324.087,198.400 323.772 C 198.400 323.457,198.055 323.200,197.633 323.200 C 196.441 323.200,195.600 322.769,195.600 322.157 C 195.600 321.787,195.130 321.600,194.200 321.600 C 193.067 321.600,192.800 321.448,192.800 320.800 C 192.800 320.267,192.533 320.000,192.000 320.000 C 191.560 320.000,191.245 319.775,191.300 319.500 C 191.360 319.201,190.878 318.950,190.100 318.875 C 189.284 318.796,188.800 318.532,188.800 318.165 C 188.800 317.843,188.350 317.409,187.800 317.200 C 187.250 316.991,186.800 316.635,186.800 316.410 C 186.800 316.184,186.260 316.000,185.600 316.000 C 184.667 316.000,184.400 315.822,184.400 315.200 C 184.400 314.748,184.133 314.400,183.787 314.400 C 183.451 314.400,183.071 314.130,182.945 313.800 C 182.818 313.470,182.290 313.200,181.771 313.200 C 181.238 313.200,180.642 312.853,180.400 312.400 C 180.165 311.960,179.708 311.600,179.386 311.600 C 179.064 311.600,178.800 311.330,178.800 311.000 C 178.800 310.670,178.461 310.400,178.047 310.400 C 177.630 310.400,177.200 310.043,177.084 309.600 C 176.958 309.117,176.538 308.800,176.025 308.800 C 175.557 308.800,175.071 308.530,174.945 308.200 C 174.818 307.870,174.374 307.600,173.957 307.600 C 173.467 307.600,173.200 307.318,173.200 306.800 C 173.200 306.267,172.933 306.000,172.400 306.000 C 171.956 306.000,171.600 305.733,171.600 305.400 C 171.600 305.070,171.330 304.800,171.000 304.800 C 170.670 304.800,170.400 304.524,170.400 304.187 C 170.400 303.851,170.085 303.460,169.700 303.320 C 169.315 303.180,168.406 302.466,167.681 301.733 C 166.955 301.000,166.106 300.400,165.795 300.400 C 165.483 300.400,165.035 300.040,164.800 299.600 C 164.565 299.160,164.108 298.800,163.786 298.800 C 163.464 298.800,163.200 298.530,163.200 298.200 C 163.200 297.870,162.930 297.600,162.600 297.600 C 162.270 297.600,162.000 297.313,162.000 296.963 C 162.000 296.612,161.640 296.231,161.200 296.116 C 160.760 296.001,160.400 295.658,160.400 295.353 C 160.400 295.049,160.142 294.800,159.827 294.800 C 159.512 294.800,159.140 294.440,159.000 294.000 C 158.860 293.560,158.488 293.200,158.173 293.200 C 157.858 293.200,157.600 292.930,157.600 292.600 C 157.600 292.267,157.244 292.000,156.800 292.000 C 156.267 292.000,156.000 291.733,156.000 291.200 C 156.000 290.756,155.733 290.400,155.400 290.400 C 155.070 290.400,154.800 290.130,154.800 289.800 C 154.800 289.467,154.444 289.200,154.000 289.200 C 153.467 289.200,153.200 288.933,153.200 288.400 C 153.200 287.956,152.933 287.600,152.600 287.600 C 152.270 287.600,152.000 287.330,152.000 287.000 C 152.000 286.667,151.644 286.400,151.200 286.400 C 150.667 286.400,150.400 286.133,150.400 285.600 C 150.400 285.160,150.211 284.800,149.979 284.800 C 149.748 284.800,149.375 284.274,149.151 283.632 C 148.927 282.990,148.487 282.365,148.172 282.245 C 147.857 282.124,147.600 281.749,147.600 281.413 C 147.600 281.076,147.342 280.800,147.027 280.800 C 146.712 280.800,146.340 280.440,146.200 280.000 C 146.060 279.560,145.688 279.200,145.373 279.200 C 145.058 279.200,144.800 278.924,144.800 278.587 C 144.800 278.251,144.530 277.871,144.200 277.745 C 143.870 277.618,143.600 277.264,143.600 276.957 C 143.600 276.651,143.240 276.400,142.800 276.400 C 142.267 276.400,142.000 276.133,142.000 275.600 C 142.000 275.160,141.809 274.800,141.576 274.800 C 141.343 274.800,141.264 274.620,141.400 274.400 C 141.536 274.180,141.457 274.000,141.224 274.000 C 140.991 274.000,140.800 273.732,140.800 273.403 C 140.800 273.075,140.440 272.582,140.000 272.307 C 139.560 272.032,139.200 271.581,139.200 271.304 C 139.200 271.027,138.930 270.800,138.600 270.800 C 138.270 270.800,138.000 270.532,138.000 270.203 C 138.000 269.875,137.640 269.382,137.200 269.107 C 136.760 268.832,136.400 268.184,136.400 267.666 C 136.400 267.062,136.114 266.650,135.600 266.516 C 135.160 266.401,134.800 266.058,134.800 265.753 C 134.800 265.449,134.530 265.200,134.200 265.200 C 133.870 265.200,133.600 264.855,133.600 264.433 C 133.600 263.241,133.169 262.400,132.557 262.400 C 132.251 262.400,132.000 262.040,132.000 261.600 C 132.000 261.156,131.733 260.800,131.400 260.800 C 131.066 260.800,130.800 260.444,130.800 259.996 C 130.800 259.554,130.440 258.884,130.000 258.507 C 129.560 258.130,129.200 257.601,129.200 257.331 C 129.200 257.061,128.935 256.691,128.611 256.510 C 128.287 256.329,127.956 255.748,127.876 255.218 C 127.743 254.348,126.895 253.703,125.785 253.628 C 125.557 253.613,125.342 253.975,125.307 254.434 M375.600 260.599 C 375.306 261.149,375.186 261.719,375.333 261.866 C 375.480 262.013,375.600 261.893,375.600 261.598 C 375.600 261.304,375.898 260.734,376.262 260.331 C 376.626 259.929,376.747 259.600,376.530 259.600 C 376.313 259.600,375.894 260.050,375.600 260.599 M132.418 265.546 C 132.796 265.900,132.540 265.859,131.687 265.429 C 130.919 265.041,130.488 264.582,130.648 264.322 C 130.840 264.012,131.060 264.048,131.379 264.439 C 131.631 264.748,132.098 265.246,132.418 265.546 M132.506 266.639 C 132.953 267.087,132.317 268.000,131.557 268.000 C 131.067 268.000,130.800 267.718,130.800 267.200 C 130.800 266.437,131.932 266.065,132.506 266.639 M368.860 281.466 C 368.219 282.161,368.399 282.495,369.160 282.025 C 369.456 281.842,369.631 281.509,369.549 281.286 C 369.463 281.050,369.172 281.126,368.860 281.466 M178.200 313.238 C 178.200 313.547,178.470 313.923,178.800 314.074 C 179.169 314.242,178.976 314.324,178.300 314.287 C 177.520 314.243,177.200 314.011,177.200 313.489 C 177.200 313.034,177.023 312.862,176.738 313.038 C 176.466 313.207,176.384 313.149,176.540 312.897 C 176.911 312.297,178.200 312.561,178.200 313.238 M181.372 315.645 C 180.994 316.257,180.571 316.033,180.571 315.222 C 180.571 314.637,180.698 314.549,181.081 314.867 C 181.362 315.100,181.493 315.450,181.372 315.645 M212.900 332.121 C 213.725 332.352,214.400 332.689,214.400 332.871 C 214.400 333.052,214.738 333.200,215.151 333.200 C 215.564 333.200,216.110 333.451,216.365 333.758 C 216.620 334.065,217.478 334.438,218.272 334.587 C 219.066 334.736,219.972 335.115,220.286 335.429 C 220.600 335.743,221.303 336.000,221.848 336.000 C 222.394 336.000,223.388 336.283,224.057 336.629 C 225.421 337.335,225.974 337.133,225.208 336.210 C 224.896 335.833,224.032 335.600,222.951 335.600 C 221.661 335.600,221.200 335.442,221.200 335.000 C 221.200 334.585,220.783 334.400,219.847 334.400 C 218.830 334.400,218.441 334.201,218.284 333.600 C 218.125 332.993,217.738 332.800,216.680 332.800 C 215.810 332.800,215.199 332.575,215.055 332.200 C 214.896 331.784,214.301 331.615,213.113 331.651 L 211.400 331.701 212.900 332.121 M228.109 338.000 C 228.669 338.440,229.233 338.800,229.363 338.800 C 229.493 338.800,229.600 338.440,229.600 338.000 C 229.600 337.370,229.333 337.200,228.346 337.200 L 227.092 337.200 228.109 338.000 M310.667 337.467 C 309.759 338.375,310.706 338.658,311.824 337.813 C 312.586 337.236,312.585 337.225,311.767 337.213 C 311.308 337.206,310.813 337.320,310.667 337.467 M232.400 338.755 C 232.400 339.155,233.289 340.000,233.709 340.000 C 234.367 340.000,233.801 338.676,233.100 338.573 C 232.715 338.517,232.400 338.599,232.400 338.755 M237.059 340.397 C 237.532 340.588,238.037 340.937,238.183 341.172 C 238.328 341.407,239.482 341.600,240.747 341.600 C 242.150 341.600,243.350 341.829,243.824 342.187 C 244.823 342.943,245.200 342.947,245.200 342.200 C 245.200 341.870,244.930 341.578,244.600 341.550 C 244.270 341.523,243.820 341.455,243.600 341.400 C 243.380 341.345,242.289 341.278,241.176 341.250 C 240.063 341.223,239.252 341.039,239.374 340.842 C 239.656 340.385,238.643 339.993,237.267 340.025 C 236.266 340.049,236.253 340.072,237.059 340.397 M302.178 340.356 C 301.555 340.978,302.043 341.686,302.700 341.114 C 303.085 340.779,303.670 340.404,304.000 340.282 C 304.330 340.160,304.095 340.086,303.478 340.119 C 302.860 340.151,302.275 340.258,302.178 340.356 M297.796 341.607 C 297.658 341.830,297.390 341.917,297.200 341.800 C 297.010 341.683,296.750 341.757,296.621 341.966 C 296.146 342.735,297.117 342.755,297.809 341.991 C 298.202 341.556,298.417 341.200,298.286 341.200 C 298.154 341.200,297.934 341.383,297.796 341.607 M249.870 343.087 C 250.569 343.175,251.356 343.506,251.619 343.823 C 251.883 344.140,252.614 344.400,253.245 344.400 C 254.354 344.400,254.369 344.373,253.707 343.600 C 253.160 342.961,252.578 342.813,250.811 342.864 C 249.448 342.903,249.087 342.989,249.870 343.087 M290.000 343.139 C 290.000 343.325,289.595 343.673,289.100 343.912 C 288.206 344.343,288.207 344.346,289.251 344.373 C 289.829 344.388,290.517 344.141,290.780 343.824 C 291.043 343.507,291.650 343.172,292.129 343.078 C 292.634 342.980,292.369 342.886,291.500 342.854 C 290.675 342.825,290.000 342.952,290.000 343.139 M255.900 344.289 C 256.615 344.378,257.785 344.378,258.500 344.289 C 259.215 344.201,258.630 344.128,257.200 344.128 C 255.770 344.128,255.185 344.201,255.900 344.289 M260.800 344.369 C 260.800 344.632,260.954 344.752,261.143 344.635 C 261.332 344.519,262.547 344.613,263.843 344.845 C 268.485 345.674,269.213 345.699,268.952 345.019 C 268.779 344.569,268.141 344.400,266.613 344.400 C 265.457 344.400,263.677 344.286,262.656 344.146 C 261.342 343.965,260.800 344.031,260.800 344.369 M280.000 344.406 C 279.578 344.682,279.815 344.723,280.800 344.542 C 282.525 344.225,282.851 343.998,281.567 344.006 C 281.035 344.009,280.330 344.189,280.000 344.406 M284.707 344.290 C 285.426 344.379,286.506 344.377,287.107 344.286 C 287.708 344.195,287.120 344.122,285.800 344.124 C 284.480 344.126,283.988 344.201,284.707 344.290 M275.200 344.915 C 275.200 345.629,276.644 345.670,277.222 344.973 C 277.618 344.496,277.488 344.400,276.449 344.400 C 275.697 344.400,275.200 344.605,275.200 344.915 M343.493 377.200 C 343.116 377.640,342.946 378.000,343.115 378.000 C 343.284 378.000,343.730 377.640,344.107 377.200 C 344.484 376.760,344.654 376.400,344.485 376.400 C 344.316 376.400,343.870 376.760,343.493 377.200 M339.500 379.757 C 338.769 380.312,338.584 380.800,339.104 380.800 C 339.271 380.800,339.632 380.440,339.907 380.000 C 340.489 379.068,340.444 379.040,339.500 379.757 M331.656 384.413 C 330.936 385.012,330.865 385.200,331.356 385.200 C 331.710 385.200,332.000 385.009,332.000 384.776 C 332.000 384.543,332.150 384.445,332.333 384.559 C 332.517 384.672,332.667 384.503,332.667 384.182 C 332.667 383.862,332.652 383.606,332.633 383.613 C 332.615 383.621,332.175 383.981,331.656 384.413 M321.200 389.546 C 321.200 389.810,320.795 390.189,320.300 390.388 C 319.410 390.745,319.409 390.750,320.257 390.775 C 321.060 390.798,321.873 389.740,321.409 389.276 C 321.294 389.161,321.200 389.282,321.200 389.546 M316.878 391.624 C 316.405 392.381,316.428 392.413,317.159 392.022 C 318.180 391.475,318.601 390.800,317.920 390.800 C 317.630 390.800,317.161 391.171,316.878 391.624 M314.000 392.400 C 313.670 392.613,313.580 392.808,313.800 392.834 C 314.020 392.859,313.750 393.024,313.200 393.200 C 312.257 393.502,312.251 393.523,313.086 393.560 C 313.592 393.583,314.155 393.257,314.400 392.800 C 314.884 391.896,314.843 391.855,314.000 392.400 M305.746 395.398 C 305.619 395.726,305.391 395.918,305.239 395.824 C 305.087 395.730,304.700 395.818,304.381 396.020 C 303.916 396.314,303.963 396.389,304.611 396.394 C 305.057 396.397,305.730 396.040,306.107 395.600 C 306.484 395.160,306.608 394.800,306.384 394.800 C 306.159 394.800,305.872 395.069,305.746 395.398 M299.855 397.000 C 299.685 397.445,298.975 397.601,297.113 397.603 C 295.278 397.605,294.276 397.820,293.400 398.400 L 292.200 399.195 293.500 399.197 C 294.390 399.199,294.800 399.011,294.800 398.600 C 294.800 398.134,295.330 398.000,297.174 398.000 C 299.694 398.000,301.600 397.487,301.600 396.810 C 301.600 396.168,300.112 396.330,299.855 397.000 M243.600 399.600 C 243.600 399.820,243.870 400.000,244.200 400.000 C 244.530 400.000,244.800 399.820,244.800 399.600 C 244.800 399.380,244.530 399.200,244.200 399.200 C 243.870 399.200,243.600 399.380,243.600 399.600 M286.000 399.600 C 286.000 399.820,286.270 400.000,286.600 400.000 C 286.930 400.000,287.200 399.820,287.200 399.600 C 287.200 399.380,286.930 399.200,286.600 399.200 C 286.270 399.200,286.000 399.380,286.000 399.600 " stroke="none" fill="#048cbf" fill-rule="evenodd"></path></g></svg>