<svg id="svg" version="1.1" xmlns="http://www.w3.org/2000/svg" xmlns:xlink="http://www.w3.org/1999/xlink" width="400" height="400" viewBox="0, 0, 400,400"><g id="svgg"><path id="path0" d="M243.656 228.223 L 243.555 356.445 242.699 359.444 C 239.385 371.060,232.548 379.582,222.368 384.789 C 220.712 385.635,219.482 386.328,219.634 386.328 C 221.204 386.328,325.032 356.278,327.614 355.077 C 338.098 350.198,345.745 341.157,348.924 329.883 L 349.805 326.758 349.906 213.379 L 350.008 100.000 296.882 100.000 L 243.757 100.000 243.656 228.223 M50.009 146.950 L 50.018 169.336 87.509 195.587 L 125.000 221.838 125.000 199.423 L 125.000 177.009 87.985 151.086 C 67.627 136.828,50.752 125.028,50.485 124.863 C 50.101 124.626,50.002 129.210,50.009 146.950 M121.875 306.520 C 108.435 308.767,101.011 322.947,106.872 335.176 C 108.963 339.540,111.781 342.032,119.727 346.545 C 128.519 351.538,172.749 376.697,178.711 380.095 L 183.398 382.768 184.053 375.466 C 184.413 371.450,184.726 364.824,184.747 360.742 C 184.769 356.660,184.968 351.650,185.189 349.609 C 185.572 346.071,186.109 332.538,186.579 314.551 L 186.796 306.250 154.824 306.303 C 137.239 306.332,122.412 306.430,121.875 306.520 " stroke="none" fill="#d93a08" fill-rule="evenodd"></path><path id="path1" d="M50.000 229.617 C 50.000 283.736,50.063 289.913,50.630 291.824 C 54.362 304.405,68.104 309.951,80.159 303.743 C 105.385 290.751,116.144 284.227,119.376 279.962 C 124.841 272.751,125.027 271.546,124.906 244.272 L 124.805 221.702 87.581 195.617 C 67.107 181.270,50.276 169.531,50.178 169.531 C 50.080 169.531,50.000 196.570,50.000 229.617 M117.145 307.560 C 113.726 308.967,110.344 311.587,108.501 314.258 C 108.056 314.902,108.593 314.441,109.694 313.232 C 112.054 310.641,114.766 308.815,118.097 307.577 C 119.423 307.085,120.244 306.676,119.922 306.670 C 119.600 306.664,118.350 307.065,117.145 307.560 M106.621 317.225 C 106.172 318.106,105.872 318.893,105.954 318.975 C 106.036 319.056,106.485 318.336,106.952 317.374 C 108.017 315.183,107.729 315.054,106.621 317.225 M109.375 339.575 C 109.375 339.643,109.946 340.214,110.645 340.845 L 111.914 341.992 110.767 340.723 C 109.697 339.539,109.375 339.274,109.375 339.575 " stroke="none" fill="#be467a" fill-rule="evenodd"></path><path id="path2" d="M220.992 14.636 C 231.236 19.443,238.911 28.525,242.458 40.039 L 243.541 43.555 243.662 71.777 L 243.784 100.000 296.919 100.000 L 350.054 100.000 349.911 86.230 C 349.719 67.697,348.061 62.249,339.953 53.490 C 333.866 46.916,329.610 44.732,314.580 40.469 C 305.327 37.844,285.271 32.158,265.039 26.424 C 258.594 24.597,247.959 21.585,241.406 19.729 C 234.854 17.874,227.066 15.665,224.101 14.819 C 217.584 12.960,217.396 12.949,220.992 14.636 " stroke="none" fill="#ef8804" fill-rule="evenodd"></path><path id="path3" d="M154.661 33.237 C 154.139 33.638,153.562 33.971,153.380 33.976 C 153.036 33.985,146.530 37.672,96.721 66.089 C 62.575 85.570,61.121 86.564,56.401 93.654 C 51.676 100.751,50.312 105.630,50.094 116.220 L 49.925 124.433 87.365 150.653 L 124.805 176.872 125.037 156.503 C 125.297 133.711,125.323 133.491,128.362 127.707 C 132.213 120.377,136.608 117.094,148.167 112.908 C 151.646 111.649,163.018 107.536,173.438 103.769 C 183.857 100.003,199.238 94.437,207.617 91.402 C 215.996 88.367,223.906 85.521,225.195 85.079 C 226.484 84.636,227.817 84.033,228.157 83.738 C 228.496 83.443,228.894 83.288,229.040 83.393 C 229.187 83.498,229.084 83.340,228.813 83.041 C 227.734 81.852,157.172 32.688,156.419 32.600 C 155.975 32.549,155.184 32.835,154.661 33.237 M186.579 314.551 C 186.109 332.538,185.572 346.071,185.189 349.609 C 184.968 351.650,184.781 356.484,184.775 360.352 C 184.768 364.219,184.502 370.195,184.183 373.633 C 183.494 381.058,183.446 383.341,183.984 383.008 C 184.199 382.875,184.375 382.933,184.375 383.138 C 184.375 383.342,184.814 383.619,185.352 383.754 C 185.889 383.889,186.328 384.182,186.328 384.405 C 186.328 384.629,186.504 384.703,186.719 384.570 C 186.934 384.438,187.109 384.525,187.109 384.766 C 187.109 385.006,187.285 385.094,187.500 384.961 C 187.715 384.828,187.891 384.906,187.891 385.133 C 187.891 385.361,188.022 385.506,188.184 385.457 C 188.345 385.407,189.274 385.756,190.249 386.233 C 197.018 389.540,214.443 389.801,218.245 386.651 C 218.504 386.437,218.899 386.374,219.124 386.513 C 219.348 386.651,219.531 386.596,219.531 386.389 C 219.531 386.183,220.070 385.826,220.729 385.597 C 223.678 384.568,228.436 381.289,231.851 377.930 C 234.965 374.868,238.839 370.071,237.560 370.861 C 236.747 371.364,236.992 351.553,237.920 341.797 C 238.359 337.178,238.871 328.125,239.057 321.680 C 239.243 315.234,239.520 309.126,239.672 308.105 L 239.950 306.250 213.373 306.250 L 186.796 306.250 186.579 314.551 M243.466 353.125 C 243.466 354.092,243.542 354.487,243.635 354.004 C 243.728 353.521,243.728 352.729,243.635 352.246 C 243.542 351.763,243.466 352.158,243.466 353.125 M238.477 369.141 C 238.143 369.785,237.958 370.313,238.066 370.313 C 238.173 370.313,238.534 369.785,238.867 369.141 C 239.200 368.496,239.385 367.969,239.278 367.969 C 239.170 367.969,238.810 368.496,238.477 369.141 " stroke="none" fill="#a1090c" fill-rule="evenodd"></path><path id="path4" d="M196.727 11.545 C 190.132 12.855,189.636 13.095,167.260 25.781 C 155.904 32.220,155.259 32.634,156.543 32.658 C 157.106 32.669,226.899 81.257,228.965 83.077 C 229.398 83.458,229.695 83.508,229.867 83.229 C 230.009 83.000,230.412 82.813,230.764 82.813 C 231.116 82.813,234.196 81.812,237.609 80.589 L 243.814 78.365 243.657 61.546 C 243.500 44.770,243.497 44.717,242.453 40.820 C 239.106 28.335,230.753 18.729,219.192 14.067 C 217.553 13.406,215.922 12.705,215.570 12.510 C 212.964 11.070,201.956 10.506,196.727 11.545 M121.167 305.736 C 118.295 306.727,117.448 307.350,119.945 306.634 C 120.796 306.390,142.918 306.250,180.617 306.250 L 239.950 306.250 239.672 308.105 C 239.518 309.126,239.247 315.146,239.069 321.484 C 238.890 327.822,238.373 336.970,237.920 341.813 C 237.273 348.726,237.118 352.838,237.200 360.953 L 237.305 371.289 238.724 368.750 C 239.505 367.354,240.616 364.894,241.192 363.284 C 243.496 356.845,243.458 357.368,243.639 329.980 L 243.805 304.688 183.914 304.718 L 124.023 304.749 121.167 305.736 M350.000 315.056 C 350.000 335.658,343.492 347.487,328.103 354.851 C 324.903 356.382,236.836 381.965,214.844 387.752 C 206.930 389.835,197.861 389.329,190.536 386.396 C 187.912 385.345,121.711 348.158,114.180 343.504 C 106.555 338.792,102.729 329.146,105.213 320.898 C 105.554 319.767,105.608 319.253,105.342 319.677 C 105.089 320.080,104.486 321.013,104.000 321.751 C 99.191 329.060,98.495 341.307,102.439 349.219 C 104.926 354.207,110.695 359.524,117.497 363.097 C 119.582 364.192,122.520 365.851,124.023 366.782 C 125.527 367.714,127.285 368.721,127.930 369.020 C 128.574 369.318,129.805 369.987,130.664 370.505 C 131.523 371.023,132.490 371.570,132.813 371.720 C 133.135 371.871,133.676 372.231,134.015 372.521 C 134.355 372.810,136.887 374.199,139.642 375.606 C 142.398 377.013,145.548 378.750,146.643 379.467 C 147.737 380.183,150.039 381.518,151.758 382.433 C 153.477 383.348,155.828 384.698,156.983 385.434 C 158.138 386.170,160.514 387.514,162.263 388.422 C 164.012 389.330,166.419 390.719,167.610 391.510 C 168.802 392.301,170.557 393.315,171.510 393.762 C 173.305 394.605,174.057 395.032,179.218 398.145 L 182.295 400.000 208.334 400.000 C 232.913 400.000,234.498 399.958,236.620 399.254 C 237.856 398.844,239.922 398.214,241.211 397.854 C 242.500 397.494,244.697 396.865,246.094 396.458 C 247.490 396.050,249.471 395.516,250.495 395.271 C 251.519 395.026,252.452 394.672,252.569 394.483 C 252.685 394.295,253.254 394.141,253.832 394.141 C 254.410 394.141,255.938 393.795,257.227 393.373 C 262.067 391.788,264.723 391.016,265.334 391.016 C 265.681 391.016,266.460 390.812,267.064 390.562 C 268.515 389.964,272.753 388.749,275.180 388.235 C 276.246 388.010,277.565 387.597,278.110 387.318 C 278.655 387.039,279.893 386.682,280.859 386.523 C 281.826 386.365,283.057 386.017,283.594 385.750 C 284.131 385.483,285.325 385.149,286.248 385.008 C 287.170 384.867,288.225 384.584,288.591 384.380 C 289.253 384.011,292.515 383.093,295.508 382.433 C 296.367 382.244,297.598 381.869,298.242 381.601 C 298.887 381.333,300.293 380.902,301.367 380.644 C 302.441 380.386,303.848 379.992,304.492 379.768 C 305.137 379.543,306.455 379.162,307.422 378.920 C 308.389 378.678,310.410 378.122,311.914 377.686 C 313.418 377.249,315.695 376.630,316.974 376.310 C 318.254 375.990,319.484 375.610,319.709 375.465 C 319.933 375.319,320.820 375.000,321.680 374.755 C 322.539 374.510,323.857 374.093,324.609 373.827 C 332.242 371.132,332.300 371.105,336.914 368.064 C 343.095 363.991,349.118 357.089,351.733 351.083 C 357.618 337.567,358.684 317.477,353.758 312.920 C 352.966 312.188,352.734 311.601,352.734 310.331 C 352.734 307.745,351.531 305.469,350.163 305.469 C 350.074 305.469,350.000 309.783,350.000 315.056 M115.918 307.645 C 115.327 307.966,114.844 308.315,114.844 308.421 C 114.844 308.527,115.327 308.370,115.918 308.071 C 116.509 307.773,117.256 307.431,117.578 307.311 C 118.099 307.117,118.099 307.091,117.578 307.078 C 117.256 307.069,116.509 307.325,115.918 307.645 " stroke="none" fill="#790404" fill-rule="evenodd"></path></g></svg>