<svg id="svg" version="1.1" xmlns="http://www.w3.org/2000/svg" xmlns:xlink="http://www.w3.org/1999/xlink" width="400" height="400" viewBox="0, 0, 400,400"><g id="svgg"><path id="path0" d="M141.573 99.725 C 135.123 102.258,131.456 105.996,129.924 111.600 C 128.974 115.074,129.074 167.213,130.024 164.000 C 130.307 163.046,130.322 163.042,130.360 163.900 L 130.400 164.800 199.400 164.800 L 268.400 164.800 268.400 138.871 C 268.400 115.743,268.328 112.730,267.734 110.971 C 266.348 106.867,263.437 103.628,259.253 101.538 L 256.600 100.213 225.400 99.939 C 163.076 99.392,142.555 99.339,141.573 99.725 M60.600 200.098 C 58.717 200.747,56.800 201.752,56.800 202.091 C 56.800 202.261,56.569 202.400,56.287 202.400 C 55.023 202.400,50.000 208.601,50.000 210.162 C 50.000 210.513,49.840 210.800,49.644 210.800 C 48.925 210.800,48.842 214.424,48.824 246.400 C 48.806 278.172,48.991 287.038,49.636 285.388 C 49.900 284.712,49.948 284.699,49.972 285.300 C 49.999 285.964,53.554 286.000,118.800 286.000 L 187.600 286.000 187.604 283.300 C 187.607 281.815,187.791 266.157,188.014 248.505 C 188.286 226.929,188.287 215.590,188.016 213.907 C 187.153 208.549,183.371 203.567,178.400 201.242 L 176.200 200.213 149.600 199.956 C 107.606 199.551,61.978 199.624,60.600 200.098 " stroke="none" fill="#f7e078" fill-rule="evenodd"></path><path id="path1" d="M268.565 122.200 C 268.566 126.160,268.626 127.726,268.698 125.680 C 268.771 123.634,268.771 120.394,268.698 118.480 C 268.624 116.566,268.565 118.240,268.565 122.200 M129.279 172.637 C 129.236 181.677,129.318 191.526,129.461 194.525 L 129.723 199.976 152.961 200.088 L 176.200 200.200 178.400 201.245 C 181.097 202.526,184.158 205.191,185.669 207.573 C 186.291 208.554,186.800 209.168,186.800 208.938 C 186.800 207.881,182.139 202.400,181.240 202.400 C 180.998 202.400,180.800 202.220,180.800 202.000 C 180.800 201.736,195.667 201.600,224.600 201.600 L 268.400 201.600 268.400 183.200 L 268.400 164.800 199.428 164.800 L 130.456 164.800 130.282 163.900 C 130.115 163.033,130.104 163.036,129.975 164.000 C 129.902 164.550,129.733 163.020,129.600 160.600 C 129.462 158.087,129.324 163.250,129.279 172.637 M187.304 211.000 C 187.541 211.769,187.795 212.338,187.870 212.264 C 188.121 212.012,187.503 209.600,187.187 209.600 C 187.016 209.600,187.068 210.230,187.304 211.000 M188.305 220.825 C 188.476 231.652,188.687 232.587,188.706 222.600 C 188.714 218.200,188.598 214.161,188.448 213.625 C 188.298 213.088,188.234 216.328,188.305 220.825 M48.660 284.400 C 48.801 348.383,49.026 366.044,49.633 361.000 L 49.874 359.000 49.937 361.300 L 50.000 363.600 118.741 363.600 L 187.482 363.600 187.740 337.100 C 187.882 322.525,188.066 292.870,188.149 271.200 C 188.260 242.304,188.223 237.292,188.008 252.400 C 187.847 263.730,187.689 275.925,187.657 279.500 L 187.600 286.000 118.800 286.000 C 53.554 286.000,49.999 285.964,49.972 285.300 C 49.948 284.701,49.894 284.716,49.600 285.400 C 49.046 286.689,49.061 287.286,48.779 251.000 C 48.602 228.218,48.561 239.753,48.660 284.400 " stroke="none" fill="#f4d652" fill-rule="evenodd"></path><path id="path2" d="M222.200 0.369 C 219.173 1.110,214.203 5.445,213.387 8.056 C 213.225 8.575,212.981 9.090,212.846 9.200 C 211.389 10.384,211.404 9.970,211.290 54.465 L 211.179 97.529 183.975 97.665 C 163.899 97.764,156.695 97.922,156.484 98.264 C 156.326 98.519,155.658 98.793,154.999 98.874 C 154.339 98.954,176.631 99.165,204.536 99.344 C 259.440 99.695,256.494 99.570,260.635 101.716 C 264.462 103.699,268.032 108.979,268.806 113.800 C 269.053 115.338,269.052 143.482,268.803 192.200 C 268.590 234.000,268.412 272.205,268.408 277.100 L 268.400 286.000 228.665 286.000 L 188.930 286.000 188.667 310.900 C 188.522 324.595,188.283 350.245,188.136 367.900 L 187.869 400.000 263.115 400.000 C 337.030 400.000,342.400 399.916,342.400 398.767 C 342.400 398.565,342.588 398.400,342.817 398.400 C 343.716 398.400,348.800 393.494,348.800 392.626 C 348.800 392.282,348.966 392.000,349.168 392.000 C 349.371 392.000,349.655 391.460,349.800 390.800 C 349.945 390.140,350.229 389.600,350.432 389.600 C 350.634 389.600,350.800 388.981,350.800 388.224 C 350.800 387.467,350.980 386.736,351.200 386.600 C 351.755 386.257,351.755 13.743,351.200 13.400 C 350.980 13.264,350.800 12.533,350.800 11.776 C 350.800 11.019,350.634 10.400,350.432 10.400 C 350.229 10.400,349.945 9.860,349.800 9.200 C 349.655 8.540,349.371 8.000,349.168 8.000 C 348.966 8.000,348.800 7.718,348.800 7.374 C 348.800 6.398,344.705 2.566,341.988 1.000 C 340.548 0.170,225.490 -0.436,222.200 0.369 M48.400 385.376 C 48.400 385.913,48.547 386.444,48.728 386.555 C 48.908 386.667,48.977 386.227,48.882 385.579 C 48.672 384.149,48.400 384.035,48.400 385.376 M57.600 398.762 C 57.600 399.094,59.241 399.692,59.484 399.449 C 59.550 399.384,59.153 399.125,58.602 398.874 C 58.051 398.623,57.600 398.572,57.600 398.762 " stroke="none" fill="#e3aa0e" fill-rule="evenodd"></path><path id="path3" d="M166.700 99.500 C 174.895 99.560,188.305 99.560,196.500 99.500 C 204.695 99.439,197.990 99.390,181.600 99.390 C 165.210 99.390,158.505 99.439,166.700 99.500 M217.000 99.884 C 228.279 100.145,256.716 100.177,256.087 99.928 C 255.709 99.779,245.680 99.682,233.800 99.715 C 221.920 99.747,214.360 99.823,217.000 99.884 M261.400 102.453 C 262.060 102.947,263.383 104.149,264.340 105.124 C 265.298 106.100,265.885 106.532,265.645 106.084 C 265.149 105.157,262.199 102.528,261.000 101.945 C 260.560 101.731,260.740 101.960,261.400 102.453 M268.595 120.600 C 268.598 125.220,268.555 145.335,268.500 165.300 L 268.400 201.600 224.600 201.600 C 195.667 201.600,180.800 201.736,180.800 202.000 C 180.800 202.220,181.014 202.400,181.276 202.400 C 181.956 202.400,185.373 206.197,186.255 207.933 C 186.665 208.740,187.105 209.490,187.234 209.600 C 188.719 210.867,188.786 213.724,188.391 259.231 C 188.180 283.524,187.894 316.945,187.755 333.500 L 187.503 363.600 118.752 363.600 L 50.000 363.600 49.937 361.300 L 49.874 359.000 49.600 361.000 C 49.449 362.100,49.272 362.910,49.206 362.800 C 49.140 362.690,48.967 349.460,48.822 333.400 L 48.558 304.200 48.479 343.833 C 48.424 371.248,48.535 384.196,48.840 385.833 C 49.847 391.261,53.056 395.778,57.800 398.449 L 60.200 399.800 124.035 399.905 L 187.869 400.010 188.136 367.905 C 188.283 350.247,188.522 324.595,188.667 310.900 L 188.930 286.000 228.665 286.000 L 268.400 286.000 268.407 277.300 C 268.412 272.515,268.577 234.220,268.776 192.200 C 268.975 150.180,269.014 114.990,268.863 114.000 C 268.712 113.010,268.591 115.980,268.595 120.600 M129.342 196.200 C 129.341 198.180,129.408 199.040,129.492 198.112 C 129.576 197.184,129.577 195.564,129.495 194.512 C 129.412 193.460,129.343 194.220,129.342 196.200 " stroke="none" fill="#eec64c" fill-rule="evenodd"></path></g></svg>