<svg id="svg" version="1.1" xmlns="http://www.w3.org/2000/svg" xmlns:xlink="http://www.w3.org/1999/xlink" width="400" height="368.37209302325584" viewBox="0, 0, 400,368.37209302325584"><g id="svgg"><path id="path0" d="M0.000 184.332 L 0.000 368.664 200.000 368.664 L 400.000 368.664 400.000 184.332 L 400.000 0.000 200.000 0.000 L 0.000 0.000 0.000 184.332 M233.548 19.177 C 309.777 24.672,372.996 81.983,383.977 155.547 C 384.293 157.660,384.613 159.490,384.689 159.613 C 385.164 160.382,386.045 175.198,386.060 182.673 C 386.080 192.697,385.460 200.010,383.794 209.401 C 382.822 214.878,382.257 217.438,380.301 225.212 C 375.300 245.089,361.949 270.186,347.331 287.189 C 336.313 300.005,323.212 311.280,309.124 320.072 C 305.972 322.040,297.247 327.005,296.943 327.005 C 296.864 327.005,295.259 327.761,293.377 328.686 C 290.200 330.247,283.102 333.256,278.341 335.060 C 272.503 337.273,259.882 340.745,254.113 341.725 C 252.941 341.924,250.571 342.336,248.848 342.641 C 234.359 345.205,213.201 345.207,198.082 342.647 C 196.298 342.345,193.880 341.932,192.707 341.730 C 182.809 340.024,162.933 333.643,155.967 329.935 C 155.650 329.767,153.318 328.606,150.783 327.356 C 133.581 318.873,115.528 305.279,103.519 291.767 C 101.552 289.553,99.344 287.078,98.613 286.267 C 97.882 285.456,95.622 282.594,93.591 279.908 L 89.898 275.023 59.235 275.018 C 25.853 275.012,25.894 275.014,22.056 272.925 C 18.451 270.963,15.298 266.681,14.424 262.562 C 13.833 259.780,13.834 103.720,14.424 100.940 C 15.442 96.148,18.624 92.187,23.226 89.986 L 25.991 88.664 57.978 88.560 L 89.966 88.456 91.940 85.795 C 104.583 68.756,119.823 54.559,137.063 43.759 C 139.554 42.198,141.652 40.922,141.726 40.922 C 141.800 40.922,142.914 40.284,144.202 39.505 C 167.812 25.220,203.797 17.032,233.548 19.177 M61.198 181.751 L 61.198 239.631 72.255 239.631 L 83.312 239.631 83.407 218.341 L 83.502 197.051 98.986 196.854 C 115.821 196.640,116.997 196.509,124.055 194.054 C 142.497 187.638,152.606 171.283,149.662 152.627 C 147.374 138.121,136.974 128.365,119.957 124.760 L 115.758 123.871 88.478 123.871 L 61.198 123.871 61.198 181.751 M113.334 142.437 C 122.534 145.081,126.918 151.796,126.367 162.401 C 126.054 168.440,123.810 171.545,117.051 175.289 C 112.120 178.020,108.785 178.483,94.931 178.355 L 83.502 178.249 83.407 159.877 L 83.311 141.506 97.232 141.658 C 108.913 141.786,111.503 141.911,113.334 142.437 " stroke="none" fill="#f4f3f3" fill-rule="evenodd"></path><path id="path1" d="M98.860 78.066 C 97.434 79.550,97.008 80.080,93.010 85.346 L 90.491 88.664 58.610 88.849 C 23.402 89.053,25.290 88.921,21.366 91.439 C 17.918 93.652,15.591 97.222,14.764 101.567 C 13.923 105.989,14.406 261.896,15.268 264.147 C 17.247 269.317,21.020 272.695,26.372 274.089 C 29.621 274.936,184.890 274.949,188.137 274.103 C 194.049 272.563,198.235 268.317,199.616 262.457 C 200.561 258.449,200.459 103.647,199.510 100.223 C 198.287 95.816,195.289 92.095,191.624 90.438 C 190.756 90.046,189.631 89.539,189.124 89.311 C 187.243 88.467,198.247 88.728,200.742 89.587 C 205.328 91.165,208.246 93.743,210.262 97.998 L 211.429 100.461 211.747 174.562 C 212.093 255.105,211.858 296.299,211.045 297.409 C 210.590 298.032,208.041 298.065,160.352 298.065 L 110.138 298.065 112.857 300.595 C 152.818 337.785,208.920 352.419,261.935 339.480 C 275.884 336.076,291.187 329.988,303.041 323.128 C 304.359 322.365,305.775 321.557,306.188 321.331 C 323.791 311.714,345.642 290.914,358.322 271.705 C 359.995 269.171,361.679 266.647,362.064 266.098 C 362.450 265.548,362.765 265.023,362.765 264.930 C 362.765 264.837,363.535 263.462,364.475 261.874 C 366.367 258.681,371.128 248.955,373.223 244.007 C 377.775 233.252,380.964 222.401,383.231 209.954 C 384.394 203.562,385.991 187.980,385.991 183.013 L 385.991 181.753 304.608 181.660 L 223.226 181.567 223.041 134.562 C 222.857 87.584,222.857 87.557,222.073 85.899 C 220.438 82.438,216.782 79.193,212.805 77.674 L 210.691 76.866 155.450 76.765 L 100.208 76.663 98.860 78.066 M119.078 124.095 C 134.998 126.799,146.027 136.161,149.522 149.939 C 154.428 169.280,143.266 188.363,123.296 194.772 C 116.258 197.031,110.719 197.596,95.576 197.600 L 83.687 197.604 83.687 218.807 L 83.687 240.011 72.166 239.913 L 60.645 239.816 60.645 181.751 L 60.645 123.687 84.608 123.478 C 110.960 123.249,114.463 123.311,119.078 124.095 M83.687 159.816 L 83.687 177.696 96.328 177.696 C 110.173 177.696,111.175 177.580,115.760 175.446 C 124.698 171.287,127.872 164.540,125.388 154.979 C 122.655 144.457,117.014 141.935,96.207 141.935 L 83.687 141.935 83.687 159.816 M99.908 287.053 C 99.908 287.248,100.613 288.064,101.475 288.865 L 103.041 290.323 101.567 288.669 C 100.756 287.760,100.051 286.944,100.000 286.857 C 99.949 286.769,99.908 286.857,99.908 287.053 M104.316 292.074 C 105.844 293.701,106.175 293.994,106.175 293.717 C 106.175 293.658,105.387 292.870,104.424 291.966 L 102.673 290.323 104.316 292.074 " stroke="none" fill="#c94626" fill-rule="evenodd"></path><path id="path2" d="M210.323 19.528 C 170.945 23.100,136.031 39.423,108.198 67.273 C 103.188 72.287,95.757 80.755,96.079 81.084 C 96.167 81.173,96.517 80.848,96.857 80.363 C 97.197 79.877,98.090 78.846,98.842 78.072 L 100.208 76.663 155.450 76.765 L 210.691 76.866 212.805 77.674 C 216.782 79.193,220.438 82.438,222.073 85.899 C 222.857 87.557,222.857 87.584,223.041 134.562 L 223.226 181.567 304.608 181.660 L 385.991 181.753 385.989 180.001 C 385.966 152.226,376.591 120.571,361.015 95.674 C 340.943 63.588,309.894 39.179,274.101 27.346 C 263.869 23.963,254.907 21.954,243.134 20.403 C 235.486 19.396,217.164 18.907,210.323 19.528 M92.745 85.198 C 91.184 87.245,90.083 88.812,90.299 88.678 C 90.515 88.545,91.714 87.077,92.963 85.416 C 94.213 83.755,95.394 82.189,95.589 81.935 C 95.784 81.682,95.862 81.475,95.763 81.475 C 95.665 81.475,94.307 83.150,92.745 85.198 M109.408 123.401 C 110.070 123.483,111.066 123.481,111.620 123.397 C 112.173 123.313,111.631 123.246,110.415 123.248 C 109.198 123.250,108.745 123.319,109.408 123.401 M60.631 123.963 C 60.535 124.217,60.498 150.387,60.550 182.120 L 60.645 239.816 72.166 239.824 L 83.687 239.832 72.256 239.726 L 60.825 239.621 60.919 181.562 C 60.971 149.629,60.967 123.502,60.910 123.502 C 60.853 123.502,60.727 123.710,60.631 123.963 M89.516 141.843 C 92.824 141.904,98.133 141.904,101.314 141.842 C 104.494 141.781,101.788 141.731,95.300 141.731 C 88.811 141.731,86.209 141.782,89.516 141.843 M126.188 161.659 C 126.191 162.673,126.263 163.044,126.347 162.483 C 126.432 161.923,126.430 161.094,126.342 160.640 C 126.255 160.187,126.186 160.645,126.188 161.659 M150.132 164.055 C 150.132 164.765,150.207 165.055,150.300 164.700 C 150.393 164.346,150.393 163.765,150.300 163.410 C 150.207 163.055,150.132 163.346,150.132 164.055 M89.677 177.972 C 93.074 178.033,98.631 178.033,102.028 177.972 C 105.424 177.911,102.645 177.861,95.853 177.861 C 89.060 177.861,86.281 177.911,89.677 177.972 M385.733 188.018 C 385.733 189.134,385.802 189.590,385.886 189.032 C 385.971 188.475,385.971 187.562,385.886 187.005 C 385.802 186.447,385.733 186.903,385.733 188.018 M385.368 193.364 C 385.370 194.581,385.439 195.034,385.521 194.371 C 385.603 193.709,385.601 192.713,385.517 192.159 C 385.433 191.605,385.366 192.147,385.368 193.364 M384.990 197.419 C 384.993 198.433,385.065 198.804,385.149 198.244 C 385.234 197.683,385.232 196.854,385.144 196.400 C 385.057 195.947,384.987 196.406,384.990 197.419 M89.862 197.511 C 93.359 197.572,99.083 197.572,102.581 197.511 C 106.078 197.450,103.217 197.401,96.221 197.401 C 89.226 197.401,86.364 197.450,89.862 197.511 M384.602 200.922 C 384.602 201.631,384.678 201.922,384.770 201.567 C 384.863 201.212,384.863 200.631,384.770 200.276 C 384.678 199.922,384.602 200.212,384.602 200.922 M383.243 209.602 C 383.102 210.542,383.062 211.387,383.154 211.479 C 383.246 211.572,383.437 210.878,383.578 209.937 C 383.719 208.997,383.759 208.152,383.667 208.060 C 383.574 207.968,383.384 208.662,383.243 209.602 M381.403 218.454 C 381.264 219.194,381.224 219.873,381.314 219.963 C 381.405 220.053,381.592 219.521,381.731 218.781 C 381.869 218.042,381.909 217.362,381.819 217.272 C 381.729 217.182,381.542 217.714,381.403 218.454 M379.766 224.921 C 379.540 225.570,379.367 226.283,379.381 226.507 C 379.395 226.730,379.645 226.263,379.935 225.470 C 380.226 224.677,380.399 223.963,380.321 223.884 C 380.242 223.806,379.992 224.272,379.766 224.921 M372.601 245.363 C 371.735 247.179,371.856 247.488,372.762 245.772 C 373.173 244.992,373.444 244.289,373.365 244.209 C 373.285 244.130,372.941 244.649,372.601 245.363 M370.945 249.050 C 369.835 251.336,369.958 251.656,371.102 249.457 C 371.614 248.474,371.969 247.607,371.892 247.530 C 371.815 247.453,371.389 248.137,370.945 249.050 M359.219 270.323 C 357.950 272.476,357.867 272.659,358.513 271.889 C 359.262 270.997,359.908 269.862,359.666 269.862 C 359.570 269.862,359.368 270.069,359.219 270.323 M356.866 273.917 C 356.433 274.525,356.162 275.023,356.263 275.023 C 356.365 275.023,356.802 274.525,357.235 273.917 C 357.668 273.309,357.940 272.811,357.838 272.811 C 357.737 272.811,357.300 273.309,356.866 273.917 M353.497 278.618 C 352.436 279.898,351.987 280.553,352.169 280.553 C 352.271 280.553,352.798 279.972,353.339 279.263 C 354.344 277.946,354.465 277.449,353.497 278.618 M348.524 284.870 C 347.536 286.027,346.920 286.856,347.156 286.712 C 347.671 286.396,350.741 282.765,350.494 282.765 C 350.398 282.765,349.512 283.712,348.524 284.870 M342.360 291.954 C 341.214 293.156,340.276 294.262,340.276 294.412 C 340.276 294.562,340.326 294.616,340.387 294.531 C 340.449 294.447,341.469 293.341,342.656 292.074 C 343.842 290.806,344.730 289.770,344.628 289.770 C 344.527 289.770,343.506 290.753,342.360 291.954 M108.203 296.406 C 109.815 298.028,111.218 299.355,111.319 299.355 C 111.420 299.355,110.184 298.028,108.571 296.406 C 106.959 294.783,105.556 293.456,105.455 293.456 C 105.354 293.456,106.590 294.783,108.203 296.406 M338.232 296.498 L 336.774 298.065 338.341 296.607 C 339.798 295.252,340.077 294.931,339.798 294.931 C 339.738 294.931,339.033 295.636,338.232 296.498 M332.705 301.659 L 330.876 303.594 332.811 301.765 C 333.876 300.759,334.747 299.888,334.747 299.830 C 334.747 299.554,334.405 299.860,332.705 301.659 M329.378 304.608 L 328.295 305.806 329.493 304.724 C 330.152 304.128,330.691 303.589,330.691 303.525 C 330.691 303.241,330.387 303.491,329.378 304.608 M325.566 307.649 C 322.736 310.039,321.821 310.989,323.871 309.409 C 325.736 307.971,328.353 305.653,328.111 305.654 C 328.009 305.654,326.864 306.552,325.566 307.649 M320.737 311.566 C 319.453 312.692,319.452 312.694,320.634 311.907 C 321.287 311.473,321.919 310.960,322.038 310.766 C 322.394 310.191,322.099 310.372,320.737 311.566 M129.032 313.867 C 129.032 313.968,129.530 314.406,130.138 314.839 C 130.747 315.272,131.244 315.543,131.244 315.442 C 131.244 315.341,130.747 314.903,130.138 314.470 C 129.530 314.037,129.032 313.765,129.032 313.867 M316.498 314.687 L 315.392 315.637 316.590 314.844 C 317.249 314.408,317.788 313.980,317.788 313.892 C 317.788 313.616,317.632 313.712,316.498 314.687 M305.253 321.876 C 304.641 322.377,304.579 322.502,305.069 322.249 C 306.272 321.628,306.938 321.117,306.544 321.120 C 306.341 321.121,305.760 321.462,305.253 321.876 M143.410 323.115 C 143.410 323.216,143.908 323.556,144.516 323.871 C 145.124 324.186,145.622 324.360,145.622 324.259 C 145.622 324.157,145.124 323.817,144.516 323.502 C 143.908 323.188,143.410 323.013,143.410 323.115 M302.212 323.529 C 300.834 324.277,300.918 324.588,302.304 323.871 C 302.912 323.556,303.410 323.220,303.410 323.124 C 303.410 322.887,303.371 322.900,302.212 323.529 M295.576 327.030 C 294.816 327.431,294.194 327.842,294.194 327.943 C 294.194 328.107,297.105 326.746,297.481 326.406 C 297.905 326.022,296.798 326.385,295.576 327.030 M150.077 326.773 C 150.456 327.113,152.627 328.110,152.627 327.945 C 152.627 327.733,150.583 326.636,150.187 326.636 C 150.042 326.636,149.992 326.698,150.077 326.773 M288.295 330.507 C 287.788 330.797,287.539 331.034,287.742 331.034 C 287.945 331.034,288.525 330.797,289.032 330.507 C 289.539 330.217,289.788 329.980,289.585 329.980 C 289.382 329.980,288.802 330.217,288.295 330.507 M184.885 339.749 C 185.899 340.031,186.894 340.248,187.097 340.231 C 187.721 340.177,184.564 339.227,183.779 339.232 C 183.373 339.234,183.871 339.467,184.885 339.749 M260.092 339.908 C 259.153 340.312,260.122 340.312,261.382 339.908 C 262.123 339.671,262.160 339.611,261.567 339.602 C 261.161 339.596,260.498 339.734,260.092 339.908 M203.046 343.118 C 203.504 343.206,204.168 343.203,204.520 343.110 C 204.873 343.018,204.498 342.946,203.687 342.950 C 202.876 342.954,202.587 343.030,203.046 343.118 M240.737 343.226 C 238.895 343.614,240.785 343.630,242.949 343.245 C 244.446 342.978,244.482 342.950,243.318 342.952 C 242.608 342.953,241.447 343.076,240.737 343.226 M209.682 343.855 C 210.140 343.943,210.804 343.940,211.156 343.848 C 211.509 343.755,211.134 343.683,210.323 343.687 C 209.512 343.692,209.223 343.767,209.682 343.855 M235.857 343.855 C 236.315 343.943,236.979 343.940,237.331 343.848 C 237.684 343.755,237.309 343.683,236.498 343.687 C 235.687 343.692,235.398 343.767,235.857 343.855 M215.583 344.230 C 216.245 344.312,217.241 344.311,217.795 344.227 C 218.349 344.142,217.806 344.075,216.590 344.077 C 215.373 344.079,214.920 344.148,215.583 344.230 M229.223 344.230 C 229.886 344.312,230.881 344.311,231.435 344.227 C 231.989 344.142,231.447 344.075,230.230 344.077 C 229.014 344.079,228.561 344.148,229.223 344.230 " stroke="none" fill="#fb8b6b" fill-rule="evenodd"></path><path id="path3" d="M189.124 89.311 C 189.631 89.539,190.756 90.046,191.624 90.438 C 195.289 92.095,198.287 95.816,199.510 100.223 C 200.449 103.612,200.562 258.445,199.627 262.408 C 198.355 267.807,194.954 271.630,189.481 273.813 C 187.939 274.428,184.733 274.482,139.038 274.654 L 90.242 274.839 93.692 279.442 C 95.590 281.974,98.320 285.292,99.759 286.815 C 101.198 288.339,103.280 290.581,104.387 291.797 C 105.493 293.014,107.302 294.922,108.407 296.037 L 110.415 298.065 160.491 298.065 C 208.047 298.065,210.591 298.032,211.045 297.409 C 211.858 296.299,212.093 255.105,211.747 174.562 L 211.429 100.461 210.262 97.998 C 208.246 93.743,205.328 91.165,200.742 89.587 C 198.247 88.728,187.243 88.467,189.124 89.311 " stroke="none" fill="#81321f" fill-rule="evenodd"></path><path id="path4" d="M218.710 19.077 C 220.889 19.142,224.456 19.142,226.636 19.077 C 228.816 19.012,227.032 18.958,222.673 18.958 C 218.313 18.958,216.530 19.012,218.710 19.077 M211.152 19.431 C 211.608 19.519,212.355 19.519,212.811 19.431 C 213.267 19.343,212.894 19.271,211.982 19.271 C 211.069 19.271,210.696 19.343,211.152 19.431 M232.910 19.438 C 233.572 19.520,234.568 19.518,235.122 19.434 C 235.676 19.350,235.134 19.283,233.917 19.285 C 232.700 19.287,232.247 19.356,232.910 19.438 M206.544 19.793 C 206.899 19.886,207.479 19.886,207.834 19.793 C 208.189 19.701,207.899 19.625,207.189 19.625 C 206.479 19.625,206.189 19.701,206.544 19.793 M240.553 20.080 C 245.882 20.806,248.674 21.085,248.460 20.872 C 248.211 20.623,239.430 19.524,238.168 19.583 C 237.655 19.608,238.728 19.831,240.553 20.080 M200.184 20.376 C 198.866 20.582,197.954 20.809,198.157 20.880 C 198.359 20.951,200.101 20.780,202.028 20.498 C 203.954 20.217,204.866 19.990,204.055 19.994 C 203.244 19.998,201.502 20.170,200.184 20.376 M253.088 21.926 C 254.101 22.196,255.346 22.419,255.853 22.421 L 256.774 22.425 255.845 22.143 C 255.334 21.987,254.090 21.764,253.080 21.647 L 251.244 21.434 253.088 21.926 M190.599 22.120 C 189.360 22.517,190.699 22.517,192.258 22.120 C 193.252 21.867,193.270 21.838,192.442 21.832 C 191.935 21.828,191.106 21.957,190.599 22.120 M260.309 23.381 C 260.557 23.629,265.531 24.730,265.690 24.572 C 265.768 24.493,264.756 24.158,263.440 23.827 C 261.071 23.232,260.008 23.081,260.309 23.381 M182.673 23.963 C 181.733 24.367,182.703 24.367,183.963 23.963 C 184.704 23.726,184.740 23.666,184.147 23.657 C 183.742 23.651,183.078 23.789,182.673 23.963 M268.018 25.407 C 268.323 25.580,269.152 25.822,269.862 25.945 L 271.152 26.169 269.862 25.647 C 268.363 25.041,267.084 24.874,268.018 25.407 M174.562 26.346 C 173.138 26.998,173.801 27.008,175.484 26.359 C 176.194 26.086,176.525 25.857,176.221 25.851 C 175.917 25.845,175.171 26.068,174.562 26.346 M274.470 27.479 C 275.078 27.757,275.825 27.979,276.129 27.972 C 276.433 27.965,276.184 27.731,275.576 27.452 C 274.968 27.174,274.221 26.952,273.917 26.959 C 273.613 26.966,273.862 27.200,274.470 27.479 M279.263 29.088 C 280.074 29.469,281.152 29.882,281.659 30.006 C 282.166 30.130,281.916 29.924,281.104 29.547 C 280.293 29.171,279.214 28.758,278.708 28.630 C 278.202 28.501,278.452 28.708,279.263 29.088 M166.083 29.322 C 165.161 29.766,165.130 29.817,165.899 29.629 C 166.943 29.374,168.117 28.775,167.558 28.784 C 167.355 28.787,166.691 29.029,166.083 29.322 M283.502 30.724 C 284.009 31.010,284.839 31.354,285.346 31.488 L 286.267 31.732 285.346 31.211 C 284.839 30.925,284.009 30.581,283.502 30.447 L 282.581 30.203 283.502 30.724 M286.916 32.105 C 287.941 32.702,290.138 33.576,290.138 33.386 C 290.138 33.198,286.868 31.698,286.497 31.716 C 286.371 31.722,286.559 31.897,286.916 32.105 M157.051 32.995 C 156.544 33.285,156.295 33.522,156.498 33.522 C 156.700 33.522,157.281 33.285,157.788 32.995 C 158.295 32.706,158.544 32.469,158.341 32.469 C 158.138 32.469,157.558 32.706,157.051 32.995 M291.982 34.470 C 292.894 34.959,293.806 35.358,294.009 35.358 C 294.212 35.358,293.631 34.959,292.719 34.470 C 291.806 33.981,290.894 33.582,290.691 33.582 C 290.488 33.582,291.069 33.981,291.982 34.470 M150.323 36.154 C 149.562 36.556,148.940 36.966,148.940 37.067 C 148.940 37.231,151.852 35.870,152.227 35.531 C 152.652 35.147,151.544 35.509,150.323 36.154 M294.562 35.576 C 294.562 35.781,297.368 37.235,297.763 37.235 C 297.918 37.235,297.717 37.020,297.317 36.757 C 296.368 36.134,294.562 35.360,294.562 35.576 M298.249 37.404 C 298.249 37.506,298.912 37.927,299.724 38.341 C 300.535 38.755,301.198 39.010,301.198 38.909 C 301.198 38.808,300.535 38.386,299.724 37.972 C 298.912 37.559,298.249 37.303,298.249 37.404 M145.171 38.858 C 143.241 40.004,142.935 40.427,144.700 39.507 C 146.549 38.544,147.391 37.975,146.912 38.013 C 146.710 38.029,145.926 38.409,145.171 38.858 M301.935 39.454 C 302.240 39.666,304.230 40.880,306.359 42.151 C 308.488 43.421,310.722 44.784,311.322 45.180 C 311.923 45.575,312.296 45.708,312.152 45.474 C 311.869 45.014,304.780 40.682,302.673 39.681 C 301.963 39.344,301.631 39.242,301.935 39.454 M140.461 41.692 C 139.849 42.193,139.787 42.318,140.276 42.065 C 141.479 41.443,142.146 40.933,141.751 40.936 C 141.548 40.937,140.968 41.277,140.461 41.692 M136.342 44.167 C 134.386 45.442,132.936 46.602,134.194 45.887 C 135.746 45.003,138.618 43.089,138.618 42.938 C 138.618 42.685,138.616 42.686,136.342 44.167 M312.627 45.843 C 312.627 45.945,314.244 47.148,316.221 48.517 C 323.772 53.747,330.500 59.489,338.802 67.788 C 343.364 72.349,346.079 74.931,344.835 73.524 C 339.386 67.366,329.666 58.277,322.943 53.054 C 319.379 50.284,312.627 45.565,312.627 45.843 M131.152 47.587 C 128.348 49.576,128.421 49.844,131.244 47.926 C 133.131 46.645,133.777 46.083,133.364 46.083 C 133.313 46.083,132.318 46.760,131.152 47.587 M127.175 50.534 L 125.899 51.666 127.281 50.674 C 128.503 49.797,128.900 49.401,128.558 49.401 C 128.499 49.401,127.877 49.911,127.175 50.534 M122.581 54.050 L 121.106 55.369 122.673 54.197 C 124.021 53.189,124.508 52.703,124.147 52.724 C 124.097 52.727,123.392 53.324,122.581 54.050 M117.051 58.578 C 115.023 60.370,112.949 62.305,112.442 62.880 C 111.635 63.795,112.721 62.853,119.631 56.644 C 120.442 55.916,121.023 55.320,120.922 55.320 C 120.820 55.321,119.078 56.787,117.051 58.578 M108.010 67.005 L 104.885 70.230 108.111 67.105 C 109.885 65.386,111.336 63.934,111.336 63.879 C 111.336 63.611,110.913 64.009,108.010 67.005 M103.028 72.350 L 101.198 74.286 103.134 72.456 C 104.932 70.756,105.238 70.415,104.963 70.415 C 104.905 70.415,104.034 71.286,103.028 72.350 M98.766 77.143 C 95.788 80.658,95.726 80.737,95.921 80.737 C 96.021 80.737,97.215 79.410,98.572 77.788 C 99.930 76.166,100.968 74.839,100.880 74.839 C 100.791 74.839,99.840 75.876,98.766 77.143 M347.692 77.270 C 349.081 78.814,353.375 84.439,356.109 88.295 C 358.592 91.798,359.662 93.092,358.546 91.244 C 356.492 87.843,348.185 77.031,347.188 76.462 C 346.935 76.317,347.162 76.681,347.692 77.270 M94.172 82.857 C 92.181 85.346,92.051 85.530,92.284 85.530 C 92.398 85.530,93.257 84.535,94.194 83.318 C 96.209 80.699,96.192 80.332,94.172 82.857 M90.901 87.189 L 89.916 88.479 58.691 88.569 L 27.465 88.659 58.577 88.756 C 81.866 88.828,89.819 88.744,90.207 88.422 C 90.818 87.915,92.291 85.899,92.050 85.899 C 91.959 85.899,91.442 86.479,90.901 87.189 M20.156 91.746 C 18.821 92.807,16.221 95.721,16.221 96.156 C 16.221 96.284,16.760 95.735,17.419 94.936 C 18.601 93.502,19.854 92.290,21.231 91.248 C 21.619 90.954,21.834 90.709,21.710 90.703 C 21.585 90.697,20.886 91.166,20.156 91.746 M359.308 92.960 C 362.205 97.682,364.346 101.014,364.482 101.014 C 364.695 101.014,364.794 101.191,362.046 96.681 C 360.780 94.603,359.573 92.797,359.364 92.668 C 359.121 92.517,359.101 92.622,359.308 92.960 M15.175 98.265 C 14.557 99.620,14.675 99.910,15.343 98.677 C 15.655 98.102,15.841 97.562,15.757 97.477 C 15.673 97.393,15.411 97.747,15.175 98.265 M364.608 101.546 C 364.608 101.818,366.145 104.332,366.311 104.332 C 366.397 104.332,366.128 103.668,365.714 102.857 C 365.054 101.563,364.608 101.034,364.608 101.546 M14.190 181.751 C 14.190 225.650,14.233 243.608,14.286 221.659 C 14.338 199.710,14.338 163.793,14.286 141.843 C 14.233 119.894,14.190 137.853,14.190 181.751 M366.454 104.977 C 366.455 105.129,366.786 105.751,367.189 106.359 C 368.057 107.670,368.161 107.330,367.364 105.788 C 366.820 104.736,366.449 104.406,366.454 104.977 M368.924 109.667 C 369.468 110.777,369.975 111.623,370.050 111.547 C 370.216 111.381,368.357 107.650,368.108 107.650 C 368.013 107.650,368.380 108.558,368.924 109.667 M370.184 112.288 C 370.665 113.675,373.233 119.056,373.355 118.934 C 373.536 118.753,370.887 112.776,370.396 112.258 C 370.164 112.014,370.093 112.024,370.184 112.288 M373.673 120.184 C 373.807 120.691,374.151 121.521,374.437 122.028 L 374.958 122.949 374.714 122.028 C 374.580 121.521,374.236 120.691,373.950 120.184 L 373.429 119.263 373.673 120.184 M375.155 123.871 C 375.279 124.378,375.692 125.456,376.073 126.267 C 376.454 127.078,376.660 127.328,376.532 126.822 C 376.403 126.316,375.990 125.237,375.614 124.425 C 375.238 123.614,375.031 123.364,375.155 123.871 M61.000 123.963 C 60.903 124.217,60.868 150.387,60.920 182.120 L 61.016 239.816 61.107 181.846 L 61.198 123.876 88.018 123.779 L 114.839 123.682 88.007 123.592 C 66.814 123.521,61.138 123.599,61.000 123.963 M119.263 124.608 C 120.822 125.005,122.161 125.005,120.922 124.608 C 120.415 124.446,119.585 124.316,119.078 124.320 C 118.250 124.326,118.269 124.356,119.263 124.608 M125.346 126.021 C 125.650 126.209,126.313 126.473,126.820 126.609 C 127.461 126.780,127.573 126.751,127.189 126.514 C 126.885 126.326,126.221 126.061,125.714 125.926 C 125.074 125.754,124.961 125.783,125.346 126.021 M376.774 128.162 C 376.774 128.756,378.319 133.140,378.474 132.985 C 378.553 132.906,378.270 131.777,377.844 130.476 C 377.076 128.127,376.774 127.474,376.774 128.162 M132.750 129.153 C 133.376 129.643,135.668 130.899,135.668 130.751 C 135.668 130.513,133.276 129.032,132.890 129.032 C 132.728 129.032,132.665 129.086,132.750 129.153 M136.590 131.435 C 136.995 131.765,137.659 132.198,138.065 132.398 L 138.802 132.760 138.065 132.159 C 137.659 131.829,136.995 131.396,136.590 131.197 L 135.853 130.835 136.590 131.435 M139.683 133.749 C 140.168 134.139,140.887 134.855,141.282 135.340 C 141.677 135.825,141.877 135.972,141.727 135.668 C 141.283 134.766,140.336 133.781,139.543 133.397 C 138.980 133.125,139.014 133.209,139.683 133.749 M378.850 134.549 C 378.976 135.251,379.307 136.413,379.585 137.130 L 380.090 138.433 379.860 137.156 C 379.734 136.454,379.403 135.292,379.125 134.575 L 378.620 133.272 378.850 134.549 M144.318 139.263 C 144.886 140.124,145.422 140.829,145.508 140.829 C 145.774 140.829,144.362 138.586,143.808 138.128 C 143.520 137.890,143.750 138.401,144.318 139.263 M380.506 140.276 C 380.490 140.479,380.804 141.806,381.202 143.226 C 381.601 144.645,381.844 145.214,381.742 144.490 C 381.541 143.054,380.551 139.680,380.506 140.276 M146.434 142.849 C 146.875 143.757,147.299 144.437,147.376 144.359 C 147.543 144.193,146.053 141.198,145.804 141.198 C 145.709 141.198,145.993 141.941,146.434 142.849 M83.497 159.908 L 83.502 178.249 95.668 178.257 L 107.834 178.264 95.764 178.159 L 83.694 178.054 83.593 159.811 L 83.492 141.567 83.497 159.908 M114.256 143.067 C 115.355 143.457,116.318 143.713,116.396 143.635 C 116.568 143.463,113.210 142.293,112.653 142.331 C 112.436 142.346,113.157 142.677,114.256 143.067 M119.447 145.351 C 119.447 145.432,120.152 146.059,121.014 146.744 C 121.876 147.429,122.347 147.698,122.060 147.341 C 121.521 146.670,119.447 145.090,119.447 145.351 M122.990 148.922 C 123.215 149.236,123.583 149.825,123.808 150.230 C 124.033 150.636,124.222 150.770,124.228 150.527 C 124.235 150.285,123.866 149.697,123.410 149.219 C 122.954 148.742,122.765 148.608,122.990 148.922 M382.721 149.862 C 382.712 150.267,382.940 151.594,383.228 152.811 L 383.750 155.023 383.543 153.067 C 383.306 150.838,382.746 148.654,382.721 149.862 M124.923 152.799 C 125.246 153.696,125.572 154.367,125.649 154.290 C 125.851 154.088,124.976 151.564,124.630 151.350 C 124.469 151.250,124.601 151.902,124.923 152.799 M150.187 158.710 C 150.188 161.143,150.247 162.090,150.319 160.815 C 150.392 159.540,150.391 157.549,150.318 156.391 C 150.245 155.233,150.186 156.276,150.187 158.710 M126.176 158.710 C 126.180 159.521,126.256 159.809,126.344 159.351 C 126.432 158.892,126.429 158.228,126.336 157.876 C 126.244 157.523,126.172 157.899,126.176 158.710 M384.200 158.525 C 384.193 158.829,384.422 160.737,384.707 162.765 L 385.226 166.452 385.042 163.294 C 384.884 160.588,384.233 156.903,384.200 158.525 M124.865 167.931 C 124.527 168.638,124.328 169.217,124.420 169.217 C 124.673 169.217,125.792 166.959,125.623 166.791 C 125.543 166.711,125.202 167.224,124.865 167.931 M385.368 168.664 C 385.370 169.880,385.439 170.333,385.521 169.671 C 385.603 169.008,385.601 168.013,385.517 167.459 C 385.433 166.905,385.366 167.447,385.368 168.664 M121.843 171.693 C 120.627 172.833,120.129 173.421,120.737 172.998 C 121.798 172.262,124.560 169.567,124.220 169.602 C 124.129 169.611,123.060 170.552,121.843 171.693 M385.743 173.825 C 385.745 175.244,385.811 175.780,385.891 175.015 C 385.971 174.250,385.970 173.089,385.888 172.434 C 385.807 171.780,385.741 172.406,385.743 173.825 M142.279 181.600 C 141.404 182.733,139.518 184.747,138.086 186.076 C 136.240 187.790,136.042 188.041,137.406 186.941 C 139.360 185.366,142.098 182.488,143.451 180.588 C 144.767 178.739,143.924 179.468,142.279 181.600 M386.112 184.147 C 386.113 185.567,386.180 186.102,386.260 185.337 C 386.340 184.573,386.338 183.411,386.257 182.757 C 386.175 182.102,386.110 182.728,386.112 184.147 M132.903 189.887 C 131.687 190.680,130.824 191.330,130.985 191.332 C 131.366 191.338,135.300 188.824,135.300 188.576 C 135.300 188.317,135.378 188.274,132.903 189.887 M385.733 191.705 C 385.733 192.820,385.802 193.276,385.886 192.719 C 385.971 192.161,385.971 191.249,385.886 190.691 C 385.802 190.134,385.733 190.590,385.733 191.705 M123.871 194.101 C 123.161 194.375,122.829 194.603,123.134 194.610 C 123.438 194.616,124.184 194.393,124.793 194.115 C 126.216 193.463,125.554 193.453,123.871 194.101 M385.339 196.498 C 385.339 197.207,385.415 197.498,385.508 197.143 C 385.600 196.788,385.600 196.207,385.508 195.853 C 385.415 195.498,385.339 195.788,385.339 196.498 M116.129 196.129 C 115.399 196.363,115.361 196.424,115.945 196.424 C 116.350 196.424,117.097 196.291,117.604 196.129 C 118.333 195.895,118.372 195.834,117.788 195.834 C 117.382 195.834,116.636 195.967,116.129 196.129 M83.487 197.327 C 83.390 197.581,83.355 207.244,83.410 218.802 L 83.509 239.816 83.598 218.530 L 83.687 197.244 97.051 197.143 L 110.415 197.041 97.039 196.954 C 86.613 196.886,83.625 196.968,83.487 197.327 M384.978 200.369 C 384.982 201.180,385.057 201.468,385.146 201.010 C 385.234 200.551,385.230 199.887,385.138 199.535 C 385.046 199.182,384.974 199.558,384.978 200.369 M384.602 203.134 C 384.602 203.843,384.678 204.134,384.770 203.779 C 384.863 203.424,384.863 202.843,384.770 202.488 C 384.678 202.134,384.602 202.424,384.602 203.134 M382.725 213.693 C 382.494 214.847,382.373 215.860,382.456 215.943 C 382.540 216.027,382.803 215.157,383.041 214.009 C 383.280 212.862,383.401 211.849,383.311 211.759 C 383.221 211.669,382.957 212.539,382.725 213.693 M379.566 226.570 C 379.430 227.110,379.390 227.624,379.477 227.710 C 379.564 227.797,379.746 227.426,379.882 226.886 C 380.017 226.346,380.057 225.833,379.970 225.746 C 379.883 225.659,379.701 226.030,379.566 226.570 M377.370 233.591 C 377.043 234.549,376.840 235.396,376.918 235.474 C 376.996 235.552,377.327 234.832,377.653 233.875 C 377.980 232.917,378.183 232.069,378.105 231.991 C 378.027 231.913,377.696 232.633,377.370 233.591 M374.055 242.573 C 373.223 244.652,373.352 244.961,374.227 242.988 C 374.623 242.096,374.881 241.302,374.800 241.221 C 374.720 241.141,374.385 241.749,374.055 242.573 M372.410 246.467 C 371.792 247.823,371.910 248.112,372.578 246.880 C 372.890 246.304,373.076 245.764,372.992 245.680 C 372.908 245.596,372.646 245.950,372.410 246.467 M370.389 250.893 C 369.523 252.709,369.644 253.018,370.550 251.302 C 370.961 250.522,371.232 249.819,371.153 249.739 C 371.073 249.660,370.729 250.179,370.389 250.893 M367.742 256.221 C 367.027 257.641,366.525 258.802,366.627 258.802 C 366.728 258.802,367.396 257.641,368.111 256.221 C 368.825 254.802,369.327 253.641,369.226 253.641 C 369.124 253.641,368.457 254.802,367.742 256.221 M14.774 263.963 C 14.773 264.494,15.813 266.605,15.839 266.125 C 15.847 265.996,15.610 265.333,15.314 264.651 C 15.018 263.968,14.775 263.659,14.774 263.963 M16.482 267.587 C 17.681 269.814,23.472 274.531,24.161 273.842 C 24.231 273.772,23.393 273.246,22.298 272.673 C 20.455 271.708,18.064 269.492,16.481 267.281 C 15.848 266.398,15.848 266.411,16.482 267.587 M356.129 275.392 C 355.696 276.000,355.424 276.498,355.526 276.498 C 355.627 276.498,356.065 276.000,356.498 275.392 C 356.931 274.783,357.202 274.286,357.101 274.286 C 357.000 274.286,356.562 274.783,356.129 275.392 M58.775 274.931 C 87.601 275.021,89.766 275.071,90.440 275.670 C 91.144 276.296,91.150 276.290,90.655 275.484 L 90.145 274.654 58.990 274.744 L 27.834 274.834 58.775 274.931 M92.217 278.173 C 92.879 279.095,93.668 280.049,93.971 280.293 C 94.274 280.537,93.806 279.783,92.931 278.618 C 91.048 276.109,90.481 275.756,92.217 278.173 M353.521 278.986 C 352.646 280.152,352.178 280.906,352.480 280.662 C 353.101 280.161,355.526 276.866,355.275 276.866 C 355.185 276.866,354.396 277.820,353.521 278.986 M94.818 281.598 C 95.997 283.254,98.976 286.769,99.097 286.648 C 99.240 286.505,94.746 280.922,94.489 280.922 C 94.405 280.922,94.553 281.226,94.818 281.598 M350.381 283.027 C 349.807 283.779,348.282 285.604,346.993 287.082 C 345.704 288.560,344.785 289.762,344.952 289.752 C 345.230 289.736,350.011 284.137,351.220 282.411 C 352.130 281.113,351.474 281.593,350.381 283.027 M100.323 288.203 C 100.830 288.760,102.645 290.775,104.355 292.679 C 107.559 296.246,115.173 303.468,118.725 306.310 C 120.986 308.118,120.306 307.469,113.112 300.951 C 110.338 298.437,106.202 294.312,103.923 291.785 C 101.643 289.257,99.693 287.189,99.589 287.189 C 99.486 287.189,99.816 287.645,100.323 288.203 M342.659 292.074 L 340.829 294.009 342.765 292.180 C 343.829 291.174,344.700 290.303,344.700 290.244 C 344.700 289.969,344.359 290.275,342.659 292.074 M333.989 300.679 C 333.291 301.407,330.853 303.582,328.571 305.513 C 326.290 307.443,324.424 309.099,324.424 309.191 C 324.424 309.284,325.696 308.311,327.250 307.030 C 330.318 304.502,335.794 299.394,335.464 299.370 C 335.352 299.362,334.688 299.951,333.989 300.679 M122.765 309.431 C 122.765 309.533,123.429 310.141,124.240 310.783 C 125.051 311.426,125.714 311.868,125.714 311.767 C 125.714 311.666,125.051 311.057,124.240 310.415 C 123.429 309.772,122.765 309.330,122.765 309.431 M322.396 310.639 L 320.922 311.959 322.488 310.787 C 323.837 309.779,324.323 309.293,323.963 309.314 C 323.912 309.317,323.207 309.914,322.396 310.639 M126.083 312.024 C 126.083 312.125,126.581 312.562,127.189 312.995 C 127.797 313.429,128.295 313.700,128.295 313.599 C 128.295 313.497,127.797 313.060,127.189 312.627 C 126.581 312.194,126.083 311.922,126.083 312.024 M319.447 312.843 L 318.341 313.794 319.539 313.001 C 320.198 312.565,320.737 312.136,320.737 312.049 C 320.737 311.773,320.581 311.869,319.447 312.843 M144.885 324.225 C 144.885 324.326,145.548 324.748,146.359 325.161 C 147.171 325.575,147.834 325.831,147.834 325.729 C 147.834 325.628,147.171 325.206,146.359 324.793 C 145.548 324.379,144.885 324.123,144.885 324.225 M300.369 324.818 C 299.608 325.219,298.986 325.630,298.986 325.731 C 298.986 325.831,299.650 325.575,300.461 325.161 C 301.272 324.748,301.935 324.329,301.935 324.232 C 301.935 323.991,301.933 323.992,300.369 324.818 M165.161 333.794 C 165.668 334.064,166.498 334.389,167.005 334.515 C 167.512 334.642,167.263 334.426,166.452 334.036 C 164.783 333.233,163.749 333.039,165.161 333.794 M280.737 333.838 C 280.129 334.117,279.880 334.346,280.184 334.348 C 280.488 334.350,281.152 334.115,281.659 333.825 C 282.825 333.159,282.202 333.168,280.737 333.838 M170.138 335.682 C 170.747 335.960,171.493 336.183,171.797 336.177 C 172.101 336.170,171.770 335.941,171.060 335.668 C 169.377 335.020,168.714 335.030,170.138 335.682 M275.760 335.668 C 275.051 335.941,274.719 336.170,275.023 336.177 C 275.327 336.183,276.074 335.960,276.682 335.682 C 278.106 335.030,277.444 335.020,275.760 335.668 M181.567 339.171 C 181.972 339.345,182.553 339.487,182.857 339.487 C 183.206 339.487,183.138 339.370,182.673 339.171 C 182.267 338.996,181.687 338.854,181.382 338.854 C 181.034 338.854,181.102 338.971,181.567 339.171 M263.410 339.369 C 261.956 339.872,261.954 339.876,263.226 339.661 C 264.730 339.407,266.267 338.846,265.438 338.854 C 265.134 338.856,264.221 339.088,263.410 339.369 M189.124 341.014 C 189.631 341.176,190.378 341.309,190.783 341.309 C 191.367 341.309,191.329 341.248,190.599 341.014 C 190.092 340.851,189.346 340.719,188.940 340.719 C 188.356 340.719,188.395 340.780,189.124 341.014 M256.221 341.014 C 255.491 341.248,255.453 341.309,256.037 341.309 C 256.442 341.309,257.189 341.176,257.696 341.014 C 258.426 340.780,258.464 340.719,257.880 340.719 C 257.475 340.719,256.728 340.851,256.221 341.014 M198.433 342.743 C 198.788 342.835,199.369 342.835,199.724 342.743 C 200.078 342.650,199.788 342.574,199.078 342.574 C 198.369 342.574,198.078 342.650,198.433 342.743 M245.530 342.857 C 244.551 343.063,244.462 343.135,245.161 343.156 C 245.668 343.171,246.747 343.046,247.558 342.878 C 248.787 342.624,248.848 342.574,247.926 342.579 C 247.318 342.583,246.240 342.708,245.530 342.857 M203.594 343.480 C 203.949 343.573,204.530 343.573,204.885 343.480 C 205.240 343.387,204.949 343.311,204.240 343.311 C 203.530 343.311,203.240 343.387,203.594 343.480 M211.527 344.230 C 212.190 344.312,213.185 344.311,213.739 344.227 C 214.293 344.142,213.751 344.075,212.535 344.077 C 211.318 344.079,210.865 344.148,211.527 344.230 M233.278 344.230 C 233.941 344.312,234.937 344.311,235.490 344.227 C 236.044 344.142,235.502 344.075,234.286 344.077 C 233.069 344.079,232.616 344.148,233.278 344.230 M219.078 344.607 C 221.461 344.671,225.359 344.671,227.742 344.607 C 230.124 344.543,228.175 344.490,223.410 344.490 C 218.645 344.490,216.696 344.543,219.078 344.607 " stroke="none" fill="#e4bbab" fill-rule="evenodd"></path></g></svg>