<svg id="svg" version="1.1" xmlns="http://www.w3.org/2000/svg" xmlns:xlink="http://www.w3.org/1999/xlink" width="400" height="400" viewBox="0, 0, 400,400"><g id="svgg"><path id="path0" d="M130.004 102.793 C 129.544 103.652,129.458 115.559,129.906 116.258 C 130.068 116.509,131.640 116.842,133.400 116.997 C 135.160 117.151,137.380 117.444,138.334 117.648 C 139.288 117.852,142.559 118.268,145.603 118.573 C 148.648 118.878,151.648 119.371,152.269 119.669 L 153.400 120.211 153.501 191.163 C 153.575 243.273,153.483 262.259,153.152 262.658 C 152.793 263.090,150.450 263.200,141.565 263.200 C 130.964 263.200,130.408 263.237,130.014 263.974 C 129.573 264.797,129.438 276.756,129.852 278.300 L 130.093 279.200 164.433 279.200 C 197.973 279.200,198.781 279.182,199.186 278.426 C 199.907 277.080,199.723 264.580,198.971 263.829 C 198.426 263.283,196.633 263.200,185.400 263.200 C 174.167 263.200,172.374 263.117,171.829 262.571 C 170.870 261.613,170.870 199.587,171.829 198.629 C 172.490 197.967,198.897 197.690,200.471 198.328 C 200.840 198.478,203.177 201.660,205.663 205.400 C 208.149 209.140,210.327 212.380,210.502 212.600 C 210.678 212.820,211.398 213.900,212.103 215.000 C 212.808 216.100,213.524 217.180,213.693 217.400 C 214.611 218.590,216.897 221.984,217.600 223.200 C 218.301 224.413,220.578 227.793,221.506 229.000 C 221.675 229.220,222.507 230.480,223.354 231.800 C 224.201 233.120,225.388 234.920,225.992 235.800 C 229.597 241.054,231.600 244.123,231.600 244.393 C 231.600 244.563,231.890 244.943,232.245 245.237 C 232.599 245.531,233.004 246.051,233.145 246.392 C 233.373 246.947,244.117 263.221,244.901 264.200 C 245.077 264.420,245.795 265.500,246.496 266.600 C 247.197 267.700,247.874 268.690,248.000 268.800 C 248.126 268.910,249.171 270.440,250.321 272.200 C 251.471 273.960,252.634 275.740,252.906 276.156 C 253.178 276.571,253.821 277.426,254.336 278.056 L 255.271 279.200 270.491 279.200 C 288.767 279.200,286.770 280.185,286.787 271.162 C 286.804 262.428,287.865 263.200,275.842 263.200 C 264.487 263.200,265.792 263.786,260.941 256.507 C 258.776 253.258,256.903 250.510,256.779 250.400 C 256.551 250.198,252.701 244.526,250.729 241.487 C 249.432 239.487,248.804 238.575,247.950 237.454 C 246.960 236.152,240.400 226.351,240.400 226.173 C 240.400 226.087,239.681 225.068,238.802 223.908 C 237.923 222.749,237.203 221.640,237.202 221.444 C 237.201 221.248,236.961 220.888,236.669 220.644 C 236.377 220.400,234.174 217.230,231.775 213.600 C 227.045 206.446,227.269 206.771,225.806 204.942 C 225.253 204.250,224.800 203.582,224.800 203.456 C 224.800 203.331,224.253 202.457,223.585 201.514 C 219.380 195.578,219.500 194.624,224.600 193.433 C 226.930 192.889,233.861 189.509,237.129 187.323 C 247.428 180.435,253.297 172.374,256.658 160.501 C 258.042 155.615,258.336 139.820,257.108 136.400 C 256.752 135.410,256.251 133.802,255.995 132.827 C 253.761 124.319,244.189 113.065,236.200 109.554 C 235.760 109.360,235.130 109.050,234.800 108.864 C 225.022 103.353,204.032 100.429,189.600 102.568 C 187.510 102.877,184.180 103.245,182.200 103.384 C 180.220 103.524,176.710 103.939,174.400 104.307 C 168.305 105.278,145.069 105.300,141.000 104.339 C 139.460 103.975,137.143 103.554,135.852 103.404 C 134.560 103.253,132.807 102.885,131.955 102.584 C 130.534 102.083,130.375 102.100,130.004 102.793 M209.968 117.995 C 223.650 119.946,231.428 124.679,236.676 134.247 C 240.615 141.428,240.630 155.231,236.709 163.600 C 234.894 167.473,229.557 173.091,225.672 175.218 C 220.870 177.847,219.817 178.370,218.099 178.976 C 217.055 179.344,215.480 179.819,214.600 180.032 C 213.720 180.245,212.550 180.598,212.000 180.816 C 211.001 181.212,205.713 182.154,200.800 182.811 C 194.925 183.597,172.882 183.282,172.000 182.400 C 170.914 181.314,170.721 121.336,171.800 120.257 C 172.679 119.378,175.752 118.882,183.400 118.385 C 187.140 118.142,191.730 117.802,193.600 117.629 C 199.590 117.076,204.250 117.180,209.968 117.995 " stroke="none" fill="#f9fafb" fill-rule="evenodd"></path><path id="path1" d="M170.000 0.400 C 170.000 0.638,168.487 0.800,166.262 0.800 C 163.032 0.800,162.426 0.909,161.800 1.600 C 161.203 2.260,160.568 2.400,158.171 2.400 C 154.915 2.400,154.000 2.629,154.000 3.443 C 154.000 3.869,153.302 4.000,151.027 4.000 C 148.405 4.000,148.024 4.095,147.800 4.800 C 147.584 5.482,147.195 5.600,145.173 5.600 C 143.333 5.600,142.620 5.780,142.000 6.400 C 141.437 6.963,140.667 7.200,139.403 7.200 C 138.040 7.200,137.486 7.393,137.107 8.000 C 136.721 8.619,136.174 8.800,134.691 8.800 C 133.407 8.800,132.703 8.987,132.557 9.367 C 132.433 9.691,131.487 10.050,130.342 10.208 C 129.212 10.363,128.250 10.726,128.129 11.041 C 128.011 11.349,127.529 11.602,127.057 11.605 C 125.615 11.615,124.400 12.067,124.400 12.595 C 124.400 12.895,123.648 13.181,122.524 13.307 C 121.493 13.424,120.458 13.779,120.224 14.097 C 119.991 14.415,119.142 14.798,118.339 14.948 C 117.535 15.099,116.776 15.487,116.651 15.811 C 116.522 16.148,115.913 16.400,115.227 16.400 C 114.438 16.400,113.882 16.673,113.600 17.200 C 113.315 17.732,112.762 18.000,111.948 18.000 C 111.062 18.000,110.668 18.220,110.516 18.800 C 110.357 19.406,109.970 19.600,108.916 19.600 C 107.862 19.600,107.475 19.794,107.316 20.400 C 107.157 21.006,106.770 21.200,105.716 21.200 C 104.662 21.200,104.275 21.394,104.116 22.000 C 103.968 22.564,103.570 22.800,102.767 22.800 C 102.038 22.800,101.474 23.087,101.200 23.600 C 100.965 24.040,100.416 24.400,99.982 24.400 C 99.548 24.400,98.884 24.760,98.507 25.200 C 98.130 25.640,97.497 26.000,97.099 26.000 C 96.701 26.000,96.273 26.265,96.149 26.589 C 96.024 26.913,95.310 27.293,94.561 27.434 C 93.813 27.574,93.199 27.894,93.197 28.145 C 93.194 28.577,92.752 28.854,89.700 30.335 C 88.985 30.683,88.400 31.199,88.400 31.483 C 88.400 31.768,88.080 32.000,87.688 32.000 C 87.297 32.000,86.717 32.360,86.400 32.800 C 86.083 33.240,85.505 33.600,85.115 33.600 C 84.726 33.600,84.182 33.960,83.907 34.400 C 83.632 34.840,83.091 35.200,82.704 35.200 C 82.267 35.200,82.000 35.503,82.000 36.000 C 82.000 36.522,81.733 36.800,81.233 36.800 C 80.041 36.800,79.200 37.231,79.200 37.843 C 79.200 38.149,78.840 38.400,78.400 38.400 C 77.867 38.400,77.600 38.667,77.600 39.200 C 77.600 39.733,77.333 40.000,76.800 40.000 C 76.267 40.000,76.000 40.267,76.000 40.800 C 76.000 41.387,75.733 41.600,74.996 41.600 C 74.444 41.600,73.684 41.960,73.307 42.400 C 72.930 42.840,72.399 43.200,72.125 43.200 C 71.852 43.200,71.435 43.560,71.200 44.000 C 70.965 44.440,70.508 44.800,70.186 44.800 C 69.864 44.800,69.600 45.070,69.600 45.400 C 69.600 45.730,69.313 46.000,68.963 46.000 C 68.612 46.000,68.235 46.343,68.126 46.763 C 68.016 47.183,67.583 47.616,67.163 47.726 C 66.743 47.835,66.400 48.212,66.400 48.563 C 66.400 48.926,66.068 49.200,65.627 49.200 C 65.202 49.200,64.740 49.560,64.600 50.000 C 64.460 50.440,64.140 50.800,63.887 50.800 C 63.332 50.800,63.204 50.918,56.300 57.782 C 53.250 60.814,50.800 63.575,50.800 63.979 C 50.800 64.379,50.440 64.801,50.000 64.916 C 49.560 65.031,49.200 65.391,49.200 65.716 C 49.200 66.041,48.840 66.401,48.400 66.516 C 47.960 66.631,47.600 66.991,47.600 67.316 C 47.600 67.641,47.240 68.001,46.800 68.116 C 46.360 68.231,46.000 68.612,46.000 68.963 C 46.000 69.313,45.730 69.600,45.400 69.600 C 45.070 69.600,44.800 69.864,44.800 70.186 C 44.800 70.508,44.440 70.965,44.000 71.200 C 43.560 71.435,43.200 71.852,43.200 72.125 C 43.200 72.399,42.840 72.930,42.400 73.307 C 41.960 73.684,41.600 74.444,41.600 74.996 C 41.600 75.733,41.387 76.000,40.800 76.000 C 40.267 76.000,40.000 76.267,40.000 76.800 C 40.000 77.333,39.733 77.600,39.200 77.600 C 38.667 77.600,38.400 77.867,38.400 78.400 C 38.400 78.840,38.149 79.200,37.843 79.200 C 37.231 79.200,36.800 80.041,36.800 81.233 C 36.800 81.655,36.525 82.000,36.187 82.000 C 35.851 82.000,35.457 82.315,35.314 82.700 C 35.170 83.085,34.750 83.619,34.379 83.886 C 34.009 84.153,33.596 84.918,33.463 85.586 C 33.320 86.301,32.969 86.800,32.610 86.800 C 32.267 86.800,32.000 87.150,32.000 87.600 C 32.000 88.050,31.733 88.400,31.390 88.400 C 31.035 88.400,30.682 88.892,30.544 89.580 C 30.414 90.228,29.969 91.066,29.554 91.442 C 29.139 91.817,28.800 92.366,28.800 92.662 C 28.800 92.958,28.550 93.200,28.245 93.200 C 27.929 93.200,27.579 93.789,27.434 94.561 C 27.293 95.310,26.913 96.024,26.589 96.149 C 26.265 96.273,26.000 96.713,26.000 97.125 C 26.000 97.538,25.640 98.202,25.200 98.600 C 24.760 98.998,24.400 99.613,24.400 99.966 C 24.400 100.319,24.040 100.832,23.600 101.107 C 23.101 101.419,22.800 102.040,22.800 102.757 C 22.800 103.570,22.566 103.968,22.000 104.116 C 21.394 104.275,21.200 104.662,21.200 105.716 C 21.200 106.770,21.006 107.157,20.400 107.316 C 19.794 107.475,19.600 107.862,19.600 108.916 C 19.600 109.970,19.406 110.357,18.800 110.516 C 18.220 110.668,18.000 111.062,18.000 111.948 C 18.000 112.762,17.732 113.315,17.200 113.600 C 16.673 113.882,16.400 114.438,16.400 115.227 C 16.400 115.913,16.148 116.522,15.811 116.651 C 15.487 116.776,15.101 117.535,14.953 118.339 C 14.805 119.142,14.350 120.229,13.942 120.754 C 13.534 121.279,13.200 122.314,13.200 123.054 C 13.200 123.965,13.012 124.400,12.618 124.400 C 12.260 124.400,11.933 124.977,11.767 125.900 C 11.620 126.725,11.267 127.670,10.985 128.000 C 10.702 128.330,10.346 129.443,10.194 130.473 C 10.042 131.503,9.666 132.443,9.359 132.561 C 8.988 132.703,8.800 133.420,8.800 134.691 C 8.800 136.174,8.619 136.721,8.000 137.107 C 7.393 137.486,7.200 138.040,7.200 139.403 C 7.200 140.667,6.963 141.437,6.400 142.000 C 5.779 142.621,5.600 143.333,5.600 145.186 C 5.600 147.162,5.463 147.645,4.800 148.000 C 4.122 148.363,4.000 148.838,4.000 151.118 C 4.000 153.374,3.871 153.888,3.200 154.307 C 2.502 154.743,2.400 155.240,2.400 158.189 C 2.400 161.162,2.303 161.624,1.600 162.000 C 0.882 162.384,0.800 162.838,0.800 166.414 C 0.800 168.805,0.640 170.400,0.400 170.400 C 0.137 170.400,0.000 180.533,0.000 200.000 C 0.000 219.467,0.137 229.600,0.400 229.600 C 0.640 229.600,0.800 231.199,0.800 233.597 C 0.800 237.160,0.887 237.647,1.600 238.093 C 2.287 238.522,2.400 239.026,2.400 241.664 C 2.400 245.082,2.621 246.000,3.443 246.000 C 3.866 246.000,4.000 246.673,4.000 248.797 C 4.000 251.160,4.124 251.671,4.800 252.093 C 5.450 252.498,5.600 253.026,5.600 254.896 C 5.600 256.667,5.785 257.385,6.400 258.000 C 6.963 258.563,7.200 259.333,7.200 260.597 C 7.200 261.960,7.393 262.514,8.000 262.893 C 8.619 263.279,8.800 263.826,8.800 265.309 C 8.800 266.580,8.988 267.297,9.359 267.439 C 9.666 267.557,10.037 268.450,10.182 269.422 C 10.328 270.395,10.707 271.450,11.024 271.767 C 11.341 272.084,11.602 272.671,11.605 273.071 C 11.616 274.441,12.093 275.600,12.647 275.600 C 13.008 275.600,13.200 276.067,13.200 276.946 C 13.200 277.686,13.534 278.721,13.942 279.246 C 14.350 279.771,14.805 280.858,14.953 281.661 C 15.101 282.465,15.487 283.224,15.811 283.349 C 16.150 283.479,16.400 284.088,16.400 284.784 C 16.400 285.560,16.687 286.172,17.200 286.493 C 17.682 286.794,18.000 287.426,18.000 288.082 C 18.000 288.762,18.301 289.333,18.800 289.600 C 19.332 289.885,19.600 290.438,19.600 291.252 C 19.600 292.138,19.820 292.532,20.400 292.684 C 21.006 292.843,21.200 293.230,21.200 294.284 C 21.200 295.338,21.394 295.725,22.000 295.884 C 22.566 296.032,22.800 296.430,22.800 297.243 C 22.800 297.960,23.101 298.581,23.600 298.893 C 24.040 299.168,24.400 299.681,24.400 300.034 C 24.400 300.387,24.760 301.002,25.200 301.400 C 25.640 301.798,26.000 302.546,26.000 303.062 C 26.000 303.616,26.238 304.000,26.582 304.000 C 26.930 304.000,27.269 304.562,27.426 305.400 C 27.577 306.202,27.926 306.800,28.245 306.800 C 28.550 306.800,28.800 307.042,28.800 307.338 C 28.800 307.634,29.139 308.183,29.554 308.558 C 29.969 308.934,30.414 309.772,30.544 310.420 C 30.682 311.108,31.035 311.600,31.390 311.600 C 31.726 311.600,32.000 311.917,32.000 312.304 C 32.000 312.691,32.360 313.232,32.800 313.507 C 33.265 313.797,33.600 314.440,33.600 315.041 C 33.600 315.738,33.860 316.143,34.400 316.284 C 34.840 316.399,35.200 316.759,35.200 317.084 C 35.200 317.409,35.560 317.769,36.000 317.884 C 36.440 317.999,36.800 318.418,36.800 318.814 C 36.800 319.962,37.240 320.800,37.843 320.800 C 38.149 320.800,38.400 321.148,38.400 321.573 C 38.400 321.998,38.741 322.454,39.157 322.586 C 39.573 322.718,40.006 323.181,40.119 323.613 C 40.233 324.046,40.612 324.400,40.963 324.400 C 41.329 324.400,41.600 324.733,41.600 325.184 C 41.600 325.616,41.931 326.291,42.336 326.684 C 42.741 327.078,43.185 327.715,43.323 328.100 C 43.462 328.485,43.851 328.800,44.187 328.800 C 44.533 328.800,44.800 329.148,44.800 329.600 C 44.800 330.044,45.067 330.400,45.400 330.400 C 45.730 330.400,46.000 330.687,46.000 331.037 C 46.000 331.388,46.360 331.769,46.800 331.884 C 47.240 331.999,47.600 332.359,47.600 332.684 C 47.600 333.009,47.960 333.369,48.400 333.484 C 48.840 333.599,49.200 333.959,49.200 334.284 C 49.200 334.609,49.560 334.969,50.000 335.084 C 50.440 335.199,50.804 335.587,50.809 335.947 C 50.814 336.306,51.624 337.482,52.609 338.561 C 53.594 339.640,54.400 340.675,54.400 340.861 C 54.400 341.047,54.566 341.200,54.768 341.200 C 55.256 341.200,58.800 344.755,58.800 345.244 C 58.800 345.454,59.101 345.741,59.469 345.882 C 60.191 346.159,60.406 346.334,63.329 349.025 C 64.389 350.001,65.514 350.800,65.829 350.800 C 66.143 350.800,66.400 351.087,66.400 351.437 C 66.400 351.788,66.760 352.169,67.200 352.284 C 67.640 352.399,68.000 352.759,68.000 353.084 C 68.000 353.409,68.360 353.769,68.800 353.884 C 69.240 353.999,69.600 354.330,69.600 354.620 C 69.600 354.909,69.943 355.255,70.363 355.388 C 70.783 355.521,71.227 355.894,71.350 356.215 C 71.474 356.537,71.844 356.800,72.173 356.800 C 72.503 356.800,72.965 357.160,73.200 357.600 C 73.480 358.124,74.038 358.400,74.814 358.400 C 75.733 358.400,76.000 358.580,76.000 359.200 C 76.000 359.733,76.267 360.000,76.800 360.000 C 77.333 360.000,77.600 360.267,77.600 360.800 C 77.600 361.333,77.867 361.600,78.400 361.600 C 78.840 361.600,79.200 361.851,79.200 362.157 C 79.200 362.769,80.041 363.200,81.233 363.200 C 81.733 363.200,82.000 363.478,82.000 364.000 C 82.000 364.517,82.267 364.800,82.753 364.800 C 83.170 364.800,83.600 365.157,83.716 365.600 C 83.833 366.047,84.262 366.400,84.687 366.400 C 85.106 366.400,85.836 366.760,86.308 367.200 C 86.780 367.640,87.423 368.000,87.737 368.000 C 88.050 368.000,88.401 368.360,88.516 368.800 C 88.634 369.253,89.062 369.600,89.501 369.600 C 89.927 369.600,90.602 369.960,91.000 370.400 C 91.398 370.840,92.056 371.200,92.462 371.200 C 92.868 371.200,93.200 371.450,93.200 371.755 C 93.200 372.071,93.789 372.421,94.561 372.566 C 95.310 372.707,96.014 373.060,96.126 373.352 C 96.359 373.958,99.334 375.600,100.198 375.600 C 100.514 375.600,100.965 375.960,101.200 376.400 C 101.474 376.913,102.038 377.200,102.767 377.200 C 103.570 377.200,103.968 377.436,104.116 378.000 C 104.275 378.606,104.662 378.800,105.716 378.800 C 106.770 378.800,107.157 378.994,107.316 379.600 C 107.476 380.213,107.862 380.400,108.963 380.400 C 110.133 380.400,110.400 380.548,110.400 381.200 C 110.400 381.846,110.667 382.000,111.786 382.000 C 112.762 382.000,113.298 382.236,113.600 382.800 C 113.868 383.301,114.438 383.600,115.125 383.600 C 115.729 383.600,116.530 383.960,116.907 384.400 C 117.284 384.840,118.044 385.200,118.596 385.200 C 119.148 385.200,119.960 385.560,120.400 386.000 C 120.933 386.533,121.733 386.800,122.800 386.800 C 123.933 386.800,124.400 386.970,124.400 387.382 C 124.400 387.739,124.981 388.071,125.900 388.240 C 126.725 388.392,127.829 388.850,128.354 389.258 C 128.879 389.666,129.939 390.000,130.710 390.000 C 131.576 390.000,132.305 390.264,132.617 390.690 C 132.966 391.168,133.689 391.384,134.965 391.390 C 136.365 391.398,136.863 391.569,137.032 392.100 C 137.206 392.648,137.704 392.800,139.331 392.800 C 140.974 392.800,141.512 392.967,141.907 393.600 C 142.323 394.265,142.840 394.400,144.976 394.400 C 147.195 394.400,147.581 394.509,147.800 395.200 C 148.025 395.910,148.405 396.000,151.183 396.000 C 153.917 396.000,154.304 396.088,154.256 396.700 C 154.207 397.307,154.644 397.416,157.535 397.517 C 160.186 397.610,161.042 397.794,161.710 398.417 C 162.420 399.078,163.130 399.200,166.275 399.200 C 168.492 399.200,170.000 399.362,170.000 399.600 C 170.000 399.863,180.267 400.000,200.000 400.000 C 219.733 400.000,230.000 399.863,230.000 399.600 C 230.000 399.360,231.579 399.200,233.938 399.200 C 237.368 399.200,237.969 399.097,238.600 398.400 C 239.208 397.728,239.832 397.600,242.499 397.600 C 245.338 397.600,245.697 397.515,245.884 396.800 C 246.070 396.090,246.430 396.000,249.084 396.000 C 251.738 396.000,252.098 395.910,252.284 395.200 C 252.466 394.506,252.830 394.400,255.043 394.400 C 257.160 394.400,257.678 394.264,258.093 393.600 C 258.489 392.966,259.026 392.800,260.676 392.800 C 262.009 392.800,262.876 392.604,263.080 392.257 C 263.256 391.958,264.282 391.617,265.360 391.499 C 266.570 391.367,267.459 391.039,267.680 390.642 C 267.898 390.254,268.564 390.000,269.366 390.000 C 270.095 390.000,271.150 389.640,271.709 389.200 C 272.269 388.760,273.088 388.400,273.530 388.400 C 274.757 388.400,275.600 387.975,275.600 387.357 C 275.600 386.974,276.099 386.800,277.200 386.800 C 278.267 386.800,279.067 386.533,279.600 386.000 C 280.040 385.560,280.852 385.200,281.404 385.200 C 281.956 385.200,282.716 384.840,283.093 384.400 C 283.472 383.957,284.273 383.600,284.886 383.600 C 285.560 383.600,286.189 383.287,286.493 382.800 C 286.820 382.276,287.426 382.000,288.250 382.000 C 289.170 382.000,289.563 381.786,289.716 381.200 C 289.876 380.587,290.262 380.400,291.363 380.400 C 292.533 380.400,292.800 380.252,292.800 379.600 C 292.800 378.933,293.067 378.800,294.400 378.800 C 295.733 378.800,296.000 378.667,296.000 378.000 C 296.000 377.355,296.267 377.200,297.373 377.200 C 298.395 377.200,298.811 376.995,299.000 376.400 C 299.140 375.960,299.467 375.602,299.727 375.603 C 300.599 375.610,304.000 373.816,304.000 373.350 C 304.000 373.097,304.630 372.771,305.400 372.626 C 306.238 372.469,306.800 372.130,306.800 371.782 C 306.800 371.462,307.132 371.200,307.538 371.200 C 307.944 371.200,308.602 370.840,309.000 370.400 C 309.398 369.960,310.073 369.600,310.499 369.600 C 310.938 369.600,311.366 369.253,311.484 368.800 C 311.599 368.360,312.004 368.000,312.385 368.000 C 312.765 368.000,313.402 367.640,313.800 367.200 C 314.198 366.760,314.873 366.400,315.299 366.400 C 315.738 366.400,316.166 366.053,316.284 365.600 C 316.400 365.157,316.830 364.800,317.247 364.800 C 317.733 364.800,318.000 364.517,318.000 364.000 C 318.000 363.372,318.267 363.200,319.237 363.200 C 320.138 363.200,320.532 362.983,320.684 362.400 C 320.799 361.960,321.220 361.600,321.620 361.600 C 322.019 361.600,322.454 361.259,322.586 360.843 C 322.718 360.427,323.181 359.994,323.613 359.881 C 324.046 359.767,324.400 359.388,324.400 359.037 C 324.400 358.625,324.751 358.400,325.397 358.400 C 325.960 358.400,326.610 358.052,326.893 357.600 C 327.168 357.160,327.709 356.800,328.096 356.800 C 328.483 356.800,328.800 356.542,328.800 356.227 C 328.800 355.912,329.160 355.540,329.600 355.400 C 330.040 355.260,330.400 354.888,330.400 354.573 C 330.400 354.258,330.760 354.000,331.200 354.000 C 331.733 354.000,332.000 353.733,332.000 353.200 C 332.000 352.667,332.267 352.400,332.800 352.400 C 333.333 352.400,333.600 352.133,333.600 351.600 C 333.600 351.160,333.862 350.800,334.182 350.800 C 334.502 350.800,335.204 350.395,335.742 349.900 C 339.061 346.847,339.943 346.107,340.537 345.880 C 340.902 345.740,341.200 345.370,341.200 345.059 C 341.200 344.748,341.560 344.399,342.000 344.284 C 342.440 344.169,342.800 343.809,342.800 343.484 C 342.800 343.159,343.160 342.799,343.600 342.684 C 344.040 342.569,344.400 342.188,344.400 341.837 C 344.400 341.487,344.676 341.200,345.013 341.200 C 345.349 341.200,345.741 340.898,345.883 340.528 C 346.025 340.158,346.829 339.146,347.670 338.280 C 348.512 337.413,349.200 336.365,349.200 335.952 C 349.200 335.467,349.484 335.200,350.000 335.200 C 350.533 335.200,350.800 334.933,350.800 334.400 C 350.800 333.867,351.067 333.600,351.600 333.600 C 352.133 333.600,352.400 333.333,352.400 332.800 C 352.400 332.267,352.667 332.000,353.200 332.000 C 353.733 332.000,354.000 331.733,354.000 331.200 C 354.000 330.760,354.258 330.400,354.573 330.400 C 354.888 330.400,355.260 330.040,355.400 329.600 C 355.540 329.160,355.912 328.800,356.227 328.800 C 356.542 328.800,356.800 328.483,356.800 328.096 C 356.800 327.709,357.160 327.168,357.600 326.893 C 358.040 326.618,358.400 325.966,358.400 325.443 C 358.400 324.830,358.683 324.419,359.200 324.284 C 359.640 324.169,360.000 323.800,360.000 323.464 C 360.000 323.129,360.360 322.740,360.800 322.600 C 361.240 322.460,361.600 322.019,361.600 321.620 C 361.600 321.220,361.960 320.799,362.400 320.684 C 362.983 320.532,363.200 320.138,363.200 319.237 C 363.200 318.267,363.372 318.000,364.000 318.000 C 364.517 318.000,364.800 317.733,364.800 317.247 C 364.800 316.830,365.157 316.400,365.600 316.284 C 366.140 316.143,366.400 315.738,366.400 315.041 C 366.400 314.440,366.735 313.797,367.200 313.507 C 367.640 313.232,368.000 312.712,368.000 312.350 C 368.000 311.989,368.360 311.599,368.800 311.484 C 369.340 311.343,369.600 310.938,369.600 310.241 C 369.600 309.640,369.935 308.997,370.400 308.707 C 370.840 308.432,371.200 307.891,371.200 307.504 C 371.200 307.117,371.462 306.800,371.782 306.800 C 372.130 306.800,372.469 306.238,372.626 305.400 C 372.779 304.584,373.125 304.000,373.455 304.000 C 373.766 304.000,374.127 303.464,374.258 302.809 C 374.389 302.154,374.745 301.412,375.048 301.160 C 375.352 300.908,375.600 300.385,375.600 299.998 C 375.600 299.610,375.960 299.199,376.400 299.084 C 377.013 298.924,377.200 298.538,377.200 297.437 C 377.200 296.267,377.348 296.000,378.000 296.000 C 378.667 296.000,378.800 295.733,378.800 294.400 C 378.800 293.067,378.933 292.800,379.600 292.800 C 380.252 292.800,380.400 292.533,380.400 291.363 C 380.400 290.262,380.587 289.876,381.200 289.716 C 381.801 289.559,382.000 289.170,382.000 288.153 C 382.000 287.263,382.191 286.800,382.557 286.800 C 383.200 286.800,383.600 285.949,383.600 284.581 C 383.600 284.038,383.944 283.444,384.400 283.200 C 384.924 282.920,385.200 282.362,385.200 281.586 C 385.200 280.933,385.560 280.040,386.000 279.600 C 386.533 279.067,386.800 278.267,386.800 277.200 C 386.800 276.099,386.974 275.600,387.357 275.600 C 387.975 275.600,388.400 274.757,388.400 273.530 C 388.400 273.088,388.760 272.269,389.200 271.709 C 389.640 271.150,390.000 270.095,390.000 269.366 C 390.000 268.555,390.254 267.898,390.654 267.674 C 391.078 267.436,391.377 266.578,391.508 265.221 C 391.627 263.981,391.930 263.048,392.254 262.924 C 392.618 262.784,392.800 262.026,392.800 260.653 C 392.800 259.026,392.968 258.487,393.600 258.093 C 394.265 257.677,394.400 257.160,394.400 255.024 C 394.400 252.805,394.509 252.419,395.200 252.200 C 395.904 251.977,396.000 251.595,396.000 249.020 C 396.000 246.430,396.092 246.069,396.800 245.884 C 397.524 245.695,397.600 245.338,397.600 242.134 C 397.600 239.026,397.698 238.531,398.400 238.093 C 399.113 237.647,399.200 237.160,399.200 233.597 C 399.200 231.199,399.360 229.600,399.600 229.600 C 399.863 229.600,400.000 219.467,400.000 200.000 C 400.000 180.533,399.863 170.400,399.600 170.400 C 399.360 170.400,399.200 168.805,399.200 166.414 C 399.200 162.838,399.118 162.384,398.400 162.000 C 397.697 161.624,397.600 161.162,397.600 158.189 C 397.600 155.240,397.498 154.743,396.800 154.307 C 396.121 153.883,396.000 153.374,396.000 150.950 C 396.000 148.430,395.906 148.069,395.200 147.884 C 394.502 147.702,394.400 147.338,394.400 145.041 C 394.400 142.840,394.268 142.325,393.600 141.907 C 392.984 141.523,392.800 140.974,392.800 139.526 C 392.800 138.201,392.593 137.491,392.100 137.123 C 391.629 136.771,391.391 136.026,391.372 134.847 C 391.353 133.693,391.114 132.926,390.672 132.603 C 390.264 132.305,390.000 131.561,390.000 130.710 C 390.000 129.914,389.654 128.869,389.200 128.291 C 388.760 127.731,388.400 126.912,388.400 126.470 C 388.400 125.243,387.975 124.400,387.357 124.400 C 386.978 124.400,386.800 123.910,386.800 122.862 C 386.800 121.832,386.536 121.085,386.000 120.600 C 385.556 120.198,385.200 119.368,385.200 118.734 C 385.200 118.087,384.853 117.295,384.400 116.907 C 383.960 116.530,383.600 115.729,383.600 115.125 C 383.600 114.438,383.301 113.868,382.800 113.600 C 382.236 113.298,382.000 112.762,382.000 111.786 C 382.000 110.667,381.846 110.400,381.200 110.400 C 380.548 110.400,380.400 110.133,380.400 108.963 C 380.400 107.862,380.213 107.476,379.600 107.316 C 378.994 107.157,378.800 106.770,378.800 105.716 C 378.800 104.662,378.606 104.275,378.000 104.116 C 377.403 103.960,377.200 103.570,377.200 102.580 C 377.200 101.605,376.988 101.187,376.400 101.000 C 375.960 100.860,375.600 100.420,375.600 100.022 C 375.600 99.624,375.330 99.074,375.000 98.800 C 374.670 98.526,374.400 97.974,374.400 97.574 C 374.400 97.173,374.041 96.594,373.603 96.287 C 373.164 95.980,372.692 95.160,372.553 94.464 C 372.414 93.769,372.053 93.200,371.750 93.200 C 371.447 93.200,371.200 92.883,371.200 92.496 C 371.200 92.109,370.840 91.568,370.400 91.293 C 369.935 91.003,369.600 90.360,369.600 89.759 C 369.600 89.062,369.340 88.657,368.800 88.516 C 368.360 88.401,368.000 88.011,368.000 87.650 C 368.000 87.288,367.640 86.768,367.200 86.493 C 366.735 86.203,366.400 85.560,366.400 84.959 C 366.400 84.278,366.139 83.857,365.637 83.726 C 365.217 83.616,364.784 83.183,364.674 82.763 C 364.565 82.343,364.188 82.000,363.837 82.000 C 363.476 82.000,363.200 81.668,363.200 81.233 C 363.200 80.041,362.769 79.200,362.157 79.200 C 361.851 79.200,361.600 78.840,361.600 78.400 C 361.600 77.867,361.333 77.600,360.800 77.600 C 360.267 77.600,360.000 77.333,360.000 76.800 C 360.000 76.267,359.733 76.000,359.200 76.000 C 358.580 76.000,358.400 75.733,358.400 74.814 C 358.400 74.038,358.124 73.480,357.600 73.200 C 357.160 72.965,356.800 72.503,356.800 72.173 C 356.800 71.844,356.537 71.474,356.215 71.350 C 355.894 71.227,355.521 70.783,355.388 70.363 C 355.255 69.943,354.909 69.600,354.620 69.600 C 354.330 69.600,353.999 69.240,353.884 68.800 C 353.769 68.360,353.409 68.000,353.084 68.000 C 352.759 68.000,352.399 67.640,352.284 67.200 C 352.169 66.760,351.809 66.400,351.484 66.400 C 351.159 66.400,350.799 66.040,350.684 65.600 C 350.569 65.160,350.188 64.800,349.837 64.800 C 349.487 64.800,349.198 64.485,349.195 64.100 C 349.192 63.715,348.472 62.627,347.595 61.683 C 346.718 60.738,346.000 59.787,346.000 59.570 C 346.000 59.353,345.712 59.064,345.360 58.929 C 345.008 58.794,343.730 57.675,342.520 56.442 C 341.310 55.209,340.158 54.245,339.960 54.300 C 339.762 54.355,339.600 54.173,339.600 53.896 C 339.600 53.618,338.610 52.601,337.400 51.636 C 336.190 50.670,335.200 49.727,335.200 49.540 C 335.200 49.353,334.861 49.200,334.447 49.200 C 334.030 49.200,333.600 48.843,333.484 48.400 C 333.369 47.960,333.009 47.600,332.684 47.600 C 332.359 47.600,331.999 47.240,331.884 46.800 C 331.769 46.360,331.388 46.000,331.037 46.000 C 330.687 46.000,330.400 45.730,330.400 45.400 C 330.400 45.070,330.136 44.800,329.814 44.800 C 329.492 44.800,329.035 44.440,328.800 44.000 C 328.565 43.560,328.148 43.200,327.875 43.200 C 327.601 43.200,327.070 42.840,326.693 42.400 C 326.316 41.960,325.667 41.600,325.251 41.600 C 324.830 41.600,324.400 41.245,324.284 40.800 C 324.169 40.360,323.800 40.000,323.464 40.000 C 323.129 40.000,322.740 39.640,322.600 39.200 C 322.460 38.760,321.998 38.400,321.573 38.400 C 321.148 38.400,320.800 38.149,320.800 37.843 C 320.800 37.231,319.959 36.800,318.767 36.800 C 318.267 36.800,318.000 36.522,318.000 36.000 C 318.000 35.483,317.733 35.200,317.247 35.200 C 316.830 35.200,316.400 34.843,316.284 34.400 C 316.167 33.953,315.738 33.600,315.313 33.600 C 314.894 33.600,314.164 33.240,313.692 32.800 C 313.220 32.360,312.556 32.000,312.217 32.000 C 311.878 32.000,311.600 31.765,311.600 31.477 C 311.600 31.189,310.880 30.636,310.000 30.248 C 309.120 29.860,308.400 29.375,308.400 29.171 C 308.400 28.967,308.040 28.800,307.600 28.800 C 307.160 28.800,306.800 28.550,306.800 28.245 C 306.800 27.926,306.202 27.577,305.400 27.426 C 304.562 27.269,304.000 26.930,304.000 26.582 C 304.000 26.262,303.640 26.000,303.200 26.000 C 302.760 26.000,302.040 25.640,301.600 25.200 C 301.160 24.760,300.483 24.400,300.096 24.400 C 299.709 24.400,299.168 24.040,298.893 23.600 C 298.581 23.101,297.960 22.800,297.243 22.800 C 296.430 22.800,296.032 22.566,295.884 22.000 C 295.725 21.394,295.338 21.200,294.284 21.200 C 293.230 21.200,292.843 21.006,292.684 20.400 C 292.532 19.820,292.138 19.600,291.252 19.600 C 290.438 19.600,289.885 19.332,289.600 18.800 C 289.333 18.301,288.762 18.000,288.082 18.000 C 287.426 18.000,286.794 17.682,286.493 17.200 C 286.172 16.687,285.560 16.400,284.784 16.400 C 284.088 16.400,283.479 16.150,283.349 15.811 C 283.224 15.487,282.465 15.099,281.661 14.948 C 280.858 14.798,280.009 14.415,279.776 14.097 C 279.542 13.779,278.507 13.424,277.476 13.307 C 276.292 13.174,275.600 12.901,275.600 12.566 C 275.600 12.268,274.943 11.919,274.100 11.767 C 273.275 11.620,272.330 11.267,272.000 10.985 C 271.670 10.702,270.557 10.346,269.527 10.194 C 268.497 10.042,267.557 9.666,267.439 9.359 C 267.297 8.988,266.580 8.800,265.309 8.800 C 263.826 8.800,263.279 8.619,262.893 8.000 C 262.514 7.393,261.960 7.200,260.597 7.200 C 259.333 7.200,258.563 6.963,258.000 6.400 C 257.381 5.781,256.667 5.600,254.847 5.600 C 252.830 5.600,252.463 5.486,252.284 4.800 C 252.098 4.089,251.738 4.000,249.037 4.000 C 246.708 4.000,246.000 3.870,246.000 3.443 C 246.000 2.636,245.088 2.400,241.967 2.400 C 239.733 2.400,239.046 2.246,238.400 1.600 C 237.712 0.912,237.067 0.800,233.800 0.800 C 231.533 0.800,230.000 0.639,230.000 0.400 C 230.000 0.137,219.733 0.000,200.000 0.000 C 180.267 0.000,170.000 0.137,170.000 0.400 M209.400 100.044 C 210.720 100.251,213.707 100.640,216.039 100.910 C 218.370 101.179,220.530 101.601,220.839 101.847 C 221.147 102.093,222.390 102.418,223.600 102.571 C 224.810 102.723,226.160 103.079,226.600 103.360 C 227.040 103.642,228.097 103.984,228.950 104.119 C 229.802 104.255,230.792 104.623,231.150 104.938 C 231.507 105.253,232.373 105.633,233.072 105.781 C 233.772 105.930,234.559 106.310,234.821 106.626 C 235.083 106.942,235.636 107.200,236.049 107.200 C 236.462 107.200,237.160 107.560,237.600 108.000 C 238.040 108.440,238.670 108.800,239.000 108.800 C 239.330 108.800,239.942 109.142,240.361 109.561 C 240.779 109.979,241.499 110.441,241.961 110.587 C 242.422 110.734,242.800 111.112,242.800 111.427 C 242.800 111.742,242.997 112.000,243.237 112.000 C 244.091 112.000,250.800 118.098,250.800 118.875 C 250.800 119.054,251.168 119.605,251.619 120.100 C 252.069 120.595,252.684 121.271,252.987 121.603 C 253.289 121.935,253.657 122.687,253.804 123.274 C 253.952 123.862,254.326 124.439,254.636 124.559 C 254.946 124.678,255.200 125.116,255.200 125.534 C 255.200 125.951,255.560 126.750,256.000 127.309 C 256.440 127.869,256.801 128.658,256.803 129.063 C 256.804 129.468,257.163 130.340,257.600 131.000 C 258.081 131.726,258.396 132.877,258.397 133.914 C 258.399 134.869,258.710 136.101,259.100 136.696 C 259.719 137.641,259.800 138.907,259.800 147.600 C 259.800 156.293,259.719 157.559,259.100 158.504 C 258.681 159.143,258.399 160.341,258.397 161.486 C 258.396 162.723,258.114 163.825,257.600 164.600 C 257.163 165.260,256.804 166.181,256.803 166.646 C 256.801 167.111,256.440 167.950,256.000 168.509 C 255.560 169.069,255.200 169.881,255.200 170.314 C 255.200 170.747,254.937 171.320,254.615 171.587 C 254.294 171.854,253.917 172.433,253.777 172.874 C 253.457 173.880,251.588 176.665,250.298 178.056 C 249.760 178.637,249.208 179.402,249.072 179.756 C 248.936 180.110,248.549 180.400,248.213 180.400 C 247.876 180.400,247.600 180.594,247.600 180.831 C 247.600 181.391,245.391 183.600,244.831 183.600 C 244.594 183.600,244.400 183.870,244.400 184.200 C 244.400 184.530,244.251 184.800,244.068 184.800 C 243.885 184.800,242.940 185.517,241.968 186.394 C 240.996 187.271,240.003 187.991,239.762 187.994 C 239.521 187.997,238.998 188.360,238.600 188.800 C 238.202 189.240,237.662 189.600,237.400 189.600 C 237.138 189.600,236.598 189.960,236.200 190.400 C 235.802 190.840,235.157 191.200,234.767 191.200 C 234.376 191.200,233.796 191.461,233.477 191.780 C 233.158 192.099,232.380 192.487,231.748 192.641 C 231.117 192.796,230.171 193.255,229.646 193.661 C 229.121 194.067,228.176 194.400,227.546 194.400 C 226.916 194.400,226.400 194.551,226.400 194.736 C 226.400 195.227,224.525 196.000,223.332 196.000 C 222.338 196.000,222.325 196.031,222.955 196.900 C 223.314 197.395,223.768 198.167,223.962 198.616 C 224.157 199.065,224.605 199.673,224.958 199.965 C 225.311 200.258,225.600 200.718,225.600 200.987 C 225.600 201.256,225.960 201.802,226.400 202.200 C 226.840 202.598,227.200 203.123,227.200 203.366 C 227.200 203.609,227.560 204.032,228.000 204.307 C 228.440 204.582,228.800 205.083,228.800 205.420 C 228.800 205.757,229.160 206.420,229.600 206.892 C 230.040 207.364,230.400 207.987,230.400 208.275 C 230.400 208.564,230.550 208.800,230.733 208.800 C 231.140 208.800,233.600 212.538,233.600 213.156 C 233.600 213.400,233.870 213.600,234.200 213.600 C 234.530 213.600,234.800 213.842,234.800 214.138 C 234.800 214.434,235.250 215.199,235.800 215.838 C 236.349 216.477,236.799 217.206,236.800 217.457 C 236.800 217.709,237.070 218.018,237.400 218.145 C 237.730 218.271,238.000 218.697,238.000 219.091 C 238.000 219.485,238.360 220.032,238.800 220.307 C 239.240 220.582,239.600 221.062,239.600 221.375 C 239.600 221.687,239.914 222.257,240.297 222.640 C 241.075 223.418,241.689 224.392,242.574 226.251 C 242.902 226.940,243.447 227.609,243.785 227.739 C 244.123 227.869,244.400 228.161,244.400 228.387 C 244.400 228.614,244.760 229.160,245.200 229.600 C 245.640 230.040,246.000 230.717,246.000 231.104 C 246.000 231.491,246.360 232.032,246.800 232.307 C 247.240 232.582,247.600 233.075,247.600 233.403 C 247.600 233.732,247.789 234.000,248.019 234.000 C 248.250 234.000,248.656 234.495,248.921 235.100 C 249.455 236.318,250.824 238.485,251.264 238.807 C 251.704 239.130,255.200 244.425,255.200 244.769 C 255.200 244.938,255.560 245.402,256.000 245.800 C 256.440 246.198,256.800 246.760,256.800 247.048 C 256.800 247.336,257.160 247.765,257.600 248.000 C 258.040 248.235,258.400 248.782,258.400 249.214 C 258.400 249.646,258.589 250.000,258.820 250.000 C 259.052 250.000,259.504 250.630,259.826 251.400 C 260.148 252.170,260.578 252.800,260.784 252.800 C 261.159 252.800,261.963 254.066,262.880 256.100 C 263.152 256.705,263.511 257.200,263.677 257.200 C 263.844 257.200,264.250 257.695,264.582 258.300 C 264.913 258.905,265.567 259.850,266.036 260.400 L 266.888 261.400 277.259 261.600 C 285.890 261.766,287.694 261.901,288.009 262.400 C 288.456 263.108,288.527 279.182,288.086 279.875 C 287.920 280.136,287.281 280.541,286.666 280.775 C 285.180 281.340,255.348 281.364,255.000 280.800 C 254.864 280.580,254.448 280.400,254.076 280.400 C 253.364 280.400,251.468 278.270,250.798 276.717 C 250.188 275.305,249.469 274.264,248.700 273.683 C 248.315 273.393,248.000 272.895,248.000 272.577 C 248.000 272.260,247.685 271.669,247.300 271.265 C 246.376 270.294,245.710 269.273,245.007 267.749 C 244.689 267.060,244.153 266.391,243.815 266.261 C 243.477 266.131,243.200 265.659,243.200 265.213 C 243.200 264.766,243.011 264.400,242.780 264.400 C 242.548 264.400,242.103 263.786,241.790 263.037 C 241.476 262.287,241.080 261.612,240.910 261.537 C 240.424 261.322,238.400 258.211,238.400 257.678 C 238.400 257.415,238.214 257.200,237.987 257.200 C 237.761 257.200,237.460 256.885,237.319 256.500 C 237.179 256.115,236.644 255.291,236.132 254.669 C 235.619 254.047,235.200 253.302,235.200 253.012 C 235.200 252.723,234.930 252.382,234.600 252.255 C 234.270 252.129,234.000 251.777,234.000 251.475 C 234.000 251.172,233.640 250.598,233.200 250.200 C 232.760 249.802,232.400 249.232,232.400 248.934 C 232.400 248.636,232.040 248.084,231.600 247.707 C 231.160 247.330,230.800 246.832,230.800 246.600 C 230.800 246.368,230.440 245.870,230.000 245.493 C 229.560 245.116,229.200 244.452,229.200 244.018 C 229.200 243.584,228.840 243.035,228.400 242.800 C 227.960 242.565,227.600 242.108,227.600 241.786 C 227.600 241.464,227.411 241.200,227.180 241.200 C 226.948 241.200,226.509 240.601,226.203 239.868 C 225.897 239.136,225.366 238.304,225.023 238.019 C 224.680 237.735,224.400 237.254,224.400 236.951 C 224.400 236.648,224.211 236.400,223.980 236.400 C 223.748 236.400,223.309 235.801,223.003 235.068 C 222.697 234.336,222.166 233.504,221.823 233.219 C 221.480 232.935,221.200 232.454,221.200 232.151 C 221.200 231.848,221.022 231.600,220.805 231.600 C 220.588 231.600,220.148 230.970,219.826 230.200 C 219.504 229.430,219.071 228.800,218.864 228.800 C 218.656 228.800,218.374 228.350,218.236 227.800 C 218.098 227.250,217.811 226.800,217.598 226.800 C 217.385 226.800,216.948 226.170,216.626 225.400 C 216.304 224.630,215.852 224.000,215.620 224.000 C 215.389 224.000,215.200 223.683,215.200 223.296 C 215.200 222.909,214.840 222.368,214.400 222.093 C 213.960 221.818,213.600 221.323,213.600 220.993 C 213.600 220.662,213.240 220.084,212.800 219.707 C 212.360 219.330,212.000 218.702,212.000 218.311 C 212.000 217.920,211.811 217.600,211.580 217.600 C 211.348 217.600,210.905 216.992,210.594 216.249 C 210.284 215.505,209.753 214.791,209.415 214.661 C 209.077 214.531,208.800 214.059,208.800 213.613 C 208.800 213.166,208.611 212.800,208.381 212.800 C 208.150 212.800,207.745 212.297,207.481 211.682 C 207.021 210.614,206.614 210.045,205.139 208.411 C 204.776 208.008,204.353 207.283,204.200 206.800 C 203.947 206.002,203.640 205.591,201.781 203.566 C 201.462 203.218,201.200 202.715,201.200 202.448 C 201.200 202.182,200.758 201.522,200.218 200.982 L 199.236 200.000 186.698 200.000 C 177.480 200.000,174.033 200.127,173.680 200.480 C 172.968 201.192,172.988 259.966,173.700 260.910 C 174.144 261.499,175.655 261.585,187.283 261.686 C 203.304 261.826,201.570 260.665,201.587 271.264 L 201.600 279.129 200.369 280.164 L 199.139 281.200 164.869 281.170 C 138.332 281.146,130.284 281.025,129.200 280.634 L 127.800 280.129 127.800 271.168 L 127.800 262.208 129.000 261.951 C 129.660 261.810,134.906 261.673,140.657 261.647 C 149.796 261.606,151.145 261.520,151.357 260.967 C 151.998 259.298,151.613 121.291,150.967 121.043 C 150.619 120.909,148.634 120.800,146.554 120.800 C 144.246 120.800,142.260 120.585,141.454 120.248 C 140.727 119.945,137.898 119.566,135.167 119.407 C 131.283 119.180,129.917 118.945,128.900 118.326 L 127.600 117.535 127.600 109.499 C 127.600 102.583,127.692 101.361,128.262 100.731 C 128.952 99.969,130.986 99.731,131.379 100.366 C 131.504 100.567,132.999 100.856,134.703 101.007 C 136.406 101.157,138.304 101.523,138.920 101.820 C 139.881 102.282,152.243 103.386,156.200 103.362 C 160.824 103.335,176.351 102.236,177.000 101.889 C 177.440 101.655,180.860 101.223,184.600 100.929 C 188.340 100.636,192.390 100.242,193.600 100.054 C 196.598 99.589,206.455 99.582,209.400 100.044 M188.400 120.065 C 187.850 120.293,184.398 120.599,180.730 120.744 C 177.061 120.889,173.911 121.156,173.730 121.337 C 173.548 121.518,173.352 134.981,173.292 151.255 L 173.185 180.843 188.892 180.697 C 202.330 180.573,204.831 180.457,206.200 179.893 C 207.080 179.531,208.741 179.227,209.890 179.218 C 211.250 179.206,212.439 178.921,213.290 178.401 C 214.011 177.962,215.112 177.602,215.737 177.601 C 216.362 177.601,217.331 177.240,217.891 176.800 C 218.450 176.360,219.404 176.000,220.011 176.000 C 220.618 176.000,221.212 175.747,221.330 175.438 C 221.449 175.128,222.143 174.744,222.873 174.584 C 223.603 174.424,224.435 173.957,224.723 173.546 C 225.010 173.136,225.415 172.800,225.623 172.800 C 226.702 172.800,234.000 165.299,234.000 164.190 C 234.000 164.045,234.360 163.469,234.800 162.909 C 235.240 162.350,235.600 161.479,235.600 160.975 C 235.600 160.470,235.877 159.780,236.216 159.442 C 237.867 157.790,237.855 140.228,236.200 138.400 C 235.870 138.035,235.600 137.538,235.600 137.295 C 235.600 136.679,234.955 135.284,233.800 133.400 C 233.261 132.520,232.705 131.491,232.566 131.113 C 232.427 130.736,231.973 130.318,231.557 130.186 C 231.141 130.054,230.800 129.688,230.800 129.373 C 230.800 129.058,230.513 128.800,230.163 128.800 C 229.812 128.800,229.431 128.440,229.316 128.000 C 229.201 127.560,228.841 127.200,228.516 127.200 C 228.191 127.200,227.831 126.840,227.716 126.400 C 227.601 125.960,227.192 125.600,226.807 125.600 C 226.423 125.600,225.650 125.240,225.091 124.800 C 224.531 124.360,223.811 124.000,223.491 124.000 C 223.170 124.000,222.450 123.640,221.891 123.200 C 221.331 122.760,220.452 122.399,219.937 122.397 C 219.422 122.396,218.460 122.037,217.800 121.600 C 216.985 121.060,215.923 120.804,214.487 120.803 C 213.325 120.801,211.728 120.530,210.938 120.200 C 209.203 119.475,190.099 119.361,188.400 120.065 " stroke="none" fill="#74acdc" fill-rule="evenodd"></path><path id="path2" d="M190.200 101.245 C 187.120 101.426,183.846 101.759,182.923 101.987 C 182.001 102.214,178.941 102.588,176.123 102.819 C 173.306 103.050,170.010 103.401,168.800 103.599 C 160.488 104.961,142.933 104.056,134.616 101.836 C 131.780 101.079,129.542 101.018,128.880 101.680 C 128.158 102.402,128.207 116.542,128.934 117.145 C 129.626 117.719,134.530 118.648,138.600 118.976 C 141.656 119.222,148.223 120.145,151.200 120.747 L 152.600 121.030 152.701 191.465 L 152.802 261.900 151.551 262.150 C 150.863 262.287,145.588 262.400,139.830 262.400 C 132.220 262.400,129.229 262.531,128.880 262.880 C 128.202 263.558,128.202 278.842,128.880 279.520 C 129.576 280.216,199.224 280.216,199.920 279.520 C 200.427 279.013,200.639 264.288,200.157 263.033 C 199.943 262.474,198.409 262.399,187.057 262.395 C 179.986 262.392,173.795 262.281,173.300 262.148 L 172.400 261.907 172.400 230.553 L 172.400 199.200 186.017 199.200 C 201.615 199.200,199.811 198.733,203.021 203.600 C 204.110 205.250,205.097 206.690,205.217 206.800 C 205.426 206.993,216.191 223.113,217.000 224.444 C 217.359 225.035,220.460 229.752,221.836 231.800 C 222.132 232.240,222.920 233.371,223.587 234.314 C 224.254 235.257,224.800 236.174,224.800 236.352 C 224.800 236.530,225.160 237.002,225.600 237.400 C 226.040 237.798,226.400 238.372,226.400 238.675 C 226.400 238.977,226.670 239.329,227.000 239.455 C 227.330 239.582,227.600 239.860,227.600 240.073 C 227.600 240.287,228.534 241.842,229.676 243.531 C 230.817 245.219,232.703 248.040,233.865 249.800 C 235.028 251.560,236.162 253.270,236.387 253.600 C 236.611 253.930,237.374 255.100,238.082 256.200 C 238.791 257.300,239.473 258.290,239.599 258.400 C 239.725 258.510,242.867 263.190,246.581 268.800 C 250.296 274.410,253.609 279.225,253.944 279.500 C 255.037 280.398,287.140 280.206,287.513 279.300 C 287.671 278.915,287.800 275.270,287.800 271.200 C 287.800 261.293,289.137 262.382,277.113 262.493 L 267.000 262.585 276.913 262.700 L 286.825 262.814 287.237 263.898 C 287.916 265.682,287.543 278.741,286.800 279.209 C 285.832 279.820,255.093 279.716,254.352 279.100 C 253.802 278.643,251.175 274.980,250.191 273.299 C 249.966 272.915,246.186 267.235,241.791 260.678 C 237.396 254.120,233.350 248.057,232.800 247.203 C 231.342 244.939,218.994 226.411,218.003 225.000 C 216.954 223.506,210.288 213.512,208.400 210.603 C 204.018 203.851,200.674 199.160,199.974 198.786 C 199.033 198.283,173.291 198.412,172.500 198.924 C 172.067 199.204,171.671 262.148,172.100 262.477 C 172.155 262.519,178.410 262.654,186.000 262.777 L 199.800 263.000 199.909 270.971 C 199.992 277.081,199.899 279.017,199.509 279.265 C 198.775 279.731,130.340 279.676,129.600 279.209 C 128.863 278.744,128.484 265.683,129.157 263.914 L 129.563 262.846 140.881 262.723 C 147.107 262.655,152.425 262.454,152.700 262.276 C 153.097 262.020,153.200 247.396,153.200 191.366 L 153.200 120.780 152.199 120.400 C 151.256 120.041,148.485 119.637,137.000 118.181 C 129.436 117.222,129.605 117.266,129.182 116.152 C 128.972 115.600,128.800 112.302,128.800 108.823 C 128.800 101.303,128.860 101.179,132.129 101.929 C 143.975 104.649,159.408 105.417,171.800 103.905 C 174.880 103.529,179.110 103.033,181.200 102.802 C 183.290 102.572,186.260 102.221,187.800 102.023 C 224.540 97.302,253.516 111.989,257.991 137.600 C 258.287 139.289,258.308 139.314,258.343 138.000 C 258.562 129.822,249.185 115.870,239.600 110.113 C 237.004 108.554,231.966 106.000,231.481 105.998 C 231.216 105.996,230.485 105.727,229.856 105.399 C 228.665 104.777,225.485 103.814,222.400 103.139 C 221.410 102.923,219.547 102.482,218.260 102.160 C 213.285 100.915,202.070 100.549,190.200 101.245 M197.400 118.243 C 183.143 119.050,179.691 119.304,176.513 119.782 C 174.485 120.087,172.640 120.452,172.413 120.592 C 171.905 120.906,171.842 181.132,172.349 181.931 C 172.616 182.352,175.328 182.475,185.443 182.523 C 201.545 182.601,206.086 182.033,216.800 178.603 C 230.500 174.218,238.496 164.390,239.096 151.200 C 240.104 129.021,224.526 116.708,197.400 118.243 M215.000 120.013 C 218.434 120.869,221.907 122.072,223.200 122.853 C 223.530 123.052,224.250 123.439,224.800 123.712 C 237.496 130.024,242.611 148.913,235.481 163.158 C 233.651 166.814,229.648 171.333,226.384 173.429 C 223.946 174.995,217.936 177.983,217.200 177.995 C 216.870 178.000,216.084 178.274,215.454 178.602 C 214.824 178.931,214.008 179.200,213.641 179.200 C 213.275 179.200,211.990 179.476,210.787 179.814 C 204.445 181.594,176.870 182.919,173.426 181.610 L 172.400 181.220 172.400 151.039 L 172.400 120.858 174.700 120.619 C 175.965 120.487,178.350 120.175,180.000 119.925 C 189.062 118.552,209.347 118.603,215.000 120.013 M258.677 144.004 C 259.889 167.848,246.861 186.982,224.508 194.185 C 220.057 195.619,220.201 195.983,231.645 212.272 C 232.390 213.332,233.180 214.500,233.400 214.867 C 233.620 215.233,235.076 217.393,236.635 219.667 C 242.512 228.234,249.491 238.511,258.731 252.200 C 265.447 262.149,265.633 262.400,266.278 262.400 C 266.591 262.400,266.356 261.898,265.703 261.168 C 265.096 260.491,264.108 259.186,263.507 258.268 C 262.906 257.351,262.273 256.420,262.099 256.200 C 261.522 255.469,255.420 246.400,254.155 244.395 C 253.471 243.309,252.391 241.742,251.755 240.912 C 250.239 238.932,248.800 236.815,248.800 236.565 C 248.800 236.456,248.080 235.391,247.200 234.200 C 246.320 233.009,245.600 231.841,245.600 231.605 C 245.600 231.368,245.330 231.071,245.000 230.945 C 244.670 230.818,244.400 230.498,244.400 230.233 C 244.400 229.968,244.084 229.402,243.697 228.975 C 243.040 228.252,241.949 226.692,241.005 225.130 C 240.292 223.951,232.613 212.608,232.386 212.400 C 232.118 212.154,226.556 203.882,223.699 199.479 C 221.350 195.860,221.313 196.050,224.600 194.808 C 229.856 192.822,235.532 190.036,237.400 188.524 C 237.620 188.346,238.880 187.494,240.200 186.632 C 242.818 184.921,248.580 179.313,250.189 176.908 C 252.717 173.131,253.110 172.504,253.895 171.000 C 256.072 166.830,257.506 162.820,258.045 159.400 C 258.253 158.080,258.636 156.100,258.896 155.000 C 259.486 152.507,259.474 141.759,258.880 140.400 C 258.547 139.638,258.499 140.495,258.677 144.004 " stroke="none" fill="#afcaea" fill-rule="evenodd"></path><path id="path3" d="M193.600 100.054 C 192.390 100.242,188.340 100.636,184.600 100.929 C 180.860 101.223,177.440 101.655,177.000 101.889 C 176.351 102.236,160.824 103.335,156.200 103.362 C 152.243 103.386,139.881 102.282,138.920 101.820 C 138.304 101.523,136.406 101.157,134.703 101.007 C 132.999 100.856,131.504 100.567,131.379 100.366 C 130.986 99.731,128.952 99.969,128.262 100.731 C 127.692 101.361,127.600 102.583,127.600 109.499 L 127.600 117.535 128.900 118.326 C 129.917 118.945,131.283 119.180,135.167 119.407 C 137.898 119.566,140.727 119.945,141.454 120.248 C 142.260 120.585,144.246 120.800,146.554 120.800 C 148.634 120.800,150.619 120.909,150.967 121.043 C 151.613 121.291,151.998 259.298,151.357 260.967 C 151.145 261.520,149.796 261.606,140.657 261.647 C 134.906 261.673,129.660 261.810,129.000 261.951 L 127.800 262.208 127.800 271.168 L 127.800 280.129 129.200 280.634 C 130.284 281.025,138.332 281.146,164.869 281.170 L 199.139 281.200 200.369 280.164 L 201.600 279.129 201.587 271.264 C 201.570 260.665,203.304 261.826,187.283 261.686 C 175.655 261.585,174.144 261.499,173.700 260.910 C 172.988 259.966,172.968 201.192,173.680 200.480 C 174.033 200.127,177.480 200.000,186.698 200.000 L 199.236 200.000 200.218 200.982 C 200.758 201.522,201.200 202.182,201.200 202.448 C 201.200 202.715,201.462 203.218,201.781 203.566 C 203.640 205.591,203.947 206.002,204.200 206.800 C 204.353 207.283,204.776 208.008,205.139 208.411 C 206.614 210.045,207.021 210.614,207.481 211.682 C 207.745 212.297,208.150 212.800,208.381 212.800 C 208.611 212.800,208.800 213.166,208.800 213.613 C 208.800 214.059,209.077 214.531,209.415 214.661 C 209.753 214.791,210.284 215.505,210.594 216.249 C 210.905 216.992,211.348 217.600,211.580 217.600 C 211.811 217.600,212.000 217.920,212.000 218.311 C 212.000 218.702,212.360 219.330,212.800 219.707 C 213.240 220.084,213.600 220.662,213.600 220.993 C 213.600 221.323,213.960 221.818,214.400 222.093 C 214.840 222.368,215.200 222.909,215.200 223.296 C 215.200 223.683,215.389 224.000,215.620 224.000 C 215.852 224.000,216.304 224.630,216.626 225.400 C 216.948 226.170,217.385 226.800,217.598 226.800 C 217.811 226.800,218.098 227.250,218.236 227.800 C 218.374 228.350,218.656 228.800,218.864 228.800 C 219.071 228.800,219.504 229.430,219.826 230.200 C 220.148 230.970,220.588 231.600,220.805 231.600 C 221.022 231.600,221.200 231.848,221.200 232.151 C 221.200 232.454,221.480 232.935,221.823 233.219 C 222.166 233.504,222.697 234.336,223.003 235.068 C 223.309 235.801,223.748 236.400,223.980 236.400 C 224.211 236.400,224.400 236.648,224.400 236.951 C 224.400 237.254,224.680 237.735,225.023 238.019 C 225.366 238.304,225.897 239.136,226.203 239.868 C 226.509 240.601,226.948 241.200,227.180 241.200 C 227.411 241.200,227.600 241.464,227.600 241.786 C 227.600 242.108,227.960 242.565,228.400 242.800 C 228.840 243.035,229.200 243.584,229.200 244.018 C 229.200 244.452,229.560 245.116,230.000 245.493 C 230.440 245.870,230.800 246.368,230.800 246.600 C 230.800 246.832,231.160 247.330,231.600 247.707 C 232.040 248.084,232.400 248.636,232.400 248.934 C 232.400 249.232,232.760 249.802,233.200 250.200 C 233.640 250.598,234.000 251.172,234.000 251.475 C 234.000 251.777,234.270 252.129,234.600 252.255 C 234.930 252.382,235.200 252.723,235.200 253.012 C 235.200 253.302,235.619 254.047,236.132 254.669 C 236.644 255.291,237.179 256.115,237.319 256.500 C 237.460 256.885,237.761 257.200,237.987 257.200 C 238.214 257.200,238.400 257.415,238.400 257.678 C 238.400 258.211,240.424 261.322,240.910 261.537 C 241.080 261.612,241.476 262.287,241.790 263.037 C 242.103 263.786,242.548 264.400,242.780 264.400 C 243.011 264.400,243.200 264.766,243.200 265.213 C 243.200 265.659,243.477 266.131,243.815 266.261 C 244.153 266.391,244.689 267.060,245.007 267.749 C 245.710 269.273,246.376 270.294,247.300 271.265 C 247.685 271.669,248.000 272.260,248.000 272.577 C 248.000 272.895,248.315 273.393,248.700 273.683 C 249.469 274.264,250.188 275.305,250.798 276.717 C 251.468 278.270,253.364 280.400,254.076 280.400 C 254.448 280.400,254.864 280.580,255.000 280.800 C 255.348 281.364,285.180 281.340,286.666 280.775 C 287.281 280.541,287.920 280.136,288.086 279.875 C 288.527 279.182,288.456 263.108,288.009 262.400 C 287.694 261.901,285.890 261.766,277.259 261.600 L 266.888 261.400 266.036 260.400 C 265.567 259.850,264.913 258.905,264.582 258.300 C 264.250 257.695,263.844 257.200,263.677 257.200 C 263.511 257.200,263.152 256.705,262.880 256.100 C 261.963 254.066,261.159 252.800,260.784 252.800 C 260.578 252.800,260.148 252.170,259.826 251.400 C 259.504 250.630,259.052 250.000,258.820 250.000 C 258.589 250.000,258.400 249.646,258.400 249.214 C 258.400 248.782,258.040 248.235,257.600 248.000 C 257.160 247.765,256.800 247.336,256.800 247.048 C 256.800 246.760,256.440 246.198,256.000 245.800 C 255.560 245.402,255.200 244.938,255.200 244.769 C 255.200 244.425,251.704 239.130,251.264 238.807 C 250.824 238.485,249.455 236.318,248.921 235.100 C 248.656 234.495,248.250 234.000,248.019 234.000 C 247.789 234.000,247.600 233.732,247.600 233.403 C 247.600 233.075,247.240 232.582,246.800 232.307 C 246.360 232.032,246.000 231.491,246.000 231.104 C 246.000 230.717,245.640 230.040,245.200 229.600 C 244.760 229.160,244.400 228.614,244.400 228.387 C 244.400 228.161,244.123 227.869,243.785 227.739 C 243.447 227.609,242.902 226.940,242.574 226.251 C 241.689 224.392,241.075 223.418,240.297 222.640 C 239.914 222.257,239.600 221.687,239.600 221.375 C 239.600 221.062,239.240 220.582,238.800 220.307 C 238.360 220.032,238.000 219.485,238.000 219.091 C 238.000 218.697,237.730 218.271,237.400 218.145 C 237.070 218.018,236.800 217.709,236.800 217.457 C 236.799 217.206,236.349 216.477,235.800 215.838 C 235.250 215.199,234.800 214.434,234.800 214.138 C 234.800 213.842,234.530 213.600,234.200 213.600 C 233.870 213.600,233.600 213.400,233.600 213.156 C 233.600 212.538,231.140 208.800,230.733 208.800 C 230.550 208.800,230.400 208.564,230.400 208.275 C 230.400 207.987,230.040 207.364,229.600 206.892 C 229.160 206.420,228.800 205.757,228.800 205.420 C 228.800 205.083,228.440 204.582,228.000 204.307 C 227.560 204.032,227.200 203.609,227.200 203.366 C 227.200 203.123,226.840 202.598,226.400 202.200 C 225.960 201.802,225.600 201.256,225.600 200.987 C 225.600 200.718,225.311 200.258,224.958 199.965 C 224.605 199.673,224.157 199.065,223.962 198.616 C 223.768 198.167,223.314 197.395,222.955 196.900 C 222.325 196.031,222.338 196.000,223.332 196.000 C 224.525 196.000,226.400 195.227,226.400 194.736 C 226.400 194.551,226.916 194.400,227.546 194.400 C 228.176 194.400,229.121 194.067,229.646 193.661 C 230.171 193.255,231.117 192.796,231.748 192.641 C 232.380 192.487,233.158 192.099,233.477 191.780 C 233.796 191.461,234.376 191.200,234.767 191.200 C 235.157 191.200,235.802 190.840,236.200 190.400 C 236.598 189.960,237.138 189.600,237.400 189.600 C 237.662 189.600,238.202 189.240,238.600 188.800 C 238.998 188.360,239.521 187.997,239.762 187.994 C 240.003 187.991,240.996 187.271,241.968 186.394 C 242.940 185.517,243.885 184.800,244.068 184.800 C 244.251 184.800,244.400 184.530,244.400 184.200 C 244.400 183.870,244.594 183.600,244.831 183.600 C 245.391 183.600,247.600 181.391,247.600 180.831 C 247.600 180.594,247.876 180.400,248.213 180.400 C 248.549 180.400,248.936 180.110,249.072 179.756 C 249.208 179.402,249.760 178.637,250.298 178.056 C 251.588 176.665,253.457 173.880,253.777 172.874 C 253.917 172.433,254.294 171.854,254.615 171.587 C 254.937 171.320,255.200 170.747,255.200 170.314 C 255.200 169.881,255.560 169.069,256.000 168.509 C 256.440 167.950,256.801 167.111,256.803 166.646 C 256.804 166.181,257.163 165.260,257.600 164.600 C 258.114 163.825,258.396 162.723,258.397 161.486 C 258.399 160.341,258.681 159.143,259.100 158.504 C 259.719 157.559,259.800 156.293,259.800 147.600 C 259.800 138.907,259.719 137.641,259.100 136.696 C 258.710 136.101,258.399 134.869,258.397 133.914 C 258.396 132.877,258.081 131.726,257.600 131.000 C 257.163 130.340,256.804 129.468,256.803 129.063 C 256.801 128.658,256.440 127.869,256.000 127.309 C 255.560 126.750,255.200 125.951,255.200 125.534 C 255.200 125.116,254.946 124.678,254.636 124.559 C 254.326 124.439,253.952 123.862,253.804 123.274 C 253.657 122.687,253.289 121.935,252.987 121.603 C 252.684 121.271,252.069 120.595,251.619 120.100 C 251.168 119.605,250.800 119.054,250.800 118.875 C 250.800 118.098,244.091 112.000,243.237 112.000 C 242.997 112.000,242.800 111.742,242.800 111.427 C 242.800 111.112,242.422 110.734,241.961 110.587 C 241.499 110.441,240.779 109.979,240.361 109.561 C 239.942 109.142,239.330 108.800,239.000 108.800 C 238.670 108.800,238.040 108.440,237.600 108.000 C 237.160 107.560,236.462 107.200,236.049 107.200 C 235.636 107.200,235.083 106.942,234.821 106.626 C 234.559 106.310,233.772 105.930,233.072 105.781 C 232.373 105.633,231.507 105.253,231.150 104.938 C 230.792 104.623,229.802 104.255,228.950 104.119 C 228.097 103.984,227.040 103.642,226.600 103.360 C 226.160 103.079,224.810 102.723,223.600 102.571 C 222.390 102.418,221.147 102.093,220.839 101.847 C 220.530 101.601,218.370 101.179,216.039 100.910 C 213.707 100.640,210.720 100.251,209.400 100.044 C 206.455 99.582,196.598 99.589,193.600 100.054 M211.060 101.196 C 213.732 101.404,216.972 101.838,218.260 102.160 C 219.547 102.482,221.410 102.923,222.400 103.139 C 225.485 103.814,228.665 104.777,229.856 105.399 C 230.485 105.727,231.216 105.996,231.481 105.998 C 231.966 106.000,237.004 108.554,239.600 110.113 C 248.633 115.538,256.353 126.366,258.057 136.000 C 258.271 137.210,258.661 139.190,258.923 140.400 C 259.536 143.228,259.528 151.953,258.910 154.800 C 258.648 156.010,258.261 158.080,258.050 159.400 C 257.503 162.830,256.066 166.840,253.895 171.000 C 253.110 172.504,252.717 173.131,250.189 176.908 C 248.580 179.313,242.818 184.921,240.200 186.632 C 238.880 187.494,237.620 188.346,237.400 188.524 C 235.532 190.036,229.856 192.822,224.600 194.808 C 221.313 196.050,221.350 195.860,223.699 199.479 C 226.556 203.882,232.118 212.154,232.386 212.400 C 232.613 212.608,240.292 223.951,241.005 225.130 C 241.949 226.692,243.040 228.252,243.697 228.975 C 244.084 229.402,244.400 229.968,244.400 230.233 C 244.400 230.498,244.670 230.818,245.000 230.945 C 245.330 231.071,245.600 231.368,245.600 231.605 C 245.600 231.841,246.320 233.009,247.200 234.200 C 248.080 235.391,248.800 236.456,248.800 236.565 C 248.800 236.815,250.239 238.932,251.755 240.912 C 252.391 241.742,253.471 243.309,254.155 244.395 C 255.420 246.400,261.522 255.469,262.099 256.200 C 262.273 256.420,262.906 257.351,263.507 258.268 C 264.108 259.186,265.096 260.491,265.703 261.168 L 266.806 262.400 277.016 262.400 C 289.149 262.400,287.800 261.299,287.800 271.200 C 287.800 275.270,287.671 278.915,287.513 279.300 C 287.140 280.206,255.037 280.398,253.944 279.500 C 253.609 279.225,250.296 274.410,246.581 268.800 C 242.867 263.190,239.725 258.510,239.599 258.400 C 239.473 258.290,238.791 257.300,238.082 256.200 C 237.374 255.100,236.611 253.930,236.387 253.600 C 236.162 253.270,235.028 251.560,233.865 249.800 C 232.703 248.040,230.817 245.219,229.676 243.531 C 228.534 241.842,227.600 240.287,227.600 240.073 C 227.600 239.860,227.330 239.582,227.000 239.455 C 226.670 239.329,226.400 238.977,226.400 238.675 C 226.400 238.372,226.040 237.798,225.600 237.400 C 225.160 237.002,224.800 236.530,224.800 236.352 C 224.800 236.174,224.254 235.257,223.587 234.314 C 222.920 233.371,222.132 232.240,221.836 231.800 C 220.460 229.752,217.359 225.035,217.000 224.444 C 216.191 223.113,205.426 206.993,205.217 206.800 C 205.097 206.690,204.110 205.250,203.021 203.600 C 199.811 198.733,201.615 199.200,186.017 199.200 L 172.400 199.200 172.400 230.553 L 172.400 261.907 173.300 262.148 C 173.795 262.281,179.986 262.392,187.057 262.395 C 198.409 262.399,199.943 262.474,200.157 263.033 C 200.639 264.288,200.427 279.013,199.920 279.520 C 199.224 280.216,129.576 280.216,128.880 279.520 C 128.202 278.842,128.202 263.558,128.880 262.880 C 129.229 262.531,132.220 262.400,139.830 262.400 C 145.588 262.400,150.863 262.287,151.551 262.150 L 152.802 261.900 152.701 191.465 L 152.600 121.030 151.200 120.747 C 148.223 120.145,141.656 119.222,138.600 118.976 C 134.530 118.648,129.626 117.719,128.934 117.145 C 128.207 116.542,128.158 102.402,128.880 101.680 C 129.542 101.018,131.780 101.079,134.616 101.836 C 142.933 104.056,160.488 104.961,168.800 103.599 C 170.010 103.401,173.306 103.050,176.123 102.819 C 178.941 102.588,182.001 102.214,182.923 101.987 C 186.795 101.032,203.075 100.575,211.060 101.196 M188.400 119.174 C 185.430 119.337,181.650 119.675,180.000 119.925 C 178.350 120.175,175.965 120.487,174.700 120.619 L 172.400 120.858 172.400 151.039 L 172.400 181.220 173.426 181.610 C 176.870 182.919,204.445 181.594,210.787 179.814 C 211.990 179.476,213.275 179.200,213.641 179.200 C 214.008 179.200,214.824 178.931,215.454 178.602 C 216.084 178.274,216.870 178.000,217.200 177.995 C 217.936 177.983,223.946 174.995,226.384 173.429 C 234.398 168.284,239.264 158.040,238.654 147.600 C 238.014 136.636,232.835 127.707,224.800 123.712 C 224.250 123.439,223.530 123.052,223.200 122.853 C 217.691 119.527,205.469 118.235,188.400 119.174 M210.938 120.200 C 211.728 120.530,213.325 120.801,214.487 120.803 C 215.923 120.804,216.985 121.060,217.800 121.600 C 218.460 122.037,219.422 122.396,219.937 122.397 C 220.452 122.399,221.331 122.760,221.891 123.200 C 222.450 123.640,223.170 124.000,223.491 124.000 C 223.811 124.000,224.531 124.360,225.091 124.800 C 225.650 125.240,226.423 125.600,226.807 125.600 C 227.192 125.600,227.601 125.960,227.716 126.400 C 227.831 126.840,228.191 127.200,228.516 127.200 C 228.841 127.200,229.201 127.560,229.316 128.000 C 229.431 128.440,229.812 128.800,230.163 128.800 C 230.513 128.800,230.800 129.058,230.800 129.373 C 230.800 129.688,231.141 130.054,231.557 130.186 C 231.973 130.318,232.427 130.736,232.566 131.113 C 232.705 131.491,233.261 132.520,233.800 133.400 C 234.955 135.284,235.600 136.679,235.600 137.295 C 235.600 137.538,235.870 138.035,236.200 138.400 C 237.855 140.228,237.867 157.790,236.216 159.442 C 235.877 159.780,235.600 160.470,235.600 160.975 C 235.600 161.479,235.240 162.350,234.800 162.909 C 234.360 163.469,234.000 164.045,234.000 164.190 C 234.000 165.299,226.702 172.800,225.623 172.800 C 225.415 172.800,225.010 173.136,224.723 173.546 C 224.435 173.957,223.603 174.424,222.873 174.584 C 222.143 174.744,221.449 175.128,221.330 175.438 C 221.212 175.747,220.618 176.000,220.011 176.000 C 219.404 176.000,218.450 176.360,217.891 176.800 C 217.331 177.240,216.362 177.601,215.737 177.601 C 215.112 177.602,214.011 177.962,213.290 178.401 C 212.439 178.921,211.250 179.206,209.890 179.218 C 208.741 179.227,207.080 179.531,206.200 179.893 C 204.831 180.457,202.330 180.573,188.892 180.697 L 173.185 180.843 173.292 151.255 C 173.352 134.981,173.548 121.518,173.730 121.337 C 173.911 121.156,177.061 120.889,180.730 120.744 C 184.398 120.599,187.850 120.293,188.400 120.065 C 190.099 119.361,209.203 119.475,210.938 120.200 " stroke="none" fill="#7eb4dc" fill-rule="evenodd"></path><path id="path4" d="M192.189 101.625 C 189.543 101.794,186.303 102.118,184.989 102.345 C 183.675 102.571,181.340 102.865,179.800 102.997 C 178.260 103.130,174.660 103.537,171.800 103.902 C 159.844 105.427,143.915 104.635,132.129 101.929 C 128.860 101.179,128.800 101.303,128.800 108.823 C 128.800 112.302,128.972 115.600,129.182 116.152 C 129.605 117.266,129.436 117.222,137.000 118.181 C 148.485 119.637,151.256 120.041,152.199 120.400 L 153.200 120.780 153.200 191.366 C 153.200 247.396,153.097 262.020,152.700 262.276 C 152.425 262.454,147.107 262.655,140.881 262.723 L 129.563 262.846 129.157 263.914 C 128.484 265.683,128.863 278.744,129.600 279.209 C 130.340 279.676,198.775 279.731,199.509 279.265 C 199.899 279.017,199.992 277.081,199.909 270.971 L 199.800 263.000 186.000 262.777 C 178.410 262.654,172.155 262.519,172.100 262.477 C 171.671 262.148,172.067 199.204,172.500 198.924 C 173.291 198.412,199.033 198.283,199.974 198.786 C 200.674 199.160,204.018 203.851,208.400 210.603 C 210.288 213.512,216.954 223.506,218.003 225.000 C 218.994 226.411,231.342 244.939,232.800 247.203 C 233.350 248.057,237.396 254.120,241.791 260.678 C 246.186 267.235,249.966 272.915,250.191 273.299 C 251.175 274.980,253.802 278.643,254.352 279.100 C 255.093 279.716,285.832 279.820,286.800 279.209 C 287.537 278.744,287.916 265.683,287.244 263.916 L 286.839 262.849 276.396 262.725 L 265.953 262.600 265.174 261.600 C 264.746 261.050,262.702 258.080,260.633 255.000 C 254.596 246.014,243.317 229.408,236.635 219.667 C 235.076 217.393,233.620 215.233,233.400 214.867 C 233.180 214.500,232.390 213.332,231.645 212.272 C 220.201 195.983,220.057 195.619,224.508 194.185 C 243.262 188.142,256.476 172.496,258.375 154.084 C 262.039 118.573,237.038 98.757,192.189 101.625 M135.852 103.404 C 137.143 103.554,139.460 103.975,141.000 104.339 C 145.069 105.300,168.305 105.278,174.400 104.307 C 176.710 103.939,180.220 103.524,182.200 103.384 C 184.180 103.245,187.510 102.877,189.600 102.568 C 204.032 100.429,225.022 103.353,234.800 108.864 C 235.130 109.050,235.760 109.360,236.200 109.554 C 244.189 113.065,253.761 124.319,255.995 132.827 C 256.251 133.802,256.752 135.410,257.108 136.400 C 258.336 139.820,258.042 155.615,256.658 160.501 C 253.297 172.374,247.428 180.435,237.129 187.323 C 233.861 189.509,226.930 192.889,224.600 193.433 C 219.500 194.624,219.380 195.578,223.585 201.514 C 224.253 202.457,224.800 203.331,224.800 203.456 C 224.800 203.582,225.253 204.250,225.806 204.942 C 227.269 206.771,227.045 206.446,231.775 213.600 C 234.174 217.230,236.377 220.400,236.669 220.644 C 236.961 220.888,237.201 221.248,237.202 221.444 C 237.203 221.640,237.923 222.749,238.802 223.908 C 239.681 225.068,240.400 226.087,240.400 226.173 C 240.400 226.351,246.960 236.152,247.950 237.454 C 248.804 238.575,249.432 239.487,250.729 241.487 C 252.701 244.526,256.551 250.198,256.779 250.400 C 256.903 250.510,258.776 253.258,260.941 256.507 C 265.792 263.786,264.487 263.200,275.842 263.200 C 287.865 263.200,286.804 262.428,286.787 271.162 C 286.770 280.185,288.767 279.200,270.491 279.200 L 255.271 279.200 254.336 278.056 C 253.821 277.426,253.178 276.571,252.906 276.156 C 252.634 275.740,251.471 273.960,250.321 272.200 C 249.171 270.440,248.126 268.910,248.000 268.800 C 247.874 268.690,247.197 267.700,246.496 266.600 C 245.795 265.500,245.077 264.420,244.901 264.200 C 244.117 263.221,233.373 246.947,233.145 246.392 C 233.004 246.051,232.599 245.531,232.245 245.237 C 231.890 244.943,231.600 244.563,231.600 244.393 C 231.600 244.123,229.597 241.054,225.992 235.800 C 225.388 234.920,224.201 233.120,223.354 231.800 C 222.507 230.480,221.675 229.220,221.506 229.000 C 220.578 227.793,218.301 224.413,217.600 223.200 C 216.897 221.984,214.611 218.590,213.693 217.400 C 213.524 217.180,212.808 216.100,212.103 215.000 C 211.398 213.900,210.678 212.820,210.502 212.600 C 210.327 212.380,208.149 209.140,205.663 205.400 C 203.177 201.660,200.840 198.478,200.471 198.328 C 198.897 197.690,172.490 197.967,171.829 198.629 C 170.870 199.587,170.870 261.613,171.829 262.571 C 172.374 263.117,174.167 263.200,185.400 263.200 C 196.633 263.200,198.426 263.283,198.971 263.829 C 199.723 264.580,199.907 277.080,199.186 278.426 C 198.781 279.182,197.973 279.200,164.433 279.200 L 130.093 279.200 129.852 278.300 C 129.438 276.756,129.573 264.797,130.014 263.974 C 130.408 263.237,130.964 263.200,141.565 263.200 C 150.450 263.200,152.793 263.090,153.152 262.658 C 153.483 262.259,153.575 243.273,153.501 191.163 L 153.400 120.211 152.269 119.669 C 151.648 119.371,148.648 118.878,145.603 118.573 C 142.559 118.268,139.288 117.852,138.334 117.648 C 137.380 117.444,135.160 117.151,133.400 116.997 C 129.425 116.647,129.613 117.011,129.606 109.674 C 129.599 102.341,129.773 101.814,131.955 102.584 C 132.807 102.885,134.560 103.253,135.852 103.404 M193.600 117.629 C 191.730 117.802,187.140 118.142,183.400 118.385 C 175.752 118.882,172.679 119.378,171.800 120.257 C 170.721 121.336,170.914 181.314,172.000 182.400 C 172.882 183.282,194.925 183.597,200.800 182.811 C 205.713 182.154,211.001 181.212,212.000 180.816 C 212.550 180.598,213.720 180.245,214.600 180.032 C 215.480 179.819,217.055 179.344,218.099 178.976 C 219.817 178.370,220.870 177.847,225.672 175.218 C 229.557 173.091,234.894 167.473,236.709 163.600 C 240.630 155.231,240.615 141.428,236.676 134.247 C 229.677 121.487,214.641 115.686,193.600 117.629 M211.196 118.843 C 224.413 120.412,234.680 128.132,237.678 138.757 C 242.901 157.262,234.725 172.866,216.800 178.603 C 206.086 182.033,201.545 182.601,185.443 182.523 C 175.328 182.475,172.616 182.352,172.349 181.931 C 171.842 181.132,171.905 120.906,172.413 120.592 C 172.640 120.452,174.485 120.087,176.513 119.782 C 179.691 119.304,183.143 119.050,197.400 118.243 C 200.570 118.064,206.972 118.342,211.196 118.843 " stroke="none" fill="#bcd4ec" fill-rule="evenodd"></path></g></svg>