<svg id="svg" version="1.1" xmlns="http://www.w3.org/2000/svg" xmlns:xlink="http://www.w3.org/1999/xlink" width="400" height="400" viewBox="0, 0, 400,400"><g id="svgg"><path id="path0" d="M323.107 8.000 C 322.756 8.563,322.174 8.800,321.147 8.800 C 320.284 8.800,319.600 9.023,319.477 9.344 C 319.361 9.647,318.367 10.007,317.234 10.158 C 315.904 10.334,315.200 10.618,315.200 10.979 C 315.200 11.310,314.562 11.638,313.600 11.800 C 312.616 11.966,312.000 12.288,312.000 12.635 C 312.000 12.946,311.623 13.200,311.163 13.200 C 310.662 13.200,310.241 13.521,310.116 14.000 C 309.966 14.574,309.570 14.800,308.716 14.800 C 307.862 14.800,307.466 15.026,307.316 15.600 C 307.200 16.043,306.770 16.400,306.353 16.400 C 305.881 16.400,305.600 16.682,305.600 17.155 C 305.600 17.702,305.213 17.984,304.200 18.174 C 303.362 18.331,302.800 18.670,302.800 19.018 C 302.800 19.342,302.429 19.600,301.963 19.600 C 301.462 19.600,301.041 19.921,300.916 20.400 C 300.800 20.843,300.370 21.200,299.953 21.200 C 299.467 21.200,299.200 21.483,299.200 22.000 C 299.200 22.440,298.974 22.800,298.697 22.800 C 298.421 22.800,297.964 23.540,297.682 24.444 C 297.313 25.627,296.237 26.999,293.841 29.344 C 292.010 31.135,290.062 33.320,289.511 34.200 C 288.960 35.080,287.629 36.733,286.554 37.873 C 282.615 42.051,281.600 43.195,281.600 43.461 C 281.600 43.611,281.327 44.018,280.993 44.366 C 280.659 44.715,279.471 46.170,278.354 47.600 C 277.236 49.030,276.187 50.290,276.021 50.400 C 275.855 50.510,275.487 51.050,275.202 51.600 C 274.918 52.150,273.856 53.681,272.842 55.001 C 271.829 56.322,270.820 57.699,270.600 58.061 C 270.380 58.423,269.255 60.102,268.100 61.793 C 266.945 63.484,266.000 65.004,266.000 65.172 C 266.000 65.339,265.640 65.802,265.200 66.200 C 264.760 66.598,264.400 67.107,264.400 67.330 C 264.400 67.554,264.101 68.067,263.736 68.471 C 262.985 69.301,262.292 70.432,261.434 72.232 C 261.111 72.909,260.566 73.696,260.223 73.981 C 259.880 74.265,259.600 74.733,259.600 75.020 C 259.600 75.308,259.373 75.781,259.095 76.071 C 258.818 76.362,258.364 77.050,258.087 77.600 C 257.811 78.150,257.150 79.320,256.620 80.200 C 255.630 81.842,254.989 83.007,253.537 85.800 C 253.080 86.680,252.592 87.490,252.453 87.600 C 252.314 87.710,251.302 89.600,250.205 91.800 C 249.108 94.000,248.103 95.890,247.972 96.000 C 247.841 96.110,247.247 97.280,246.652 98.600 C 246.056 99.920,245.396 101.270,245.184 101.600 C 244.972 101.930,244.619 102.650,244.399 103.200 C 244.180 103.750,243.820 104.470,243.599 104.800 C 243.379 105.130,243.012 105.850,242.785 106.400 C 242.261 107.672,240.779 110.815,240.335 111.600 C 240.148 111.930,239.883 112.470,239.747 112.800 C 239.610 113.130,239.071 114.334,238.549 115.475 C 238.027 116.617,237.600 117.810,237.600 118.126 C 237.600 118.443,237.330 118.926,237.000 119.200 C 236.670 119.474,236.399 119.991,236.399 120.349 C 236.398 120.707,236.038 121.589,235.599 122.310 C 235.159 123.030,234.800 123.843,234.800 124.116 C 234.800 124.389,234.440 125.284,234.000 126.104 C 233.560 126.925,233.199 127.913,233.197 128.299 C 233.196 128.684,232.837 129.540,232.400 130.200 C 231.963 130.860,231.604 131.650,231.603 131.956 C 231.601 132.262,231.262 133.252,230.849 134.156 C 229.709 136.652,228.400 140.155,228.400 140.709 C 228.400 140.981,228.040 141.875,227.600 142.696 C 227.160 143.516,226.800 144.506,226.800 144.896 C 226.800 145.285,226.440 146.275,226.000 147.096 C 225.560 147.916,225.200 148.924,225.200 149.334 C 225.200 149.744,224.936 150.646,224.614 151.340 C 224.292 152.033,223.854 153.320,223.641 154.200 C 223.428 155.080,222.953 156.700,222.585 157.800 C 222.217 158.900,221.738 160.340,221.520 161.000 C 221.302 161.660,220.902 163.190,220.631 164.400 C 220.360 165.610,219.945 166.960,219.709 167.400 C 219.472 167.840,219.148 169.100,218.988 170.200 C 218.827 171.300,218.459 172.667,218.170 173.237 C 217.881 173.808,217.518 175.248,217.363 176.437 C 217.208 177.627,216.850 179.264,216.568 180.075 C 215.539 183.025,215.422 186.941,216.304 188.860 C 218.421 193.465,221.320 201.477,221.999 204.600 C 222.191 205.480,222.629 206.869,222.974 207.687 C 223.751 209.534,223.778 211.354,223.037 211.969 C 222.578 212.350,222.384 212.157,221.985 210.918 C 221.716 210.083,221.323 209.182,221.112 208.915 C 220.741 208.448,218.904 205.120,217.184 201.800 C 216.728 200.920,215.925 199.480,215.398 198.600 C 214.872 197.720,214.256 196.595,214.030 196.100 C 213.323 194.550,211.200 196.157,211.200 198.243 C 211.200 198.758,210.862 199.948,210.448 200.889 C 210.035 201.830,209.289 203.950,208.790 205.600 C 208.291 207.250,207.613 209.432,207.281 210.449 C 206.710 212.202,206.725 212.398,207.578 214.249 C 208.072 215.322,208.710 216.740,208.995 217.400 C 209.280 218.060,209.893 219.430,210.357 220.444 C 210.821 221.458,211.200 222.505,211.200 222.770 C 211.200 223.035,211.422 223.646,211.694 224.126 C 211.965 224.607,212.396 225.810,212.651 226.800 C 212.905 227.790,213.306 229.140,213.541 229.800 C 216.525 238.189,216.441 242.829,213.415 236.775 C 212.597 235.139,211.473 232.990,210.918 232.000 C 208.179 227.123,206.759 224.500,206.314 223.499 C 205.282 221.180,203.764 221.598,203.374 224.309 C 203.224 225.349,202.863 226.784,202.572 227.497 C 202.282 228.210,201.859 230.119,201.634 231.739 C 201.408 233.359,201.025 235.205,200.781 235.842 C 199.776 238.467,200.138 243.193,201.544 245.800 C 202.255 247.120,203.281 249.550,203.824 251.200 C 204.366 252.850,205.003 254.740,205.239 255.400 C 205.882 257.195,207.143 261.907,207.648 264.400 C 207.893 265.610,208.331 267.410,208.622 268.400 C 208.913 269.390,209.330 271.315,209.550 272.678 C 209.769 274.041,210.122 275.481,210.334 275.878 C 210.546 276.275,210.841 277.680,210.991 279.000 C 211.140 280.320,211.504 282.210,211.801 283.200 C 212.097 284.190,212.461 286.251,212.610 287.780 C 212.759 289.310,213.048 290.999,213.251 291.535 C 213.455 292.071,213.881 294.330,214.197 296.555 C 214.514 298.780,214.954 301.410,215.175 302.400 C 215.422 303.502,215.487 307.767,215.343 313.400 C 215.214 318.460,215.312 328.611,215.562 335.958 C 215.962 347.746,215.944 349.426,215.408 350.244 C 214.461 351.689,214.583 356.416,215.600 357.709 C 216.308 358.609,216.400 359.332,216.400 364.001 C 216.400 368.938,216.451 369.288,217.200 369.484 C 217.939 369.677,218.000 370.030,218.000 374.084 C 218.000 378.138,218.061 378.491,218.800 378.684 C 219.510 378.870,219.600 379.230,219.600 381.884 C 219.600 384.538,219.690 384.898,220.400 385.084 C 221.086 385.263,221.200 385.630,221.200 387.647 C 221.200 389.467,221.381 390.181,222.000 390.800 C 222.440 391.240,222.800 391.878,222.800 392.218 C 222.800 392.728,223.302 392.815,225.700 392.718 L 228.600 392.600 228.723 390.669 C 228.830 389.000,228.734 388.708,228.023 388.522 C 227.310 388.335,227.200 387.992,227.200 385.953 C 227.200 383.867,227.109 383.600,226.400 383.600 C 225.660 383.600,225.600 383.333,225.600 380.020 C 225.600 377.361,225.455 376.357,225.037 376.120 C 224.623 375.885,224.438 374.668,224.337 371.517 C 224.227 368.089,224.066 367.130,223.529 366.717 C 222.944 366.267,222.841 365.073,222.729 357.468 C 222.614 349.703,222.522 348.678,221.900 348.223 C 221.267 347.760,221.200 346.787,221.200 337.987 C 221.200 329.287,221.274 328.182,221.900 327.490 C 222.519 326.807,222.615 325.578,222.726 316.884 C 222.838 308.218,222.933 306.991,223.526 306.558 C 224.101 306.138,224.220 305.089,224.334 299.433 C 224.444 294.046,224.575 292.800,225.034 292.800 C 225.494 292.800,225.600 291.787,225.600 287.400 C 225.600 282.267,225.640 282.000,226.400 282.000 C 227.147 282.000,227.200 281.733,227.200 278.000 C 227.200 274.848,227.318 274.000,227.757 274.000 C 228.614 274.000,228.800 273.067,228.800 268.767 C 228.800 265.067,228.854 264.800,229.600 264.800 C 230.332 264.800,230.400 264.533,230.400 261.662 C 230.400 259.032,230.530 258.407,231.200 257.800 C 231.866 257.197,232.000 256.568,232.000 254.034 C 232.000 251.426,232.114 250.921,232.800 250.493 C 233.467 250.077,233.600 249.560,233.600 247.397 C 233.600 245.333,233.764 244.636,234.400 244.000 C 235.036 243.364,235.200 242.667,235.200 240.600 C 235.200 238.644,235.338 238.000,235.757 238.000 C 236.531 238.000,236.800 237.101,236.800 234.511 C 236.800 232.875,236.981 232.156,237.484 231.788 C 237.986 231.421,238.211 230.536,238.328 228.479 C 238.460 226.137,238.612 225.638,239.243 225.473 C 239.872 225.308,240.000 224.896,240.000 223.037 C 240.000 221.399,240.148 220.800,240.553 220.800 C 241.257 220.800,241.588 219.561,241.595 216.900 C 241.599 215.302,241.744 214.800,242.200 214.800 C 242.667 214.800,242.800 214.267,242.800 212.400 C 242.800 210.267,242.889 210.000,243.600 210.000 C 244.305 210.000,244.400 209.733,244.400 207.763 C 244.400 205.862,244.520 205.494,245.200 205.316 C 245.869 205.141,246.000 204.770,246.000 203.050 C 246.000 201.426,246.168 200.887,246.800 200.493 C 247.426 200.102,247.600 199.560,247.600 197.997 C 247.600 196.557,247.755 196.000,248.157 196.000 C 248.874 196.000,249.200 195.123,249.200 193.194 C 249.200 192.005,249.382 191.596,250.000 191.400 C 250.611 191.206,250.800 190.795,250.800 189.662 C 250.800 188.673,251.067 187.949,251.600 187.493 C 252.146 187.026,252.400 186.313,252.400 185.251 C 252.400 184.030,252.573 183.648,253.200 183.484 C 253.829 183.320,254.000 182.938,254.000 181.699 C 254.000 180.632,254.258 179.891,254.800 179.400 C 255.327 178.923,255.600 178.168,255.600 177.185 C 255.600 176.030,255.780 175.646,256.400 175.484 C 257.013 175.324,257.200 174.938,257.200 173.837 C 257.200 172.826,257.378 172.400,257.800 172.400 C 258.244 172.400,258.400 171.934,258.400 170.603 C 258.400 169.240,258.593 168.686,259.200 168.307 C 259.770 167.951,260.000 167.374,260.000 166.304 C 260.000 165.067,260.142 164.800,260.800 164.800 C 261.467 164.800,261.600 164.533,261.600 163.200 C 261.600 161.867,261.733 161.600,262.400 161.600 C 263.063 161.600,263.200 161.333,263.200 160.047 C 263.200 158.830,263.373 158.448,264.000 158.284 C 264.599 158.127,264.800 157.738,264.800 156.734 C 264.800 155.826,265.058 155.231,265.600 154.893 C 266.091 154.586,266.400 153.960,266.400 153.272 C 266.400 152.655,266.760 151.764,267.200 151.292 C 267.688 150.769,268.000 149.881,268.000 149.017 C 268.000 147.867,268.151 147.600,268.800 147.600 C 269.467 147.600,269.600 147.333,269.600 146.000 C 269.600 144.667,269.733 144.400,270.400 144.400 C 271.042 144.400,271.200 144.133,271.200 143.047 C 271.200 142.030,271.399 141.641,272.000 141.484 C 272.606 141.325,272.800 140.938,272.800 139.884 C 272.800 138.830,272.994 138.443,273.600 138.284 C 274.128 138.146,274.400 137.738,274.400 137.086 C 274.400 136.543,274.670 135.874,275.000 135.600 C 275.330 135.326,275.600 134.714,275.600 134.240 C 275.600 133.766,275.960 133.070,276.400 132.693 C 276.840 132.316,277.200 131.689,277.200 131.300 C 277.200 130.911,277.560 130.368,278.000 130.093 C 278.499 129.781,278.800 129.160,278.800 128.443 C 278.800 127.630,279.034 127.232,279.600 127.084 C 280.178 126.933,280.400 126.538,280.400 125.664 C 280.400 124.805,280.632 124.380,281.200 124.200 C 281.788 124.013,282.000 123.595,282.000 122.620 C 282.000 121.630,282.203 121.240,282.800 121.084 C 283.413 120.924,283.600 120.538,283.600 119.437 C 283.600 118.267,283.748 118.000,284.400 118.000 C 284.897 118.000,285.200 117.733,285.200 117.296 C 285.200 116.909,285.560 116.368,286.000 116.093 C 286.510 115.774,286.800 115.160,286.800 114.397 C 286.800 113.640,287.005 113.200,287.357 113.200 C 288.002 113.200,288.400 112.348,288.400 110.967 C 288.400 110.267,288.621 110.000,289.200 110.000 C 289.718 110.000,290.000 109.733,290.000 109.243 C 290.000 108.826,290.253 108.388,290.562 108.270 C 290.872 108.151,291.243 107.517,291.387 106.860 C 291.531 106.204,291.908 105.567,292.224 105.446 C 292.575 105.312,292.800 104.672,292.800 103.813 C 292.800 102.667,292.951 102.400,293.600 102.400 C 294.117 102.400,294.400 102.133,294.400 101.647 C 294.400 101.230,294.757 100.800,295.200 100.684 C 295.813 100.524,296.000 100.138,296.000 99.037 C 296.000 97.867,296.148 97.600,296.800 97.600 C 297.317 97.600,297.600 97.333,297.600 96.847 C 297.600 96.430,297.957 96.000,298.400 95.884 C 299.013 95.724,299.200 95.338,299.200 94.237 C 299.200 93.067,299.348 92.800,300.000 92.800 C 300.444 92.800,300.800 92.533,300.800 92.200 C 300.800 91.870,301.160 91.240,301.600 90.800 C 302.040 90.360,302.400 89.640,302.400 89.200 C 302.400 88.748,302.667 88.400,303.013 88.400 C 303.349 88.400,303.741 88.085,303.882 87.700 C 304.024 87.315,304.371 86.860,304.654 86.689 C 304.936 86.518,305.282 85.770,305.422 85.026 C 305.583 84.167,305.954 83.601,306.438 83.474 C 306.857 83.365,307.200 82.988,307.200 82.637 C 307.200 82.287,307.470 82.000,307.800 82.000 C 308.156 82.000,308.400 81.633,308.400 81.096 C 308.400 80.599,308.760 79.968,309.200 79.693 C 309.652 79.410,310.000 78.760,310.000 78.197 C 310.000 77.467,310.214 77.200,310.800 77.200 C 311.333 77.200,311.600 76.933,311.600 76.400 C 311.600 75.867,311.867 75.600,312.400 75.600 C 312.844 75.600,313.200 75.333,313.200 75.000 C 313.200 74.670,313.560 74.040,314.000 73.600 C 314.440 73.160,314.800 72.440,314.800 72.000 C 314.800 71.535,315.067 71.200,315.437 71.200 C 315.788 71.200,316.169 70.840,316.284 70.400 C 316.399 69.960,316.759 69.600,317.084 69.600 C 317.409 69.600,317.760 69.276,317.863 68.880 C 318.246 67.416,319.600 67.039,319.600 68.397 C 319.600 69.333,319.423 69.600,318.800 69.600 C 318.283 69.600,318.000 69.867,318.000 70.353 C 318.000 70.770,317.643 71.200,317.200 71.316 C 316.587 71.476,316.400 71.862,316.400 72.963 C 316.400 74.133,316.252 74.400,315.600 74.400 C 315.082 74.400,314.800 74.667,314.800 75.157 C 314.800 75.574,314.553 76.009,314.251 76.125 C 313.950 76.241,313.585 76.805,313.441 77.378 C 313.297 77.951,312.824 78.776,312.390 79.210 C 311.955 79.645,311.600 80.450,311.600 81.000 C 311.600 81.617,311.373 82.000,311.008 82.000 C 310.682 82.000,310.306 82.437,310.172 82.971 C 310.037 83.505,309.674 84.039,309.364 84.159 C 309.050 84.279,308.800 84.913,308.800 85.587 C 308.800 86.533,308.624 86.800,308.000 86.800 C 307.333 86.800,307.200 87.067,307.200 88.400 C 307.200 89.733,307.067 90.000,306.400 90.000 C 305.755 90.000,305.600 90.267,305.600 91.373 C 305.600 92.395,305.395 92.811,304.800 93.000 C 304.360 93.140,304.000 93.562,304.000 93.938 C 304.000 94.314,303.640 94.930,303.200 95.307 C 302.760 95.684,302.400 96.348,302.400 96.782 C 302.400 97.216,302.040 97.765,301.600 98.000 C 301.087 98.274,300.800 98.838,300.800 99.567 C 300.800 100.370,300.564 100.768,300.000 100.916 C 299.394 101.075,299.200 101.462,299.200 102.516 C 299.200 103.570,299.006 103.957,298.400 104.116 C 297.794 104.275,297.600 104.662,297.600 105.716 C 297.600 106.770,297.406 107.157,296.800 107.316 C 296.236 107.463,296.000 107.862,296.000 108.666 C 296.000 109.374,295.696 109.997,295.200 110.307 C 294.690 110.626,294.400 111.240,294.400 112.003 C 294.400 112.796,294.199 113.200,293.805 113.200 C 293.420 113.200,293.119 113.765,292.954 114.800 C 292.799 115.765,292.480 116.400,292.149 116.400 C 291.775 116.400,291.600 116.911,291.600 118.000 C 291.600 119.333,291.467 119.600,290.800 119.600 C 290.178 119.600,290.000 119.867,290.000 120.797 C 290.000 121.560,289.710 122.174,289.200 122.493 C 288.671 122.823,288.400 123.426,288.400 124.269 C 288.400 125.195,288.180 125.616,287.600 125.800 C 287.118 125.953,286.800 126.405,286.800 126.939 C 286.800 127.425,286.440 128.083,286.000 128.400 C 285.560 128.717,285.200 129.359,285.200 129.826 C 285.200 130.294,284.840 131.002,284.400 131.400 C 283.960 131.798,283.600 132.531,283.600 133.029 C 283.600 134.351,283.192 135.200,282.557 135.200 C 282.174 135.200,282.000 135.699,282.000 136.800 C 282.000 138.133,281.867 138.400,281.200 138.400 C 280.537 138.400,280.400 138.667,280.400 139.953 C 280.400 141.170,280.227 141.552,279.600 141.716 C 279.034 141.864,278.800 142.262,278.800 143.074 C 278.800 143.727,278.455 144.517,278.000 144.907 C 277.560 145.284,277.200 146.025,277.200 146.553 C 277.200 147.082,276.930 147.618,276.600 147.745 C 276.270 147.871,276.000 148.432,276.000 148.991 C 276.000 149.550,275.640 150.316,275.200 150.693 C 274.708 151.114,274.400 151.873,274.400 152.662 C 274.400 153.595,274.181 154.016,273.600 154.200 C 272.986 154.395,272.800 154.805,272.800 155.965 C 272.800 156.968,272.531 157.719,272.000 158.200 C 271.515 158.639,271.200 159.432,271.200 160.215 C 271.200 161.170,270.992 161.561,270.400 161.716 C 269.791 161.875,269.600 162.262,269.600 163.336 C 269.600 164.395,269.401 164.809,268.800 165.000 C 268.205 165.189,268.000 165.605,268.000 166.627 C 268.000 167.467,267.689 168.311,267.200 168.800 C 266.667 169.333,266.400 170.133,266.400 171.200 C 266.400 172.533,266.267 172.800,265.600 172.800 C 264.933 172.800,264.800 173.067,264.800 174.400 C 264.800 175.501,264.626 176.000,264.243 176.000 C 263.546 176.000,263.200 176.870,263.200 178.619 C 263.200 179.562,262.958 180.101,262.400 180.400 C 261.844 180.698,261.600 181.238,261.600 182.171 C 261.600 182.967,261.367 183.604,261.028 183.734 C 260.712 183.855,260.332 184.779,260.180 185.797 C 260.028 186.810,259.655 187.888,259.352 188.191 C 259.048 188.495,258.800 189.365,258.800 190.125 C 258.800 191.170,258.605 191.558,258.000 191.716 C 257.335 191.890,257.200 192.262,257.200 193.916 C 257.200 195.570,257.065 195.942,256.400 196.116 C 255.720 196.294,255.600 196.662,255.600 198.563 C 255.600 200.533,255.505 200.800,254.800 200.800 C 254.135 200.800,254.000 201.067,254.000 202.380 C 254.000 203.415,253.778 204.084,253.358 204.320 C 252.967 204.539,252.631 205.430,252.499 206.598 C 252.376 207.690,251.963 208.837,251.541 209.259 C 251.039 209.761,250.800 210.581,250.800 211.800 C 250.800 213.072,250.637 213.600,250.243 213.600 C 249.545 213.600,249.200 214.471,249.200 216.233 C 249.200 217.067,248.888 217.912,248.400 218.400 C 247.858 218.942,247.600 219.733,247.600 220.856 C 247.600 221.913,247.368 222.681,246.959 222.980 C 246.590 223.250,246.227 224.285,246.101 225.424 C 245.982 226.511,245.550 227.829,245.142 228.354 C 244.654 228.981,244.400 229.968,244.400 231.234 C 244.400 232.560,244.206 233.269,243.779 233.508 C 243.383 233.729,243.072 234.681,242.923 236.128 C 242.764 237.662,242.511 238.400,242.144 238.400 C 241.748 238.400,241.600 239.028,241.600 240.704 C 241.600 242.574,241.450 243.102,240.800 243.507 C 240.136 243.922,240.000 244.440,240.000 246.557 C 240.000 248.770,239.894 249.134,239.200 249.316 C 238.489 249.502,238.400 249.862,238.400 252.563 C 238.400 255.333,238.330 255.600,237.600 255.600 C 236.897 255.600,236.800 255.867,236.800 257.800 C 236.800 259.467,236.606 260.194,236.000 260.800 C 235.378 261.422,235.200 262.133,235.200 264.000 C 235.200 265.867,235.022 266.578,234.400 267.200 C 233.769 267.831,233.600 268.533,233.600 270.525 C 233.600 272.496,233.425 273.237,232.800 273.908 C 232.162 274.593,232.000 275.319,232.000 277.494 C 232.000 279.727,231.855 280.347,231.200 280.907 C 230.516 281.493,230.400 282.087,230.400 284.996 C 230.400 287.639,230.275 288.400,229.843 288.400 C 229.016 288.400,228.800 289.320,228.800 292.845 C 228.800 295.256,228.660 296.079,228.219 296.248 C 227.492 296.527,227.065 299.404,227.515 301.000 C 227.924 302.454,229.818 302.953,230.276 301.727 C 230.425 301.327,230.874 300.765,231.274 300.477 C 231.807 300.094,232.000 299.429,232.000 297.977 C 232.000 296.267,232.108 296.000,232.800 296.000 C 233.467 296.000,233.600 295.733,233.600 294.400 C 233.600 293.067,233.733 292.800,234.400 292.800 C 235.018 292.800,235.200 292.533,235.200 291.627 C 235.200 290.805,235.440 290.378,236.000 290.200 C 236.511 290.038,236.800 289.595,236.800 288.973 C 236.800 288.388,237.032 288.000,237.382 288.000 C 237.730 288.000,238.069 287.438,238.226 286.600 C 238.386 285.748,238.721 285.200,239.082 285.200 C 239.408 285.200,239.769 284.840,239.884 284.400 C 239.999 283.960,240.348 283.600,240.659 283.600 C 240.970 283.600,241.341 283.285,241.482 282.900 C 241.624 282.515,241.978 282.056,242.270 281.880 C 242.561 281.704,242.800 281.162,242.800 280.676 C 242.800 280.190,243.160 279.568,243.600 279.293 C 244.040 279.018,244.400 278.435,244.400 277.997 C 244.400 277.467,244.668 277.200,245.200 277.200 C 245.733 277.200,246.000 276.933,246.000 276.400 C 246.000 275.867,246.267 275.600,246.800 275.600 C 247.244 275.600,247.600 275.333,247.600 275.000 C 247.600 274.667,247.956 274.400,248.400 274.400 C 248.933 274.400,249.200 274.133,249.200 273.600 C 249.200 273.067,249.467 272.800,250.000 272.800 C 250.518 272.800,250.800 272.533,250.800 272.045 C 250.800 271.502,251.184 271.217,252.161 271.034 C 252.910 270.893,253.624 270.513,253.749 270.189 C 253.873 269.865,254.238 269.600,254.560 269.600 C 254.883 269.600,255.260 269.240,255.400 268.800 C 255.540 268.360,255.929 268.000,256.264 268.000 C 256.600 268.000,256.969 267.640,257.084 267.200 C 257.219 266.683,257.630 266.400,258.243 266.400 C 258.766 266.400,259.418 266.040,259.693 265.600 C 259.968 265.160,260.509 264.800,260.896 264.800 C 261.333 264.800,261.600 264.497,261.600 264.000 C 261.600 263.500,261.867 263.200,262.312 263.200 C 262.703 263.200,263.283 262.840,263.600 262.400 C 263.939 261.930,264.635 261.600,265.288 261.600 C 266.133 261.600,266.400 261.408,266.400 260.800 C 266.400 260.148,266.667 260.000,267.837 260.000 C 268.938 260.000,269.324 259.813,269.484 259.200 C 269.640 258.605,270.030 258.400,271.004 258.400 C 271.800 258.400,272.405 258.164,272.545 257.800 C 272.671 257.470,273.126 257.200,273.555 257.200 C 274.842 257.200,275.600 256.757,275.600 256.004 C 275.600 255.613,275.960 255.199,276.400 255.084 C 276.983 254.932,277.200 254.538,277.200 253.637 C 277.200 252.667,277.372 252.400,278.000 252.400 C 278.533 252.400,278.800 252.133,278.800 251.600 C 278.800 251.067,279.067 250.800,279.600 250.800 C 280.117 250.800,280.400 250.533,280.400 250.047 C 280.400 249.630,280.757 249.200,281.200 249.084 C 281.653 248.966,282.000 248.538,282.000 248.099 C 282.000 247.673,282.360 246.998,282.800 246.600 C 283.240 246.202,283.600 245.544,283.600 245.138 C 283.600 244.667,283.889 244.400,284.400 244.400 C 284.917 244.400,285.200 244.133,285.200 243.647 C 285.200 243.230,285.557 242.800,286.000 242.684 C 286.514 242.550,286.800 242.138,286.800 241.534 C 286.800 241.016,287.160 240.368,287.600 240.093 C 288.040 239.818,288.400 239.325,288.400 238.997 C 288.400 238.668,288.676 238.400,289.013 238.400 C 289.349 238.400,289.741 238.085,289.882 237.700 C 290.024 237.315,290.371 236.860,290.654 236.689 C 290.936 236.518,291.285 235.753,291.428 234.989 C 291.577 234.196,291.927 233.600,292.245 233.600 C 292.550 233.600,292.800 233.240,292.800 232.800 C 292.800 232.267,293.067 232.000,293.600 232.000 C 294.117 232.000,294.400 231.733,294.400 231.247 C 294.400 230.830,294.757 230.400,295.200 230.284 C 295.813 230.124,296.000 229.738,296.000 228.637 C 296.000 227.467,296.148 227.200,296.800 227.200 C 297.333 227.200,297.600 226.933,297.600 226.400 C 297.600 225.867,297.867 225.600,298.400 225.600 C 298.986 225.600,299.200 225.333,299.200 224.603 C 299.200 224.040,299.548 223.390,300.000 223.107 C 300.440 222.832,300.800 222.303,300.800 221.931 C 300.800 221.558,301.160 221.140,301.600 221.000 C 302.040 220.860,302.400 220.488,302.400 220.173 C 302.400 219.858,302.760 219.240,303.200 218.800 C 303.640 218.360,304.000 217.640,304.000 217.200 C 304.000 216.748,304.267 216.400,304.613 216.400 C 304.949 216.400,305.340 216.085,305.481 215.700 C 305.621 215.315,306.066 214.571,306.468 214.046 C 306.871 213.521,307.200 212.756,307.200 212.346 C 307.200 211.936,307.470 211.600,307.800 211.600 C 308.133 211.600,308.400 211.244,308.400 210.800 C 308.400 210.267,308.667 210.000,309.200 210.000 C 309.848 210.000,310.000 209.733,310.000 208.600 C 310.000 207.455,310.150 207.200,310.820 207.200 C 312.458 207.200,311.763 202.635,310.100 202.475 C 309.013 202.370,308.800 202.484,308.800 203.175 C 308.800 203.938,308.565 204.000,305.662 204.000 C 303.032 204.000,302.407 204.130,301.800 204.800 C 301.193 205.470,300.568 205.600,297.938 205.600 C 295.067 205.600,294.800 205.668,294.800 206.400 C 294.800 207.130,294.533 207.200,291.763 207.200 C 289.062 207.200,288.702 207.289,288.516 208.000 C 288.333 208.700,288.001 208.792,285.853 208.733 C 284.125 208.685,283.850 208.619,284.922 208.507 C 285.760 208.420,286.544 208.091,286.665 207.775 C 286.786 207.459,287.318 207.200,287.847 207.200 C 288.375 207.200,289.116 206.840,289.493 206.400 C 289.870 205.960,290.483 205.600,290.856 205.600 C 291.965 205.600,292.800 205.152,292.800 204.557 C 292.800 204.174,293.299 204.000,294.400 204.000 C 295.733 204.000,296.000 203.867,296.000 203.200 C 296.000 202.533,296.267 202.400,297.600 202.400 C 298.933 202.400,299.200 202.267,299.200 201.600 C 299.200 200.919,299.467 200.800,301.000 200.800 C 302.267 200.800,303.037 200.563,303.600 200.000 C 304.040 199.560,304.928 199.200,305.573 199.200 C 306.395 199.200,306.822 198.960,307.000 198.400 C 307.197 197.779,307.605 197.600,308.827 197.600 C 309.867 197.600,310.671 197.329,311.200 196.800 C 311.695 196.305,312.533 196.000,313.400 196.000 C 314.533 196.000,314.800 195.848,314.800 195.200 C 314.800 194.489,315.067 194.400,317.200 194.400 C 319.284 194.400,319.600 194.301,319.600 193.647 C 319.600 193.230,319.957 192.800,320.400 192.684 C 320.937 192.544,321.200 192.138,321.200 191.452 C 321.200 190.838,321.520 190.257,322.000 190.000 C 322.440 189.765,322.800 189.315,322.800 189.000 C 322.800 188.685,323.160 188.235,323.600 188.000 C 324.124 187.720,324.400 187.162,324.400 186.386 C 324.400 185.598,324.602 185.200,325.000 185.200 C 325.366 185.200,325.600 184.827,325.600 184.247 C 325.600 183.630,325.882 183.219,326.400 183.084 C 326.983 182.932,327.200 182.538,327.200 181.637 C 327.200 180.667,327.372 180.400,328.000 180.400 C 328.667 180.400,328.800 180.133,328.800 178.800 C 328.800 177.467,328.933 177.200,329.600 177.200 C 330.044 177.200,330.400 176.933,330.400 176.600 C 330.400 176.270,330.760 175.640,331.200 175.200 C 331.640 174.760,332.000 174.083,332.000 173.696 C 332.000 173.309,332.360 172.768,332.800 172.493 C 333.299 172.181,333.600 171.560,333.600 170.843 C 333.600 170.030,333.834 169.632,334.400 169.484 C 335.013 169.324,335.200 168.938,335.200 167.837 C 335.200 166.667,335.348 166.400,336.000 166.400 C 336.533 166.400,336.800 166.133,336.800 165.600 C 336.800 165.160,337.160 164.440,337.600 164.000 C 338.040 163.560,338.400 162.840,338.400 162.400 C 338.400 161.958,338.667 161.600,338.995 161.600 C 339.378 161.600,339.680 161.042,339.841 160.035 C 340.011 158.969,340.332 158.407,340.846 158.272 C 341.372 158.134,341.600 157.714,341.600 156.880 C 341.600 156.187,341.852 155.589,342.200 155.455 C 342.577 155.311,342.800 154.699,342.800 153.813 C 342.800 152.667,342.951 152.400,343.600 152.400 C 344.267 152.400,344.400 152.133,344.400 150.800 C 344.400 149.467,344.533 149.200,345.200 149.200 C 345.867 149.200,346.000 148.933,346.000 147.600 C 346.000 146.267,346.133 146.000,346.800 146.000 C 347.467 146.000,347.600 145.733,347.600 144.400 C 347.600 143.067,347.733 142.800,348.400 142.800 C 349.042 142.800,349.200 142.533,349.200 141.447 C 349.200 140.430,349.399 140.041,350.000 139.884 C 350.606 139.725,350.800 139.338,350.800 138.284 C 350.800 137.230,350.994 136.843,351.600 136.684 C 352.206 136.525,352.400 136.138,352.400 135.084 C 352.400 134.030,352.594 133.643,353.200 133.484 C 353.807 133.325,354.000 132.938,354.000 131.880 C 354.000 131.051,354.228 130.398,354.562 130.270 C 354.872 130.151,355.255 129.457,355.414 128.727 C 355.574 127.997,356.041 126.971,356.452 126.446 C 356.863 125.921,357.200 124.886,357.200 124.146 C 357.200 123.216,357.386 122.800,357.800 122.800 C 358.232 122.800,358.400 122.359,358.400 121.227 C 358.400 120.005,358.579 119.597,359.200 119.400 C 359.871 119.187,360.000 118.795,360.000 116.973 C 360.000 115.067,360.098 114.800,360.800 114.800 C 361.465 114.800,361.600 114.533,361.600 113.220 C 361.600 112.174,361.821 111.516,362.254 111.274 C 362.674 111.039,362.976 110.187,363.101 108.888 C 363.249 107.345,363.473 106.822,364.048 106.672 C 364.659 106.512,364.800 106.096,364.800 104.452 C 364.800 102.838,364.962 102.342,365.600 102.000 C 366.233 101.661,366.400 101.162,366.400 99.606 C 366.400 98.166,366.583 97.537,367.085 97.256 C 367.603 96.966,367.809 96.184,367.930 94.037 C 368.040 92.082,368.249 91.200,368.602 91.200 C 369.331 91.200,369.600 90.260,369.600 87.711 C 369.600 86.056,369.779 85.358,370.300 84.977 C 370.863 84.565,371.027 83.715,371.139 80.633 C 371.215 78.525,371.411 76.800,371.574 76.800 C 373.123 76.800,373.538 44.023,372.000 43.200 C 371.339 42.846,371.200 42.362,371.200 40.419 C 371.200 37.703,370.940 36.800,370.157 36.800 C 369.755 36.800,369.600 36.243,369.600 34.803 C 369.600 33.240,369.426 32.698,368.800 32.307 C 368.271 31.977,368.000 31.374,368.000 30.531 C 368.000 29.605,367.780 29.184,367.200 29.000 C 366.605 28.811,366.400 28.395,366.400 27.373 C 366.400 26.267,366.245 26.000,365.600 26.000 C 365.103 26.000,364.800 25.733,364.800 25.296 C 364.800 24.909,364.440 24.368,364.000 24.093 C 363.490 23.774,363.200 23.160,363.200 22.397 C 363.200 21.467,363.022 21.200,362.400 21.200 C 361.867 21.200,361.600 20.933,361.600 20.400 C 361.600 19.867,361.333 19.600,360.800 19.600 C 360.267 19.600,360.000 19.333,360.000 18.800 C 360.000 18.267,359.733 18.000,359.200 18.000 C 358.667 18.000,358.400 17.733,358.400 17.200 C 358.400 16.756,358.133 16.400,357.800 16.400 C 357.470 16.400,357.200 16.113,357.200 15.763 C 357.200 15.412,356.840 15.031,356.400 14.916 C 355.960 14.801,355.600 14.452,355.600 14.141 C 355.600 13.830,355.299 13.459,354.931 13.318 C 354.562 13.177,353.932 12.732,353.531 12.331 C 353.129 11.929,352.350 11.600,351.800 11.600 C 351.199 11.600,350.800 11.372,350.800 11.027 C 350.800 10.712,350.403 10.328,349.919 10.174 C 349.434 10.020,348.791 9.648,348.490 9.347 C 348.189 9.046,347.146 8.800,346.171 8.800 C 344.667 8.800,344.400 8.680,344.400 8.000 C 344.400 7.221,344.133 7.200,334.003 7.200 C 324.040 7.200,323.586 7.233,323.107 8.000 M46.617 24.772 C 46.216 25.421,47.087 25.618,47.604 24.996 C 48.006 24.511,47.981 24.400,47.473 24.400 C 47.129 24.400,46.744 24.568,46.617 24.772 M322.075 64.016 C 321.594 64.464,321.200 65.163,321.200 65.569 C 321.200 65.975,320.840 66.401,320.400 66.516 C 319.960 66.631,319.600 66.652,319.600 66.563 C 319.600 66.473,319.960 66.040,320.400 65.600 C 320.840 65.160,321.200 64.440,321.200 64.000 C 321.200 63.444,321.467 63.200,322.075 63.200 L 322.951 63.200 322.075 64.016 M216.800 241.424 C 216.800 242.004,216.627 242.340,216.400 242.200 C 216.180 242.064,216.000 241.603,216.000 241.176 C 216.000 240.749,216.180 240.400,216.400 240.400 C 216.620 240.400,216.800 240.861,216.800 241.424 " stroke="none" fill="#043c54" fill-rule="evenodd"></path><path id="path1" d="M55.491 23.600 C 54.669 24.247,53.868 24.400,51.317 24.400 C 49.410 24.400,47.972 24.588,47.684 24.876 C 47.189 25.371,46.682 25.531,44.500 25.880 C 43.785 25.994,43.200 26.322,43.200 26.609 C 43.200 26.905,42.509 27.246,41.598 27.400 C 40.717 27.549,40.098 27.835,40.222 28.036 C 40.347 28.237,39.987 28.577,39.424 28.791 C 38.861 29.005,38.400 29.455,38.400 29.790 C 38.400 30.133,38.050 30.400,37.600 30.400 C 37.067 30.400,36.800 30.667,36.800 31.200 C 36.800 31.733,36.533 32.000,36.000 32.000 C 35.467 32.000,35.200 32.267,35.200 32.800 C 35.200 33.333,34.933 33.600,34.400 33.600 C 33.867 33.600,33.600 33.867,33.600 34.400 C 33.600 34.852,33.333 35.200,32.987 35.200 C 32.651 35.200,32.259 35.515,32.118 35.900 C 31.976 36.285,31.642 36.732,31.376 36.894 C 31.109 37.056,30.772 37.821,30.627 38.594 C 30.482 39.367,30.124 40.000,29.832 40.000 C 29.278 40.000,28.800 41.684,28.800 43.637 C 28.800 44.436,28.637 44.712,28.253 44.565 C 27.226 44.171,27.211 46.284,27.245 187.400 C 27.279 323.791,27.324 330.594,28.200 330.324 C 28.420 330.256,28.650 330.650,28.712 331.200 C 28.928 333.131,29.227 334.031,29.579 333.813 C 29.775 333.692,30.056 334.143,30.203 334.816 C 30.351 335.488,30.816 336.253,31.236 336.515 C 31.656 336.778,32.000 337.311,32.000 337.700 C 32.000 338.089,32.360 338.716,32.800 339.093 C 33.240 339.470,33.600 340.086,33.600 340.462 C 33.600 340.838,33.943 341.255,34.363 341.388 C 34.783 341.521,35.227 341.894,35.350 342.215 C 35.474 342.537,35.851 342.800,36.187 342.800 C 36.533 342.800,36.800 343.148,36.800 343.600 C 36.800 344.187,37.067 344.400,37.800 344.400 C 38.350 344.400,38.779 344.535,38.753 344.700 C 38.595 345.701,38.928 346.000,40.200 346.000 C 41.333 346.000,41.600 346.152,41.600 346.800 C 41.600 347.445,41.867 347.600,42.973 347.600 C 43.995 347.600,44.411 347.805,44.600 348.400 C 44.804 349.041,45.205 349.200,46.627 349.200 C 47.608 349.200,48.400 349.389,48.400 349.624 C 48.400 349.857,48.561 349.948,48.758 349.826 C 48.955 349.704,49.219 349.874,49.346 350.202 C 49.757 351.276,215.017 351.089,215.592 350.014 C 215.887 349.464,215.877 345.238,215.560 335.914 C 215.311 328.591,215.214 318.460,215.343 313.400 C 215.487 307.767,215.422 303.502,215.175 302.400 C 214.954 301.410,214.514 298.780,214.197 296.555 C 213.881 294.330,213.455 292.071,213.251 291.535 C 213.048 290.999,212.759 289.310,212.610 287.780 C 212.461 286.251,212.097 284.190,211.801 283.200 C 211.504 282.210,211.140 280.320,210.991 279.000 C 210.841 277.680,210.546 276.275,210.334 275.878 C 210.122 275.481,209.769 274.041,209.550 272.678 C 209.330 271.315,208.913 269.390,208.622 268.400 C 208.331 267.410,207.893 265.610,207.648 264.400 C 207.143 261.907,205.882 257.195,205.239 255.400 C 205.003 254.740,204.366 252.850,203.824 251.200 C 203.281 249.550,202.255 247.120,201.544 245.800 C 200.138 243.193,199.776 238.467,200.781 235.842 C 201.025 235.205,201.408 233.359,201.634 231.739 C 201.859 230.119,202.282 228.210,202.572 227.497 C 202.863 226.784,203.224 225.349,203.374 224.309 C 203.764 221.598,205.282 221.180,206.314 223.499 C 206.759 224.500,208.179 227.123,210.918 232.000 C 211.473 232.990,212.597 235.139,213.415 236.775 C 216.441 242.829,216.525 238.189,213.541 229.800 C 213.306 229.140,212.905 227.790,212.651 226.800 C 212.396 225.810,211.965 224.607,211.694 224.126 C 211.422 223.646,211.200 223.035,211.200 222.770 C 211.200 222.505,210.821 221.458,210.357 220.444 C 209.893 219.430,209.280 218.060,208.995 217.400 C 208.710 216.740,208.072 215.322,207.578 214.249 C 206.725 212.398,206.710 212.202,207.281 210.449 C 207.613 209.432,208.291 207.250,208.790 205.600 C 209.289 203.950,210.035 201.830,210.448 200.889 C 210.862 199.948,211.200 198.758,211.200 198.243 C 211.200 196.157,213.323 194.550,214.030 196.100 C 214.256 196.595,214.872 197.720,215.398 198.600 C 215.925 199.480,216.728 200.920,217.184 201.800 C 218.904 205.120,220.741 208.448,221.112 208.915 C 221.323 209.182,221.716 210.083,221.985 210.918 C 222.384 212.157,222.578 212.350,223.037 211.969 C 223.778 211.354,223.751 209.534,222.974 207.687 C 222.629 206.869,222.191 205.480,221.999 204.600 C 221.320 201.477,218.421 193.465,216.304 188.860 C 215.422 186.941,215.539 183.025,216.568 180.075 C 216.850 179.264,217.208 177.627,217.363 176.437 C 217.518 175.248,217.881 173.808,218.170 173.237 C 218.459 172.667,218.827 171.300,218.988 170.200 C 219.148 169.100,219.472 167.840,219.709 167.400 C 219.945 166.960,220.360 165.610,220.631 164.400 C 220.902 163.190,221.302 161.660,221.520 161.000 C 221.738 160.340,222.217 158.900,222.585 157.800 C 222.953 156.700,223.428 155.080,223.641 154.200 C 223.854 153.320,224.292 152.033,224.614 151.340 C 224.936 150.646,225.200 149.744,225.200 149.334 C 225.200 148.924,225.560 147.916,226.000 147.096 C 226.440 146.275,226.800 145.285,226.800 144.896 C 226.800 144.506,227.160 143.516,227.600 142.696 C 228.040 141.875,228.400 140.981,228.400 140.709 C 228.400 140.155,229.709 136.652,230.849 134.156 C 231.262 133.252,231.601 132.262,231.603 131.956 C 231.604 131.650,231.963 130.860,232.400 130.200 C 232.837 129.540,233.196 128.684,233.197 128.299 C 233.199 127.913,233.560 126.925,234.000 126.104 C 234.440 125.284,234.800 124.389,234.800 124.116 C 234.800 123.843,235.159 123.030,235.599 122.310 C 236.038 121.589,236.398 120.707,236.399 120.349 C 236.399 119.991,236.670 119.474,237.000 119.200 C 237.330 118.926,237.600 118.443,237.600 118.126 C 237.600 117.558,239.292 113.567,240.027 112.400 C 240.235 112.070,240.503 111.530,240.624 111.200 C 240.744 110.870,241.186 109.880,241.607 109.000 C 242.028 108.120,242.558 106.950,242.785 106.400 C 243.012 105.850,243.379 105.130,243.599 104.800 C 243.820 104.470,244.180 103.750,244.399 103.200 C 244.619 102.650,244.972 101.930,245.184 101.600 C 245.396 101.270,246.056 99.920,246.652 98.600 C 247.247 97.280,247.863 96.110,248.022 96.000 C 248.180 95.890,248.636 95.080,249.034 94.200 C 249.432 93.320,249.836 92.440,249.931 92.244 C 250.026 92.049,249.910 92.008,249.674 92.154 C 249.438 92.300,248.232 94.440,246.994 96.910 C 245.756 99.379,244.576 101.670,244.372 102.000 C 244.167 102.330,243.820 103.050,243.601 103.600 C 243.381 104.150,243.032 104.870,242.825 105.200 C 242.618 105.530,241.981 106.880,241.409 108.200 C 240.837 109.520,240.196 110.870,239.984 111.200 C 239.772 111.530,239.414 112.250,239.188 112.800 C 238.679 114.043,237.302 117.154,235.205 121.800 C 234.525 123.307,233.967 124.668,231.964 129.700 C 231.505 130.855,230.807 132.430,230.415 133.200 C 230.022 133.970,229.565 135.230,229.399 136.000 C 229.233 136.770,228.851 137.755,228.549 138.189 C 228.247 138.623,228.000 139.299,228.000 139.690 C 228.000 140.082,227.640 141.075,227.200 141.896 C 226.760 142.716,226.400 143.706,226.400 144.096 C 226.400 144.485,226.040 145.475,225.600 146.296 C 225.160 147.116,224.800 148.196,224.800 148.696 C 224.800 149.195,224.440 150.275,224.000 151.096 C 223.560 151.916,223.200 152.886,223.200 153.250 C 223.200 153.615,222.844 154.697,222.409 155.656 C 221.974 156.615,221.614 157.785,221.609 158.256 C 221.604 158.727,221.244 159.897,220.809 160.856 C 220.374 161.815,220.014 163.096,220.009 163.701 C 220.004 164.307,219.640 165.475,219.200 166.296 C 218.760 167.116,218.400 168.426,218.400 169.205 C 218.400 169.984,218.112 171.033,217.760 171.536 C 217.408 172.039,217.020 173.564,216.899 174.925 C 216.777 176.286,216.429 177.782,216.126 178.249 C 215.823 178.717,215.481 180.067,215.367 181.249 C 215.252 182.432,214.954 184.090,214.704 184.934 C 214.359 186.098,214.364 186.651,214.725 187.228 C 214.986 187.647,215.200 188.327,215.200 188.741 C 215.200 189.154,215.560 189.950,216.000 190.509 C 216.440 191.069,216.800 192.024,216.800 192.632 C 216.800 193.240,217.085 194.052,217.434 194.437 C 217.783 194.823,218.164 195.917,218.281 196.869 C 218.398 197.821,218.716 198.781,218.988 199.001 C 219.261 199.222,219.595 200.482,219.731 201.801 C 219.946 203.883,219.914 204.062,219.489 203.158 C 219.220 202.585,218.737 201.801,218.416 201.416 C 217.714 200.574,217.056 199.449,216.244 197.700 C 215.912 196.985,215.489 196.400,215.303 196.400 C 215.117 196.400,214.793 195.815,214.583 195.100 C 213.768 192.334,210.938 193.562,210.506 196.869 C 210.382 197.821,209.947 199.029,209.540 199.554 C 209.130 200.083,208.800 201.157,208.800 201.965 C 208.800 202.927,208.528 203.655,208.000 204.107 C 207.432 204.594,207.200 205.287,207.200 206.500 C 207.200 207.774,206.997 208.334,206.400 208.707 C 205.848 209.052,205.600 209.640,205.600 210.603 L 205.600 212.000 122.032 212.000 L 38.464 212.000 38.230 210.900 C 37.006 205.124,35.421 55.941,36.535 51.349 C 36.902 49.837,37.207 48.330,37.214 48.000 C 37.255 45.818,43.324 37.200,44.819 37.200 C 44.961 37.200,45.493 36.840,46.000 36.400 C 46.507 35.960,47.143 35.600,47.412 35.600 C 47.682 35.600,48.122 35.335,48.391 35.011 C 48.660 34.686,49.537 34.309,50.340 34.171 C 51.143 34.034,52.688 33.669,53.773 33.361 C 56.204 32.670,288.569 32.503,288.995 33.192 C 289.366 33.793,288.603 34.949,285.750 38.106 C 284.311 39.698,282.954 41.360,282.735 41.800 C 282.515 42.240,282.778 42.060,283.318 41.400 C 283.859 40.740,285.248 39.210,286.405 38.000 C 287.562 36.790,288.960 35.080,289.511 34.200 C 290.062 33.320,291.974 31.160,293.760 29.400 C 296.827 26.378,298.000 24.712,298.000 23.381 C 298.000 22.309,56.855 22.527,55.491 23.600 M278.937 46.261 C 275.241 51.193,274.852 52.090,278.356 47.600 C 279.472 46.170,280.689 44.686,281.061 44.302 C 281.433 43.918,281.633 43.499,281.506 43.372 C 281.379 43.245,280.223 44.545,278.937 46.261 M273.671 53.300 C 272.376 55.224,272.273 55.478,273.223 54.400 C 274.349 53.123,275.810 50.800,275.487 50.800 C 275.413 50.800,274.596 51.925,273.671 53.300 M269.361 59.293 C 268.723 60.232,268.109 61.090,267.994 61.200 C 267.756 61.429,264.492 66.407,263.404 68.200 L 262.676 69.400 263.538 68.638 C 264.012 68.219,264.400 67.662,264.400 67.400 C 264.400 67.138,264.760 66.598,265.200 66.200 C 265.640 65.802,266.000 65.338,266.000 65.169 C 266.000 64.805,269.383 59.708,270.294 58.698 C 270.643 58.311,270.836 57.903,270.724 57.790 C 270.611 57.678,269.998 58.354,269.361 59.293 M261.737 70.924 C 261.273 71.626,260.564 72.740,260.162 73.400 L 259.431 74.600 260.316 73.838 C 260.802 73.419,261.200 72.858,261.200 72.592 C 261.200 72.326,261.581 71.624,262.046 71.033 C 262.511 70.442,262.822 69.888,262.737 69.803 C 262.652 69.718,262.202 70.223,261.737 70.924 M258.646 75.786 C 258.291 76.328,258.000 76.895,258.000 77.045 C 258.000 77.194,257.398 78.236,256.662 79.359 C 255.927 80.481,254.695 82.570,253.924 84.000 C 251.879 87.796,250.767 89.736,250.320 90.287 C 250.102 90.554,249.994 90.982,250.079 91.238 C 250.165 91.494,250.677 90.825,251.217 89.751 C 251.758 88.678,252.328 87.704,252.484 87.586 C 252.641 87.468,253.058 86.748,253.412 85.986 C 253.766 85.224,254.487 83.880,255.014 83.000 C 256.217 80.993,257.405 78.897,258.074 77.600 C 258.358 77.050,258.818 76.362,259.095 76.071 C 259.571 75.573,259.784 74.800,259.446 74.800 C 259.361 74.800,259.001 75.244,258.646 75.786 M216.000 241.176 C 216.000 241.603,216.180 242.064,216.400 242.200 C 216.627 242.340,216.800 242.004,216.800 241.424 C 216.800 240.861,216.620 240.400,216.400 240.400 C 216.180 240.400,216.000 240.749,216.000 241.176 " stroke="none" fill="#1487cd" fill-rule="evenodd"></path><path id="path2" d="M53.670 34.429 C 47.600 35.218,42.613 39.088,39.340 45.550 L 37.800 48.590 37.874 76.395 C 37.915 91.688,38.068 106.224,38.214 108.698 L 38.479 113.197 137.801 113.298 C 192.429 113.354,237.048 113.278,236.956 113.129 C 236.864 112.980,237.151 112.743,237.594 112.602 C 238.110 112.438,238.400 111.997,238.400 111.376 C 238.400 110.840,238.757 110.184,239.200 109.907 C 239.667 109.615,240.000 108.974,240.000 108.366 C 240.000 107.793,240.360 106.998,240.800 106.600 C 241.240 106.202,241.600 105.455,241.600 104.941 C 241.600 104.427,241.960 103.782,242.400 103.507 C 242.840 103.232,243.200 102.601,243.200 102.104 C 243.200 101.607,243.560 100.840,244.000 100.400 C 244.440 99.960,244.800 99.234,244.800 98.787 C 244.800 98.341,245.059 97.876,245.376 97.754 C 245.692 97.633,246.070 96.990,246.216 96.326 C 246.362 95.662,246.823 94.777,247.241 94.359 C 247.658 93.942,248.000 93.280,248.000 92.889 C 248.000 92.498,248.360 91.870,248.800 91.493 C 249.240 91.116,249.600 90.519,249.600 90.167 C 249.600 89.815,249.960 89.069,250.400 88.509 C 250.840 87.950,251.200 87.274,251.200 87.008 C 251.200 86.742,251.560 86.198,252.000 85.800 C 252.440 85.402,252.800 84.780,252.800 84.418 C 252.800 84.056,252.990 83.570,253.222 83.338 C 253.682 82.878,254.797 80.947,255.784 78.900 C 256.129 78.185,256.574 77.600,256.774 77.600 C 256.973 77.600,257.258 77.048,257.406 76.373 C 257.554 75.698,257.928 75.049,258.238 74.930 C 258.547 74.812,258.800 74.534,258.800 74.313 C 258.800 73.764,261.264 70.000,261.624 70.000 C 261.783 70.000,262.031 69.532,262.174 68.960 C 262.441 67.899,263.950 65.510,264.510 65.263 C 264.680 65.188,265.076 64.513,265.390 63.763 C 265.703 63.014,266.148 62.400,266.380 62.400 C 266.611 62.400,266.800 62.158,266.800 61.862 C 266.800 61.566,267.160 60.998,267.600 60.600 C 268.040 60.202,268.400 59.705,268.400 59.496 C 268.400 59.287,268.853 58.550,269.406 57.858 C 270.917 55.968,270.927 55.955,272.366 53.723 C 273.103 52.580,273.952 51.551,274.253 51.435 C 274.554 51.320,274.800 51.010,274.800 50.746 C 274.800 50.483,275.065 49.982,275.389 49.634 C 275.713 49.285,277.172 47.470,278.632 45.600 C 280.092 43.730,281.495 42.020,281.750 41.800 C 282.004 41.580,282.799 40.649,283.515 39.731 C 284.232 38.813,285.460 37.420,286.244 36.636 C 287.028 35.852,287.594 34.983,287.502 34.705 C 287.305 34.116,58.162 33.846,53.670 34.429 " stroke="none" fill="#7ac6ec" fill-rule="evenodd"></path><path id="path3" d="M53.600 33.421 C 52.610 33.733,51.440 33.993,51.000 34.000 C 50.560 34.006,49.750 34.274,49.200 34.593 C 48.650 34.913,47.705 35.378,47.100 35.627 C 46.495 35.875,46.000 36.229,46.000 36.412 C 46.000 36.596,45.675 36.849,45.278 36.975 C 42.992 37.701,37.261 45.536,37.214 48.000 C 37.207 48.330,36.902 49.837,36.535 51.349 C 35.421 55.941,37.006 205.124,38.230 210.900 L 38.464 212.000 122.032 212.000 L 205.600 212.000 205.600 210.603 C 205.600 209.640,205.848 209.052,206.400 208.707 C 206.997 208.334,207.200 207.774,207.200 206.500 C 207.200 205.287,207.432 204.594,208.000 204.107 C 208.528 203.655,208.800 202.927,208.800 201.965 C 208.800 201.157,209.130 200.083,209.540 199.554 C 209.947 199.029,210.382 197.821,210.506 196.869 C 210.938 193.562,213.768 192.334,214.583 195.100 C 214.793 195.815,215.117 196.400,215.303 196.400 C 215.489 196.400,215.912 196.985,216.244 197.700 C 217.056 199.449,217.714 200.574,218.416 201.416 C 218.737 201.801,219.220 202.585,219.489 203.158 C 219.914 204.062,219.946 203.883,219.731 201.801 C 219.595 200.482,219.261 199.222,218.988 199.001 C 218.716 198.781,218.398 197.821,218.281 196.869 C 218.164 195.917,217.783 194.823,217.434 194.437 C 217.085 194.052,216.800 193.240,216.800 192.632 C 216.800 192.024,216.440 191.069,216.000 190.509 C 215.560 189.950,215.200 189.154,215.200 188.741 C 215.200 188.327,214.986 187.647,214.725 187.228 C 214.364 186.651,214.359 186.098,214.704 184.934 C 214.954 184.090,215.252 182.432,215.367 181.249 C 215.481 180.067,215.823 178.717,216.126 178.249 C 216.429 177.782,216.777 176.286,216.899 174.925 C 217.020 173.564,217.408 172.039,217.760 171.536 C 218.112 171.033,218.400 169.984,218.400 169.205 C 218.400 168.426,218.760 167.116,219.200 166.296 C 219.640 165.475,220.004 164.307,220.009 163.701 C 220.014 163.096,220.374 161.815,220.809 160.856 C 221.244 159.897,221.604 158.727,221.609 158.256 C 221.614 157.785,221.974 156.615,222.409 155.656 C 222.844 154.697,223.200 153.615,223.200 153.250 C 223.200 152.886,223.560 151.916,224.000 151.096 C 224.440 150.275,224.800 149.195,224.800 148.696 C 224.800 148.196,225.160 147.116,225.600 146.296 C 226.040 145.475,226.400 144.485,226.400 144.096 C 226.400 143.706,226.760 142.716,227.200 141.896 C 227.640 141.075,228.000 140.082,228.000 139.690 C 228.000 139.299,228.247 138.623,228.549 138.189 C 228.851 137.755,229.233 136.770,229.399 136.000 C 229.565 135.230,230.022 133.970,230.415 133.200 C 230.807 132.430,231.505 130.855,231.964 129.700 C 233.967 124.668,234.525 123.307,235.205 121.800 C 237.302 117.154,238.679 114.043,239.188 112.800 C 239.414 112.250,239.772 111.530,239.984 111.200 C 240.196 110.870,240.837 109.520,241.409 108.200 C 241.981 106.880,242.618 105.530,242.825 105.200 C 243.032 104.870,243.381 104.150,243.601 103.600 C 243.820 103.050,244.167 102.330,244.372 102.000 C 244.576 101.670,245.753 99.420,246.986 97.000 C 248.220 94.580,249.375 92.330,249.552 92.000 C 249.730 91.670,250.101 90.970,250.375 90.445 C 250.650 89.920,251.246 88.840,251.699 88.045 C 252.153 87.250,253.154 85.430,253.924 84.000 C 254.695 82.570,255.927 80.481,256.662 79.359 C 257.398 78.236,258.000 77.218,258.000 77.097 C 258.000 76.975,258.828 75.554,259.841 73.938 C 260.853 72.322,262.158 70.212,262.741 69.249 C 263.938 67.270,267.619 61.609,268.104 61.000 C 268.644 60.323,272.968 54.282,273.974 52.800 C 275.435 50.648,273.756 52.381,271.986 54.852 C 268.784 59.323,262.400 68.882,262.400 69.205 C 262.400 69.391,262.153 69.790,261.852 70.091 C 261.550 70.392,261.005 71.170,260.640 71.820 C 260.274 72.469,259.621 73.540,259.187 74.200 C 258.753 74.860,258.122 75.940,257.784 76.600 C 257.446 77.260,256.644 78.610,256.000 79.600 C 255.356 80.590,254.560 81.940,254.231 82.600 C 253.902 83.260,252.904 85.060,252.013 86.600 C 251.123 88.140,250.128 89.973,249.803 90.673 C 249.478 91.373,249.049 92.046,248.850 92.169 C 248.651 92.292,248.368 92.875,248.220 93.465 C 248.072 94.054,247.602 94.980,247.175 95.522 C 246.749 96.064,246.400 96.822,246.400 97.205 C 246.400 97.588,246.142 98.117,245.826 98.379 C 245.510 98.641,245.139 99.368,245.001 99.994 C 244.864 100.621,244.502 101.229,244.198 101.346 C 243.893 101.462,243.527 102.185,243.383 102.951 C 243.239 103.718,242.879 104.438,242.583 104.551 C 242.287 104.665,241.925 105.391,241.780 106.165 C 241.635 106.938,241.265 107.780,240.958 108.035 C 240.651 108.290,240.400 108.812,240.400 109.195 C 240.400 109.578,240.040 110.350,239.600 110.909 C 239.160 111.469,238.799 112.168,238.797 112.463 C 238.796 112.758,238.437 113.540,238.000 114.200 C 237.563 114.860,237.204 115.691,237.203 116.046 C 237.201 116.401,236.840 117.150,236.400 117.709 C 235.960 118.269,235.600 119.079,235.600 119.509 C 235.600 119.940,235.240 120.750,234.800 121.309 C 234.360 121.869,234.000 122.679,234.000 123.109 C 234.000 123.540,233.640 124.350,233.200 124.909 C 232.760 125.469,232.400 126.369,232.400 126.909 C 232.400 127.450,232.040 128.350,231.600 128.909 C 231.160 129.469,230.800 130.365,230.800 130.901 C 230.800 131.437,230.440 132.202,230.000 132.600 C 229.546 133.011,229.200 133.832,229.200 134.499 C 229.200 135.145,228.840 136.131,228.400 136.691 C 227.960 137.250,227.600 138.224,227.600 138.854 C 227.600 139.484,227.240 140.360,226.800 140.800 C 226.267 141.333,226.000 142.133,226.000 143.200 C 226.000 144.301,225.826 144.800,225.443 144.800 C 224.725 144.800,224.400 145.678,224.400 147.619 C 224.400 148.762,224.189 149.285,223.600 149.600 C 223.047 149.896,222.800 150.438,222.800 151.352 C 222.800 152.168,222.493 152.954,222.000 153.400 C 221.560 153.798,221.200 154.456,221.200 154.862 C 221.200 155.577,218.375 155.600,129.843 155.600 L 38.486 155.600 38.249 151.700 C 37.523 139.796,36.704 55.824,37.269 51.400 C 38.205 44.087,41.677 39.295,48.800 35.488 C 53.291 33.088,47.170 33.200,173.468 33.200 C 253.448 33.200,288.400 33.328,288.400 33.620 C 288.400 34.384,287.292 36.185,286.198 37.200 C 285.605 37.750,284.572 38.920,283.902 39.800 C 283.129 40.815,283.513 40.523,284.952 39.000 C 287.789 36.000,289.354 33.773,289.014 33.223 C 288.567 32.500,55.903 32.695,53.600 33.421 M282.139 41.906 C 281.885 42.068,280.764 43.370,279.646 44.800 C 278.529 46.230,277.311 47.714,276.939 48.098 C 276.567 48.482,276.371 48.904,276.502 49.035 C 276.633 49.166,277.750 47.908,278.984 46.240 C 280.218 44.571,281.615 42.845,282.089 42.403 C 282.961 41.591,282.983 41.368,282.139 41.906 " stroke="none" fill="#47a4dd" fill-rule="evenodd"></path><path id="path4" d="M55.207 33.749 C 53.254 34.089,81.595 34.200,169.974 34.200 C 264.126 34.200,287.367 34.300,287.502 34.705 C 287.594 34.983,287.028 35.852,286.244 36.636 C 285.460 37.420,284.232 38.813,283.515 39.731 C 282.799 40.649,281.940 41.635,281.606 41.922 C 281.097 42.361,281.144 42.375,281.900 42.008 C 282.395 41.768,282.800 41.424,282.800 41.244 C 282.800 41.063,283.852 39.765,285.137 38.358 C 287.452 35.824,288.400 34.450,288.400 33.626 C 288.400 33.004,58.793 33.125,55.207 33.749 M48.600 35.564 C 44.537 37.819,42.271 39.773,40.475 42.570 C 39.038 44.807,37.593 47.942,37.632 48.740 C 37.657 49.280,37.700 49.291,37.865 48.800 C 39.868 42.848,43.779 38.287,48.900 35.929 C 49.725 35.550,50.400 35.140,50.400 35.020 C 50.400 34.686,49.920 34.831,48.600 35.564 M279.161 44.900 C 278.219 46.055,277.177 47.323,276.846 47.717 C 276.304 48.364,276.311 48.409,276.922 48.174 C 277.295 48.031,277.600 47.770,277.600 47.594 C 277.600 47.418,278.420 46.267,279.422 45.037 C 280.424 43.807,281.161 42.800,281.059 42.800 C 280.958 42.800,280.103 43.745,279.161 44.900 M275.500 49.585 C 274.482 50.577,274.640 50.980,275.671 50.020 C 276.150 49.574,276.465 49.140,276.371 49.056 C 276.277 48.972,275.885 49.210,275.500 49.585 M37.105 52.695 C 36.691 56.237,37.687 142.475,38.249 151.700 L 38.486 155.600 129.843 155.600 C 218.375 155.600,221.200 155.577,221.200 154.862 C 221.200 154.456,221.560 153.798,222.000 153.400 C 222.493 152.954,222.800 152.168,222.800 151.352 C 222.800 150.438,223.047 149.896,223.600 149.600 C 224.189 149.285,224.400 148.762,224.400 147.619 C 224.400 145.678,224.725 144.800,225.443 144.800 C 225.826 144.800,226.000 144.301,226.000 143.200 C 226.000 142.133,226.267 141.333,226.800 140.800 C 227.240 140.360,227.600 139.484,227.600 138.854 C 227.600 138.224,227.960 137.250,228.400 136.691 C 228.840 136.131,229.200 135.145,229.200 134.499 C 229.200 133.832,229.546 133.011,230.000 132.600 C 230.440 132.202,230.800 131.437,230.800 130.901 C 230.800 130.365,231.160 129.469,231.600 128.909 C 232.040 128.350,232.400 127.450,232.400 126.909 C 232.400 126.369,232.760 125.469,233.200 124.909 C 233.640 124.350,234.000 123.540,234.000 123.109 C 234.000 122.679,234.360 121.869,234.800 121.309 C 235.240 120.750,235.600 119.940,235.600 119.509 C 235.600 119.079,235.960 118.269,236.400 117.709 C 236.840 117.150,237.201 116.401,237.203 116.046 C 237.204 115.691,237.563 114.860,238.000 114.200 C 238.437 113.540,238.796 112.758,238.797 112.463 C 238.799 112.168,239.160 111.469,239.600 110.909 C 240.040 110.350,240.400 109.578,240.400 109.195 C 240.400 108.812,240.651 108.290,240.958 108.035 C 241.265 107.780,241.635 106.938,241.780 106.165 C 241.925 105.391,242.304 104.658,242.622 104.536 C 243.225 104.305,243.438 103.200,242.880 103.200 C 242.276 103.200,241.600 104.160,241.600 105.018 C 241.600 105.490,241.240 106.202,240.800 106.600 C 240.360 106.998,240.000 107.793,240.000 108.366 C 240.000 108.974,239.667 109.615,239.200 109.907 C 238.757 110.184,238.400 110.840,238.400 111.376 C 238.400 111.997,238.110 112.438,237.594 112.602 C 237.151 112.743,236.864 112.980,236.956 113.129 C 237.048 113.278,192.429 113.354,137.801 113.298 L 38.479 113.197 38.222 108.698 C 38.080 106.224,37.837 92.050,37.681 77.200 C 37.524 62.216,37.267 51.310,37.105 52.695 M273.956 51.700 C 273.627 51.975,272.828 53.010,272.179 54.000 C 271.531 54.990,270.775 56.038,270.500 56.329 C 270.225 56.619,270.006 56.979,270.014 57.129 C 270.030 57.422,270.747 56.568,273.226 53.300 C 274.855 51.152,275.007 50.820,273.956 51.700 M265.582 63.234 C 264.947 64.421,265.269 64.497,266.119 63.361 C 266.514 62.832,266.655 62.400,266.433 62.400 C 266.210 62.400,265.827 62.775,265.582 63.234 M264.600 65.106 C 263.937 65.593,262.315 68.049,262.521 68.254 C 262.626 68.360,263.266 67.625,263.943 66.623 C 264.619 65.620,265.134 64.803,265.086 64.806 C 265.039 64.809,264.820 64.944,264.600 65.106 M260.067 71.956 C 259.370 73.032,258.800 74.092,258.800 74.313 C 258.800 74.534,258.547 74.812,258.238 74.930 C 257.928 75.049,257.554 75.698,257.406 76.373 C 257.258 77.048,256.973 77.600,256.774 77.600 C 256.574 77.600,256.129 78.185,255.784 78.900 C 254.866 80.804,253.775 82.707,253.215 83.382 C 252.945 83.707,252.798 84.195,252.888 84.465 C 252.979 84.736,253.459 84.157,253.955 83.179 C 254.451 82.200,255.378 80.590,256.014 79.600 C 256.650 78.610,257.446 77.260,257.784 76.600 C 258.122 75.940,258.753 74.860,259.187 74.200 C 259.621 73.540,260.276 72.460,260.644 71.800 C 261.011 71.140,261.512 70.468,261.756 70.306 C 262.064 70.102,262.067 70.010,261.767 70.006 C 261.529 70.003,260.764 70.880,260.067 71.956 M251.909 85.900 C 251.571 86.285,251.176 86.989,251.032 87.464 C 250.887 87.939,250.506 88.546,250.185 88.813 C 249.863 89.080,249.600 89.586,249.600 89.938 C 249.600 90.707,250.451 89.575,251.849 86.947 C 252.853 85.057,252.868 84.809,251.909 85.900 M248.700 91.585 C 248.315 91.960,248.000 92.567,248.000 92.934 C 248.000 93.300,247.658 93.942,247.241 94.359 C 246.823 94.777,246.362 95.662,246.216 96.326 C 246.070 96.990,245.692 97.633,245.376 97.754 C 245.059 97.876,244.800 98.341,244.800 98.787 C 244.800 99.234,244.440 99.960,244.000 100.400 C 243.560 100.840,243.211 101.605,243.225 102.100 L 243.251 103.000 243.612 102.100 C 243.811 101.605,244.146 101.200,244.355 101.200 C 244.565 101.200,244.852 100.672,244.994 100.028 C 245.136 99.383,245.510 98.641,245.826 98.379 C 246.142 98.117,246.400 97.588,246.400 97.205 C 246.400 96.822,246.735 96.079,247.145 95.554 C 247.555 95.029,248.026 94.150,248.192 93.600 C 248.359 93.050,248.772 92.284,249.112 91.898 C 249.928 90.968,249.594 90.714,248.700 91.585 " stroke="none" fill="#5cace4" fill-rule="evenodd"></path></g></svg>