<svg id="svg" version="1.1" xmlns="http://www.w3.org/2000/svg" xmlns:xlink="http://www.w3.org/1999/xlink" width="400" height="400" viewBox="0, 0, 400,400"><g id="svgg"><path id="path0" d="M392.500 48.000 C 393.216 48.733,393.877 49.333,393.969 49.333 C 394.060 49.333,393.549 48.733,392.833 48.000 C 392.117 47.267,391.456 46.667,391.365 46.667 C 391.273 46.667,391.784 47.267,392.500 48.000 M39.975 177.417 C 40.419 177.921,40.918 178.333,41.084 178.333 C 41.249 178.333,41.835 178.783,42.385 179.333 C 42.935 179.883,43.532 180.333,43.712 180.333 C 43.892 180.333,43.971 180.446,43.888 180.583 C 43.805 180.721,43.946 181.027,44.202 181.263 C 44.457 181.500,44.667 181.595,44.667 181.476 C 44.667 181.357,45.609 182.213,46.762 183.379 C 47.914 184.546,49.890 186.400,51.153 187.500 C 52.415 188.600,54.214 190.250,55.149 191.167 C 56.085 192.083,58.083 193.919,59.590 195.247 C 62.229 197.571,63.982 199.172,68.658 203.526 C 69.854 204.640,81.108 214.895,93.667 226.314 C 106.225 237.733,116.730 247.321,117.011 247.621 C 117.291 247.921,118.941 249.441,120.677 250.999 C 122.413 252.557,124.225 254.207,124.705 254.666 C 125.184 255.124,126.161 256.025,126.877 256.667 C 130.975 260.342,135.419 264.385,137.167 266.028 C 138.267 267.063,140.667 269.258,142.500 270.906 C 147.208 275.138,161.502 288.158,165.667 292.009 C 167.592 293.789,170.150 296.128,171.351 297.206 C 172.553 298.284,176.828 302.170,180.851 305.841 C 184.875 309.511,192.442 316.403,197.667 321.154 C 210.966 333.249,214.163 336.169,216.833 338.659 C 218.699 340.398,223.805 345.057,225.794 346.833 C 226.910 347.830,234.339 354.618,235.333 355.548 C 235.975 356.149,236.873 356.957,237.329 357.345 C 237.785 357.732,239.585 359.365,241.329 360.972 C 243.073 362.580,246.375 365.593,248.667 367.667 C 250.958 369.742,253.433 372.003,254.167 372.693 C 260.234 378.396,278.777 395.001,278.920 394.858 C 279.019 394.758,279.314 394.937,279.575 395.255 C 279.836 395.573,279.954 395.646,279.838 395.417 C 279.580 394.907,279.486 394.902,281.470 395.504 C 288.055 397.501,295.712 393.920,298.755 387.417 C 299.962 384.836,300.048 383.328,299.389 376.339 C 299.093 373.200,299.071 371.810,299.318 371.727 C 299.561 371.646,299.603 369.689,299.450 365.471 C 299.315 361.735,299.350 359.333,299.540 359.333 C 299.730 359.333,299.880 346.015,299.927 325.083 L 300.003 290.833 297.418 288.925 C 295.996 287.876,291.158 284.196,286.667 280.747 C 272.885 270.165,181.402 200.803,165.743 189.063 L 150.987 178.000 95.931 178.000 L 40.876 178.000 40.021 177.250 L 39.167 176.500 39.975 177.417 M392.315 352.250 L 391.167 353.500 392.417 352.351 C 393.104 351.719,393.667 351.157,393.667 351.101 C 393.667 350.847,393.385 351.087,392.315 352.250 M290.254 398.902 C 290.669 398.982,291.269 398.979,291.587 398.896 C 291.906 398.812,291.567 398.747,290.833 398.751 C 290.100 398.754,289.839 398.823,290.254 398.902 M293.583 398.902 C 293.996 398.981,294.671 398.981,295.083 398.902 C 295.496 398.822,295.158 398.757,294.333 398.757 C 293.508 398.757,293.171 398.822,293.583 398.902 " stroke="none" fill="#0f82cb" fill-rule="evenodd"></path><path id="path1" d="M289.667 1.219 C 285.565 1.760,280.210 3.831,277.833 5.795 C 276.887 6.577,276.942 6.568,278.842 5.633 C 287.357 1.442,297.669 6.388,299.625 15.600 C 299.896 16.878,300.000 37.873,300.001 91.600 C 300.001 132.428,300.100 169.996,300.221 175.083 L 300.441 184.333 350.060 184.333 L 399.679 184.333 399.589 122.583 L 399.500 60.833 398.565 58.167 C 396.630 52.649,393.002 47.806,388.667 44.954 C 385.546 42.900,301.786 2.787,299.037 2.029 C 296.553 1.344,291.820 0.935,289.667 1.219 M275.479 7.750 L 274.500 8.833 275.583 7.854 C 276.179 7.316,276.667 6.828,276.667 6.771 C 276.667 6.513,276.392 6.740,275.479 7.750 " stroke="none" fill="#49b1f3" fill-rule="evenodd"></path><path id="path2" d="M282.469 4.344 C 281.718 4.492,280.540 4.850,279.850 5.138 C 279.160 5.426,278.439 5.565,278.246 5.446 C 278.043 5.320,277.996 5.391,278.135 5.615 C 278.266 5.827,278.250 6.000,278.099 6.000 C 277.804 6.000,273.477 9.566,271.815 11.179 C 271.256 11.722,269.971 12.917,268.960 13.833 C 267.949 14.750,266.233 16.307,265.145 17.294 C 264.057 18.280,262.334 19.855,261.317 20.794 C 260.300 21.732,258.725 23.165,257.817 23.979 C 256.909 24.792,255.263 26.292,254.160 27.312 C 249.548 31.574,245.082 35.641,243.851 36.701 C 243.128 37.324,242.140 38.208,241.657 38.667 C 241.173 39.125,239.523 40.625,237.989 42.000 C 236.456 43.375,234.803 44.875,234.316 45.333 C 233.830 45.792,232.031 47.442,230.319 49.000 C 228.606 50.558,226.965 52.058,226.670 52.333 C 226.375 52.608,225.467 53.418,224.651 54.132 C 223.834 54.847,222.267 56.273,221.167 57.301 C 220.067 58.330,217.592 60.595,215.667 62.336 C 213.742 64.076,212.092 65.575,212.000 65.667 C 211.728 65.938,208.085 69.270,204.348 72.667 C 200.136 76.494,196.740 79.589,194.500 81.642 C 193.583 82.482,191.183 84.669,189.167 86.501 C 185.679 89.670,181.784 93.226,173.988 100.358 C 172.070 102.113,167.725 106.076,164.333 109.165 C 160.942 112.253,156.680 116.142,154.863 117.807 C 150.849 121.483,151.543 120.852,147.330 124.666 C 145.407 126.407,143.008 128.593,142.000 129.525 C 140.992 130.456,138.367 132.852,136.167 134.848 C 131.403 139.171,128.122 142.366,129.462 141.377 C 130.201 140.831,130.904 140.667,132.501 140.667 L 134.578 140.667 138.706 143.829 C 142.039 146.384,143.051 146.993,143.965 146.996 C 144.871 146.999,145.939 147.630,149.333 150.167 C 152.907 152.837,153.765 153.333,154.808 153.333 C 155.853 153.333,156.660 153.801,159.982 156.333 C 163.476 158.996,164.074 159.333,165.301 159.333 C 166.529 159.333,167.152 159.686,170.894 162.500 L 175.104 165.667 200.085 165.667 L 225.066 165.667 231.783 160.602 C 244.433 151.064,265.832 134.885,269.833 131.833 C 272.033 130.155,277.733 125.810,282.500 122.177 C 287.267 118.544,291.504 115.267,291.917 114.895 C 292.636 114.245,292.667 113.996,292.667 108.775 L 292.667 103.333 293.833 103.333 L 295.000 103.333 295.000 100.167 L 295.000 97.000 296.000 97.000 L 297.000 97.000 297.000 93.833 C 297.000 91.944,297.135 90.667,297.333 90.667 C 297.544 90.667,297.667 88.389,297.667 84.500 L 297.667 78.333 298.833 78.333 L 300.000 78.333 300.000 47.850 C 300.000 26.534,299.887 16.835,299.625 15.600 C 297.995 7.922,290.204 2.810,282.469 4.344 M35.014 96.911 C 31.260 97.614,29.465 98.945,17.140 110.167 C 11.301 115.483,5.945 120.354,5.239 120.991 C -2.503 127.975,-1.753 139.535,6.940 147.215 C 8.532 148.621,10.971 150.835,12.362 152.136 C 13.753 153.436,16.302 155.775,18.027 157.333 C 19.752 158.892,22.216 161.142,23.503 162.333 C 24.791 163.525,26.592 165.157,27.505 165.960 C 29.536 167.745,35.200 172.914,36.145 173.846 C 36.523 174.219,37.745 175.307,38.860 176.263 L 40.887 178.002 96.010 177.918 L 151.133 177.833 134.650 165.323 C 125.584 158.442,117.700 152.517,117.129 152.156 C 116.247 151.598,110.135 146.958,92.336 133.333 C 90.540 131.958,85.515 128.133,81.169 124.833 C 76.823 121.533,71.800 117.708,70.007 116.333 C 43.434 95.959,42.591 95.491,35.014 96.911 M155.453 181.257 C 155.717 181.684,157.667 183.127,157.667 182.896 C 157.667 182.813,157.116 182.326,156.443 181.812 C 155.770 181.299,155.324 181.049,155.453 181.257 " stroke="none" fill="#2786c3" fill-rule="evenodd"></path><path id="path3" d="M399.750 124.083 L 399.667 184.333 350.000 184.333 L 300.333 184.333 300.252 178.083 C 300.207 174.646,300.094 219.833,300.002 278.500 L 299.833 385.167 298.778 387.393 C 295.683 393.927,288.079 397.497,281.485 395.512 C 279.314 394.859,279.234 395.103,281.281 396.140 C 290.240 400.680,295.997 399.924,312.430 392.049 C 325.291 385.886,371.920 363.482,381.106 359.052 C 391.827 353.881,395.711 350.187,398.391 342.616 C 400.079 337.846,400.033 342.066,399.930 198.833 C 399.876 124.583,399.795 90.946,399.750 124.083 " stroke="none" fill="#2fa7f3" fill-rule="evenodd"></path><path id="path4" d="M297.667 84.500 C 297.667 88.389,297.544 90.667,297.333 90.667 C 297.135 90.667,297.000 91.944,297.000 93.833 L 297.000 97.000 296.000 97.000 L 295.000 97.000 295.000 100.167 L 295.000 103.333 293.833 103.333 L 292.667 103.333 292.667 108.775 C 292.667 113.996,292.636 114.245,291.917 114.895 C 291.504 115.267,287.267 118.544,282.500 122.177 C 277.733 125.810,272.033 130.155,269.833 131.833 C 265.832 134.885,244.433 151.064,231.783 160.602 L 225.066 165.667 200.085 165.667 L 175.104 165.667 170.894 162.500 C 167.152 159.686,166.529 159.333,165.301 159.333 C 164.074 159.333,163.476 158.996,159.982 156.333 C 156.660 153.801,155.853 153.333,154.808 153.333 C 153.765 153.333,152.907 152.837,149.333 150.167 C 145.939 147.630,144.871 146.999,143.965 146.996 C 143.051 146.993,142.039 146.384,138.706 143.829 L 134.578 140.667 132.501 140.667 C 130.940 140.667,130.216 140.830,129.590 141.322 C 129.131 141.683,128.686 141.908,128.600 141.822 C 128.514 141.736,128.069 142.079,127.612 142.583 C 127.154 143.087,125.591 144.550,124.140 145.833 C 122.688 147.117,120.596 149.021,119.490 150.065 L 117.481 151.964 99.157 138.057 C 49.280 100.204,47.530 98.884,48.333 99.729 C 48.750 100.167,77.855 122.301,110.500 147.005 C 114.717 150.196,131.892 163.226,148.667 175.960 C 165.442 188.694,180.354 200.013,181.805 201.113 C 183.256 202.213,184.337 202.943,184.209 202.735 C 184.080 202.527,183.306 201.876,182.488 201.289 C 180.549 199.896,180.026 200.540,188.083 194.404 C 191.979 191.437,196.892 187.689,199.000 186.074 C 202.277 183.564,214.767 174.079,237.583 156.775 C 240.563 154.515,245.486 150.776,248.523 148.466 C 257.059 141.974,258.473 140.901,263.833 136.843 C 275.904 127.705,291.841 115.655,295.750 112.711 L 300.000 109.509 300.000 93.921 L 300.000 78.333 298.833 78.333 L 297.667 78.333 297.667 84.500 M44.694 97.792 C 45.035 98.101,47.667 99.330,47.667 99.180 C 47.667 98.991,45.151 97.667,44.791 97.667 C 44.662 97.667,44.618 97.723,44.694 97.792 M54.790 209.025 C 49.314 214.015,43.933 218.938,42.833 219.966 C 41.092 221.592,37.106 225.232,32.000 229.859 C 29.506 232.120,25.609 235.680,23.666 237.474 C 21.450 239.520,15.502 244.932,9.179 250.655 C 5.194 254.262,2.798 256.863,1.941 258.512 C -0.930 264.034,-0.642 270.967,2.664 275.917 C 3.769 277.572,25.979 298.356,28.613 300.199 C 34.128 304.060,41.808 304.431,47.123 301.093 C 47.881 300.618,57.425 293.455,68.333 285.176 C 79.242 276.897,94.692 265.213,102.667 259.212 C 110.642 253.211,117.167 248.176,117.167 248.025 C 117.167 247.873,105.767 237.364,91.833 224.672 C 77.900 211.979,66.106 201.225,65.623 200.773 L 64.747 199.952 54.790 209.025 M186.000 204.146 C 186.000 204.238,187.800 205.672,190.000 207.333 C 192.200 208.995,194.000 210.279,194.000 210.187 C 194.000 210.096,192.200 208.661,190.000 207.000 C 187.800 205.339,186.000 204.054,186.000 204.146 M194.333 210.479 C 194.333 210.571,196.133 212.005,198.333 213.667 C 200.533 215.328,202.333 216.612,202.333 216.521 C 202.333 216.429,200.533 214.995,198.333 213.333 C 196.133 211.672,194.333 210.388,194.333 210.479 M205.333 218.809 C 205.333 218.901,206.833 220.112,208.667 221.500 C 210.500 222.888,212.000 223.949,212.000 223.858 C 212.000 223.766,210.500 222.555,208.667 221.167 C 206.833 219.778,205.333 218.717,205.333 218.809 M213.667 225.146 C 213.667 225.238,215.467 226.672,217.667 228.333 C 219.867 229.995,221.667 231.279,221.667 231.187 C 221.667 231.096,219.867 229.661,217.667 228.000 C 215.467 226.339,213.667 225.054,213.667 225.146 M223.333 232.476 C 223.333 232.567,224.833 233.778,226.667 235.167 C 228.500 236.555,230.000 237.616,230.000 237.524 C 230.000 237.433,228.500 236.222,226.667 234.833 C 224.833 233.445,223.333 232.384,223.333 232.476 M233.000 239.809 C 233.000 239.901,234.500 241.112,236.333 242.500 C 238.167 243.888,239.667 244.949,239.667 244.858 C 239.667 244.766,238.167 243.555,236.333 242.167 C 234.500 240.778,233.000 239.717,233.000 239.809 M242.667 247.142 C 242.667 247.234,244.167 248.445,246.000 249.833 C 247.833 251.222,249.333 252.283,249.333 252.191 C 249.333 252.099,247.833 250.888,246.000 249.500 C 244.167 248.112,242.667 247.051,242.667 247.142 M252.333 254.470 C 252.333 254.562,253.533 255.550,255.000 256.667 C 256.467 257.783,257.667 258.622,257.667 258.530 C 257.667 258.438,256.467 257.450,255.000 256.333 C 253.533 255.217,252.333 254.378,252.333 254.470 M262.000 261.794 C 262.000 261.886,262.900 262.654,264.000 263.500 C 265.100 264.346,266.000 264.964,266.000 264.872 C 266.000 264.781,265.100 264.013,264.000 263.167 C 262.900 262.320,262.000 261.703,262.000 261.794 M271.667 269.137 C 271.667 269.228,272.867 270.217,274.333 271.333 C 275.800 272.450,277.000 273.288,277.000 273.197 C 277.000 273.105,275.800 272.116,274.333 271.000 C 272.867 269.884,271.667 269.045,271.667 269.137 M278.667 274.476 C 278.667 274.567,280.167 275.778,282.000 277.167 C 283.833 278.555,285.333 279.616,285.333 279.524 C 285.333 279.433,283.833 278.222,282.000 276.833 C 280.167 275.445,278.667 274.384,278.667 274.476 M285.667 279.789 C 285.667 280.015,299.271 290.472,299.764 290.625 C 300.032 290.708,300.055 290.640,299.833 290.422 C 299.162 289.761,285.667 279.632,285.667 279.789 M199.333 322.771 C 199.333 322.828,199.821 323.316,200.417 323.854 L 201.500 324.833 200.521 323.750 C 199.608 322.740,199.333 322.513,199.333 322.771 M203.000 326.104 C 203.000 326.162,203.487 326.649,204.083 327.188 L 205.167 328.167 204.188 327.083 C 203.275 326.074,203.000 325.847,203.000 326.104 M207.000 329.771 C 207.000 329.828,207.487 330.316,208.083 330.854 L 209.167 331.833 208.188 330.750 C 207.275 329.740,207.000 329.513,207.000 329.771 M215.333 337.500 C 215.955 338.142,216.539 338.667,216.631 338.667 C 216.722 338.667,216.289 338.142,215.667 337.500 C 215.045 336.858,214.461 336.333,214.369 336.333 C 214.278 336.333,214.711 336.858,215.333 337.500 M299.799 351.333 C 299.799 353.992,299.851 355.079,299.914 353.750 C 299.977 352.421,299.977 350.246,299.914 348.917 C 299.851 347.587,299.799 348.675,299.799 351.333 M299.450 365.471 C 299.602 369.664,299.561 371.646,299.321 371.726 C 298.994 371.835,299.514 380.929,299.869 381.306 C 299.941 381.382,300.000 376.469,300.000 370.389 C 300.000 362.239,299.899 359.333,299.614 359.333 C 299.328 359.333,299.286 360.918,299.450 365.471 M245.000 364.438 C 245.000 364.495,245.487 364.983,246.083 365.521 L 247.167 366.500 246.188 365.417 C 245.275 364.407,245.000 364.180,245.000 364.438 M248.667 367.771 C 248.667 367.828,249.154 368.316,249.750 368.854 L 250.833 369.833 249.854 368.750 C 248.942 367.740,248.667 367.513,248.667 367.771 M257.000 375.500 C 257.622 376.142,258.206 376.667,258.297 376.667 C 258.389 376.667,257.955 376.142,257.333 375.500 C 256.711 374.858,256.128 374.333,256.036 374.333 C 255.944 374.333,256.378 374.858,257.000 375.500 M345.000 376.500 C 344.542 376.762,344.317 376.976,344.500 376.976 C 344.683 376.976,345.208 376.762,345.667 376.500 C 346.125 376.238,346.350 376.024,346.167 376.024 C 345.983 376.024,345.458 376.238,345.000 376.500 M260.667 378.833 C 261.289 379.475,261.872 380.000,261.964 380.000 C 262.056 380.000,261.622 379.475,261.000 378.833 C 260.378 378.192,259.794 377.667,259.703 377.667 C 259.611 377.667,260.045 378.192,260.667 378.833 M336.000 380.833 C 335.542 381.095,335.317 381.310,335.500 381.310 C 335.683 381.310,336.208 381.095,336.667 380.833 C 337.125 380.571,337.350 380.357,337.167 380.357 C 336.983 380.357,336.458 380.571,336.000 380.833 M264.667 382.500 C 265.289 383.142,265.872 383.667,265.964 383.667 C 266.056 383.667,265.622 383.142,265.000 382.500 C 264.378 381.858,263.794 381.333,263.703 381.333 C 263.611 381.333,264.045 381.858,264.667 382.500 M268.333 385.833 C 268.955 386.475,269.539 387.000,269.631 387.000 C 269.722 387.000,269.289 386.475,268.667 385.833 C 268.045 385.192,267.461 384.667,267.369 384.667 C 267.278 384.667,267.711 385.192,268.333 385.833 M272.167 389.333 C 272.883 390.067,273.544 390.667,273.635 390.667 C 273.727 390.667,273.216 390.067,272.500 389.333 C 271.784 388.600,271.123 388.000,271.031 388.000 C 270.940 388.000,271.451 388.600,272.167 389.333 M318.667 389.167 C 318.208 389.429,317.983 389.643,318.167 389.643 C 318.350 389.643,318.875 389.429,319.333 389.167 C 319.792 388.905,320.017 388.690,319.833 388.690 C 319.650 388.690,319.125 388.905,318.667 389.167 M275.667 392.500 C 276.289 393.142,276.872 393.667,276.964 393.667 C 277.056 393.667,276.622 393.142,276.000 392.500 C 275.378 391.858,274.794 391.333,274.703 391.333 C 274.611 391.333,275.045 391.858,275.667 392.500 M310.000 393.333 C 309.358 393.685,308.983 393.972,309.167 393.972 C 309.350 393.972,310.025 393.685,310.667 393.333 C 311.308 392.982,311.683 392.695,311.500 392.695 C 311.317 392.695,310.642 392.982,310.000 393.333 " stroke="none" fill="#1a73a9" fill-rule="evenodd"></path></g></svg>