<svg id="svg" version="1.1" xmlns="http://www.w3.org/2000/svg" xmlns:xlink="http://www.w3.org/1999/xlink" width="400" height="400" viewBox="0, 0, 400,400"><g id="svgg"><path id="path0" d="M265.800 37.600 C 265.664 37.820,264.483 38.000,263.176 38.000 C 261.859 38.000,260.800 38.178,260.800 38.400 C 260.800 38.620,260.080 38.800,259.200 38.800 C 258.320 38.800,257.600 38.980,257.600 39.200 C 257.600 39.420,256.880 39.600,256.000 39.600 C 255.120 39.600,254.400 39.780,254.400 40.000 C 254.400 40.220,253.695 40.400,252.833 40.400 C 251.972 40.400,251.207 40.545,251.133 40.721 C 251.060 40.898,249.650 41.462,248.000 41.974 C 244.312 43.118,242.000 44.089,242.000 44.494 C 242.000 44.662,241.640 44.800,241.200 44.800 C 240.760 44.800,240.400 44.980,240.400 45.200 C 240.400 45.420,240.040 45.600,239.600 45.600 C 239.160 45.600,238.800 45.780,238.800 46.000 C 238.800 46.220,238.440 46.400,238.000 46.400 C 237.560 46.400,237.200 46.580,237.200 46.800 C 237.200 47.020,236.840 47.200,236.400 47.200 C 235.960 47.200,235.600 47.380,235.600 47.600 C 235.600 47.820,235.364 48.000,235.075 48.000 C 234.787 48.000,234.164 48.360,233.692 48.800 C 233.220 49.240,232.556 49.600,232.217 49.600 C 231.878 49.600,231.600 49.780,231.600 50.000 C 231.600 50.220,231.330 50.400,231.000 50.400 C 230.670 50.400,230.400 50.580,230.400 50.800 C 230.400 51.020,230.170 51.200,229.888 51.200 C 229.607 51.200,229.117 51.560,228.800 52.000 C 228.483 52.440,228.058 52.800,227.855 52.800 C 227.652 52.800,226.971 53.340,226.340 54.000 C 225.709 54.660,225.021 55.200,224.812 55.200 C 224.151 55.200,213.200 65.765,213.200 66.402 C 213.200 66.574,212.660 67.293,212.000 68.000 C 211.340 68.707,210.800 69.418,210.800 69.581 C 210.800 69.842,210.337 70.469,208.807 72.283 C 208.583 72.549,208.400 73.004,208.400 73.295 C 208.400 73.586,208.040 74.083,207.600 74.400 C 207.160 74.717,206.800 75.297,206.800 75.688 C 206.800 76.080,206.620 76.400,206.400 76.400 C 206.180 76.400,206.000 76.670,206.000 77.000 C 206.000 77.330,205.820 77.600,205.600 77.600 C 205.380 77.600,205.200 77.870,205.200 78.200 C 205.200 78.530,205.020 78.800,204.800 78.800 C 204.580 78.800,204.400 79.070,204.400 79.400 C 204.400 79.730,204.220 80.000,204.000 80.000 C 203.780 80.000,203.600 80.360,203.600 80.800 C 203.600 81.240,203.420 81.600,203.200 81.600 C 202.980 81.600,202.800 81.830,202.800 82.110 C 202.800 82.391,202.266 83.696,201.613 85.010 C 200.959 86.325,200.419 87.715,200.413 88.100 C 200.406 88.485,200.220 88.800,200.000 88.800 C 199.780 88.800,199.600 89.340,199.600 90.000 C 199.600 90.660,199.420 91.200,199.200 91.200 C 198.980 91.200,198.800 91.639,198.800 92.176 C 198.800 92.713,198.620 93.264,198.400 93.400 C 198.180 93.536,198.000 94.076,198.000 94.600 C 198.000 95.124,197.820 95.664,197.600 95.800 C 197.380 95.936,197.200 96.667,197.200 97.424 C 197.200 98.181,197.020 98.800,196.800 98.800 C 196.580 98.800,196.400 99.394,196.400 100.120 C 196.400 100.846,196.237 101.611,196.037 101.820 C 195.837 102.029,195.565 103.190,195.433 104.400 C 195.301 105.610,194.990 108.130,194.742 110.000 C 193.930 116.129,194.201 126.146,195.426 135.300 L 195.681 137.200 191.640 137.200 C 189.213 137.200,187.600 137.040,187.600 136.800 C 187.600 136.565,186.208 136.400,184.224 136.400 C 182.367 136.400,180.736 136.220,180.600 136.000 C 180.464 135.780,179.013 135.600,177.376 135.600 C 175.659 135.600,174.400 135.431,174.400 135.200 C 174.400 134.978,173.333 134.800,172.000 134.800 C 170.667 134.800,169.600 134.622,169.600 134.400 C 169.600 134.180,168.610 134.000,167.400 134.000 C 166.190 134.000,165.200 133.820,165.200 133.600 C 165.200 133.380,164.300 133.200,163.200 133.200 C 162.100 133.200,161.200 133.020,161.200 132.800 C 161.200 132.580,160.401 132.400,159.424 132.400 C 158.447 132.400,157.536 132.220,157.400 132.000 C 157.264 131.780,156.544 131.600,155.800 131.600 C 155.056 131.600,154.336 131.420,154.200 131.200 C 154.064 130.980,153.333 130.800,152.576 130.800 C 151.819 130.800,151.200 130.620,151.200 130.400 C 151.200 130.180,150.480 130.000,149.600 130.000 C 148.720 130.000,148.000 129.820,148.000 129.600 C 148.000 129.380,147.471 129.200,146.824 129.200 C 146.177 129.200,145.536 129.020,145.400 128.800 C 145.264 128.580,144.711 128.400,144.171 128.400 C 143.631 128.400,142.877 128.238,142.495 128.039 C 142.113 127.840,140.990 127.453,140.000 127.179 C 139.010 126.904,136.926 126.257,135.370 125.740 C 133.813 125.223,132.148 124.800,131.670 124.800 C 131.191 124.800,130.800 124.620,130.800 124.400 C 130.800 124.180,130.260 124.000,129.600 124.000 C 128.940 124.000,128.400 123.820,128.400 123.600 C 128.400 123.380,128.051 123.200,127.624 123.200 C 127.197 123.200,126.736 123.020,126.600 122.800 C 126.464 122.580,125.913 122.400,125.376 122.400 C 124.839 122.400,124.400 122.220,124.400 122.000 C 124.400 121.780,124.051 121.600,123.624 121.600 C 123.197 121.600,122.736 121.420,122.600 121.200 C 122.464 120.980,122.003 120.800,121.576 120.800 C 121.149 120.800,120.800 120.620,120.800 120.400 C 120.800 120.180,120.451 120.000,120.024 120.000 C 119.597 120.000,119.136 119.820,119.000 119.600 C 118.864 119.380,118.313 119.200,117.776 119.200 C 117.239 119.200,116.800 119.020,116.800 118.800 C 116.800 118.580,116.440 118.400,116.000 118.400 C 115.560 118.400,115.200 118.220,115.200 118.000 C 115.200 117.780,114.964 117.600,114.675 117.600 C 114.386 117.600,113.441 117.266,112.575 116.859 C 111.709 116.451,110.415 115.867,109.700 115.561 C 108.985 115.255,108.400 114.869,108.400 114.702 C 108.400 114.536,108.166 114.400,107.880 114.400 C 107.144 114.400,105.207 113.459,105.203 113.100 C 105.201 112.935,104.840 112.800,104.400 112.800 C 103.960 112.800,103.600 112.620,103.600 112.400 C 103.600 112.180,103.240 112.000,102.800 112.000 C 102.360 112.000,102.000 111.820,102.000 111.600 C 102.000 111.380,101.655 111.200,101.233 111.200 C 100.812 111.200,100.407 111.043,100.333 110.851 C 100.153 110.379,96.181 108.400,95.413 108.400 C 95.076 108.400,94.800 108.220,94.800 108.000 C 94.800 107.780,94.522 107.600,94.183 107.600 C 93.844 107.600,93.211 107.269,92.777 106.864 C 92.342 106.459,91.495 105.874,90.893 105.564 C 90.292 105.254,89.451 104.685,89.025 104.300 C 88.598 103.915,88.013 103.600,87.725 103.600 C 87.436 103.600,87.200 103.420,87.200 103.200 C 87.200 102.980,86.880 102.800,86.488 102.800 C 86.097 102.800,85.517 102.440,85.200 102.000 C 84.883 101.560,84.303 101.200,83.912 101.200 C 83.520 101.200,83.200 101.050,83.200 100.868 C 83.200 100.685,82.705 100.280,82.100 99.968 C 81.495 99.655,80.651 99.085,80.225 98.700 C 79.798 98.315,79.253 98.000,79.013 98.000 C 78.773 98.000,78.317 97.640,78.000 97.200 C 77.683 96.760,77.169 96.400,76.859 96.400 C 76.548 96.400,76.000 96.085,75.641 95.700 C 75.282 95.315,74.703 94.820,74.354 94.600 C 71.810 92.996,70.106 91.767,69.553 91.137 C 69.197 90.732,68.702 90.400,68.454 90.400 C 68.205 90.400,67.259 89.680,66.352 88.800 C 65.445 87.920,64.545 87.200,64.352 87.200 C 64.159 87.200,63.259 86.480,62.352 85.600 C 61.445 84.720,60.557 84.000,60.378 84.000 C 60.199 84.000,59.079 83.055,57.889 81.900 C 56.700 80.745,54.674 78.900,53.387 77.800 C 49.852 74.777,34.800 59.554,34.800 59.001 C 34.800 58.893,33.720 57.708,32.400 56.368 C 31.080 55.027,30.000 53.753,30.000 53.537 C 30.000 52.823,28.874 52.000,27.899 52.000 C 26.981 52.000,24.800 55.603,24.800 57.118 C 24.800 57.383,24.620 57.600,24.400 57.600 C 24.180 57.600,24.000 57.960,24.000 58.400 C 24.000 58.840,23.820 59.200,23.600 59.200 C 23.380 59.200,23.200 59.560,23.200 60.000 C 23.200 60.440,23.020 60.800,22.800 60.800 C 22.580 60.800,22.400 61.250,22.400 61.800 C 22.400 62.350,22.220 62.800,22.000 62.800 C 21.780 62.800,21.600 63.340,21.600 64.000 C 21.600 64.660,21.420 65.200,21.200 65.200 C 20.980 65.200,20.800 65.562,20.800 66.005 C 20.800 66.448,20.641 67.123,20.447 67.505 C 19.335 69.690,18.400 72.808,18.400 74.328 C 18.400 75.028,18.220 75.600,18.000 75.600 C 17.780 75.600,17.600 76.399,17.600 77.376 C 17.600 78.353,17.420 79.264,17.200 79.400 C 16.980 79.536,16.800 80.987,16.800 82.624 C 16.800 84.341,16.631 85.600,16.400 85.600 C 15.856 85.600,15.856 102.664,16.400 103.000 C 16.620 103.136,16.800 104.306,16.800 105.600 C 16.800 106.894,16.980 108.064,17.200 108.200 C 17.420 108.336,17.600 109.247,17.600 110.224 C 17.600 111.201,17.780 112.000,18.000 112.000 C 18.220 112.000,18.400 112.900,18.400 114.000 C 18.400 115.100,18.580 116.000,18.800 116.000 C 19.020 116.000,19.200 116.540,19.200 117.200 C 19.200 117.860,19.380 118.400,19.600 118.400 C 19.820 118.400,20.000 118.940,20.000 119.600 C 20.000 120.260,20.180 120.800,20.400 120.800 C 20.620 120.800,20.800 121.239,20.800 121.776 C 20.800 122.313,20.980 122.864,21.200 123.000 C 21.420 123.136,21.600 123.687,21.600 124.224 C 21.600 124.761,21.780 125.200,22.000 125.200 C 22.220 125.200,22.400 125.560,22.400 126.000 C 22.400 126.440,22.580 126.800,22.800 126.800 C 23.020 126.800,23.200 127.160,23.200 127.600 C 23.200 128.040,23.380 128.400,23.600 128.400 C 23.820 128.400,24.000 128.760,24.000 129.200 C 24.000 129.640,24.180 130.000,24.400 130.000 C 24.620 130.000,24.800 130.280,24.800 130.622 C 24.800 131.376,27.031 135.949,27.829 136.831 C 28.143 137.179,28.400 137.596,28.400 137.759 C 28.400 137.922,28.940 138.841,29.600 139.800 C 30.260 140.759,30.800 141.661,30.800 141.803 C 30.800 141.946,31.520 142.754,32.400 143.600 C 33.280 144.446,34.000 145.310,34.000 145.520 C 34.000 145.731,34.720 146.645,35.600 147.552 C 36.480 148.459,37.200 149.381,37.200 149.600 C 37.200 149.820,37.361 150.000,37.558 150.000 C 37.755 150.000,39.780 151.892,42.058 154.203 C 44.336 156.515,46.536 158.514,46.948 158.646 C 47.359 158.777,48.259 159.435,48.948 160.108 C 49.636 160.781,49.930 161.173,49.600 160.979 C 49.270 160.786,47.470 160.500,45.600 160.344 C 43.730 160.188,41.300 159.864,40.200 159.624 C 39.100 159.383,36.895 158.973,35.300 158.713 C 33.705 158.453,32.400 158.097,32.400 157.920 C 32.400 157.744,31.860 157.600,31.200 157.600 C 30.540 157.600,30.000 157.420,30.000 157.200 C 30.000 156.980,29.460 156.800,28.800 156.800 C 28.140 156.800,27.600 156.620,27.600 156.400 C 27.600 156.180,27.276 156.000,26.880 156.000 C 25.986 156.000,24.007 155.106,24.003 154.700 C 24.001 154.535,23.640 154.400,23.200 154.400 C 22.760 154.400,22.400 154.220,22.400 154.000 C 22.400 153.780,22.040 153.600,21.600 153.600 C 21.160 153.600,20.800 153.420,20.800 153.200 C 20.800 152.980,20.440 152.800,20.000 152.800 C 19.560 152.800,19.200 152.620,19.200 152.400 C 19.200 152.180,18.840 152.000,18.400 152.000 C 17.960 152.000,17.600 151.820,17.600 151.600 C 17.600 151.380,17.060 151.200,16.400 151.200 L 15.200 151.200 15.200 155.976 C 15.200 158.729,15.369 160.858,15.600 161.000 C 15.820 161.136,16.000 162.486,16.000 164.000 C 16.000 165.514,16.180 166.864,16.400 167.000 C 16.620 167.136,16.800 168.047,16.800 169.024 C 16.800 170.001,16.980 170.800,17.200 170.800 C 17.420 170.800,17.600 171.610,17.600 172.600 C 17.600 173.590,17.780 174.400,18.000 174.400 C 18.220 174.400,18.400 174.940,18.400 175.600 C 18.400 176.260,18.580 176.800,18.800 176.800 C 19.020 176.800,19.200 177.340,19.200 178.000 C 19.200 178.660,19.380 179.200,19.600 179.200 C 19.820 179.200,20.000 179.740,20.000 180.400 C 20.000 181.060,20.180 181.600,20.400 181.600 C 20.620 181.600,20.800 182.140,20.800 182.800 C 20.800 183.460,20.980 184.000,21.200 184.000 C 21.420 184.000,21.600 184.360,21.600 184.800 C 21.600 185.240,21.780 185.600,22.000 185.600 C 22.220 185.600,22.400 186.050,22.400 186.600 C 22.400 187.150,22.580 187.600,22.800 187.600 C 23.020 187.600,23.200 187.834,23.200 188.120 C 23.200 188.856,24.141 190.793,24.500 190.797 C 24.665 190.799,24.800 191.160,24.800 191.600 C 24.800 192.040,24.935 192.400,25.100 192.401 C 25.265 192.401,25.926 193.481,26.570 194.801 C 27.213 196.120,27.867 197.200,28.023 197.200 C 28.179 197.200,28.407 197.515,28.529 197.900 C 28.838 198.876,30.079 200.880,30.819 201.599 C 31.159 201.930,31.877 202.828,32.414 203.596 C 33.971 205.821,43.632 216.000,44.187 216.000 C 44.304 216.000,45.141 216.720,46.048 217.600 C 46.955 218.480,47.905 219.200,48.160 219.200 C 48.415 219.200,48.883 219.560,49.200 220.000 C 49.517 220.440,49.962 220.800,50.188 220.800 C 50.415 220.801,51.117 221.246,51.749 221.789 C 52.381 222.333,53.236 222.884,53.649 223.016 C 54.062 223.147,54.400 223.422,54.400 223.627 C 54.400 223.832,54.683 224.000,55.029 224.000 C 55.374 224.000,55.927 224.270,56.257 224.600 C 56.587 224.930,57.204 225.200,57.629 225.200 C 58.053 225.200,58.400 225.346,58.400 225.525 C 58.400 225.704,59.030 226.098,59.800 226.400 C 60.570 226.702,61.200 227.096,61.200 227.275 C 61.200 227.454,61.560 227.600,62.000 227.600 C 62.440 227.600,62.800 227.780,62.800 228.000 C 62.800 228.220,63.072 228.400,63.405 228.400 C 63.738 228.400,64.368 228.580,64.805 228.800 C 65.242 229.020,65.958 229.380,66.395 229.600 C 66.832 229.820,67.462 230.000,67.795 230.000 C 68.128 230.000,68.400 230.180,68.400 230.400 C 68.400 230.620,68.940 230.800,69.600 230.800 C 70.260 230.800,70.800 230.980,70.800 231.200 C 70.800 231.420,71.340 231.600,72.000 231.600 C 72.660 231.600,73.200 231.780,73.200 232.000 C 73.200 232.220,73.663 232.400,74.229 232.400 C 75.155 232.400,76.400 233.186,76.400 233.771 C 76.400 233.897,75.500 234.000,74.400 234.000 C 73.300 234.000,72.400 234.180,72.400 234.400 C 72.400 234.643,70.600 234.800,67.800 234.800 C 65.000 234.800,63.200 234.957,63.200 235.200 C 63.200 235.441,61.533 235.600,59.000 235.600 C 56.467 235.600,54.800 235.441,54.800 235.200 C 54.800 234.965,53.400 234.800,51.400 234.800 C 49.400 234.800,48.000 234.635,48.000 234.400 C 48.000 234.180,47.100 234.000,46.000 234.000 C 43.222 234.000,43.645 236.697,47.644 244.495 C 47.840 244.877,48.000 245.462,48.000 245.795 C 48.000 246.128,48.180 246.400,48.400 246.400 C 48.620 246.400,48.800 246.760,48.800 247.200 C 48.800 247.640,48.980 248.000,49.200 248.000 C 49.420 248.000,49.600 248.236,49.600 248.525 C 49.600 248.813,49.960 249.436,50.400 249.908 C 50.840 250.380,51.200 251.044,51.200 251.383 C 51.200 251.722,51.380 252.000,51.600 252.000 C 51.820 252.000,52.000 252.320,52.000 252.712 C 52.000 253.103,52.360 253.683,52.800 254.000 C 53.240 254.317,53.600 254.857,53.600 255.200 C 53.600 255.543,53.960 256.083,54.400 256.400 C 54.840 256.717,55.200 257.187,55.200 257.443 C 55.200 257.700,55.738 258.335,56.396 258.855 C 57.054 259.375,57.594 260.038,57.596 260.329 C 57.598 260.619,57.825 261.091,58.100 261.378 C 58.375 261.664,59.230 262.676,60.000 263.628 C 63.196 267.576,70.328 274.255,72.614 275.441 C 73.221 275.756,74.028 276.371,74.406 276.807 C 74.784 277.243,75.298 277.600,75.547 277.600 C 75.796 277.600,76.000 277.780,76.000 278.000 C 76.000 278.220,76.270 278.400,76.600 278.400 C 76.930 278.400,77.200 278.580,77.200 278.800 C 77.200 279.020,77.470 279.200,77.800 279.200 C 78.130 279.200,78.400 279.380,78.400 279.600 C 78.400 279.820,78.670 280.000,79.000 280.000 C 79.330 280.000,79.600 280.180,79.600 280.400 C 79.600 280.620,79.870 280.800,80.200 280.800 C 80.530 280.800,80.800 280.980,80.800 281.200 C 80.800 281.420,81.145 281.600,81.567 281.600 C 81.988 281.600,82.393 281.735,82.467 281.900 C 82.655 282.324,87.599 284.800,88.256 284.800 C 88.555 284.800,88.800 284.980,88.800 285.200 C 88.800 285.420,89.160 285.600,89.600 285.600 C 90.040 285.600,90.400 285.780,90.400 286.000 C 90.400 286.220,90.672 286.400,91.005 286.400 C 91.338 286.400,91.968 286.580,92.405 286.800 C 92.842 287.020,93.558 287.380,93.995 287.600 C 94.432 287.820,95.141 288.000,95.571 288.000 C 96.001 288.000,96.464 288.180,96.600 288.400 C 96.736 288.620,97.199 288.800,97.629 288.800 C 98.059 288.800,98.723 288.958,99.105 289.151 C 100.423 289.817,102.660 290.400,103.895 290.400 C 104.576 290.400,105.193 290.579,105.267 290.798 C 105.340 291.017,107.342 291.314,109.715 291.460 C 112.087 291.605,114.123 291.876,114.238 292.062 C 114.353 292.248,115.337 292.400,116.424 292.400 C 118.664 292.400,118.967 292.868,117.200 293.600 C 116.540 293.873,116.000 294.213,116.000 294.354 C 116.000 294.495,115.280 295.056,114.400 295.600 C 113.520 296.144,112.800 296.726,112.800 296.894 C 112.800 297.062,112.558 297.200,112.262 297.200 C 111.966 297.200,111.398 297.560,111.000 298.000 C 110.602 298.440,110.074 298.800,109.826 298.800 C 109.579 298.800,109.117 299.160,108.800 299.600 C 108.483 300.040,107.903 300.400,107.512 300.400 C 107.120 300.400,106.800 300.580,106.800 300.800 C 106.800 301.020,106.480 301.200,106.088 301.200 C 105.697 301.200,105.117 301.560,104.800 302.000 C 104.483 302.440,103.903 302.800,103.512 302.800 C 103.120 302.800,102.800 302.980,102.800 303.200 C 102.800 303.420,102.564 303.600,102.275 303.600 C 101.987 303.600,101.364 303.960,100.892 304.400 C 100.420 304.840,99.756 305.200,99.417 305.200 C 99.078 305.200,98.800 305.380,98.800 305.600 C 98.800 305.820,98.440 306.000,98.000 306.000 C 97.560 306.000,97.200 306.180,97.200 306.400 C 97.200 306.620,96.840 306.800,96.400 306.800 C 95.960 306.800,95.600 306.936,95.600 307.102 C 95.600 307.269,95.015 307.658,94.300 307.968 C 93.585 308.277,91.382 309.311,89.404 310.265 C 87.427 311.219,85.582 312.000,85.304 312.000 C 85.027 312.000,84.800 312.180,84.800 312.400 C 84.800 312.620,84.361 312.800,83.824 312.800 C 83.287 312.800,82.736 312.980,82.600 313.200 C 82.464 313.420,82.003 313.600,81.576 313.600 C 81.149 313.600,80.800 313.780,80.800 314.000 C 80.800 314.220,80.361 314.400,79.824 314.400 C 79.287 314.400,78.736 314.580,78.600 314.800 C 78.464 315.020,78.003 315.200,77.576 315.200 C 77.149 315.200,76.800 315.380,76.800 315.600 C 76.800 315.820,76.350 316.000,75.800 316.000 C 75.250 316.000,74.800 316.180,74.800 316.400 C 74.800 316.620,74.260 316.800,73.600 316.800 C 72.940 316.800,72.400 316.980,72.400 317.200 C 72.400 317.420,71.860 317.600,71.200 317.600 C 70.540 317.600,70.000 317.780,70.000 318.000 C 70.000 318.220,69.460 318.400,68.800 318.400 C 68.140 318.400,67.600 318.580,67.600 318.800 C 67.600 319.020,66.981 319.200,66.224 319.200 C 65.467 319.200,64.736 319.380,64.600 319.600 C 64.464 319.820,63.924 320.000,63.400 320.000 C 62.876 320.000,62.336 320.180,62.200 320.400 C 62.064 320.620,61.333 320.800,60.576 320.800 C 59.819 320.800,59.200 320.980,59.200 321.200 C 59.200 321.420,58.491 321.600,57.624 321.600 C 56.757 321.600,55.936 321.780,55.800 322.000 C 55.664 322.220,54.753 322.400,53.776 322.400 C 52.799 322.400,52.000 322.580,52.000 322.800 C 52.000 323.020,51.201 323.200,50.224 323.200 C 49.247 323.200,48.336 323.380,48.200 323.600 C 48.064 323.820,46.971 324.000,45.771 324.000 C 44.571 324.000,43.277 324.166,42.895 324.369 C 42.006 324.842,31.223 325.601,21.248 325.893 C 14.430 326.092,8.266 325.806,1.500 324.975 C -0.373 324.745,-0.718 326.281,1.000 327.200 C 1.550 327.494,2.000 327.885,2.000 328.068 C 2.000 328.250,2.360 328.400,2.800 328.400 C 3.240 328.400,3.600 328.580,3.600 328.800 C 3.600 329.020,3.920 329.200,4.312 329.200 C 4.703 329.200,5.283 329.560,5.600 330.000 C 5.917 330.440,6.497 330.800,6.888 330.800 C 7.280 330.800,7.600 330.980,7.600 331.200 C 7.600 331.420,7.836 331.600,8.125 331.600 C 8.413 331.600,8.998 331.915,9.425 332.300 C 9.851 332.685,10.740 333.270,11.400 333.599 C 12.060 333.929,12.690 334.291,12.800 334.404 C 13.315 334.934,26.810 341.600,27.367 341.600 C 27.715 341.600,28.000 341.780,28.000 342.000 C 28.000 342.220,28.450 342.400,29.000 342.400 C 29.550 342.400,30.000 342.580,30.000 342.800 C 30.000 343.020,30.360 343.200,30.800 343.200 C 31.240 343.200,31.600 343.380,31.600 343.600 C 31.600 343.820,32.140 344.000,32.800 344.000 C 33.460 344.000,34.000 344.180,34.000 344.400 C 34.000 344.620,34.360 344.800,34.800 344.800 C 35.240 344.800,35.600 344.980,35.600 345.200 C 35.600 345.420,35.949 345.600,36.376 345.600 C 36.803 345.600,37.264 345.780,37.400 346.000 C 37.536 346.220,38.087 346.400,38.624 346.400 C 39.161 346.400,39.600 346.580,39.600 346.800 C 39.600 347.020,39.960 347.200,40.400 347.200 C 40.840 347.200,41.200 347.380,41.200 347.600 C 41.200 347.820,41.650 348.000,42.200 348.000 C 42.750 348.000,43.200 348.180,43.200 348.400 C 43.200 348.620,43.740 348.800,44.400 348.800 C 45.060 348.800,45.600 348.980,45.600 349.200 C 45.600 349.420,46.039 349.600,46.576 349.600 C 47.113 349.600,47.664 349.780,47.800 350.000 C 47.936 350.220,48.476 350.400,49.000 350.400 C 49.524 350.400,50.064 350.580,50.200 350.800 C 50.336 351.020,50.876 351.200,51.400 351.200 C 51.924 351.200,52.442 351.344,52.551 351.521 C 52.660 351.697,53.672 352.093,54.800 352.400 C 55.928 352.707,56.940 353.103,57.049 353.279 C 57.158 353.456,57.766 353.600,58.400 353.600 C 59.034 353.600,59.664 353.780,59.800 354.000 C 59.936 354.220,60.667 354.400,61.424 354.400 C 62.181 354.400,62.800 354.580,62.800 354.800 C 62.800 355.020,63.419 355.200,64.176 355.200 C 64.933 355.200,65.652 355.360,65.773 355.556 C 65.894 355.751,66.579 356.008,67.296 356.127 C 68.013 356.245,69.320 356.527,70.200 356.753 C 71.080 356.979,72.610 357.369,73.600 357.620 C 74.590 357.872,77.155 358.271,79.300 358.508 C 81.445 358.744,83.200 359.087,83.200 359.269 C 83.200 359.451,84.179 359.600,85.376 359.600 C 86.573 359.600,87.664 359.780,87.800 360.000 C 87.936 360.220,89.117 360.400,90.424 360.400 C 91.741 360.400,92.800 360.578,92.800 360.800 C 92.800 361.035,94.200 361.200,96.200 361.200 C 98.200 361.200,99.600 361.365,99.600 361.600 C 99.600 361.837,101.067 362.000,103.200 362.000 C 105.333 362.000,106.800 362.163,106.800 362.400 C 106.800 362.661,113.459 362.800,125.976 362.800 C 138.329 362.800,145.241 362.658,145.400 362.400 C 145.540 362.173,147.530 362.000,150.000 362.000 C 152.470 362.000,154.460 361.827,154.600 361.600 C 154.736 361.380,156.097 361.200,157.624 361.200 C 159.208 361.200,160.400 361.028,160.400 360.800 C 160.400 360.569,161.659 360.400,163.376 360.400 C 165.013 360.400,166.464 360.220,166.600 360.000 C 166.736 359.780,167.737 359.600,168.824 359.600 C 169.911 359.600,170.800 359.451,170.800 359.269 C 170.800 359.087,172.555 358.744,174.700 358.508 C 176.845 358.271,179.410 357.872,180.400 357.620 C 181.390 357.369,182.920 356.977,183.800 356.749 C 184.680 356.521,186.076 356.240,186.903 356.125 C 187.729 356.010,188.505 355.755,188.626 355.558 C 188.748 355.361,189.467 355.200,190.224 355.200 C 190.981 355.200,191.600 355.020,191.600 354.800 C 191.600 354.580,192.129 354.400,192.776 354.400 C 193.423 354.400,194.064 354.220,194.200 354.000 C 194.336 353.780,194.966 353.600,195.600 353.600 C 196.234 353.600,196.864 353.420,197.000 353.200 C 197.136 352.980,197.777 352.800,198.424 352.800 C 199.071 352.800,199.600 352.620,199.600 352.400 C 199.600 352.180,200.140 352.000,200.800 352.000 C 201.460 352.000,202.000 351.820,202.000 351.600 C 202.000 351.380,202.540 351.200,203.200 351.200 C 203.860 351.200,204.400 351.020,204.400 350.800 C 204.400 350.580,204.839 350.400,205.376 350.400 C 205.913 350.400,206.464 350.220,206.600 350.000 C 206.736 349.780,207.287 349.600,207.824 349.600 C 208.361 349.600,208.800 349.420,208.800 349.200 C 208.800 348.980,209.239 348.800,209.776 348.800 C 210.313 348.800,210.864 348.620,211.000 348.400 C 211.136 348.180,211.597 348.000,212.024 348.000 C 212.451 348.000,212.800 347.820,212.800 347.600 C 212.800 347.380,213.340 347.200,214.000 347.200 C 214.660 347.200,215.200 347.020,215.200 346.800 C 215.200 346.580,215.549 346.400,215.976 346.400 C 216.403 346.400,216.864 346.220,217.000 346.000 C 217.136 345.780,217.687 345.600,218.224 345.600 C 218.761 345.600,219.200 345.420,219.200 345.200 C 219.200 344.980,219.560 344.800,220.000 344.800 C 220.440 344.800,220.800 344.620,220.800 344.400 C 220.800 344.180,221.160 344.000,221.600 344.000 C 222.040 344.000,222.400 343.820,222.400 343.600 C 222.400 343.380,222.850 343.200,223.400 343.200 C 223.950 343.200,224.400 343.020,224.400 342.800 C 224.400 342.580,224.760 342.400,225.200 342.400 C 225.640 342.400,226.000 342.236,226.000 342.035 C 226.000 341.834,226.720 341.549,227.600 341.400 C 228.480 341.251,229.200 340.966,229.200 340.765 C 229.200 340.564,229.560 340.400,230.000 340.400 C 230.440 340.400,230.800 340.220,230.800 340.000 C 230.800 339.780,231.160 339.600,231.600 339.600 C 232.040 339.600,232.400 339.420,232.400 339.200 C 232.400 338.980,232.760 338.800,233.200 338.800 C 233.640 338.800,234.000 338.620,234.000 338.400 C 234.000 338.180,234.360 338.000,234.800 338.000 C 235.240 338.000,235.600 337.820,235.600 337.600 C 235.600 337.380,235.960 337.200,236.400 337.200 C 236.840 337.200,237.200 337.054,237.200 336.875 C 237.200 336.696,237.830 336.302,238.600 336.000 C 239.370 335.698,240.000 335.304,240.000 335.125 C 240.000 334.946,240.236 334.800,240.525 334.800 C 240.813 334.800,241.436 334.440,241.908 334.000 C 242.380 333.560,243.044 333.200,243.383 333.200 C 243.722 333.200,244.000 333.020,244.000 332.800 C 244.000 332.580,244.360 332.400,244.800 332.400 C 245.240 332.400,245.600 332.220,245.600 332.000 C 245.600 331.780,245.836 331.600,246.125 331.600 C 246.413 331.600,247.036 331.240,247.508 330.800 C 247.980 330.360,248.604 330.000,248.895 330.000 C 249.186 330.000,249.683 329.640,250.000 329.200 C 250.317 328.760,250.814 328.400,251.105 328.400 C 251.396 328.400,252.020 328.040,252.492 327.600 C 252.964 327.160,253.587 326.800,253.875 326.800 C 254.164 326.800,254.402 326.665,254.405 326.500 C 254.407 326.335,255.134 325.852,256.021 325.428 C 256.907 325.003,258.164 324.148,258.813 323.528 C 259.462 322.907,260.225 322.400,260.508 322.400 C 260.791 322.400,261.283 322.040,261.600 321.600 C 261.917 321.160,262.380 320.800,262.629 320.800 C 262.878 320.800,263.646 320.260,264.337 319.600 C 265.028 318.940,265.792 318.400,266.036 318.400 C 266.280 318.400,266.983 317.860,267.600 317.200 C 268.217 316.540,268.897 316.000,269.112 316.000 C 269.327 316.000,270.245 315.280,271.152 314.400 C 272.059 313.520,272.918 312.800,273.060 312.800 C 273.203 312.800,274.148 311.945,275.160 310.900 C 276.172 309.855,277.482 308.752,278.071 308.448 C 278.660 308.145,280.753 306.345,282.724 304.448 C 284.694 302.552,287.813 299.560,289.655 297.800 C 291.497 296.040,293.243 294.134,293.535 293.564 C 293.827 292.995,294.442 292.275,294.900 291.964 C 296.203 291.083,301.200 285.985,301.200 285.538 C 301.200 285.318,301.881 284.476,302.713 283.669 C 303.545 282.861,304.668 281.570,305.209 280.800 C 305.749 280.030,306.688 278.878,307.296 278.241 C 307.903 277.603,308.400 276.865,308.400 276.600 C 308.400 276.335,308.895 275.571,309.500 274.902 C 312.144 271.979,312.800 271.162,312.800 270.793 C 312.800 270.577,312.980 270.400,313.200 270.400 C 313.420 270.400,313.600 270.170,313.600 269.888 C 313.600 269.607,313.960 269.117,314.400 268.800 C 314.840 268.483,315.200 267.943,315.200 267.600 C 315.200 267.257,315.560 266.717,316.000 266.400 C 316.440 266.083,316.800 265.543,316.800 265.200 C 316.800 264.857,317.160 264.317,317.600 264.000 C 318.040 263.683,318.400 263.238,318.400 263.012 C 318.401 262.785,318.846 262.083,319.389 261.451 C 319.933 260.819,320.484 259.964,320.616 259.551 C 320.747 259.138,321.022 258.800,321.227 258.800 C 321.432 258.800,321.600 258.614,321.600 258.387 C 321.600 258.161,322.410 256.767,323.400 255.292 C 324.390 253.816,325.200 252.374,325.200 252.088 C 325.200 251.801,325.560 251.180,326.000 250.708 C 326.440 250.236,326.800 249.613,326.800 249.325 C 326.800 249.036,326.980 248.800,327.200 248.800 C 327.420 248.800,327.600 248.440,327.600 248.000 C 327.600 247.560,327.780 247.200,328.000 247.200 C 328.220 247.200,328.400 246.840,328.400 246.400 C 328.400 245.960,328.580 245.600,328.800 245.600 C 329.020 245.600,329.200 245.364,329.200 245.075 C 329.200 244.787,329.560 244.164,330.000 243.692 C 330.440 243.220,330.800 242.556,330.800 242.217 C 330.800 241.878,330.946 241.600,331.125 241.600 C 331.304 241.600,331.698 240.970,332.000 240.200 C 332.302 239.430,332.696 238.800,332.875 238.800 C 333.054 238.800,333.200 238.440,333.200 238.000 C 333.200 237.560,333.380 237.200,333.600 237.200 C 333.820 237.200,334.000 236.840,334.000 236.400 C 334.000 235.960,334.180 235.600,334.400 235.600 C 334.620 235.600,334.800 235.240,334.800 234.800 C 334.800 234.360,334.980 234.000,335.200 234.000 C 335.420 234.000,335.600 233.640,335.600 233.200 C 335.600 232.760,335.780 232.400,336.000 232.400 C 336.220 232.400,336.400 232.040,336.400 231.600 C 336.400 231.160,336.580 230.800,336.800 230.800 C 337.020 230.800,337.200 230.528,337.200 230.195 C 337.200 229.862,337.380 229.232,337.600 228.795 C 337.820 228.358,338.180 227.642,338.400 227.205 C 338.620 226.768,338.800 226.153,338.800 225.839 C 338.800 225.524,338.943 225.207,339.119 225.133 C 339.615 224.926,341.106 221.506,341.413 219.871 C 341.565 219.062,341.849 218.400,342.045 218.400 C 342.240 218.400,342.400 217.860,342.400 217.200 C 342.400 216.540,342.580 216.000,342.800 216.000 C 343.020 216.000,343.200 215.640,343.200 215.200 C 343.200 214.760,343.380 214.400,343.600 214.400 C 343.820 214.400,344.000 213.860,344.000 213.200 C 344.000 212.540,344.180 212.000,344.400 212.000 C 344.620 212.000,344.800 211.640,344.800 211.200 C 344.800 210.760,344.980 210.400,345.200 210.400 C 345.420 210.400,345.600 209.860,345.600 209.200 C 345.600 208.540,345.780 208.000,346.000 208.000 C 346.220 208.000,346.400 207.561,346.400 207.024 C 346.400 206.487,346.580 205.936,346.800 205.800 C 347.020 205.664,347.200 205.113,347.200 204.576 C 347.200 204.039,347.380 203.600,347.600 203.600 C 347.820 203.600,348.000 203.060,348.000 202.400 C 348.000 201.740,348.180 201.200,348.400 201.200 C 348.620 201.200,348.800 200.660,348.800 200.000 C 348.800 199.340,348.980 198.800,349.200 198.800 C 349.420 198.800,349.600 198.080,349.600 197.200 C 349.600 196.320,349.780 195.600,350.000 195.600 C 350.220 195.600,350.400 195.060,350.400 194.400 C 350.400 193.740,350.580 193.200,350.800 193.200 C 351.020 193.200,351.200 192.671,351.200 192.024 C 351.200 191.377,351.380 190.736,351.600 190.600 C 351.820 190.464,352.000 189.744,352.000 189.000 C 352.000 188.256,352.180 187.536,352.400 187.400 C 352.620 187.264,352.800 186.634,352.800 186.000 C 352.800 185.366,352.980 184.736,353.200 184.600 C 353.420 184.464,353.600 183.744,353.600 183.000 C 353.600 182.256,353.780 181.536,354.000 181.400 C 354.220 181.264,354.400 180.353,354.400 179.376 C 354.400 178.399,354.580 177.600,354.800 177.600 C 355.020 177.600,355.200 176.801,355.200 175.824 C 355.200 174.847,355.380 173.936,355.600 173.800 C 355.820 173.664,356.000 172.789,356.000 171.856 C 356.000 170.923,356.164 169.989,356.365 169.780 C 356.565 169.571,356.826 168.410,356.945 167.200 C 357.063 165.990,357.356 163.830,357.596 162.400 C 358.260 158.444,358.721 153.030,358.762 148.700 C 358.785 146.392,358.963 144.800,359.200 144.800 C 359.458 144.800,359.600 140.320,359.600 132.160 L 359.600 119.521 361.464 117.760 C 362.489 116.792,363.496 116.000,363.703 116.000 C 363.910 116.000,364.583 115.460,365.200 114.800 C 365.817 114.140,366.497 113.600,366.712 113.600 C 366.927 113.600,367.845 112.880,368.752 112.000 C 369.659 111.120,370.586 110.400,370.813 110.400 C 371.363 110.400,387.200 94.496,387.200 93.943 C 387.200 93.705,388.190 92.604,389.400 91.495 C 390.610 90.387,391.600 89.237,391.600 88.940 C 391.600 88.643,391.780 88.400,392.000 88.400 C 392.220 88.400,392.400 88.170,392.400 87.888 C 392.400 87.607,392.760 87.117,393.200 86.800 C 393.640 86.483,394.000 85.975,394.000 85.672 C 394.000 85.369,394.540 84.617,395.200 84.000 C 395.860 83.383,396.400 82.663,396.400 82.400 C 396.400 82.137,396.940 81.417,397.600 80.800 C 398.260 80.183,398.800 79.468,398.800 79.211 C 398.800 78.953,399.070 78.473,399.400 78.143 C 400.648 76.894,400.179 75.205,398.700 75.625 C 396.749 76.179,393.728 77.323,392.305 78.047 C 391.923 78.241,391.338 78.400,391.005 78.400 C 390.672 78.400,390.400 78.580,390.400 78.800 C 390.400 79.020,389.961 79.200,389.424 79.200 C 388.887 79.200,388.336 79.380,388.200 79.600 C 388.064 79.820,387.423 80.000,386.776 80.000 C 386.129 80.000,385.600 80.180,385.600 80.400 C 385.600 80.620,385.060 80.800,384.400 80.800 C 383.740 80.800,383.200 80.980,383.200 81.200 C 383.200 81.420,382.660 81.600,382.000 81.600 C 381.340 81.600,380.800 81.780,380.800 82.000 C 380.800 82.220,380.271 82.400,379.624 82.400 C 378.977 82.400,378.336 82.580,378.200 82.800 C 378.064 83.020,377.423 83.200,376.776 83.200 C 376.129 83.200,375.600 83.380,375.600 83.600 C 375.600 83.820,374.880 84.000,374.000 84.000 C 373.120 84.000,372.400 84.180,372.400 84.400 C 372.400 84.620,371.691 84.800,370.824 84.800 C 369.957 84.800,369.136 84.980,369.000 85.200 C 368.864 85.420,368.054 85.600,367.200 85.600 C 366.346 85.600,365.536 85.780,365.400 86.000 C 365.264 86.220,364.263 86.400,363.176 86.400 C 362.089 86.400,361.200 86.580,361.200 86.800 C 361.200 87.020,360.356 87.200,359.325 87.200 L 357.449 87.200 358.308 86.400 C 358.780 85.960,359.332 85.600,359.535 85.600 C 359.738 85.600,360.645 84.880,361.552 84.000 C 362.459 83.120,363.377 82.400,363.592 82.400 C 364.078 82.400,374.800 71.735,374.800 71.251 C 374.800 71.058,375.430 70.213,376.200 69.372 C 376.970 68.531,377.600 67.649,377.600 67.410 C 377.600 67.172,377.960 66.717,378.400 66.400 C 378.840 66.083,379.200 65.543,379.200 65.200 C 379.200 64.857,379.560 64.317,380.000 64.000 C 380.440 63.683,380.800 63.103,380.800 62.712 C 380.800 62.320,380.958 62.000,381.151 62.000 C 381.345 62.000,381.727 61.460,382.000 60.800 C 382.273 60.140,382.610 59.599,382.749 59.599 C 382.887 59.598,383.450 58.608,384.000 57.400 C 384.550 56.192,385.135 55.202,385.300 55.201 C 385.465 55.201,385.600 54.840,385.600 54.400 C 385.600 53.960,385.780 53.600,386.000 53.600 C 386.220 53.600,386.400 53.240,386.400 52.800 C 386.400 52.360,386.580 52.000,386.800 52.000 C 387.020 52.000,387.200 51.460,387.200 50.800 C 387.200 50.140,387.347 49.600,387.528 49.600 C 387.708 49.600,388.100 48.700,388.400 47.600 C 388.700 46.500,389.092 45.600,389.272 45.600 C 389.720 45.600,389.675 43.939,389.208 43.200 C 388.825 42.595,382.422 45.325,382.406 46.100 C 382.403 46.265,382.040 46.400,381.600 46.400 C 381.160 46.400,380.799 46.535,380.799 46.700 C 380.798 46.865,379.808 47.450,378.600 48.000 C 377.392 48.550,376.402 49.135,376.401 49.300 C 376.401 49.465,376.040 49.600,375.600 49.600 C 375.160 49.600,374.800 49.780,374.800 50.000 C 374.800 50.220,374.440 50.400,374.000 50.400 C 373.560 50.400,373.200 50.580,373.200 50.800 C 373.200 51.020,372.761 51.200,372.224 51.200 C 371.687 51.200,371.136 51.380,371.000 51.600 C 370.864 51.820,370.403 52.000,369.976 52.000 C 369.549 52.000,369.200 52.180,369.200 52.400 C 369.200 52.620,368.840 52.800,368.400 52.800 C 367.960 52.800,367.600 52.980,367.600 53.200 C 367.600 53.420,367.161 53.600,366.624 53.600 C 366.087 53.600,365.536 53.780,365.400 54.000 C 365.264 54.220,364.803 54.400,364.376 54.400 C 363.949 54.400,363.600 54.580,363.600 54.800 C 363.600 55.020,363.150 55.200,362.600 55.200 C 362.050 55.200,361.600 55.380,361.600 55.600 C 361.600 55.820,361.060 56.000,360.400 56.000 C 359.740 56.000,359.200 56.180,359.200 56.400 C 359.200 56.620,358.660 56.800,358.000 56.800 C 357.340 56.800,356.800 56.980,356.800 57.200 C 356.800 57.420,356.260 57.600,355.600 57.600 C 354.940 57.600,354.400 57.780,354.400 58.000 C 354.400 58.220,353.995 58.399,353.500 58.398 C 353.005 58.397,351.700 58.683,350.600 59.033 C 346.895 60.214,346.147 60.400,345.095 60.400 C 344.519 60.400,343.936 60.580,343.800 60.800 C 343.664 61.020,342.944 61.200,342.200 61.200 C 341.456 61.200,340.736 61.380,340.600 61.600 C 340.464 61.820,339.559 62.000,338.590 62.000 C 336.724 62.000,336.224 61.665,332.162 57.700 C 331.205 56.765,330.222 56.000,329.979 56.000 C 329.736 56.000,328.846 55.280,328.000 54.400 C 327.154 53.520,326.222 52.800,325.928 52.800 C 325.633 52.800,325.168 52.440,324.893 52.000 C 324.618 51.560,324.125 51.200,323.797 51.200 C 323.468 51.200,323.200 51.050,323.200 50.868 C 323.200 50.685,322.705 50.280,322.100 49.968 C 321.495 49.655,320.651 49.085,320.225 48.700 C 319.798 48.315,319.213 48.000,318.925 48.000 C 318.636 48.000,318.400 47.820,318.400 47.600 C 318.400 47.380,318.040 47.200,317.600 47.200 C 317.160 47.200,316.800 47.020,316.800 46.800 C 316.800 46.580,316.440 46.400,316.000 46.400 C 315.560 46.400,315.200 46.220,315.200 46.000 C 315.200 45.780,314.840 45.600,314.400 45.600 C 313.960 45.600,313.600 45.420,313.600 45.200 C 313.600 44.980,313.240 44.800,312.800 44.800 C 312.360 44.800,312.000 44.620,312.000 44.400 C 312.000 44.180,311.640 44.000,311.200 44.000 C 310.760 44.000,310.400 43.865,310.400 43.700 C 310.400 43.535,309.275 43.064,307.900 42.653 C 305.325 41.884,303.913 41.368,302.705 40.753 C 302.323 40.559,301.468 40.400,300.805 40.400 C 300.142 40.400,299.600 40.220,299.600 40.000 C 299.600 39.780,298.880 39.600,298.000 39.600 C 297.120 39.600,296.400 39.420,296.400 39.200 C 296.400 38.980,295.691 38.800,294.824 38.800 C 293.957 38.800,293.136 38.620,293.000 38.400 C 292.864 38.180,291.683 38.000,290.376 38.000 C 289.059 38.000,288.000 37.822,288.000 37.600 C 288.000 37.343,284.075 37.200,277.024 37.200 C 270.137 37.200,265.955 37.349,265.800 37.600 " stroke="none" fill="#04acf4" fill-rule="evenodd"></path><path id="path1" d="" stroke="none" fill="#08acf4" fill-rule="evenodd"></path><path id="path2" d="" stroke="none" fill="#08acf4" fill-rule="evenodd"></path><path id="path3" d="" stroke="none" fill="#08acf4" fill-rule="evenodd"></path><path id="path4" d="" stroke="none" fill="#08acf4" fill-rule="evenodd"></path><path id="path5" d="" stroke="none" fill="#08acf4" fill-rule="evenodd"></path><path id="path6" d="" stroke="none" fill="#08acf4" fill-rule="evenodd"></path><path id="path7" d="" stroke="none" fill="#08acf4" fill-rule="evenodd"></path><path id="path8" d="" stroke="none" fill="#08acf4" fill-rule="evenodd"></path></g></svg>