<svg id="svg" version="1.1" xmlns="http://www.w3.org/2000/svg" xmlns:xlink="http://www.w3.org/1999/xlink" width="400" height="400" viewBox="0, 0, 400,400"><g id="svgg"><path id="path0" d="M89.000 61.683 C 76.165 64.076,65.442 73.395,62.402 84.800 C 62.138 85.790,61.750 86.928,61.539 87.330 C 61.328 87.731,61.154 90.745,61.152 94.028 C 61.147 99.554,61.433 101.684,62.449 103.695 C 62.642 104.077,62.800 104.664,62.800 105.000 C 62.800 105.336,62.957 105.923,63.150 106.305 C 64.071 108.135,65.221 110.360,66.055 111.924 C 68.278 116.095,74.875 121.825,80.500 124.471 C 80.885 124.652,81.558 124.980,81.995 125.200 C 82.432 125.420,83.141 125.600,83.571 125.600 C 84.001 125.600,84.452 125.760,84.573 125.956 C 85.124 126.847,98.320 127.609,100.366 126.868 C 100.935 126.661,102.210 126.271,103.200 126.001 C 110.688 123.954,118.853 117.696,122.260 111.391 C 122.733 110.516,123.498 109.120,123.960 108.288 C 124.422 107.456,124.800 106.432,124.800 106.011 C 124.800 105.591,124.980 105.136,125.200 105.000 C 125.420 104.864,125.600 104.324,125.600 103.800 C 125.600 103.276,125.757 102.750,125.950 102.631 C 127.188 101.865,127.183 86.531,125.943 85.765 C 125.755 85.648,125.600 85.124,125.600 84.600 C 125.600 84.076,125.420 83.536,125.200 83.400 C 124.980 83.264,124.800 82.786,124.800 82.338 C 124.800 81.890,124.472 81.046,124.071 80.462 C 123.670 79.878,123.037 78.736,122.664 77.924 C 121.246 74.840,112.693 66.000,111.127 66.000 C 110.966 66.000,109.972 65.503,108.918 64.895 C 106.517 63.512,103.819 62.635,98.869 61.632 C 96.384 61.128,91.851 61.151,89.000 61.683 M260.600 149.380 C 250.951 150.470,242.373 153.370,236.128 157.653 C 235.208 158.284,234.340 158.800,234.199 158.800 C 234.058 158.800,233.711 159.025,233.427 159.300 C 233.143 159.575,232.211 160.331,231.356 160.981 C 227.392 163.989,220.312 171.860,218.636 175.121 C 217.870 176.612,216.599 178.000,216.000 178.000 C 215.743 178.000,215.599 174.099,215.598 167.100 L 215.596 156.200 214.636 155.000 L 213.676 153.800 187.709 153.800 C 159.622 153.800,161.243 153.678,160.063 155.882 C 159.363 157.190,159.399 335.415,160.100 336.901 C 160.995 338.801,160.984 338.800,188.319 338.798 L 214.200 338.796 215.400 337.836 L 216.600 336.876 216.800 281.538 L 217.000 226.200 218.087 223.000 C 226.796 197.364,257.670 191.114,274.762 211.526 C 275.731 212.684,276.916 214.389,277.395 215.315 C 277.873 216.242,278.655 217.680,279.132 218.512 C 279.610 219.344,280.000 220.291,280.000 220.618 C 280.000 220.944,280.162 221.523,280.361 221.905 C 282.268 225.574,282.400 229.668,282.400 285.116 L 282.400 337.142 283.454 337.971 C 284.496 338.791,284.807 338.800,310.784 338.800 L 337.061 338.800 338.030 337.768 L 339.000 336.735 339.000 271.268 C 339.000 202.757,339.043 204.637,337.323 197.200 C 336.044 191.670,332.486 183.013,330.016 179.424 C 329.347 178.452,328.800 177.463,328.800 177.228 C 328.800 176.993,328.659 176.800,328.486 176.800 C 328.314 176.800,327.857 176.267,327.472 175.615 C 327.087 174.963,326.546 174.198,326.270 173.915 C 325.993 173.632,325.457 172.950,325.079 172.400 C 322.878 169.204,311.103 158.800,309.687 158.800 C 309.456 158.800,309.207 158.665,309.133 158.500 C 308.564 157.219,298.149 152.675,292.347 151.177 C 284.400 149.124,270.054 148.312,260.600 149.380 M73.031 153.881 C 71.011 154.107,68.270 156.001,66.887 158.128 L 65.800 159.800 65.679 244.000 C 65.613 290.310,65.671 329.308,65.807 330.663 C 66.202 334.573,68.087 336.894,72.000 338.289 C 74.011 339.006,113.989 339.006,116.000 338.289 C 119.186 337.153,120.648 335.738,121.870 332.604 C 122.570 330.808,122.593 161.990,121.894 159.982 C 121.126 157.780,120.175 156.560,118.106 155.123 L 116.200 153.800 95.400 153.753 C 83.960 153.727,73.894 153.785,73.031 153.881 " stroke="none" fill="#fbfbfb" fill-rule="evenodd"></path><path id="path1" d="M0.000 200.000 L 0.000 400.000 200.000 400.000 L 400.000 400.000 400.000 200.000 L 400.000 0.000 200.000 0.000 L 0.000 0.000 0.000 200.000 M97.610 60.422 C 101.351 60.887,107.242 62.557,108.800 63.593 C 109.350 63.959,110.467 64.564,111.281 64.939 C 112.096 65.313,112.996 65.840,113.281 66.110 C 113.567 66.379,114.488 67.114,115.330 67.743 C 117.280 69.200,119.205 71.126,120.655 73.070 C 121.282 73.912,121.897 74.690,122.021 74.800 C 122.566 75.282,125.200 80.391,125.200 80.965 C 125.200 81.314,125.380 81.600,125.600 81.600 C 125.820 81.600,126.000 82.140,126.000 82.800 C 126.000 83.460,126.180 84.000,126.400 84.000 C 126.620 84.000,126.800 84.529,126.800 85.176 C 126.800 85.823,126.980 86.464,127.200 86.600 C 127.420 86.736,127.600 88.176,127.600 89.800 C 127.600 91.424,127.780 92.864,128.000 93.000 C 128.220 93.136,128.400 93.766,128.400 94.400 C 128.400 95.034,128.220 95.664,128.000 95.800 C 127.780 95.936,127.600 97.387,127.600 99.024 C 127.600 100.741,127.431 102.000,127.200 102.000 C 126.980 102.000,126.800 102.529,126.800 103.176 C 126.800 103.823,126.620 104.464,126.400 104.600 C 126.180 104.736,126.000 105.199,126.000 105.629 C 126.000 106.059,125.841 106.723,125.647 107.105 C 125.452 107.487,125.047 108.336,124.747 108.992 C 122.973 112.857,119.647 117.358,116.753 119.807 C 113.457 122.596,107.535 126.000,105.978 126.000 C 105.550 126.000,105.200 126.180,105.200 126.400 C 105.200 126.620,104.671 126.800,104.024 126.800 C 103.377 126.800,102.736 126.980,102.600 127.200 C 102.464 127.420,101.384 127.600,100.200 127.600 C 99.016 127.600,97.936 127.780,97.800 128.000 C 97.664 128.220,95.954 128.400,94.000 128.400 C 92.046 128.400,90.336 128.220,90.200 128.000 C 90.064 127.780,88.984 127.600,87.800 127.600 C 86.616 127.600,85.536 127.420,85.400 127.200 C 85.264 126.980,84.623 126.800,83.976 126.800 C 83.329 126.800,82.800 126.620,82.800 126.400 C 82.800 126.180,82.260 126.000,81.600 126.000 C 80.940 126.000,80.400 125.820,80.400 125.600 C 80.400 125.380,80.152 125.200,79.848 125.200 C 79.184 125.200,75.740 123.158,72.950 121.110 C 70.237 119.119,65.216 113.558,65.205 112.533 C 65.202 112.277,65.065 112.007,64.900 111.933 C 64.272 111.654,62.737 108.316,61.497 104.533 C 59.121 97.283,60.062 83.510,63.214 79.400 C 63.382 79.180,64.033 78.069,64.660 76.931 C 70.016 67.210,80.362 61.178,93.610 60.052 C 93.946 60.023,95.746 60.190,97.610 60.422 M286.200 148.598 C 287.520 148.748,288.771 149.035,288.980 149.235 C 289.189 149.436,289.943 149.600,290.656 149.600 C 291.369 149.600,292.064 149.780,292.200 150.000 C 292.336 150.220,292.979 150.400,293.629 150.400 C 294.765 150.400,295.118 150.516,297.095 151.538 C 297.587 151.792,298.352 152.000,298.795 152.000 C 299.238 152.000,299.600 152.180,299.600 152.400 C 299.600 152.620,299.943 152.800,300.362 152.800 C 301.178 152.800,304.512 154.401,304.733 154.900 C 304.807 155.065,305.212 155.200,305.633 155.200 C 306.055 155.200,306.400 155.380,306.400 155.600 C 306.400 155.820,306.678 156.000,307.017 156.000 C 307.356 156.000,308.020 156.360,308.492 156.800 C 308.964 157.240,309.587 157.600,309.875 157.600 C 310.164 157.600,310.400 157.780,310.400 158.000 C 310.400 158.220,310.636 158.400,310.925 158.400 C 311.213 158.400,311.805 158.715,312.240 159.100 C 312.674 159.485,313.653 160.242,314.415 160.782 C 315.177 161.322,315.980 161.911,316.200 162.090 C 316.420 162.268,317.050 162.779,317.600 163.224 C 319.180 164.502,324.800 170.125,324.800 170.427 C 324.800 170.577,325.430 171.387,326.200 172.228 C 326.970 173.069,327.600 173.903,327.600 174.082 C 327.600 174.261,328.140 174.972,328.800 175.663 C 329.460 176.354,330.000 177.162,330.000 177.459 C 330.000 177.757,330.159 178.000,330.353 178.000 C 330.548 178.000,330.807 178.315,330.929 178.700 C 331.225 179.636,332.524 181.766,332.900 181.933 C 333.065 182.007,333.200 182.296,333.200 182.577 C 333.200 183.002,334.404 185.675,336.046 188.895 C 336.241 189.277,336.400 189.916,336.400 190.315 C 336.400 190.714,336.549 191.211,336.730 191.420 C 337.047 191.784,337.468 193.142,338.335 196.600 C 338.556 197.480,338.921 198.920,339.147 199.800 C 340.264 204.155,340.442 215.711,340.322 275.892 L 340.200 337.185 338.893 338.492 L 337.585 339.800 311.293 339.905 C 286.846 340.003,284.902 339.961,283.600 339.305 C 280.823 337.905,281.021 342.031,280.800 281.000 L 280.600 225.800 279.658 223.000 C 278.633 219.954,276.381 215.081,275.900 214.867 C 275.735 214.793,275.600 214.562,275.600 214.353 C 275.600 214.144,274.970 213.343,274.200 212.573 C 273.430 211.803,272.800 211.027,272.800 210.848 C 272.800 210.359,271.363 208.800,270.912 208.800 C 270.696 208.800,269.980 208.285,269.321 207.655 C 268.084 206.473,263.449 203.600,262.779 203.600 C 262.570 203.600,262.400 203.420,262.400 203.200 C 262.400 202.980,261.961 202.800,261.424 202.800 C 260.887 202.800,260.336 202.620,260.200 202.400 C 260.064 202.180,259.423 202.000,258.776 202.000 C 258.129 202.000,257.600 201.837,257.600 201.639 C 257.600 200.078,244.390 200.462,239.400 202.167 C 234.227 203.936,225.200 210.129,225.200 211.909 C 225.200 212.114,224.705 212.808,224.100 213.453 C 222.855 214.778,219.985 220.247,219.994 221.276 C 219.997 221.648,219.841 222.051,219.646 222.171 C 219.269 222.405,219.011 223.461,218.321 227.600 C 218.030 229.343,217.839 247.779,217.741 283.542 C 217.595 336.500,217.588 336.893,216.777 338.032 C 215.358 340.025,214.914 340.053,187.104 339.922 L 161.207 339.800 160.104 338.610 L 159.000 337.419 159.000 246.142 L 159.000 154.865 160.200 153.833 L 161.400 152.801 187.600 152.801 L 213.800 152.801 214.803 153.700 C 216.688 155.392,216.798 156.040,216.912 166.200 C 216.977 171.968,217.154 175.441,217.357 174.900 C 217.542 174.405,217.852 174.000,218.047 174.000 C 218.241 174.000,218.400 173.757,218.400 173.459 C 218.400 173.162,218.940 172.354,219.600 171.663 C 220.260 170.972,220.800 170.318,220.800 170.208 C 220.800 169.515,230.288 160.000,230.979 160.000 C 231.223 160.000,231.683 159.640,232.000 159.200 C 232.317 158.760,232.807 158.400,233.088 158.400 C 233.370 158.400,233.600 158.220,233.600 158.000 C 233.600 157.780,233.855 157.600,234.167 157.600 C 234.478 157.600,234.793 157.465,234.867 157.300 C 235.034 156.924,237.164 155.625,238.100 155.329 C 238.485 155.207,238.800 154.948,238.800 154.753 C 238.800 154.559,239.160 154.400,239.600 154.400 C 240.040 154.400,240.400 154.220,240.400 154.000 C 240.400 153.780,240.760 153.600,241.200 153.600 C 241.640 153.600,242.000 153.420,242.000 153.200 C 242.000 152.980,242.272 152.800,242.605 152.800 C 242.938 152.800,243.568 152.620,244.005 152.400 C 244.442 152.180,245.158 151.820,245.595 151.600 C 246.032 151.380,246.741 151.200,247.171 151.200 C 247.601 151.200,248.064 151.020,248.200 150.800 C 248.336 150.580,248.876 150.400,249.400 150.400 C 249.924 150.400,250.452 150.239,250.574 150.042 C 250.695 149.845,251.471 149.585,252.297 149.463 C 256.192 148.887,258.012 148.522,258.272 148.262 C 258.613 147.921,282.798 148.212,286.200 148.598 M116.806 153.297 C 117.683 153.571,118.400 153.931,118.400 154.097 C 118.400 154.264,118.614 154.400,118.876 154.400 C 119.636 154.400,122.366 157.648,122.903 159.191 C 123.695 161.466,123.822 329.246,123.034 332.262 C 122.254 335.250,121.041 336.885,118.430 338.467 L 116.231 339.800 94.000 339.800 L 71.769 339.800 69.480 338.413 C 67.141 336.995,65.597 335.138,64.981 333.000 C 64.254 330.475,64.300 162.045,65.029 159.688 C 65.818 157.135,69.044 153.600,70.585 153.600 C 71.117 153.600,71.664 153.420,71.800 153.200 C 72.189 152.571,114.774 152.663,116.806 153.297 " stroke="none" fill="#0484b4" fill-rule="evenodd"></path><path id="path2" d="M89.505 61.083 C 90.002 61.179,90.722 61.175,91.105 61.075 C 91.487 60.975,91.080 60.896,90.200 60.901 C 89.320 60.905,89.007 60.987,89.505 61.083 M97.105 61.083 C 97.602 61.179,98.322 61.175,98.705 61.075 C 99.087 60.975,98.680 60.896,97.800 60.901 C 96.920 60.905,96.607 60.987,97.105 61.083 M61.049 86.615 C 60.912 86.973,60.818 87.656,60.841 88.133 C 60.867 88.681,61.003 88.486,61.210 87.603 C 61.560 86.116,61.465 85.533,61.049 86.615 M127.309 92.000 C 127.309 92.990,127.387 93.395,127.482 92.900 C 127.578 92.405,127.578 91.595,127.482 91.100 C 127.387 90.605,127.309 91.010,127.309 92.000 M127.301 96.600 C 127.305 97.480,127.387 97.793,127.483 97.295 C 127.579 96.798,127.575 96.078,127.475 95.695 C 127.375 95.313,127.296 95.720,127.301 96.600 M60.806 100.433 C 60.809 100.965,60.989 101.670,61.206 102.000 C 61.482 102.422,61.523 102.185,61.342 101.200 C 61.025 99.475,60.798 99.149,60.806 100.433 M88.505 127.487 C 89.114 127.579,90.014 127.577,90.505 127.482 C 90.997 127.387,90.500 127.311,89.400 127.314 C 88.300 127.317,87.897 127.395,88.505 127.487 M97.705 127.487 C 98.314 127.579,99.214 127.577,99.705 127.482 C 100.197 127.387,99.700 127.311,98.600 127.314 C 97.500 127.317,97.097 127.395,97.705 127.487 M93.300 127.876 C 93.685 127.976,94.315 127.976,94.700 127.876 C 95.085 127.775,94.770 127.693,94.000 127.693 C 93.230 127.693,92.915 127.775,93.300 127.876 M262.105 148.687 C 262.714 148.779,263.614 148.777,264.105 148.682 C 264.597 148.587,264.100 148.511,263.000 148.514 C 261.900 148.517,261.497 148.595,262.105 148.687 M278.307 148.690 C 279.026 148.779,280.106 148.777,280.707 148.686 C 281.308 148.595,280.720 148.522,279.400 148.524 C 278.080 148.526,277.588 148.601,278.307 148.690 M286.800 149.600 C 288.168 150.038,289.219 150.038,288.200 149.600 C 287.760 149.411,287.040 149.262,286.600 149.268 C 285.957 149.277,285.996 149.343,286.800 149.600 M72.000 153.600 C 71.196 153.857,71.157 153.923,71.800 153.932 C 72.240 153.938,72.960 153.789,73.400 153.600 C 74.419 153.162,73.368 153.162,72.000 153.600 M114.600 153.600 C 115.040 153.789,115.760 153.938,116.200 153.932 C 116.843 153.923,116.804 153.857,116.000 153.600 C 114.632 153.162,113.581 153.162,114.600 153.600 M216.174 167.200 C 216.174 172.810,216.230 175.105,216.299 172.300 C 216.368 169.495,216.368 164.905,216.299 162.100 C 216.230 159.295,216.174 161.590,216.174 167.200 M64.924 246.200 C 64.887 292.620,64.979 330.908,65.128 331.285 C 65.374 331.904,65.352 230.692,65.096 181.600 C 65.039 170.710,64.962 199.780,64.924 246.200 M225.600 165.400 C 223.961 167.050,222.710 168.400,222.820 168.400 C 222.930 168.400,224.361 167.050,226.000 165.400 C 227.639 163.750,228.890 162.400,228.780 162.400 C 228.670 162.400,227.239 163.750,225.600 165.400 M316.800 163.325 C 316.800 163.394,317.385 163.979,318.100 164.625 L 319.400 165.800 318.225 164.500 C 317.130 163.288,316.800 163.016,316.800 163.325 M322.800 169.325 C 322.800 169.394,323.385 169.979,324.100 170.625 L 325.400 171.800 324.225 170.500 C 323.130 169.288,322.800 169.016,322.800 169.325 M339.309 207.600 C 339.309 208.590,339.387 208.995,339.482 208.500 C 339.578 208.005,339.578 207.195,339.482 206.700 C 339.387 206.205,339.309 206.610,339.309 207.600 M339.795 273.200 C 339.795 307.630,339.842 321.715,339.900 304.500 C 339.958 287.285,339.958 259.115,339.900 241.900 C 339.842 224.685,339.795 238.770,339.795 273.200 M217.293 228.800 C 217.293 229.570,217.375 229.885,217.476 229.500 C 217.576 229.115,217.576 228.485,217.476 228.100 C 217.375 227.715,217.293 228.030,217.293 228.800 M281.293 230.000 C 281.293 230.770,281.375 231.085,281.476 230.700 C 281.576 230.315,281.576 229.685,281.476 229.300 C 281.375 228.915,281.293 229.230,281.293 230.000 M281.794 283.800 C 281.794 312.620,281.842 324.351,281.900 309.869 C 281.958 295.387,281.958 271.807,281.900 257.469 C 281.842 243.131,281.794 254.980,281.794 283.800 M216.800 336.146 C 216.800 336.446,216.422 337.211,215.961 337.846 L 215.122 339.000 216.161 337.878 C 217.080 336.885,217.553 335.600,217.000 335.600 C 216.890 335.600,216.800 335.846,216.800 336.146 M160.488 338.213 C 161.086 338.843,161.647 339.277,161.735 339.179 C 161.823 339.080,161.333 338.565,160.647 338.034 L 159.400 337.069 160.488 338.213 M282.888 338.213 C 283.486 338.843,284.047 339.277,284.135 339.179 C 284.223 339.080,283.733 338.565,283.047 338.034 L 281.800 337.069 282.888 338.213 M71.200 338.782 C 71.530 339.005,72.145 339.191,72.567 339.194 C 73.590 339.202,73.271 338.973,71.800 338.644 C 70.924 338.448,70.762 338.485,71.200 338.782 M115.600 338.800 C 114.776 339.064,114.741 339.126,115.400 339.154 C 115.840 339.173,116.470 339.013,116.800 338.800 C 117.501 338.347,117.014 338.347,115.600 338.800 M302.928 339.500 C 309.049 339.562,318.949 339.562,324.928 339.500 C 330.908 339.437,325.900 339.387,313.800 339.387 C 301.700 339.387,296.808 339.438,302.928 339.500 " stroke="none" fill="#64b3ce" fill-rule="evenodd"></path><path id="path3" d="M92.700 61.089 C 93.415 61.178,94.585 61.178,95.300 61.089 C 96.015 61.001,95.430 60.928,94.000 60.928 C 92.570 60.928,91.985 61.001,92.700 61.089 M87.400 61.600 L 86.200 61.905 87.600 61.913 C 88.370 61.917,89.450 61.776,90.000 61.600 C 91.399 61.152,89.161 61.152,87.400 61.600 M97.614 61.336 C 97.732 61.460,98.812 61.741,100.014 61.961 C 101.216 62.180,102.740 62.466,103.400 62.596 C 104.339 62.781,104.263 62.705,103.053 62.247 C 101.455 61.643,97.235 60.935,97.614 61.336 M83.183 62.753 C 78.998 64.092,71.975 68.600,69.599 71.474 C 66.872 74.771,65.873 76.204,64.405 78.926 C 63.478 80.645,62.800 82.133,62.899 82.232 C 62.998 82.331,63.736 81.099,64.540 79.494 C 68.332 71.922,75.984 65.341,83.700 63.018 C 84.965 62.637,86.000 62.252,86.000 62.163 C 86.000 61.902,85.537 61.999,83.183 62.753 M107.400 63.896 C 107.620 64.114,108.868 64.869,110.174 65.573 C 115.075 68.218,120.759 73.984,123.021 78.607 C 123.615 79.822,124.284 80.928,124.506 81.066 C 127.002 82.608,118.906 71.679,115.321 68.666 C 113.225 66.904,106.118 62.624,107.400 63.896 M124.828 82.276 C 124.813 82.758,124.980 83.264,125.200 83.400 C 125.673 83.692,125.673 83.301,125.200 82.200 C 124.869 81.429,124.855 81.431,124.828 82.276 M62.446 83.267 C 62.421 83.634,62.296 84.264,62.170 84.667 C 61.952 85.362,61.963 85.363,62.397 84.687 C 62.648 84.296,62.773 83.666,62.673 83.287 C 62.511 82.668,62.488 82.666,62.446 83.267 M61.646 85.867 C 61.621 86.124,61.484 86.664,61.341 87.067 C 61.140 87.636,61.194 87.697,61.579 87.342 C 61.852 87.091,61.989 86.551,61.884 86.142 C 61.779 85.734,61.672 85.610,61.646 85.867 M126.487 88.000 C 126.483 88.770,126.624 89.850,126.800 90.400 C 127.248 91.799,127.248 89.561,126.800 87.800 L 126.495 86.600 126.487 88.000 M60.701 91.900 C 60.583 93.605,60.614 96.080,60.771 97.400 C 60.995 99.290,61.065 98.630,61.101 94.300 C 61.152 88.116,61.018 87.311,60.701 91.900 M126.689 98.400 C 126.536 98.950,126.428 100.030,126.449 100.800 C 126.486 102.146,126.501 102.131,126.847 100.400 C 127.251 98.377,127.128 96.823,126.689 98.400 M61.444 101.800 C 61.773 103.271,62.002 103.590,61.994 102.567 C 61.991 102.145,61.805 101.530,61.582 101.200 C 61.285 100.762,61.248 100.924,61.444 101.800 M125.867 102.667 C 125.720 102.813,125.611 103.308,125.625 103.767 C 125.649 104.533,125.682 104.523,126.034 103.642 C 126.426 102.663,126.344 102.189,125.867 102.667 M62.400 105.002 C 62.697 106.319,63.572 108.179,65.608 111.823 C 67.954 116.021,73.702 121.435,78.200 123.685 C 80.919 125.044,80.755 124.618,78.000 123.165 C 73.982 121.046,67.833 115.259,66.055 111.924 C 65.221 110.360,64.071 108.135,63.150 106.305 C 62.957 105.923,62.800 105.259,62.800 104.829 C 62.800 104.399,62.639 103.948,62.443 103.826 C 62.237 103.699,62.219 104.197,62.400 105.002 M125.067 105.067 C 124.920 105.213,124.811 105.708,124.825 106.167 C 124.849 106.933,124.882 106.923,125.234 106.042 C 125.626 105.063,125.544 104.589,125.067 105.067 M123.409 109.255 C 121.284 113.320,120.719 114.079,117.201 117.607 C 114.425 120.391,112.605 121.856,110.700 122.841 C 109.875 123.267,109.200 123.706,109.200 123.816 C 109.200 124.499,115.338 120.307,117.406 118.211 C 120.288 115.290,125.228 107.894,124.669 107.336 C 124.577 107.243,124.010 108.107,123.409 109.255 M83.400 126.000 C 84.501 126.473,84.892 126.473,84.600 126.000 C 84.464 125.780,83.958 125.613,83.476 125.628 C 82.631 125.655,82.629 125.669,83.400 126.000 M103.200 126.018 C 102.762 126.315,102.924 126.352,103.800 126.156 C 105.271 125.827,105.590 125.598,104.567 125.606 C 104.145 125.609,103.530 125.795,103.200 126.018 M86.200 126.800 C 87.396 127.314,88.395 127.314,87.600 126.800 C 87.270 126.587,86.640 126.422,86.200 126.434 L 85.400 126.456 86.200 126.800 M100.400 126.800 C 99.605 127.314,100.604 127.314,101.800 126.800 L 102.600 126.456 101.800 126.434 C 101.360 126.422,100.730 126.587,100.400 126.800 M92.500 127.491 C 93.325 127.578,94.675 127.578,95.500 127.491 C 96.325 127.405,95.650 127.334,94.000 127.334 C 92.350 127.334,91.675 127.405,92.500 127.491 M261.800 148.833 C 257.491 149.273,255.096 149.630,255.272 149.805 C 255.352 149.885,257.933 149.696,261.009 149.384 C 269.156 148.557,276.110 148.669,286.000 149.786 C 287.523 149.957,287.615 149.932,286.600 149.621 C 283.231 148.588,268.719 148.127,261.800 148.833 M252.000 150.421 C 251.570 150.714,251.854 150.754,253.000 150.562 C 254.984 150.230,255.304 149.998,253.767 150.006 C 253.125 150.009,252.330 150.196,252.000 150.421 M289.200 150.400 C 290.742 150.894,291.564 150.894,290.800 150.400 C 290.470 150.187,289.750 150.027,289.200 150.046 L 288.200 150.080 289.200 150.400 M248.200 151.501 C 247.100 151.840,246.386 152.184,246.614 152.264 C 246.842 152.344,248.012 152.061,249.214 151.634 C 251.807 150.714,251.064 150.617,248.200 151.501 M292.400 151.200 C 293.942 151.694,294.764 151.694,294.000 151.200 C 293.670 150.987,292.950 150.827,292.400 150.846 L 291.400 150.880 292.400 151.200 M73.515 153.528 C 73.139 153.678,82.357 153.800,94.001 153.800 C 105.644 153.800,114.862 153.678,114.485 153.528 C 114.108 153.379,104.890 153.256,94.000 153.256 C 83.110 153.256,73.892 153.379,73.515 153.528 M162.315 153.528 C 161.938 153.678,173.316 153.800,187.600 153.800 C 201.884 153.800,213.262 153.678,212.885 153.528 C 211.990 153.173,163.210 153.173,162.315 153.528 M69.332 154.919 C 68.635 155.396,67.465 156.690,66.732 157.794 L 65.400 159.800 65.400 246.200 L 65.400 332.600 66.477 334.431 C 67.624 336.384,70.010 338.225,71.868 338.593 L 73.000 338.817 72.000 338.360 C 71.450 338.109,70.582 337.709,70.072 337.469 C 68.851 336.898,67.288 335.312,66.463 333.808 C 65.851 332.694,65.800 325.889,65.800 246.200 L 65.800 159.800 66.902 158.104 C 67.509 157.171,68.724 155.932,69.602 155.351 C 70.481 154.769,71.200 154.228,71.200 154.147 C 71.200 153.820,70.533 154.095,69.332 154.919 M117.600 154.706 C 119.501 155.968,121.483 158.315,121.778 159.655 C 121.941 160.395,122.160 160.783,122.265 160.518 C 122.765 159.247,118.510 153.952,117.044 154.021 C 116.800 154.033,117.050 154.341,117.600 154.706 M160.178 154.978 C 159.800 155.554,159.606 156.139,159.746 156.279 C 159.886 156.419,160.000 156.336,160.000 156.095 C 160.000 155.854,160.291 155.366,160.648 155.010 C 161.004 154.653,161.198 154.265,161.080 154.146 C 160.961 154.028,160.555 154.402,160.178 154.978 M214.606 154.912 C 214.992 155.524,215.409 155.924,215.532 155.801 C 215.655 155.678,215.339 155.178,214.830 154.689 L 213.904 153.800 214.606 154.912 M238.800 155.633 L 237.800 156.448 239.100 155.814 C 239.815 155.465,240.400 155.094,240.400 154.990 C 240.400 154.592,239.763 154.848,238.800 155.633 M235.684 157.466 C 234.740 158.035,234.048 158.581,234.147 158.680 C 234.324 158.857,237.600 156.833,237.600 156.547 C 237.600 156.321,237.517 156.360,235.684 157.466 M307.200 157.167 C 308.163 157.952,308.800 158.208,308.800 157.810 C 308.800 157.706,308.215 157.335,307.500 156.986 L 306.200 156.352 307.200 157.167 M215.693 167.300 C 215.633 174.229,215.741 178.000,216.000 178.000 C 216.602 178.000,217.874 176.608,218.629 175.121 C 218.998 174.395,219.939 172.990,220.721 172.000 C 222.801 169.367,223.100 168.773,221.427 170.600 C 220.620 171.480,219.301 173.325,218.495 174.700 C 216.108 178.771,216.028 178.531,215.900 166.900 L 215.786 156.600 215.693 167.300 M159.396 246.200 C 159.396 295.260,159.443 315.389,159.500 290.932 C 159.557 266.475,159.557 226.335,159.500 201.732 C 159.443 177.129,159.396 197.140,159.396 246.200 M310.818 159.270 C 311.158 159.562,312.778 160.820,314.418 162.067 C 317.406 164.338,323.786 170.522,325.079 172.400 C 325.457 172.950,325.993 173.632,326.270 173.915 C 326.546 174.198,327.087 174.963,327.472 175.615 C 327.857 176.267,328.335 176.800,328.534 176.800 C 328.898 176.800,327.845 175.270,325.258 172.040 C 322.950 169.158,317.684 164.099,314.437 161.642 C 311.532 159.445,309.364 158.024,310.818 159.270 M227.038 164.438 C 224.693 166.677,222.839 168.572,222.917 168.650 C 222.995 168.728,224.576 167.293,226.430 165.460 C 228.283 163.628,230.239 161.834,230.776 161.473 C 231.313 161.113,231.650 160.717,231.526 160.593 C 231.403 160.469,229.383 162.199,227.038 164.438 M122.400 246.600 C 122.208 328.756,122.170 332.260,121.463 333.683 C 120.610 335.397,119.256 336.847,117.928 337.469 C 117.418 337.709,116.550 338.109,116.000 338.360 C 115.007 338.813,115.009 338.815,116.151 338.588 C 118.797 338.062,121.473 335.307,122.376 332.180 C 122.714 331.013,122.802 308.452,122.716 245.800 L 122.600 161.000 122.400 246.600 M328.800 177.329 C 328.800 177.694,330.845 180.800,331.086 180.800 C 331.279 180.800,329.692 178.048,329.136 177.420 C 328.951 177.211,328.800 177.170,328.800 177.329 M332.800 184.616 C 332.800 184.735,333.183 185.583,333.652 186.502 C 334.768 188.690,336.568 193.934,337.323 197.200 C 339.043 204.637,339.000 202.757,339.000 271.268 L 339.000 336.735 338.030 337.768 L 337.061 338.800 310.784 338.800 C 284.807 338.800,284.496 338.791,283.454 337.971 L 282.400 337.142 282.400 285.116 C 282.400 234.258,282.282 228.642,281.123 224.200 C 280.459 221.653,280.392 221.475,280.186 221.681 C 280.078 221.789,280.248 222.760,280.564 223.838 C 281.895 228.384,282.000 232.859,282.000 285.110 L 282.000 337.129 283.231 338.164 L 284.461 339.200 310.772 339.200 L 337.083 339.200 338.115 338.243 C 339.688 336.786,339.649 338.719,339.499 269.600 C 339.347 199.701,339.458 203.594,337.396 195.800 C 336.026 190.619,332.800 182.769,332.800 184.616 M246.600 199.572 C 245.895 199.735,247.132 199.853,249.600 199.859 C 252.808 199.866,253.375 199.797,252.000 199.564 C 249.835 199.197,248.211 199.200,246.600 199.572 M241.400 200.400 C 240.896 200.617,240.822 200.744,241.200 200.744 C 241.530 200.744,242.160 200.589,242.600 200.400 C 243.104 200.183,243.178 200.056,242.800 200.056 C 242.470 200.056,241.840 200.211,241.400 200.400 M258.846 201.182 C 264.290 202.947,267.634 204.952,272.184 209.183 C 273.652 210.547,274.140 210.874,273.454 210.034 C 270.008 205.808,259.405 199.782,255.858 200.032 C 255.606 200.050,256.951 200.567,258.846 201.182 M234.533 203.049 C 231.408 204.705,230.040 205.600,230.631 205.600 C 230.856 205.600,231.211 205.434,231.420 205.232 C 231.629 205.029,233.240 204.131,235.000 203.237 C 236.760 202.342,237.990 201.608,237.733 201.605 C 237.476 201.602,236.036 202.252,234.533 203.049 M227.557 207.989 C 226.324 209.076,225.007 210.469,224.631 211.083 C 224.179 211.822,224.464 211.633,225.474 210.522 C 226.313 209.598,227.782 208.203,228.738 207.422 C 229.694 206.640,230.324 206.003,230.138 206.006 C 229.952 206.009,228.791 206.901,227.557 207.989 M275.468 212.981 C 276.074 213.741,276.643 214.290,276.732 214.201 C 276.946 213.987,275.090 211.651,274.683 211.622 C 274.509 211.610,274.862 212.222,275.468 212.981 M222.600 213.535 C 221.685 214.743,218.815 220.398,218.811 221.000 C 218.809 221.220,219.634 219.780,220.643 217.800 C 221.653 215.820,222.760 213.884,223.104 213.498 C 223.447 213.111,223.655 212.724,223.564 212.637 C 223.474 212.550,223.040 212.954,222.600 213.535 M277.960 217.000 C 278.634 218.305,279.188 219.028,279.185 218.600 C 279.183 218.380,278.814 217.750,278.364 217.200 C 277.821 216.536,277.685 216.469,277.960 217.000 M279.228 219.476 C 279.318 220.515,279.944 221.396,279.972 220.524 C 279.987 220.042,279.820 219.536,279.600 219.400 C 279.380 219.264,279.213 219.298,279.228 219.476 M217.822 224.065 C 217.427 225.522,217.202 226.958,217.321 227.257 C 217.446 227.571,217.550 227.426,217.568 226.914 C 217.586 226.427,217.881 225.200,218.225 224.188 C 218.568 223.176,218.779 222.138,218.694 221.882 C 218.609 221.626,218.216 222.608,217.822 224.065 M216.893 281.600 C 216.836 310.970,216.696 335.450,216.583 336.000 L 216.377 337.000 216.790 336.061 C 217.069 335.428,217.169 317.749,217.100 281.661 L 216.997 228.200 216.893 281.600 M215.200 338.000 C 214.033 338.913,163.320 339.270,161.474 338.378 C 160.630 337.970,160.626 337.977,161.376 338.578 C 162.061 339.126,165.241 339.200,188.254 339.200 L 214.355 339.200 215.478 338.213 C 216.814 337.037,216.621 336.889,215.200 338.000 M83.500 339.100 C 89.275 339.162,98.725 339.162,104.500 339.100 C 110.275 339.037,105.550 338.986,94.000 338.986 C 82.450 338.986,77.725 339.037,83.500 339.100 " stroke="none" fill="#a9d4e4" fill-rule="evenodd"></path><path id="path4" d="M60.101 94.200 C 60.105 95.080,60.187 95.393,60.283 94.895 C 60.379 94.398,60.375 93.678,60.275 93.295 C 60.175 92.913,60.096 93.320,60.101 94.200 M84.100 153.100 C 89.545 153.163,98.455 153.163,103.900 153.100 C 109.345 153.037,104.890 152.985,94.000 152.985 C 83.110 152.985,78.655 153.037,84.100 153.100 M175.300 153.100 C 182.065 153.161,193.135 153.161,199.900 153.100 C 206.665 153.038,201.130 152.988,187.600 152.988 C 174.070 152.988,168.535 153.038,175.300 153.100 M122.996 246.200 C 122.996 292.400,123.043 311.241,123.100 288.068 C 123.157 264.895,123.157 227.095,123.100 204.068 C 123.043 181.041,122.996 200.000,122.996 246.200 M339.693 209.600 C 339.693 210.370,339.775 210.685,339.876 210.300 C 339.976 209.915,339.976 209.285,339.876 208.900 C 339.775 208.515,339.693 208.830,339.693 209.600 M281.394 283.400 C 281.394 312.220,281.442 323.951,281.500 309.469 C 281.558 294.987,281.558 271.407,281.500 257.069 C 281.442 242.731,281.394 254.580,281.394 283.400 M84.328 339.500 C 89.898 339.563,98.898 339.562,104.328 339.500 C 109.758 339.437,105.200 339.385,94.200 339.386 C 83.200 339.386,78.758 339.437,84.328 339.500 M175.529 339.500 C 182.640 339.561,194.160 339.561,201.129 339.500 C 208.098 339.438,202.280 339.388,188.200 339.388 C 174.120 339.388,168.418 339.439,175.529 339.500 M286.912 339.495 C 287.964 339.577,289.584 339.576,290.512 339.492 C 291.440 339.408,290.580 339.341,288.600 339.342 C 286.620 339.343,285.860 339.412,286.912 339.495 " stroke="none" fill="#3ca4c4" fill-rule="evenodd"></path><path id="path5" d="M217.394 283.400 C 217.394 312.220,217.442 323.951,217.500 309.469 C 217.558 294.987,217.558 271.407,217.500 257.069 C 217.442 242.731,217.394 254.580,217.394 283.400 " stroke="none" fill="#349cc4" fill-rule="evenodd"></path><path id="path6" d="M261.100 148.282 C 261.595 148.378,262.405 148.378,262.900 148.282 C 263.395 148.187,262.990 148.109,262.000 148.109 C 261.010 148.109,260.605 148.187,261.100 148.282 M279.705 148.287 C 280.314 148.379,281.214 148.377,281.705 148.282 C 282.197 148.187,281.700 148.111,280.600 148.114 C 279.500 148.117,279.097 148.195,279.705 148.287 M64.596 246.200 C 64.596 292.840,64.643 311.861,64.700 288.468 C 64.757 265.075,64.757 226.915,64.700 203.668 C 64.643 180.421,64.596 199.560,64.596 246.200 M123.396 246.400 C 123.396 292.710,123.443 311.655,123.500 288.500 C 123.557 265.345,123.557 227.455,123.500 204.300 C 123.443 181.145,123.396 200.090,123.396 246.400 M280.901 228.600 C 280.905 229.480,280.987 229.793,281.083 229.295 C 281.179 228.798,281.175 228.078,281.075 227.695 C 280.975 227.313,280.896 227.720,280.901 228.600 M84.100 339.900 C 89.545 339.963,98.455 339.963,103.900 339.900 C 109.345 339.837,104.890 339.785,94.000 339.785 C 83.110 339.785,78.655 339.837,84.100 339.900 M175.700 339.900 C 182.685 339.961,194.115 339.961,201.100 339.900 C 208.085 339.839,202.370 339.788,188.400 339.788 C 174.430 339.788,168.715 339.839,175.700 339.900 M286.900 339.894 C 287.945 339.976,289.655 339.976,290.700 339.894 C 291.745 339.812,290.890 339.744,288.800 339.744 C 286.710 339.744,285.855 339.812,286.900 339.894 " stroke="none" fill="#1890b9" fill-rule="evenodd"></path><path id="path7" d="M267.300 148.298 C 269.445 148.370,272.955 148.370,275.100 148.298 C 277.245 148.226,275.490 148.167,271.200 148.167 C 266.910 148.167,265.155 148.226,267.300 148.298 M216.481 166.900 C 216.437 172.125,216.535 176.400,216.700 176.401 C 216.865 176.401,216.954 173.566,216.897 170.101 C 216.706 158.442,216.563 157.340,216.481 166.900 M248.300 200.282 C 248.795 200.378,249.605 200.378,250.100 200.282 C 250.595 200.187,250.190 200.109,249.200 200.109 C 248.210 200.109,247.805 200.187,248.300 200.282 M303.100 339.900 C 309.095 339.962,318.905 339.962,324.900 339.900 C 330.895 339.838,325.990 339.787,314.000 339.787 C 302.010 339.787,297.105 339.838,303.100 339.900 " stroke="none" fill="#2696bc" fill-rule="evenodd"></path><path id="path8" d="M89.500 60.682 C 89.995 60.778,90.805 60.778,91.300 60.682 C 91.795 60.587,91.390 60.509,90.400 60.509 C 89.410 60.509,89.005 60.587,89.500 60.682 M96.700 60.682 C 97.195 60.778,98.005 60.778,98.500 60.682 C 98.995 60.587,98.590 60.509,97.600 60.509 C 96.610 60.509,96.205 60.587,96.700 60.682 M60.493 88.000 C 60.493 88.770,60.575 89.085,60.676 88.700 C 60.776 88.315,60.776 87.685,60.676 87.300 C 60.575 86.915,60.493 87.230,60.493 88.000 M60.493 100.400 C 60.493 101.170,60.575 101.485,60.676 101.100 C 60.776 100.715,60.776 100.085,60.676 99.700 C 60.575 99.315,60.493 99.630,60.493 100.400 M63.400 109.600 C 63.741 110.260,64.111 110.800,64.221 110.800 C 64.331 110.800,64.141 110.260,63.800 109.600 C 63.459 108.940,63.089 108.400,62.979 108.400 C 62.869 108.400,63.059 108.940,63.400 109.600 M258.000 148.406 C 257.578 148.682,257.815 148.723,258.800 148.542 C 260.525 148.225,260.851 147.998,259.567 148.006 C 259.035 148.009,258.330 148.189,258.000 148.406 M158.997 246.400 C 158.997 295.570,159.043 315.685,159.100 291.100 C 159.157 266.515,159.157 226.285,159.100 201.700 C 159.043 177.115,158.997 197.230,158.997 246.400 M253.600 200.782 C 253.930 201.005,254.545 201.191,254.967 201.194 C 255.990 201.202,255.671 200.973,254.200 200.644 C 253.324 200.448,253.162 200.485,253.600 200.782 M340.195 273.200 C 340.195 307.630,340.242 321.715,340.300 304.500 C 340.358 287.285,340.358 259.115,340.300 241.900 C 340.242 224.685,340.195 238.770,340.195 273.200 M280.994 282.800 C 280.994 311.950,281.042 323.875,281.100 309.300 C 281.158 294.725,281.158 270.875,281.100 256.300 C 281.042 241.725,280.994 253.650,280.994 282.800 " stroke="none" fill="#0c8cb4" fill-rule="evenodd"></path></g></svg>