<svg id="svg" version="1.1" xmlns="http://www.w3.org/2000/svg" xmlns:xlink="http://www.w3.org/1999/xlink" width="400" height="400" viewBox="0, 0, 400,400"><g id="svgg"><path id="path0" d="M160.400 200.234 L 160.400 259.668 162.300 258.586 C 163.345 257.991,165.190 256.955,166.400 256.285 C 167.610 255.615,169.860 254.314,171.400 253.394 C 172.940 252.473,175.190 251.180,176.400 250.519 C 177.610 249.858,179.590 248.726,180.800 248.003 C 182.010 247.280,183.585 246.353,184.300 245.944 C 185.015 245.535,186.230 244.840,187.000 244.400 C 187.770 243.960,189.030 243.240,189.800 242.800 C 190.570 242.360,191.830 241.640,192.600 241.200 C 193.370 240.760,194.585 240.060,195.300 239.645 C 196.015 239.230,198.310 237.908,200.400 236.708 C 202.490 235.507,205.153 233.956,206.318 233.262 C 207.482 232.568,208.499 232.000,208.577 232.000 C 208.655 232.000,209.903 231.280,211.352 230.400 C 212.800 229.520,214.169 228.800,214.393 228.800 C 214.617 228.800,214.800 228.664,214.800 228.498 C 214.800 228.331,215.385 227.943,216.100 227.635 C 216.815 227.327,217.850 226.764,218.400 226.384 C 219.347 225.730,220.145 225.264,224.400 222.877 C 225.390 222.322,229.620 219.894,233.800 217.482 C 237.980 215.069,241.940 212.784,242.600 212.404 C 243.260 212.024,244.545 211.283,245.455 210.757 C 246.365 210.230,250.726 207.730,255.147 205.200 C 259.567 202.670,263.184 200.420,263.185 200.200 C 263.186 199.980,261.345 198.761,259.093 197.491 C 256.842 196.222,254.190 194.711,253.200 194.135 C 251.505 193.148,250.860 192.777,247.400 190.800 C 246.630 190.360,245.370 189.640,244.600 189.200 C 243.830 188.760,242.615 188.060,241.900 187.645 C 241.185 187.230,238.890 185.912,236.800 184.715 C 234.710 183.518,230.750 181.222,228.000 179.612 C 225.250 178.002,222.010 176.144,220.800 175.485 C 219.590 174.825,218.420 174.150,218.200 173.985 C 217.753 173.650,215.701 172.482,212.400 170.683 C 211.190 170.024,210.020 169.348,209.800 169.180 C 209.580 169.013,206.970 167.489,204.000 165.793 C 201.030 164.098,198.015 162.371,197.300 161.955 C 196.585 161.540,195.370 160.840,194.600 160.400 C 193.830 159.960,192.570 159.240,191.800 158.800 C 189.772 157.641,188.388 156.841,182.800 153.595 C 180.050 151.998,175.460 149.346,172.600 147.701 C 169.740 146.056,166.815 144.371,166.100 143.955 C 165.385 143.540,164.125 142.823,163.300 142.362 C 162.475 141.902,161.629 141.362,161.420 141.162 C 161.211 140.963,160.896 140.800,160.720 140.800 C 160.544 140.800,160.400 167.545,160.400 200.234 " stroke="none" fill="#fcfbfb" fill-rule="evenodd"></path><path id="path1" d="M146.642 59.892 C 146.473 60.061,140.274 60.337,132.867 60.504 C 125.460 60.672,115.170 60.987,110.000 61.204 C 104.830 61.422,97.540 61.699,93.800 61.819 C 90.061 61.940,86.830 62.210,86.620 62.420 C 86.411 62.629,83.947 62.800,81.144 62.800 C 78.177 62.800,75.944 62.967,75.800 63.200 C 75.661 63.425,73.737 63.600,71.400 63.600 C 69.063 63.600,67.139 63.775,67.000 64.000 C 66.864 64.220,65.154 64.400,63.200 64.400 C 61.246 64.400,59.536 64.580,59.400 64.800 C 59.264 65.020,58.004 65.200,56.600 65.200 C 55.196 65.200,53.936 65.380,53.800 65.600 C 53.664 65.820,52.483 66.000,51.176 66.000 C 49.859 66.000,48.800 66.178,48.800 66.400 C 48.800 66.620,48.001 66.800,47.024 66.800 C 46.047 66.800,45.136 66.980,45.000 67.200 C 44.864 67.420,44.133 67.600,43.376 67.600 C 42.619 67.600,42.000 67.780,42.000 68.000 C 42.000 68.220,41.460 68.400,40.800 68.400 C 40.140 68.400,39.600 68.580,39.600 68.800 C 39.600 69.020,39.060 69.200,38.400 69.200 C 37.740 69.200,37.200 69.380,37.200 69.600 C 37.200 69.820,36.840 70.000,36.400 70.000 C 35.960 70.000,35.600 70.180,35.600 70.400 C 35.600 70.620,35.240 70.800,34.800 70.800 C 34.360 70.800,34.000 70.980,34.000 71.200 C 34.000 71.420,33.640 71.600,33.200 71.600 C 32.760 71.600,32.400 71.780,32.400 72.000 C 32.400 72.220,32.080 72.400,31.688 72.400 C 31.297 72.400,30.717 72.760,30.400 73.200 C 30.083 73.640,29.503 74.000,29.112 74.000 C 28.720 74.000,28.400 74.141,28.400 74.314 C 28.400 74.486,27.815 74.969,27.100 75.385 C 26.385 75.802,25.530 76.428,25.200 76.776 C 24.870 77.124,23.921 77.914,23.091 78.532 C 21.196 79.942,19.964 81.170,18.527 83.082 C 17.907 83.907,16.905 85.108,16.300 85.750 C 15.695 86.393,15.200 87.122,15.200 87.371 C 15.200 87.620,14.840 88.083,14.400 88.400 C 13.960 88.717,13.600 89.297,13.600 89.688 C 13.600 90.080,13.443 90.400,13.250 90.400 C 13.058 90.400,12.181 91.885,11.301 93.700 C 8.925 98.600,8.400 99.923,8.400 101.014 C 8.400 101.556,8.220 102.000,8.000 102.000 C 7.780 102.000,7.600 102.720,7.600 103.600 C 7.600 104.480,7.420 105.200,7.200 105.200 C 6.980 105.200,6.800 105.909,6.800 106.776 C 6.800 107.643,6.620 108.464,6.400 108.600 C 6.180 108.736,6.000 109.737,6.000 110.824 C 6.000 111.911,5.820 112.800,5.600 112.800 C 5.380 112.800,5.200 113.700,5.200 114.800 C 5.200 115.900,5.020 116.800,4.800 116.800 C 4.571 116.800,4.400 118.000,4.400 119.600 C 4.400 121.200,4.229 122.400,4.000 122.400 C 3.769 122.400,3.600 123.667,3.600 125.400 C 3.600 127.133,3.431 128.400,3.200 128.400 C 2.965 128.400,2.800 129.792,2.800 131.776 C 2.800 133.633,2.620 135.264,2.400 135.400 C 2.177 135.538,2.000 137.396,2.000 139.600 C 2.000 141.804,1.823 143.662,1.600 143.800 C 1.364 143.946,1.200 146.326,1.200 149.590 C 1.200 153.669,1.068 155.177,0.700 155.300 C -0.033 155.544,-0.033 244.527,0.700 245.260 C 1.050 245.610,1.200 247.357,1.200 251.080 C 1.200 254.360,1.353 256.400,1.600 256.400 C 1.842 256.400,2.000 258.133,2.000 260.800 C 2.000 263.467,2.158 265.200,2.400 265.200 C 2.635 265.200,2.800 266.592,2.800 268.576 C 2.800 270.433,2.980 272.064,3.200 272.200 C 3.420 272.336,3.600 273.787,3.600 275.424 C 3.600 277.141,3.769 278.400,4.000 278.400 C 4.222 278.400,4.400 279.459,4.400 280.776 C 4.400 282.083,4.580 283.264,4.800 283.400 C 5.020 283.536,5.200 284.526,5.200 285.600 C 5.200 286.674,5.380 287.664,5.600 287.800 C 5.820 287.936,6.000 288.847,6.000 289.824 C 6.000 290.801,6.180 291.600,6.400 291.600 C 6.620 291.600,6.800 292.320,6.800 293.200 C 6.800 294.080,6.980 294.800,7.200 294.800 C 7.420 294.800,7.600 295.520,7.600 296.400 C 7.600 297.280,7.780 298.000,8.000 298.000 C 8.220 298.000,8.400 298.427,8.400 298.950 C 8.400 300.490,11.372 307.822,12.393 308.800 C 12.507 308.910,12.856 309.495,13.168 310.100 C 13.480 310.705,13.885 311.200,14.068 311.200 C 14.250 311.200,14.400 311.472,14.400 311.804 C 14.400 312.136,14.940 312.972,15.600 313.663 C 16.260 314.354,16.800 315.075,16.800 315.265 C 16.800 316.264,26.666 325.200,27.769 325.200 C 28.019 325.200,28.483 325.560,28.800 326.000 C 29.117 326.440,29.697 326.800,30.088 326.800 C 30.480 326.800,30.800 326.980,30.800 327.200 C 30.800 327.420,31.160 327.600,31.600 327.600 C 32.040 327.600,32.401 327.735,32.403 327.900 C 32.407 328.259,34.344 329.200,35.080 329.200 C 35.366 329.200,35.600 329.380,35.600 329.600 C 35.600 329.820,35.960 330.000,36.400 330.000 C 36.840 330.000,37.200 330.180,37.200 330.400 C 37.200 330.620,37.740 330.800,38.400 330.800 C 39.060 330.800,39.600 330.980,39.600 331.200 C 39.600 331.420,40.140 331.600,40.800 331.600 C 41.460 331.600,42.000 331.780,42.000 332.000 C 42.000 332.220,42.529 332.400,43.176 332.400 C 43.823 332.400,44.464 332.580,44.600 332.800 C 44.736 333.020,45.546 333.200,46.400 333.200 C 47.254 333.200,48.064 333.380,48.200 333.600 C 48.336 333.820,49.416 334.000,50.600 334.000 C 51.784 334.000,52.864 334.180,53.000 334.400 C 53.136 334.620,54.407 334.800,55.824 334.800 C 57.275 334.800,58.400 334.975,58.400 335.200 C 58.400 335.435,59.792 335.600,61.776 335.600 C 63.633 335.600,65.264 335.780,65.400 336.000 C 65.536 336.221,67.330 336.400,69.400 336.400 C 71.470 336.400,73.264 336.579,73.400 336.800 C 73.541 337.029,75.596 337.200,78.200 337.200 C 80.804 337.200,82.859 337.371,83.000 337.600 C 83.147 337.838,85.663 338.000,89.200 338.000 C 92.737 338.000,95.253 338.162,95.400 338.400 C 95.551 338.644,98.577 338.800,103.144 338.800 C 107.347 338.800,110.807 338.967,111.020 339.180 C 111.229 339.389,116.080 339.663,121.800 339.788 C 127.520 339.914,139.760 340.197,149.000 340.419 C 170.780 340.941,230.239 340.939,252.000 340.417 C 261.350 340.192,273.680 339.914,279.400 339.799 C 285.120 339.684,290.160 339.414,290.600 339.199 C 291.040 338.983,294.820 338.718,299.000 338.609 C 313.153 338.240,318.599 337.959,318.980 337.579 C 319.189 337.370,321.473 337.200,324.056 337.200 C 326.756 337.200,328.858 337.030,329.000 336.800 C 329.136 336.580,330.846 336.400,332.800 336.400 C 334.754 336.400,336.464 336.220,336.600 336.000 C 336.736 335.780,338.277 335.600,340.024 335.600 C 341.875 335.600,343.200 335.433,343.200 335.200 C 343.200 334.971,344.400 334.800,346.000 334.800 C 347.600 334.800,348.800 334.629,348.800 334.400 C 348.800 334.180,349.779 334.000,350.976 334.000 C 352.173 334.000,353.264 333.820,353.400 333.600 C 353.536 333.380,354.256 333.200,355.000 333.200 C 355.744 333.200,356.464 333.020,356.600 332.800 C 356.736 332.580,357.289 332.400,357.829 332.400 C 358.369 332.400,359.168 332.220,359.605 332.000 C 360.042 331.780,360.758 331.420,361.195 331.200 C 361.632 330.980,362.352 330.800,362.795 330.800 C 363.238 330.800,363.600 330.620,363.600 330.400 C 363.600 330.180,363.960 330.000,364.400 330.000 C 364.840 330.000,365.200 329.820,365.200 329.600 C 365.200 329.380,365.560 329.200,366.000 329.200 C 366.440 329.200,366.800 329.020,366.800 328.800 C 366.800 328.580,367.160 328.400,367.600 328.400 C 368.040 328.400,368.400 328.220,368.400 328.000 C 368.400 327.780,368.678 327.600,369.017 327.600 C 369.356 327.600,370.020 327.240,370.492 326.800 C 370.964 326.360,371.587 326.000,371.875 326.000 C 372.164 326.000,372.400 325.849,372.400 325.664 C 372.400 325.480,372.805 325.143,373.300 324.916 C 375.413 323.946,384.800 314.555,384.800 313.410 C 384.800 313.172,385.160 312.717,385.600 312.400 C 386.040 312.083,386.400 311.503,386.400 311.112 C 386.400 310.720,386.545 310.400,386.721 310.400 C 386.898 310.400,387.483 309.503,388.021 308.406 C 388.560 307.310,389.135 306.410,389.300 306.406 C 389.465 306.403,389.600 306.128,389.600 305.795 C 389.600 305.462,389.765 304.877,389.966 304.495 C 390.945 302.640,391.600 300.782,391.600 299.863 C 391.600 299.304,391.780 298.736,392.000 298.600 C 392.220 298.464,392.400 297.733,392.400 296.976 C 392.400 296.219,392.580 295.600,392.800 295.600 C 393.020 295.600,393.200 294.700,393.200 293.600 C 393.200 292.500,393.380 291.600,393.600 291.600 C 393.820 291.600,394.000 290.790,394.000 289.800 C 394.000 288.810,394.180 288.000,394.400 288.000 C 394.620 288.000,394.800 287.111,394.800 286.024 C 394.800 284.937,394.980 283.936,395.200 283.800 C 395.420 283.664,395.600 282.393,395.600 280.976 C 395.600 279.525,395.775 278.400,396.000 278.400 C 396.231 278.400,396.400 277.141,396.400 275.424 C 396.400 273.787,396.580 272.336,396.800 272.200 C 397.020 272.064,397.200 270.433,397.200 268.576 C 397.200 266.592,397.365 265.200,397.600 265.200 C 397.842 265.200,398.000 263.467,398.000 260.800 C 398.000 258.133,398.158 256.400,398.400 256.400 C 398.647 256.400,398.800 254.360,398.800 251.080 C 398.800 247.357,398.950 245.610,399.300 245.260 C 400.011 244.549,400.035 154.006,399.324 153.150 C 399.043 152.811,398.759 150.537,398.629 147.588 C 398.162 136.920,397.935 134.000,397.574 134.000 C 397.368 134.000,397.200 132.571,397.200 130.824 C 397.200 129.077,397.020 127.536,396.800 127.400 C 396.580 127.264,396.400 125.903,396.400 124.376 C 396.400 122.792,396.228 121.600,396.000 121.600 C 395.778 121.600,395.600 120.541,395.600 119.224 C 395.600 117.917,395.420 116.736,395.200 116.600 C 394.980 116.464,394.800 115.474,394.800 114.400 C 394.800 113.326,394.620 112.336,394.400 112.200 C 394.180 112.064,394.000 111.153,394.000 110.176 C 394.000 109.199,393.820 108.400,393.600 108.400 C 393.380 108.400,393.200 107.680,393.200 106.800 C 393.200 105.920,393.020 105.200,392.800 105.200 C 392.580 105.200,392.400 104.581,392.400 103.824 C 392.400 103.067,392.220 102.336,392.000 102.200 C 391.780 102.064,391.600 101.496,391.600 100.937 C 391.600 100.378,391.312 99.264,390.959 98.460 C 390.607 97.657,390.172 96.640,389.993 96.200 C 389.814 95.760,389.428 94.815,389.136 94.100 C 388.844 93.385,388.469 92.800,388.302 92.800 C 388.136 92.800,388.000 92.564,388.000 92.275 C 388.000 91.987,387.640 91.364,387.200 90.892 C 386.760 90.420,386.400 89.796,386.400 89.505 C 386.400 89.214,386.040 88.717,385.600 88.400 C 385.160 88.083,384.800 87.596,384.800 87.318 C 384.800 86.067,374.210 75.600,372.944 75.600 C 372.645 75.600,372.400 75.420,372.400 75.200 C 372.400 74.980,372.130 74.800,371.800 74.800 C 371.470 74.800,371.200 74.620,371.200 74.400 C 371.200 74.180,370.930 74.000,370.600 74.000 C 370.270 74.000,370.000 73.820,370.000 73.600 C 370.000 73.380,369.655 73.200,369.233 73.200 C 368.812 73.200,368.407 73.065,368.333 72.900 C 368.141 72.468,364.828 70.800,364.162 70.800 C 363.853 70.800,363.600 70.620,363.600 70.400 C 363.600 70.180,363.240 70.000,362.800 70.000 C 362.360 70.000,362.000 69.820,362.000 69.600 C 362.000 69.380,361.460 69.200,360.800 69.200 C 360.140 69.200,359.600 69.020,359.600 68.800 C 359.600 68.580,359.060 68.400,358.400 68.400 C 357.740 68.400,357.200 68.220,357.200 68.000 C 357.200 67.780,356.491 67.600,355.624 67.600 C 354.757 67.600,353.936 67.420,353.800 67.200 C 353.664 66.980,352.663 66.800,351.576 66.800 C 350.489 66.800,349.600 66.620,349.600 66.400 C 349.600 66.178,348.541 66.000,347.224 66.000 C 345.917 66.000,344.736 65.820,344.600 65.600 C 344.464 65.380,343.114 65.200,341.600 65.200 C 340.086 65.200,338.736 65.020,338.600 64.800 C 338.464 64.580,336.869 64.400,335.056 64.400 C 333.243 64.400,331.589 64.231,331.380 64.025 C 331.171 63.819,329.110 63.552,326.800 63.432 C 324.490 63.311,320.080 63.024,317.000 62.792 C 313.920 62.561,308.520 62.286,305.000 62.181 C 301.480 62.076,298.240 61.815,297.800 61.602 C 297.360 61.388,293.130 61.117,288.400 60.998 C 283.670 60.879,273.860 60.603,266.600 60.384 C 250.271 59.891,147.066 59.467,146.642 59.892 M163.162 141.200 C 163.403 141.200,163.600 141.380,163.600 141.600 C 163.600 141.820,163.960 142.000,164.400 142.000 C 164.840 142.000,165.200 142.180,165.200 142.400 C 165.200 142.620,165.372 142.800,165.582 142.800 C 165.793 142.800,166.918 143.365,168.082 144.056 C 170.298 145.370,171.395 145.998,174.432 147.688 C 177.708 149.512,178.197 149.797,178.400 150.000 C 178.510 150.110,179.320 150.574,180.200 151.030 C 182.273 152.106,183.749 152.949,184.000 153.201 C 184.110 153.311,184.740 153.671,185.400 154.000 C 186.060 154.329,186.690 154.689,186.800 154.799 C 186.910 154.910,187.405 155.225,187.900 155.500 C 188.395 155.775,189.205 156.225,189.700 156.500 C 190.195 156.775,190.690 157.090,190.800 157.200 C 191.196 157.596,193.415 158.854,194.100 159.071 C 194.485 159.193,194.800 159.452,194.800 159.647 C 194.800 159.841,195.160 160.000,195.600 160.000 C 196.040 160.000,196.400 160.180,196.400 160.400 C 196.400 160.620,196.565 160.800,196.767 160.800 C 196.968 160.800,198.881 161.790,201.018 163.000 C 203.154 164.210,205.059 165.200,205.251 165.200 C 205.443 165.200,205.600 165.359,205.600 165.553 C 205.600 165.748,205.915 166.007,206.300 166.129 C 206.985 166.346,209.204 167.604,209.600 168.000 C 209.710 168.110,210.520 168.574,211.400 169.030 C 213.473 170.106,214.949 170.949,215.200 171.201 C 215.310 171.311,215.940 171.671,216.600 172.000 C 217.260 172.329,217.890 172.689,218.000 172.799 C 218.394 173.195,220.613 174.454,221.300 174.671 C 221.685 174.793,222.000 175.019,222.000 175.172 C 222.000 175.325,222.630 175.698,223.400 176.000 C 224.170 176.302,224.800 176.662,224.800 176.800 C 224.800 176.938,225.430 177.298,226.200 177.600 C 226.970 177.902,227.600 178.296,227.600 178.475 C 227.600 178.654,227.790 178.800,228.021 178.800 C 228.253 178.800,230.157 179.790,232.253 181.000 C 234.349 182.210,236.152 183.200,236.260 183.200 C 236.368 183.200,237.241 183.740,238.200 184.400 C 239.159 185.060,240.137 185.600,240.372 185.600 C 240.607 185.600,240.800 185.780,240.800 186.000 C 240.800 186.220,241.160 186.400,241.600 186.400 C 242.040 186.400,242.400 186.559,242.400 186.753 C 242.400 186.948,242.715 187.207,243.100 187.329 C 243.847 187.566,246.067 188.846,246.400 189.232 C 246.510 189.360,247.185 189.719,247.900 190.030 C 248.615 190.341,249.200 190.731,249.200 190.898 C 249.200 191.064,249.470 191.200,249.800 191.200 C 250.130 191.200,250.400 191.380,250.400 191.600 C 250.400 191.820,250.760 192.000,251.200 192.000 C 251.640 192.000,252.000 192.180,252.000 192.400 C 252.000 192.620,252.170 192.800,252.379 192.800 C 252.587 192.800,253.892 193.471,255.279 194.291 C 258.508 196.200,260.574 197.362,262.700 198.462 C 265.071 199.689,265.011 200.766,262.500 202.032 C 261.455 202.558,260.510 203.092,260.400 203.217 C 260.290 203.342,259.030 204.085,257.600 204.867 C 254.504 206.559,252.819 207.517,250.400 208.961 C 249.410 209.552,248.285 210.138,247.900 210.264 C 247.515 210.390,247.200 210.652,247.200 210.847 C 247.200 211.041,246.840 211.200,246.400 211.200 C 245.960 211.200,245.600 211.359,245.600 211.553 C 245.600 211.748,245.285 212.007,244.900 212.129 C 244.215 212.346,241.996 213.604,241.600 214.000 C 241.490 214.110,240.995 214.425,240.500 214.700 C 240.005 214.975,239.195 215.425,238.700 215.700 C 238.205 215.975,237.710 216.290,237.600 216.401 C 237.490 216.511,236.860 216.865,236.200 217.186 C 235.540 217.508,234.550 218.065,234.000 218.425 C 233.450 218.784,232.010 219.622,230.800 220.287 C 226.486 222.659,223.394 224.463,223.020 224.829 C 222.811 225.033,222.316 225.200,221.920 225.200 C 221.524 225.200,221.200 225.380,221.200 225.600 C 221.200 225.820,220.930 226.000,220.600 226.000 C 220.270 226.000,220.000 226.159,220.000 226.353 C 220.000 226.548,219.685 226.807,219.300 226.929 C 218.364 227.225,216.234 228.524,216.067 228.900 C 215.993 229.065,215.588 229.200,215.167 229.200 C 214.745 229.200,214.400 229.359,214.400 229.553 C 214.400 229.748,214.085 230.007,213.700 230.129 C 213.015 230.346,210.796 231.604,210.400 232.000 C 210.290 232.110,209.770 232.442,209.245 232.738 C 207.252 233.860,205.555 234.826,204.300 235.553 C 198.066 239.164,196.534 239.994,196.100 239.997 C 195.825 239.999,195.600 240.145,195.600 240.321 C 195.600 240.498,194.703 241.083,193.606 241.621 C 192.510 242.160,191.610 242.735,191.606 242.900 C 191.603 243.065,191.240 243.200,190.800 243.200 C 190.360 243.200,190.000 243.380,190.000 243.600 C 190.000 243.820,189.730 244.000,189.400 244.000 C 189.070 244.000,188.800 244.146,188.800 244.325 C 188.800 244.504,188.170 244.898,187.400 245.200 C 186.630 245.502,186.000 245.875,186.000 246.028 C 186.000 246.181,185.685 246.410,185.300 246.536 C 184.915 246.662,183.700 247.317,182.600 247.991 C 181.500 248.666,180.330 249.336,180.000 249.480 C 179.670 249.624,179.310 249.845,179.200 249.971 C 178.980 250.223,175.919 251.926,174.503 252.583 C 174.010 252.813,173.605 253.135,173.603 253.300 C 173.601 253.465,173.428 253.600,173.218 253.600 C 173.007 253.600,171.963 254.114,170.897 254.743 C 169.066 255.822,167.529 256.697,163.800 258.781 C 162.920 259.273,162.029 259.838,161.820 260.038 C 161.611 260.237,161.116 260.400,160.720 260.400 C 159.990 260.400,159.528 140.606,160.255 139.878 C 160.395 139.738,161.008 139.978,161.617 140.412 C 162.225 140.845,162.921 141.200,163.162 141.200 " stroke="none" fill="#fc0404" fill-rule="evenodd"></path><path id="path2" d="" stroke="none" fill="#fc6c6c" fill-rule="evenodd"></path><path id="path3" d="" stroke="none" fill="#fc5656" fill-rule="evenodd"></path><path id="path4" d="M160.185 140.900 C 160.080 141.175,160.041 167.950,160.097 200.400 L 160.200 259.400 160.400 199.900 C 160.510 167.175,160.549 140.400,160.487 140.400 C 160.426 140.400,160.289 140.625,160.185 140.900 M164.800 143.164 C 165.350 143.614,165.980 143.983,166.200 143.985 C 166.628 143.988,165.905 143.434,164.600 142.760 C 164.069 142.485,164.136 142.621,164.800 143.164 M167.400 144.607 C 167.840 144.966,168.560 145.435,169.000 145.651 L 169.800 146.044 169.000 145.393 C 168.560 145.034,167.840 144.565,167.400 144.349 L 166.600 143.956 167.400 144.607 M170.400 146.421 C 171.442 147.130,173.200 148.028,173.200 147.850 C 173.200 147.628,170.439 145.998,170.077 146.006 C 169.925 146.009,170.070 146.196,170.400 146.421 M178.400 150.990 C 178.400 151.094,178.985 151.465,179.700 151.814 L 181.000 152.448 180.000 151.633 C 179.037 150.848,178.400 150.592,178.400 150.990 M181.200 152.590 C 181.200 152.694,181.785 153.065,182.500 153.414 L 183.800 154.048 182.800 153.233 C 181.837 152.448,181.200 152.192,181.200 152.590 M184.000 154.179 C 184.000 154.289,184.540 154.659,185.200 155.000 C 185.860 155.341,186.400 155.531,186.400 155.421 C 186.400 155.311,185.860 154.941,185.200 154.600 C 184.540 154.259,184.000 154.069,184.000 154.179 M187.600 156.367 C 188.563 157.152,189.200 157.408,189.200 157.010 C 189.200 156.906,188.615 156.535,187.900 156.186 L 186.600 155.552 187.600 156.367 M190.400 157.964 C 190.950 158.414,191.580 158.783,191.800 158.785 C 192.228 158.788,191.505 158.234,190.200 157.560 C 189.669 157.285,189.736 157.421,190.400 157.964 M193.200 159.564 C 193.750 160.014,194.380 160.383,194.600 160.385 C 195.028 160.388,194.305 159.834,193.000 159.160 C 192.469 158.885,192.536 159.021,193.200 159.564 M196.000 161.164 C 196.550 161.614,197.180 161.983,197.400 161.985 C 197.828 161.988,197.105 161.434,195.800 160.760 C 195.269 160.485,195.336 160.621,196.000 161.164 M198.000 162.150 C 198.000 162.268,199.305 163.116,200.900 164.035 C 202.495 164.954,204.385 166.057,205.100 166.486 C 205.815 166.914,206.400 167.169,206.400 167.050 C 206.400 166.932,205.095 166.084,203.500 165.165 C 201.905 164.246,200.015 163.143,199.300 162.714 C 198.585 162.286,198.000 162.031,198.000 162.150 M209.600 168.990 C 209.600 169.094,210.185 169.465,210.900 169.814 L 212.200 170.448 211.200 169.633 C 210.237 168.848,209.600 168.592,209.600 168.990 M218.000 173.741 C 218.000 174.008,221.690 176.043,221.863 175.871 C 221.940 175.793,221.103 175.239,220.002 174.640 C 218.901 174.040,218.000 173.636,218.000 173.741 M226.000 178.420 C 227.387 179.361,228.178 179.635,227.200 178.836 C 226.650 178.386,226.020 178.017,225.800 178.015 C 225.580 178.013,225.670 178.196,226.000 178.420 M228.800 180.020 C 230.187 180.961,230.978 181.235,230.000 180.436 C 229.450 179.986,228.820 179.617,228.600 179.615 C 228.380 179.613,228.470 179.796,228.800 180.020 M231.400 181.506 C 231.944 182.058,236.400 184.527,236.400 184.276 C 236.400 184.166,235.365 183.474,234.100 182.738 C 231.466 181.206,230.809 180.907,231.400 181.506 M240.400 186.767 C 241.363 187.552,242.000 187.808,242.000 187.410 C 242.000 187.306,241.415 186.935,240.700 186.586 L 239.400 185.952 240.400 186.767 M243.200 188.367 C 244.163 189.152,244.800 189.408,244.800 189.010 C 244.800 188.906,244.215 188.535,243.500 188.186 L 242.200 187.552 243.200 188.367 M246.000 189.964 C 246.550 190.414,247.180 190.783,247.400 190.785 C 247.828 190.788,247.105 190.234,245.800 189.560 C 245.269 189.285,245.336 189.421,246.000 189.964 M251.600 193.164 C 252.150 193.614,252.780 193.983,253.000 193.985 C 253.428 193.988,252.705 193.434,251.400 192.760 C 250.869 192.485,250.936 192.621,251.600 193.164 M254.200 194.607 C 254.640 194.966,255.360 195.435,255.800 195.651 L 256.600 196.044 255.800 195.393 C 255.360 195.034,254.640 194.565,254.200 194.349 L 253.400 193.956 254.200 194.607 M257.200 196.420 C 258.587 197.361,259.378 197.635,258.400 196.836 C 257.850 196.386,257.220 196.017,257.000 196.015 C 256.780 196.013,256.870 196.196,257.200 196.420 M260.000 198.020 C 261.387 198.961,262.178 199.235,261.200 198.436 C 260.650 197.986,260.020 197.617,259.800 197.615 C 259.580 197.613,259.670 197.796,260.000 198.020 M262.700 199.465 C 262.975 199.576,263.200 199.932,263.200 200.257 C 263.200 200.582,263.389 200.731,263.619 200.588 C 264.125 200.276,263.345 199.183,262.651 199.232 C 262.368 199.251,262.386 199.338,262.700 199.465 M261.500 201.429 C 260.005 202.240,260.096 202.578,261.600 201.800 C 262.260 201.459,262.800 201.094,262.800 200.990 C 262.800 200.732,262.757 200.747,261.500 201.429 M258.600 203.200 C 257.940 203.637,257.580 203.992,257.800 203.988 C 258.201 203.982,260.376 202.423,260.000 202.412 C 259.890 202.408,259.260 202.763,258.600 203.200 M255.096 205.158 C 252.660 206.587,252.119 207.144,254.200 206.080 C 255.745 205.291,257.610 204.018,257.200 204.033 C 257.090 204.037,256.143 204.543,255.096 205.158 M251.100 207.429 C 249.605 208.240,249.696 208.578,251.200 207.800 C 251.860 207.459,252.400 207.094,252.400 206.990 C 252.400 206.732,252.357 206.747,251.100 207.429 M247.700 209.426 C 246.765 209.987,246.000 210.540,246.000 210.655 C 246.000 210.871,248.699 209.338,249.380 208.736 C 250.067 208.128,249.427 208.391,247.700 209.426 M241.200 213.236 C 240.536 213.779,240.469 213.915,241.000 213.640 C 242.305 212.966,243.028 212.412,242.600 212.415 C 242.380 212.417,241.750 212.786,241.200 213.236 M235.900 216.229 C 234.405 217.040,234.496 217.378,236.000 216.600 C 236.660 216.259,237.200 215.894,237.200 215.790 C 237.200 215.532,237.157 215.547,235.900 216.229 M233.100 217.829 C 231.605 218.640,231.696 218.978,233.200 218.200 C 233.860 217.859,234.400 217.494,234.400 217.390 C 234.400 217.132,234.357 217.147,233.100 217.829 M230.300 219.429 C 228.805 220.240,228.896 220.578,230.400 219.800 C 231.060 219.459,231.600 219.094,231.600 218.990 C 231.600 218.732,231.557 218.747,230.300 219.429 M222.400 224.036 C 221.736 224.579,221.669 224.715,222.200 224.440 C 223.505 223.766,224.228 223.212,223.800 223.215 C 223.580 223.217,222.950 223.586,222.400 224.036 M219.600 225.636 C 218.936 226.179,218.869 226.315,219.400 226.040 C 220.705 225.366,221.428 224.812,221.000 224.815 C 220.780 224.817,220.150 225.186,219.600 225.636 M211.500 230.229 C 210.005 231.040,210.096 231.378,211.600 230.600 C 212.260 230.259,212.800 229.894,212.800 229.790 C 212.800 229.532,212.757 229.547,211.500 230.229 M205.900 233.429 C 205.295 233.757,204.800 234.110,204.800 234.213 C 204.800 234.599,205.432 234.357,206.400 233.600 C 207.589 232.670,207.411 232.609,205.900 233.429 M199.000 237.452 C 196.014 239.221,195.066 240.109,197.831 238.547 C 200.032 237.304,201.920 236.046,201.600 236.036 C 201.490 236.033,200.320 236.670,199.000 237.452 M194.000 240.436 C 193.336 240.979,193.269 241.115,193.800 240.840 C 195.105 240.166,195.828 239.612,195.400 239.615 C 195.180 239.617,194.550 239.986,194.000 240.436 M191.200 242.036 C 190.536 242.579,190.469 242.715,191.000 242.440 C 192.305 241.766,193.028 241.212,192.600 241.215 C 192.380 241.217,191.750 241.586,191.200 242.036 M185.600 245.233 L 184.600 246.048 185.900 245.414 C 186.615 245.065,187.200 244.694,187.200 244.590 C 187.200 244.192,186.563 244.448,185.600 245.233 M182.800 246.833 L 181.800 247.648 183.100 247.014 C 183.815 246.665,184.400 246.294,184.400 246.190 C 184.400 245.792,183.763 246.048,182.800 246.833 M180.300 248.229 C 178.805 249.040,178.896 249.378,180.400 248.600 C 181.060 248.259,181.600 247.894,181.600 247.790 C 181.600 247.532,181.557 247.547,180.300 248.229 M173.295 252.271 C 171.928 253.080,170.870 253.803,170.945 253.878 C 171.071 254.005,175.447 251.486,175.918 251.015 C 176.423 250.511,175.626 250.892,173.295 252.271 M169.389 254.537 C 168.955 254.833,167.520 255.658,166.200 256.370 C 164.880 257.083,163.620 257.850,163.400 258.076 C 163.180 258.301,164.277 257.791,165.838 256.943 C 168.721 255.376,170.772 254.059,170.389 254.021 C 170.273 254.009,169.823 254.242,169.389 254.537 M161.500 259.029 C 160.005 259.840,160.096 260.178,161.600 259.400 C 162.260 259.059,162.800 258.694,162.800 258.590 C 162.800 258.332,162.757 258.347,161.500 259.029 " stroke="none" fill="#fc8484" fill-rule="evenodd"></path><path id="path5" d="" stroke="none" fill="#fc2626" fill-rule="evenodd"></path><path id="path6" d="" stroke="none" fill="#fc3c3c" fill-rule="evenodd"></path><path id="path7" d="" stroke="none" fill="#fc1c1c" fill-rule="evenodd"></path><path id="path8" d="" stroke="none" fill="#fc1414" fill-rule="evenodd"></path></g></svg>