<svg id="svg" version="1.1" xmlns="http://www.w3.org/2000/svg" xmlns:xlink="http://www.w3.org/1999/xlink" width="400" height="369.2307692307693" viewBox="0, 0, 400,369.2307692307693"><g id="svgg"><path id="path0" d="M60.572 13.975 C 58.784 14.217,58.015 15.348,58.575 16.915 C 58.898 17.821,59.069 20.276,59.082 24.192 C 59.118 34.917,59.738 43.891,60.534 45.202 C 61.455 46.719,61.967 52.263,62.414 65.559 C 62.711 74.406,62.866 76.171,63.486 77.771 C 64.354 80.010,64.997 86.301,65.014 92.705 C 65.032 99.665,65.616 106.297,66.480 109.357 C 67.117 111.612,67.316 113.826,67.610 121.884 C 68.067 134.407,68.498 139.430,69.277 141.274 C 69.726 142.336,69.992 144.570,70.223 149.215 C 71.132 167.519,71.272 169.411,71.814 170.708 C 72.573 172.525,73.066 178.488,73.479 190.836 C 73.755 199.097,73.947 201.480,74.411 202.377 C 75.253 204.007,75.677 208.022,76.087 218.283 C 76.520 229.099,76.781 232.125,77.411 233.633 C 78.250 235.641,78.683 240.737,79.010 252.447 C 79.319 263.510,79.362 263.981,80.291 266.394 C 81.340 269.119,81.325 268.936,82.014 286.770 C 82.217 292.037,82.540 296.535,82.731 296.766 C 83.749 297.993,84.245 302.331,84.587 313.019 C 84.941 324.068,85.169 326.513,86.170 330.009 C 86.461 331.025,86.821 333.181,86.971 334.801 C 87.362 339.023,88.641 340.313,92.827 340.704 C 96.429 341.040,97.734 341.406,98.539 342.307 C 99.011 342.836,100.221 343.164,103.353 343.613 C 106.665 344.087,107.755 344.395,108.580 345.090 C 109.398 345.778,110.248 346.023,112.522 346.224 C 116.300 346.558,118.094 347.052,118.537 347.881 C 118.968 348.686,122.133 349.400,125.273 349.400 C 127.166 349.400,127.572 349.535,128.590 350.508 C 129.228 351.117,129.849 351.619,129.972 351.623 C 132.441 351.698,138.150 352.875,138.969 353.478 C 139.925 354.182,141.489 354.569,145.591 355.117 C 146.543 355.244,147.909 355.746,148.626 356.233 C 149.619 356.906,150.906 357.244,154.011 357.645 C 157.238 358.062,158.381 358.371,159.471 359.122 C 160.544 359.861,161.505 360.128,163.804 360.325 C 166.967 360.596,167.915 360.912,168.790 361.983 C 169.217 362.505,170.223 362.750,173.151 363.046 C 177.052 363.441,177.993 363.734,179.366 364.982 C 179.955 365.518,181.032 365.782,183.633 366.028 C 188.320 366.471,189.843 367.118,189.843 368.663 C 189.843 369.319,190.849 369.344,216.990 369.344 L 244.137 369.344 244.137 368.478 C 244.137 366.922,245.306 366.317,248.970 365.979 C 251.804 365.717,252.611 365.490,254.027 364.551 C 254.954 363.937,255.975 363.432,256.296 363.428 C 259.758 363.389,263.466 362.658,264.466 361.817 C 265.147 361.243,266.226 360.812,267.315 360.678 C 270.741 360.255,273.104 359.646,274.056 358.943 C 274.714 358.456,276.289 358.063,279.005 357.706 C 283.363 357.134,284.395 356.891,284.395 356.437 C 284.395 355.900,286.359 355.308,289.876 354.783 C 292.241 354.430,293.576 354.041,294.123 353.545 C 295.065 352.691,295.698 352.525,300.065 351.986 C 302.873 351.639,303.544 351.418,304.602 350.489 C 305.734 349.495,306.079 349.400,308.545 349.400 C 311.474 349.400,313.337 348.932,314.497 347.904 C 315.420 347.086,317.439 346.547,320.776 346.229 C 322.473 346.066,323.615 345.752,324.100 345.314 C 325.160 344.357,326.239 344.034,330.194 343.488 C 332.832 343.124,333.957 342.793,334.729 342.154 C 335.778 341.285,336.481 341.106,340.335 340.727 C 345.172 340.252,346.680 338.607,346.940 333.518 C 347.039 331.584,347.410 329.528,347.905 328.163 C 348.625 326.180,348.761 324.625,349.198 313.389 C 349.621 302.511,349.788 300.535,350.445 298.615 C 351.282 296.171,351.982 287.894,351.989 280.367 C 351.995 273.841,352.646 267.500,353.511 265.560 C 354.172 264.074,354.288 262.654,354.595 252.271 C 354.931 240.877,355.205 237.877,356.216 234.534 C 357.099 231.615,357.195 230.493,357.514 219.391 C 357.823 208.662,358.383 203.831,359.478 202.473 C 359.957 201.878,360.427 193.916,360.465 185.780 C 360.498 178.570,361.005 173.172,361.797 171.592 C 362.523 170.143,362.939 165.285,363.427 152.539 C 363.805 142.668,364.020 140.569,364.805 139.049 C 365.360 137.974,365.624 134.561,366.019 123.304 C 366.374 113.197,366.691 110.222,367.744 107.110 C 368.146 105.920,368.396 102.773,368.623 96.030 C 369.010 84.517,369.202 82.211,370.072 78.670 C 370.830 75.589,371.036 73.116,371.569 60.757 C 371.976 51.312,372.485 46.772,373.278 45.512 C 373.682 44.869,373.888 42.132,374.153 33.877 C 374.343 27.941,374.688 21.354,374.920 19.240 C 375.393 14.917,375.003 14.082,372.484 14.027 C 367.994 13.929,61.294 13.878,60.572 13.975 M347.065 39.944 C 347.558 40.353,347.616 41.063,347.437 44.499 C 347.021 52.529,346.063 63.766,345.549 66.667 C 344.928 70.170,344.336 76.411,344.043 82.548 C 343.651 90.746,343.075 98.039,342.567 101.250 C 342.062 104.444,341.322 112.476,340.512 123.546 C 340.275 126.796,339.939 130.536,339.765 131.856 C 339.139 136.628,338.722 141.018,338.327 146.999 C 337.818 154.692,337.366 159.400,336.463 166.390 C 336.070 169.437,335.576 175.669,335.367 180.240 C 335.158 184.811,334.733 189.963,334.421 191.690 C 333.618 196.150,333.126 201.236,332.778 208.680 C 332.198 221.100,331.644 226.967,330.581 231.948 C 330.386 232.862,330.214 234.940,330.200 236.565 C 330.153 241.800,329.124 253.863,328.546 255.956 C 328.199 257.212,327.847 261.073,327.623 266.080 C 327.299 273.347,327.037 276.399,325.798 287.350 C 325.602 289.077,325.274 291.985,325.068 293.813 C 324.862 295.642,324.508 300.615,324.281 304.865 C 323.999 310.152,323.701 312.916,323.338 313.618 C 323.046 314.183,322.807 315.378,322.807 316.275 C 322.807 318.612,321.516 319.852,319.084 319.852 C 317.993 319.852,316.838 320.128,316.088 320.569 C 315.416 320.963,313.620 321.565,312.096 321.907 C 310.572 322.249,308.721 322.835,307.981 323.209 C 307.241 323.583,305.164 324.159,303.364 324.489 C 301.565 324.818,298.846 325.555,297.322 326.125 C 295.799 326.695,293.472 327.276,292.151 327.416 C 290.727 327.566,289.000 328.056,287.904 328.620 C 286.805 329.186,284.754 329.767,282.838 330.055 C 280.980 330.334,278.843 330.931,277.784 331.468 C 276.775 331.979,274.511 332.648,272.754 332.955 C 270.997 333.261,269.116 333.824,268.575 334.205 C 268.033 334.587,265.694 335.274,263.377 335.733 C 261.060 336.191,258.649 336.870,258.021 337.241 C 257.392 337.612,255.631 338.107,254.108 338.341 C 252.585 338.575,250.342 339.171,249.123 339.664 C 247.904 340.158,245.743 340.724,244.321 340.923 C 242.899 341.121,240.918 341.703,239.919 342.217 C 238.801 342.791,236.504 343.419,233.946 343.850 C 231.660 344.235,229.237 344.839,228.561 345.193 C 227.885 345.546,225.586 346.200,223.453 346.645 C 217.750 347.835,215.778 346.586,216.577 342.290 C 216.700 341.630,216.896 334.581,217.013 326.625 L 217.225 312.161 216.282 310.667 C 215.210 308.970,214.519 308.712,209.255 308.039 C 207.438 307.807,205.219 307.284,204.324 306.876 C 203.429 306.468,200.926 305.835,198.763 305.469 C 196.599 305.103,194.164 304.461,193.352 304.043 C 192.408 303.558,190.217 303.072,187.287 302.700 C 183.741 302.249,182.315 301.897,181.008 301.151 C 179.770 300.445,178.492 300.108,176.239 299.891 C 174.127 299.689,172.564 299.297,171.253 298.641 C 169.777 297.903,168.241 297.566,164.470 297.155 C 161.291 296.808,159.187 296.391,158.420 295.957 C 157.773 295.591,156.892 295.086,156.461 294.835 C 156.031 294.584,154.931 294.370,154.017 294.360 C 151.774 294.335,148.112 293.520,146.990 292.796 C 146.481 292.467,144.112 291.942,141.644 291.610 C 137.061 290.995,134.811 290.453,134.811 289.966 C 134.811 289.465,132.967 288.827,131.519 288.827 C 128.918 288.827,128.312 287.943,128.047 283.767 C 127.921 281.776,127.659 279.649,127.464 279.040 C 126.350 275.550,125.903 271.748,125.577 262.973 C 125.219 253.358,124.747 248.229,124.055 246.436 C 123.129 244.037,122.410 224.979,123.215 224.174 C 124.174 223.215,162.761 222.911,164.266 223.851 C 165.357 224.532,165.407 224.896,165.848 235.272 C 166.060 240.249,166.381 245.152,166.562 246.168 C 166.743 247.184,167.162 249.843,167.494 252.078 C 168.204 256.860,168.368 257.053,171.723 257.091 C 175.469 257.132,177.931 257.595,179.130 258.481 C 180.036 259.151,181.328 259.415,186.604 260.010 C 191.195 260.527,193.403 260.940,194.483 261.486 C 195.361 261.929,197.353 262.395,199.285 262.610 C 206.875 263.454,209.145 263.806,210.062 264.281 C 211.540 265.048,214.705 265.330,216.221 264.830 C 217.748 264.326,217.737 264.351,216.934 263.125 C 216.394 262.301,216.379 261.910,216.798 259.686 C 217.100 258.086,217.174 256.321,217.001 254.812 C 216.681 252.009,216.694 253.424,216.760 226.962 C 216.789 215.383,216.967 205.256,217.155 204.456 C 217.567 202.704,217.250 201.997,215.591 200.972 C 214.377 200.222,214.034 200.216,168.044 200.168 C 118.421 200.115,120.826 200.208,119.058 198.281 C 118.042 197.173,117.567 191.675,117.263 177.470 C 117.145 171.985,116.874 166.135,116.660 164.468 C 116.027 159.524,117.225 156.883,120.326 156.387 C 121.186 156.250,122.649 155.656,123.577 155.067 C 124.506 154.478,126.079 153.822,127.074 153.609 C 128.068 153.395,129.510 152.789,130.277 152.261 C 131.044 151.733,132.752 150.998,134.072 150.628 C 135.392 150.257,136.662 149.698,136.893 149.386 C 137.125 149.073,138.406 148.505,139.740 148.123 C 141.075 147.742,142.717 147.010,143.390 146.496 C 144.063 145.983,145.315 145.406,146.174 145.213 C 147.032 145.020,148.530 144.352,149.502 143.728 C 150.474 143.104,152.178 142.400,153.289 142.163 C 154.400 141.926,155.774 141.342,156.342 140.866 C 156.910 140.390,158.073 139.817,158.927 139.592 C 159.781 139.367,161.194 138.769,162.067 138.264 C 162.940 137.758,164.683 137.007,165.941 136.594 C 167.200 136.181,168.646 135.549,169.156 135.190 C 169.666 134.831,171.017 134.268,172.159 133.939 C 173.300 133.610,174.443 133.089,174.699 132.780 C 174.955 132.472,176.514 131.808,178.164 131.305 C 180.025 130.737,181.335 130.115,181.615 129.666 C 181.917 129.183,182.819 128.794,184.331 128.497 C 185.576 128.252,187.034 127.686,187.572 127.239 C 188.957 126.087,189.806 125.700,191.585 125.405 C 192.441 125.263,193.744 124.669,194.480 124.084 C 195.215 123.499,196.094 122.941,196.431 122.844 C 196.769 122.746,197.771 122.479,198.658 122.249 C 199.545 122.020,200.600 121.525,201.003 121.150 C 201.405 120.775,202.804 120.179,204.110 119.826 C 208.218 118.714,205.900 117.089,200.185 117.074 C 198.255 117.069,196.011 116.906,195.199 116.712 C 192.944 116.174,184.162 116.003,147.455 115.784 C 128.734 115.672,113.354 115.433,112.864 115.247 C 111.623 114.775,111.606 114.720,111.167 109.839 C 110.950 107.424,110.539 104.617,110.254 103.601 C 108.877 98.698,107.711 77.172,108.765 76.118 C 109.294 75.589,114.578 75.513,162.432 75.346 C 218.751 75.150,218.107 75.172,217.281 73.526 C 217.121 73.207,216.933 66.464,216.865 58.541 C 216.796 50.619,216.713 43.306,216.680 42.290 C 216.576 39.056,210.404 39.327,282.659 39.397 C 334.718 39.448,346.588 39.548,347.065 39.944 " stroke="none" fill="#2576b4" fill-rule="evenodd"></path><path id="path1" d="M0.000 184.672 L 0.000 369.344 92.151 369.344 C 184.057 369.344,184.303 369.342,184.303 368.606 C 184.303 368.199,184.238 367.867,184.159 367.867 C 182.849 367.867,177.393 366.476,176.035 365.796 C 175.043 365.300,172.966 364.711,171.419 364.489 C 169.872 364.267,167.525 363.624,166.205 363.060 C 164.885 362.497,162.558 361.834,161.034 361.588 C 159.511 361.342,157.516 360.753,156.602 360.279 C 155.622 359.771,153.438 359.191,151.282 358.864 C 148.926 358.507,146.956 357.963,145.747 357.336 C 144.714 356.800,143.036 356.284,142.018 356.188 C 138.393 355.849,136.010 355.226,134.993 354.353 C 133.955 353.460,133.352 353.301,129.455 352.891 C 128.236 352.762,126.491 352.261,125.577 351.776 C 124.663 351.291,122.752 350.719,121.330 350.504 C 118.200 350.032,116.362 349.483,115.555 348.780 C 115.223 348.491,113.176 347.940,111.006 347.556 C 108.829 347.171,106.480 346.516,105.765 346.094 C 104.989 345.636,102.966 345.104,100.720 344.766 C 98.456 344.426,96.454 343.898,95.669 343.433 C 94.953 343.010,93.117 342.444,91.590 342.176 C 85.167 341.051,84.504 339.866,83.834 328.321 C 83.176 316.966,82.431 308.125,81.829 304.524 C 81.524 302.696,81.018 296.962,80.706 291.782 C 80.394 286.602,79.817 280.452,79.425 278.116 C 78.748 274.082,78.456 270.299,77.547 253.805 C 77.331 249.879,77.003 246.271,76.819 245.786 C 76.176 244.096,75.397 236.514,75.169 229.732 C 74.891 221.443,74.454 216.611,73.717 213.666 C 72.949 210.598,72.406 204.181,72.013 193.536 C 71.780 187.239,71.462 183.421,70.968 180.979 C 70.297 177.665,70.000 174.319,69.047 159.372 C 68.826 155.919,68.488 152.478,68.294 151.727 C 67.753 149.634,66.925 140.820,66.670 134.441 C 66.364 126.794,65.818 120.577,65.188 117.568 C 64.701 115.241,64.523 113.079,63.504 97.192 C 63.278 93.667,62.948 90.343,62.770 89.805 C 62.226 88.155,61.682 81.930,61.105 70.748 C 60.776 64.365,60.325 59.080,59.984 57.636 C 59.329 54.852,58.964 50.834,58.174 37.695 C 57.863 32.528,57.454 27.708,57.266 26.984 C 55.755 21.180,55.578 13.181,56.934 11.954 C 57.736 11.228,373.497 10.825,376.072 11.546 C 378.084 12.109,378.225 16.702,376.515 26.037 C 376.217 27.661,375.812 32.481,375.614 36.748 C 375.141 46.976,374.653 52.757,373.978 56.140 C 373.675 57.664,373.253 61.819,373.042 65.374 C 371.981 83.233,371.660 86.628,370.808 89.012 C 370.626 89.520,370.303 93.841,370.088 98.615 C 369.550 110.597,369.069 116.001,368.215 119.628 C 367.668 121.956,367.400 125.039,367.139 132.001 C 366.766 141.984,366.287 147.367,365.462 150.877 C 364.905 153.248,364.343 160.507,363.974 170.083 C 363.747 175.994,363.041 182.390,362.320 185.069 C 362.109 185.852,361.783 190.196,361.596 194.723 C 361.298 201.935,360.414 211.856,359.925 213.481 C 359.450 215.057,358.992 220.061,358.639 227.516 C 358.256 235.598,357.508 243.659,356.787 247.457 C 356.593 248.484,356.259 253.019,356.046 257.534 C 355.687 265.132,355.087 271.433,354.212 276.775 C 354.016 277.967,353.686 281.707,353.477 285.085 C 353.269 288.464,352.933 293.887,352.731 297.138 C 352.529 300.388,352.032 304.955,351.627 307.287 C 351.190 309.800,350.737 314.914,350.516 319.845 C 349.673 338.590,348.889 341.106,343.675 341.792 C 340.686 342.186,338.227 342.817,336.804 343.556 C 336.071 343.936,333.973 344.490,332.140 344.787 C 330.283 345.087,328.010 345.732,327.007 346.244 C 325.896 346.811,324.070 347.300,322.232 347.523 C 320.317 347.755,318.594 348.228,317.397 348.848 C 316.330 349.402,314.138 350.045,312.248 350.358 C 310.438 350.658,308.299 351.259,307.496 351.695 C 306.680 352.137,304.245 352.786,301.978 353.166 C 299.747 353.539,297.661 354.079,297.344 354.366 C 296.418 355.204,294.748 355.709,291.782 356.048 C 289.925 356.261,288.434 356.688,287.257 357.347 C 286.070 358.010,284.335 358.505,281.901 358.873 C 279.740 359.200,277.634 359.768,276.633 360.294 C 275.697 360.786,273.467 361.412,271.552 361.720 C 269.531 362.046,267.614 362.594,266.851 363.066 C 266.092 363.535,264.177 364.084,262.187 364.405 C 260.330 364.704,258.154 365.283,257.352 365.692 C 256.292 366.233,249.485 367.867,248.293 367.867 C 248.241 367.867,248.199 368.199,248.199 368.606 C 248.199 369.342,248.446 369.344,324.100 369.344 L 400.000 369.344 400.000 184.672 L 400.000 0.000 200.000 0.000 L 0.000 0.000 0.000 184.672 M216.166 78.024 L 214.234 79.040 162.334 79.040 C 121.074 79.040,110.429 79.134,110.409 79.501 C 110.199 83.334,110.544 86.308,111.289 87.102 C 112.253 88.130,112.472 90.270,112.976 103.601 C 113.160 108.476,113.329 112.487,113.350 112.513 C 114.225 113.586,118.175 113.682,165.651 113.781 C 209.610 113.873,213.501 113.980,214.646 115.127 C 215.810 116.292,215.164 117.540,212.964 118.381 C 212.041 118.733,211.192 119.315,211.078 119.674 C 210.848 120.401,209.580 120.990,207.451 121.361 C 206.674 121.496,205.671 122.003,205.222 122.487 C 204.649 123.105,203.583 123.539,201.649 123.941 C 199.754 124.335,198.590 124.802,197.926 125.436 C 197.333 126.003,196.052 126.570,194.602 126.908 C 192.951 127.293,192.023 127.736,191.505 128.385 C 190.921 129.117,190.218 129.396,188.152 129.716 C 186.097 130.034,185.465 130.284,185.197 130.883 C 184.880 131.592,183.412 132.185,180.517 132.772 C 179.958 132.885,179.501 133.220,179.501 133.517 C 179.501 134.385,178.000 135.078,175.629 135.304 C 174.414 135.419,173.363 135.682,173.295 135.887 C 173.055 136.607,170.799 137.667,168.513 138.134 C 167.077 138.427,166.205 138.790,166.205 139.096 C 166.205 139.704,165.437 140.101,163.066 140.717 C 162.050 140.981,160.714 141.670,160.097 142.248 C 159.331 142.965,158.276 143.438,156.773 143.738 C 155.220 144.048,154.292 144.474,153.624 145.183 C 152.895 145.959,152.183 146.252,150.522 146.459 C 148.895 146.663,148.102 146.981,147.289 147.758 C 146.488 148.524,145.558 148.904,143.657 149.244 C 141.749 149.585,141.048 149.873,140.886 150.382 C 140.598 151.290,139.797 151.677,137.581 151.980 C 134.884 152.348,134.541 152.487,134.330 153.295 C 134.100 154.174,131.987 155.125,130.263 155.125 C 129.465 155.125,128.763 155.404,128.313 155.901 C 127.265 157.059,125.869 157.669,123.670 157.930 C 121.925 158.137,121.636 158.296,121.145 159.322 C 120.822 159.996,120.258 160.528,119.795 160.594 C 118.313 160.805,118.147 171.812,119.594 173.871 C 120.556 175.239,120.766 177.363,121.011 188.181 C 121.125 193.259,121.300 197.498,121.398 197.599 C 121.496 197.701,142.462 197.848,167.990 197.926 C 242.421 198.155,269.779 198.441,270.449 198.997 C 271.262 199.672,271.428 201.619,271.072 206.279 C 269.516 226.595,268.877 238.146,268.880 245.861 C 268.882 248.536,268.781 250.988,268.658 251.311 C 268.346 252.123,262.780 254.768,260.757 255.065 C 259.843 255.199,258.015 255.771,256.694 256.337 C 255.374 256.903,252.839 257.635,251.060 257.965 C 249.106 258.328,247.328 258.904,246.567 259.421 C 245.743 259.979,244.495 260.359,242.967 260.515 C 241.366 260.679,239.861 261.154,238.198 262.021 C 236.590 262.859,234.873 263.411,233.120 263.654 C 231.663 263.855,229.918 264.363,229.242 264.781 C 227.984 265.558,219.808 267.405,217.625 267.405 C 216.958 267.405,215.847 267.641,215.157 267.930 C 213.995 268.415,213.865 268.400,213.411 267.717 C 212.973 267.057,212.511 266.979,209.046 266.980 C 204.991 266.981,200.866 266.050,200.279 265.001 C 200.081 264.648,198.374 264.379,194.459 264.083 C 186.293 263.465,185.900 263.396,184.681 262.370 C 183.661 261.512,183.214 261.427,178.678 261.231 C 174.763 261.062,173.404 260.857,171.927 260.210 C 170.910 259.764,168.969 259.031,167.615 258.580 C 163.958 257.363,164.190 258.278,164.058 244.542 C 163.944 232.805,163.920 232.456,163.075 230.656 C 162.599 229.640,162.089 228.144,161.943 227.331 C 161.796 226.519,161.517 225.653,161.323 225.408 C 160.949 224.936,128.727 224.714,125.912 225.164 C 124.333 225.416,124.321 225.639,125.625 230.286 C 126.174 232.243,126.433 234.848,126.687 240.997 C 127.219 253.854,127.433 256.262,128.410 260.388 C 129.143 263.482,129.356 265.498,129.465 270.360 C 129.814 285.967,130.050 286.981,133.340 286.981 C 136.872 286.981,141.632 288.328,142.567 289.592 C 142.669 289.729,144.746 289.964,147.184 290.114 C 151.525 290.380,153.353 290.878,154.201 292.026 C 154.437 292.344,156.009 292.661,158.535 292.899 C 162.778 293.300,164.112 293.659,165.282 294.714 C 165.853 295.230,166.923 295.437,169.999 295.625 C 174.358 295.893,175.385 296.161,176.565 297.340 C 177.211 297.986,178.051 298.188,181.288 298.475 C 187.026 298.983,187.617 299.120,188.585 300.165 C 189.408 301.052,189.752 301.127,194.077 301.357 C 198.360 301.584,198.766 301.670,199.715 302.556 C 200.735 303.508,204.466 304.340,207.716 304.340 C 208.462 304.340,209.570 304.768,210.563 305.441 C 211.548 306.109,212.672 306.545,213.416 306.549 C 214.091 306.553,215.919 306.985,217.479 307.508 C 219.278 308.113,220.786 308.397,221.607 308.286 C 228.809 307.309,231.015 306.864,232.773 306.032 C 233.861 305.518,235.864 304.939,237.225 304.747 C 238.586 304.554,240.644 303.964,241.799 303.435 C 243.021 302.876,245.452 302.241,247.618 301.917 C 249.665 301.610,251.935 301.050,252.664 300.671 C 253.392 300.292,255.654 299.643,257.690 299.227 C 259.726 298.812,262.039 298.145,262.829 297.744 C 263.619 297.343,265.982 296.751,268.079 296.428 C 270.311 296.085,272.712 295.453,273.872 294.904 C 274.961 294.389,277.319 293.748,279.110 293.480 C 281.038 293.192,283.133 292.606,284.241 292.045 C 285.375 291.470,287.337 290.929,289.217 290.671 C 290.924 290.438,293.155 289.855,294.175 289.378 C 295.195 288.900,297.276 288.339,298.800 288.130 C 302.011 287.692,303.607 287.166,306.925 285.451 L 309.326 284.211 309.565 281.994 C 309.696 280.776,309.909 276.953,310.038 273.500 C 310.168 270.046,310.351 266.473,310.446 265.559 C 310.540 264.645,310.791 261.117,311.003 257.720 C 311.215 254.323,311.635 250.168,311.936 248.486 C 312.237 246.805,312.723 240.028,313.017 233.426 C 313.629 219.652,313.749 218.063,314.688 211.265 C 315.066 208.523,315.477 203.703,315.599 200.554 C 316.073 188.390,316.574 181.090,317.056 179.317 C 317.949 176.032,318.521 162.879,317.803 162.161 C 317.568 161.926,302.992 161.786,276.817 161.766 C 232.597 161.733,231.425 161.695,234.282 160.393 C 234.753 160.178,235.921 159.326,236.876 158.499 C 237.846 157.660,239.304 156.818,240.175 156.595 C 242.393 156.027,244.495 155.181,245.593 154.414 C 246.112 154.052,247.026 153.637,247.623 153.492 C 248.220 153.347,249.141 152.921,249.669 152.545 C 250.198 152.168,251.704 151.503,253.016 151.066 C 254.328 150.629,255.983 149.889,256.694 149.422 C 257.405 148.956,258.818 148.358,259.834 148.094 C 260.849 147.831,262.345 147.147,263.158 146.574 C 263.970 146.001,265.436 145.383,266.414 145.201 C 267.393 145.018,268.496 144.544,268.866 144.147 C 269.236 143.750,270.513 143.050,271.704 142.591 C 272.895 142.133,274.702 141.358,275.721 140.870 C 276.740 140.381,277.785 139.982,278.044 139.982 C 278.629 139.982,281.426 138.592,282.193 137.921 C 282.505 137.648,283.788 137.185,285.044 136.891 C 286.301 136.598,287.775 136.007,288.321 135.578 C 288.867 135.149,290.203 134.539,291.291 134.223 C 292.378 133.906,293.723 133.281,294.279 132.832 C 294.836 132.383,296.537 131.629,298.061 131.157 C 299.584 130.684,301.174 129.984,301.593 129.600 C 302.012 129.216,303.258 128.639,304.363 128.318 C 305.467 127.996,306.953 127.343,307.664 126.866 C 308.375 126.390,309.898 125.758,311.049 125.462 C 312.201 125.166,313.523 124.570,313.988 124.136 C 314.454 123.703,315.505 123.168,316.326 122.947 C 320.871 121.723,322.348 119.664,322.622 114.169 C 322.679 113.029,322.994 109.686,323.323 106.741 C 324.227 98.631,324.543 80.723,323.812 78.984 C 323.010 77.078,326.297 77.192,269.621 77.096 L 218.098 77.008 216.166 78.024 " stroke="none" fill="#f6f7f7" fill-rule="evenodd"></path><path id="path2" d="M72.761 13.689 C 71.927 13.849,72.834 13.955,75.315 13.986 C 77.432 14.013,79.088 13.960,78.997 13.869 C 78.696 13.569,74.079 13.435,72.761 13.689 M83.657 13.690 C 82.031 13.805,138.943 13.930,210.126 13.967 C 281.310 14.005,339.469 13.954,339.370 13.855 C 339.114 13.599,87.236 13.437,83.657 13.690 M359.372 13.687 C 361.450 13.968,369.222 14.143,368.944 13.901 C 368.860 13.828,366.214 13.688,363.066 13.590 C 359.834 13.489,358.225 13.531,359.372 13.687 M63.814 13.937 C 64.683 14.015,66.012 14.014,66.769 13.934 C 67.525 13.855,66.814 13.791,65.189 13.792 C 63.564 13.794,62.945 13.859,63.814 13.937 M341.551 13.933 C 342.211 14.015,343.292 14.015,343.952 13.933 C 344.612 13.851,344.072 13.784,342.752 13.784 C 341.431 13.784,340.891 13.851,341.551 13.933 M347.091 13.933 C 347.752 14.015,348.832 14.015,349.492 13.933 C 350.152 13.851,349.612 13.784,348.292 13.784 C 346.971 13.784,346.431 13.851,347.091 13.933 M374.283 32.872 C 374.283 35.005,374.344 35.877,374.418 34.811 C 374.493 33.744,374.493 31.999,374.418 30.933 C 374.344 29.866,374.283 30.739,374.283 32.872 M217.729 39.889 C 216.702 40.402,216.625 40.579,216.686 42.290 C 216.722 43.306,216.758 50.386,216.766 58.024 C 216.776 66.969,216.922 72.281,217.177 72.952 C 217.478 73.745,217.459 74.072,217.096 74.326 C 216.801 74.533,217.110 74.562,217.913 74.401 C 218.624 74.259,239.815 74.027,265.005 73.886 C 307.060 73.651,310.969 73.578,312.835 72.988 C 317.802 71.416,324.827 73.779,325.596 77.280 C 325.729 77.886,326.236 79.281,326.721 80.379 C 328.156 83.623,328.237 86.670,327.005 91.043 C 325.981 94.680,325.964 94.905,325.896 105.633 C 325.793 121.771,325.551 123.158,322.527 124.945 C 321.767 125.393,321.062 125.766,320.960 125.772 C 320.753 125.785,315.838 127.642,314.127 128.353 C 312.443 129.054,310.611 129.562,308.772 129.838 C 307.858 129.975,306.777 130.381,306.371 130.740 C 305.965 131.099,304.552 131.867,303.232 132.445 C 301.911 133.024,300.626 133.695,300.376 133.936 C 300.126 134.178,299.129 134.649,298.160 134.984 C 297.191 135.318,295.235 136.145,293.813 136.822 C 292.392 137.498,290.688 138.228,290.029 138.443 C 289.369 138.658,288.242 139.283,287.524 139.830 C 286.805 140.378,285.185 141.204,283.922 141.667 C 282.658 142.129,280.711 142.838,279.594 143.242 C 278.476 143.647,276.565 144.185,275.346 144.438 C 274.127 144.691,272.632 145.185,272.022 145.535 C 271.413 145.884,270.249 146.364,269.437 146.601 C 268.624 146.838,267.295 147.338,266.482 147.712 C 265.669 148.087,264.340 148.593,263.527 148.838 C 262.715 149.082,261.219 149.832,260.203 150.504 C 259.187 151.177,257.775 151.849,257.064 151.998 C 256.353 152.147,255.042 152.912,254.150 153.697 C 253.258 154.482,252.219 155.125,251.841 155.125 C 251.462 155.125,251.154 155.386,251.154 155.707 C 251.154 156.027,250.688 156.756,250.117 157.327 L 249.080 158.364 277.541 158.620 C 293.194 158.761,306.916 158.899,308.033 158.927 C 311.979 159.025,313.372 158.594,313.909 157.110 C 314.570 155.283,318.006 155.787,318.006 157.710 C 318.006 158.067,318.252 158.563,318.553 158.813 C 319.632 159.708,320.729 167.342,320.676 173.592 C 320.597 182.994,319.676 197.572,318.751 204.063 C 318.577 205.282,318.260 207.525,318.047 209.049 C 317.833 210.572,317.486 214.063,317.275 216.805 C 317.065 219.548,316.724 222.789,316.517 224.007 C 315.460 230.240,315.024 236.389,314.683 249.861 C 314.478 257.987,314.134 266.796,313.919 269.437 C 313.705 272.078,313.551 275.651,313.576 277.378 C 313.678 284.142,313.766 283.697,312.017 285.215 C 311.146 285.971,310.259 286.594,310.044 286.600 C 309.830 286.606,309.082 287.035,308.382 287.554 C 304.596 290.358,301.324 291.508,294.899 292.292 C 289.863 292.907,282.598 294.857,280.785 296.080 C 280.119 296.529,278.042 297.256,276.168 297.695 C 274.294 298.135,272.595 298.625,272.392 298.784 C 271.873 299.191,265.047 300.646,263.659 300.646 C 263.255 300.646,262.395 301.039,261.748 301.518 C 260.316 302.580,258.390 303.073,255.217 303.189 C 252.063 303.304,247.987 303.879,247.180 304.322 C 245.952 304.997,243.099 306.112,241.959 306.363 C 241.329 306.501,240.813 306.742,240.813 306.898 C 240.813 307.897,235.125 309.111,230.286 309.145 C 228.864 309.155,226.537 309.486,225.115 309.880 C 221.988 310.747,219.641 310.805,217.544 310.065 C 215.472 309.334,215.506 309.310,216.424 310.866 C 217.217 312.209,217.343 338.173,216.577 342.290 C 215.778 346.586,217.750 347.835,223.453 346.645 C 225.586 346.200,227.885 345.546,228.561 345.193 C 229.237 344.839,231.660 344.235,233.946 343.850 C 236.504 343.419,238.801 342.791,239.919 342.217 C 240.918 341.703,242.899 341.121,244.321 340.923 C 245.743 340.724,247.904 340.158,249.123 339.664 C 250.342 339.171,252.585 338.575,254.108 338.341 C 255.631 338.107,257.392 337.612,258.021 337.241 C 258.649 336.870,261.060 336.191,263.377 335.733 C 265.694 335.274,268.033 334.587,268.575 334.205 C 269.116 333.824,270.997 333.261,272.754 332.955 C 274.511 332.648,276.775 331.979,277.784 331.468 C 278.843 330.931,280.980 330.334,282.838 330.055 C 284.754 329.767,286.805 329.186,287.904 328.620 C 289.000 328.056,290.727 327.566,292.151 327.416 C 293.472 327.276,295.799 326.695,297.322 326.125 C 298.846 325.555,301.565 324.818,303.364 324.489 C 305.164 324.159,307.241 323.583,307.981 323.209 C 308.721 322.835,310.572 322.249,312.096 321.907 C 313.620 321.565,315.416 320.963,316.088 320.569 C 316.838 320.128,317.993 319.852,319.084 319.852 C 321.516 319.852,322.807 318.612,322.807 316.275 C 322.807 315.378,323.046 314.183,323.338 313.618 C 323.701 312.916,323.999 310.152,324.281 304.865 C 324.508 300.615,324.862 295.642,325.068 293.813 C 325.274 291.985,325.602 289.077,325.798 287.350 C 327.037 276.399,327.299 273.347,327.623 266.080 C 327.847 261.073,328.199 257.212,328.546 255.956 C 329.124 253.863,330.153 241.800,330.200 236.565 C 330.214 234.940,330.386 232.862,330.581 231.948 C 331.644 226.967,332.198 221.100,332.778 208.680 C 333.126 201.236,333.618 196.150,334.421 191.690 C 334.733 189.963,335.158 184.811,335.367 180.240 C 335.576 175.669,336.070 169.437,336.463 166.390 C 337.366 159.400,337.818 154.692,338.327 146.999 C 338.722 141.018,339.139 136.628,339.765 131.856 C 339.939 130.536,340.275 126.796,340.512 123.546 C 341.322 112.476,342.062 104.444,342.567 101.250 C 343.075 98.039,343.651 90.746,344.043 82.548 C 344.336 76.411,344.928 70.170,345.549 66.667 C 346.063 63.766,347.021 52.529,347.437 44.499 C 347.616 41.063,347.558 40.353,347.065 39.944 C 346.125 39.164,219.286 39.110,217.729 39.889 M373.044 45.786 C 372.812 46.221,372.696 46.858,372.787 47.203 C 372.917 47.695,372.961 47.668,372.995 47.073 C 373.019 46.657,373.235 46.119,373.475 45.879 C 373.715 45.638,373.812 45.342,373.690 45.219 C 373.567 45.097,373.277 45.352,373.044 45.786 M109.880 75.614 C 108.729 75.896,108.218 76.464,108.218 77.461 L 108.218 78.378 109.503 77.249 C 110.218 76.621,111.405 76.021,112.180 75.894 C 114.657 75.489,114.715 75.432,112.650 75.432 C 111.533 75.432,110.286 75.514,109.880 75.614 M130.102 75.615 C 130.863 75.695,132.110 75.695,132.872 75.615 C 133.633 75.536,133.010 75.470,131.487 75.470 C 129.963 75.470,129.340 75.536,130.102 75.615 M63.343 78.116 C 63.443 78.726,63.762 81.525,64.052 84.336 C 64.341 87.147,64.674 89.543,64.791 89.661 C 65.371 90.240,64.391 80.203,63.691 78.386 C 63.223 77.172,63.182 77.140,63.343 78.116 M108.813 92.336 C 109.123 96.635,109.753 102.119,109.959 102.308 C 110.335 102.654,109.654 93.984,109.146 91.956 L 108.640 89.935 108.813 92.336 M367.359 108.048 C 367.232 108.378,367.143 108.925,367.160 109.264 C 367.178 109.603,367.338 109.390,367.517 108.790 C 367.865 107.625,367.742 107.048,367.359 108.048 M366.657 111.686 C 366.510 112.679,366.411 114.258,366.438 115.195 C 366.477 116.589,366.545 116.396,366.813 114.127 C 367.188 110.959,367.060 108.957,366.657 111.686 M366.139 119.298 C 366.139 120.619,366.206 121.159,366.287 120.499 C 366.369 119.838,366.369 118.758,366.287 118.098 C 366.206 117.438,366.139 117.978,366.139 119.298 M67.696 125.762 C 67.698 126.777,67.770 127.149,67.855 126.588 C 67.940 126.026,67.938 125.195,67.850 124.741 C 67.762 124.287,67.693 124.746,67.696 125.762 M175.945 132.019 C 174.840 132.499,173.957 133.346,174.586 133.322 C 174.750 133.315,175.549 132.901,176.362 132.400 C 177.974 131.408,177.772 131.223,175.945 132.019 M68.924 141.644 C 69.048 142.456,69.373 144.534,69.645 146.260 L 70.139 149.400 70.018 146.076 C 69.943 144.020,69.669 142.258,69.297 141.459 L 68.698 140.166 68.924 141.644 M151.519 142.580 C 150.067 143.163,147.763 144.894,148.846 144.587 C 149.354 144.444,150.032 144.097,150.352 143.816 C 150.673 143.535,151.088 143.300,151.276 143.294 C 151.463 143.287,151.939 143.038,152.333 142.740 C 153.131 142.137,152.790 142.070,151.519 142.580 M361.571 171.974 C 361.121 173.158,360.481 179.013,360.526 181.533 C 360.548 182.748,360.732 181.927,361.063 179.132 C 361.340 176.796,361.713 174.012,361.891 172.946 C 362.247 170.816,362.138 170.485,361.571 171.974 M216.999 202.178 C 217.381 202.762,217.421 203.322,217.160 204.432 C 216.864 205.691,216.547 243.650,216.773 250.785 C 216.964 256.820,216.939 259.214,216.669 260.757 C 216.133 263.819,216.613 264.032,221.845 263.054 C 224.253 262.604,227.138 262.134,228.255 262.009 C 229.456 261.875,230.815 261.429,231.579 260.918 C 234.273 259.115,238.764 257.785,245.292 256.856 C 248.895 256.344,249.767 256.080,251.426 254.999 C 252.489 254.307,253.534 253.740,253.749 253.740 C 253.963 253.740,254.818 253.393,255.650 252.969 C 257.829 251.857,260.227 251.189,262.992 250.924 C 267.024 250.538,267.126 250.097,267.150 233.056 C 267.153 230.923,267.101 228.181,267.034 226.962 C 266.968 225.743,267.007 220.393,267.122 215.072 L 267.329 205.398 266.253 203.934 L 265.177 202.471 242.376 202.289 C 229.836 202.189,218.881 201.949,218.033 201.755 C 216.520 201.409,216.500 201.417,216.999 202.178 M75.454 209.972 C 75.448 211.191,75.560 213.435,75.704 214.958 L 75.966 217.729 75.977 215.512 C 75.983 214.294,75.871 212.050,75.727 210.526 L 75.466 207.756 75.454 209.972 M123.234 224.129 C 122.860 224.541,122.640 225.368,122.669 226.253 L 122.715 227.701 122.971 226.129 C 123.115 225.245,123.539 224.320,123.940 224.017 C 124.333 223.720,124.472 223.472,124.249 223.465 C 124.027 223.459,123.570 223.757,123.234 224.129 M163.250 223.715 C 163.555 223.827,164.095 224.172,164.451 224.482 C 164.806 224.792,165.097 224.913,165.097 224.752 C 165.097 224.306,163.876 223.475,163.250 223.494 C 162.758 223.510,162.758 223.534,163.250 223.715 M355.046 241.367 C 355.048 242.382,355.120 242.754,355.205 242.193 C 355.290 241.631,355.288 240.800,355.200 240.346 C 355.112 239.892,355.043 240.351,355.046 241.367 M79.615 266.113 C 79.733 267.128,79.994 268.541,80.196 269.252 C 80.399 269.963,80.796 272.373,81.080 274.608 L 81.597 278.670 81.441 273.829 C 81.309 269.735,81.139 268.623,80.344 266.627 L 79.402 264.266 79.615 266.113 M128.222 285.723 C 128.177 286.872,128.359 287.404,128.979 287.939 L 129.796 288.643 129.191 287.682 C 128.859 287.154,128.518 286.156,128.434 285.466 C 128.288 284.267,128.278 284.278,128.222 285.723 M350.128 299.446 C 349.901 300.208,349.649 303.241,349.570 306.187 C 349.414 311.991,349.878 311.249,350.263 305.078 C 350.384 303.149,350.594 300.780,350.730 299.815 C 351.026 297.716,350.705 297.518,350.128 299.446 M126.500 350.354 C 127.719 350.869,128.966 351.391,129.271 351.513 C 129.575 351.636,129.286 351.211,128.628 350.568 C 127.658 349.622,127.131 349.401,125.857 349.409 L 124.284 349.417 126.500 350.354 M305.241 349.939 C 304.596 350.424,304.673 350.439,306.002 350.085 C 307.814 349.603,308.072 349.400,306.873 349.400 C 306.370 349.400,305.636 349.642,305.241 349.939 M266.083 360.877 C 265.457 361.059,264.641 361.543,264.271 361.952 C 263.381 362.935,263.581 362.897,266.153 361.593 C 268.307 360.500,268.282 360.239,266.083 360.877 M184.771 366.957 C 185.577 367.505,186.150 368.195,186.150 368.619 C 186.150 369.243,186.407 369.344,187.996 369.344 C 191.089 369.344,190.273 367.201,186.883 366.420 C 183.800 365.710,183.171 365.870,184.771 366.957 M245.983 366.282 C 244.222 366.930,243.348 369.344,244.875 369.344 C 245.359 369.344,245.614 369.098,245.614 368.632 C 245.614 368.241,246.154 367.495,246.814 366.975 C 248.009 366.033,247.596 365.689,245.983 366.282 " stroke="none" fill="#50a3dc" fill-rule="evenodd"></path><path id="path3" d="M58.910 11.353 C 56.983 11.550,56.227 12.284,55.933 14.239 C 55.698 15.811,56.598 24.417,57.266 26.984 C 57.454 27.708,57.863 32.528,58.174 37.695 C 58.964 50.834,59.329 54.852,59.984 57.636 C 60.325 59.080,60.776 64.365,61.105 70.748 C 61.682 81.930,62.226 88.155,62.770 89.805 C 62.948 90.343,63.278 93.667,63.504 97.192 C 64.523 113.079,64.701 115.241,65.188 117.568 C 65.818 120.577,66.364 126.794,66.670 134.441 C 66.925 140.820,67.753 149.634,68.294 151.727 C 68.488 152.478,68.826 155.919,69.047 159.372 C 70.000 174.319,70.297 177.665,70.968 180.979 C 71.462 183.421,71.780 187.239,72.013 193.536 C 72.406 204.181,72.949 210.598,73.717 213.666 C 74.454 216.611,74.891 221.443,75.169 229.732 C 75.397 236.514,76.176 244.096,76.819 245.786 C 77.003 246.271,77.331 249.879,77.547 253.805 C 78.456 270.299,78.748 274.082,79.425 278.116 C 79.817 280.452,80.394 286.602,80.706 291.782 C 81.018 296.962,81.524 302.696,81.829 304.524 C 82.431 308.125,83.176 316.966,83.834 328.321 C 84.504 339.866,85.167 341.051,91.590 342.176 C 93.117 342.444,94.953 343.010,95.669 343.433 C 96.454 343.898,98.456 344.426,100.720 344.766 C 102.966 345.104,104.989 345.636,105.765 346.094 C 106.480 346.516,108.829 347.171,111.006 347.556 C 113.176 347.940,115.223 348.491,115.555 348.780 C 116.362 349.483,118.200 350.032,121.330 350.504 C 122.752 350.719,124.663 351.291,125.577 351.776 C 126.491 352.261,128.236 352.762,129.455 352.891 C 133.352 353.301,133.955 353.460,134.993 354.353 C 136.010 355.226,138.393 355.849,142.018 356.188 C 143.036 356.284,144.714 356.800,145.747 357.336 C 146.956 357.963,148.926 358.507,151.282 358.864 C 153.438 359.191,155.622 359.771,156.602 360.279 C 157.516 360.753,159.511 361.342,161.034 361.588 C 162.558 361.834,164.885 362.497,166.205 363.060 C 167.525 363.624,169.872 364.267,171.419 364.489 C 172.966 364.711,175.043 365.300,176.035 365.796 C 177.393 366.476,182.849 367.867,184.159 367.867 C 184.238 367.867,184.303 368.199,184.303 368.606 C 184.303 369.147,184.549 369.344,185.226 369.344 C 187.963 369.344,184.858 366.301,181.668 365.857 C 180.698 365.722,179.678 365.311,179.315 364.910 C 178.464 363.970,177.065 363.568,172.853 363.053 C 170.418 362.755,169.118 362.417,168.606 361.946 C 167.557 360.984,166.389 360.615,163.435 360.315 C 161.577 360.127,160.461 359.788,159.471 359.113 C 158.383 358.371,157.213 358.059,153.931 357.636 C 151.642 357.341,149.520 356.886,149.215 356.626 C 148.381 355.914,146.411 355.318,143.058 354.765 C 141.229 354.463,139.629 353.963,138.995 353.496 C 138.239 352.938,136.776 352.568,133.703 352.156 C 131.075 351.804,128.658 351.238,127.365 350.672 C 126.215 350.169,123.843 349.492,122.092 349.167 C 119.776 348.738,118.810 348.391,118.544 347.893 C 118.094 347.052,116.315 346.559,112.522 346.224 C 110.248 346.023,109.398 345.778,108.580 345.090 C 107.755 344.395,106.665 344.087,103.353 343.613 C 100.221 343.164,99.011 342.836,98.539 342.307 C 97.734 341.406,96.429 341.040,92.827 340.704 C 88.641 340.313,87.362 339.023,86.971 334.801 C 86.821 333.181,86.461 331.025,86.170 330.009 C 85.172 326.525,84.944 324.079,84.584 313.019 C 84.237 302.360,83.739 297.980,82.734 296.770 C 82.545 296.541,82.220 292.625,82.013 288.066 C 81.626 279.537,80.783 270.992,80.142 269.105 C 79.556 267.379,79.100 260.546,78.857 249.861 C 78.623 239.574,78.313 236.155,77.382 233.610 C 77.053 232.710,76.624 228.815,76.283 223.638 C 75.976 218.966,75.559 212.701,75.356 209.717 C 75.154 206.733,74.733 203.575,74.421 202.699 C 74.005 201.531,73.758 198.360,73.493 190.766 C 73.059 178.364,72.566 172.505,71.803 170.692 C 71.408 169.752,71.124 167.001,70.863 161.588 C 70.658 157.322,70.156 151.256,69.748 148.107 C 68.267 136.677,67.985 133.333,67.621 122.807 C 67.314 113.919,67.124 111.656,66.503 109.511 C 65.805 107.096,65.247 101.339,64.875 92.705 C 64.715 89.012,63.686 79.941,63.157 77.562 C 62.953 76.648,62.625 71.247,62.427 65.559 C 61.962 52.203,61.451 46.712,60.534 45.202 C 59.738 43.891,59.118 34.917,59.082 24.192 C 59.069 20.276,58.898 17.821,58.575 16.915 C 57.622 14.246,58.591 13.871,66.789 13.740 C 80.187 13.525,369.558 13.642,371.567 13.863 C 375.078 14.250,375.445 14.779,374.939 18.720 C 374.706 20.538,374.515 24.785,374.515 28.158 C 374.515 34.969,373.880 45.401,373.430 45.979 C 372.576 47.078,372.038 52.027,371.375 64.893 C 370.954 73.068,370.634 76.464,370.084 78.601 C 369.288 81.691,368.611 90.432,368.604 97.692 C 368.602 100.129,368.345 103.703,368.032 105.633 C 367.022 111.860,366.433 117.696,366.042 125.320 C 365.508 135.744,365.268 138.165,364.653 139.371 C 364.040 140.574,363.641 145.550,363.075 159.023 C 362.862 164.112,362.452 169.614,362.164 171.250 C 361.319 176.059,360.512 185.383,360.199 193.953 C 360.022 198.803,359.746 202.140,359.498 202.448 C 358.407 203.800,357.844 208.623,357.498 219.565 C 357.305 225.665,356.981 231.404,356.777 232.318 C 355.402 238.478,355.026 242.268,354.589 254.368 C 354.311 262.045,354.115 264.284,353.642 265.199 C 352.752 266.920,352.388 269.820,352.160 277.001 C 351.884 285.715,351.278 295.832,350.847 298.952 C 350.653 300.356,350.406 302.932,350.300 304.676 C 350.194 306.421,349.873 309.344,349.588 311.173 C 349.303 313.001,348.991 317.073,348.893 320.222 C 348.749 324.882,348.566 326.358,347.909 328.163 C 347.409 329.534,347.040 331.574,346.940 333.518 C 346.670 338.789,345.312 340.149,339.605 340.862 C 336.219 341.285,335.472 341.505,334.441 342.382 C 333.990 342.766,332.411 343.186,330.379 343.463 C 326.259 344.024,324.926 344.424,324.087 345.351 C 323.691 345.788,322.954 346.076,322.228 346.076 C 319.984 346.076,315.306 347.163,314.527 347.865 C 313.507 348.785,311.595 349.399,309.733 349.404 C 307.930 349.409,304.814 350.298,303.992 351.043 C 303.669 351.335,301.912 351.758,300.087 351.983 C 295.696 352.525,295.066 352.690,294.123 353.545 C 293.586 354.032,292.260 354.429,290.061 354.760 C 286.424 355.308,285.731 355.518,284.395 356.475 C 283.795 356.905,281.993 357.327,279.247 357.682 C 276.263 358.068,274.732 358.443,274.033 358.959 C 273.490 359.361,271.844 359.939,270.377 360.242 C 268.910 360.546,266.851 361.224,265.803 361.748 C 264.134 362.582,259.550 363.393,256.296 363.429 C 255.975 363.432,254.968 363.928,254.057 364.532 C 252.907 365.293,251.732 365.703,250.208 365.872 C 246.532 366.281,243.619 369.344,246.907 369.344 C 247.953 369.344,248.199 369.204,248.199 368.606 C 248.199 368.199,248.241 367.867,248.293 367.867 C 249.485 367.867,256.292 366.233,257.352 365.692 C 258.154 365.283,260.330 364.704,262.187 364.405 C 264.177 364.084,266.092 363.535,266.851 363.066 C 267.614 362.594,269.531 362.046,271.552 361.720 C 273.467 361.412,275.697 360.786,276.633 360.294 C 277.634 359.768,279.740 359.200,281.901 358.873 C 284.335 358.505,286.070 358.010,287.257 357.347 C 288.434 356.688,289.925 356.261,291.782 356.048 C 294.748 355.709,296.418 355.204,297.344 354.366 C 297.661 354.079,299.747 353.539,301.978 353.166 C 304.245 352.786,306.680 352.137,307.496 351.695 C 308.299 351.259,310.438 350.658,312.248 350.358 C 314.138 350.045,316.330 349.402,317.397 348.848 C 318.594 348.228,320.317 347.755,322.232 347.523 C 324.070 347.300,325.896 346.811,327.007 346.244 C 328.010 345.732,330.283 345.087,332.140 344.787 C 333.973 344.490,336.071 343.936,336.804 343.556 C 338.227 342.817,340.686 342.186,343.675 341.792 C 348.889 341.106,349.673 338.590,350.516 319.845 C 350.737 314.914,351.190 309.800,351.627 307.287 C 352.032 304.955,352.529 300.388,352.731 297.138 C 352.933 293.887,353.269 288.464,353.477 285.085 C 353.686 281.707,354.016 277.967,354.212 276.775 C 355.087 271.433,355.687 265.132,356.046 257.534 C 356.259 253.019,356.593 248.484,356.787 247.457 C 357.508 243.659,358.256 235.598,358.639 227.516 C 358.992 220.061,359.450 215.057,359.925 213.481 C 360.414 211.856,361.298 201.935,361.596 194.723 C 361.783 190.196,362.109 185.852,362.320 185.069 C 363.041 182.390,363.747 175.994,363.974 170.083 C 364.343 160.507,364.905 153.248,365.462 150.877 C 366.287 147.367,366.766 141.984,367.139 132.001 C 367.400 125.039,367.668 121.956,368.215 119.628 C 369.069 116.001,369.550 110.597,370.088 98.615 C 370.303 93.841,370.626 89.520,370.808 89.012 C 371.660 86.628,371.981 83.233,373.042 65.374 C 373.253 61.819,373.675 57.664,373.978 56.140 C 374.653 52.757,375.141 46.976,375.614 36.748 C 375.812 32.481,376.217 27.661,376.515 26.037 C 378.080 17.493,378.057 12.368,376.450 11.580 C 375.827 11.274,61.870 11.050,58.910 11.353 M311.727 73.131 C 309.053 73.832,307.487 73.857,266.667 73.872 C 226.508 73.887,219.732 74.033,215.143 74.983 C 213.935 75.234,195.855 75.397,162.881 75.454 C 108.672 75.550,111.352 75.450,109.243 77.461 L 108.237 78.421 108.430 83.624 C 108.536 86.486,108.870 90.157,109.172 91.782 C 109.474 93.407,109.873 96.814,110.059 99.354 C 110.363 103.497,110.626 105.978,111.470 112.646 C 111.868 115.786,109.215 115.555,147.394 115.783 C 184.161 116.003,192.944 116.174,195.199 116.712 C 196.011 116.906,198.255 117.069,200.185 117.074 C 205.900 117.089,208.218 118.714,204.110 119.826 C 202.804 120.179,201.405 120.775,201.003 121.150 C 200.600 121.525,199.545 122.020,198.658 122.249 C 197.771 122.479,196.769 122.746,196.431 122.844 C 196.094 122.941,195.215 123.499,194.480 124.084 C 193.744 124.669,192.441 125.263,191.585 125.405 C 189.806 125.700,188.957 126.087,187.572 127.239 C 187.034 127.686,185.584 128.250,184.350 128.493 C 182.913 128.776,181.925 129.193,181.603 129.651 C 181.327 130.046,180.373 130.625,179.482 130.939 C 178.592 131.253,177.193 131.894,176.374 132.363 C 175.555 132.832,173.804 133.511,172.484 133.872 C 171.163 134.233,169.666 134.824,169.156 135.185 C 168.646 135.547,167.200 136.181,165.941 136.594 C 164.683 137.007,162.940 137.758,162.067 138.264 C 161.194 138.769,159.781 139.367,158.927 139.592 C 158.073 139.817,156.910 140.391,156.342 140.867 C 155.774 141.343,154.811 141.847,154.201 141.987 C 153.592 142.126,152.428 142.645,151.616 143.139 C 149.555 144.391,148.567 144.784,146.478 145.181 C 145.480 145.370,144.102 145.954,143.415 146.477 C 142.729 147.001,141.075 147.742,139.740 148.123 C 138.406 148.505,137.125 149.073,136.893 149.386 C 136.662 149.698,135.392 150.257,134.072 150.628 C 132.752 150.998,131.044 151.733,130.277 152.261 C 129.510 152.789,128.068 153.395,127.074 153.609 C 126.079 153.822,124.501 154.481,123.566 155.074 C 122.632 155.666,121.142 156.260,120.256 156.393 C 117.459 156.812,116.033 160.138,116.706 164.674 C 116.876 165.821,117.118 171.413,117.244 177.101 C 117.566 191.678,118.036 197.167,119.058 198.281 C 120.826 200.208,118.425 200.115,167.988 200.167 C 213.248 200.215,214.287 200.232,215.652 200.943 C 217.833 202.080,224.111 202.383,245.674 202.392 L 265.125 202.401 266.227 203.899 L 267.329 205.398 267.122 215.072 C 267.007 220.393,266.968 225.743,267.034 226.962 C 267.101 228.181,267.153 230.923,267.150 233.056 C 267.126 250.097,267.024 250.538,262.992 250.924 C 260.227 251.189,257.829 251.857,255.650 252.969 C 254.818 253.393,253.963 253.740,253.749 253.740 C 253.534 253.740,252.489 254.307,251.426 254.999 C 249.767 256.080,248.895 256.344,245.292 256.856 C 238.756 257.786,234.264 259.117,231.579 260.921 C 230.767 261.467,229.462 261.880,228.070 262.031 C 224.336 262.438,217.755 263.823,217.271 264.304 C 216.187 265.381,212.431 265.359,209.972 264.261 C 208.690 263.689,205.038 263.113,200.554 262.776 C 198.739 262.640,196.012 262.095,194.090 261.486 C 191.953 260.808,188.881 260.225,185.486 259.854 C 181.234 259.389,179.995 259.121,179.120 258.474 C 177.930 257.594,175.461 257.132,171.723 257.091 C 168.368 257.053,168.204 256.860,167.494 252.078 C 167.162 249.843,166.743 247.184,166.561 246.168 C 166.380 245.152,166.049 240.085,165.826 234.907 C 165.389 224.759,165.347 224.578,163.250 223.737 C 162.672 223.505,155.333 223.380,143.589 223.403 C 123.846 223.441,123.668 223.456,123.099 225.115 C 122.451 227.006,123.315 243.616,124.248 247.197 C 124.785 249.257,125.176 254.050,125.928 267.775 C 126.123 271.330,126.546 275.319,126.867 276.639 C 127.189 277.959,127.724 280.785,128.055 282.918 C 128.799 287.707,129.451 288.827,131.494 288.827 C 132.963 288.827,134.811 289.462,134.811 289.966 C 134.811 290.453,137.061 290.995,141.644 291.610 C 144.112 291.942,146.481 292.467,146.990 292.796 C 148.112 293.520,151.774 294.335,154.017 294.360 C 154.931 294.370,156.031 294.584,156.461 294.835 C 156.892 295.086,157.774 295.591,158.422 295.958 C 159.196 296.396,161.334 296.816,164.653 297.183 C 168.086 297.562,170.062 297.957,170.818 298.414 C 172.084 299.182,175.189 299.907,177.211 299.908 C 178.016 299.909,179.444 300.366,180.682 301.018 C 182.358 301.902,183.710 302.245,187.330 302.705 C 190.224 303.073,192.411 303.559,193.352 304.043 C 194.164 304.461,196.599 305.103,198.763 305.469 C 200.926 305.835,203.436 306.472,204.341 306.884 C 205.245 307.296,207.547 307.827,209.456 308.064 C 211.365 308.302,214.325 308.974,216.033 309.557 C 219.660 310.797,221.567 310.864,225.115 309.880 C 226.537 309.486,228.864 309.155,230.286 309.145 C 235.125 309.111,240.813 307.897,240.813 306.898 C 240.813 306.742,241.329 306.501,241.959 306.363 C 243.099 306.112,245.952 304.997,247.180 304.322 C 247.987 303.879,252.063 303.304,255.217 303.189 C 258.390 303.073,260.316 302.580,261.748 301.518 C 262.395 301.039,263.255 300.646,263.659 300.646 C 265.047 300.646,271.873 299.191,272.392 298.784 C 272.595 298.625,274.294 298.135,276.168 297.695 C 278.042 297.256,280.119 296.529,280.785 296.080 C 282.598 294.857,289.863 292.907,294.899 292.292 C 301.324 291.508,304.596 290.358,308.382 287.554 C 309.082 287.035,309.830 286.606,310.044 286.600 C 310.259 286.594,311.146 285.971,312.017 285.215 C 313.766 283.697,313.678 284.142,313.576 277.378 C 313.551 275.651,313.705 272.078,313.919 269.437 C 314.134 266.796,314.478 257.987,314.683 249.861 C 315.024 236.389,315.460 230.240,316.517 224.007 C 316.724 222.789,317.065 219.548,317.275 216.805 C 317.486 214.063,317.833 210.572,318.047 209.049 C 318.260 207.525,318.577 205.282,318.751 204.063 C 319.676 197.572,320.597 182.994,320.676 173.592 C 320.729 167.342,319.632 159.708,318.553 158.813 C 318.252 158.563,318.006 158.067,318.006 157.710 C 318.006 155.787,314.570 155.283,313.909 157.110 C 313.372 158.594,311.979 159.025,308.033 158.927 C 306.916 158.899,293.194 158.761,277.541 158.620 L 249.080 158.364 250.117 157.327 C 250.688 156.756,251.154 156.027,251.154 155.707 C 251.154 155.386,251.462 155.125,251.841 155.125 C 252.219 155.125,253.258 154.482,254.150 153.697 C 255.042 152.912,256.353 152.147,257.064 151.998 C 257.775 151.849,259.187 151.177,260.203 150.504 C 261.219 149.832,262.715 149.082,263.527 148.838 C 264.340 148.593,265.669 148.087,266.482 147.712 C 267.295 147.338,268.624 146.838,269.437 146.601 C 270.249 146.364,271.413 145.884,272.022 145.535 C 272.632 145.185,274.127 144.691,275.346 144.438 C 276.565 144.185,278.476 143.647,279.594 143.242 C 280.711 142.838,282.658 142.129,283.922 141.667 C 285.185 141.204,286.805 140.378,287.524 139.830 C 288.242 139.283,289.369 138.658,290.029 138.443 C 290.688 138.228,292.392 137.498,293.813 136.822 C 295.235 136.145,297.191 135.318,298.160 134.984 C 299.129 134.649,300.126 134.178,300.376 133.936 C 300.626 133.695,301.911 133.024,303.232 132.445 C 304.552 131.867,305.965 131.099,306.371 130.740 C 306.777 130.381,307.858 129.975,308.772 129.838 C 310.611 129.562,312.443 129.054,314.127 128.353 C 315.838 127.642,320.753 125.785,320.960 125.772 C 321.062 125.766,321.767 125.393,322.527 124.945 C 325.551 123.158,325.793 121.771,325.896 105.633 C 325.964 94.905,325.981 94.680,327.005 91.043 C 328.237 86.670,328.156 83.623,326.721 80.379 C 326.236 79.281,325.729 77.886,325.596 77.280 C 324.777 73.548,317.941 71.503,311.727 73.131 M322.195 77.410 C 324.238 77.850,324.407 79.018,324.149 90.859 C 324.023 96.648,323.651 103.795,323.323 106.741 C 322.994 109.686,322.679 113.029,322.622 114.169 C 322.348 119.664,320.871 121.723,316.326 122.947 C 315.505 123.168,314.454 123.703,313.988 124.136 C 313.523 124.570,312.201 125.166,311.049 125.462 C 309.898 125.758,308.375 126.390,307.664 126.866 C 306.953 127.343,305.467 127.996,304.363 128.318 C 303.258 128.639,302.012 129.216,301.593 129.600 C 301.174 129.984,299.584 130.684,298.061 131.157 C 296.537 131.629,294.836 132.383,294.279 132.832 C 293.723 133.281,292.378 133.906,291.291 134.223 C 290.203 134.539,288.867 135.149,288.321 135.578 C 287.775 136.007,286.301 136.598,285.044 136.891 C 283.788 137.185,282.505 137.648,282.193 137.921 C 281.426 138.592,278.629 139.982,278.044 139.982 C 277.785 139.982,276.740 140.381,275.721 140.870 C 274.702 141.358,272.895 142.133,271.704 142.591 C 270.513 143.050,269.236 143.750,268.866 144.147 C 268.496 144.544,267.393 145.018,266.414 145.201 C 265.436 145.383,263.970 146.001,263.158 146.574 C 262.345 147.147,260.849 147.831,259.834 148.094 C 258.818 148.358,257.405 148.956,256.694 149.422 C 255.983 149.889,254.328 150.629,253.016 151.066 C 251.704 151.503,250.198 152.168,249.669 152.545 C 249.141 152.921,248.220 153.347,247.623 153.492 C 247.026 153.637,246.112 154.052,245.593 154.414 C 244.495 155.181,242.393 156.027,240.175 156.595 C 239.304 156.818,237.846 157.660,236.876 158.499 C 235.921 159.326,234.753 160.178,234.282 160.393 C 231.425 161.695,232.597 161.733,276.817 161.766 C 302.992 161.786,317.568 161.926,317.803 162.161 C 318.521 162.879,317.949 176.032,317.056 179.317 C 316.574 181.090,316.073 188.390,315.599 200.554 C 315.477 203.703,315.066 208.523,314.688 211.265 C 313.749 218.063,313.629 219.652,313.017 233.426 C 312.723 240.028,312.237 246.805,311.936 248.486 C 311.635 250.168,311.215 254.323,311.003 257.720 C 310.791 261.117,310.540 264.645,310.446 265.559 C 310.351 266.473,310.168 270.046,310.038 273.500 C 309.909 276.953,309.696 280.776,309.565 281.994 L 309.326 284.211 306.925 285.451 C 303.607 287.166,302.011 287.692,298.800 288.130 C 297.276 288.339,295.195 288.900,294.175 289.378 C 293.155 289.855,290.924 290.438,289.217 290.671 C 287.337 290.929,285.375 291.470,284.241 292.045 C 283.133 292.606,281.038 293.192,279.110 293.480 C 277.319 293.748,274.961 294.389,273.872 294.904 C 272.712 295.453,270.311 296.085,268.079 296.428 C 265.982 296.751,263.619 297.343,262.829 297.744 C 262.039 298.145,259.726 298.812,257.690 299.227 C 255.654 299.643,253.392 300.292,252.664 300.671 C 251.935 301.050,249.665 301.610,247.618 301.917 C 245.452 302.241,243.021 302.876,241.799 303.435 C 240.644 303.964,238.586 304.554,237.225 304.747 C 235.864 304.939,233.861 305.518,232.773 306.032 C 231.015 306.864,228.809 307.309,221.607 308.286 C 220.786 308.397,219.278 308.113,217.479 307.508 C 215.919 306.985,214.091 306.553,213.416 306.549 C 212.672 306.545,211.548 306.109,210.563 305.441 C 209.570 304.768,208.462 304.340,207.716 304.340 C 204.466 304.340,200.735 303.508,199.715 302.556 C 198.766 301.670,198.360 301.584,194.077 301.357 C 189.752 301.127,189.408 301.052,188.585 300.165 C 187.617 299.120,187.026 298.983,181.288 298.475 C 178.051 298.188,177.211 297.986,176.565 297.340 C 175.385 296.161,174.358 295.893,169.999 295.625 C 166.923 295.437,165.853 295.230,165.282 294.714 C 164.112 293.659,162.778 293.300,158.535 292.899 C 156.009 292.661,154.437 292.344,154.201 292.026 C 153.353 290.878,151.525 290.380,147.184 290.114 C 144.746 289.964,142.669 289.729,142.567 289.592 C 141.632 288.328,136.872 286.981,133.340 286.981 C 130.050 286.981,129.814 285.967,129.465 270.360 C 129.356 265.498,129.143 263.482,128.410 260.388 C 127.433 256.262,127.219 253.854,126.687 240.997 C 126.433 234.848,126.174 232.243,125.625 230.286 C 124.321 225.639,124.333 225.416,125.912 225.164 C 128.727 224.714,160.949 224.936,161.323 225.408 C 161.517 225.653,161.796 226.519,161.943 227.331 C 162.089 228.144,162.599 229.640,163.075 230.656 C 163.920 232.456,163.944 232.805,164.058 244.542 C 164.190 258.278,163.958 257.363,167.615 258.580 C 168.969 259.031,170.910 259.764,171.927 260.210 C 173.404 260.857,174.763 261.062,178.678 261.231 C 183.214 261.427,183.661 261.512,184.681 262.370 C 185.900 263.396,186.293 263.465,194.459 264.083 C 198.374 264.379,200.081 264.648,200.279 265.001 C 200.866 266.050,204.991 266.981,209.046 266.980 C 212.511 266.979,212.973 267.057,213.411 267.717 C 213.865 268.400,213.995 268.415,215.157 267.930 C 215.847 267.641,216.958 267.405,217.625 267.405 C 219.808 267.405,227.984 265.558,229.242 264.781 C 229.918 264.363,231.663 263.855,233.120 263.654 C 234.873 263.411,236.590 262.859,238.198 262.021 C 239.861 261.154,241.366 260.679,242.967 260.515 C 244.495 260.359,245.743 259.979,246.567 259.421 C 247.328 258.904,249.106 258.328,251.060 257.965 C 252.839 257.635,255.374 256.903,256.694 256.337 C 258.015 255.771,259.843 255.199,260.757 255.065 C 262.780 254.768,268.346 252.123,268.658 251.311 C 268.781 250.988,268.882 248.536,268.880 245.861 C 268.877 238.146,269.516 226.595,271.072 206.279 C 271.428 201.619,271.262 199.672,270.449 198.997 C 269.779 198.441,242.421 198.155,167.990 197.926 C 142.462 197.848,121.496 197.701,121.398 197.599 C 121.300 197.498,121.125 193.259,121.011 188.181 C 120.766 177.363,120.556 175.239,119.594 173.871 C 118.147 171.812,118.313 160.805,119.795 160.594 C 120.258 160.528,120.822 159.996,121.145 159.322 C 121.636 158.296,121.925 158.137,123.670 157.930 C 125.869 157.669,127.265 157.059,128.313 155.901 C 128.763 155.404,129.465 155.125,130.263 155.125 C 131.987 155.125,134.100 154.174,134.330 153.295 C 134.541 152.487,134.884 152.348,137.581 151.980 C 139.797 151.677,140.598 151.290,140.886 150.382 C 141.048 149.873,141.749 149.585,143.657 149.244 C 145.558 148.904,146.488 148.524,147.289 147.758 C 148.102 146.981,148.895 146.663,150.522 146.459 C 152.183 146.252,152.895 145.959,153.624 145.183 C 154.292 144.474,155.220 144.048,156.773 143.738 C 158.276 143.438,159.331 142.965,160.097 142.248 C 160.714 141.670,162.050 140.981,163.066 140.717 C 165.437 140.101,166.205 139.704,166.205 139.096 C 166.205 138.790,167.077 138.427,168.513 138.134 C 170.799 137.667,173.055 136.607,173.295 135.887 C 173.363 135.682,174.414 135.419,175.629 135.304 C 178.000 135.078,179.501 134.385,179.501 133.517 C 179.501 133.220,179.958 132.885,180.517 132.772 C 183.412 132.185,184.880 131.592,185.197 130.883 C 185.465 130.284,186.097 130.034,188.152 129.716 C 190.218 129.396,190.921 129.117,191.505 128.385 C 192.023 127.736,192.951 127.293,194.602 126.908 C 196.052 126.570,197.333 126.003,197.926 125.436 C 198.590 124.802,199.754 124.335,201.649 123.941 C 203.583 123.539,204.649 123.105,205.222 122.487 C 205.671 122.003,206.674 121.496,207.451 121.361 C 209.580 120.990,210.848 120.401,211.078 119.674 C 211.192 119.315,212.041 118.733,212.964 118.381 C 215.164 117.540,215.810 116.292,214.646 115.127 C 213.501 113.980,209.610 113.873,165.651 113.781 C 118.175 113.682,114.225 113.586,113.350 112.513 C 113.329 112.487,113.160 108.476,112.976 103.601 C 112.472 90.270,112.253 88.130,111.289 87.102 C 110.544 86.308,110.199 83.334,110.409 79.501 C 110.429 79.134,121.074 79.040,162.334 79.040 L 214.234 79.040 216.166 78.024 L 218.098 77.008 269.621 77.096 C 297.959 77.144,321.617 77.285,322.195 77.410 " stroke="none" fill="#6fa0c4" fill-rule="evenodd"></path></g></svg>