<svg id="svg" version="1.1" xmlns="http://www.w3.org/2000/svg" xmlns:xlink="http://www.w3.org/1999/xlink" width="400" height="440.48192771084337" viewBox="0, 0, 400,440.48192771084337"><g id="svgg"><path id="path0" d="M255.846 24.802 C 255.315 28.123,255.543 78.517,256.090 78.864 C 257.230 79.587,312.705 79.161,311.722 78.437 C 311.545 78.307,310.660 77.300,309.755 76.200 C 307.996 74.062,258.209 24.221,257.200 23.589 C 256.246 22.990,256.117 23.106,255.846 24.802 M86.062 242.450 C 85.609 243.175,84.306 243.200,47.277 243.200 C 18.008 243.200,8.847 243.313,8.480 243.680 C 7.523 244.637,7.814 417.872,8.774 418.386 C 9.304 418.670,69.605 418.800,200.400 418.800 C 331.195 418.800,391.496 418.670,392.026 418.386 C 392.986 417.872,393.277 244.637,392.320 243.680 C 391.953 243.313,382.612 243.200,352.716 243.200 C 314.473 243.200,313.577 243.183,312.927 242.423 C 312.478 241.898,312.057 241.752,311.631 241.973 C 310.743 242.433,268.956 242.476,267.014 242.019 C 266.070 241.797,265.251 241.791,264.993 242.006 C 264.745 242.211,257.771 242.312,248.779 242.240 C 240.101 242.171,232.550 242.132,232.000 242.155 C 231.450 242.177,223.890 242.176,215.200 242.154 C 206.510 242.132,199.040 242.119,198.600 242.126 C 196.002 242.165,166.827 242.192,166.000 242.156 C 165.450 242.132,157.935 242.115,149.300 242.118 C 140.665 242.121,133.060 242.123,132.400 242.123 C 131.740 242.123,124.315 242.139,115.900 242.159 C 107.485 242.178,100.150 242.166,99.600 242.131 C 99.050 242.095,96.493 242.152,93.918 242.257 C 91.344 242.362,88.628 242.280,87.883 242.074 C 86.745 241.760,86.455 241.820,86.062 242.450 M115.800 275.919 C 116.680 276.165,118.480 276.576,119.800 276.832 C 131.900 279.174,141.033 287.304,145.181 299.425 C 149.998 313.504,150.074 344.574,145.328 359.600 C 142.185 369.551,135.742 377.434,127.600 381.288 C 123.074 383.431,120.913 384.122,116.000 384.996 C 110.496 385.975,64.654 386.388,63.733 385.467 C 63.550 385.283,63.400 360.542,63.400 330.485 L 63.400 275.836 64.400 275.547 C 66.079 275.060,113.976 275.407,115.800 275.919 M223.154 275.575 C 223.540 275.782,224.063 276.637,224.316 277.475 C 225.289 280.703,226.707 286.630,227.526 290.900 C 227.706 291.835,228.066 292.993,228.326 293.474 C 228.587 293.954,228.800 294.751,228.800 295.245 C 228.800 295.739,228.968 296.696,229.174 297.372 C 229.631 298.872,230.613 302.766,231.148 305.200 C 232.202 309.992,232.473 311.145,232.983 313.000 C 233.974 316.600,235.785 323.915,236.400 326.800 C 236.564 327.570,237.056 329.550,237.493 331.200 C 237.929 332.850,238.512 335.280,238.786 336.600 C 239.061 337.920,239.435 339.450,239.618 340.000 C 239.801 340.550,240.066 341.630,240.208 342.400 C 240.350 343.170,240.618 344.340,240.805 345.000 C 241.819 348.587,242.420 350.885,243.001 353.400 C 243.357 354.940,243.914 357.280,244.240 358.600 C 244.566 359.920,244.991 361.720,245.184 362.600 C 245.377 363.480,246.003 366.090,246.576 368.400 C 247.148 370.710,247.775 373.320,247.968 374.200 C 248.161 375.080,248.676 377.150,249.113 378.800 C 251.140 386.467,251.649 386.089,239.495 385.921 L 230.753 385.800 229.985 384.800 C 229.563 384.250,229.214 383.446,229.209 383.013 C 229.204 382.581,228.942 381.501,228.626 380.613 C 227.959 378.738,226.817 374.903,225.823 371.200 C 225.439 369.770,224.962 368.287,224.762 367.905 C 224.563 367.523,224.400 366.870,224.400 366.454 C 224.400 364.638,224.090 364.606,205.639 364.504 C 196.047 364.451,187.204 364.515,185.988 364.646 C 183.350 364.929,183.251 365.110,181.287 373.200 C 177.801 387.564,179.423 386.115,167.037 385.928 C 157.404 385.782,157.615 385.838,158.026 383.514 C 158.669 379.881,159.157 377.720,159.812 375.600 C 160.186 374.390,160.581 372.724,160.688 371.897 C 160.796 371.071,161.045 370.295,161.242 370.174 C 161.439 370.052,161.600 369.533,161.600 369.020 C 161.600 368.507,162.430 364.873,163.444 360.944 C 164.459 357.015,165.439 353.080,165.622 352.200 C 166.189 349.483,166.661 347.476,167.172 345.600 C 167.442 344.610,167.829 343.125,168.032 342.300 C 168.234 341.475,168.576 340.125,168.792 339.300 C 170.084 334.356,172.932 322.722,173.224 321.200 C 173.414 320.210,173.862 318.410,174.220 317.200 C 174.578 315.990,175.025 314.280,175.213 313.400 C 175.857 310.398,176.281 308.601,176.772 306.800 C 177.315 304.810,177.578 303.788,178.827 298.800 C 179.730 295.197,179.789 294.953,181.346 288.400 C 183.783 278.141,184.176 276.762,184.882 276.004 C 185.711 275.115,221.544 274.714,223.154 275.575 M280.340 276.349 C 280.923 276.981,281.987 278.646,282.704 280.049 C 284.444 283.454,286.245 286.671,287.429 288.491 C 287.963 289.312,288.400 290.051,288.400 290.134 C 288.400 290.217,289.325 291.886,290.455 293.843 C 291.585 295.799,293.230 298.750,294.110 300.400 C 294.990 302.050,295.839 303.580,295.997 303.800 C 296.155 304.020,296.946 305.421,297.756 306.912 C 301.646 314.082,302.109 314.705,302.870 313.802 C 303.161 313.455,303.587 312.953,303.815 312.686 C 304.044 312.419,304.546 311.570,304.932 310.800 C 305.318 310.030,305.954 308.860,306.345 308.200 C 306.736 307.540,307.582 306.010,308.225 304.800 C 308.868 303.590,309.488 302.510,309.603 302.400 C 309.718 302.290,310.373 301.120,311.059 299.800 C 311.745 298.480,313.285 295.679,314.482 293.575 C 315.678 291.472,316.780 289.492,316.931 289.175 C 317.082 288.859,317.658 287.880,318.212 287.000 C 318.765 286.120,319.437 284.950,319.704 284.400 C 319.971 283.850,320.957 282.090,321.895 280.488 C 322.833 278.887,323.600 277.436,323.600 277.264 C 323.600 275.352,343.271 273.926,346.417 275.609 C 347.124 275.987,345.997 279.603,344.800 280.800 C 344.690 280.910,344.404 281.360,344.163 281.800 C 342.364 285.098,340.990 287.532,340.509 288.274 C 340.197 288.755,339.550 289.886,339.071 290.788 C 338.592 291.691,337.034 294.447,335.610 296.914 C 334.185 299.381,332.823 301.763,332.582 302.207 C 332.341 302.651,331.412 304.271,330.518 305.807 C 329.623 307.343,328.225 309.859,327.411 311.397 C 326.598 312.936,325.811 314.286,325.663 314.397 C 325.515 314.509,324.874 315.590,324.239 316.800 C 323.604 318.010,322.143 320.620,320.993 322.600 C 319.843 324.580,318.345 327.309,317.664 328.664 L 316.425 331.128 317.356 332.864 C 319.166 336.239,320.536 338.624,321.860 340.708 C 322.597 341.867,323.200 342.887,323.200 342.975 C 323.200 343.063,324.280 344.964,325.600 347.200 C 326.920 349.436,328.000 351.344,328.000 351.441 C 328.000 351.537,328.470 352.361,329.045 353.271 C 329.619 354.181,330.489 355.662,330.977 356.563 C 331.466 357.463,332.233 358.830,332.682 359.600 C 333.132 360.370,334.988 363.610,336.807 366.800 C 338.626 369.990,340.444 373.082,340.848 373.671 C 341.251 374.260,341.916 375.340,342.325 376.071 C 347.020 384.456,347.233 384.905,346.751 385.400 C 346.319 385.843,327.888 386.218,325.800 385.826 C 324.956 385.668,324.342 385.220,323.973 384.494 C 323.668 383.892,322.999 382.713,322.488 381.874 C 321.533 380.308,321.101 379.549,318.800 375.400 C 317.050 372.243,316.498 371.271,314.055 367.043 C 312.925 365.086,312.000 363.412,312.000 363.323 C 312.000 363.234,311.413 362.225,310.694 361.081 C 309.976 359.936,308.903 358.088,308.309 356.973 C 307.715 355.858,306.593 353.888,305.815 352.596 C 305.037 351.304,304.400 350.011,304.400 349.724 C 304.400 349.436,304.232 349.200,304.027 349.200 C 303.822 349.200,303.545 348.857,303.412 348.437 C 302.841 346.638,302.088 347.335,299.203 352.336 C 297.596 355.121,295.788 358.210,295.184 359.200 C 294.581 360.190,293.658 361.810,293.134 362.800 C 292.610 363.790,291.890 365.050,291.535 365.600 C 291.180 366.150,290.428 367.410,289.865 368.400 C 288.921 370.060,287.800 372.015,285.737 375.600 C 285.293 376.370,284.336 378.080,283.609 379.400 C 282.882 380.720,281.981 382.250,281.608 382.800 C 281.235 383.350,280.816 384.118,280.675 384.506 C 280.184 385.867,278.496 386.062,268.319 385.929 C 257.036 385.782,257.012 385.775,258.390 383.126 C 258.884 382.177,259.411 381.310,259.561 381.200 C 259.711 381.090,260.358 379.920,260.999 378.600 C 261.639 377.280,262.733 375.390,263.430 374.400 C 264.126 373.410,264.999 372.060,265.369 371.400 C 266.206 369.905,267.841 367.099,269.361 364.548 C 271.486 360.980,277.384 350.878,278.598 348.725 C 279.257 347.556,280.282 345.790,280.876 344.800 C 281.470 343.810,282.473 342.100,283.107 341.000 C 283.740 339.900,284.640 338.337,285.107 337.526 C 285.575 336.715,286.453 335.275,287.060 334.326 C 288.620 331.884,288.489 330.426,286.368 326.667 C 285.395 324.944,284.138 322.694,283.572 321.667 C 281.056 317.095,280.291 315.761,279.860 315.200 C 279.297 314.466,278.448 312.998,277.663 311.400 C 277.339 310.740,276.767 309.750,276.392 309.200 C 275.706 308.194,271.418 300.831,267.191 293.400 C 265.939 291.200,264.259 288.331,263.458 287.024 C 262.656 285.716,262.000 284.498,262.000 284.316 C 262.000 284.133,261.519 283.223,260.932 282.292 C 259.316 279.733,257.600 276.527,257.600 276.067 C 257.600 275.372,258.688 275.294,269.140 275.246 L 279.279 275.200 280.340 276.349 M200.800 293.349 C 200.800 293.431,200.426 294.916,199.970 296.649 C 198.905 300.688,198.436 302.612,198.029 304.600 C 197.848 305.480,197.389 307.280,197.008 308.600 C 196.627 309.920,196.174 311.720,196.001 312.600 C 195.828 313.480,195.296 315.730,194.819 317.600 C 194.343 319.470,193.500 322.890,192.947 325.200 C 192.395 327.510,191.782 330.030,191.586 330.800 C 191.390 331.570,190.927 333.550,190.558 335.200 C 190.190 336.850,189.745 338.560,189.571 339.000 C 188.760 341.050,188.383 344.914,188.957 345.294 C 189.200 345.456,196.021 345.591,204.113 345.594 C 221.140 345.601,219.746 346.040,218.639 341.018 C 218.249 339.248,217.780 337.080,217.599 336.200 C 217.417 335.320,216.892 333.182,216.434 331.449 C 215.975 329.716,215.600 327.880,215.600 327.368 C 215.600 326.856,215.438 326.024,215.240 325.519 C 214.720 324.191,212.804 316.703,211.781 312.000 C 211.422 310.350,210.955 308.280,210.742 307.400 C 210.530 306.520,210.193 305.080,209.994 304.200 C 209.795 303.320,209.343 301.430,208.989 300.000 C 208.634 298.570,208.202 296.728,208.027 295.907 C 207.512 293.483,207.066 293.200,203.751 293.200 C 202.128 293.200,200.800 293.267,200.800 293.349 M83.841 294.617 C 82.840 295.617,82.863 365.623,83.863 366.451 C 84.799 367.225,105.523 367.222,109.000 366.448 C 122.448 363.452,127.681 353.044,127.730 329.200 C 127.791 300.007,122.324 294.179,94.741 294.031 C 85.817 293.983,84.398 294.059,83.841 294.617 " stroke="none" fill="#ce5453" fill-rule="evenodd"></path><path id="path1" d="M87.100 21.833 C 86.935 21.998,86.800 71.592,86.800 132.042 L 86.800 241.951 88.500 242.205 C 89.435 242.345,92.090 242.369,94.400 242.260 C 96.710 242.150,99.050 242.090,99.600 242.127 C 100.150 242.164,107.485 242.178,115.900 242.159 C 124.315 242.139,131.740 242.123,132.400 242.123 C 133.060 242.123,140.665 242.121,149.300 242.118 C 157.935 242.115,165.450 242.132,166.000 242.156 C 166.827 242.192,196.002 242.165,198.600 242.126 C 199.040 242.119,206.510 242.132,215.200 242.154 C 223.890 242.176,231.450 242.177,232.000 242.155 C 232.550 242.132,240.101 242.171,248.779 242.240 C 257.771 242.312,264.745 242.211,264.993 242.006 C 265.251 241.791,266.070 241.797,267.014 242.019 C 269.058 242.500,310.764 242.422,311.700 241.935 C 312.364 241.591,312.395 237.360,312.300 160.293 L 312.200 79.014 284.400 79.124 C 269.110 79.185,256.371 79.078,256.090 78.888 C 255.538 78.512,255.319 28.712,255.852 24.695 C 256.218 21.936,256.514 22.000,243.200 21.961 C 122.641 21.613,87.350 21.584,87.100 21.833 M217.510 97.001 C 217.901 97.140,217.995 98.659,217.910 103.491 L 217.800 109.800 208.812 109.908 C 203.869 109.967,199.681 110.159,199.507 110.333 C 199.092 110.748,199.093 204.053,199.507 204.467 C 199.682 204.642,203.869 204.833,208.812 204.892 L 217.800 205.000 217.800 211.400 L 217.800 217.800 208.600 218.000 C 196.873 218.255,184.174 217.937,183.614 217.375 C 183.015 216.774,183.011 98.029,183.610 97.428 C 184.316 96.720,215.614 96.326,217.510 97.001 " stroke="none" fill="#272122" fill-rule="evenodd"></path><path id="path2" d="M0.000 220.200 L 0.000 440.400 200.000 440.400 L 400.000 440.400 400.000 220.200 L 400.000 0.000 200.000 0.000 L 0.000 0.000 0.000 220.200 M284.833 49.588 L 313.600 78.365 313.600 159.939 L 313.600 241.513 314.605 241.766 C 315.158 241.904,333.007 242.005,354.270 241.990 C 385.534 241.968,392.993 242.062,393.259 242.481 C 393.440 242.767,393.546 282.690,393.494 331.200 L 393.400 419.400 200.490 419.500 L 7.581 419.601 7.200 418.599 C 6.753 417.425,6.949 243.791,7.398 242.700 C 7.584 242.247,8.130 241.996,8.943 241.988 C 9.634 241.981,26.708 241.987,46.884 242.000 C 67.060 242.013,84.025 241.909,84.584 241.768 L 85.600 241.513 85.600 131.390 C 85.600 43.666,85.702 21.225,86.100 21.064 C 86.375 20.952,124.730 20.850,171.333 20.836 L 256.065 20.812 284.833 49.588 M184.400 157.191 L 184.400 216.782 191.500 216.891 C 195.405 216.951,202.875 216.949,208.100 216.886 L 217.600 216.772 217.600 211.186 L 217.600 205.600 208.374 205.600 C 202.779 205.600,198.843 205.437,198.374 205.186 C 197.615 204.780,197.600 203.826,197.600 157.396 L 197.600 110.021 198.780 109.410 C 199.733 108.917,201.657 108.800,208.780 108.800 L 217.600 108.800 217.600 103.200 L 217.600 97.600 201.000 97.600 L 184.400 97.600 184.400 157.191 M64.682 276.252 C 64.527 276.407,64.400 300.983,64.400 330.867 L 64.400 385.200 86.079 385.200 C 99.066 385.200,109.130 385.029,111.179 384.772 C 115.258 384.262,120.449 383.178,120.980 382.724 C 121.189 382.546,121.740 382.400,122.205 382.400 C 122.670 382.400,123.983 381.950,125.123 381.400 C 126.263 380.850,127.300 380.400,127.428 380.400 C 127.556 380.400,128.871 379.616,130.352 378.658 C 136.660 374.578,141.329 368.374,143.793 360.800 C 144.187 359.590,144.642 358.240,144.803 357.800 C 149.202 345.838,148.590 309.164,143.808 298.200 C 143.520 297.540,143.046 296.460,142.755 295.800 C 138.191 285.453,127.989 278.532,114.600 276.702 C 111.320 276.253,65.097 275.837,64.682 276.252 M185.494 276.300 C 185.256 276.768,184.505 279.482,183.584 283.200 C 183.122 285.070,182.585 287.230,182.391 288.000 C 182.197 288.770,181.862 290.210,181.645 291.200 C 181.429 292.190,180.952 294.080,180.585 295.400 C 180.219 296.720,179.764 298.610,179.575 299.600 C 179.386 300.590,178.938 302.390,178.580 303.600 C 178.222 304.810,177.776 306.520,177.588 307.400 C 176.594 312.056,176.396 312.882,176.200 313.200 C 176.082 313.391,175.800 314.414,175.573 315.473 C 175.347 316.533,175.000 318.030,174.802 318.800 C 174.203 321.141,173.180 325.307,172.788 327.000 C 172.585 327.880,172.132 329.680,171.781 331.000 C 171.430 332.320,171.054 333.940,170.945 334.600 C 170.835 335.260,170.590 336.160,170.400 336.600 C 170.210 337.040,169.960 337.940,169.844 338.600 C 169.392 341.171,168.574 344.360,168.294 344.640 C 168.132 344.801,168.000 345.312,168.000 345.774 C 168.000 346.237,167.453 348.772,166.783 351.407 C 166.114 354.043,165.404 356.920,165.204 357.800 C 165.005 358.680,164.547 360.480,164.187 361.800 C 163.827 363.120,163.383 364.920,163.200 365.800 C 163.017 366.680,162.571 368.480,162.208 369.800 C 161.578 372.096,161.369 372.980,160.430 377.327 C 160.201 378.386,159.887 379.460,159.731 379.712 C 159.575 379.964,159.317 380.897,159.158 381.785 C 158.999 382.673,158.743 383.805,158.588 384.300 L 158.307 385.200 167.673 385.200 L 177.039 385.200 177.478 383.900 C 177.719 383.185,178.224 381.340,178.599 379.800 C 178.974 378.260,179.431 376.640,179.613 376.200 C 179.796 375.760,180.035 374.860,180.145 374.200 C 180.254 373.540,180.640 371.920,181.002 370.600 C 181.364 369.280,181.803 367.520,181.978 366.689 C 182.674 363.388,181.161 363.600,204.001 363.600 L 224.279 363.600 224.911 365.100 C 225.259 365.925,225.839 367.680,226.201 369.000 C 227.238 372.782,228.733 377.892,229.914 381.699 L 231.000 385.197 240.151 385.199 L 249.302 385.200 249.068 383.300 C 248.848 381.509,248.448 379.639,247.594 376.400 C 246.917 373.830,245.941 369.818,245.600 368.200 C 245.086 365.759,244.370 363.090,243.991 362.200 C 243.803 361.760,243.570 360.770,243.473 360.000 C 243.296 358.603,241.911 352.899,241.184 350.572 C 240.973 349.896,240.800 348.897,240.800 348.352 C 240.800 347.806,240.634 347.189,240.431 346.980 C 240.228 346.771,239.858 345.610,239.609 344.400 C 239.361 343.190,239.006 341.480,238.822 340.600 C 238.493 339.033,237.144 333.573,236.400 330.800 C 235.600 327.816,234.299 322.526,233.991 321.000 C 233.813 320.120,233.371 318.320,233.008 317.000 C 232.357 314.630,231.933 312.821,231.250 309.500 C 231.058 308.565,230.589 306.720,230.208 305.400 C 229.827 304.080,229.383 302.280,229.221 301.400 C 229.059 300.520,228.528 298.270,228.042 296.400 C 227.556 294.530,227.006 292.370,226.820 291.600 C 226.634 290.830,226.261 289.300,225.992 288.200 C 224.999 284.145,224.737 282.969,224.524 281.600 C 224.404 280.830,224.167 280.020,223.998 279.800 C 223.829 279.580,223.564 278.635,223.410 277.700 L 223.130 276.000 204.388 276.000 C 194.081 276.000,185.578 276.135,185.494 276.300 M258.800 276.463 C 258.800 276.718,259.860 278.743,261.155 280.963 C 263.910 285.685,264.824 287.288,265.849 289.200 C 266.262 289.970,266.690 290.690,266.800 290.800 C 266.910 290.910,267.196 291.360,267.436 291.800 C 268.872 294.435,270.057 296.509,270.899 297.860 C 271.427 298.707,271.982 299.670,272.132 300.000 C 272.282 300.330,272.858 301.320,273.411 302.200 C 273.964 303.080,274.536 304.070,274.683 304.400 C 274.829 304.730,275.635 306.128,276.474 307.507 C 277.313 308.886,278.000 310.097,278.000 310.199 C 278.000 310.301,278.630 311.369,279.400 312.573 C 280.170 313.777,280.800 314.864,280.800 314.989 C 280.800 315.114,281.260 315.944,281.821 316.834 C 282.833 318.437,283.227 319.120,285.376 323.000 C 285.985 324.100,286.621 325.180,286.789 325.400 C 289.892 329.467,290.032 331.154,287.600 335.200 C 286.500 337.030,285.600 338.565,285.600 338.610 C 285.600 338.656,283.599 342.092,281.154 346.246 C 278.709 350.401,276.253 354.610,275.697 355.600 C 275.141 356.590,274.351 357.878,273.943 358.462 C 273.534 359.046,273.200 359.634,273.200 359.769 C 273.200 359.904,272.300 361.465,271.200 363.239 C 270.100 365.012,269.200 366.548,269.200 366.651 C 269.200 366.754,268.604 367.775,267.876 368.919 C 267.147 370.064,266.428 371.270,266.278 371.600 C 266.128 371.930,265.779 372.549,265.503 372.977 C 264.024 375.262,262.400 377.990,262.400 378.189 C 262.400 378.314,261.940 379.144,261.379 380.034 C 259.796 382.541,258.800 384.387,258.800 384.812 C 258.800 385.052,262.628 385.200,268.853 385.200 C 279.590 385.200,280.400 385.041,280.400 382.939 C 280.400 382.642,280.559 382.400,280.753 382.400 C 280.948 382.400,281.208 382.085,281.331 381.700 C 281.455 381.315,282.076 380.100,282.713 379.000 C 283.349 377.900,285.267 374.570,286.976 371.600 C 288.685 368.630,290.395 365.660,290.776 365.000 C 291.157 364.340,292.063 362.720,292.788 361.400 C 293.513 360.080,294.243 358.820,294.410 358.600 C 294.715 358.200,295.118 357.490,297.591 353.000 C 298.318 351.680,299.224 350.150,299.604 349.600 C 299.984 349.050,300.413 348.219,300.558 347.753 C 301.223 345.608,304.000 345.243,304.000 347.300 C 304.000 347.507,304.336 348.154,304.747 348.738 C 305.158 349.322,306.070 350.880,306.773 352.200 C 307.477 353.520,308.373 355.140,308.765 355.800 C 310.729 359.108,314.653 366.031,315.567 367.800 C 316.135 368.900,316.704 369.890,316.830 370.000 C 316.957 370.110,317.790 371.550,318.682 373.200 C 319.573 374.850,320.864 377.190,321.551 378.400 C 322.237 379.610,323.381 381.635,324.092 382.900 L 325.385 385.200 335.692 385.200 C 341.362 385.200,346.000 385.087,346.000 384.949 C 346.000 384.589,342.884 378.972,341.324 376.519 C 340.596 375.375,340.000 374.336,340.000 374.211 C 340.000 374.086,339.536 373.250,338.970 372.352 C 338.032 370.867,337.492 369.926,335.092 365.600 C 334.664 364.830,334.178 364.020,334.010 363.800 C 333.843 363.580,333.113 362.320,332.387 361.000 C 329.414 355.589,329.059 354.958,328.443 353.998 C 327.116 351.930,326.788 351.384,326.522 350.800 C 326.372 350.470,325.653 349.264,324.924 348.119 C 324.196 346.975,323.600 345.954,323.600 345.852 C 323.600 345.749,322.520 343.836,321.200 341.600 C 319.880 339.364,318.800 337.369,318.800 337.167 C 318.800 336.965,318.641 336.800,318.447 336.800 C 318.252 336.800,317.986 336.485,317.856 336.100 C 317.725 335.715,317.091 334.426,316.447 333.236 C 315.195 330.923,315.233 330.400,316.824 328.000 C 317.427 327.090,318.146 325.818,321.119 320.400 C 321.663 319.410,322.244 318.420,322.411 318.200 C 322.578 317.980,323.065 317.170,323.492 316.400 C 323.920 315.630,324.868 313.920,325.600 312.600 C 328.523 307.330,328.999 306.491,330.667 303.667 C 331.620 302.054,332.400 300.642,332.400 300.529 C 332.400 300.416,332.736 299.846,333.146 299.262 C 333.557 298.678,334.575 296.940,335.408 295.400 C 336.242 293.860,338.786 289.327,341.061 285.328 C 343.337 281.328,345.375 277.593,345.589 277.028 L 345.980 276.000 335.640 276.000 L 325.299 276.000 323.846 278.700 C 323.047 280.185,321.921 282.210,321.344 283.200 C 320.768 284.190,319.622 286.260,318.799 287.800 C 317.453 290.317,316.780 291.540,314.356 295.874 C 313.964 296.575,313.183 297.876,312.621 298.766 C 312.060 299.656,311.600 300.497,311.600 300.635 C 311.600 300.774,310.456 302.892,309.059 305.343 C 307.661 307.794,305.935 310.880,305.223 312.200 C 303.781 314.873,302.894 316.000,302.234 316.000 C 301.764 316.000,301.505 315.640,299.930 312.800 C 299.381 311.810,298.332 309.920,297.600 308.600 C 295.244 304.351,294.859 303.679,293.898 302.126 C 293.379 301.287,292.634 299.970,292.244 299.200 C 291.128 296.998,289.947 294.846,287.959 291.395 C 286.163 288.279,284.895 286.043,283.311 283.200 C 282.883 282.430,282.042 280.920,281.443 279.845 C 280.844 278.770,280.050 277.471,279.677 276.958 L 279.000 276.025 268.900 276.013 C 261.511 276.003,258.800 276.124,258.800 276.463 M207.824 292.706 C 208.187 292.959,209.191 296.538,210.458 302.100 C 210.646 302.925,210.964 304.275,211.164 305.100 C 211.364 305.925,211.827 307.860,212.193 309.400 C 212.559 310.940,213.009 312.830,213.193 313.600 C 214.612 319.535,214.906 320.787,215.216 322.200 C 215.409 323.080,215.857 324.970,216.211 326.400 C 216.566 327.830,217.033 329.720,217.250 330.600 C 217.466 331.480,217.786 332.920,217.959 333.800 C 218.132 334.680,218.497 336.210,218.769 337.200 C 220.435 343.263,220.862 345.714,220.316 346.060 C 219.257 346.732,187.755 346.469,187.186 345.783 C 186.798 345.316,186.786 345.054,187.137 344.703 C 187.392 344.448,187.600 343.730,187.600 343.107 C 187.600 342.484,187.870 341.328,188.200 340.538 C 188.530 339.749,188.800 338.732,188.800 338.280 C 188.800 337.827,188.968 336.904,189.174 336.228 C 189.505 335.142,189.976 333.336,191.215 328.400 C 191.408 327.630,191.777 326.010,192.033 324.800 C 192.290 323.590,192.748 321.803,193.050 320.829 C 193.353 319.855,193.600 318.637,193.600 318.123 C 193.600 317.610,193.759 316.877,193.953 316.495 C 194.368 315.677,195.441 311.479,196.379 307.000 C 196.862 304.694,198.345 298.810,198.806 297.372 C 199.023 296.696,199.200 295.661,199.200 295.072 C 199.200 292.837,205.515 291.105,207.824 292.706 M105.523 293.215 C 113.187 294.035,116.956 295.363,120.604 298.530 C 122.523 300.196,125.600 304.741,125.600 305.910 C 125.600 306.312,125.750 306.811,125.932 307.020 C 129.075 310.613,129.102 345.742,125.966 351.695 C 125.765 352.077,125.600 352.676,125.600 353.026 C 125.600 354.448,122.490 359.495,120.198 361.792 C 118.015 363.980,117.095 364.592,114.000 365.915 C 109.669 367.767,102.572 368.520,91.218 368.334 L 83.035 368.200 82.757 367.200 C 82.312 365.594,82.343 295.002,82.790 293.826 L 83.180 292.800 92.413 292.800 C 97.492 292.800,103.391 292.987,105.523 293.215 " stroke="none" fill="#f5f5f4" fill-rule="evenodd"></path><path id="path3" d="M86.267 21.467 C 86.120 21.613,86.000 71.413,86.000 132.133 C 86.000 192.853,86.135 242.398,86.300 242.233 C 86.465 242.068,86.690 192.403,86.800 131.867 L 87.000 21.800 150.200 21.808 C 242.838 21.819,255.045 21.903,255.675 22.530 C 255.964 22.817,256.554 23.249,256.986 23.490 C 258.013 24.062,307.608 73.593,309.755 76.190 C 310.660 77.285,311.622 78.420,311.893 78.712 C 312.280 79.129,312.387 96.655,312.392 160.456 C 312.396 212.278,312.539 241.909,312.787 242.334 C 313.039 242.767,313.180 214.193,313.188 160.801 L 313.200 78.602 284.501 49.901 L 255.802 21.200 171.168 21.200 C 124.619 21.200,86.413 21.320,86.267 21.467 M191.519 96.800 C 187.003 96.921,183.868 97.170,183.610 97.428 C 183.011 98.029,183.015 216.774,183.614 217.375 C 184.174 217.937,196.873 218.255,208.600 218.000 L 217.800 217.800 217.800 211.400 L 217.800 205.000 208.812 204.892 C 203.869 204.833,199.682 204.642,199.507 204.467 C 199.093 204.053,199.092 110.748,199.507 110.333 C 199.681 110.159,203.869 109.967,208.812 109.908 L 217.800 109.800 217.910 103.491 C 217.995 98.659,217.901 97.140,217.510 97.001 C 216.699 96.712,199.719 96.581,191.519 96.800 M208.900 97.595 L 217.600 97.600 217.600 103.357 C 217.600 110.305,218.727 109.600,207.616 109.600 C 200.861 109.600,198.799 109.719,198.458 110.131 C 197.862 110.848,197.826 203.328,198.421 204.438 C 198.801 205.150,199.384 205.200,207.314 205.205 C 218.754 205.213,217.600 204.515,217.600 211.426 L 217.600 217.159 208.300 217.279 C 203.185 217.346,195.670 217.310,191.600 217.200 L 184.200 217.000 184.099 157.309 L 183.997 97.618 191.299 97.493 C 195.314 97.423,198.960 97.417,199.400 97.478 C 199.840 97.539,204.115 97.592,208.900 97.595 M392.000 242.921 C 392.000 243.024,392.278 243.624,392.618 244.254 L 393.235 245.400 393.118 244.231 C 393.026 243.319,392.000 242.117,392.000 242.921 M392.899 339.886 C 392.802 416.625,392.787 417.979,392.026 418.386 C 390.798 419.043,9.558 418.958,8.705 418.300 C 8.348 418.025,7.972 417.350,7.868 416.800 C 7.764 416.250,7.706 416.520,7.739 417.400 L 7.800 419.000 200.312 419.100 C 354.113 419.181,392.863 419.100,393.015 418.700 C 393.120 418.425,393.159 383.010,393.102 340.000 L 392.998 261.800 392.899 339.886 M76.700 275.500 C 83.135 275.562,93.665 275.562,100.100 275.500 C 106.535 275.438,101.270 275.387,88.400 275.387 C 75.530 275.387,70.265 275.438,76.700 275.500 M194.928 275.500 C 200.168 275.563,208.628 275.563,213.728 275.500 C 218.827 275.436,214.540 275.385,204.200 275.385 C 193.860 275.385,189.687 275.437,194.928 275.500 M263.676 275.499 C 266.468 275.567,271.148 275.568,274.076 275.499 C 277.004 275.431,274.720 275.375,269.000 275.374 C 263.280 275.374,260.884 275.430,263.676 275.499 M330.100 275.499 C 332.905 275.568,337.495 275.568,340.300 275.499 C 343.105 275.430,340.810 275.374,335.200 275.374 C 329.590 275.374,327.295 275.430,330.100 275.499 M114.000 276.000 C 115.368 276.438,116.419 276.438,115.400 276.000 C 114.960 275.811,114.240 275.662,113.800 275.668 C 113.157 275.677,113.196 275.743,114.000 276.000 M63.394 329.800 C 63.394 359.500,63.442 371.709,63.500 356.931 C 63.558 342.153,63.558 317.853,63.500 302.931 C 63.442 288.009,63.394 300.100,63.394 329.800 M121.600 277.488 C 122.150 277.587,122.771 277.832,122.980 278.034 C 123.189 278.235,123.729 278.393,124.180 278.384 C 124.781 278.373,124.641 278.213,123.654 277.784 C 122.914 277.463,121.924 277.225,121.454 277.254 C 120.732 277.301,120.754 277.337,121.600 277.488 M280.809 277.500 C 280.814 277.665,281.185 278.250,281.633 278.800 L 282.448 279.800 281.814 278.500 C 281.211 277.265,280.789 276.845,280.809 277.500 M183.646 278.867 C 183.621 279.234,183.496 279.864,183.370 280.267 C 183.152 280.962,183.163 280.963,183.597 280.287 C 183.848 279.896,183.973 279.266,183.873 278.887 C 183.711 278.268,183.688 278.266,183.646 278.867 M225.659 283.800 C 225.646 284.240,225.898 285.500,226.219 286.600 C 226.667 288.136,226.763 288.275,226.633 287.200 C 226.403 285.303,225.688 282.805,225.659 283.800 M262.000 284.247 C 262.000 284.467,262.656 285.716,263.458 287.024 C 264.259 288.331,265.939 291.200,267.191 293.400 C 274.628 306.472,277.600 311.376,277.600 310.573 C 277.600 310.346,277.442 309.989,277.249 309.780 C 277.057 309.571,276.446 308.590,275.892 307.600 C 273.917 304.071,267.452 292.941,265.344 289.440 C 264.165 287.482,263.194 285.772,263.187 285.640 C 263.164 285.204,262.000 283.838,262.000 284.247 M137.000 286.000 C 137.859 286.880,138.652 287.600,138.762 287.600 C 138.872 287.600,138.259 286.880,137.400 286.000 C 136.541 285.120,135.748 284.400,135.638 284.400 C 135.528 284.400,136.141 285.120,137.000 286.000 M340.506 287.487 C 338.048 291.650,337.345 293.109,338.095 292.487 C 338.435 292.204,338.949 291.394,339.237 290.687 C 339.525 289.979,340.370 288.440,341.114 287.267 C 341.858 286.094,342.386 285.053,342.287 284.954 C 342.188 284.855,341.386 285.995,340.506 287.487 M181.649 286.800 C 181.616 287.130,181.489 287.850,181.367 288.400 C 181.175 289.264,181.207 289.303,181.599 288.688 C 181.848 288.297,181.975 287.577,181.881 287.088 C 181.786 286.600,181.682 286.470,181.649 286.800 M286.400 287.284 C 286.400 287.773,288.095 290.438,288.285 290.248 C 288.387 290.146,288.005 289.376,287.436 288.538 C 286.866 287.700,286.400 287.136,286.400 287.284 M226.812 289.200 C 226.812 289.530,226.987 290.070,227.200 290.400 C 227.545 290.933,227.588 290.933,227.588 290.400 C 227.588 290.070,227.413 289.530,227.200 289.200 C 226.855 288.667,226.812 288.667,226.812 289.200 M141.708 292.455 C 142.639 294.135,143.457 295.458,143.527 295.394 C 143.741 295.200,141.734 291.452,140.850 290.396 C 140.392 289.848,140.778 290.775,141.708 292.455 M315.800 291.200 C 315.459 291.860,315.269 292.400,315.379 292.400 C 315.489 292.400,315.859 291.860,316.200 291.200 C 316.541 290.540,316.731 290.000,316.621 290.000 C 316.511 290.000,316.141 290.540,315.800 291.200 M288.467 291.113 C 289.044 292.469,292.930 298.804,293.087 298.646 C 293.197 298.536,292.939 297.941,292.512 297.323 C 292.086 296.705,291.068 294.985,290.249 293.500 C 289.042 291.310,287.898 289.778,288.467 291.113 M227.620 292.600 C 227.616 292.820,227.867 293.810,228.179 294.800 C 228.682 296.395,228.748 296.463,228.759 295.400 C 228.766 294.740,228.514 293.750,228.200 293.200 C 227.886 292.650,227.625 292.380,227.620 292.600 M200.474 293.311 C 199.960 293.930,198.637 299.570,198.935 299.869 C 199.052 299.985,199.343 299.298,199.583 298.340 C 199.823 297.383,200.218 295.835,200.461 294.900 L 200.904 293.200 203.829 293.200 C 206.399 293.200,206.830 293.308,207.377 294.089 C 207.998 294.975,208.000 294.975,208.000 294.132 C 208.000 292.758,201.520 292.051,200.474 293.311 M314.020 294.361 C 313.560 295.263,313.260 296.000,313.352 296.000 C 313.653 296.000,315.238 293.105,315.044 292.911 C 314.941 292.807,314.480 293.460,314.020 294.361 M336.423 294.650 C 335.953 295.448,335.652 296.186,335.756 296.289 C 335.859 296.393,336.320 295.740,336.780 294.839 C 337.815 292.811,337.581 292.688,336.423 294.650 M83.043 294.233 C 82.654 295.246,82.774 366.539,83.165 367.158 C 83.696 367.996,107.010 367.537,109.600 366.638 C 110.673 366.266,110.915 366.100,110.200 366.227 C 103.996 367.330,85.112 367.491,83.861 366.451 C 83.094 365.814,82.831 296.003,83.591 294.800 C 83.904 294.304,85.648 294.163,93.685 293.986 L 103.400 293.772 93.343 293.686 C 84.490 293.610,83.257 293.676,83.043 294.233 M107.400 294.411 C 108.500 294.575,110.120 294.822,111.000 294.960 L 112.600 295.210 111.200 294.635 C 110.430 294.319,108.810 294.073,107.600 294.087 L 105.400 294.113 107.400 294.411 M113.233 295.357 C 113.686 295.782,118.791 297.910,118.594 297.591 C 118.382 297.247,117.440 296.781,114.681 295.656 C 113.555 295.197,112.925 295.067,113.233 295.357 M208.170 296.200 C 208.565 298.806,209.292 301.830,209.661 302.400 C 209.937 302.827,209.978 302.654,209.804 301.800 C 209.670 301.140,209.404 299.790,209.213 298.800 C 208.770 296.507,207.880 294.289,208.170 296.200 M143.628 296.200 C 143.628 296.420,143.886 297.050,144.200 297.600 C 144.514 298.150,144.772 298.420,144.772 298.200 C 144.772 297.980,144.514 297.350,144.200 296.800 C 143.886 296.250,143.628 295.980,143.628 296.200 M312.023 297.850 C 311.553 298.648,311.252 299.386,311.356 299.489 C 311.459 299.593,311.920 298.940,312.380 298.039 C 313.415 296.011,313.181 295.888,312.023 297.850 M228.846 297.200 C 228.865 297.530,229.024 298.250,229.200 298.800 L 229.520 299.800 229.554 298.800 C 229.573 298.250,229.413 297.530,229.200 297.200 C 228.855 296.667,228.816 296.667,228.846 297.200 M333.022 300.650 C 331.782 302.768,330.850 304.583,330.951 304.685 C 331.052 304.786,331.359 304.448,331.633 303.934 C 332.409 302.478,333.598 300.360,334.684 298.500 C 335.229 297.565,335.586 296.800,335.476 296.800 C 335.366 296.800,334.261 298.533,333.022 300.650 M119.206 298.297 C 119.210 298.464,120.147 299.500,121.289 300.600 C 122.665 301.925,123.082 302.195,122.525 301.400 C 121.585 300.060,119.197 297.826,119.206 298.297 M178.491 299.777 C 178.221 300.786,178.012 301.924,178.026 302.306 C 178.041 302.688,178.315 302.023,178.636 300.830 C 178.957 299.636,179.166 298.498,179.100 298.301 C 179.035 298.104,178.760 298.769,178.491 299.777 M293.221 299.600 C 293.225 299.930,293.687 300.740,294.247 301.400 L 295.265 302.600 294.647 301.400 C 293.614 299.393,293.211 298.885,293.221 299.600 M229.837 301.200 C 230.382 304.315,231.505 308.425,231.559 307.506 C 231.608 306.671,230.896 303.607,230.140 301.400 C 229.605 299.839,229.598 299.834,229.837 301.200 M198.061 302.600 C 197.765 303.920,197.361 305.413,197.162 305.919 C 196.963 306.424,196.814 307.234,196.830 307.719 C 196.874 308.982,197.929 306.161,197.970 304.674 C 197.986 304.054,198.191 303.190,198.425 302.753 C 198.659 302.316,198.794 301.563,198.724 301.079 C 198.651 300.568,198.373 301.204,198.061 302.600 M145.668 301.800 C 145.662 302.240,145.811 302.960,146.000 303.400 C 146.438 304.419,146.438 303.368,146.000 302.000 C 145.743 301.196,145.677 301.157,145.668 301.800 M123.690 303.900 C 124.258 305.219,125.200 306.700,125.200 306.273 C 125.200 305.844,123.623 302.800,123.400 302.800 C 123.300 302.800,123.430 303.295,123.690 303.900 M295.200 302.921 C 295.200 303.061,295.531 303.766,295.935 304.488 C 296.339 305.210,296.893 306.220,297.167 306.734 C 297.441 307.248,297.748 307.585,297.851 307.483 C 297.953 307.381,297.469 306.330,296.776 305.148 C 295.420 302.837,295.200 302.527,295.200 302.921 M177.473 303.753 C 177.323 304.145,177.211 304.766,177.225 305.133 C 177.242 305.575,177.381 305.474,177.637 304.834 C 177.849 304.303,177.961 303.682,177.885 303.454 C 177.809 303.227,177.624 303.361,177.473 303.753 M307.644 305.844 C 306.032 308.822,306.259 309.049,307.933 306.133 C 308.642 304.899,309.147 303.813,309.054 303.721 C 308.962 303.628,308.327 304.584,307.644 305.844 M210.032 304.481 C 210.014 304.856,210.163 305.576,210.362 306.081 C 210.561 306.587,210.950 308.036,211.226 309.302 C 211.503 310.568,211.809 311.524,211.907 311.426 C 212.110 311.224,211.356 307.804,210.580 305.400 C 210.296 304.520,210.049 304.107,210.032 304.481 M329.623 306.650 C 329.153 307.448,328.833 308.166,328.913 308.246 C 328.992 308.326,329.461 307.673,329.954 306.796 C 331.075 304.802,330.788 304.677,329.623 306.650 M176.436 308.289 C 176.175 309.340,175.790 310.753,175.581 311.428 C 175.371 312.104,175.209 312.914,175.219 313.228 C 175.230 313.543,175.470 313.080,175.754 312.200 C 176.534 309.781,177.246 306.712,177.068 306.535 C 176.981 306.448,176.697 307.237,176.436 308.289 M125.396 307.600 C 125.921 309.688,126.770 313.855,126.945 315.200 C 127.045 315.970,127.065 315.520,126.989 314.200 C 126.825 311.354,126.188 308.226,125.581 307.279 C 125.221 306.719,125.189 306.775,125.396 307.600 M146.868 307.400 C 146.874 307.840,147.024 308.650,147.200 309.200 L 147.520 310.200 147.532 309.200 C 147.538 308.650,147.389 307.840,147.200 307.400 L 146.856 306.600 146.868 307.400 M298.000 308.177 C 298.000 308.571,299.711 311.222,299.866 311.067 C 299.958 310.976,299.647 310.248,299.177 309.450 C 298.400 308.133,298.000 307.701,298.000 308.177 M231.634 309.000 C 231.622 309.440,231.787 310.070,232.000 310.400 C 232.514 311.195,232.514 310.196,232.000 309.000 L 231.656 308.200 231.634 309.000 M196.027 310.700 C 195.764 311.745,195.392 313.230,195.200 314.000 C 195.008 314.770,194.634 316.260,194.370 317.311 C 194.106 318.363,193.987 319.320,194.106 319.439 C 194.303 319.636,195.124 316.688,196.010 312.600 C 196.201 311.720,196.478 310.505,196.625 309.900 C 196.773 309.295,196.806 308.800,196.699 308.800 C 196.592 308.800,196.289 309.655,196.027 310.700 M305.742 309.273 C 304.267 311.572,304.002 312.771,305.436 310.662 C 306.005 309.824,306.383 309.050,306.276 308.942 C 306.168 308.835,305.928 308.984,305.742 309.273 M327.497 310.273 C 327.397 310.453,326.821 311.455,326.219 312.500 C 325.617 313.545,325.276 314.400,325.462 314.400 C 325.886 314.399,328.149 310.416,327.879 310.145 C 327.770 310.036,327.598 310.094,327.497 310.273 M147.914 314.800 C 148.277 319.625,148.286 337.800,147.927 342.800 L 147.655 346.600 148.197 343.200 C 148.948 338.496,148.944 320.335,148.192 315.000 L 147.627 311.000 147.914 314.800 M277.609 311.420 C 277.614 311.629,277.970 312.250,278.400 312.800 C 278.830 313.350,279.186 314.003,279.191 314.251 C 279.196 314.499,279.508 314.949,279.884 315.251 C 280.329 315.608,280.171 315.102,279.431 313.800 C 278.168 311.579,277.595 310.831,277.609 311.420 M300.000 311.670 C 300.000 312.408,302.125 315.527,302.522 315.373 C 303.169 315.122,304.492 312.753,304.158 312.446 C 304.011 312.311,303.809 312.428,303.710 312.707 C 303.169 314.221,302.349 314.444,301.495 313.308 C 300.353 311.787,300.000 311.401,300.000 311.670 M232.619 312.800 C 232.752 313.350,233.014 314.520,233.203 315.400 C 233.651 317.495,234.541 319.659,234.191 317.800 C 233.756 315.496,233.295 313.793,232.838 312.800 L 232.377 311.800 232.619 312.800 M212.000 312.806 C 212.000 313.103,212.371 314.798,212.824 316.573 C 213.276 318.348,213.841 320.570,214.079 321.511 C 214.316 322.453,214.605 323.129,214.720 323.013 C 214.835 322.898,214.730 322.128,214.485 321.302 C 214.241 320.476,213.653 318.180,213.178 316.200 C 212.334 312.682,212.000 311.719,212.000 312.806 M323.467 317.467 C 322.655 318.928,322.064 320.197,322.154 320.288 C 322.245 320.378,322.964 319.237,323.752 317.752 C 325.616 314.243,325.386 314.013,323.467 317.467 M127.485 321.200 C 127.607 323.730,127.773 325.875,127.853 325.967 C 128.149 326.303,127.943 319.750,127.609 318.200 C 127.382 317.148,127.340 318.175,127.485 321.200 M173.648 319.247 C 173.345 320.482,173.197 321.742,173.317 322.047 C 173.438 322.351,173.551 322.093,173.568 321.474 C 173.586 320.854,173.791 319.990,174.025 319.553 C 174.259 319.116,174.394 318.363,174.324 317.879 C 174.246 317.332,173.991 317.847,173.648 319.247 M281.206 317.277 C 281.198 317.639,282.828 320.400,283.050 320.400 C 283.144 320.400,282.953 319.905,282.625 319.300 C 281.810 317.795,281.213 316.944,281.206 317.277 M234.400 320.510 C 234.400 321.083,234.587 321.668,234.816 321.810 C 235.089 321.979,235.138 321.677,234.960 320.934 C 234.592 319.401,234.400 319.256,234.400 320.510 M193.300 321.739 C 192.603 324.348,192.725 325.424,193.450 323.064 C 193.777 322.000,193.990 320.845,193.922 320.498 C 193.855 320.151,193.575 320.710,193.300 321.739 M283.229 321.100 C 283.245 321.265,283.595 321.940,284.005 322.600 C 288.645 330.055,288.937 331.408,286.662 334.944 C 285.833 336.233,285.240 337.373,285.345 337.478 C 285.540 337.673,285.729 337.397,287.942 333.694 C 289.515 331.060,289.510 330.846,287.800 328.173 C 287.030 326.969,286.400 325.911,286.400 325.821 C 286.400 325.549,283.518 320.800,283.353 320.800 C 283.269 320.800,283.213 320.935,283.229 321.100 M319.830 323.814 C 318.823 325.472,318.000 326.916,318.000 327.023 C 318.000 327.130,317.529 327.928,316.954 328.798 C 315.794 330.551,315.860 331.718,317.227 333.637 C 317.652 334.235,318.000 334.899,318.000 335.113 C 318.000 335.327,318.270 335.726,318.600 336.000 C 319.472 336.724,319.339 336.204,318.183 334.373 C 316.146 331.147,316.294 330.523,320.946 322.700 C 321.568 321.655,321.982 320.800,321.868 320.800 C 321.754 320.800,320.836 322.156,319.830 323.814 M172.600 323.600 C 172.450 324.073,172.417 324.550,172.527 324.660 C 172.637 324.770,172.850 324.473,173.000 324.000 C 173.150 323.527,173.183 323.050,173.073 322.940 C 172.963 322.830,172.750 323.127,172.600 323.600 M235.233 323.400 C 235.221 323.840,235.467 325.010,235.779 326.000 C 236.091 326.990,236.356 327.440,236.367 327.000 C 236.379 326.560,236.133 325.390,235.821 324.400 C 235.509 323.410,235.244 322.960,235.233 323.400 M192.249 325.815 C 192.112 326.173,192.016 326.856,192.036 327.333 C 192.062 327.947,192.185 327.808,192.459 326.856 C 192.857 325.472,192.694 324.658,192.249 325.815 M172.046 326.067 C 172.021 326.434,171.896 327.064,171.770 327.467 C 171.552 328.162,171.563 328.163,171.997 327.487 C 172.248 327.096,172.373 326.466,172.273 326.087 C 172.111 325.468,172.088 325.466,172.046 326.067 M215.664 327.600 C 215.648 328.150,215.898 329.500,216.219 330.600 C 216.657 332.103,216.758 332.252,216.624 331.200 C 216.321 328.813,215.696 326.471,215.664 327.600 M236.400 328.387 C 236.400 328.673,236.594 329.648,236.832 330.554 C 237.069 331.459,237.418 332.830,237.606 333.600 C 238.661 337.905,238.928 338.805,239.098 338.635 C 239.287 338.446,238.924 336.747,237.510 331.206 C 236.760 328.268,236.400 327.354,236.400 328.387 M170.692 331.319 C 170.318 332.904,169.907 334.650,169.779 335.200 C 169.612 335.915,169.651 336.029,169.917 335.600 C 170.386 334.846,171.784 328.850,171.547 328.613 C 171.450 328.517,171.066 329.734,170.692 331.319 M191.309 330.000 C 191.053 330.990,190.759 332.250,190.655 332.800 C 190.551 333.350,189.985 335.600,189.397 337.800 C 187.900 343.404,187.544 345.304,187.922 345.682 C 188.102 345.862,195.348 345.962,204.025 345.905 L 219.800 345.800 219.699 343.863 C 219.544 340.873,218.823 340.075,218.920 343.000 L 219.000 345.400 204.600 345.512 C 186.397 345.652,188.140 346.135,189.008 341.200 C 189.144 340.430,189.399 339.440,189.576 339.000 C 189.753 338.560,190.211 336.760,190.594 335.000 C 190.976 333.240,191.465 331.319,191.680 330.732 C 191.895 330.144,192.004 329.334,191.923 328.932 C 191.835 328.497,191.586 328.930,191.309 330.000 M127.506 335.400 C 127.185 340.227,126.596 345.206,126.016 348.000 C 125.115 352.345,125.116 352.341,125.739 350.800 C 126.800 348.175,128.206 336.805,127.940 333.000 C 127.841 331.590,127.713 332.299,127.506 335.400 M216.812 333.200 C 216.812 333.530,216.987 334.070,217.200 334.400 C 217.545 334.933,217.588 334.933,217.588 334.400 C 217.588 334.070,217.413 333.530,217.200 333.200 C 216.855 332.667,216.812 332.667,216.812 333.200 M217.647 336.000 C 217.628 336.550,217.880 337.810,218.208 338.800 C 218.754 340.449,218.789 340.483,218.634 339.200 C 218.359 336.940,217.690 334.769,217.647 336.000 M319.200 336.972 C 319.200 337.139,319.534 337.754,319.943 338.338 C 320.351 338.922,321.182 340.300,321.790 341.400 C 323.027 343.642,326.473 349.607,328.902 353.713 C 329.785 355.205,330.584 356.350,330.677 356.257 C 330.770 356.164,330.206 355.086,329.423 353.863 C 328.640 352.639,328.000 351.554,328.000 351.452 C 328.000 351.349,326.920 349.436,325.600 347.200 C 324.280 344.964,323.200 343.077,323.200 343.005 C 323.200 342.830,319.707 337.173,319.424 336.891 C 319.301 336.767,319.200 336.804,319.200 336.972 M284.313 338.888 C 283.489 340.152,282.348 342.400,282.530 342.400 C 282.796 342.400,285.237 338.303,285.070 338.136 C 284.981 338.048,284.641 338.386,284.313 338.888 M168.649 339.415 C 168.512 339.773,168.418 340.456,168.441 340.933 C 168.467 341.481,168.603 341.286,168.810 340.403 C 169.160 338.916,169.065 338.333,168.649 339.415 M239.212 340.200 C 239.212 340.640,239.387 341.270,239.600 341.600 C 239.921 342.097,239.988 342.062,239.988 341.400 C 239.988 340.960,239.813 340.330,239.600 340.000 C 239.279 339.503,239.212 339.538,239.212 340.200 M167.800 342.800 C 167.650 343.273,167.617 343.750,167.727 343.860 C 167.837 343.970,168.050 343.673,168.200 343.200 C 168.350 342.727,168.383 342.250,168.273 342.140 C 168.163 342.030,167.950 342.327,167.800 342.800 M240.047 343.000 C 240.028 343.440,240.281 344.610,240.610 345.600 C 241.000 346.774,241.146 346.983,241.031 346.200 C 240.748 344.271,240.085 342.118,240.047 343.000 M281.673 343.287 C 281.413 343.547,281.200 343.913,281.200 344.099 C 281.200 344.286,280.579 345.409,279.821 346.595 C 278.374 348.856,276.496 352.395,276.990 351.928 C 277.463 351.481,282.402 343.069,282.269 342.936 C 282.202 342.868,281.934 343.026,281.673 343.287 M166.855 347.022 C 166.583 348.110,166.190 349.553,165.981 350.228 C 165.585 351.504,165.473 352.661,165.773 352.360 C 166.102 352.031,167.631 345.894,167.490 345.470 C 167.412 345.235,167.126 345.934,166.855 347.022 M299.783 350.087 C 298.515 352.349,296.935 355.190,296.272 356.400 C 295.608 357.610,294.646 359.271,294.133 360.092 C 293.620 360.913,293.200 361.681,293.200 361.800 C 293.200 361.919,292.750 362.729,292.200 363.600 C 291.149 365.264,290.963 365.794,291.556 365.427 C 291.752 365.306,292.400 364.260,292.996 363.103 C 293.593 361.947,294.576 360.190,295.181 359.200 C 295.786 358.210,297.596 355.121,299.203 352.336 C 302.088 347.335,302.841 346.638,303.412 348.437 C 303.545 348.857,303.826 349.200,304.037 349.200 C 304.508 349.200,303.473 347.124,302.670 346.458 C 302.182 346.053,301.715 346.639,299.783 350.087 M241.420 348.600 C 241.930 351.346,242.359 353.219,243.386 357.200 C 243.982 359.510,244.637 362.206,244.840 363.191 C 245.250 365.177,246.634 370.735,247.183 372.600 C 247.377 373.260,247.649 374.524,247.787 375.408 C 247.926 376.293,248.225 377.283,248.451 377.608 C 248.993 378.387,248.728 377.085,246.576 368.400 C 246.003 366.090,245.377 363.480,245.184 362.600 C 244.654 360.188,243.738 356.477,243.032 353.880 C 242.684 352.605,242.392 351.165,242.382 350.680 C 242.372 350.196,242.101 349.260,241.780 348.600 L 241.197 347.400 241.420 348.600 M147.019 349.927 C 146.855 350.877,146.817 351.750,146.934 351.868 C 147.226 352.159,147.726 349.373,147.500 348.721 C 147.400 348.435,147.184 348.977,147.019 349.927 M304.405 349.824 C 304.402 350.056,305.037 351.304,305.815 352.596 C 306.593 353.888,307.715 355.858,308.309 356.973 C 308.903 358.088,309.976 359.936,310.694 361.081 C 311.413 362.225,312.000 363.234,312.000 363.323 C 312.000 363.634,316.076 370.604,316.490 371.000 C 316.975 371.464,315.979 369.605,310.601 360.000 C 306.188 352.120,304.412 349.202,304.405 349.824 M123.504 355.467 C 121.606 359.501,118.496 362.713,114.621 364.641 C 113.070 365.413,112.160 365.924,112.600 365.777 C 113.040 365.630,113.760 365.410,114.200 365.288 C 117.950 364.252,125.895 355.085,125.103 352.708 C 125.034 352.502,124.315 353.744,123.504 355.467 M146.432 353.172 C 146.414 353.706,146.234 354.696,146.031 355.372 C 145.828 356.047,145.369 357.680,145.010 359.000 C 144.262 361.748,144.042 362.335,142.847 364.757 C 142.370 365.723,142.048 366.581,142.131 366.664 C 142.275 366.808,143.801 363.871,144.449 362.200 C 145.759 358.826,147.004 353.563,146.683 352.754 C 146.559 352.443,146.449 352.626,146.432 353.172 M272.779 358.700 C 271.407 361.065,270.210 363.135,270.119 363.300 C 270.027 363.465,270.038 363.600,270.141 363.600 C 270.245 363.600,271.135 362.205,272.119 360.500 C 273.103 358.795,274.306 356.725,274.793 355.900 C 275.280 355.075,275.588 354.400,275.476 354.400 C 275.365 354.400,274.151 356.335,272.779 358.700 M164.454 356.667 C 164.425 357.144,164.296 357.864,164.170 358.267 C 163.952 358.961,163.964 358.962,164.396 358.288 C 164.647 357.897,164.775 357.177,164.681 356.688 C 164.509 355.801,164.509 355.801,164.454 356.667 M330.809 357.011 C 330.814 357.225,331.170 357.850,331.600 358.400 C 332.030 358.950,332.386 359.603,332.391 359.851 C 332.396 360.099,332.687 360.541,333.039 360.832 C 333.480 361.199,333.404 360.874,332.790 359.781 C 331.598 357.656,330.798 356.538,330.809 357.011 M162.600 364.000 C 162.217 365.561,161.995 366.928,162.105 367.038 C 162.215 367.148,162.598 365.941,162.956 364.356 C 163.803 360.605,163.505 360.307,162.600 364.000 M333.600 361.786 C 333.600 362.109,338.960 371.347,339.991 372.800 C 340.874 374.045,339.404 371.237,336.694 366.500 C 334.153 362.060,333.600 361.217,333.600 361.786 M183.722 364.257 C 183.197 364.471,182.199 367.133,182.523 367.457 C 182.635 367.568,182.959 367.016,183.244 366.230 C 183.701 364.966,183.925 364.797,185.180 364.772 C 186.338 364.749,186.452 364.680,185.800 364.400 C 184.894 364.011,184.410 363.978,183.722 364.257 M222.600 364.689 C 223.769 364.977,224.400 365.596,224.400 366.454 C 224.400 366.870,224.566 367.523,224.770 367.905 C 224.973 368.287,225.372 369.500,225.657 370.600 C 225.966 371.793,226.236 372.296,226.327 371.847 C 226.410 371.434,226.296 370.714,226.073 370.247 C 225.849 369.781,225.347 368.275,224.957 366.900 C 224.280 364.512,224.194 364.402,223.024 364.446 C 222.176 364.479,222.046 364.553,222.600 364.689 M268.126 366.500 C 267.344 367.715,266.800 368.933,266.965 369.098 C 267.064 369.197,267.520 368.540,267.980 367.639 C 268.758 366.114,268.854 365.368,268.126 366.500 M289.447 368.429 C 287.894 371.035,287.561 371.901,288.706 370.354 C 289.600 369.147,291.310 366.000,291.072 366.000 C 290.974 366.000,290.242 367.093,289.447 368.429 M141.224 368.118 C 140.923 368.603,140.415 369.405,140.093 369.900 C 139.771 370.395,139.616 370.800,139.749 370.800 C 140.060 370.800,142.104 367.571,141.914 367.380 C 141.835 367.301,141.524 367.633,141.224 368.118 M182.046 368.572 C 182.021 368.996,181.832 369.896,181.627 370.572 C 181.422 371.247,181.067 372.520,180.838 373.400 C 180.609 374.280,180.130 376.080,179.774 377.400 C 179.417 378.720,178.978 380.430,178.797 381.200 C 178.616 381.970,178.281 383.303,178.052 384.161 C 177.824 385.020,177.795 385.560,177.988 385.361 C 178.181 385.163,178.704 383.560,179.151 381.800 C 179.598 380.040,180.516 376.440,181.192 373.801 C 181.868 371.161,182.347 368.731,182.257 368.401 C 182.146 367.996,182.078 368.051,182.046 368.572 M265.751 370.700 C 265.385 371.305,264.451 372.755,263.678 373.923 C 262.402 375.848,260.005 380.325,260.002 380.789 C 259.998 381.235,261.478 378.810,266.037 370.900 C 266.945 369.325,266.692 369.148,265.751 370.700 M137.237 373.647 C 133.963 377.449,127.544 381.432,122.200 382.978 C 120.880 383.360,119.387 383.836,118.881 384.036 C 118.376 384.236,117.386 384.425,116.681 384.454 C 115.716 384.496,115.625 384.552,116.315 384.684 C 119.175 385.232,128.600 381.442,133.012 377.970 C 136.011 375.609,139.844 371.599,139.100 371.600 C 139.045 371.600,138.207 372.521,137.237 373.647 M287.014 372.635 C 286.641 373.204,286.427 373.761,286.539 373.872 C 286.650 373.983,287.029 373.518,287.381 372.837 C 288.159 371.333,287.944 371.215,287.014 372.635 M316.800 371.920 C 316.800 372.096,316.958 372.411,317.151 372.620 C 317.344 372.829,318.094 374.080,318.817 375.400 C 321.631 380.540,323.215 383.200,323.461 383.200 C 323.665 383.200,320.823 377.936,318.116 373.300 C 317.146 371.638,316.800 371.275,316.800 371.920 M226.436 373.200 C 226.423 373.530,226.671 374.520,226.988 375.400 C 227.305 376.280,227.559 376.640,227.552 376.200 C 227.536 375.223,226.471 372.358,226.436 373.200 M340.513 373.800 C 341.038 375.029,344.134 379.999,344.282 379.851 C 344.379 379.755,343.995 378.942,343.429 378.046 C 342.863 377.149,342.399 376.277,342.398 376.108 C 342.397 375.939,341.934 375.260,341.369 374.600 C 340.804 373.940,340.419 373.580,340.513 373.800 M159.300 377.167 C 158.593 379.458,158.713 380.556,159.443 378.473 C 159.776 377.523,159.992 376.476,159.924 376.147 C 159.856 375.817,159.575 376.276,159.300 377.167 M284.323 377.322 C 282.664 379.962,280.657 383.900,281.496 382.866 C 281.913 382.352,282.597 381.272,283.016 380.466 C 283.435 379.660,284.200 378.308,284.718 377.462 C 285.235 376.616,285.595 375.861,285.517 375.784 C 285.440 375.707,284.902 376.399,284.323 377.322 M227.844 378.200 C 228.173 379.671,228.402 379.990,228.394 378.967 C 228.391 378.545,228.205 377.930,227.982 377.600 C 227.685 377.162,227.648 377.324,227.844 378.200 M248.827 378.972 C 248.812 379.396,248.970 380.296,249.177 380.972 C 249.385 381.647,249.731 382.830,249.947 383.600 C 250.320 384.933,250.328 384.916,250.108 383.234 C 249.828 381.099,248.864 377.890,248.827 378.972 M345.246 381.996 C 345.739 382.873,346.208 383.526,346.287 383.446 C 346.459 383.274,344.806 380.400,344.535 380.400 C 344.433 380.400,344.752 381.118,345.246 381.996 M258.688 382.457 C 258.296 383.145,258.048 383.782,258.138 383.871 C 258.228 383.961,258.677 383.396,259.137 382.617 C 259.597 381.838,259.844 381.201,259.687 381.203 C 259.529 381.204,259.079 381.768,258.688 382.457 M229.228 383.076 C 229.213 383.558,229.380 384.064,229.600 384.200 C 230.073 384.492,230.073 384.101,229.600 383.000 C 229.269 382.229,229.255 382.231,229.228 383.076 M323.622 383.800 C 323.627 384.329,324.742 385.791,324.969 385.565 C 325.066 385.468,324.802 384.941,324.382 384.394 C 323.961 383.847,323.620 383.580,323.622 383.800 M112.200 385.200 C 111.044 385.494,111.059 385.507,112.600 385.547 C 113.480 385.569,114.470 385.413,114.800 385.200 C 115.536 384.725,114.068 384.725,112.200 385.200 M75.900 385.900 C 81.895 385.962,91.705 385.962,97.700 385.900 C 103.695 385.838,98.790 385.787,86.800 385.787 C 74.810 385.787,69.905 385.838,75.900 385.900 M163.700 385.898 C 166.065 385.969,169.935 385.969,172.300 385.898 C 174.665 385.828,172.730 385.770,168.000 385.770 C 163.270 385.770,161.335 385.828,163.700 385.898 M235.678 385.898 C 238.031 385.969,241.991 385.969,244.478 385.899 C 246.965 385.829,245.040 385.771,240.200 385.770 C 235.360 385.770,233.325 385.828,235.678 385.898 M264.723 385.899 C 267.431 385.968,271.751 385.968,274.323 385.899 C 276.895 385.829,274.680 385.772,269.400 385.773 C 264.120 385.773,262.015 385.830,264.723 385.899 M330.300 385.899 C 332.995 385.968,337.405 385.968,340.100 385.899 C 342.795 385.830,340.590 385.773,335.200 385.773 C 329.810 385.773,327.605 385.830,330.300 385.899 " stroke="none" fill="#a1908f" fill-rule="evenodd"></path><path id="path4" d="M86.100 21.065 C 85.702 21.226,85.600 43.666,85.600 131.390 L 85.600 241.513 84.584 241.768 C 84.025 241.909,67.060 242.013,46.884 242.000 C 26.708 241.987,9.634 241.981,8.943 241.988 C 8.130 241.996,7.584 242.247,7.398 242.700 C 6.949 243.791,6.753 417.425,7.200 418.599 L 7.581 419.601 200.490 419.500 L 393.400 419.400 393.494 331.200 C 393.546 282.690,393.440 242.767,393.259 242.481 C 392.993 242.062,385.534 241.968,354.270 241.990 C 333.007 242.005,315.158 241.904,314.605 241.766 L 313.600 241.513 313.600 159.939 L 313.600 78.365 284.827 49.582 C 269.002 33.752,255.904 20.800,255.720 20.800 C 255.537 20.800,268.395 33.803,284.293 49.695 L 313.198 78.591 313.299 160.795 L 313.400 243.000 353.200 243.090 L 393.000 243.181 393.000 331.090 L 393.000 419.000 200.620 419.100 C 94.812 419.156,8.142 419.066,8.020 418.900 C 7.899 418.735,7.848 379.090,7.906 330.800 L 8.012 243.000 46.906 243.000 L 85.800 243.000 86.000 132.200 L 86.200 21.400 150.800 21.198 L 215.400 20.996 151.000 20.930 C 115.580 20.893,86.375 20.954,86.100 21.065 M225.300 21.100 C 230.745 21.163,239.655 21.163,245.100 21.100 C 250.545 21.037,246.090 20.985,235.200 20.985 C 224.310 20.985,219.855 21.037,225.300 21.100 M184.198 157.200 L 184.200 217.000 191.600 217.200 C 195.670 217.310,203.230 217.299,208.400 217.176 L 217.800 216.952 208.400 216.889 C 203.230 216.855,195.716 216.821,191.701 216.814 L 184.403 216.800 184.299 157.100 L 184.196 97.400 184.198 157.200 M198.700 109.429 L 197.600 110.026 197.600 157.399 C 197.600 204.129,197.611 204.778,198.388 205.194 C 198.892 205.463,202.320 205.574,207.888 205.500 L 216.600 205.384 207.714 205.292 C 199.439 205.206,198.800 205.148,198.421 204.438 C 197.826 203.328,197.862 110.848,198.458 110.131 C 198.799 109.719,200.889 109.599,207.749 109.594 C 212.772 109.590,216.859 109.420,217.200 109.200 C 218.293 108.494,200.007 108.720,198.700 109.429 M335.258 275.500 C 324.678 275.619,323.708 275.799,323.613 277.662 C 323.606 277.805,322.945 279.065,322.145 280.462 C 321.345 281.858,320.059 284.170,319.286 285.600 C 318.514 287.030,317.278 289.245,316.541 290.521 C 315.803 291.798,315.200 292.927,315.200 293.029 C 315.200 293.132,314.781 293.887,314.270 294.708 C 313.758 295.529,312.611 297.550,311.721 299.200 C 310.831 300.850,309.748 302.830,309.315 303.600 C 308.418 305.191,306.038 309.542,304.282 312.800 C 302.395 316.298,302.412 316.300,300.241 312.288 C 299.433 310.796,298.395 308.906,297.934 308.088 C 297.472 307.269,296.474 305.430,295.715 304.000 C 294.956 302.570,294.080 301.116,293.767 300.769 C 293.455 300.421,293.200 299.941,293.200 299.702 C 293.200 299.462,292.420 297.946,291.467 296.333 C 290.514 294.720,289.134 292.320,288.401 291.000 C 287.669 289.680,286.768 288.060,286.400 287.400 C 286.032 286.740,285.132 285.120,284.400 283.800 C 283.668 282.480,282.708 280.770,282.267 280.000 C 281.826 279.230,281.131 277.925,280.723 277.100 L 279.981 275.600 268.791 275.600 C 255.865 275.600,256.683 275.198,259.758 280.045 C 260.945 281.917,262.255 284.067,262.669 284.824 C 263.083 285.581,264.701 288.360,266.264 291.000 C 267.828 293.640,270.406 298.050,271.994 300.800 C 273.581 303.550,275.192 306.340,275.574 307.000 C 275.957 307.660,276.869 309.280,277.601 310.600 C 278.334 311.920,280.613 315.859,282.667 319.353 C 284.720 322.848,286.400 325.769,286.400 325.846 C 286.400 325.922,287.030 326.969,287.800 328.173 C 289.545 330.902,289.545 330.909,287.576 334.247 C 285.251 338.186,285.071 338.486,284.357 339.598 C 284.004 340.149,283.260 341.410,282.706 342.400 C 282.151 343.390,279.311 348.250,276.395 353.200 C 273.479 358.150,270.102 363.910,268.891 366.000 C 267.679 368.090,266.372 370.340,265.988 371.000 C 265.603 371.660,264.396 373.730,263.305 375.600 C 262.215 377.470,260.500 380.345,259.493 381.990 C 258.487 383.634,257.750 385.119,257.855 385.290 C 258.201 385.850,279.450 385.667,279.891 385.100 C 280.104 384.825,281.049 383.160,281.989 381.400 C 282.930 379.640,284.012 377.750,284.393 377.200 C 285.039 376.268,285.481 375.500,288.254 370.500 C 288.833 369.455,289.439 368.420,289.601 368.200 C 289.867 367.837,290.373 366.933,293.519 361.200 C 294.063 360.210,294.637 359.220,294.796 359.000 C 294.955 358.780,295.623 357.610,296.281 356.400 C 296.940 355.190,298.527 352.328,299.809 350.041 L 302.139 345.882 302.970 346.907 C 303.426 347.471,304.541 349.253,305.446 350.867 C 306.352 352.480,308.764 356.770,310.806 360.400 C 312.849 364.030,314.966 367.810,315.511 368.800 C 316.055 369.790,317.090 371.590,317.810 372.800 C 319.236 375.197,320.004 376.563,322.248 380.688 C 323.059 382.179,324.068 383.895,324.489 384.500 L 325.254 385.600 335.961 385.600 C 341.849 385.600,346.767 385.499,346.890 385.376 C 347.085 385.181,341.271 374.919,336.252 366.600 C 335.323 365.060,334.249 363.170,333.865 362.400 C 333.482 361.630,332.721 360.280,332.175 359.400 C 331.630 358.520,331.065 357.530,330.921 357.200 C 330.776 356.870,330.233 355.917,329.713 355.082 C 328.722 353.491,323.402 344.292,321.685 341.200 C 321.135 340.210,320.381 338.950,320.008 338.400 C 319.635 337.850,319.210 337.130,319.062 336.800 C 318.915 336.470,318.343 335.480,317.790 334.600 C 315.704 331.276,315.631 330.729,317.000 328.714 C 317.550 327.905,318.000 327.146,318.000 327.028 C 318.000 326.910,318.750 325.596,319.666 324.107 C 320.582 322.618,321.965 320.230,322.739 318.800 C 323.513 317.370,325.033 314.670,326.117 312.800 C 329.312 307.287,329.505 306.948,331.054 304.112 C 331.869 302.621,332.926 300.770,333.404 300.000 C 334.268 298.608,334.677 297.887,338.505 291.000 C 339.606 289.020,341.113 286.452,341.853 285.292 C 342.594 284.133,343.200 283.110,343.200 283.019 C 343.200 282.928,344.107 281.360,345.217 279.534 C 347.120 276.400,347.292 274.600,345.624 275.293 C 345.501 275.344,340.836 275.437,335.258 275.500 M63.699 330.489 L 63.800 385.400 87.000 385.498 C 106.048 385.579,110.701 385.492,113.000 385.014 L 115.800 384.432 113.400 384.646 C 112.080 384.763,100.514 384.944,87.699 385.048 L 64.397 385.236 64.499 330.718 L 64.600 276.200 87.600 276.209 C 114.960 276.220,118.355 276.540,126.400 279.869 C 133.244 282.700,139.789 289.075,142.755 295.800 C 143.046 296.460,143.520 297.540,143.808 298.200 C 148.590 309.164,149.202 345.838,144.803 357.800 C 144.642 358.240,144.187 359.590,143.793 360.800 C 141.329 368.374,136.660 374.578,130.352 378.658 C 128.871 379.616,127.556 380.400,127.428 380.400 C 127.300 380.400,126.263 380.850,125.123 381.400 C 123.983 381.950,122.670 382.400,122.205 382.400 C 121.740 382.400,121.189 382.552,120.980 382.737 C 120.771 382.922,119.520 383.315,118.200 383.610 C 116.832 383.915,116.130 384.219,116.566 384.315 C 117.319 384.481,117.766 384.373,122.610 382.857 C 131.661 380.023,138.584 373.968,142.568 365.400 C 144.182 361.929,144.291 361.644,145.010 359.000 C 145.369 357.680,145.809 356.060,145.989 355.400 C 149.725 341.674,149.148 313.440,144.842 299.268 C 143.267 294.084,139.106 287.728,135.017 284.259 C 132.365 282.009,125.642 278.400,124.102 278.400 C 123.679 278.400,123.205 278.271,123.047 278.114 C 122.673 277.739,119.612 276.893,116.600 276.331 C 115.053 276.043,105.210 275.829,88.899 275.730 L 63.597 275.577 63.699 330.489 M184.492 276.500 C 184.249 276.995,183.961 278.030,183.854 278.800 C 183.663 280.160,183.428 281.235,182.408 285.400 C 182.139 286.500,181.770 288.030,181.587 288.800 C 181.405 289.570,180.965 291.280,180.609 292.600 C 179.774 295.697,179.569 296.539,177.779 304.200 C 176.957 307.720,176.040 311.371,175.742 312.314 C 175.444 313.257,175.200 314.461,175.200 314.990 C 175.200 315.520,175.039 316.052,174.842 316.174 C 174.645 316.295,174.391 317.071,174.276 317.897 C 174.024 319.718,173.329 322.915,172.824 324.579 C 172.312 326.270,171.742 328.511,170.987 331.800 C 170.634 333.340,170.181 335.140,169.980 335.800 C 169.448 337.547,167.995 343.509,167.592 345.600 C 167.401 346.590,166.944 348.480,166.576 349.800 C 166.207 351.120,165.747 352.875,165.553 353.700 C 165.359 354.525,165.028 355.875,164.818 356.700 C 164.291 358.773,162.466 366.256,162.014 368.200 C 161.809 369.080,161.347 370.880,160.987 372.200 C 160.627 373.520,160.179 375.320,159.992 376.200 C 159.804 377.080,159.350 378.880,158.981 380.200 C 158.613 381.520,158.222 383.278,158.113 384.107 L 157.915 385.614 167.843 385.507 L 177.770 385.400 178.114 384.000 C 178.302 383.230,178.607 381.970,178.791 381.200 C 178.975 380.430,179.417 378.720,179.774 377.400 C 180.130 376.080,180.582 374.370,180.778 373.600 C 182.681 366.122,183.197 364.487,183.699 364.343 C 183.974 364.265,193.212 364.250,204.227 364.311 L 224.255 364.421 224.954 366.911 C 225.338 368.280,225.821 369.713,226.026 370.095 C 226.232 370.477,226.400 371.120,226.400 371.523 C 226.400 371.927,226.649 373.055,226.953 374.029 C 227.257 375.003,227.706 376.520,227.949 377.400 C 228.193 378.280,228.858 380.485,229.426 382.300 L 230.460 385.600 239.797 385.600 C 250.724 385.600,250.442 385.654,249.921 383.675 C 249.707 382.864,249.381 381.570,249.196 380.800 C 249.011 380.030,248.573 378.500,248.224 377.400 C 247.551 375.284,247.650 376.573,248.392 379.600 C 248.635 380.590,248.939 382.255,249.068 383.300 L 249.302 385.200 240.151 385.199 L 231.000 385.197 229.914 381.699 C 228.733 377.892,227.238 372.782,226.201 369.000 C 225.839 367.680,225.259 365.925,224.911 365.100 L 224.279 363.600 204.001 363.600 C 181.161 363.600,182.674 363.388,181.978 366.689 C 181.803 367.520,181.364 369.280,181.002 370.600 C 180.640 371.920,180.254 373.540,180.145 374.200 C 180.035 374.860,179.796 375.760,179.613 376.200 C 179.431 376.640,178.974 378.260,178.599 379.800 C 178.224 381.340,177.719 383.185,177.478 383.900 L 177.039 385.200 167.673 385.200 L 158.307 385.200 158.588 384.300 C 158.743 383.805,158.999 382.673,159.158 381.785 C 159.317 380.897,159.575 379.964,159.731 379.712 C 159.887 379.460,160.201 378.386,160.430 377.327 C 161.369 372.980,161.578 372.096,162.208 369.800 C 162.571 368.480,163.017 366.680,163.200 365.800 C 163.383 364.920,163.827 363.120,164.187 361.800 C 164.547 360.480,165.005 358.680,165.204 357.800 C 165.404 356.920,166.114 354.043,166.783 351.407 C 167.453 348.772,168.000 346.237,168.000 345.774 C 168.000 345.312,168.132 344.801,168.294 344.640 C 168.574 344.360,169.392 341.171,169.844 338.600 C 169.960 337.940,170.210 337.040,170.400 336.600 C 170.590 336.160,170.835 335.260,170.945 334.600 C 171.054 333.940,171.430 332.320,171.781 331.000 C 172.132 329.680,172.585 327.880,172.788 327.000 C 173.180 325.307,174.203 321.141,174.802 318.800 C 175.000 318.030,175.347 316.533,175.573 315.473 C 175.800 314.414,176.082 313.391,176.200 313.200 C 176.396 312.882,176.594 312.056,177.588 307.400 C 177.776 306.520,178.222 304.810,178.580 303.600 C 178.938 302.390,179.387 300.590,179.577 299.600 C 179.766 298.610,180.309 296.270,180.783 294.400 C 181.257 292.530,181.802 290.370,181.994 289.600 C 182.187 288.830,182.614 287.210,182.943 286.000 C 183.273 284.790,183.763 282.810,184.032 281.600 C 184.301 280.390,184.746 278.680,185.020 277.800 L 185.519 276.200 204.324 276.096 L 223.128 275.992 223.409 277.696 C 223.564 278.633,223.829 279.580,223.998 279.800 C 224.167 280.020,224.404 280.830,224.524 281.600 C 224.737 282.969,224.999 284.145,225.992 288.200 C 226.261 289.300,226.634 290.830,226.820 291.600 C 227.006 292.370,227.556 294.530,228.042 296.400 C 228.528 298.270,229.059 300.520,229.221 301.400 C 229.383 302.280,229.827 304.080,230.208 305.400 C 230.589 306.720,231.058 308.565,231.250 309.500 C 231.933 312.821,232.357 314.630,233.008 317.000 C 233.371 318.320,233.813 320.120,233.991 321.000 C 234.299 322.526,235.600 327.816,236.400 330.800 C 237.144 333.573,238.493 339.033,238.822 340.600 C 239.006 341.480,239.361 343.190,239.609 344.400 C 239.858 345.610,240.228 346.771,240.431 346.980 C 240.634 347.189,240.800 347.806,240.800 348.352 C 240.800 348.897,240.973 349.896,241.184 350.572 C 241.984 353.133,243.310 358.663,243.492 360.200 C 243.597 361.080,243.844 361.971,244.041 362.180 C 244.238 362.389,244.401 362.839,244.402 363.180 C 244.405 364.068,245.227 366.907,245.423 366.710 C 245.620 366.513,244.859 362.975,243.379 357.200 C 242.787 354.890,242.164 352.280,241.994 351.400 C 241.679 349.763,241.007 347.033,238.600 337.600 C 236.316 328.649,235.194 323.813,235.197 322.924 C 235.199 322.442,235.020 321.936,234.800 321.800 C 234.580 321.664,234.400 321.035,234.400 320.402 C 234.400 319.770,234.207 318.745,233.970 318.126 C 233.734 317.507,233.365 316.190,233.151 315.200 C 232.936 314.210,232.602 312.770,232.407 312.000 C 232.212 311.230,231.862 309.790,231.629 308.800 C 231.396 307.810,231.031 306.370,230.819 305.600 C 230.607 304.830,229.781 301.410,228.983 298.000 C 228.185 294.590,227.291 290.900,226.995 289.800 C 226.700 288.700,226.251 286.810,225.998 285.600 C 225.745 284.390,225.372 282.847,225.169 282.172 C 224.966 281.496,224.800 280.714,224.800 280.433 C 224.800 280.153,224.517 278.950,224.172 277.762 L 223.543 275.600 204.239 275.600 L 184.935 275.600 184.492 276.500 M279.677 276.958 C 280.050 277.471,280.844 278.770,281.443 279.845 C 282.042 280.920,282.883 282.430,283.311 283.200 C 284.895 286.043,286.163 288.279,287.959 291.395 C 289.947 294.846,291.128 296.998,292.244 299.200 C 292.634 299.970,293.379 301.287,293.898 302.126 C 294.859 303.679,295.244 304.351,297.600 308.600 C 298.332 309.920,299.381 311.810,299.930 312.800 C 301.505 315.640,301.764 316.000,302.234 316.000 C 302.894 316.000,303.781 314.873,305.223 312.200 C 305.935 310.880,307.661 307.794,309.059 305.343 C 310.456 302.892,311.600 300.774,311.600 300.635 C 311.600 300.497,312.060 299.656,312.621 298.766 C 313.183 297.876,313.964 296.575,314.356 295.874 C 316.780 291.540,317.453 290.317,318.799 287.800 C 319.622 286.260,320.768 284.190,321.344 283.200 C 321.921 282.210,323.047 280.185,323.846 278.700 L 325.299 276.000 335.640 276.000 L 345.980 276.000 345.589 277.028 C 345.375 277.593,343.337 281.328,341.061 285.328 C 338.786 289.327,336.242 293.860,335.408 295.400 C 334.575 296.940,333.557 298.678,333.146 299.262 C 332.736 299.846,332.400 300.416,332.400 300.529 C 332.400 300.642,331.620 302.054,330.667 303.667 C 328.999 306.491,328.523 307.330,325.600 312.600 C 324.868 313.920,323.920 315.630,323.492 316.400 C 323.065 317.170,322.578 317.980,322.411 318.200 C 322.244 318.420,321.663 319.410,321.119 320.400 C 318.146 325.818,317.427 327.090,316.824 328.000 C 315.233 330.400,315.195 330.923,316.447 333.236 C 317.091 334.426,317.725 335.715,317.856 336.100 C 317.986 336.485,318.252 336.800,318.447 336.800 C 318.641 336.800,318.800 336.965,318.800 337.167 C 318.800 337.369,319.880 339.364,321.200 341.600 C 322.520 343.836,323.600 345.749,323.600 345.852 C 323.600 345.954,324.196 346.975,324.924 348.119 C 325.653 349.264,326.372 350.470,326.522 350.800 C 326.788 351.384,327.116 351.930,328.443 353.998 C 329.059 354.958,329.414 355.589,332.387 361.000 C 333.113 362.320,333.843 363.580,334.010 363.800 C 334.178 364.020,334.664 364.830,335.092 365.600 C 337.492 369.926,338.032 370.867,338.970 372.352 C 339.536 373.250,340.000 374.086,340.000 374.211 C 340.000 374.336,340.596 375.375,341.324 376.519 C 342.884 378.972,346.000 384.589,346.000 384.949 C 346.000 385.087,341.362 385.200,335.692 385.200 L 325.385 385.200 324.092 382.900 C 323.381 381.635,322.237 379.610,321.551 378.400 C 320.864 377.190,319.573 374.850,318.682 373.200 C 317.790 371.550,316.957 370.110,316.830 370.000 C 316.704 369.890,316.135 368.900,315.567 367.800 C 314.653 366.031,310.729 359.108,308.765 355.800 C 308.373 355.140,307.477 353.520,306.773 352.200 C 306.070 350.880,305.158 349.322,304.747 348.738 C 304.336 348.154,304.000 347.507,304.000 347.300 C 304.000 345.243,301.223 345.608,300.558 347.753 C 300.413 348.219,299.984 349.050,299.604 349.600 C 299.224 350.150,298.318 351.680,297.591 353.000 C 295.118 357.490,294.715 358.200,294.410 358.600 C 294.243 358.820,293.513 360.080,292.788 361.400 C 292.063 362.720,291.157 364.340,290.776 365.000 C 290.395 365.660,288.685 368.630,286.976 371.600 C 285.267 374.570,283.349 377.900,282.713 379.000 C 282.076 380.100,281.455 381.315,281.331 381.700 C 281.208 382.085,280.948 382.400,280.753 382.400 C 280.559 382.400,280.400 382.642,280.400 382.939 C 280.400 385.041,279.590 385.200,268.853 385.200 C 262.628 385.200,258.800 385.052,258.800 384.812 C 258.800 384.387,259.796 382.541,261.379 380.034 C 261.940 379.144,262.400 378.314,262.400 378.189 C 262.400 377.990,264.024 375.262,265.503 372.977 C 265.779 372.549,266.128 371.930,266.278 371.600 C 266.428 371.270,267.147 370.064,267.876 368.919 C 268.604 367.775,269.200 366.754,269.200 366.651 C 269.200 366.548,270.100 365.012,271.200 363.239 C 272.300 361.465,273.200 359.904,273.200 359.769 C 273.200 359.634,273.534 359.046,273.943 358.462 C 274.351 357.878,275.141 356.590,275.697 355.600 C 276.253 354.610,278.709 350.401,281.154 346.246 C 283.599 342.092,285.600 338.656,285.600 338.610 C 285.600 338.565,286.500 337.030,287.600 335.200 C 290.032 331.154,289.892 329.467,286.789 325.400 C 286.621 325.180,285.985 324.100,285.376 323.000 C 283.227 319.120,282.833 318.437,281.821 316.834 C 281.260 315.944,280.800 315.114,280.800 314.989 C 280.800 314.864,280.170 313.777,279.400 312.573 C 278.630 311.369,278.000 310.301,278.000 310.199 C 278.000 310.097,277.313 308.886,276.474 307.507 C 275.635 306.128,274.829 304.730,274.683 304.400 C 274.536 304.070,273.964 303.080,273.411 302.200 C 272.858 301.320,272.282 300.330,272.132 300.000 C 271.982 299.670,271.427 298.707,270.899 297.860 C 270.057 296.509,268.872 294.435,267.436 291.800 C 267.196 291.360,266.910 290.910,266.800 290.800 C 266.690 290.690,266.262 289.970,265.849 289.200 C 264.824 287.288,263.910 285.685,261.155 280.963 C 259.860 278.743,258.800 276.718,258.800 276.463 C 258.800 276.124,261.511 276.003,268.900 276.013 L 279.000 276.025 279.677 276.958 M200.000 293.200 C 199.560 293.640,199.200 294.482,199.200 295.072 C 199.200 295.661,199.023 296.696,198.806 297.372 C 197.967 299.991,196.212 307.421,195.776 310.200 C 195.491 312.018,196.327 309.989,196.847 307.600 C 197.063 306.610,197.392 305.170,197.578 304.400 C 197.765 303.630,198.397 300.935,198.984 298.410 C 200.320 292.664,200.201 292.799,203.949 292.806 C 208.179 292.815,207.986 292.500,209.955 302.600 C 210.169 303.700,210.518 305.140,210.729 305.800 C 210.941 306.460,211.339 308.080,211.613 309.400 C 211.888 310.720,212.461 313.150,212.886 314.800 C 213.312 316.450,213.813 318.520,214.002 319.400 C 214.316 320.871,215.095 324.206,216.058 328.200 C 216.270 329.080,216.602 330.520,216.796 331.400 C 216.990 332.280,217.446 334.080,217.808 335.400 C 218.171 336.720,218.620 338.520,218.807 339.400 C 218.994 340.280,219.356 341.863,219.610 342.917 C 220.407 346.225,221.558 346.000,203.836 346.000 C 186.768 346.000,187.431 346.103,187.987 343.544 C 188.195 342.585,188.464 341.260,188.585 340.600 L 188.803 339.400 188.220 340.600 C 187.899 341.260,187.628 342.349,187.618 343.020 C 187.608 343.691,187.392 344.448,187.137 344.703 C 186.786 345.054,186.798 345.316,187.186 345.783 C 187.755 346.469,219.257 346.732,220.316 346.060 C 220.862 345.714,220.435 343.263,218.769 337.200 C 218.497 336.210,218.132 334.680,217.959 333.800 C 217.786 332.920,217.466 331.480,217.250 330.600 C 217.033 329.720,216.566 327.830,216.211 326.400 C 215.857 324.970,215.409 323.080,215.216 322.200 C 214.906 320.787,214.612 319.535,213.193 313.600 C 213.009 312.830,212.559 310.940,212.193 309.400 C 211.827 307.860,211.364 305.925,211.164 305.100 C 210.964 304.275,210.646 302.925,210.458 302.100 C 209.191 296.538,208.187 292.959,207.824 292.706 C 206.800 291.996,200.827 292.373,200.000 293.200 M82.790 293.826 C 82.545 294.472,82.435 308.142,82.496 330.726 L 82.592 366.600 82.801 330.200 C 82.916 310.180,83.053 293.728,83.105 293.640 C 83.579 292.837,109.666 294.039,112.600 294.998 C 124.620 298.931,127.810 306.069,127.793 329.000 C 127.788 334.788,127.571 340.600,127.276 342.800 C 126.378 349.506,126.340 350.006,126.833 348.600 C 129.222 341.790,128.533 309.993,125.932 307.020 C 125.750 306.811,125.600 306.312,125.600 305.910 C 125.600 304.741,122.523 300.196,120.604 298.530 C 115.452 294.057,109.266 292.800,92.413 292.800 L 83.180 292.800 82.790 293.826 M194.881 313.088 C 194.616 313.971,194.400 315.066,194.400 315.523 C 194.400 315.979,194.220 316.464,194.000 316.600 C 193.780 316.736,193.600 317.345,193.600 317.952 C 193.600 318.560,193.350 319.855,193.043 320.829 C 192.737 321.803,192.268 323.680,192.001 325.000 C 191.733 326.320,191.338 327.881,191.122 328.468 C 190.906 329.056,190.796 329.866,190.877 330.268 C 190.961 330.683,191.247 330.134,191.538 329.000 C 191.820 327.900,192.213 326.370,192.411 325.600 C 192.610 324.830,193.237 322.220,193.805 319.800 C 194.373 317.380,195.031 314.746,195.267 313.946 C 195.504 313.147,195.622 312.266,195.529 311.988 C 195.437 311.711,195.145 312.206,194.881 313.088 M190.068 333.000 C 189.789 334.100,189.390 335.553,189.181 336.228 C 188.971 336.904,188.813 337.894,188.828 338.428 C 188.845 339.038,189.071 338.654,189.433 337.400 C 189.751 336.300,190.207 334.755,190.448 333.966 C 190.688 333.178,190.815 332.188,190.730 331.766 C 190.635 331.300,190.377 331.782,190.068 333.000 M125.656 351.400 C 122.530 361.326,116.041 366.353,105.200 367.247 C 98.718 367.783,83.303 367.680,83.040 367.100 C 82.916 366.825,82.858 366.960,82.912 367.400 C 83.107 368.991,105.382 368.629,111.000 366.943 C 115.528 365.584,117.537 364.460,120.198 361.792 C 122.570 359.414,125.600 354.434,125.600 352.912 C 125.600 352.498,125.797 351.963,126.038 351.722 C 126.278 351.482,126.404 350.951,126.317 350.542 C 126.209 350.033,126.002 350.301,125.656 351.400 M245.776 368.400 C 246.217 372.083,247.555 376.684,247.588 374.628 C 247.595 374.204,247.429 373.304,247.219 372.628 C 247.009 371.953,246.561 370.410,246.223 369.200 C 245.819 367.754,245.665 367.480,245.776 368.400 " stroke="none" fill="#e2acaa" fill-rule="evenodd"></path></g></svg>