<svg id="svg" version="1.1" xmlns="http://www.w3.org/2000/svg" xmlns:xlink="http://www.w3.org/1999/xlink" width="400" height="400" viewBox="0, 0, 400,400"><g id="svgg"><path id="path0" d="M79.986 21.600 C 79.561 22.015,78.392 22.224,76.196 22.279 C 73.855 22.337,72.901 22.521,72.566 22.979 C 72.316 23.320,71.620 23.600,71.018 23.600 C 70.262 23.600,69.861 23.846,69.716 24.400 C 69.559 25.001,69.170 25.200,68.153 25.200 C 67.409 25.200,66.800 25.378,66.800 25.595 C 66.800 25.812,66.170 26.252,65.400 26.574 C 64.630 26.896,64.000 27.348,64.000 27.580 C 64.000 27.811,63.794 28.000,63.542 28.000 C 62.744 28.000,58.353 32.934,58.122 34.091 C 58.000 34.701,57.643 35.200,57.329 35.200 C 57.015 35.200,56.570 35.740,56.340 36.400 C 56.110 37.060,55.759 37.600,55.561 37.600 C 55.362 37.600,55.200 38.075,55.200 38.656 C 55.200 39.237,54.902 39.930,54.538 40.196 C 54.107 40.511,53.811 41.467,53.689 42.933 C 53.586 44.173,53.344 45.089,53.151 44.970 C 52.588 44.622,52.615 41.992,52.403 116.600 L 52.200 188.200 112.280 188.200 C 172.021 188.200,172.360 188.195,172.574 187.400 C 172.692 186.960,172.792 174.866,172.795 160.524 C 172.798 141.939,172.927 134.369,173.242 134.174 C 173.874 133.784,259.976 219.966,259.989 221.003 C 260.003 222.030,173.882 308.221,173.239 307.824 C 172.928 307.632,172.798 299.926,172.794 281.276 C 172.791 266.824,172.656 254.820,172.494 254.600 C 172.146 254.127,52.000 254.027,52.000 254.500 C 52.000 254.665,52.135 254.800,52.300 254.800 C 52.465 254.800,52.554 277.736,52.497 305.768 C 52.406 350.746,52.465 356.808,52.997 357.340 C 53.329 357.671,53.600 358.458,53.600 359.087 C 53.600 359.716,53.950 360.916,54.377 361.754 C 54.804 362.592,55.269 363.802,55.409 364.443 C 55.550 365.083,55.816 365.514,56.000 365.400 C 56.184 365.286,56.454 365.735,56.599 366.397 C 56.745 367.058,57.119 367.600,57.432 367.600 C 57.744 367.600,58.000 367.932,58.000 368.339 C 58.000 368.745,58.315 369.466,58.700 369.940 C 59.085 370.414,59.842 371.342,60.381 372.001 C 60.921 372.660,61.596 373.200,61.881 373.200 C 62.167 373.200,62.400 373.476,62.400 373.813 C 62.400 374.149,62.715 374.541,63.100 374.682 C 63.485 374.824,63.936 375.164,64.102 375.439 C 64.269 375.713,64.944 376.056,65.602 376.201 C 66.261 376.345,66.800 376.605,66.800 376.777 C 66.800 377.392,69.861 379.200,70.902 379.200 C 71.484 379.200,72.104 379.456,72.280 379.768 C 72.486 380.134,73.577 380.415,75.343 380.555 C 76.852 380.676,78.312 380.961,78.586 381.189 C 78.929 381.473,107.557 381.568,169.643 381.490 C 314.170 381.309,317.904 381.289,318.094 380.717 C 318.205 380.384,319.197 380.199,321.031 380.170 C 325.067 380.105,325.288 380.068,324.947 379.500 C 324.724 379.129,324.812 379.134,325.291 379.522 C 325.831 379.960,325.997 379.934,326.315 379.366 C 326.583 378.887,327.020 378.749,327.797 378.897 C 328.659 379.062,328.944 378.936,329.105 378.320 C 329.236 377.817,329.413 377.697,329.592 377.987 C 330.005 378.656,332.033 377.645,331.903 376.835 C 331.834 376.413,332.048 376.243,332.540 376.327 C 332.980 376.402,333.174 376.282,333.019 376.031 C 332.861 375.775,333.002 375.703,333.379 375.847 C 333.782 376.002,334.000 375.859,334.000 375.443 C 334.000 375.089,334.251 374.800,334.557 374.800 C 334.864 374.800,335.218 374.530,335.345 374.199 C 335.472 373.869,336.211 373.296,336.988 372.925 C 337.764 372.555,338.400 372.028,338.400 371.755 C 338.400 371.482,338.820 370.928,339.333 370.524 C 339.846 370.121,340.391 369.290,340.544 368.679 C 340.698 368.068,340.998 367.675,341.212 367.807 C 341.425 367.939,341.600 367.761,341.600 367.411 C 341.600 367.061,341.869 366.672,342.198 366.546 C 342.526 366.419,342.697 366.157,342.577 365.963 C 342.370 365.627,342.638 365.196,344.000 363.671 C 344.340 363.290,344.547 362.454,344.478 361.738 C 344.388 360.811,344.583 360.317,345.216 359.874 C 345.777 359.481,345.997 359.015,345.847 358.536 C 345.721 358.131,345.768 357.562,345.950 357.272 C 346.133 356.981,346.153 356.036,345.995 355.172 C 345.837 354.307,345.818 353.600,345.954 353.600 C 346.089 353.600,346.269 317.784,346.353 274.010 L 346.506 194.420 345.553 194.055 C 344.733 193.740,317.303 166.268,288.276 136.689 C 283.479 131.800,275.514 123.741,270.576 118.781 C 265.639 113.820,261.600 109.635,261.600 109.481 C 261.600 109.326,280.005 109.198,302.500 109.196 C 340.616 109.191,346.400 109.093,346.400 108.448 C 346.400 108.311,327.050 108.249,303.400 108.309 L 260.400 108.417 260.401 107.309 C 260.446 64.212,259.884 22.149,259.257 21.704 C 258.101 20.883,80.825 20.780,79.986 21.600 M172.400 161.000 C 172.400 178.200,172.263 187.200,172.000 187.200 C 171.738 187.200,171.600 178.411,171.600 161.633 C 171.600 138.684,171.693 134.800,172.243 134.800 C 172.329 134.800,172.400 146.590,172.400 161.000 M172.400 281.280 C 172.400 302.465,172.300 307.660,171.900 307.258 C 171.511 306.866,171.400 301.165,171.400 281.478 C 171.400 267.575,171.246 255.885,171.057 255.500 C 170.786 254.946,170.891 254.800,171.557 254.800 L 172.400 254.800 172.400 281.280 " stroke="none" fill="#3176ef" fill-rule="evenodd"></path><path id="path1" d="M262.069 23.064 C 262.147 23.469,262.478 23.800,262.805 23.800 C 263.663 23.800,263.539 22.638,262.664 22.469 C 262.129 22.366,261.966 22.529,262.069 23.064 M173.446 135.200 C 173.310 135.530,173.154 147.680,173.099 162.200 L 173.000 188.600 112.600 188.807 C 79.380 188.921,52.155 189.056,52.100 189.107 C 52.045 189.158,52.000 203.328,52.000 220.595 L 52.000 251.989 53.461 252.600 C 54.749 253.138,61.888 253.208,113.731 253.195 C 160.998 253.182,172.603 253.279,172.864 253.690 C 173.042 253.970,173.191 266.035,173.194 280.500 C 173.197 294.965,173.314 306.800,173.454 306.800 C 173.815 306.800,257.471 223.232,258.460 221.882 L 259.280 220.765 255.940 217.364 C 254.103 215.494,250.855 212.236,248.722 210.125 C 245.434 206.872,227.908 189.269,226.556 187.862 C 226.311 187.608,225.591 186.930,224.956 186.356 C 224.320 185.782,222.063 183.532,219.939 181.356 C 217.816 179.180,215.566 176.930,214.939 176.356 C 214.313 175.782,212.053 173.532,209.919 171.356 C 207.784 169.180,203.329 164.710,200.019 161.423 C 196.708 158.136,194.000 155.407,194.000 155.360 C 194.000 155.153,184.714 146.187,184.376 146.067 C 184.169 145.993,184.000 145.785,184.000 145.604 C 184.000 145.314,175.289 136.570,174.446 136.015 C 174.267 135.897,174.024 135.530,173.907 135.200 C 173.717 134.667,173.666 134.667,173.446 135.200 " stroke="none" fill="#dfebfc" fill-rule="evenodd"></path><path id="path2" d="M260.302 21.066 C 260.579 21.177,260.686 21.461,260.541 21.696 C 260.384 21.949,260.465 22.007,260.738 21.838 C 260.992 21.681,261.200 21.743,261.200 21.976 C 261.200 22.209,261.408 22.400,261.662 22.400 C 261.924 22.400,261.811 22.054,261.400 21.600 C 261.002 21.160,260.479 20.814,260.238 20.832 C 259.987 20.850,260.015 20.950,260.302 21.066 M303.100 109.100 C 280.275 109.157,261.600 109.329,261.600 109.482 C 261.600 109.636,265.639 113.820,270.576 118.781 C 275.514 123.741,283.479 131.800,288.276 136.690 C 320.157 169.178,345.011 194.000,345.661 194.000 C 346.375 194.000,346.400 192.567,346.400 151.400 L 346.400 108.800 345.500 108.898 C 345.005 108.952,325.925 109.043,303.100 109.100 " stroke="none" fill="#2454ac" fill-rule="evenodd"></path><path id="path3" d="M260.172 24.686 C 260.015 25.943,260.006 44.798,260.153 66.586 C 260.299 88.374,260.415 106.695,260.410 107.300 L 260.400 108.400 302.150 108.400 C 325.112 108.400,344.462 108.288,345.150 108.150 C 346.557 107.869,346.813 106.985,345.600 106.600 C 345.160 106.460,344.800 106.088,344.800 105.773 C 344.800 105.458,344.530 105.200,344.200 105.200 C 343.867 105.200,343.600 104.844,343.600 104.400 C 343.600 103.867,343.333 103.600,342.800 103.600 C 342.360 103.600,341.997 103.375,341.993 103.100 C 341.985 102.490,340.258 100.800,339.644 100.800 C 339.400 100.800,339.200 100.440,339.200 100.000 C 339.200 99.560,338.949 99.200,338.643 99.200 C 338.336 99.200,337.982 98.930,337.855 98.600 C 337.729 98.270,337.370 98.000,337.059 98.000 C 336.748 98.000,336.399 97.640,336.284 97.200 C 336.169 96.760,335.788 96.400,335.437 96.400 C 335.087 96.400,334.800 96.130,334.800 95.800 C 334.800 95.470,334.530 95.200,334.200 95.200 C 333.867 95.200,333.600 94.844,333.600 94.400 C 333.600 93.867,333.333 93.600,332.800 93.600 C 332.360 93.600,331.997 93.375,331.993 93.100 C 331.985 92.490,330.258 90.800,329.644 90.800 C 329.400 90.800,329.197 90.575,329.193 90.300 C 329.185 89.690,327.458 88.000,326.844 88.000 C 326.600 88.000,326.400 87.640,326.400 87.200 C 326.400 86.667,326.133 86.400,325.600 86.400 C 325.156 86.400,324.800 86.133,324.800 85.800 C 324.800 85.470,324.551 85.200,324.247 85.200 C 323.942 85.200,323.599 84.840,323.484 84.400 C 323.369 83.960,322.988 83.600,322.637 83.600 C 322.287 83.600,322.000 83.324,322.000 82.987 C 322.000 82.651,321.730 82.271,321.400 82.145 C 321.070 82.018,320.800 81.664,320.800 81.357 C 320.800 81.051,320.440 80.800,320.000 80.800 C 319.560 80.800,319.197 80.575,319.193 80.300 C 319.185 79.690,317.458 78.000,316.844 78.000 C 316.600 78.000,316.400 77.640,316.400 77.200 C 316.400 76.667,316.133 76.400,315.600 76.400 C 315.156 76.400,314.800 76.133,314.800 75.800 C 314.800 75.470,314.551 75.200,314.247 75.200 C 313.942 75.200,313.599 74.840,313.484 74.400 C 313.369 73.960,312.988 73.600,312.637 73.600 C 312.287 73.600,312.000 73.349,312.000 73.043 C 312.000 72.736,311.730 72.382,311.400 72.255 C 311.070 72.129,310.800 71.749,310.800 71.413 C 310.800 71.067,310.452 70.800,310.000 70.800 C 309.560 70.800,309.197 70.575,309.193 70.300 C 309.185 69.714,307.469 68.000,306.890 68.000 C 306.672 68.000,306.399 67.640,306.284 67.200 C 306.169 66.760,305.788 66.400,305.437 66.400 C 305.087 66.400,304.800 66.130,304.800 65.800 C 304.800 65.470,304.551 65.200,304.247 65.200 C 303.942 65.200,303.599 64.840,303.484 64.400 C 303.369 63.960,302.988 63.600,302.637 63.600 C 302.287 63.600,302.000 63.324,302.000 62.987 C 302.000 62.651,301.730 62.271,301.400 62.145 C 301.070 62.018,300.800 61.664,300.800 61.357 C 300.800 61.051,300.440 60.800,300.000 60.800 C 299.560 60.800,299.197 60.575,299.193 60.300 C 299.185 59.690,297.458 58.000,296.844 58.000 C 296.600 58.000,296.400 57.640,296.400 57.200 C 296.400 56.667,296.133 56.400,295.600 56.400 C 295.156 56.400,294.800 56.133,294.800 55.800 C 294.800 55.470,294.530 55.200,294.200 55.200 C 293.867 55.200,293.600 54.844,293.600 54.400 C 293.600 53.867,293.333 53.600,292.800 53.600 C 292.348 53.600,292.000 53.333,292.000 52.987 C 292.000 52.651,291.730 52.271,291.400 52.145 C 291.070 52.018,290.800 51.664,290.800 51.357 C 290.800 51.051,290.440 50.800,290.000 50.800 C 289.467 50.800,289.200 50.533,289.200 50.000 C 289.200 49.556,288.933 49.200,288.600 49.200 C 288.270 49.200,288.000 48.930,288.000 48.600 C 288.000 48.267,287.644 48.000,287.200 48.000 C 286.667 48.000,286.400 47.733,286.400 47.200 C 286.400 46.667,286.133 46.400,285.600 46.400 C 285.156 46.400,284.800 46.133,284.800 45.800 C 284.800 45.470,284.530 45.200,284.200 45.200 C 283.870 45.200,283.600 44.863,283.600 44.452 C 283.600 44.040,282.971 43.275,282.203 42.752 C 281.434 42.228,280.804 41.575,280.803 41.300 C 280.801 41.025,280.440 40.800,280.000 40.800 C 279.467 40.800,279.200 40.533,279.200 40.000 C 279.200 39.556,278.933 39.200,278.600 39.200 C 278.270 39.200,278.000 38.930,278.000 38.600 C 278.000 38.267,277.644 38.000,277.200 38.000 C 276.667 38.000,276.400 37.733,276.400 37.200 C 276.400 36.667,276.133 36.400,275.600 36.400 C 275.156 36.400,274.800 36.133,274.800 35.800 C 274.800 35.470,274.530 35.200,274.200 35.200 C 273.863 35.200,273.600 34.843,273.600 34.384 C 273.600 33.936,272.880 32.842,272.000 31.953 C 271.120 31.064,270.400 30.185,270.400 30.000 C 270.400 29.815,269.860 29.545,269.200 29.400 C 268.540 29.255,268.000 28.881,268.000 28.568 C 268.000 28.256,267.640 28.000,267.200 28.000 C 266.667 28.000,266.400 27.733,266.400 27.200 C 266.400 26.667,266.133 26.400,265.600 26.400 C 265.156 26.400,264.800 26.133,264.800 25.800 C 264.800 25.470,264.530 25.200,264.200 25.200 C 263.870 25.200,263.600 24.846,263.600 24.413 C 263.600 23.864,263.411 23.698,262.976 23.865 C 262.559 24.024,262.278 23.821,262.129 23.252 C 261.646 21.403,260.475 22.260,260.172 24.686 M173.067 134.267 C 172.920 134.413,172.798 146.248,172.795 160.567 C 172.792 174.885,172.692 186.960,172.574 187.400 C 172.360 188.196,172.064 188.200,112.501 188.099 C 58.139 188.007,50.744 188.104,52.027 188.893 C 52.122 188.952,79.380 188.910,112.600 188.800 L 173.000 188.600 173.103 162.017 C 173.168 145.098,173.350 135.290,173.603 135.037 C 173.866 134.774,174.000 134.859,174.000 135.287 C 174.000 135.642,174.169 135.993,174.376 136.067 C 174.960 136.274,184.000 145.232,184.000 145.604 C 184.000 145.785,184.169 145.993,184.376 146.067 C 184.714 146.187,194.000 155.153,194.000 155.360 C 194.000 155.407,196.708 158.136,200.019 161.423 C 203.329 164.710,207.784 169.180,209.919 171.356 C 212.053 173.532,214.313 175.782,214.939 176.356 C 215.566 176.930,217.816 179.180,219.939 181.356 C 222.063 183.532,224.320 185.782,224.956 186.356 C 225.591 186.930,226.311 187.608,226.556 187.862 C 227.908 189.269,245.434 206.872,248.722 210.125 C 250.855 212.236,254.103 215.494,255.940 217.364 L 259.280 220.765 258.460 221.882 C 257.471 223.232,173.815 306.800,173.454 306.800 C 173.314 306.800,173.197 294.965,173.194 280.500 C 173.191 266.035,173.042 253.970,172.864 253.690 C 172.603 253.279,160.998 253.182,113.731 253.195 C 61.888 253.208,54.749 253.138,53.461 252.600 C 52.011 251.994,52.000 251.997,52.000 252.970 C 52.000 254.469,50.940 254.446,113.896 254.318 C 162.321 254.220,172.426 254.292,172.596 254.733 C 172.708 255.026,172.800 267.030,172.800 281.409 C 172.800 299.968,172.927 307.632,173.239 307.824 C 173.857 308.206,260.000 222.036,260.000 221.036 C 260.000 220.357,174.249 134.010,173.567 134.003 C 173.438 134.001,173.213 134.120,173.067 134.267 " stroke="none" fill="#94bcfa" fill-rule="evenodd"></path><path id="path4" d="M170.400 21.197 C 248.229 21.375,259.116 21.473,259.952 22.000 C 260.690 22.465,260.946 22.487,261.086 22.098 C 261.186 21.821,261.478 21.721,261.734 21.874 C 261.991 22.028,261.956 21.852,261.655 21.482 C 261.148 20.856,254.980 20.817,171.455 20.902 L 81.800 20.994 170.400 21.197 M72.480 22.480 C 72.216 22.744,72.000 23.138,72.000 23.356 C 72.000 23.575,72.225 23.460,72.500 23.101 C 72.775 22.743,73.540 22.376,74.200 22.285 L 75.400 22.120 74.180 22.060 C 73.509 22.027,72.744 22.216,72.480 22.480 M63.738 27.017 C 63.391 27.921,63.702 27.969,64.500 27.133 C 65.092 26.513,65.106 26.400,64.587 26.400 C 64.251 26.400,63.868 26.678,63.738 27.017 M62.145 28.600 C 62.018 28.930,61.664 29.200,61.357 29.200 C 61.051 29.200,60.800 29.386,60.800 29.614 C 60.800 30.211,62.246 29.377,62.540 28.611 C 62.669 28.275,62.685 28.000,62.575 28.000 C 62.465 28.000,62.271 28.270,62.145 28.600 M59.200 31.413 C 59.200 31.749,58.930 32.129,58.600 32.255 C 58.270 32.382,58.000 32.771,58.000 33.121 C 58.000 33.508,58.389 33.228,59.000 32.400 C 60.129 30.870,60.155 30.800,59.600 30.800 C 59.380 30.800,59.200 31.076,59.200 31.413 M53.993 40.213 C 53.703 40.755,53.586 41.319,53.733 41.466 C 53.880 41.613,54.000 41.442,54.000 41.087 C 54.000 40.731,54.293 40.276,54.651 40.075 C 55.018 39.870,55.132 39.605,54.912 39.469 C 54.697 39.336,54.283 39.671,53.993 40.213 M52.903 43.928 C 52.630 44.101,52.320 45.134,52.216 46.222 C 52.038 48.065,52.149 47.920,52.627 45.684 C 52.735 45.180,52.998 44.875,53.212 45.007 C 53.425 45.139,53.600 44.877,53.600 44.424 C 53.600 43.498,53.591 43.491,52.903 43.928 M52.196 118.200 C 52.196 156.700,52.243 172.391,52.300 153.068 C 52.357 133.746,52.357 102.246,52.300 83.068 C 52.243 63.891,52.196 79.700,52.196 118.200 M171.843 135.433 C 171.410 136.561,171.564 187.200,172.000 187.200 C 172.263 187.200,172.400 178.200,172.400 161.000 C 172.400 146.590,172.329 134.800,172.243 134.800 C 172.156 134.800,171.976 135.085,171.843 135.433 M52.096 304.700 C 52.148 332.145,52.238 346.590,52.295 336.800 C 52.569 289.843,52.571 254.800,52.300 254.800 C 52.135 254.800,52.043 277.255,52.096 304.700 M171.057 255.500 C 171.246 255.885,171.400 267.575,171.400 281.478 C 171.400 301.165,171.511 306.866,171.900 307.258 C 172.300 307.660,172.400 302.465,172.400 281.280 L 172.400 254.800 171.557 254.800 C 170.891 254.800,170.786 254.946,171.057 255.500 M346.144 308.000 C 346.144 310.090,346.212 310.945,346.294 309.900 C 346.376 308.855,346.376 307.145,346.294 306.100 C 346.212 305.055,346.144 305.910,346.144 308.000 M346.181 336.600 C 346.181 344.960,346.234 348.437,346.299 344.326 C 346.364 340.216,346.364 333.376,346.300 329.126 C 346.235 324.877,346.182 328.240,346.181 336.600 M345.924 355.000 C 346.014 355.770,346.158 356.400,346.244 356.400 C 346.330 356.400,346.400 355.770,346.400 355.000 C 346.400 354.230,346.256 353.600,346.080 353.600 C 345.904 353.600,345.834 354.230,345.924 355.000 M52.384 357.759 C 52.585 358.286,52.640 358.826,52.508 358.959 C 52.375 359.091,52.567 359.200,52.933 359.200 C 53.750 359.200,53.805 358.148,53.029 357.371 C 52.194 356.536,51.971 356.671,52.384 357.759 M345.855 357.400 C 345.729 357.730,345.733 358.281,345.865 358.626 C 346.012 359.007,345.773 359.484,345.253 359.848 C 344.655 360.267,344.418 360.827,344.460 361.723 C 344.517 362.932,344.529 362.942,344.687 361.900 C 344.836 360.910,345.205 360.611,346.100 360.753 C 346.265 360.779,346.400 359.900,346.400 358.800 C 346.400 356.737,346.254 356.361,345.855 357.400 M53.671 361.745 C 53.725 362.595,54.009 363.382,54.302 363.495 C 55.202 363.840,55.221 363.411,54.380 361.773 L 53.572 360.200 53.671 361.745 M343.527 364.200 C 343.277 364.750,342.901 365.200,342.693 365.200 C 342.485 365.200,342.412 365.455,342.532 365.767 C 342.652 366.079,342.491 366.433,342.175 366.554 C 341.859 366.676,341.600 367.061,341.600 367.411 C 341.600 367.761,341.425 367.939,341.212 367.807 C 340.998 367.675,340.698 368.068,340.544 368.679 C 340.391 369.290,339.846 370.121,339.333 370.524 C 338.820 370.928,338.400 371.470,338.399 371.729 C 338.398 371.988,337.735 372.560,336.926 373.000 C 336.116 373.440,335.395 373.987,335.322 374.215 C 335.089 374.947,336.853 374.782,337.701 373.992 C 338.152 373.572,338.674 373.322,338.861 373.437 C 339.047 373.553,339.200 373.277,339.200 372.824 C 339.200 372.087,339.610 371.812,340.500 371.953 C 340.665 371.979,340.800 371.370,340.800 370.600 C 340.800 369.622,340.981 369.200,341.400 369.200 C 341.739 369.200,342.000 368.842,342.000 368.376 C 342.000 367.874,342.173 367.660,342.445 367.828 C 343.034 368.192,343.586 367.266,343.594 365.900 C 343.598 365.192,343.814 364.800,344.200 364.800 C 344.533 364.800,344.800 364.444,344.800 364.000 C 344.800 362.886,344.074 363.000,343.527 364.200 M55.246 365.113 C 55.221 365.614,55.470 366.129,55.800 366.255 C 56.130 366.382,56.400 366.726,56.400 367.019 C 56.400 367.313,56.563 367.654,56.763 367.777 C 56.962 367.900,56.934 367.378,56.700 366.616 C 56.466 365.854,56.137 365.315,55.968 365.420 C 55.799 365.524,55.578 365.293,55.477 364.905 C 55.339 364.376,55.281 364.427,55.246 365.113 M58.000 369.971 C 58.000 370.441,58.260 370.800,58.600 370.800 C 58.930 370.800,59.200 371.070,59.200 371.400 C 59.200 371.730,59.386 372.000,59.614 372.000 C 60.082 372.000,59.410 370.553,58.537 369.680 C 58.088 369.231,58.000 369.278,58.000 369.971 M61.300 373.364 C 61.685 373.652,62.000 374.093,62.000 374.344 C 62.000 374.595,62.163 374.800,62.363 374.800 C 63.091 374.800,62.300 373.268,61.463 373.057 C 60.672 372.858,60.659 372.884,61.300 373.364 M63.612 375.500 C 63.604 376.137,63.833 376.400,64.400 376.400 C 64.840 376.400,65.200 376.662,65.200 376.982 C 65.200 377.330,65.762 377.669,66.600 377.826 C 67.370 377.971,68.000 378.301,68.000 378.559 C 68.000 378.818,68.390 379.059,68.867 379.095 C 69.573 379.148,69.461 378.966,68.267 378.116 C 67.460 377.542,66.800 376.935,66.800 376.768 C 66.800 376.601,66.261 376.345,65.602 376.201 C 64.944 376.056,64.229 375.637,64.015 375.269 C 63.678 374.692,63.623 374.723,63.612 375.500 M334.000 375.443 C 334.000 375.859,333.782 376.002,333.379 375.847 C 333.002 375.703,332.861 375.775,333.019 376.031 C 333.174 376.282,332.980 376.402,332.540 376.327 C 332.048 376.243,331.834 376.413,331.903 376.835 C 332.033 377.645,330.005 378.656,329.592 377.987 C 329.416 377.702,329.227 377.852,329.087 378.388 C 328.885 379.163,329.004 379.233,330.332 379.122 C 331.139 379.055,331.710 378.849,331.600 378.664 C 331.490 378.479,331.895 378.068,332.500 377.751 C 333.105 377.434,333.600 377.000,333.600 376.787 C 333.600 376.574,333.870 376.400,334.200 376.400 C 334.533 376.400,334.800 376.044,334.800 375.600 C 334.800 375.160,334.620 374.800,334.400 374.800 C 334.180 374.800,334.000 375.089,334.000 375.443 M326.083 379.500 C 325.801 379.885,325.659 380.005,325.767 379.767 C 325.876 379.528,325.711 379.333,325.400 379.333 C 325.089 379.333,324.928 379.483,325.041 379.667 C 325.279 380.051,324.817 380.109,321.031 380.170 C 319.197 380.199,318.205 380.384,318.094 380.717 C 317.904 381.288,314.754 381.305,169.800 381.495 C 114.838 381.568,79.086 381.469,78.600 381.243 C 76.802 380.410,76.337 380.379,76.476 381.101 C 76.669 382.103,322.000 382.402,322.000 381.401 C 322.000 380.958,322.460 380.800,323.750 380.800 C 326.391 380.800,328.077 380.377,327.844 379.771 C 327.735 379.486,327.860 379.164,328.122 379.057 C 328.385 378.951,328.149 378.849,327.598 378.832 C 327.047 378.814,326.365 379.115,326.083 379.500 M70.874 379.900 C 70.978 380.446,71.445 380.612,73.004 380.653 C 74.102 380.682,74.460 380.622,73.800 380.518 C 73.140 380.415,72.456 380.076,72.280 379.765 C 71.817 378.947,70.713 379.053,70.874 379.900 " stroke="none" fill="#116aef" fill-rule="evenodd"></path></g></svg>