<svg id="svg" version="1.1" xmlns="http://www.w3.org/2000/svg" xmlns:xlink="http://www.w3.org/1999/xlink" width="400" height="334.841628959276" viewBox="0, 0, 400,334.841628959276"><g id="svgg"><path id="path0" d="M60.372 8.988 C 60.017 10.006,60.221 12.701,61.086 18.425 C 61.378 20.360,61.773 25.335,61.964 29.481 C 62.154 33.626,62.531 37.998,62.800 39.196 C 63.069 40.394,63.445 44.542,63.636 48.416 C 63.827 52.289,64.197 56.284,64.459 57.293 C 64.720 58.303,65.097 62.069,65.296 65.662 C 65.914 76.802,65.995 77.762,66.368 78.459 C 66.567 78.831,66.941 83.001,67.199 87.725 C 67.474 92.744,67.885 97.186,68.189 98.410 C 68.513 99.715,68.825 103.380,69.018 108.125 C 69.299 115.074,69.723 119.624,70.211 120.938 C 70.314 121.214,70.611 125.077,70.872 129.523 C 71.133 133.968,71.569 138.566,71.840 139.740 C 72.119 140.946,72.484 145.305,72.678 149.749 C 72.882 154.430,73.282 159.115,73.664 161.307 C 74.018 163.333,74.404 167.328,74.523 170.184 C 74.735 175.297,75.040 178.200,75.692 181.312 C 75.874 182.180,76.177 186.251,76.367 190.357 C 76.556 194.463,76.939 199.104,77.217 200.670 C 77.495 202.236,77.876 206.618,78.065 210.408 C 78.253 214.198,78.561 218.193,78.749 219.286 C 79.564 224.031,79.687 225.267,79.896 230.821 C 80.018 234.045,80.262 237.739,80.438 239.028 C 80.615 240.318,80.901 242.429,81.075 243.719 C 81.249 245.008,81.540 249.127,81.721 252.871 C 81.963 257.844,82.193 259.962,82.577 260.732 C 82.975 261.530,83.220 264.101,83.589 271.345 C 83.856 276.603,84.232 281.432,84.423 282.077 C 84.732 283.118,85.021 286.679,85.636 297.026 C 85.862 300.815,86.455 301.984,88.327 302.327 C 89.035 302.456,89.936 302.769,90.329 303.022 C 90.722 303.274,92.334 303.706,93.911 303.982 C 95.489 304.257,97.127 304.699,97.552 304.963 C 97.977 305.228,99.305 305.626,100.503 305.847 C 101.700 306.069,103.035 306.478,103.470 306.758 C 103.904 307.037,105.517 307.469,107.054 307.718 C 108.591 307.966,110.195 308.396,110.619 308.671 C 111.043 308.947,112.219 309.275,113.233 309.399 C 114.246 309.524,115.741 309.912,116.554 310.262 C 117.368 310.612,119.101 311.060,120.407 311.258 C 121.712 311.455,123.128 311.838,123.552 312.109 C 123.977 312.380,125.476 312.822,126.884 313.092 C 128.291 313.361,129.703 313.817,130.022 314.105 C 130.340 314.393,131.667 314.763,132.970 314.927 C 134.274 315.090,135.786 315.454,136.330 315.736 C 136.875 316.017,138.119 316.408,139.095 316.605 C 140.072 316.801,141.549 317.241,142.379 317.582 C 143.208 317.923,144.962 318.351,146.277 318.532 C 147.592 318.714,149.024 319.095,149.459 319.379 C 149.895 319.664,151.270 320.058,152.515 320.257 C 153.761 320.455,155.344 320.901,156.033 321.248 C 156.722 321.596,158.191 321.983,159.296 322.109 C 160.402 322.235,161.759 322.614,162.312 322.951 C 162.864 323.287,164.290 323.738,165.480 323.953 C 166.670 324.167,168.063 324.560,168.575 324.825 C 169.088 325.090,170.691 325.513,172.137 325.766 C 173.583 326.018,175.234 326.467,175.806 326.763 C 176.378 327.058,177.846 327.442,179.069 327.615 C 180.291 327.788,181.647 328.163,182.081 328.448 C 182.516 328.732,183.962 329.135,185.294 329.341 C 186.626 329.548,188.256 329.994,188.917 330.332 C 189.577 330.670,191.081 331.117,192.258 331.326 C 193.436 331.534,194.744 331.930,195.164 332.206 C 195.584 332.481,196.957 332.849,198.215 333.023 C 200.945 333.400,202.345 333.917,202.345 334.547 C 202.345 334.862,202.770 335.008,203.685 335.008 C 204.663 335.008,205.025 334.870,205.025 334.498 C 205.025 333.862,206.101 333.442,208.852 333.002 C 210.026 332.815,211.642 332.364,212.445 332.000 C 213.247 331.636,214.446 331.335,215.109 331.331 C 215.773 331.327,217.024 330.947,217.890 330.486 C 218.756 330.026,220.550 329.485,221.876 329.284 C 223.203 329.084,224.618 328.709,225.020 328.453 C 225.423 328.196,226.855 327.819,228.203 327.615 C 229.551 327.411,231.000 327.023,231.424 326.753 C 231.847 326.482,233.385 326.052,234.841 325.796 C 236.297 325.540,237.834 325.110,238.258 324.841 C 238.682 324.572,239.858 324.248,240.871 324.122 C 241.884 323.996,243.467 323.546,244.389 323.122 C 245.310 322.699,246.893 322.245,247.906 322.115 C 248.920 321.984,250.427 321.579,251.256 321.214 C 252.085 320.850,253.668 320.404,254.774 320.223 C 255.879 320.043,257.143 319.661,257.582 319.375 C 258.021 319.088,259.415 318.724,260.680 318.565 C 261.944 318.407,263.426 318.046,263.972 317.763 C 264.519 317.480,266.033 317.025,267.337 316.750 C 268.641 316.476,270.163 316.016,270.719 315.729 C 271.275 315.441,272.860 315.079,274.242 314.924 C 275.716 314.759,276.998 314.423,277.342 314.111 C 277.665 313.819,279.121 313.333,280.578 313.032 C 282.034 312.731,283.533 312.286,283.908 312.045 C 284.283 311.803,285.762 311.445,287.194 311.249 C 288.627 311.053,290.157 310.657,290.595 310.370 C 291.034 310.083,292.424 309.689,293.686 309.493 C 294.948 309.298,296.390 308.927,296.892 308.669 C 297.394 308.411,298.929 307.985,300.303 307.722 C 301.677 307.459,303.226 307.031,303.746 306.771 C 304.265 306.511,305.670 306.106,306.868 305.870 C 308.065 305.634,309.392 305.226,309.816 304.963 C 310.239 304.700,311.775 304.276,313.229 304.021 C 314.682 303.765,316.295 303.342,316.814 303.079 C 317.332 302.817,318.306 302.503,318.978 302.381 C 321.193 301.980,321.937 299.630,321.954 292.978 C 321.967 288.021,322.430 282.149,322.930 280.604 C 323.115 280.032,323.496 275.946,323.776 271.524 C 324.056 267.102,324.517 262.278,324.800 260.804 C 325.083 259.330,325.453 254.958,325.620 251.089 C 325.788 247.219,326.159 242.852,326.445 241.384 C 326.730 239.915,327.114 236.297,327.297 233.343 C 327.865 224.172,327.942 223.297,328.455 220.233 C 328.730 218.594,329.112 213.635,329.306 209.213 C 329.510 204.541,329.863 200.330,330.148 199.162 C 330.417 198.057,330.804 193.987,331.007 190.117 C 331.210 186.248,331.596 182.027,331.866 180.737 C 332.135 179.447,332.569 174.433,332.831 169.593 C 333.094 164.754,333.532 159.704,333.805 158.370 C 334.079 157.037,334.467 153.164,334.667 149.762 C 335.019 143.770,335.506 139.243,335.859 138.673 C 335.953 138.520,336.245 134.354,336.508 129.415 C 336.772 124.440,337.223 119.315,337.518 117.923 C 337.811 116.541,338.192 112.395,338.365 108.710 C 338.539 105.025,338.908 100.733,339.187 99.172 C 339.465 97.612,339.853 92.787,340.049 88.452 C 340.288 83.158,340.617 79.579,341.050 77.554 C 341.468 75.602,341.819 71.941,342.045 67.169 C 342.237 63.116,342.616 58.819,342.887 57.621 C 343.159 56.424,343.542 52.203,343.739 48.241 C 343.936 44.280,344.225 40.209,344.382 39.196 C 344.538 38.183,344.823 36.374,345.015 35.176 C 345.206 33.978,345.519 29.908,345.710 26.131 C 345.901 22.353,346.212 18.735,346.402 18.090 C 346.849 16.575,347.232 10.076,346.943 8.924 L 346.720 8.036 203.710 8.042 L 60.699 8.048 60.372 8.988 M293.714 67.514 C 294.738 68.231,294.970 69.923,294.337 72.070 C 293.967 73.328,293.710 76.440,293.484 82.412 C 293.276 87.916,292.988 91.562,292.676 92.661 C 292.410 93.600,292.083 96.238,291.950 98.524 C 291.695 102.898,291.296 104.227,290.033 104.903 C 289.457 105.211,273.893 105.250,222.087 105.074 C 155.703 104.848,154.882 104.853,154.297 105.500 C 153.576 106.296,154.029 119.763,154.912 123.827 C 155.188 125.094,155.567 129.110,155.755 132.752 C 155.942 136.394,156.262 139.684,156.464 140.062 L 156.832 140.750 217.026 140.511 C 279.030 140.266,286.704 140.353,287.664 141.313 C 288.279 141.928,288.091 149.040,287.392 151.591 C 286.920 153.317,286.536 157.908,286.142 166.544 C 285.955 170.644,285.664 173.761,285.428 174.204 C 285.193 174.642,284.843 178.297,284.580 183.067 C 284.334 187.541,283.909 192.073,283.635 193.163 C 283.338 194.346,282.988 198.466,282.765 203.401 C 282.553 208.109,282.192 212.429,281.926 213.451 C 281.334 215.723,281.127 217.805,280.745 225.293 C 280.576 228.610,280.198 232.452,279.905 233.831 C 279.592 235.309,279.260 239.323,279.097 243.601 C 278.749 252.763,278.511 253.216,273.684 253.901 C 272.312 254.096,270.585 254.558,269.845 254.929 C 269.106 255.299,267.750 255.699,266.830 255.818 C 265.911 255.936,264.661 256.332,264.051 256.699 C 263.409 257.085,261.902 257.481,260.466 257.643 C 259.103 257.795,257.622 258.160,257.175 258.453 C 256.728 258.746,255.421 259.137,254.271 259.322 C 253.121 259.508,251.633 259.937,250.965 260.276 C 250.296 260.615,248.769 260.998,247.571 261.127 C 246.374 261.257,244.866 261.627,244.221 261.950 C 243.576 262.272,242.084 262.724,240.905 262.953 C 239.726 263.182,238.370 263.655,237.890 264.003 C 237.341 264.402,236.151 264.717,234.673 264.856 C 233.384 264.977,231.876 265.344,231.323 265.671 C 230.771 265.998,229.216 266.435,227.868 266.640 C 226.520 266.846,225.088 267.228,224.685 267.490 C 224.283 267.751,222.898 268.133,221.608 268.339 C 220.318 268.545,218.585 268.998,217.755 269.346 C 216.926 269.694,215.284 270.134,214.106 270.324 C 212.928 270.515,211.700 270.909,211.377 271.202 C 211.049 271.498,209.924 271.811,208.829 271.909 C 207.750 272.006,206.146 272.313,205.263 272.590 C 203.840 273.038,203.519 273.038,202.410 272.594 C 201.723 272.319,200.259 271.990,199.156 271.861 C 198.054 271.733,196.588 271.344,195.899 270.997 C 195.210 270.650,193.627 270.203,192.381 270.005 C 191.136 269.807,189.763 269.414,189.329 269.131 C 188.896 268.848,187.570 268.479,186.383 268.311 C 185.196 268.143,183.651 267.712,182.948 267.354 C 182.246 266.996,180.858 266.600,179.864 266.476 C 178.870 266.351,177.379 265.969,176.549 265.628 C 175.720 265.287,174.011 264.849,172.752 264.654 C 171.493 264.459,170.120 264.075,169.701 263.801 C 169.283 263.527,167.826 263.088,166.464 262.826 C 165.101 262.564,163.526 262.119,162.963 261.836 C 162.400 261.553,160.918 261.178,159.671 261.001 C 158.423 260.824,157.034 260.438,156.583 260.143 C 156.132 259.847,154.900 259.454,153.845 259.269 C 152.790 259.083,151.248 258.650,150.419 258.307 C 149.590 257.963,148.157 257.578,147.236 257.451 C 146.315 257.324,144.262 256.783,142.674 256.248 C 141.086 255.714,139.459 255.276,139.059 255.276 C 138.659 255.276,137.772 254.995,137.089 254.650 C 136.405 254.306,135.092 253.921,134.171 253.795 C 129.024 253.090,128.827 252.771,128.342 244.334 C 128.129 240.619,127.740 236.850,127.478 235.959 C 127.183 234.956,126.872 231.275,126.660 226.298 C 126.468 221.781,126.098 217.230,125.815 215.913 C 125.537 214.623,125.228 212.211,125.128 210.553 C 125.028 208.894,124.772 205.015,124.559 201.932 C 124.018 194.078,121.651 194.975,142.925 194.975 L 160.454 194.975 160.913 195.729 C 161.175 196.158,161.539 198.431,161.757 201.005 C 161.969 203.492,162.289 206.038,162.467 206.661 C 162.646 207.284,162.879 210.374,162.984 213.528 C 163.336 224.040,163.334 224.035,167.113 224.449 C 168.505 224.602,169.794 224.940,170.122 225.237 C 170.439 225.524,171.735 225.924,173.004 226.126 C 174.272 226.329,175.928 226.773,176.683 227.113 C 177.439 227.453,178.886 227.840,179.899 227.973 C 180.913 228.106,182.360 228.493,183.116 228.833 C 183.871 229.173,185.530 229.617,186.801 229.820 C 188.072 230.022,189.470 230.421,189.906 230.706 C 190.343 230.991,191.890 231.432,193.344 231.686 C 194.797 231.939,196.405 232.363,196.916 232.627 C 199.642 234.037,207.227 233.883,210.243 232.357 C 210.809 232.070,212.467 231.670,213.928 231.467 C 215.678 231.224,216.774 230.894,217.143 230.499 C 217.517 230.099,218.464 229.819,219.991 229.659 C 221.326 229.519,222.739 229.137,223.386 228.741 C 224.028 228.348,225.507 227.945,226.903 227.784 C 228.229 227.630,229.876 227.214,230.563 226.857 C 231.250 226.501,232.683 226.103,233.746 225.972 C 234.809 225.842,236.131 225.459,236.683 225.121 C 237.236 224.783,238.612 224.402,239.741 224.275 C 240.870 224.148,241.926 223.948,242.086 223.831 C 243.374 222.894,244.192 217.601,244.215 210.050 C 244.221 208.300,244.375 206.001,244.558 204.941 C 244.741 203.882,245.044 202.148,245.231 201.089 C 245.418 200.029,245.724 195.515,245.910 191.057 C 246.150 185.341,246.395 182.604,246.743 181.772 C 247.397 180.206,247.386 178.354,246.721 178.098 C 246.438 177.990,218.549 177.798,184.746 177.672 C 129.251 177.466,123.242 177.392,122.829 176.913 C 122.089 176.053,121.646 172.805,121.274 165.494 C 121.082 161.717,120.627 156.893,120.264 154.774 C 119.864 152.445,119.474 147.874,119.278 143.216 C 119.100 138.978,118.729 134.456,118.454 133.166 C 118.178 131.876,117.800 127.730,117.613 123.953 C 117.414 119.931,117.057 116.253,116.750 115.075 C 116.432 113.852,116.043 109.656,115.756 104.355 C 115.497 99.564,115.055 94.288,114.772 92.630 C 114.490 90.972,114.099 86.600,113.902 82.915 C 113.706 79.229,113.377 75.461,113.173 74.539 C 112.639 72.133,112.635 68.470,113.166 67.939 C 113.986 67.120,292.551 66.699,293.714 67.514 " stroke="none" fill="#e55427" fill-rule="evenodd"></path><path id="path1" d="M0.000 167.504 L 0.000 335.008 98.660 335.008 C 181.820 335.008,197.320 334.937,197.320 334.551 C 197.320 334.224,196.658 334.046,195.011 333.928 C 193.710 333.835,192.065 333.464,191.242 333.078 C 190.439 332.701,189.030 332.289,188.112 332.161 C 186.370 331.919,184.590 331.174,184.590 330.689 C 184.590 330.533,183.497 330.334,182.161 330.246 C 180.561 330.140,179.276 329.840,178.397 329.364 C 177.663 328.968,176.457 328.642,175.717 328.640 C 174.977 328.638,173.557 328.257,172.561 327.794 C 171.565 327.330,169.792 326.815,168.620 326.649 C 167.449 326.483,165.985 326.035,165.367 325.653 C 164.722 325.254,163.674 324.958,162.908 324.958 C 161.447 324.958,159.581 324.425,158.794 323.783 C 158.518 323.557,157.324 323.277,156.142 323.160 C 154.813 323.028,153.471 322.644,152.625 322.154 C 151.857 321.709,150.474 321.289,149.476 321.197 C 148.452 321.102,147.314 320.750,146.796 320.369 C 146.161 319.900,145.128 319.647,143.286 319.509 C 141.516 319.376,140.291 319.086,139.483 318.609 C 138.827 318.222,137.402 317.813,136.315 317.699 C 135.012 317.563,133.975 317.223,133.269 316.703 C 132.560 316.180,131.739 315.912,130.839 315.911 C 129.271 315.909,127.014 315.347,126.331 314.789 C 126.072 314.578,124.836 314.233,123.584 314.021 C 122.331 313.810,120.861 313.320,120.317 312.933 C 119.679 312.479,118.809 312.226,117.871 312.224 C 116.306 312.220,113.114 311.473,112.460 310.959 C 112.240 310.785,111.166 310.556,110.073 310.449 C 108.852 310.329,107.730 309.990,107.163 309.571 C 106.620 309.170,105.436 308.799,104.292 308.671 C 103.221 308.552,101.577 308.097,100.638 307.661 C 99.699 307.225,98.311 306.868,97.555 306.868 C 96.151 306.868,94.707 306.399,93.797 305.649 C 93.518 305.419,92.101 305.083,90.649 304.903 C 88.903 304.686,87.689 304.339,87.066 303.879 C 86.548 303.496,85.922 303.183,85.675 303.183 C 84.635 303.183,84.422 302.374,84.422 298.412 C 84.422 295.019,84.328 294.314,83.771 293.538 C 83.118 292.626,82.749 288.448,82.273 276.549 C 82.200 274.707,81.900 272.144,81.608 270.854 C 81.283 269.421,81.000 266.035,80.880 262.144 C 80.735 257.449,80.508 255.076,80.016 253.099 C 79.489 250.980,79.285 248.503,79.040 241.272 C 78.870 236.241,78.592 231.864,78.422 231.546 C 77.852 230.481,77.372 226.014,77.194 220.101 C 77.096 216.876,76.811 213.409,76.561 212.395 C 75.810 209.361,75.637 207.550,75.362 199.832 C 75.201 195.314,74.890 191.490,74.560 189.950 C 73.879 186.777,73.402 181.710,73.377 177.387 C 73.365 175.449,73.161 173.472,72.892 172.697 C 72.292 170.967,71.692 163.234,71.692 157.237 C 71.692 153.587,71.539 151.944,71.006 149.886 C 70.501 147.933,70.234 145.341,69.992 140.034 C 69.812 136.072,69.528 132.379,69.362 131.826 C 68.642 129.434,68.262 125.412,68.009 117.499 C 67.804 111.106,67.600 108.596,67.170 107.203 C 66.754 105.855,66.557 103.650,66.436 98.995 C 66.306 93.963,66.133 92.174,65.610 90.452 C 64.887 88.074,64.346 81.333,64.331 74.509 C 64.324 71.529,64.140 69.759,63.633 67.809 C 63.087 65.708,62.906 63.701,62.761 58.124 C 62.616 52.539,62.445 50.643,61.933 48.927 C 61.419 47.209,61.219 44.979,60.956 38.040 C 60.775 33.240,60.488 28.861,60.320 28.308 C 59.688 26.231,59.270 22.412,58.982 16.080 C 58.819 12.487,58.596 9.246,58.486 8.878 C 58.368 8.481,58.529 7.898,58.882 7.447 L 59.478 6.685 203.525 6.694 C 338.301 6.702,347.598 6.739,347.990 7.268 C 348.830 8.402,348.206 27.334,347.270 29.083 C 346.927 29.724,346.687 32.202,346.436 37.688 C 346.202 42.796,345.897 46.071,345.532 47.404 C 345.133 48.857,344.905 51.782,344.709 57.965 C 344.515 64.065,344.277 67.138,343.881 68.685 C 343.553 69.968,343.140 73.977,342.871 78.498 C 342.620 82.702,342.274 86.622,342.101 87.208 C 341.307 89.896,341.046 92.455,340.900 98.995 C 340.797 103.628,340.518 107.460,340.083 110.218 C 339.721 112.521,339.324 116.817,339.202 119.765 C 339.081 122.714,338.756 126.181,338.480 127.471 C 338.204 128.760,337.768 134.065,337.509 139.259 C 337.125 146.994,336.917 149.067,336.359 150.722 C 335.801 152.380,335.678 153.604,335.678 157.536 C 335.678 162.762,335.253 167.066,334.480 169.682 C 334.151 170.794,333.873 174.229,333.655 179.899 C 333.439 185.497,333.143 189.193,332.795 190.620 C 332.479 191.920,332.151 195.498,331.983 199.497 C 331.702 206.163,331.373 209.026,330.681 210.826 C 330.481 211.345,330.318 213.606,330.317 215.851 C 330.315 221.960,329.708 230.306,329.148 231.914 C 328.852 232.761,328.646 234.617,328.636 236.516 C 328.606 242.249,328.045 248.381,327.362 250.453 C 326.807 252.133,326.681 253.757,326.518 261.307 C 326.355 268.875,326.231 270.459,325.681 272.047 C 325.203 273.423,324.976 275.303,324.811 279.249 C 324.512 286.389,324.051 290.632,323.446 291.800 C 323.077 292.515,322.948 293.943,322.948 297.325 C 322.948 302.098,322.696 303.183,321.586 303.183 C 321.218 303.183,320.836 303.395,320.736 303.654 C 320.474 304.337,319.087 304.775,316.423 305.016 C 315.137 305.132,313.856 305.416,313.575 305.648 C 312.651 306.410,311.213 306.868,309.740 306.868 C 308.918 306.868,308.124 307.067,307.907 307.328 C 307.462 307.865,305.440 308.422,302.896 308.708 C 301.878 308.823,300.694 309.212,300.159 309.607 C 299.479 310.109,298.533 310.349,296.761 310.468 C 294.930 310.591,294.117 310.805,293.567 311.307 C 293.022 311.804,292.194 312.025,290.400 312.154 C 288.659 312.278,287.780 312.506,287.293 312.961 C 286.583 313.621,286.238 313.729,283.752 314.064 C 282.923 314.175,281.574 314.589,280.755 314.984 C 279.936 315.378,278.429 315.764,277.405 315.841 C 276.382 315.918,274.791 316.332,273.869 316.760 C 272.948 317.189,271.383 317.643,270.391 317.769 C 269.399 317.895,268.112 318.279,267.531 318.622 C 266.914 318.986,265.434 319.341,263.974 319.476 C 262.282 319.632,261.180 319.923,260.563 320.378 C 260.002 320.791,258.920 321.109,257.747 321.207 C 256.518 321.309,255.438 321.638,254.707 322.134 C 254.027 322.596,252.809 322.989,251.661 323.118 C 250.609 323.237,248.805 323.699,247.651 324.146 C 246.498 324.593,244.849 324.958,243.988 324.958 C 242.858 324.958,242.213 325.154,241.672 325.662 C 241.131 326.170,240.232 326.444,238.442 326.644 C 237.036 326.802,235.464 327.211,234.815 327.588 C 234.184 327.954,232.764 328.406,231.658 328.592 C 230.553 328.778,228.819 329.238,227.806 329.614 C 226.792 329.989,225.293 330.301,224.474 330.307 C 223.430 330.315,222.610 330.578,221.733 331.185 C 220.831 331.810,219.889 332.103,218.365 332.234 C 217.200 332.333,216.022 332.600,215.745 332.827 C 214.913 333.509,213.062 334.003,211.340 334.003 C 210.119 334.003,209.715 334.128,209.715 334.506 C 209.715 334.951,220.510 335.008,304.858 335.008 L 400.000 335.008 400.000 167.504 L 400.000 0.000 200.000 0.000 L 0.000 0.000 0.000 167.504 M161.474 69.680 L 118.425 69.853 160.151 69.935 C 192.065 69.998,201.971 70.111,202.278 70.419 C 202.870 71.011,202.854 100.477,202.261 101.269 C 201.879 101.779,200.114 101.832,182.077 101.873 C 171.206 101.897,161.633 102.032,160.804 102.173 C 159.975 102.314,188.467 102.447,224.121 102.469 L 288.945 102.509 289.679 99.915 C 290.242 97.928,290.495 95.703,290.763 90.414 C 291.027 85.204,291.277 82.983,291.783 81.369 C 292.630 78.666,292.765 71.229,291.987 70.165 C 291.452 69.432,255.860 69.300,161.474 69.680 M116.704 90.452 C 116.704 92.203,116.760 92.919,116.829 92.044 C 116.898 91.168,116.898 89.736,116.829 88.861 C 116.760 87.986,116.704 88.702,116.704 90.452 M155.668 101.885 C 155.330 102.081,154.550 102.147,153.935 102.032 C 153.294 101.912,152.725 101.969,152.603 102.167 C 152.463 102.394,153.334 102.513,155.130 102.513 C 157.528 102.513,157.819 102.450,157.454 102.010 C 156.967 101.423,156.516 101.391,155.668 101.885 M118.617 110.553 C 118.620 113.643,118.635 113.707,119.149 112.758 C 119.714 111.715,119.607 109.075,118.954 107.954 C 118.706 107.530,118.614 108.239,118.617 110.553 M120.268 124.958 C 120.268 126.494,120.344 127.674,120.436 127.582 C 120.681 127.337,120.714 122.612,120.473 122.371 C 120.360 122.258,120.268 123.423,120.268 124.958 M152.034 125.050 C 151.147 125.402,150.705 127.303,151.511 127.303 C 151.687 127.303,151.744 127.529,151.638 127.806 C 151.532 128.082,151.575 128.308,151.733 128.308 C 151.892 128.308,152.112 128.542,152.222 128.828 C 152.346 129.152,152.284 129.263,152.057 129.123 C 151.798 128.963,151.792 129.084,152.035 129.538 C 152.318 130.068,152.260 130.188,151.700 130.231 C 150.772 130.300,150.048 131.313,150.545 131.845 C 151.026 132.360,151.567 132.271,152.370 131.544 C 152.924 131.042,153.555 124.473,153.032 124.659 C 152.977 124.678,152.528 124.854,152.034 125.050 M170.282 142.253 C 170.397 142.367,177.637 142.435,186.372 142.402 L 202.254 142.342 202.476 143.449 C 202.598 144.058,202.685 151.378,202.669 159.716 C 202.654 168.053,202.740 175.035,202.861 175.230 C 203.427 176.148,205.501 176.246,224.435 176.252 C 243.129 176.259,247.932 176.441,248.664 177.174 C 249.437 177.946,248.511 190.548,247.418 194.137 C 247.070 195.281,246.907 197.253,246.905 200.352 C 246.900 206.191,246.313 213.493,245.708 215.227 C 245.419 216.057,245.234 217.950,245.231 220.110 C 245.225 224.198,244.889 224.970,242.955 225.332 C 242.270 225.461,241.316 225.856,240.835 226.211 C 240.274 226.625,239.198 226.914,237.820 227.020 C 236.593 227.114,235.127 227.477,234.387 227.871 C 233.673 228.251,231.952 228.688,230.535 228.849 C 228.947 229.030,227.347 229.460,226.325 229.981 C 225.310 230.498,224.114 230.821,223.213 230.821 C 222.280 230.821,221.419 231.062,220.841 231.486 C 220.283 231.895,218.926 232.290,217.322 232.511 C 215.886 232.709,214.225 233.158,213.630 233.509 C 213.035 233.860,211.651 234.252,210.555 234.381 C 209.459 234.510,208.070 234.906,207.467 235.262 C 206.864 235.618,205.485 235.989,204.403 236.087 L 202.435 236.266 202.673 237.320 C 202.803 237.900,203.089 238.709,203.308 239.117 C 203.622 239.704,203.608 240.054,203.239 240.784 C 202.597 242.057,202.228 244.370,202.318 246.566 C 202.475 250.426,202.740 265.198,202.684 267.002 C 202.676 267.278,202.761 267.976,202.874 268.552 C 203.039 269.394,202.932 269.702,202.329 270.124 L 201.579 270.650 202.494 270.880 C 203.997 271.257,207.112 270.818,208.422 270.044 C 209.093 269.648,210.446 269.229,211.429 269.112 C 212.411 268.996,213.691 268.620,214.272 268.277 C 214.862 267.929,216.344 267.560,217.630 267.441 C 219.037 267.311,220.259 266.990,220.771 266.618 C 221.231 266.283,222.739 265.792,224.121 265.527 C 225.503 265.262,227.312 264.735,228.141 264.356 C 229.052 263.939,230.357 263.663,231.439 263.659 C 232.665 263.654,233.518 263.447,234.142 263.002 C 234.644 262.645,236.099 262.170,237.376 261.948 C 238.653 261.726,240.226 261.269,240.871 260.934 C 241.516 260.599,242.948 260.219,244.054 260.090 C 245.159 259.962,246.817 259.506,247.739 259.077 C 248.660 258.649,249.970 258.297,250.651 258.295 C 251.331 258.293,252.399 257.990,253.024 257.621 C 253.664 257.243,255.391 256.783,256.980 256.566 C 258.530 256.355,260.025 256.000,260.302 255.777 C 261.059 255.166,262.939 254.606,264.236 254.606 C 264.872 254.606,265.834 254.290,266.378 253.903 C 266.994 253.465,268.256 253.088,269.729 252.903 C 272.185 252.595,276.382 250.834,276.382 250.112 C 276.382 248.890,277.446 241.431,277.724 240.697 C 277.907 240.216,278.062 237.759,278.069 235.238 C 278.085 228.804,278.596 222.206,279.211 220.477 C 279.543 219.541,279.733 217.845,279.735 215.787 C 279.740 211.191,280.348 204.874,280.957 203.079 C 281.343 201.941,281.544 199.255,281.735 192.649 C 281.940 185.536,282.131 183.147,282.684 180.737 C 283.171 178.612,283.478 175.545,283.721 170.352 C 283.934 165.810,284.263 162.274,284.578 161.139 C 285.420 158.109,285.717 143.387,284.952 142.622 C 284.409 142.079,280.898 142.044,227.223 142.044 C 195.790 142.044,170.167 142.138,170.282 142.253 M122.198 147.473 C 122.108 147.711,122.066 148.358,122.104 148.911 C 122.142 149.464,122.197 150.929,122.226 152.167 C 122.269 154.013,122.368 154.383,122.779 154.226 C 123.054 154.120,123.190 153.890,123.082 153.714 C 122.973 153.539,122.805 152.010,122.708 150.316 C 122.522 147.087,122.464 146.765,122.198 147.473 M124.038 168.007 C 124.041 168.744,124.110 169.006,124.190 168.589 C 124.270 168.172,124.267 167.569,124.183 167.249 C 124.099 166.929,124.034 167.270,124.038 168.007 M132.915 196.563 C 134.066 196.628,135.951 196.628,137.102 196.563 C 138.254 196.498,137.312 196.444,135.008 196.444 C 132.705 196.444,131.763 196.498,132.915 196.563 M144.752 196.448 C 145.053 196.737,152.684 196.912,154.104 196.663 C 155.160 196.478,153.966 196.386,150.112 196.357 C 147.087 196.334,144.675 196.375,144.752 196.448 M127.707 210.553 C 127.694 212.952,127.760 213.379,128.029 212.644 C 128.251 212.036,128.256 211.004,128.045 209.629 L 127.724 207.538 127.707 210.553 M159.654 211.133 C 159.354 213.671,159.599 215.009,160.177 213.980 C 160.388 213.603,160.402 212.567,160.215 211.133 L 159.921 208.878 159.654 211.133 M168.883 228.107 C 169.283 229.256,171.524 230.099,171.524 229.100 C 171.524 228.508,169.887 227.136,169.179 227.136 C 168.624 227.136,168.587 227.258,168.883 228.107 M129.340 231.173 C 129.354 232.729,129.441 233.777,129.532 233.501 C 129.623 233.224,129.858 232.667,130.055 232.263 C 130.449 231.451,130.205 229.233,129.660 228.689 C 129.421 228.449,129.321 229.219,129.340 231.173 M174.539 229.204 C 174.539 229.356,174.992 229.481,175.544 229.481 C 176.097 229.481,176.549 229.422,176.549 229.351 C 176.549 229.280,176.097 229.155,175.544 229.074 C 174.992 228.993,174.539 229.051,174.539 229.204 M182.328 231.052 C 182.651 231.136,183.178 231.136,183.501 231.052 C 183.823 230.967,183.559 230.898,182.915 230.898 C 182.270 230.898,182.006 230.967,182.328 231.052 M194.895 234.743 C 195.312 234.823,195.915 234.820,196.235 234.736 C 196.555 234.652,196.214 234.587,195.477 234.590 C 194.740 234.594,194.478 234.663,194.895 234.743 M199.541 245.571 C 199.770 245.800,200.160 245.807,200.697 245.593 C 201.459 245.288,201.438 245.267,200.352 245.247 C 199.558 245.233,199.304 245.334,199.541 245.571 M140.579 252.666 C 140.669 252.812,141.195 252.931,141.748 252.931 C 142.340 252.931,142.667 252.792,142.544 252.593 C 142.429 252.406,141.903 252.287,141.375 252.327 C 140.847 252.367,140.489 252.520,140.579 252.666 M149.749 252.596 C 149.069 252.814,149.215 252.871,150.522 252.898 C 151.519 252.919,152.054 252.803,151.926 252.596 C 151.688 252.212,150.950 252.212,149.749 252.596 M176.047 263.317 C 175.917 263.527,176.624 263.643,177.953 263.628 C 179.445 263.611,179.870 263.520,179.397 263.317 C 178.460 262.914,176.296 262.914,176.047 263.317 M183.585 265.004 C 183.585 265.294,185.632 265.736,185.871 265.496 C 186.183 265.185,185.610 264.885,184.592 264.824 C 184.038 264.791,183.585 264.872,183.585 265.004 M189.192 267.063 C 188.957 267.212,189.467 267.329,190.369 267.332 C 191.244 267.334,191.960 267.278,191.960 267.206 C 191.960 266.934,189.588 266.812,189.192 267.063 " stroke="none" fill="#faf9f8" fill-rule="evenodd"></path><path id="path2" d="M59.629 7.540 C 58.884 8.439,59.353 18.354,60.461 25.121 C 60.718 26.690,61.021 30.762,61.135 34.171 C 61.347 40.492,61.786 45.268,62.322 47.069 C 62.486 47.621,62.787 51.164,62.991 54.941 C 63.195 58.719,63.581 63.015,63.848 64.489 C 64.116 65.963,64.478 70.410,64.654 74.372 C 65.039 83.033,65.231 85.126,65.825 87.102 C 66.074 87.931,66.452 91.851,66.665 95.812 C 66.878 99.774,67.191 103.769,67.360 104.690 C 68.163 109.049,68.329 110.651,68.335 114.105 C 68.343 118.673,68.896 125.752,69.367 127.317 C 69.559 127.954,69.928 131.899,70.188 136.082 C 70.447 140.266,70.889 144.939,71.170 146.467 C 71.451 147.996,71.828 152.789,72.008 157.119 C 72.188 161.449,72.560 166.273,72.834 167.839 C 73.108 169.405,73.495 173.099,73.694 176.047 C 73.892 178.995,74.277 182.915,74.548 184.757 C 75.006 187.861,75.176 190.007,76.025 203.350 C 76.195 206.022,76.492 208.622,76.685 209.129 C 76.878 209.635,77.195 213.103,77.391 216.834 C 77.587 220.565,78.036 225.427,78.388 227.638 C 78.753 229.928,79.125 234.542,79.253 238.358 C 79.376 242.044,79.702 246.415,79.977 248.074 C 80.252 249.732,80.538 251.918,80.612 252.931 C 81.228 261.348,81.809 268.180,81.925 268.367 C 82.200 268.812,82.732 274.997,83.090 281.910 C 83.291 285.779,83.664 289.698,83.920 290.620 C 84.176 291.541,84.485 294.330,84.606 296.817 C 84.820 301.211,85.233 302.848,86.126 302.848 C 86.317 302.848,87.256 303.209,88.212 303.651 C 89.168 304.093,90.854 304.558,91.960 304.683 C 93.065 304.808,94.473 305.203,95.088 305.561 C 95.703 305.918,97.286 306.386,98.606 306.600 C 99.925 306.815,101.246 307.192,101.542 307.438 C 101.837 307.685,103.299 308.101,104.791 308.364 C 106.284 308.626,107.851 309.059,108.275 309.326 C 108.699 309.594,110.087 309.987,111.360 310.202 C 112.633 310.416,114.097 310.809,114.613 311.076 C 115.128 311.343,116.694 311.720,118.091 311.914 C 119.489 312.108,121.115 312.551,121.706 312.898 C 122.297 313.244,123.603 313.636,124.609 313.768 C 125.615 313.900,126.896 314.277,127.457 314.607 C 128.017 314.937,129.531 315.372,130.821 315.575 C 132.111 315.778,133.769 316.228,134.506 316.576 C 135.243 316.923,136.600 317.313,137.521 317.442 C 138.442 317.570,139.772 317.966,140.476 318.321 C 141.180 318.676,142.845 319.088,144.175 319.237 C 145.505 319.386,147.081 319.760,147.677 320.069 C 148.273 320.377,149.623 320.784,150.678 320.973 C 151.733 321.163,153.231 321.620,154.007 321.989 C 154.783 322.358,156.339 322.790,157.464 322.949 C 158.589 323.108,159.706 323.402,159.946 323.601 C 160.186 323.800,161.689 324.249,163.286 324.598 C 164.883 324.947,166.393 325.401,166.641 325.607 C 166.889 325.812,168.306 326.194,169.790 326.455 C 171.274 326.716,172.970 327.179,173.558 327.483 C 174.147 327.787,175.554 328.167,176.686 328.328 C 177.817 328.488,179.192 328.842,179.740 329.115 C 180.288 329.388,181.792 329.778,183.082 329.983 C 184.372 330.188,185.762 330.573,186.170 330.840 C 186.579 331.107,188.087 331.614,189.521 331.967 C 190.954 332.320,192.730 332.831,193.467 333.102 C 194.204 333.373,195.750 333.701,196.901 333.832 C 198.361 333.997,198.995 334.211,198.995 334.539 C 198.995 334.879,199.457 335.008,200.670 335.008 C 204.113 335.008,202.368 333.597,198.215 333.023 C 196.957 332.849,195.584 332.481,195.164 332.206 C 194.744 331.930,193.436 331.534,192.258 331.326 C 191.081 331.117,189.577 330.670,188.917 330.332 C 188.256 329.994,186.626 329.548,185.294 329.341 C 183.962 329.135,182.516 328.732,182.081 328.448 C 181.647 328.163,180.291 327.788,179.069 327.615 C 177.846 327.442,176.378 327.058,175.806 326.763 C 175.234 326.467,173.583 326.018,172.137 325.766 C 170.691 325.513,169.088 325.090,168.575 324.825 C 168.063 324.560,166.670 324.167,165.480 323.953 C 164.290 323.738,162.864 323.287,162.312 322.951 C 161.759 322.614,160.402 322.235,159.296 322.109 C 158.191 321.983,156.722 321.596,156.033 321.248 C 155.344 320.901,153.761 320.455,152.515 320.257 C 151.270 320.058,149.895 319.664,149.459 319.379 C 149.024 319.095,147.592 318.714,146.277 318.532 C 144.962 318.351,143.208 317.923,142.379 317.582 C 141.549 317.241,140.072 316.801,139.095 316.605 C 138.119 316.408,136.875 316.017,136.330 315.736 C 135.786 315.454,134.274 315.090,132.970 314.927 C 131.667 314.763,130.340 314.393,130.022 314.105 C 129.703 313.817,128.291 313.361,126.884 313.092 C 125.476 312.822,123.977 312.380,123.552 312.109 C 123.128 311.838,121.712 311.455,120.407 311.258 C 119.101 311.060,117.368 310.612,116.554 310.262 C 115.741 309.912,114.246 309.524,113.233 309.399 C 112.219 309.275,111.043 308.947,110.619 308.671 C 110.195 308.396,108.591 307.966,107.054 307.718 C 105.517 307.469,103.904 307.037,103.470 306.758 C 103.035 306.478,101.700 306.069,100.503 305.847 C 99.305 305.626,97.977 305.228,97.552 304.963 C 97.127 304.699,95.489 304.257,93.911 303.982 C 92.334 303.706,90.722 303.274,90.329 303.022 C 89.936 302.769,89.035 302.456,88.327 302.327 C 86.455 301.984,85.862 300.815,85.636 297.026 C 85.021 286.679,84.732 283.118,84.423 282.077 C 84.232 281.432,83.856 276.603,83.589 271.345 C 83.220 264.101,82.975 261.530,82.577 260.732 C 82.193 259.962,81.963 257.844,81.721 252.871 C 81.540 249.127,81.249 245.008,81.075 243.719 C 80.901 242.429,80.615 240.318,80.438 239.028 C 80.262 237.739,80.018 234.045,79.896 230.821 C 79.687 225.267,79.564 224.031,78.749 219.286 C 78.561 218.193,78.253 214.198,78.065 210.408 C 77.876 206.618,77.495 202.236,77.217 200.670 C 76.939 199.104,76.556 194.463,76.367 190.357 C 76.177 186.251,75.874 182.180,75.692 181.312 C 75.040 178.200,74.735 175.297,74.523 170.184 C 74.404 167.328,74.018 163.333,73.664 161.307 C 73.282 159.115,72.882 154.430,72.678 149.749 C 72.484 145.305,72.119 140.946,71.840 139.740 C 71.569 138.566,71.133 133.968,70.872 129.523 C 70.611 125.077,70.314 121.214,70.211 120.938 C 69.723 119.624,69.299 115.074,69.018 108.125 C 68.825 103.380,68.513 99.715,68.189 98.410 C 67.885 97.186,67.474 92.744,67.199 87.725 C 66.941 83.001,66.567 78.831,66.368 78.459 C 65.995 77.762,65.914 76.802,65.296 65.662 C 65.097 62.069,64.720 58.303,64.459 57.293 C 64.197 56.284,63.827 52.289,63.636 48.416 C 63.445 44.542,63.069 40.394,62.800 39.196 C 62.531 37.998,62.154 33.626,61.964 29.481 C 61.773 25.335,61.378 20.360,61.086 18.425 C 60.221 12.701,60.017 10.006,60.372 8.988 L 60.699 8.048 203.710 8.042 L 346.720 8.036 346.943 8.924 C 347.232 10.076,346.849 16.575,346.402 18.090 C 346.212 18.735,345.901 22.353,345.710 26.131 C 345.519 29.908,345.206 33.978,345.015 35.176 C 344.823 36.374,344.538 38.183,344.382 39.196 C 344.225 40.209,343.936 44.280,343.739 48.241 C 343.542 52.203,343.159 56.424,342.887 57.621 C 342.616 58.819,342.237 63.116,342.045 67.169 C 341.819 71.941,341.468 75.602,341.050 77.554 C 340.617 79.579,340.288 83.158,340.049 88.452 C 339.853 92.787,339.465 97.612,339.187 99.172 C 338.908 100.733,338.539 105.025,338.365 108.710 C 338.192 112.395,337.811 116.541,337.518 117.923 C 337.223 119.315,336.772 124.440,336.508 129.415 C 336.245 134.354,335.953 138.520,335.859 138.673 C 335.506 139.243,335.019 143.770,334.667 149.762 C 334.467 153.164,334.079 157.037,333.805 158.370 C 333.532 159.704,333.094 164.754,332.831 169.593 C 332.569 174.433,332.135 179.447,331.866 180.737 C 331.596 182.027,331.210 186.248,331.007 190.117 C 330.804 193.987,330.417 198.057,330.148 199.162 C 329.863 200.330,329.510 204.541,329.306 209.213 C 329.112 213.635,328.730 218.594,328.455 220.233 C 327.942 223.297,327.865 224.172,327.297 233.343 C 327.114 236.297,326.730 239.915,326.445 241.384 C 326.159 242.852,325.788 247.219,325.620 251.089 C 325.453 254.958,325.083 259.330,324.800 260.804 C 324.517 262.278,324.056 267.102,323.776 271.524 C 323.496 275.946,323.115 280.032,322.930 280.604 C 322.430 282.149,321.967 288.021,321.954 292.978 C 321.937 299.630,321.193 301.980,318.978 302.381 C 318.306 302.503,317.332 302.817,316.814 303.079 C 316.295 303.342,314.682 303.765,313.229 304.021 C 311.775 304.276,310.239 304.700,309.816 304.963 C 309.392 305.226,308.065 305.634,306.868 305.870 C 305.670 306.106,304.265 306.511,303.746 306.771 C 303.226 307.031,301.677 307.459,300.303 307.722 C 298.929 307.985,297.394 308.411,296.892 308.669 C 296.390 308.927,294.948 309.298,293.686 309.493 C 292.424 309.689,291.034 310.083,290.595 310.370 C 290.157 310.657,288.627 311.053,287.194 311.249 C 285.762 311.445,284.283 311.803,283.908 312.045 C 283.533 312.286,282.034 312.731,280.578 313.032 C 279.121 313.333,277.665 313.819,277.342 314.111 C 276.998 314.423,275.716 314.759,274.242 314.924 C 272.860 315.079,271.275 315.441,270.719 315.729 C 270.163 316.016,268.641 316.476,267.337 316.750 C 266.033 317.025,264.519 317.480,263.972 317.763 C 263.426 318.046,261.944 318.407,260.680 318.565 C 259.415 318.724,258.021 319.088,257.582 319.375 C 257.143 319.661,255.879 320.043,254.774 320.223 C 253.668 320.404,252.085 320.850,251.256 321.214 C 250.427 321.579,248.920 321.984,247.906 322.115 C 246.893 322.245,245.310 322.699,244.389 323.122 C 243.467 323.546,241.884 323.996,240.871 324.122 C 239.858 324.248,238.682 324.572,238.258 324.841 C 237.834 325.110,236.297 325.540,234.841 325.796 C 233.385 326.052,231.847 326.482,231.424 326.753 C 231.000 327.023,229.551 327.411,228.203 327.615 C 226.855 327.819,225.423 328.196,225.020 328.453 C 224.618 328.709,223.203 329.084,221.876 329.284 C 220.550 329.485,218.756 330.026,217.890 330.486 C 217.024 330.947,215.773 331.327,215.109 331.331 C 214.446 331.335,213.247 331.636,212.445 332.000 C 211.642 332.364,210.026 332.815,208.852 333.002 C 204.766 333.655,203.315 335.008,206.700 335.008 C 207.900 335.008,208.375 334.877,208.375 334.547 C 208.375 334.228,209.161 333.968,210.906 333.708 C 212.297 333.501,213.893 333.096,214.451 332.807 C 215.010 332.518,216.396 332.136,217.532 331.958 C 218.668 331.780,219.975 331.362,220.436 331.029 C 220.896 330.696,222.449 330.249,223.887 330.035 C 225.325 329.822,226.911 329.435,227.412 329.176 C 227.912 328.917,229.193 328.545,230.258 328.348 C 231.323 328.151,232.858 327.696,233.668 327.338 C 234.479 326.979,236.017 326.584,237.086 326.460 C 238.154 326.336,239.631 325.960,240.369 325.624 C 241.106 325.287,242.613 324.833,243.719 324.614 C 244.824 324.394,246.106 324.011,246.566 323.762 C 247.027 323.512,248.432 323.160,249.688 322.979 C 250.945 322.798,252.603 322.350,253.373 321.984 C 254.144 321.618,255.634 321.163,256.686 320.975 C 257.738 320.786,259.170 320.344,259.869 319.994 C 260.567 319.644,262.083 319.263,263.237 319.148 C 264.391 319.032,265.898 318.654,266.587 318.307 C 267.276 317.960,268.593 317.570,269.514 317.442 C 270.436 317.313,271.792 316.925,272.529 316.581 C 273.266 316.236,274.962 315.807,276.298 315.626 C 277.634 315.446,279.216 315.003,279.815 314.642 C 280.414 314.281,281.718 313.884,282.712 313.759 C 283.706 313.634,285.063 313.255,285.727 312.917 C 286.391 312.579,288.065 312.128,289.447 311.914 C 290.828 311.701,292.318 311.290,292.758 311.002 C 293.197 310.714,294.617 310.346,295.912 310.183 C 297.208 310.020,298.628 309.652,299.067 309.364 C 299.506 309.076,301.055 308.631,302.508 308.376 C 303.962 308.120,305.593 307.683,306.132 307.404 C 306.672 307.125,308.028 306.749,309.146 306.569 C 310.264 306.389,311.580 305.979,312.070 305.658 C 312.560 305.337,314.202 304.891,315.719 304.667 C 317.659 304.380,319.037 303.943,320.367 303.192 C 322.559 301.955,322.478 302.207,322.791 295.645 C 322.906 293.250,323.218 289.858,323.485 288.107 C 323.753 286.357,324.194 281.683,324.465 277.722 C 324.737 273.760,325.187 269.539,325.465 268.342 C 325.765 267.052,326.113 262.833,326.319 257.991 C 326.533 252.963,326.858 249.095,327.162 247.941 C 327.434 246.908,327.876 242.521,328.144 238.191 C 328.412 233.861,328.784 229.683,328.971 228.906 C 329.398 227.135,329.974 219.286,329.987 215.075 C 329.992 213.325,330.146 210.913,330.328 209.715 C 331.181 204.118,331.626 199.754,331.828 195.013 C 331.949 192.178,332.262 188.861,332.525 187.643 C 332.788 186.424,333.158 181.960,333.349 177.722 C 333.561 172.997,333.947 168.656,334.345 166.499 C 334.703 164.564,335.164 159.966,335.371 156.281 C 335.577 152.596,335.966 148.752,336.235 147.739 C 336.530 146.627,336.908 142.178,337.189 136.516 C 337.445 131.357,337.807 126.627,337.995 126.006 C 338.182 125.385,338.574 121.239,338.866 116.793 C 339.159 112.348,339.620 107.684,339.892 106.429 C 340.171 105.139,340.533 100.552,340.725 95.876 C 340.912 91.327,341.204 87.228,341.375 86.767 C 341.765 85.714,342.714 75.575,342.714 72.458 C 342.714 71.174,343.016 68.676,343.385 66.906 C 343.859 64.640,344.156 61.289,344.391 55.564 C 344.574 51.095,344.941 46.375,345.207 45.076 C 345.632 42.996,346.061 38.340,346.533 30.653 C 346.613 29.363,346.914 26.879,347.202 25.131 C 348.085 19.792,348.323 8.536,347.572 7.706 C 346.743 6.790,60.389 6.626,59.629 7.540 M158.224 67.334 C 122.261 67.471,113.517 67.589,113.166 67.939 C 112.635 68.470,112.639 72.133,113.173 74.539 C 113.377 75.461,113.706 79.229,113.902 82.915 C 114.099 86.600,114.490 90.972,114.772 92.630 C 115.055 94.288,115.497 99.564,115.756 104.355 C 116.043 109.656,116.432 113.852,116.750 115.075 C 117.057 116.253,117.414 119.931,117.613 123.953 C 117.800 127.730,118.178 131.876,118.454 133.166 C 118.729 134.456,119.100 138.978,119.278 143.216 C 119.474 147.874,119.864 152.445,120.264 154.774 C 120.627 156.893,121.082 161.717,121.274 165.494 C 121.646 172.805,122.089 176.053,122.829 176.913 C 123.242 177.392,129.251 177.466,184.746 177.672 C 218.549 177.798,246.438 177.990,246.721 178.098 C 247.386 178.354,247.397 180.206,246.743 181.772 C 246.395 182.604,246.150 185.341,245.910 191.057 C 245.724 195.515,245.418 200.029,245.231 201.089 C 245.044 202.148,244.741 203.882,244.558 204.941 C 244.375 206.001,244.221 208.300,244.215 210.050 C 244.192 217.601,243.374 222.894,242.086 223.831 C 241.926 223.948,240.870 224.148,239.741 224.275 C 238.612 224.402,237.236 224.783,236.683 225.121 C 236.131 225.459,234.809 225.842,233.746 225.972 C 232.683 226.103,231.250 226.501,230.563 226.857 C 229.876 227.214,228.229 227.630,226.903 227.784 C 225.507 227.945,224.028 228.348,223.386 228.741 C 222.739 229.137,221.326 229.519,219.991 229.659 C 218.464 229.819,217.517 230.099,217.143 230.499 C 216.774 230.894,215.678 231.224,213.928 231.467 C 212.467 231.670,210.809 232.070,210.243 232.357 C 207.227 233.883,199.642 234.037,196.916 232.627 C 196.405 232.363,194.797 231.939,193.344 231.686 C 191.890 231.432,190.343 230.991,189.906 230.706 C 189.470 230.421,188.072 230.022,186.801 229.820 C 185.530 229.617,183.871 229.173,183.116 228.833 C 182.360 228.493,180.913 228.106,179.899 227.973 C 178.886 227.840,177.439 227.453,176.683 227.113 C 175.928 226.773,174.272 226.329,173.004 226.126 C 171.735 225.924,170.439 225.524,170.122 225.237 C 169.794 224.940,168.505 224.602,167.113 224.449 C 163.334 224.035,163.336 224.040,162.984 213.528 C 162.879 210.374,162.646 207.284,162.467 206.661 C 162.289 206.038,161.969 203.492,161.757 201.005 C 161.539 198.431,161.175 196.158,160.913 195.729 L 160.454 194.975 142.925 194.975 C 121.651 194.975,124.018 194.078,124.559 201.932 C 124.772 205.015,125.028 208.894,125.128 210.553 C 125.228 212.211,125.537 214.623,125.815 215.913 C 126.098 217.230,126.468 221.781,126.660 226.298 C 126.872 231.275,127.183 234.956,127.478 235.959 C 127.740 236.850,128.129 240.619,128.342 244.334 C 128.827 252.771,129.024 253.090,134.171 253.795 C 135.092 253.921,136.405 254.306,137.089 254.650 C 137.772 254.995,138.659 255.276,139.059 255.276 C 139.459 255.276,141.086 255.714,142.674 256.248 C 144.262 256.783,146.315 257.324,147.236 257.451 C 148.157 257.578,149.590 257.963,150.419 258.307 C 151.248 258.650,152.790 259.083,153.845 259.269 C 154.900 259.454,156.132 259.847,156.583 260.143 C 157.034 260.438,158.423 260.824,159.671 261.001 C 160.918 261.178,162.400 261.553,162.963 261.836 C 163.526 262.119,165.101 262.564,166.464 262.826 C 167.826 263.088,169.283 263.527,169.701 263.801 C 170.120 264.075,171.493 264.459,172.752 264.654 C 174.011 264.849,175.720 265.287,176.549 265.628 C 177.379 265.969,178.870 266.351,179.864 266.476 C 180.858 266.600,182.246 266.996,182.948 267.354 C 183.651 267.712,185.196 268.143,186.383 268.311 C 187.570 268.479,188.896 268.848,189.329 269.131 C 189.763 269.414,191.136 269.807,192.381 270.005 C 193.627 270.203,195.210 270.650,195.899 270.997 C 196.588 271.344,198.054 271.733,199.156 271.861 C 200.259 271.990,201.723 272.319,202.410 272.594 C 203.519 273.038,203.840 273.038,205.263 272.590 C 206.146 272.313,207.750 272.006,208.829 271.909 C 209.924 271.811,211.049 271.498,211.377 271.202 C 211.700 270.909,212.928 270.515,214.106 270.324 C 215.284 270.134,216.926 269.694,217.755 269.346 C 218.585 268.998,220.318 268.545,221.608 268.339 C 222.898 268.133,224.283 267.751,224.685 267.490 C 225.088 267.228,226.520 266.846,227.868 266.640 C 229.216 266.435,230.771 265.998,231.323 265.671 C 231.876 265.344,233.384 264.977,234.673 264.856 C 236.151 264.717,237.341 264.402,237.890 264.003 C 238.370 263.655,239.726 263.182,240.905 262.953 C 242.084 262.724,243.576 262.272,244.221 261.950 C 244.866 261.627,246.374 261.257,247.571 261.127 C 248.769 260.998,250.296 260.615,250.965 260.276 C 251.633 259.937,253.121 259.508,254.271 259.322 C 255.421 259.137,256.728 258.746,257.175 258.453 C 257.622 258.160,259.103 257.795,260.466 257.643 C 261.902 257.481,263.409 257.085,264.051 256.699 C 264.661 256.332,265.911 255.936,266.830 255.818 C 267.750 255.699,269.106 255.299,269.845 254.929 C 270.585 254.558,272.312 254.096,273.684 253.901 C 278.511 253.216,278.749 252.763,279.097 243.601 C 279.260 239.323,279.592 235.309,279.905 233.831 C 280.198 232.452,280.576 228.610,280.745 225.293 C 281.127 217.805,281.334 215.723,281.926 213.451 C 282.192 212.429,282.553 208.109,282.765 203.401 C 282.988 198.466,283.338 194.346,283.635 193.163 C 283.909 192.073,284.334 187.541,284.580 183.067 C 284.843 178.297,285.193 174.642,285.428 174.204 C 285.664 173.761,285.955 170.644,286.142 166.544 C 286.536 157.908,286.920 153.317,287.392 151.591 C 288.091 149.040,288.279 141.928,287.664 141.313 C 286.704 140.353,279.030 140.266,217.026 140.511 L 156.832 140.750 156.464 140.062 C 156.262 139.684,155.942 136.394,155.755 132.752 C 155.567 129.110,155.188 125.094,154.912 123.827 C 154.029 119.763,153.576 106.296,154.297 105.500 C 154.882 104.853,155.703 104.848,222.087 105.074 C 273.893 105.250,289.457 105.211,290.033 104.903 C 291.296 104.227,291.695 102.898,291.950 98.524 C 292.083 96.238,292.410 93.600,292.676 92.661 C 292.988 91.562,293.276 87.916,293.484 82.412 C 293.710 76.440,293.967 73.328,294.337 72.070 C 294.970 69.923,294.738 68.231,293.714 67.514 C 292.928 66.963,265.357 66.926,158.224 67.334 M292.243 69.304 C 292.901 69.850,293.031 77.645,292.444 81.407 C 291.448 87.796,291.158 90.360,290.964 94.472 C 290.847 96.960,290.592 99.719,290.397 100.603 C 289.744 103.566,296.956 103.301,221.115 103.149 L 153.824 103.015 152.923 103.853 C 152.428 104.313,151.903 105.000,151.756 105.379 C 151.383 106.345,152.020 114.493,152.580 115.913 C 152.854 116.608,153.261 120.338,153.579 125.075 C 153.875 129.470,154.248 133.314,154.409 133.618 C 154.571 133.922,154.812 135.636,154.945 137.427 C 155.078 139.217,155.383 140.951,155.624 141.279 C 156.040 141.849,158.931 141.870,218.848 141.753 C 253.381 141.685,282.700 141.737,284.001 141.867 C 286.545 142.123,287.090 142.768,286.381 144.684 C 286.238 145.070,285.960 148.742,285.763 152.844 C 285.565 156.946,285.183 161.809,284.912 163.652 C 284.463 166.711,284.183 169.976,283.564 179.381 C 283.443 181.214,283.137 183.400,282.884 184.238 C 282.602 185.171,282.285 189.012,282.068 194.137 C 281.873 198.744,281.504 203.794,281.249 205.360 C 280.569 209.529,280.418 211.001,280.083 216.750 C 279.917 219.606,279.543 223.224,279.252 224.791 C 278.962 226.357,278.500 231.859,278.226 237.018 C 277.456 251.514,277.189 252.118,271.128 253.099 C 269.556 253.354,268.023 253.784,267.720 254.054 C 267.417 254.325,266.415 254.652,265.494 254.780 C 264.573 254.908,262.990 255.364,261.977 255.792 C 260.963 256.220,259.229 256.667,258.124 256.785 C 257.018 256.903,255.511 257.280,254.774 257.623 C 254.037 257.966,252.571 258.401,251.516 258.591 C 250.461 258.781,249.156 259.164,248.617 259.443 C 248.077 259.722,246.528 260.122,245.175 260.331 C 243.821 260.540,242.186 260.978,241.541 261.304 C 240.896 261.630,239.690 262.006,238.861 262.140 C 238.032 262.274,236.675 262.663,235.846 263.004 C 235.017 263.346,233.094 263.855,231.573 264.134 C 230.052 264.414,228.469 264.855,228.055 265.114 C 227.642 265.373,226.474 265.687,225.461 265.813 C 224.447 265.938,222.958 266.333,222.150 266.689 C 221.343 267.046,219.700 267.495,218.499 267.687 C 217.298 267.879,215.697 268.311,214.942 268.647 C 214.186 268.983,212.913 269.358,212.113 269.479 C 211.313 269.600,210.032 270.029,209.266 270.431 C 207.208 271.512,201.550 271.494,199.216 270.398 C 198.325 269.980,196.666 269.482,195.531 269.292 C 194.396 269.102,192.864 268.673,192.127 268.338 C 191.390 268.002,189.825 267.623,188.648 267.494 C 187.471 267.366,186.039 266.990,185.465 266.659 C 184.892 266.328,183.518 265.876,182.412 265.654 C 181.307 265.432,180.025 265.061,179.564 264.831 C 179.104 264.600,177.672 264.224,176.382 263.994 C 175.092 263.765,173.506 263.302,172.857 262.966 C 172.209 262.630,170.852 262.247,169.842 262.115 C 168.833 261.983,167.102 261.540,165.997 261.131 C 164.891 260.721,163.084 260.276,161.980 260.142 C 160.876 260.008,159.444 259.630,158.797 259.302 C 158.151 258.975,156.950 258.595,156.129 258.458 C 155.309 258.321,154.103 257.936,153.449 257.601 C 152.796 257.266,151.161 256.844,149.816 256.662 C 148.471 256.480,146.751 256.009,145.994 255.615 C 145.238 255.220,143.851 254.813,142.912 254.709 C 141.974 254.605,140.712 254.224,140.109 253.861 C 139.484 253.485,138.114 253.123,136.926 253.020 C 135.689 252.912,134.229 252.517,133.336 252.047 C 132.508 251.612,131.658 251.256,131.446 251.256 C 130.913 251.256,130.653 250.449,130.653 248.793 C 130.653 248.022,130.352 246.302,129.983 244.972 C 129.615 243.643,129.311 241.610,129.309 240.457 C 129.303 237.511,128.410 227.758,128.006 226.230 C 127.821 225.530,127.511 221.189,127.316 216.583 C 126.913 207.075,126.488 202.401,125.978 201.891 C 125.786 201.699,125.628 200.365,125.628 198.928 L 125.628 196.315 128.224 196.257 C 136.680 196.066,152.754 196.025,155.611 196.186 C 159.995 196.433,160.096 196.553,160.324 201.755 C 160.508 205.944,161.355 214.157,161.821 216.278 C 161.987 217.032,162.225 219.093,162.349 220.858 C 162.624 224.777,162.585 224.712,165.023 225.323 C 166.111 225.597,167.303 225.958,167.672 226.127 C 168.780 226.635,170.954 227.132,172.075 227.134 C 172.654 227.135,173.205 227.338,173.300 227.586 C 173.474 228.037,176.569 228.811,178.202 228.811 C 178.680 228.811,179.599 229.093,180.244 229.439 C 180.889 229.785,182.319 230.257,183.422 230.488 C 184.525 230.719,186.030 231.182,186.767 231.515 C 187.504 231.849,189.087 232.229,190.285 232.360 C 191.482 232.491,192.990 232.864,193.635 233.190 C 194.280 233.515,195.706 233.962,196.804 234.182 C 197.902 234.402,199.177 234.829,199.637 235.130 C 200.793 235.887,204.938 235.865,206.112 235.095 C 206.580 234.789,207.996 234.361,209.260 234.144 C 210.524 233.927,212.085 233.485,212.730 233.162 C 213.375 232.839,214.841 232.467,215.988 232.336 C 217.136 232.205,218.635 231.811,219.320 231.462 C 220.005 231.112,221.470 230.663,222.576 230.462 C 223.682 230.262,225.123 229.826,225.777 229.494 C 226.432 229.162,227.948 228.779,229.146 228.643 C 230.343 228.507,231.851 228.130,232.496 227.804 C 233.141 227.477,234.776 227.039,236.129 226.830 C 237.483 226.621,239.005 226.235,239.513 225.973 C 240.020 225.710,241.127 225.322,241.972 225.109 C 244.433 224.489,244.585 224.155,244.908 218.684 C 245.064 216.040,245.336 213.205,245.513 212.383 C 245.969 210.263,246.505 203.748,246.735 197.531 C 246.847 194.496,247.205 190.830,247.568 188.988 C 248.706 183.215,248.833 178.073,247.854 177.432 C 247.128 176.956,240.918 176.881,186.588 176.696 C 148.332 176.565,125.731 176.368,125.042 176.158 C 123.735 175.761,123.776 175.933,123.324 168.982 C 123.131 166.018,122.812 163.171,122.617 162.656 C 122.421 162.141,122.101 159.290,121.907 156.320 C 121.712 153.351,121.329 149.338,121.056 147.404 C 120.783 145.469,120.413 140.419,120.233 136.181 C 120.053 131.943,119.680 126.968,119.405 125.126 C 119.129 123.283,118.609 118.233,118.249 113.903 C 117.888 109.573,117.428 105.427,117.226 104.690 C 117.023 103.953,116.657 98.978,116.411 93.635 C 116.101 86.867,115.807 83.411,115.442 82.245 C 114.686 79.825,114.297 69.896,114.942 69.481 C 116.047 68.769,291.388 68.594,292.243 69.304 " stroke="none" fill="#f5b297" fill-rule="evenodd"></path><path id="path3" d="M60.076 6.636 C 58.845 6.812,58.228 8.135,58.601 9.796 C 58.778 10.581,59.006 13.861,59.109 17.085 C 59.212 20.341,59.541 24.214,59.849 25.796 C 60.153 27.362,60.505 29.774,60.631 31.156 L 60.861 33.668 60.916 30.781 C 60.947 29.193,60.751 26.630,60.483 25.086 C 59.371 18.702,58.872 8.452,59.629 7.540 C 60.389 6.626,346.743 6.790,347.572 7.706 C 348.323 8.536,348.085 19.792,347.202 25.131 C 346.914 26.879,346.613 29.363,346.533 30.653 C 346.056 38.407,345.630 43.008,345.188 45.170 C 344.911 46.521,344.737 48.103,344.799 48.687 L 344.913 49.749 345.311 48.409 C 345.980 46.152,346.340 42.663,346.590 36.013 C 346.758 31.527,346.965 29.441,347.289 28.946 C 348.201 27.552,348.821 8.390,347.990 7.268 C 347.614 6.760,63.583 6.137,60.076 6.636 M61.143 40.536 C 61.246 45.659,61.386 47.082,61.949 48.744 L 62.630 50.754 62.484 48.911 C 62.404 47.898,62.174 46.240,61.974 45.226 C 61.773 44.213,61.476 41.348,61.314 38.861 L 61.019 34.338 61.143 40.536 M344.279 57.370 C 344.130 61.870,343.861 64.771,343.390 66.969 C 343.018 68.701,342.714 71.170,342.714 72.455 C 342.714 75.713,341.762 85.768,341.366 86.699 C 341.186 87.122,341.050 88.253,341.065 89.212 C 341.086 90.574,341.149 90.772,341.357 90.117 C 342.151 87.609,342.481 85.056,342.881 78.312 C 343.139 73.966,343.548 70.016,343.860 68.844 C 344.374 66.919,345.089 50.921,344.661 50.921 C 344.569 50.921,344.397 53.823,344.279 57.370 M62.819 58.291 C 62.922 63.833,63.079 65.671,63.634 67.809 C 64.139 69.757,64.324 71.533,64.331 74.509 C 64.346 81.400,64.887 88.080,65.608 90.285 L 66.265 92.295 66.298 90.411 C 66.317 89.374,66.124 87.939,65.871 87.220 C 65.284 85.556,65.035 82.906,64.667 74.372 C 64.504 70.595,64.132 66.147,63.842 64.489 C 63.551 62.831,63.173 59.213,63.002 56.449 L 62.691 51.424 62.819 58.291 M160.469 69.012 C 134.621 69.108,115.211 69.308,114.942 69.481 C 114.297 69.896,114.686 79.825,115.442 82.245 C 115.807 83.411,116.101 86.867,116.411 93.635 C 116.657 98.978,117.023 103.953,117.226 104.690 C 117.428 105.427,117.888 109.573,118.249 113.903 C 118.609 118.233,119.129 123.283,119.405 125.126 C 119.680 126.968,120.053 131.943,120.233 136.181 C 120.413 140.419,120.783 145.469,121.056 147.404 C 121.329 149.338,121.712 153.351,121.907 156.320 C 122.101 159.290,122.421 162.141,122.617 162.656 C 122.812 163.171,123.131 166.018,123.324 168.982 C 123.776 175.933,123.735 175.761,125.042 176.158 C 125.731 176.368,148.332 176.565,186.588 176.696 C 240.918 176.881,247.128 176.956,247.854 177.432 C 248.838 178.076,248.704 183.223,247.552 189.065 C 247.194 190.881,246.916 193.067,246.934 193.922 L 246.967 195.477 247.445 193.970 C 248.506 190.620,249.427 177.936,248.664 177.174 C 247.932 176.441,243.129 176.259,224.435 176.252 C 205.501 176.246,203.427 176.148,202.861 175.230 C 202.740 175.035,202.654 168.053,202.669 159.716 C 202.685 151.378,202.598 144.058,202.476 143.449 L 202.254 142.342 186.303 142.301 C 159.076 142.232,157.724 142.217,158.521 141.993 C 159.034 141.849,158.705 141.764,157.549 141.742 C 155.374 141.700,155.260 141.509,154.941 137.353 C 154.807 135.603,154.567 133.922,154.407 133.618 C 154.247 133.314,153.875 129.470,153.579 125.075 C 153.261 120.338,152.854 116.608,152.580 115.913 C 152.020 114.493,151.383 106.345,151.756 105.379 C 151.903 105.000,152.428 104.313,152.923 103.853 L 153.824 103.015 221.115 103.149 C 296.956 103.301,289.744 103.566,290.397 100.603 C 290.592 99.719,290.847 96.960,290.964 94.472 C 291.158 90.360,291.448 87.796,292.444 81.407 C 293.031 77.645,292.901 69.850,292.243 69.304 C 291.624 68.790,246.800 68.691,160.469 69.012 M291.987 70.165 C 292.765 71.229,292.630 78.666,291.783 81.369 C 291.277 82.983,291.027 85.204,290.763 90.414 C 290.495 95.703,290.242 97.928,289.679 99.915 L 288.945 102.509 224.121 102.469 C 188.467 102.447,159.975 102.314,160.804 102.173 C 161.633 102.032,171.206 101.897,182.077 101.873 C 200.114 101.832,201.879 101.779,202.261 101.269 C 202.854 100.477,202.870 71.011,202.278 70.419 C 201.971 70.111,192.065 69.998,160.151 69.935 L 118.425 69.853 161.474 69.680 C 255.860 69.300,291.452 69.432,291.987 70.165 M116.829 92.044 C 116.760 92.919,116.704 92.203,116.704 90.452 C 116.704 88.702,116.760 87.986,116.829 88.861 C 116.898 89.736,116.898 91.168,116.829 92.044 M340.614 98.241 C 340.509 101.420,340.192 105.075,339.910 106.365 C 339.628 107.655,339.159 112.348,338.866 116.793 C 338.574 121.239,338.182 125.385,337.995 126.006 C 337.807 126.627,337.445 131.357,337.189 136.516 C 336.881 142.718,336.541 146.575,336.185 147.899 C 335.889 149.000,335.696 150.433,335.755 151.082 C 336.097 154.800,337.062 148.249,337.515 139.137 C 337.770 134.010,338.204 128.760,338.480 127.471 C 338.756 126.181,339.081 122.714,339.202 119.765 C 339.324 116.817,339.720 112.521,340.082 110.218 C 340.689 106.358,341.384 92.462,340.970 92.462 C 340.879 92.462,340.719 95.063,340.614 98.241 M66.494 99.330 C 66.576 103.783,66.754 105.842,67.172 107.203 C 67.599 108.592,67.805 111.127,68.009 117.499 C 68.262 125.414,68.642 129.437,69.362 131.826 C 69.529 132.379,69.807 135.997,69.981 139.866 C 70.295 146.886,71.353 153.839,71.625 150.670 C 71.684 149.979,71.491 148.125,71.196 146.551 C 70.901 144.977,70.447 140.266,70.188 136.082 C 69.928 131.899,69.559 127.954,69.367 127.317 C 68.899 125.761,68.347 118.731,68.317 113.938 C 68.304 111.800,68.167 109.296,68.013 108.375 C 67.859 107.454,67.563 105.719,67.354 104.519 C 67.145 103.320,66.841 100.305,66.678 97.819 L 66.383 93.300 66.494 99.330 M157.454 102.010 C 157.819 102.450,157.528 102.513,155.130 102.513 C 153.334 102.513,152.463 102.394,152.603 102.167 C 152.725 101.969,153.294 101.912,153.935 102.032 C 154.550 102.147,155.330 102.081,155.668 101.885 C 156.516 101.391,156.967 101.423,157.454 102.010 M119.486 110.160 C 119.622 111.305,119.523 112.068,119.149 112.758 C 118.635 113.707,118.620 113.643,118.617 110.553 C 118.613 107.169,119.106 106.947,119.486 110.160 M120.640 124.995 C 120.620 126.326,120.528 127.490,120.436 127.582 C 120.344 127.674,120.268 126.494,120.268 124.958 C 120.268 123.423,120.360 122.258,120.473 122.371 C 120.585 122.484,120.661 123.664,120.640 124.995 M153.073 127.792 C 153.005 131.460,151.876 133.270,150.545 131.845 C 150.048 131.313,150.772 130.300,151.700 130.231 C 152.260 130.188,152.318 130.068,152.035 129.538 C 151.792 129.084,151.798 128.963,152.057 129.123 C 152.284 129.263,152.346 129.152,152.222 128.828 C 152.112 128.542,151.892 128.308,151.733 128.308 C 151.575 128.308,151.532 128.082,151.638 127.806 C 151.744 127.529,151.687 127.303,151.511 127.303 C 150.126 127.303,151.292 125.276,153.032 124.659 C 153.087 124.639,153.106 126.049,153.073 127.792 M171.433 141.950 C 172.028 142.024,173.083 142.026,173.778 141.953 C 174.473 141.881,173.987 141.820,172.697 141.818 C 171.407 141.817,170.838 141.876,171.433 141.950 M222.555 141.960 C 233.947 142.009,252.490 142.009,263.761 141.960 C 275.033 141.911,265.712 141.871,243.049 141.871 C 220.385 141.871,211.163 141.911,222.555 141.960 M284.952 142.622 C 285.717 143.387,285.420 158.109,284.578 161.139 C 284.263 162.274,283.934 165.810,283.721 170.352 C 283.473 175.638,283.177 178.575,282.672 180.737 C 282.093 183.218,281.954 185.027,281.885 190.955 L 281.801 198.157 282.090 192.069 C 282.254 188.611,282.595 185.210,282.878 184.196 C 283.153 183.215,283.461 181.131,283.563 179.564 C 284.188 169.950,284.495 166.333,284.914 163.652 C 285.173 161.993,285.549 157.209,285.750 153.020 C 285.951 148.830,286.234 145.083,286.378 144.693 C 286.914 143.244,286.455 142.044,285.365 142.044 C 284.427 142.044,284.405 142.074,284.952 142.622 M122.708 150.316 C 122.805 152.010,122.973 153.539,123.082 153.714 C 123.190 153.890,123.054 154.120,122.779 154.226 C 122.368 154.383,122.269 154.013,122.226 152.167 C 122.197 150.929,122.142 149.464,122.104 148.911 C 122.040 147.984,122.247 146.908,122.446 147.138 C 122.492 147.192,122.610 148.622,122.708 150.316 M71.745 157.602 C 71.678 163.030,72.279 170.928,72.892 172.697 C 73.161 173.470,73.366 175.453,73.378 177.387 C 73.414 182.990,74.346 191.104,75.092 192.295 C 75.496 192.940,75.262 189.641,74.568 184.925 C 74.284 182.990,73.889 178.995,73.691 176.047 C 73.493 173.099,73.095 169.330,72.807 167.672 C 72.519 166.013,72.174 162.094,72.041 158.961 L 71.798 153.266 71.745 157.602 M335.264 158.291 C 335.128 160.871,334.713 164.532,334.342 166.427 C 333.972 168.322,333.689 170.961,333.714 172.290 L 333.759 174.707 334.016 172.362 C 334.157 171.072,334.427 169.621,334.616 169.136 C 335.216 167.604,335.719 161.789,335.613 157.621 L 335.511 153.601 335.264 158.291 M124.190 168.589 C 124.110 169.006,124.041 168.744,124.038 168.007 C 124.034 167.270,124.099 166.929,124.183 167.249 C 124.267 167.569,124.270 168.172,124.190 168.589 M333.282 179.899 C 333.161 182.755,332.814 186.271,332.510 187.711 C 332.206 189.151,332.005 190.960,332.063 191.731 L 332.169 193.132 332.585 191.792 C 333.207 189.783,333.714 183.266,333.601 178.727 L 333.501 174.707 333.282 179.899 M75.446 198.492 C 75.367 203.892,75.842 209.782,76.557 212.279 C 76.864 213.349,77.052 215.461,77.052 217.833 C 77.052 222.080,77.583 228.257,78.125 230.318 C 78.319 231.055,78.584 232.789,78.714 234.171 L 78.951 236.683 79.005 234.171 C 79.035 232.789,78.764 229.849,78.403 227.638 C 78.042 225.427,77.587 220.565,77.391 216.834 C 77.195 213.103,76.885 209.654,76.701 209.171 C 76.338 208.216,75.755 201.634,75.607 196.817 C 75.543 194.726,75.494 195.240,75.446 198.492 M331.729 197.174 C 331.665 199.927,331.245 203.683,330.328 209.715 C 330.146 210.913,329.992 213.325,329.987 215.075 C 329.974 219.288,329.398 227.135,328.971 228.906 C 328.784 229.683,328.417 233.814,328.156 238.086 C 327.884 242.520,327.445 246.790,327.133 248.036 C 326.370 251.079,326.593 252.829,327.415 250.251 C 328.035 248.309,328.608 241.862,328.636 236.516 C 328.646 234.617,328.852 232.761,329.148 231.914 C 329.707 230.308,330.315 221.962,330.317 215.871 C 330.318 213.226,330.484 211.340,330.793 210.464 C 331.481 208.513,332.053 202.085,331.918 197.822 L 331.801 194.137 331.729 197.174 M128.224 196.229 L 125.628 196.343 125.628 198.942 C 125.628 200.372,125.786 201.699,125.978 201.891 C 126.488 202.401,126.913 207.075,127.316 216.583 C 127.511 221.189,127.821 225.530,128.006 226.230 C 128.410 227.758,129.303 237.511,129.309 240.457 C 129.311 241.610,129.615 243.643,129.983 244.972 C 130.352 246.302,130.653 248.022,130.653 248.793 C 130.653 250.449,130.913 251.256,131.446 251.256 C 131.658 251.256,132.508 251.612,133.336 252.047 C 134.229 252.517,135.689 252.912,136.926 253.020 C 138.114 253.123,139.484 253.485,140.109 253.861 C 140.712 254.224,141.974 254.605,142.912 254.709 C 143.851 254.813,145.238 255.220,145.994 255.615 C 146.751 256.009,148.471 256.480,149.816 256.662 C 151.161 256.844,152.796 257.266,153.449 257.601 C 154.103 257.936,155.309 258.321,156.129 258.458 C 156.950 258.595,158.151 258.975,158.797 259.302 C 159.444 259.630,160.876 260.008,161.980 260.142 C 163.084 260.276,164.891 260.721,165.997 261.131 C 167.102 261.540,168.833 261.983,169.842 262.115 C 170.852 262.247,172.209 262.630,172.857 262.966 C 173.506 263.302,175.092 263.765,176.382 263.994 C 177.672 264.224,179.104 264.600,179.564 264.831 C 180.025 265.061,181.307 265.432,182.412 265.654 C 183.518 265.876,184.892 266.328,185.465 266.659 C 186.039 266.990,187.471 267.366,188.648 267.494 C 189.825 267.623,191.390 268.002,192.127 268.338 C 192.864 268.673,194.396 269.102,195.531 269.292 C 196.666 269.482,198.325 269.980,199.216 270.398 C 201.550 271.494,207.208 271.512,209.266 270.431 C 210.032 270.029,211.313 269.600,212.113 269.479 C 212.913 269.358,214.200 268.977,214.974 268.632 C 215.747 268.288,217.179 267.861,218.156 267.683 L 219.933 267.359 217.630 267.506 C 216.221 267.597,214.918 267.896,214.272 268.277 C 213.691 268.620,212.411 268.996,211.429 269.112 C 210.446 269.229,209.093 269.648,208.422 270.044 C 207.112 270.818,203.997 271.257,202.494 270.880 L 201.579 270.650 202.329 270.124 C 202.932 269.702,203.039 269.394,202.874 268.552 C 202.761 267.976,202.676 267.278,202.684 267.002 C 202.740 265.198,202.475 250.426,202.318 246.566 C 202.228 244.370,202.597 242.057,203.239 240.784 C 203.608 240.054,203.622 239.704,203.308 239.117 C 203.089 238.709,202.803 237.900,202.673 237.320 L 202.435 236.266 204.403 236.087 C 205.485 235.989,206.864 235.618,207.467 235.262 C 208.070 234.906,209.459 234.510,210.555 234.381 C 211.651 234.252,213.035 233.860,213.630 233.509 C 214.225 233.158,215.886 232.709,217.322 232.511 C 218.926 232.290,220.283 231.895,220.841 231.486 C 221.419 231.062,222.280 230.821,223.213 230.821 C 224.114 230.821,225.310 230.498,226.325 229.981 C 227.347 229.460,228.947 229.030,230.535 228.849 C 231.952 228.688,233.673 228.251,234.387 227.871 C 235.127 227.477,236.593 227.114,237.820 227.020 C 239.198 226.914,240.274 226.625,240.835 226.211 C 241.316 225.856,242.270 225.461,242.955 225.332 C 244.889 224.970,245.225 224.198,245.231 220.110 C 245.234 217.950,245.419 216.057,245.708 215.227 C 246.336 213.427,246.914 205.956,246.847 200.519 L 246.793 196.147 246.549 201.508 C 246.319 206.557,245.712 212.550,245.376 213.094 C 245.292 213.229,245.089 215.624,244.924 218.415 C 244.583 224.183,244.450 224.485,241.972 225.109 C 241.127 225.322,240.020 225.710,239.513 225.973 C 239.005 226.235,237.483 226.621,236.129 226.830 C 234.776 227.039,233.141 227.477,232.496 227.804 C 231.851 228.130,230.343 228.507,229.146 228.643 C 227.948 228.779,226.432 229.162,225.777 229.494 C 225.123 229.826,223.682 230.262,222.576 230.462 C 221.470 230.663,220.005 231.112,219.320 231.462 C 218.635 231.811,217.136 232.205,215.988 232.336 C 214.841 232.467,213.375 232.839,212.730 233.162 C 212.085 233.485,210.524 233.927,209.260 234.144 C 207.996 234.361,206.580 234.789,206.112 235.095 C 204.938 235.865,200.793 235.887,199.637 235.130 C 199.177 234.829,197.902 234.402,196.804 234.182 C 195.706 233.962,194.280 233.515,193.635 233.190 C 192.990 232.864,191.482 232.491,190.285 232.360 C 189.087 232.229,187.504 231.849,186.767 231.515 C 186.030 231.182,184.525 230.719,183.422 230.488 C 182.319 230.257,180.889 229.785,180.244 229.439 C 179.599 229.093,178.680 228.811,178.202 228.811 C 176.569 228.811,173.474 228.037,173.300 227.586 C 173.205 227.338,172.654 227.135,172.075 227.134 C 170.954 227.132,168.780 226.635,167.672 226.127 C 167.303 225.958,166.111 225.597,165.023 225.323 C 162.585 224.712,162.624 224.777,162.349 220.858 C 162.225 219.093,161.987 217.032,161.821 216.278 C 161.355 214.157,160.508 205.944,160.324 201.755 C 160.072 195.995,159.464 195.700,148.576 196.053 C 145.158 196.164,145.280 196.181,150.251 196.283 C 154.555 196.372,155.281 196.450,153.936 196.680 C 153.015 196.837,151.131 196.900,149.749 196.819 C 146.391 196.622,141.629 196.317,139.363 196.154 C 138.073 196.060,137.772 196.105,138.358 196.302 C 138.890 196.481,137.668 196.572,135.008 196.552 L 130.821 196.520 134.171 196.315 L 137.521 196.110 134.171 196.112 C 132.328 196.114,129.652 196.166,128.224 196.229 M281.402 200.251 C 281.399 201.126,281.181 202.462,280.918 203.219 C 280.345 204.861,279.740 211.293,279.735 215.787 C 279.733 217.845,279.543 219.541,279.211 220.477 C 278.598 222.201,278.065 229.050,278.119 234.506 C 278.157 238.339,278.158 238.331,278.445 232.831 C 278.604 229.791,278.961 226.173,279.239 224.791 C 279.518 223.409,279.899 219.715,280.087 216.583 C 280.275 213.451,280.664 209.380,280.952 207.538 C 281.550 203.714,281.928 198.660,281.617 198.660 C 281.501 198.660,281.405 199.376,281.402 200.251 M128.029 212.644 C 127.760 213.379,127.694 212.952,127.707 210.553 L 127.724 207.538 128.045 209.629 C 128.256 211.004,128.251 212.036,128.029 212.644 M160.177 213.980 C 159.599 215.009,159.354 213.671,159.654 211.133 L 159.921 208.878 160.215 211.133 C 160.402 212.567,160.388 213.603,160.177 213.980 M170.670 227.928 C 172.044 229.202,171.749 229.757,169.954 229.275 C 168.945 229.004,168.268 227.136,169.179 227.136 C 169.529 227.136,170.199 227.492,170.670 227.928 M130.210 230.282 C 130.321 230.967,130.251 231.858,130.055 232.263 C 129.858 232.667,129.623 233.224,129.532 233.501 C 129.441 233.777,129.354 232.729,129.340 231.173 C 129.312 228.241,129.798 227.744,130.210 230.282 M176.549 229.351 C 176.549 229.422,176.097 229.481,175.544 229.481 C 174.992 229.481,174.539 229.356,174.539 229.204 C 174.539 229.051,174.992 228.993,175.544 229.074 C 176.097 229.155,176.549 229.280,176.549 229.351 M183.501 231.052 C 183.178 231.136,182.651 231.136,182.328 231.052 C 182.006 230.967,182.270 230.898,182.915 230.898 C 183.559 230.898,183.823 230.967,183.501 231.052 M196.235 234.736 C 195.915 234.820,195.312 234.823,194.895 234.743 C 194.478 234.663,194.740 234.594,195.477 234.590 C 196.214 234.587,196.555 234.652,196.235 234.736 M79.115 242.271 C 79.059 247.422,79.435 251.228,80.239 253.662 L 80.717 255.109 80.583 252.931 C 80.509 251.734,80.275 250.000,80.063 249.079 C 79.851 248.157,79.563 245.142,79.422 242.379 L 79.168 237.353 79.115 242.271 M277.566 241.113 C 277.346 241.988,276.382 249.314,276.382 250.109 C 276.382 250.833,272.189 252.594,269.729 252.903 C 268.256 253.088,266.994 253.465,266.378 253.903 C 265.834 254.290,264.872 254.606,264.236 254.606 C 262.939 254.606,261.059 255.166,260.302 255.777 C 260.025 256.000,258.530 256.355,256.980 256.566 C 255.391 256.783,253.664 257.243,253.024 257.621 C 252.399 257.990,251.331 258.293,250.651 258.295 C 249.970 258.297,248.660 258.649,247.739 259.077 C 246.817 259.506,245.159 259.962,244.054 260.090 C 242.948 260.219,241.510 260.602,240.858 260.941 C 240.206 261.280,238.623 261.735,237.340 261.952 C 236.058 262.169,234.631 262.637,234.171 262.991 C 233.049 263.856,233.923 263.868,235.887 263.015 C 236.694 262.665,238.032 262.270,238.861 262.137 C 239.690 262.005,240.896 261.630,241.541 261.304 C 242.186 260.978,243.821 260.540,245.175 260.331 C 246.528 260.122,248.077 259.722,248.617 259.443 C 249.156 259.164,250.461 258.781,251.516 258.591 C 252.571 258.401,254.037 257.966,254.774 257.623 C 255.511 257.280,257.018 256.903,258.124 256.785 C 259.229 256.667,260.963 256.220,261.977 255.792 C 262.990 255.364,264.573 254.908,265.494 254.780 C 266.415 254.652,267.417 254.325,267.720 254.054 C 268.023 253.784,269.556 253.354,271.128 253.099 C 275.418 252.405,276.510 251.593,277.193 248.593 C 278.040 244.866,278.392 237.821,277.566 241.113 M200.697 245.593 C 200.160 245.807,199.770 245.800,199.541 245.571 C 199.304 245.334,199.558 245.233,200.352 245.247 C 201.438 245.267,201.459 245.288,200.697 245.593 M142.544 252.593 C 142.667 252.792,142.340 252.931,141.748 252.931 C 140.440 252.931,140.125 252.422,141.375 252.327 C 141.903 252.287,142.429 252.406,142.544 252.593 M151.926 252.596 C 152.054 252.803,151.519 252.919,150.522 252.898 C 149.215 252.871,149.069 252.814,149.749 252.596 C 150.950 252.212,151.688 252.212,151.926 252.596 M326.196 260.218 C 326.066 264.153,325.779 267.184,325.350 269.179 C 324.990 270.853,324.598 274.430,324.469 277.219 C 324.341 279.983,324.027 283.827,323.772 285.762 C 322.834 292.864,322.840 292.753,323.428 291.738 C 324.045 290.671,324.507 286.497,324.811 279.249 C 324.975 275.328,325.205 273.414,325.676 272.047 C 326.287 270.271,327.087 254.271,326.564 254.271 C 326.471 254.271,326.305 256.947,326.196 260.218 M80.926 262.814 C 81.020 266.116,81.307 269.495,81.609 270.854 C 81.895 272.144,82.251 276.064,82.399 279.564 C 82.854 290.307,83.095 292.742,83.785 293.569 L 84.400 294.305 84.411 293.277 C 84.417 292.711,84.204 291.505,83.937 290.597 C 83.660 289.652,83.302 286.005,83.100 282.077 C 82.684 273.995,82.512 271.889,82.042 269.165 C 81.850 268.052,81.484 264.886,81.229 262.130 L 80.765 257.119 80.926 262.814 M179.397 263.317 C 179.870 263.520,179.445 263.611,177.953 263.628 C 176.624 263.643,175.917 263.527,176.047 263.317 C 176.296 262.914,178.460 262.914,179.397 263.317 M228.141 264.356 C 227.312 264.735,225.508 265.263,224.133 265.529 C 221.760 265.988,219.824 266.837,220.229 267.242 C 220.331 267.344,221.142 267.115,222.030 266.733 C 222.919 266.351,224.468 265.936,225.474 265.811 C 226.480 265.687,227.648 265.369,228.068 265.105 C 228.489 264.842,229.846 264.424,231.084 264.178 L 233.333 263.730 231.491 263.698 C 230.285 263.677,229.127 263.905,228.141 264.356 M185.820 265.105 C 185.942 265.227,185.965 265.403,185.871 265.496 C 185.632 265.736,183.585 265.294,183.585 265.004 C 183.585 264.710,185.513 264.798,185.820 265.105 M191.960 267.206 C 191.960 267.278,191.244 267.334,190.369 267.332 C 189.467 267.329,188.957 267.212,189.192 267.063 C 189.588 266.812,191.960 266.934,191.960 267.206 M322.684 297.884 C 322.572 302.467,320.802 304.164,315.578 304.698 C 314.380 304.820,312.879 305.221,312.242 305.589 C 311.605 305.957,310.190 306.401,309.098 306.577 C 308.007 306.753,306.672 307.125,306.132 307.404 C 305.593 307.683,303.962 308.120,302.508 308.376 C 301.055 308.631,299.506 309.076,299.067 309.364 C 298.628 309.652,297.208 310.020,295.912 310.183 C 294.617 310.346,293.191 310.718,292.744 311.011 C 292.298 311.304,291.109 311.691,290.103 311.873 L 288.275 312.202 290.559 312.084 C 292.255 311.997,293.032 311.795,293.574 311.300 C 294.116 310.806,294.940 310.591,296.761 310.468 C 298.533 310.349,299.479 310.109,300.159 309.607 C 300.694 309.212,301.878 308.823,302.896 308.708 C 305.440 308.422,307.462 307.865,307.907 307.328 C 308.124 307.067,308.918 306.868,309.740 306.868 C 311.213 306.868,312.651 306.410,313.575 305.648 C 313.856 305.416,315.137 305.132,316.423 305.016 C 319.087 304.775,320.474 304.337,320.736 303.654 C 320.836 303.395,321.218 303.183,321.586 303.183 C 322.686 303.183,322.979 302.085,322.863 298.409 L 322.754 294.975 322.684 297.884 M84.479 299.347 C 84.422 302.378,84.673 303.183,85.675 303.183 C 85.922 303.183,86.548 303.496,87.066 303.879 C 87.689 304.339,88.903 304.686,90.649 304.903 C 92.101 305.083,93.518 305.419,93.797 305.649 C 94.731 306.419,96.166 306.868,97.587 306.834 L 98.995 306.800 97.655 306.499 C 96.918 306.333,95.787 305.909,95.142 305.558 C 94.497 305.207,93.065 304.815,91.960 304.687 C 90.854 304.559,89.168 304.093,88.212 303.651 C 87.256 303.209,86.332 302.848,86.159 302.848 C 85.392 302.848,84.912 301.566,84.730 299.029 L 84.535 296.315 84.479 299.347 M100.348 307.562 C 101.078 307.944,102.713 308.407,103.982 308.591 C 105.300 308.782,106.674 309.210,107.187 309.589 C 107.729 309.990,108.875 310.331,110.073 310.449 C 111.166 310.556,112.240 310.785,112.460 310.959 C 113.153 311.504,116.353 312.221,117.923 312.183 L 119.430 312.146 117.513 311.865 C 116.458 311.711,115.163 311.361,114.635 311.088 C 114.107 310.814,112.633 310.416,111.360 310.202 C 110.087 309.987,108.699 309.594,108.275 309.326 C 107.851 309.059,106.284 308.626,104.791 308.364 C 103.299 308.101,101.825 307.657,101.515 307.377 C 101.206 307.097,100.518 306.868,99.987 306.868 C 99.038 306.868,99.045 306.880,100.348 307.562 M120.268 312.892 C 121.102 313.538,123.615 314.238,125.101 314.238 C 125.530 314.238,126.055 314.447,126.267 314.703 C 126.760 315.297,129.234 315.924,130.885 315.874 C 132.030 315.839,131.974 315.804,130.334 315.532 C 129.329 315.365,128.042 314.954,127.472 314.618 C 126.903 314.282,125.615 313.900,124.609 313.768 C 123.603 313.636,122.282 313.235,121.673 312.878 C 120.160 311.991,119.118 312.001,120.268 312.892 M285.762 312.890 C 285.117 313.239,283.760 313.627,282.747 313.752 C 281.734 313.878,280.406 314.282,279.797 314.650 C 279.188 315.019,277.907 315.445,276.949 315.598 L 275.209 315.876 277.224 315.795 C 278.483 315.744,279.820 315.433,280.787 314.965 C 281.638 314.553,283.144 314.125,284.132 314.014 C 285.877 313.818,287.772 313.025,287.772 312.491 C 287.772 312.063,287.013 312.213,285.762 312.890 M133.269 316.703 C 133.975 317.223,135.012 317.563,136.315 317.699 C 137.402 317.813,138.827 318.222,139.483 318.609 C 140.291 319.086,141.516 319.376,143.286 319.509 C 145.128 319.647,146.161 319.900,146.796 320.369 C 147.314 320.750,148.452 321.102,149.476 321.197 C 150.474 321.289,151.857 321.709,152.625 322.154 C 153.471 322.644,154.813 323.028,156.142 323.160 C 157.324 323.277,158.518 323.557,158.794 323.783 C 159.605 324.445,161.470 324.960,162.948 324.930 C 164.300 324.903,164.291 324.895,162.340 324.423 C 161.250 324.159,160.168 323.785,159.934 323.591 C 159.700 323.397,158.589 323.108,157.464 322.949 C 156.339 322.790,154.783 322.358,154.007 321.989 C 153.231 321.620,151.733 321.163,150.678 320.973 C 149.623 320.784,148.273 320.377,147.677 320.069 C 147.081 319.760,145.505 319.386,144.175 319.237 C 142.845 319.088,141.180 318.674,140.476 318.317 C 139.772 317.960,138.410 317.561,137.450 317.431 C 136.489 317.300,135.138 316.905,134.448 316.553 C 132.695 315.660,131.978 315.751,133.269 316.703 M272.831 316.440 C 272.445 316.711,271.088 317.131,269.816 317.374 C 268.545 317.617,267.018 318.068,266.424 318.376 C 265.830 318.684,264.397 319.031,263.241 319.147 C 262.085 319.263,260.560 319.648,259.851 320.003 C 259.143 320.358,257.937 320.784,257.171 320.949 C 255.839 321.235,255.862 321.244,257.716 321.149 C 259.003 321.082,259.958 320.824,260.563 320.378 C 261.180 319.923,262.282 319.632,263.974 319.476 C 265.434 319.341,266.914 318.986,267.531 318.622 C 268.112 318.279,269.399 317.891,270.391 317.760 C 272.120 317.532,275.042 316.488,275.042 316.099 C 275.042 315.726,273.516 315.961,272.831 316.440 M253.183 322.014 C 252.492 322.374,250.834 322.826,249.498 323.019 C 248.162 323.212,246.875 323.524,246.638 323.712 C 246.402 323.900,245.422 324.245,244.461 324.478 L 242.714 324.901 244.134 324.930 C 244.915 324.945,246.498 324.594,247.651 324.149 C 248.805 323.703,250.564 323.243,251.560 323.125 C 253.360 322.912,255.044 322.256,255.442 321.610 C 255.770 321.080,254.562 321.296,253.183 322.014 M165.395 325.657 C 165.985 326.035,167.432 326.481,168.609 326.647 C 169.787 326.814,171.565 327.330,172.561 327.794 C 173.557 328.257,174.977 328.638,175.717 328.640 C 176.457 328.642,177.663 328.967,178.397 329.362 C 179.307 329.852,180.478 330.114,182.077 330.186 L 184.422 330.291 182.602 329.964 C 181.601 329.783,180.323 329.407,179.762 329.128 C 179.202 328.848,177.817 328.488,176.686 328.328 C 175.554 328.167,174.147 327.787,173.558 327.483 C 172.970 327.179,171.288 326.719,169.822 326.461 C 168.356 326.203,166.824 325.760,166.418 325.475 C 166.012 325.191,165.374 324.961,165.001 324.964 C 164.444 324.968,164.515 325.093,165.395 325.657 M240.656 325.495 C 240.262 325.770,238.905 326.148,237.641 326.333 C 236.377 326.519,234.624 326.969,233.744 327.335 C 232.864 327.700,231.284 328.158,230.233 328.352 C 229.182 328.547,227.911 328.918,227.409 329.177 C 226.908 329.437,225.698 329.782,224.723 329.945 L 222.948 330.240 224.456 330.268 C 225.285 330.284,226.792 329.989,227.806 329.614 C 228.819 329.238,230.553 328.778,231.658 328.592 C 232.764 328.406,234.184 327.954,234.815 327.588 C 235.467 327.210,237.038 326.802,238.458 326.643 C 240.290 326.437,241.143 326.175,241.658 325.660 C 242.501 324.817,241.793 324.700,240.656 325.495 M184.590 330.645 C 184.590 331.170,186.308 331.910,188.112 332.161 C 189.030 332.289,190.433 332.698,191.228 333.071 C 192.087 333.474,193.581 333.795,194.913 333.863 C 197.123 333.976,197.131 333.973,195.486 333.672 C 194.570 333.505,193.288 333.137,192.639 332.856 C 191.989 332.575,190.426 332.114,189.166 331.832 C 187.905 331.550,186.553 331.094,186.160 330.819 C 185.344 330.247,184.590 330.164,184.590 330.645 M220.505 330.981 C 220.082 331.333,219.027 331.712,218.160 331.822 C 217.292 331.932,215.799 332.329,214.840 332.703 C 213.881 333.078,212.374 333.506,211.490 333.654 L 209.883 333.925 211.424 333.964 C 213.093 334.007,214.930 333.508,215.772 332.783 C 216.063 332.533,216.893 332.328,217.617 332.328 C 219.358 332.328,220.910 331.861,221.990 331.011 L 222.871 330.318 222.072 330.329 C 221.633 330.336,220.927 330.629,220.505 330.981 M197.320 334.506 C 197.320 334.819,197.636 335.008,198.157 335.008 C 198.679 335.008,198.995 334.819,198.995 334.506 C 198.995 334.193,198.679 334.003,198.157 334.003 C 197.636 334.003,197.320 334.193,197.320 334.506 M208.375 334.506 C 208.375 334.785,208.673 335.008,209.045 335.008 C 209.417 335.008,209.715 334.785,209.715 334.506 C 209.715 334.227,209.417 334.003,209.045 334.003 C 208.673 334.003,208.375 334.227,208.375 334.506 " stroke="none" fill="#e4ecea" fill-rule="evenodd"></path></g></svg>