<svg id="svg" version="1.1" xmlns="http://www.w3.org/2000/svg" xmlns:xlink="http://www.w3.org/1999/xlink" width="400" height="246.25" viewBox="0, 0, 400,246.25"><g id="svgg"><path id="path0" d="M22.661 0.519 C 11.990 2.805,3.469 11.092,0.744 21.833 L 0.000 24.768 0.000 123.125 L 0.000 221.482 0.747 224.413 C 3.516 235.281,12.067 243.526,22.877 245.754 C 26.570 246.514,373.430 246.514,377.123 245.754 C 388.237 243.463,397.213 234.487,399.504 223.373 C 400.262 219.690,400.262 26.560,399.504 22.877 C 397.208 11.737,388.263 2.792,377.123 0.496 C 373.554 -0.239,26.095 -0.217,22.661 0.519 M375.156 20.364 C 377.029 21.361,378.729 23.084,379.732 25.000 L 380.469 26.406 380.469 123.125 L 380.469 219.844 379.732 221.250 C 378.729 223.166,377.029 224.889,375.156 225.886 L 373.594 226.719 200.000 226.719 L 26.406 226.719 25.000 225.982 C 23.084 224.979,21.361 223.279,20.364 221.406 L 19.531 219.844 19.531 123.125 L 19.531 26.406 20.268 25.000 C 21.594 22.466,23.957 20.464,26.563 19.667 C 26.992 19.535,105.250 19.451,200.469 19.479 L 373.594 19.531 375.156 20.364 M57.500 123.125 L 57.500 188.750 76.875 188.750 L 96.250 188.750 96.250 151.367 L 96.250 113.985 115.341 137.852 C 125.842 150.979,134.479 161.766,134.536 161.825 C 134.592 161.883,143.193 151.215,153.647 138.119 L 172.656 114.308 172.736 151.529 L 172.815 188.750 192.189 188.750 L 211.563 188.750 211.563 123.125 L 211.563 57.500 192.266 57.505 L 172.969 57.510 153.906 81.395 C 143.422 94.532,134.766 105.288,134.671 105.296 C 134.576 105.305,125.893 94.555,115.374 81.406 L 96.248 57.500 76.874 57.500 L 57.500 57.500 57.500 123.125 M278.750 91.248 L 278.750 124.995 259.477 125.076 L 240.204 125.156 269.025 156.875 C 284.877 174.320,297.945 188.618,298.064 188.649 C 298.184 188.679,311.259 174.405,327.120 156.930 L 355.960 125.156 336.730 125.076 L 317.500 124.995 317.500 91.248 L 317.500 57.500 298.125 57.500 L 278.750 57.500 278.750 91.248 " stroke="none" fill="#000000" fill-rule="evenodd"></path></g></svg>