<svg id="svg" version="1.1" xmlns="http://www.w3.org/2000/svg" xmlns:xlink="http://www.w3.org/1999/xlink" width="400" height="400" viewBox="0, 0, 400,400"><g id="svgg"><path id="path0" d="M227.724 68.500 C 227.196 69.316,227.068 89.005,227.584 89.970 C 228.026 90.796,228.150 90.800,252.054 90.800 L 276.080 90.800 277.440 92.160 L 278.800 93.520 278.800 108.931 L 278.800 124.342 277.746 125.171 C 276.706 125.989,276.370 126.000,252.426 126.000 C 234.086 126.000,228.043 126.117,227.680 126.480 C 227.052 127.108,227.040 134.010,227.664 135.381 L 228.128 136.400 252.304 136.400 L 276.479 136.400 277.640 137.642 L 278.800 138.885 278.787 154.142 C 278.776 167.120,278.684 169.520,278.170 170.200 C 277.579 170.983,277.032 171.002,252.913 171.109 C 235.723 171.185,228.100 171.351,227.730 171.658 C 226.991 172.271,227.014 179.921,227.757 180.900 C 228.252 181.553,229.895 181.600,252.170 181.600 C 277.504 181.600,277.152 181.573,278.196 183.592 C 278.819 184.797,279.145 213.436,278.553 214.978 C 277.948 216.555,277.386 216.594,252.000 216.800 L 227.400 217.000 227.286 221.100 C 227.108 227.505,224.034 226.798,252.114 226.813 C 274.498 226.826,276.259 226.876,277.041 227.530 C 278.766 228.972,278.800 229.312,278.800 245.145 L 278.800 260.342 277.746 261.171 C 276.706 261.989,276.372 262.000,252.189 262.000 C 230.214 262.000,227.661 262.065,227.443 262.633 C 227.016 263.744,227.183 270.324,227.664 271.381 L 228.128 272.400 252.429 272.400 L 276.729 272.400 277.764 273.631 L 278.800 274.861 278.787 289.131 C 278.776 301.227,278.683 303.522,278.170 304.200 C 277.579 304.983,277.032 305.002,252.828 305.109 L 228.091 305.218 227.645 306.986 C 226.954 309.729,227.042 329.371,227.747 329.956 C 228.395 330.494,376.268 330.415,377.100 329.876 C 377.498 329.619,377.600 303.132,377.600 199.646 L 377.600 69.739 376.674 68.870 L 375.748 68.000 301.898 68.000 C 243.257 68.000,227.981 68.103,227.724 68.500 M351.289 91.911 L 352.200 92.821 352.313 108.597 C 352.424 124.003,352.407 124.393,351.613 125.187 C 350.810 125.990,350.428 126.000,321.216 126.000 L 291.631 126.000 290.816 125.125 C 289.870 124.109,289.523 95.705,290.428 93.327 C 291.481 90.558,288.953 90.758,321.264 90.885 L 350.378 91.000 351.289 91.911 M350.316 136.656 C 352.309 137.190,352.400 137.968,352.400 154.557 L 352.400 169.955 351.511 170.577 C 349.929 171.685,291.903 171.503,290.787 170.387 C 289.614 169.214,289.725 139.288,290.909 137.482 L 291.618 136.400 320.509 136.405 C 336.399 136.408,349.812 136.521,350.316 136.656 M149.600 152.664 C 146.540 152.766,145.411 152.982,143.800 153.776 C 142.700 154.318,140.660 154.977,139.267 155.242 C 137.874 155.507,136.524 155.923,136.267 156.167 C 135.380 157.010,133.626 158.000,133.021 158.000 C 132.687 158.000,131.916 158.443,131.307 158.984 C 130.698 159.525,128.985 160.987,127.499 162.231 C 126.014 163.476,124.153 165.374,123.365 166.448 C 122.577 167.521,121.770 168.400,121.571 168.400 C 121.373 168.400,120.930 169.073,120.586 169.895 C 120.243 170.717,119.627 171.752,119.217 172.195 C 118.807 172.638,118.268 173.768,118.019 174.706 C 117.770 175.644,117.212 177.012,116.779 177.746 C 113.819 182.763,112.119 201.625,113.965 208.966 C 114.413 210.745,114.978 213.363,115.222 214.785 C 115.466 216.207,116.087 218.097,116.600 218.985 C 117.114 219.873,117.734 221.357,117.978 222.282 C 118.222 223.207,118.644 224.197,118.916 224.482 C 119.709 225.313,120.800 227.133,120.800 227.625 C 120.800 227.875,121.295 228.577,121.900 229.185 C 122.505 229.794,123.701 231.142,124.559 232.181 C 125.416 233.220,126.521 234.255,127.015 234.479 C 127.508 234.704,128.124 235.283,128.382 235.766 C 128.640 236.249,129.335 236.858,129.926 237.118 C 130.517 237.379,131.619 238.050,132.376 238.608 C 133.133 239.166,134.213 239.731,134.776 239.864 C 135.339 239.997,136.167 240.437,136.616 240.843 C 137.069 241.253,138.796 241.842,140.502 242.169 C 142.323 242.517,144.081 243.132,144.820 243.678 C 146.689 245.060,165.350 245.117,167.600 243.748 C 171.836 241.170,177.830 241.197,180.646 243.807 C 181.235 244.353,181.947 244.800,182.228 244.800 C 182.509 244.800,183.312 245.283,184.013 245.872 C 186.584 248.035,194.012 252.000,195.494 252.000 C 195.978 252.000,196.411 251.524,196.729 250.645 C 196.999 249.900,197.666 248.843,198.212 248.297 C 198.759 247.750,199.415 246.695,199.671 245.952 C 199.927 245.208,200.584 243.918,201.132 243.084 C 202.219 241.428,202.124 241.202,200.000 240.398 C 199.230 240.107,198.330 239.641,198.000 239.363 C 197.670 239.085,196.590 238.502,195.600 238.067 C 189.213 235.264,187.660 232.446,190.656 229.099 C 191.395 228.273,192.000 227.399,192.000 227.157 C 192.000 226.914,192.450 226.181,193.000 225.527 C 193.550 224.873,194.000 224.023,194.000 223.638 C 194.000 223.252,194.553 222.103,195.228 221.083 C 196.062 219.825,196.571 218.421,196.814 216.714 C 197.010 215.332,197.606 213.120,198.138 211.800 C 199.988 207.208,199.926 188.576,198.049 184.895 C 197.619 184.052,197.153 182.651,197.013 181.781 C 196.585 179.120,195.913 176.800,195.570 176.800 C 195.390 176.800,194.852 175.729,194.375 174.420 C 193.898 173.111,193.168 171.733,192.754 171.358 C 192.339 170.983,192.000 170.434,192.000 170.139 C 192.000 169.844,191.399 168.927,190.666 168.101 C 189.932 167.276,189.007 166.039,188.611 165.354 C 188.215 164.669,187.365 163.798,186.722 163.418 C 186.079 163.038,185.040 162.248,184.413 161.663 C 182.363 159.751,180.063 158.000,179.600 158.000 C 179.351 158.000,178.554 157.548,177.829 156.995 C 177.085 156.428,175.048 155.622,173.155 155.146 C 171.310 154.682,169.170 153.988,168.400 153.603 C 166.908 152.858,157.662 152.397,149.600 152.664 M35.614 155.174 C 34.934 156.444,35.074 241.200,35.757 242.100 C 36.436 242.995,49.309 243.177,49.876 242.300 C 50.054 242.025,50.290 234.754,50.400 226.141 C 50.626 208.468,50.470 209.280,53.802 208.441 C 54.892 208.167,60.233 208.000,67.928 208.000 C 81.428 208.000,84.763 207.616,87.525 205.741 C 88.288 205.223,89.116 204.800,89.367 204.800 C 90.913 204.800,97.422 198.862,98.308 196.643 C 98.669 195.739,99.281 194.730,99.668 194.400 C 102.803 191.729,102.645 170.984,99.461 167.199 C 98.908 166.542,98.335 165.598,98.189 165.102 C 97.541 162.908,91.427 157.882,86.800 155.741 C 83.518 154.222,36.403 153.700,35.614 155.174 M161.860 167.206 C 164.689 167.687,167.003 168.304,167.600 168.737 C 168.150 169.136,169.194 169.667,169.920 169.917 C 171.178 170.351,175.443 173.642,176.121 174.702 C 176.298 174.978,176.908 175.698,177.477 176.302 C 178.046 176.906,178.874 178.210,179.318 179.200 C 179.762 180.190,180.477 181.477,180.908 182.060 C 181.454 182.798,181.812 184.255,182.091 186.859 C 182.310 188.916,182.830 191.461,183.245 192.514 C 184.191 194.913,184.328 202.150,183.452 203.411 C 182.835 204.298,182.000 207.846,182.000 209.579 C 182.000 210.206,181.497 211.682,180.882 212.859 C 180.268 214.037,179.515 215.630,179.210 216.400 C 177.503 220.706,173.470 222.508,170.720 220.194 C 170.106 219.678,169.198 219.132,168.702 218.982 C 168.206 218.831,167.435 218.375,166.989 217.968 C 166.542 217.560,165.381 216.946,164.408 216.603 C 163.436 216.260,162.361 215.743,162.020 215.455 C 159.331 213.184,156.509 213.804,155.416 216.906 C 155.010 218.058,154.254 219.810,153.736 220.800 C 152.678 222.820,152.971 223.398,155.294 223.874 C 155.896 223.997,156.796 224.493,157.294 224.975 C 157.792 225.458,158.772 226.083,159.471 226.363 C 161.527 227.188,161.634 228.619,159.717 229.644 C 157.350 230.909,144.800 229.841,144.800 228.375 C 144.800 228.229,143.983 227.797,142.985 227.415 C 140.539 226.481,132.800 218.671,132.800 217.136 C 132.800 216.824,132.425 215.856,131.966 214.985 C 130.689 212.558,130.384 211.333,129.987 207.031 C 129.786 204.848,129.437 202.877,129.211 202.651 C 128.685 202.125,128.673 195.386,129.195 194.409 C 129.412 194.003,129.763 191.704,129.974 189.301 C 130.338 185.151,130.943 182.800,131.648 182.800 C 131.824 182.800,132.185 182.035,132.451 181.100 C 132.717 180.165,133.325 178.950,133.803 178.400 C 134.282 177.850,135.052 176.770,135.516 176.000 C 135.979 175.230,136.933 174.150,137.634 173.600 C 138.335 173.050,139.469 172.139,140.154 171.576 C 142.600 169.565,146.794 167.851,150.987 167.149 C 156.255 166.268,156.346 166.268,161.860 167.206 M73.600 168.602 C 74.810 168.968,76.723 169.500,77.850 169.786 C 83.485 171.212,86.159 174.877,86.180 181.200 C 86.202 187.953,82.830 192.101,76.600 192.985 C 75.500 193.142,73.571 193.614,72.313 194.035 C 68.871 195.186,53.106 195.171,51.600 194.014 L 50.600 193.246 50.600 181.465 C 50.600 168.227,50.600 168.227,53.542 167.863 C 57.157 167.417,71.414 167.942,73.600 168.602 M349.600 181.947 C 352.385 182.651,352.189 181.409,352.301 199.072 C 352.360 208.234,352.247 215.241,352.036 215.567 C 351.368 216.602,347.624 216.741,319.682 216.771 L 291.964 216.800 290.982 215.818 L 290.000 214.836 290.000 199.798 C 290.000 184.189,290.118 182.990,291.756 181.906 C 292.295 181.550,348.184 181.590,349.600 181.947 M351.289 227.911 L 352.200 228.821 352.313 244.597 C 352.424 260.003,352.407 260.393,351.613 261.187 C 350.775 262.025,292.590 262.515,291.360 261.694 C 290.109 260.859,290.000 259.526,290.000 245.052 C 290.000 230.333,290.112 229.023,291.501 227.488 C 292.111 226.815,293.755 226.781,321.262 226.888 L 350.378 227.000 351.289 227.911 M351.438 273.242 C 352.671 274.603,352.833 303.167,351.614 304.386 C 350.810 305.190,350.437 305.200,321.229 305.200 C 289.114 305.200,290.742 305.312,290.184 303.072 C 289.563 300.579,290.200 274.563,290.909 273.482 L 291.618 272.400 321.147 272.400 C 350.654 272.400,350.677 272.401,351.438 273.242 " stroke="none" fill="#f2f6f4" fill-rule="evenodd"></path><path id="path1" d="M210.485 17.557 C 208.048 17.793,207.221 18.283,207.206 19.500 C 207.201 19.879,205.620 20.000,200.650 20.000 C 192.551 20.000,191.621 20.161,191.054 21.662 L 190.625 22.800 185.812 22.808 C 179.898 22.818,175.722 23.379,174.400 24.343 C 173.651 24.889,172.296 25.143,169.000 25.353 C 164.746 25.625,164.569 25.674,163.671 26.817 L 162.742 28.000 156.071 28.004 C 147.483 28.010,146.412 28.184,145.854 29.662 L 145.425 30.800 138.538 30.800 C 131.452 30.800,130.207 30.997,128.938 32.322 C 128.343 32.943,127.388 33.146,124.012 33.371 C 119.674 33.659,118.800 33.974,118.800 35.249 C 118.800 35.957,118.372 36.000,111.384 36.000 C 103.586 36.000,100.800 36.581,100.800 38.208 C 100.800 38.708,99.699 38.801,93.700 38.805 C 85.621 38.812,84.884 38.928,84.552 40.248 C 84.334 41.118,84.103 41.202,81.857 41.221 C 76.725 41.263,74.116 41.758,73.072 42.885 C 72.106 43.927,72.062 43.933,65.108 44.066 L 58.115 44.200 57.022 45.500 L 55.929 46.800 48.790 46.800 C 41.392 46.800,39.660 47.086,39.326 48.361 C 39.148 49.042,38.530 49.137,32.665 49.377 C 24.705 49.703,24.065 49.819,23.510 51.037 C 23.089 51.962,22.904 52.002,18.836 52.040 C 13.477 52.090,12.637 52.312,12.473 53.716 C 12.349 54.778,12.291 54.800,9.573 54.800 L 6.800 54.800 6.800 199.520 C 6.800 311.547,6.908 344.348,7.280 344.720 C 7.614 345.054,9.742 345.200,14.280 345.200 C 19.850 345.200,20.800 345.289,20.800 345.809 C 20.800 346.143,21.250 346.622,21.800 346.873 C 22.350 347.123,22.800 347.480,22.800 347.664 C 22.800 347.849,24.751 348.000,27.136 348.000 C 31.303 348.000,31.488 348.037,31.901 348.943 C 32.456 350.160,33.523 350.360,41.176 350.676 C 47.177 350.924,47.377 350.961,48.240 351.966 L 49.129 353.000 57.365 353.123 C 65.101 353.238,65.600 353.291,65.600 353.994 C 65.600 355.774,66.467 356.000,73.303 356.000 C 79.061 356.000,79.837 356.080,80.574 356.755 C 81.826 357.899,85.559 358.800,89.047 358.800 C 91.975 358.800,92.225 358.869,93.046 359.900 L 93.923 361.000 101.525 361.131 L 109.127 361.261 110.373 362.631 L 111.619 364.000 119.382 364.000 C 127.127 364.000,127.145 364.002,127.272 364.900 C 127.455 366.187,129.475 366.751,134.005 366.777 C 137.538 366.798,137.839 366.863,138.205 367.687 C 138.768 368.951,139.781 369.115,147.300 369.160 C 153.680 369.198,154.000 369.238,154.000 369.986 C 154.000 371.507,155.403 371.790,163.983 372.000 L 172.165 372.200 172.397 373.185 C 172.702 374.479,173.665 374.712,178.919 374.760 C 183.038 374.798,183.279 374.848,184.122 375.828 C 184.991 376.838,185.122 376.859,191.937 377.090 C 198.756 377.320,198.873 377.339,199.226 378.269 C 199.790 379.753,201.156 380.000,208.790 380.000 L 215.929 380.000 217.022 381.300 L 218.115 382.600 222.957 382.600 L 227.800 382.600 227.904 363.900 L 228.008 345.200 307.524 345.200 C 390.817 345.200,388.000 345.259,388.000 343.520 C 388.000 343.076,388.295 342.800,388.771 342.800 C 389.823 342.800,390.800 341.742,390.800 340.602 C 390.800 340.085,391.340 339.122,392.000 338.462 L 393.200 337.262 393.200 199.034 L 393.200 60.806 392.007 59.743 C 391.328 59.138,390.704 58.094,390.559 57.320 C 390.190 55.355,389.444 54.800,387.171 54.800 C 385.343 54.800,385.200 54.729,385.200 53.814 C 385.200 51.949,387.428 52.000,305.831 52.000 L 228.008 52.000 227.904 34.700 L 227.800 17.400 220.400 17.357 C 216.330 17.333,211.868 17.423,210.485 17.557 M377.927 65.845 C 380.104 66.281,380.000 59.588,380.000 199.299 C 380.000 340.535,380.127 331.601,378.102 333.282 C 377.596 333.701,363.261 333.820,302.876 333.905 C 220.021 334.022,226.859 334.254,225.992 331.302 C 225.330 329.047,225.623 304.216,226.320 303.519 C 226.732 303.107,231.949 302.978,251.625 302.891 L 276.411 302.782 276.305 289.291 L 276.200 275.800 251.546 275.697 C 229.241 275.604,226.841 275.531,226.346 274.936 C 225.948 274.457,225.764 272.529,225.667 267.810 L 225.534 261.340 226.602 260.070 L 227.671 258.800 251.828 258.800 L 275.985 258.800 276.204 257.900 C 276.325 257.405,276.373 251.060,276.312 243.800 L 276.200 230.600 251.520 230.400 C 232.023 230.242,226.730 230.091,226.320 229.680 C 225.211 228.572,225.615 215.441,226.786 214.492 C 228.310 213.257,231.018 213.154,254.392 213.436 L 275.961 213.696 276.192 212.748 C 276.319 212.227,276.373 205.770,276.312 198.400 L 276.200 185.000 251.412 184.800 L 226.623 184.600 226.118 183.600 C 225.779 182.931,225.610 180.654,225.606 176.714 L 225.600 170.828 226.841 169.414 L 228.083 168.000 251.999 168.000 C 273.438 168.000,275.940 167.934,276.157 167.367 C 276.291 167.019,276.400 160.746,276.400 153.426 L 276.400 140.117 271.500 139.861 C 268.805 139.720,257.699 139.606,246.819 139.607 C 229.514 139.609,226.960 139.532,226.419 138.991 C 225.922 138.495,225.775 137.077,225.673 131.789 L 225.546 125.204 226.862 124.002 L 228.178 122.800 252.082 122.800 L 275.985 122.800 276.204 121.900 C 276.325 121.405,276.373 115.060,276.312 107.800 L 276.200 94.600 251.520 94.400 C 232.028 94.242,226.730 94.091,226.320 93.681 C 225.922 93.283,225.772 90.291,225.679 80.881 C 225.543 67.096,225.622 66.130,226.913 65.881 C 228.323 65.608,376.565 65.573,377.927 65.845 M292.000 108.597 L 292.000 122.800 320.186 122.800 C 347.768 122.800,348.381 122.783,348.791 122.016 C 349.066 121.503,349.174 116.642,349.105 107.916 L 349.000 94.600 320.500 94.497 L 292.000 94.395 292.000 108.597 M292.000 153.793 L 292.000 168.000 320.186 168.000 C 347.643 168.000,348.383 167.980,348.786 167.226 C 349.047 166.738,349.200 161.592,349.200 153.270 L 349.200 140.087 348.300 139.865 C 347.805 139.744,334.935 139.631,319.700 139.615 L 292.000 139.585 292.000 153.793 M166.400 150.120 C 167.390 150.447,169.176 150.834,170.369 150.980 C 172.926 151.293,173.859 151.726,174.184 152.749 C 174.374 153.349,174.979 153.554,177.204 153.773 C 179.551 154.004,180.169 154.230,181.159 155.221 C 181.805 155.866,182.815 156.578,183.405 156.802 C 183.995 157.026,184.567 157.552,184.677 157.971 C 184.786 158.390,185.307 158.840,185.834 158.973 C 187.098 159.290,190.400 162.616,190.400 163.571 C 190.400 164.045,190.842 164.476,191.600 164.740 C 192.402 165.019,192.800 165.428,192.800 165.970 C 192.800 166.416,193.259 167.082,193.820 167.450 C 194.916 168.168,196.000 169.945,196.000 171.023 C 196.000 171.387,196.433 172.026,196.962 172.442 C 197.665 172.994,198.000 173.766,198.203 175.299 C 198.392 176.726,198.805 177.744,199.489 178.472 C 200.990 180.069,201.299 184.524,201.110 201.800 C 200.942 217.115,200.900 217.500,199.213 219.187 C 198.814 219.586,198.360 220.840,198.204 221.973 C 197.995 223.488,197.677 224.193,197.001 224.636 C 196.470 224.984,195.972 225.824,195.822 226.625 C 195.671 227.426,194.978 228.595,194.181 229.393 C 192.249 231.324,192.213 233.318,194.100 233.852 C 194.815 234.055,195.572 234.608,195.782 235.081 C 196.078 235.747,196.754 236.047,198.782 236.416 C 202.676 237.122,205.596 240.106,204.495 242.253 C 204.285 242.664,203.997 243.608,203.856 244.352 C 203.715 245.096,202.969 246.401,202.200 247.253 C 201.398 248.140,200.800 249.223,200.800 249.787 C 200.800 250.329,200.305 251.309,199.700 251.964 C 199.095 252.620,198.368 253.436,198.084 253.778 C 197.011 255.072,191.226 254.477,189.407 252.886 C 188.832 252.384,187.824 251.865,187.167 251.733 C 186.509 251.602,185.418 250.977,184.741 250.344 C 184.064 249.712,182.918 248.914,182.195 248.571 C 181.471 248.227,180.795 247.623,180.691 247.227 C 180.577 246.789,179.973 246.409,179.147 246.254 C 178.402 246.114,177.306 245.550,176.713 245.000 C 175.430 243.810,174.148 243.705,173.812 244.763 C 173.393 246.082,172.523 246.170,158.400 246.319 C 142.390 246.488,139.953 246.327,138.685 245.021 C 138.119 244.438,136.935 243.946,135.400 243.656 C 133.669 243.330,132.773 242.924,132.185 242.202 C 131.737 241.651,131.166 241.200,130.917 241.200 C 130.241 241.200,128.005 239.853,128.003 239.444 C 127.999 238.910,126.697 238.027,125.891 238.013 C 125.502 238.006,124.983 237.562,124.740 237.027 C 124.496 236.492,123.791 235.845,123.174 235.589 C 122.524 235.320,121.882 234.636,121.647 233.962 C 121.424 233.323,120.980 232.800,120.660 232.800 C 120.340 232.800,119.900 232.288,119.682 231.662 C 119.464 231.037,118.734 229.897,118.060 229.129 C 117.385 228.361,116.670 227.002,116.469 226.108 C 116.268 225.214,115.654 223.879,115.105 223.141 C 114.556 222.404,113.990 221.179,113.848 220.419 C 113.705 219.660,113.256 218.670,112.851 218.219 C 110.145 215.209,110.093 183.026,112.788 179.183 C 113.181 178.623,113.629 177.414,113.784 176.496 C 113.939 175.578,114.591 174.166,115.233 173.359 C 115.875 172.551,116.400 171.546,116.400 171.125 C 116.400 170.150,117.501 168.000,118.001 168.000 C 118.210 168.000,118.710 167.359,119.111 166.576 C 119.513 165.793,120.274 164.937,120.804 164.673 C 121.333 164.409,121.871 163.745,122.000 163.197 C 122.128 162.649,122.721 161.965,123.317 161.678 C 123.913 161.391,124.400 160.887,124.400 160.558 C 124.400 160.229,124.992 159.712,125.717 159.409 C 126.441 159.106,127.281 158.396,127.584 157.829 C 127.887 157.263,128.420 156.800,128.768 156.800 C 129.115 156.800,130.098 156.178,130.951 155.419 C 132.290 154.227,132.879 154.001,135.251 153.768 C 137.156 153.580,138.000 153.331,138.000 152.958 C 138.000 152.071,139.650 151.302,142.200 151.002 C 143.520 150.846,144.715 150.534,144.855 150.308 C 145.571 149.157,163.024 149.005,166.400 150.120 M81.539 151.138 C 84.932 151.377,85.357 151.499,86.139 152.453 C 86.810 153.274,87.496 153.565,89.253 153.776 C 91.038 153.990,91.828 154.332,93.053 155.423 C 93.904 156.180,94.823 156.800,95.096 156.800 C 95.369 156.800,95.999 157.429,96.496 158.198 C 96.993 158.967,97.706 159.697,98.080 159.819 C 98.453 159.941,98.860 160.360,98.984 160.750 C 99.108 161.140,99.522 161.813,99.905 162.246 C 100.287 162.679,100.931 163.417,101.336 163.888 C 101.741 164.358,102.241 165.494,102.447 166.413 C 102.654 167.332,103.311 168.723,103.907 169.505 L 104.992 170.927 104.996 180.363 C 105.000 190.249,104.861 191.527,103.649 192.689 C 103.241 193.080,102.682 194.357,102.407 195.528 C 102.033 197.121,101.677 197.743,100.991 198.004 C 100.443 198.212,99.972 198.816,99.821 199.502 C 99.428 201.294,94.812 205.858,92.863 206.383 C 91.887 206.646,91.154 207.116,91.009 207.572 C 90.691 208.573,89.951 208.822,86.509 209.090 C 84.160 209.272,83.573 209.454,83.382 210.057 C 82.947 211.427,81.780 211.563,68.084 211.845 L 54.450 212.125 54.325 227.855 L 54.200 243.586 52.893 244.893 L 51.586 246.200 43.947 246.332 C 34.394 246.497,34.739 246.588,33.219 243.498 L 31.989 241.000 32.094 198.200 L 32.200 155.400 33.119 153.480 C 33.625 152.424,34.435 151.400,34.919 151.205 C 35.929 150.799,75.897 150.741,81.539 151.138 M152.262 169.994 C 151.779 170.481,150.185 170.980,147.662 171.434 C 144.444 172.012,143.633 172.311,142.800 173.226 C 142.250 173.830,141.414 174.437,140.943 174.575 C 140.472 174.713,139.991 175.191,139.875 175.636 C 139.758 176.081,139.119 176.651,138.453 176.902 C 137.489 177.266,137.192 177.664,136.989 178.864 C 136.845 179.717,136.254 180.851,135.625 181.484 C 134.667 182.447,134.424 183.198,133.855 186.963 C 133.492 189.363,132.926 191.866,132.598 192.525 C 131.777 194.170,131.752 202.839,132.565 204.114 C 133.129 204.999,133.871 208.717,134.284 212.725 C 134.454 214.375,134.714 214.987,135.449 215.469 C 135.969 215.809,136.607 216.799,136.867 217.667 C 137.138 218.569,137.819 219.586,138.458 220.041 C 139.073 220.479,140.096 221.324,140.732 221.919 C 144.743 225.670,144.686 225.637,147.582 225.880 C 151.359 226.196,151.906 225.953,150.828 224.440 C 149.929 223.177,149.769 222.190,150.400 221.800 C 150.620 221.664,150.800 221.016,150.800 220.360 C 150.800 218.952,152.120 216.193,152.945 215.876 C 153.264 215.754,153.651 215.057,153.804 214.327 C 154.437 211.328,158.249 209.392,160.131 211.114 C 160.609 211.552,162.037 212.205,163.304 212.567 C 164.629 212.945,165.818 213.560,166.101 214.012 C 166.371 214.446,166.903 214.800,167.283 214.800 C 168.143 214.800,170.800 216.043,170.800 216.446 C 170.800 218.460,174.568 218.530,175.403 216.532 C 175.740 215.725,176.356 214.826,176.772 214.534 C 177.201 214.234,177.651 213.268,177.811 212.302 C 178.137 210.334,178.668 209.193,179.565 208.533 C 181.070 207.425,180.628 185.670,179.087 184.984 C 178.522 184.732,178.114 184.052,177.900 183.005 C 177.720 182.128,177.073 180.868,176.461 180.205 C 175.850 179.542,175.140 178.505,174.883 177.900 C 174.627 177.295,174.134 176.800,173.788 176.800 C 173.442 176.800,172.974 176.271,172.749 175.625 C 172.466 174.815,171.988 174.373,171.207 174.202 C 170.450 174.035,169.994 173.630,169.830 172.976 C 169.688 172.410,169.294 172.001,168.892 172.003 C 166.908 172.010,160.907 170.587,160.174 169.935 C 158.976 168.869,153.334 168.910,152.262 169.994 M54.493 181.238 L 54.600 191.000 65.523 190.925 L 76.446 190.849 77.213 189.875 C 77.652 189.316,78.741 188.708,79.765 188.451 C 81.481 188.018,81.561 187.931,81.819 186.212 C 81.975 185.172,82.488 183.990,83.044 183.391 C 84.097 182.255,84.325 180.232,83.458 179.720 C 82.684 179.263,82.135 178.056,81.811 176.100 C 81.576 174.680,81.380 174.400,80.619 174.400 C 79.800 174.400,77.779 173.165,77.159 172.286 C 77.027 172.098,71.848 171.839,65.652 171.710 L 54.385 171.475 54.493 181.238 M292.000 198.943 L 292.000 213.087 296.700 213.277 C 308.126 213.740,347.860 213.413,348.538 212.851 C 349.130 212.360,349.200 210.879,349.200 198.798 L 349.200 185.293 348.300 185.052 C 347.805 184.919,334.935 184.808,319.700 184.805 L 292.000 184.800 292.000 198.943 M152.889 227.674 C 152.988 227.975,153.819 228.254,154.831 228.325 C 156.956 228.476,156.546 227.830,154.258 227.423 C 153.075 227.212,152.756 227.270,152.889 227.674 M292.000 244.597 L 292.000 258.800 319.938 258.800 C 346.579 258.800,347.907 258.766,348.543 258.062 C 349.143 257.400,349.200 255.972,349.105 243.962 L 349.000 230.600 320.500 230.497 L 292.000 230.395 292.000 244.597 M292.000 289.200 L 292.000 302.800 320.600 302.800 L 349.200 302.800 349.200 289.447 L 349.200 276.093 348.300 275.852 C 347.805 275.719,334.935 275.608,319.700 275.605 L 292.000 275.600 292.000 289.200 " stroke="none" fill="#1e7144" fill-rule="evenodd"></path><path id="path2" d="M227.467 67.526 C 226.495 68.600,226.455 90.130,227.423 91.511 L 228.045 92.400 252.195 92.400 L 276.346 92.400 277.187 93.582 C 278.442 95.344,278.293 123.705,277.024 124.633 C 276.373 125.108,272.303 125.200,252.004 125.200 C 233.681 125.200,227.643 125.317,227.280 125.680 C 226.531 126.429,226.635 135.321,227.410 136.820 L 228.021 138.000 252.310 138.013 L 276.600 138.025 277.314 139.007 C 278.264 140.313,278.206 168.589,277.251 169.739 C 276.752 170.340,274.519 170.400,252.525 170.400 C 236.624 170.400,228.083 170.542,227.574 170.814 C 226.595 171.338,226.413 180.856,227.357 182.100 C 227.852 182.753,229.499 182.800,251.869 182.800 L 275.850 182.800 276.925 183.922 L 278.000 185.044 278.000 199.468 C 278.000 213.455,277.975 213.924,277.171 214.946 L 276.342 216.000 252.051 216.000 C 233.691 216.000,227.643 216.117,227.280 216.480 C 226.513 217.247,226.631 226.380,227.423 227.511 L 228.045 228.400 252.194 228.400 L 276.342 228.400 277.171 229.454 C 278.005 230.515,278.499 255.405,277.759 259.104 C 277.338 261.208,277.438 261.200,251.661 261.200 C 233.605 261.200,227.643 261.317,227.280 261.680 C 226.513 262.447,226.631 271.580,227.423 272.711 L 228.045 273.600 252.041 273.600 L 276.036 273.600 277.018 274.582 L 278.000 275.564 278.000 289.182 C 278.000 302.267,277.969 302.831,277.200 303.600 C 276.418 304.382,275.862 304.400,252.300 304.406 C 237.828 304.410,227.960 304.564,227.600 304.791 C 226.651 305.391,226.480 329.623,227.419 330.561 C 228.329 331.472,376.639 331.363,377.739 330.451 C 378.412 329.892,378.822 72.209,378.155 68.876 C 378.020 68.202,377.615 67.505,377.255 67.326 C 375.670 66.538,228.182 66.736,227.467 67.526 M376.674 68.870 L 377.600 69.739 377.600 199.646 C 377.600 303.132,377.498 329.619,377.100 329.876 C 376.268 330.415,228.395 330.494,227.747 329.956 C 227.042 329.371,226.954 309.729,227.645 306.986 L 228.091 305.218 252.828 305.109 C 277.032 305.002,277.579 304.983,278.170 304.200 C 278.683 303.522,278.776 301.227,278.787 289.131 L 278.800 274.861 277.764 273.631 L 276.729 272.400 252.429 272.400 L 228.128 272.400 227.664 271.381 C 227.183 270.324,227.016 263.744,227.443 262.633 C 227.661 262.065,230.214 262.000,252.189 262.000 C 276.372 262.000,276.706 261.989,277.746 261.171 L 278.800 260.342 278.800 245.145 C 278.800 229.312,278.766 228.972,277.041 227.530 C 276.259 226.876,274.498 226.826,252.114 226.813 C 224.034 226.798,227.108 227.505,227.286 221.100 L 227.400 217.000 252.000 216.800 C 277.386 216.594,277.948 216.555,278.553 214.978 C 279.145 213.436,278.819 184.797,278.196 183.592 C 277.152 181.573,277.504 181.600,252.170 181.600 C 229.895 181.600,228.252 181.553,227.757 180.900 C 227.014 179.921,226.991 172.271,227.730 171.658 C 228.100 171.351,235.723 171.185,252.913 171.109 C 277.032 171.002,277.579 170.983,278.170 170.200 C 278.684 169.520,278.776 167.120,278.787 154.142 L 278.800 138.885 277.640 137.642 L 276.479 136.400 252.304 136.400 L 228.128 136.400 227.664 135.381 C 227.040 134.010,227.052 127.108,227.680 126.480 C 228.043 126.117,234.086 126.000,252.426 126.000 C 276.370 126.000,276.706 125.989,277.746 125.171 L 278.800 124.342 278.800 108.931 L 278.800 93.520 277.440 92.160 L 276.080 90.800 252.054 90.800 C 228.150 90.800,228.026 90.796,227.584 89.970 C 227.068 89.005,227.196 69.316,227.724 68.500 C 227.981 68.103,243.257 68.000,301.898 68.000 L 375.748 68.000 376.674 68.870 M291.503 91.486 C 290.109 93.026,290.000 94.323,290.000 109.351 C 290.000 123.791,290.025 124.276,290.816 125.125 L 291.631 126.000 321.216 126.000 C 350.428 126.000,350.810 125.990,351.613 125.187 C 352.407 124.393,352.424 124.003,352.313 108.597 L 352.200 92.821 351.289 91.911 L 350.378 91.000 321.264 90.885 C 293.723 90.777,292.116 90.809,291.503 91.486 M349.318 92.660 C 352.045 93.110,352.071 93.281,351.927 109.613 C 351.829 120.714,351.682 124.079,351.280 124.480 C 350.594 125.166,292.858 125.473,291.597 124.798 C 290.500 124.211,290.337 94.838,291.423 93.289 L 292.045 92.400 319.923 92.404 C 335.255 92.407,348.483 92.522,349.318 92.660 M290.909 137.482 C 289.725 139.288,289.614 169.214,290.787 170.387 C 291.903 171.503,349.929 171.685,351.511 170.577 L 352.400 169.955 352.400 154.557 C 352.400 137.968,352.309 137.190,350.316 136.656 C 349.812 136.521,336.399 136.408,320.509 136.405 L 291.618 136.400 290.909 137.482 M351.369 139.300 C 352.485 141.387,352.172 168.993,351.024 169.833 C 349.966 170.605,292.050 170.690,291.280 169.920 C 290.651 169.291,290.589 139.942,291.214 138.774 C 291.618 138.019,292.372 138.000,321.151 138.000 L 350.674 138.000 351.369 139.300 M143.200 152.804 C 142.210 153.200,140.410 153.824,139.200 154.189 C 130.816 156.720,120.489 165.830,117.631 173.217 C 117.336 173.978,116.603 175.590,116.001 176.800 C 115.398 178.010,114.775 179.900,114.615 181.000 C 114.455 182.100,113.937 183.810,113.462 184.800 C 112.272 187.285,112.119 209.321,113.277 211.436 C 113.650 212.116,114.165 213.916,114.423 215.436 C 114.680 216.956,115.314 219.010,115.830 220.000 C 116.346 220.990,117.228 222.790,117.790 224.000 C 119.199 227.035,120.052 228.455,121.061 229.445 C 121.535 229.910,122.201 230.828,122.541 231.486 C 123.056 232.482,124.687 234.104,126.600 235.525 C 128.149 236.675,130.634 238.643,130.800 238.851 C 131.435 239.648,137.488 242.432,139.836 243.007 C 141.356 243.379,143.041 243.963,143.580 244.304 C 146.547 246.180,164.545 245.800,170.600 243.734 C 174.932 242.255,177.025 242.214,178.600 243.577 C 179.040 243.957,180.390 244.862,181.600 245.587 C 182.810 246.312,183.890 247.033,184.000 247.189 C 184.310 247.628,189.700 250.800,190.137 250.800 C 190.350 250.800,191.114 251.250,191.836 251.800 C 194.204 253.607,196.428 253.249,197.733 250.852 C 198.317 249.780,199.065 248.678,199.397 248.403 C 199.729 248.127,200.000 247.679,200.000 247.407 C 200.000 247.134,200.420 246.293,200.932 245.538 C 203.597 241.611,203.226 240.685,198.015 238.264 C 195.917 237.289,193.857 236.111,193.438 235.646 C 193.019 235.180,192.479 234.796,192.238 234.791 C 190.353 234.753,189.413 230.655,191.123 229.931 C 192.305 229.431,197.510 219.387,197.851 216.950 C 197.970 216.098,198.457 214.410,198.934 213.200 C 200.296 209.739,200.270 186.679,198.900 184.116 C 198.405 183.190,198.000 181.997,198.000 181.466 C 198.000 179.451,194.989 172.704,192.470 169.073 C 189.914 165.390,187.976 162.859,187.612 162.727 C 187.417 162.657,186.596 162.060,185.787 161.400 C 184.978 160.740,183.569 159.591,182.658 158.847 C 181.746 158.103,180.550 157.294,180.000 157.050 C 179.450 156.805,178.664 156.302,178.254 155.930 C 177.844 155.559,176.772 155.130,175.873 154.979 C 174.974 154.827,173.420 154.343,172.419 153.905 C 168.441 152.160,167.078 152.008,155.800 152.046 C 146.380 152.078,144.770 152.174,143.200 152.804 M168.400 153.603 C 169.170 153.988,171.310 154.682,173.155 155.146 C 175.048 155.622,177.085 156.428,177.829 156.995 C 178.554 157.548,179.351 158.000,179.600 158.000 C 180.063 158.000,182.363 159.751,184.413 161.663 C 185.040 162.248,186.079 163.038,186.722 163.418 C 187.365 163.798,188.215 164.669,188.611 165.354 C 189.007 166.039,189.932 167.276,190.666 168.101 C 191.399 168.927,192.000 169.844,192.000 170.139 C 192.000 170.434,192.339 170.983,192.754 171.358 C 193.168 171.733,193.898 173.111,194.375 174.420 C 194.852 175.729,195.390 176.800,195.570 176.800 C 195.913 176.800,196.585 179.120,197.013 181.781 C 197.153 182.651,197.619 184.052,198.049 184.895 C 199.926 188.576,199.988 207.208,198.138 211.800 C 197.606 213.120,197.010 215.332,196.814 216.714 C 196.571 218.421,196.062 219.825,195.228 221.083 C 194.553 222.103,194.000 223.252,194.000 223.638 C 194.000 224.023,193.550 224.873,193.000 225.527 C 192.450 226.181,192.000 226.914,192.000 227.157 C 192.000 227.399,191.395 228.273,190.656 229.099 C 187.660 232.446,189.213 235.264,195.600 238.067 C 196.590 238.502,197.670 239.085,198.000 239.363 C 198.330 239.641,199.230 240.107,200.000 240.398 C 202.124 241.202,202.219 241.428,201.132 243.084 C 200.584 243.918,199.927 245.208,199.671 245.952 C 199.415 246.695,198.759 247.750,198.212 248.297 C 197.666 248.843,196.999 249.900,196.729 250.645 C 196.411 251.524,195.978 252.000,195.494 252.000 C 194.012 252.000,186.584 248.035,184.013 245.872 C 183.312 245.283,182.509 244.800,182.228 244.800 C 181.947 244.800,181.235 244.353,180.646 243.807 C 177.830 241.197,171.836 241.170,167.600 243.748 C 165.350 245.117,146.689 245.060,144.820 243.678 C 144.081 243.132,142.323 242.517,140.502 242.169 C 138.796 241.842,137.069 241.253,136.616 240.843 C 136.167 240.437,135.339 239.997,134.776 239.864 C 134.213 239.731,133.133 239.166,132.376 238.608 C 131.619 238.050,130.517 237.379,129.926 237.118 C 129.335 236.858,128.640 236.249,128.382 235.766 C 128.124 235.283,127.508 234.704,127.015 234.479 C 126.521 234.255,125.416 233.220,124.559 232.181 C 123.701 231.142,122.505 229.794,121.900 229.185 C 121.295 228.577,120.800 227.875,120.800 227.625 C 120.800 227.133,119.709 225.313,118.916 224.482 C 118.644 224.197,118.222 223.207,117.978 222.282 C 117.734 221.357,117.114 219.873,116.600 218.985 C 116.087 218.097,115.466 216.207,115.222 214.785 C 114.978 213.363,114.413 210.745,113.965 208.966 C 112.119 201.625,113.819 182.763,116.779 177.746 C 117.212 177.012,117.770 175.644,118.019 174.706 C 118.268 173.768,118.807 172.638,119.217 172.195 C 119.627 171.752,120.243 170.717,120.586 169.895 C 120.930 169.073,121.373 168.400,121.571 168.400 C 121.770 168.400,122.577 167.521,123.365 166.448 C 124.153 165.374,126.014 163.476,127.499 162.231 C 128.985 160.987,130.698 159.525,131.307 158.984 C 131.916 158.443,132.687 158.000,133.021 158.000 C 133.626 158.000,135.380 157.010,136.267 156.167 C 136.524 155.923,137.874 155.507,139.267 155.242 C 140.660 154.977,142.700 154.318,143.800 153.776 C 146.944 152.227,165.385 152.098,168.400 153.603 M35.335 153.842 C 34.383 155.296,33.976 240.560,34.913 242.400 L 35.423 243.400 42.678 243.509 L 49.933 243.618 50.766 242.447 C 51.575 241.311,51.600 240.834,51.600 226.454 C 51.600 207.594,49.686 209.770,66.600 209.403 C 80.911 209.093,84.614 208.557,89.019 206.161 C 93.714 203.608,97.260 200.591,98.590 198.019 C 98.931 197.361,99.629 196.203,100.143 195.446 C 100.656 194.690,101.302 193.200,101.578 192.135 C 101.854 191.071,102.325 189.538,102.625 188.728 C 104.679 183.188,103.045 170.090,99.762 165.786 C 99.233 165.092,98.800 164.357,98.800 164.153 C 98.800 163.403,92.529 157.705,90.200 156.339 C 87.957 155.024,86.854 154.683,81.200 153.560 C 79.862 153.295,70.585 153.044,57.535 152.922 L 36.071 152.720 35.335 153.842 M79.200 154.765 C 85.632 155.105,86.105 155.223,90.200 157.502 C 92.557 158.814,97.807 163.808,98.189 165.102 C 98.335 165.598,98.908 166.542,99.461 167.199 C 102.645 170.984,102.803 191.729,99.668 194.400 C 99.281 194.730,98.669 195.739,98.308 196.643 C 97.422 198.862,90.913 204.800,89.367 204.800 C 89.116 204.800,88.288 205.223,87.525 205.741 C 84.763 207.616,81.428 208.000,67.928 208.000 C 60.233 208.000,54.892 208.167,53.802 208.441 C 50.470 209.280,50.626 208.468,50.400 226.141 C 50.290 234.754,50.054 242.025,49.876 242.300 C 49.309 243.177,36.436 242.995,35.757 242.100 C 35.074 241.200,34.934 156.444,35.614 155.174 C 36.075 154.312,65.441 154.037,79.200 154.765 M150.987 167.149 C 146.794 167.851,142.600 169.565,140.154 171.576 C 139.469 172.139,138.335 173.050,137.634 173.600 C 136.933 174.150,135.979 175.230,135.516 176.000 C 135.052 176.770,134.282 177.850,133.803 178.400 C 133.325 178.950,132.717 180.165,132.451 181.100 C 132.185 182.035,131.824 182.800,131.648 182.800 C 130.943 182.800,130.338 185.151,129.974 189.301 C 129.763 191.704,129.412 194.003,129.195 194.409 C 128.673 195.386,128.685 202.125,129.211 202.651 C 129.437 202.877,129.786 204.848,129.987 207.031 C 130.384 211.333,130.689 212.558,131.966 214.985 C 132.425 215.856,132.800 216.824,132.800 217.136 C 132.800 218.671,140.539 226.481,142.985 227.415 C 143.983 227.797,144.800 228.229,144.800 228.375 C 144.800 229.841,157.350 230.909,159.717 229.644 C 161.634 228.619,161.527 227.188,159.471 226.363 C 158.772 226.083,157.792 225.458,157.294 224.975 C 156.796 224.493,155.896 223.997,155.294 223.874 C 152.971 223.398,152.678 222.820,153.736 220.800 C 154.254 219.810,155.010 218.058,155.416 216.906 C 156.509 213.804,159.331 213.184,162.020 215.455 C 162.361 215.743,163.436 216.260,164.408 216.603 C 165.381 216.946,166.542 217.560,166.989 217.968 C 167.435 218.375,168.206 218.831,168.702 218.982 C 169.198 219.132,170.106 219.678,170.720 220.194 C 173.470 222.508,177.503 220.706,179.210 216.400 C 179.515 215.630,180.268 214.037,180.882 212.859 C 181.497 211.682,182.000 210.206,182.000 209.579 C 182.000 207.846,182.835 204.298,183.452 203.411 C 184.328 202.150,184.191 194.913,183.245 192.514 C 182.830 191.461,182.310 188.916,182.091 186.859 C 181.812 184.255,181.454 182.798,180.908 182.060 C 180.477 181.477,179.762 180.190,179.318 179.200 C 178.874 178.210,178.046 176.906,177.477 176.302 C 176.908 175.698,176.298 174.978,176.121 174.702 C 175.443 173.642,171.178 170.351,169.920 169.917 C 169.194 169.667,168.150 169.136,167.600 168.737 C 165.157 166.965,156.840 166.170,150.987 167.149 M53.542 167.863 C 50.600 168.227,50.600 168.227,50.600 181.465 L 50.600 193.246 51.600 194.014 C 53.106 195.171,68.871 195.186,72.313 194.035 C 73.571 193.614,75.500 193.142,76.600 192.985 C 86.034 191.646,89.930 179.472,83.056 172.811 C 80.858 170.680,80.452 170.444,77.850 169.786 C 76.723 169.500,74.810 168.968,73.600 168.602 C 71.414 167.942,57.157 167.417,53.542 167.863 M161.071 168.027 C 162.792 168.263,165.100 168.869,166.200 169.374 C 167.300 169.880,168.650 170.406,169.200 170.542 C 169.750 170.679,171.010 171.510,172.000 172.389 C 172.990 173.268,173.908 173.990,174.041 173.994 C 175.983 174.044,181.107 184.084,181.597 188.800 C 181.815 190.890,182.189 193.334,182.429 194.231 C 183.335 197.618,181.777 208.990,179.903 212.659 C 179.358 213.727,178.671 215.140,178.377 215.800 C 176.521 219.956,173.922 220.846,170.143 218.621 C 159.646 212.440,155.893 211.836,154.778 216.147 C 154.543 217.056,154.033 218.250,153.644 218.800 C 151.302 222.115,151.717 223.394,155.800 225.439 C 161.169 228.129,160.933 229.289,155.000 229.362 C 148.578 229.441,143.007 227.280,138.700 223.037 C 137.215 221.574,136.000 220.211,136.000 220.007 C 136.000 219.803,135.557 219.193,135.016 218.652 C 134.474 218.111,133.650 216.536,133.184 215.153 C 132.718 213.770,132.051 212.090,131.700 211.419 C 130.375 208.882,129.858 198.008,130.692 190.200 C 131.131 186.093,132.358 182.427,134.319 179.360 C 135.968 176.779,136.942 175.565,138.253 174.457 C 139.104 173.737,140.340 172.660,141.000 172.064 C 141.660 171.468,143.010 170.742,144.000 170.451 C 144.990 170.159,146.107 169.648,146.482 169.315 C 147.951 168.009,155.839 167.313,161.071 168.027 M71.365 169.377 C 72.484 169.695,74.715 170.176,76.322 170.446 C 89.424 172.647,88.293 190.706,74.949 192.386 C 72.855 192.650,70.505 193.131,69.727 193.456 C 67.410 194.425,53.622 194.081,52.570 193.029 C 51.149 191.607,51.200 170.857,52.629 169.428 C 53.507 168.550,68.309 168.510,71.365 169.377 M291.756 181.906 C 290.118 182.990,290.000 184.189,290.000 199.798 L 290.000 214.836 290.982 215.818 L 291.964 216.800 319.682 216.771 C 347.624 216.741,351.368 216.602,352.036 215.567 C 352.247 215.241,352.360 208.234,352.301 199.072 C 352.189 181.409,352.385 182.651,349.600 181.947 C 348.184 181.590,292.295 181.550,291.756 181.906 M349.000 183.190 C 352.145 183.919,352.069 183.484,351.926 199.863 C 351.811 213.157,351.740 214.432,351.086 215.086 C 350.008 216.163,292.725 216.418,291.545 215.351 C 290.431 214.343,290.390 185.315,291.500 183.788 L 292.200 182.825 319.800 182.822 C 335.341 182.820,348.099 182.981,349.000 183.190 M291.501 227.488 C 290.112 229.023,290.000 230.333,290.000 245.052 C 290.000 259.526,290.109 260.859,291.360 261.694 C 292.590 262.515,350.775 262.025,351.613 261.187 C 352.407 260.393,352.424 260.003,352.313 244.597 L 352.200 228.821 351.289 227.911 L 350.378 227.000 321.262 226.888 C 293.755 226.781,292.111 226.815,291.501 227.488 M349.567 228.653 C 351.997 229.139,352.061 229.594,351.923 245.411 C 351.810 258.374,351.740 259.633,351.086 260.286 C 350.037 261.334,292.479 261.621,291.441 260.584 C 290.487 259.629,290.470 230.650,291.423 229.289 L 292.045 228.400 320.173 228.400 C 335.643 228.400,348.870 228.514,349.567 228.653 M290.909 273.482 C 290.200 274.563,289.563 300.579,290.184 303.072 C 290.742 305.312,289.114 305.200,321.229 305.200 C 350.437 305.200,350.810 305.190,351.614 304.386 C 352.833 303.167,352.671 274.603,351.438 273.242 C 350.677 272.401,350.654 272.400,321.147 272.400 L 291.618 272.400 290.909 273.482 M349.239 273.847 C 351.949 274.295,352.002 274.595,351.987 289.462 C 351.977 300.549,351.880 302.725,351.370 303.400 C 350.666 304.332,293.285 304.902,291.588 303.994 C 290.500 303.411,290.346 276.026,291.423 274.489 L 292.045 273.600 319.923 273.604 C 335.255 273.607,348.447 273.716,349.239 273.847 " stroke="none" fill="#94bca4" fill-rule="evenodd"></path><path id="path3" d="M226.913 65.881 C 225.622 66.130,225.543 67.096,225.679 80.881 C 225.772 90.291,225.922 93.283,226.320 93.681 C 226.730 94.091,232.028 94.242,251.520 94.400 L 276.200 94.600 276.312 107.800 C 276.373 115.060,276.325 121.405,276.204 121.900 L 275.985 122.800 252.082 122.800 L 228.178 122.800 226.862 124.002 L 225.546 125.204 225.673 131.789 C 225.775 137.077,225.922 138.495,226.419 138.991 C 226.960 139.532,229.514 139.609,246.819 139.607 C 257.699 139.606,268.805 139.720,271.500 139.861 L 276.400 140.117 276.400 153.426 C 276.400 160.746,276.291 167.019,276.157 167.367 C 275.940 167.934,273.438 168.000,251.999 168.000 L 228.083 168.000 226.841 169.414 L 225.600 170.828 225.606 176.714 C 225.610 180.654,225.779 182.931,226.118 183.600 L 226.623 184.600 251.412 184.800 L 276.200 185.000 276.312 198.400 C 276.373 205.770,276.319 212.227,276.192 212.748 L 275.961 213.696 254.392 213.436 C 231.018 213.154,228.310 213.257,226.786 214.492 C 225.615 215.441,225.211 228.572,226.320 229.680 C 226.730 230.091,232.023 230.242,251.520 230.400 L 276.200 230.600 276.312 243.800 C 276.373 251.060,276.325 257.405,276.204 257.900 L 275.985 258.800 251.828 258.800 L 227.671 258.800 226.602 260.070 L 225.534 261.340 225.667 267.810 C 225.764 272.529,225.948 274.457,226.346 274.936 C 226.841 275.531,229.241 275.604,251.546 275.697 L 276.200 275.800 276.305 289.291 L 276.411 302.782 251.625 302.891 C 231.949 302.978,226.732 303.107,226.320 303.519 C 225.623 304.216,225.330 329.047,225.992 331.302 C 226.859 334.254,220.021 334.022,302.876 333.905 C 363.261 333.820,377.596 333.701,378.102 333.282 C 380.127 331.601,380.000 340.535,380.000 199.299 C 380.000 59.588,380.104 66.281,377.927 65.845 C 376.565 65.573,228.323 65.608,226.913 65.881 M378.286 67.314 C 378.968 67.997,379.005 73.872,379.105 198.786 L 379.210 329.544 378.239 330.672 L 377.269 331.800 303.135 331.912 C 222.768 332.032,227.494 332.128,226.580 330.362 C 225.745 328.747,225.862 306.391,226.714 304.900 L 227.228 304.000 251.586 304.000 C 273.195 304.000,276.014 303.929,276.571 303.371 C 277.410 302.533,277.529 276.598,276.700 275.477 C 276.242 274.857,274.189 274.793,252.043 274.700 L 227.886 274.600 227.043 273.471 C 225.606 271.547,225.532 262.831,226.941 261.422 L 227.964 260.400 252.158 260.400 C 271.075 260.400,276.423 260.291,276.676 259.900 C 277.465 258.682,277.294 230.609,276.494 229.885 C 275.809 229.265,273.661 229.197,251.577 229.103 L 227.411 229.000 226.805 227.800 C 225.732 225.673,225.727 217.655,226.798 216.294 L 227.658 215.200 252.005 215.200 C 271.044 215.200,276.423 215.091,276.676 214.700 C 277.197 213.896,277.323 185.777,276.811 184.820 C 276.381 184.017,276.049 184.005,251.893 183.903 L 227.411 183.800 226.805 182.600 C 225.981 180.967,225.937 171.639,226.749 170.661 C 227.249 170.059,229.498 170.000,251.825 170.000 C 271.008 170.000,276.423 169.891,276.676 169.500 C 277.198 168.694,277.323 140.577,276.809 139.617 C 276.376 138.809,276.120 138.800,252.286 138.787 C 225.782 138.773,227.203 138.916,226.445 136.187 C 225.753 133.694,225.870 126.763,226.623 125.689 L 227.245 124.800 251.523 124.794 C 266.108 124.790,276.040 124.636,276.400 124.409 C 277.380 123.790,277.532 95.030,276.561 93.957 C 275.903 93.230,274.911 93.200,251.747 93.200 L 227.618 93.200 226.909 92.119 C 225.543 90.036,225.673 68.384,227.060 66.997 C 228.073 65.984,377.269 66.297,378.286 67.314 M291.648 94.110 C 291.002 95.318,291.177 123.738,291.835 124.396 C 292.521 125.081,349.787 124.773,350.480 124.080 C 350.888 123.673,351.000 120.389,351.000 108.880 L 351.000 94.200 349.600 93.723 C 348.570 93.371,340.787 93.239,320.168 93.223 L 292.135 93.200 291.648 94.110 M349.105 107.916 C 349.174 116.642,349.066 121.503,348.791 122.016 C 348.381 122.783,347.768 122.800,320.186 122.800 L 292.000 122.800 292.000 108.597 L 292.000 94.395 320.500 94.497 L 349.000 94.600 349.105 107.916 M291.595 139.609 C 291.002 140.717,291.224 168.985,291.830 169.591 C 292.350 170.110,350.145 169.989,350.667 169.467 C 351.380 168.755,351.310 140.167,350.594 139.451 C 349.461 138.318,292.204 138.471,291.595 139.609 M348.300 139.865 L 349.200 140.087 349.200 153.270 C 349.200 161.592,349.047 166.738,348.786 167.226 C 348.383 167.980,347.643 168.000,320.186 168.000 L 292.000 168.000 292.000 153.793 L 292.000 139.585 319.700 139.615 C 334.935 139.631,347.805 139.744,348.300 139.865 M148.455 149.578 C 146.616 149.753,144.996 150.082,144.855 150.308 C 144.715 150.534,143.520 150.846,142.200 151.002 C 139.650 151.302,138.000 152.071,138.000 152.958 C 138.000 153.331,137.156 153.580,135.251 153.768 C 132.879 154.001,132.290 154.227,130.951 155.419 C 130.098 156.178,129.115 156.800,128.768 156.800 C 128.420 156.800,127.887 157.263,127.584 157.829 C 127.281 158.396,126.441 159.106,125.717 159.409 C 124.992 159.712,124.400 160.229,124.400 160.558 C 124.400 160.887,123.913 161.391,123.317 161.678 C 122.721 161.965,122.128 162.649,122.000 163.197 C 121.871 163.745,121.333 164.409,120.804 164.673 C 120.274 164.937,119.513 165.793,119.111 166.576 C 118.710 167.359,118.210 168.000,118.001 168.000 C 117.501 168.000,116.400 170.150,116.400 171.125 C 116.400 171.546,115.875 172.551,115.233 173.359 C 114.591 174.166,113.939 175.578,113.784 176.496 C 113.629 177.414,113.181 178.623,112.788 179.183 C 110.093 183.026,110.145 215.209,112.851 218.219 C 113.256 218.670,113.705 219.660,113.848 220.419 C 113.990 221.179,114.556 222.404,115.105 223.141 C 115.654 223.879,116.268 225.214,116.469 226.108 C 116.670 227.002,117.385 228.361,118.060 229.129 C 118.734 229.897,119.464 231.037,119.682 231.662 C 119.900 232.288,120.340 232.800,120.660 232.800 C 120.980 232.800,121.424 233.323,121.647 233.962 C 121.882 234.636,122.524 235.320,123.174 235.589 C 123.791 235.845,124.496 236.492,124.740 237.027 C 124.983 237.562,125.502 238.006,125.891 238.013 C 126.697 238.027,127.999 238.910,128.003 239.444 C 128.005 239.853,130.241 241.200,130.917 241.200 C 131.166 241.200,131.737 241.651,132.185 242.202 C 132.773 242.924,133.669 243.330,135.400 243.656 C 136.935 243.946,138.119 244.438,138.685 245.021 C 139.953 246.327,142.390 246.488,158.400 246.319 C 172.523 246.170,173.393 246.082,173.812 244.763 C 174.148 243.705,175.430 243.810,176.713 245.000 C 177.306 245.550,178.402 246.114,179.147 246.254 C 179.973 246.409,180.577 246.789,180.691 247.227 C 180.795 247.623,181.471 248.227,182.195 248.571 C 182.918 248.914,184.064 249.712,184.741 250.344 C 185.418 250.977,186.509 251.602,187.167 251.733 C 187.824 251.865,188.832 252.384,189.407 252.886 C 191.226 254.477,197.011 255.072,198.084 253.778 C 198.368 253.436,199.095 252.620,199.700 251.964 C 200.305 251.309,200.800 250.329,200.800 249.787 C 200.800 249.223,201.398 248.140,202.200 247.253 C 202.969 246.401,203.715 245.096,203.856 244.352 C 203.997 243.608,204.285 242.664,204.495 242.253 C 205.596 240.106,202.676 237.122,198.782 236.416 C 196.754 236.047,196.078 235.747,195.782 235.081 C 195.572 234.608,194.815 234.055,194.100 233.852 C 192.213 233.318,192.249 231.324,194.181 229.393 C 194.978 228.595,195.671 227.426,195.822 226.625 C 195.972 225.824,196.470 224.984,197.001 224.636 C 197.677 224.193,197.995 223.488,198.204 221.973 C 198.360 220.840,198.814 219.586,199.213 219.187 C 200.900 217.500,200.942 217.115,201.110 201.800 C 201.299 184.524,200.990 180.069,199.489 178.472 C 198.805 177.744,198.392 176.726,198.203 175.299 C 198.000 173.766,197.665 172.994,196.962 172.442 C 196.433 172.026,196.000 171.387,196.000 171.023 C 196.000 169.945,194.916 168.168,193.820 167.450 C 193.259 167.082,192.800 166.416,192.800 165.970 C 192.800 165.428,192.402 165.019,191.600 164.740 C 190.842 164.476,190.400 164.045,190.400 163.571 C 190.400 162.616,187.098 159.290,185.834 158.973 C 185.307 158.840,184.786 158.390,184.677 157.971 C 184.567 157.552,183.995 157.026,183.405 156.802 C 182.815 156.578,181.805 155.866,181.159 155.221 C 180.169 154.230,179.551 154.004,177.204 153.773 C 174.979 153.554,174.374 153.349,174.184 152.749 C 173.859 151.726,172.926 151.293,170.369 150.980 C 169.176 150.834,167.390 150.447,166.400 150.120 C 164.265 149.415,153.558 149.091,148.455 149.578 M34.919 151.205 C 34.435 151.400,33.625 152.424,33.119 153.480 L 32.200 155.400 32.094 198.200 L 31.989 241.000 33.219 243.498 C 34.739 246.588,34.394 246.497,43.947 246.332 L 51.586 246.200 52.893 244.893 L 54.200 243.586 54.325 227.855 L 54.450 212.125 68.084 211.845 C 81.780 211.563,82.947 211.427,83.382 210.057 C 83.573 209.454,84.160 209.272,86.509 209.090 C 89.951 208.822,90.691 208.573,91.009 207.572 C 91.154 207.116,91.887 206.646,92.863 206.383 C 94.812 205.858,99.428 201.294,99.821 199.502 C 99.972 198.816,100.443 198.212,100.991 198.004 C 101.677 197.743,102.033 197.121,102.407 195.528 C 102.682 194.357,103.241 193.080,103.649 192.689 C 104.861 191.527,105.000 190.249,104.996 180.363 L 104.992 170.927 103.907 169.505 C 103.311 168.723,102.654 167.332,102.447 166.413 C 102.241 165.494,101.741 164.358,101.336 163.888 C 100.931 163.417,100.287 162.679,99.905 162.246 C 99.522 161.813,99.108 161.140,98.984 160.750 C 98.860 160.360,98.453 159.941,98.080 159.819 C 97.706 159.697,96.993 158.967,96.496 158.198 C 95.999 157.429,95.369 156.800,95.096 156.800 C 94.823 156.800,93.904 156.180,93.053 155.423 C 91.828 154.332,91.038 153.990,89.253 153.776 C 87.496 153.565,86.810 153.274,86.139 152.453 C 85.357 151.499,84.932 151.377,81.539 151.138 C 75.897 150.741,35.929 150.799,34.919 151.205 M168.400 151.774 C 171.802 152.425,172.800 152.749,172.800 153.200 C 172.800 153.615,173.779 153.975,176.117 154.421 C 177.172 154.622,178.629 155.239,179.355 155.793 C 180.081 156.347,180.815 156.800,180.985 156.800 C 181.295 156.800,185.163 159.801,187.045 161.500 C 187.593 161.995,188.207 162.400,188.410 162.400 C 188.613 162.400,189.050 162.922,189.380 163.561 C 189.710 164.200,190.615 165.395,191.390 166.217 C 192.166 167.039,192.800 167.925,192.800 168.186 C 192.800 168.447,193.250 169.083,193.800 169.600 C 194.350 170.117,194.800 170.705,194.800 170.907 C 194.800 171.109,195.484 172.653,196.320 174.337 C 197.156 176.022,198.079 178.390,198.373 179.600 C 198.666 180.810,199.179 182.339,199.514 182.998 C 200.423 184.790,200.973 198.030,200.474 206.138 C 200.027 213.389,199.160 216.891,196.376 222.676 C 195.509 224.478,194.800 226.115,194.800 226.314 C 194.800 226.513,194.426 227.014,193.969 227.428 C 193.044 228.265,191.200 231.922,191.200 232.920 C 191.200 233.273,191.808 233.851,192.551 234.204 C 193.295 234.556,194.316 235.285,194.821 235.823 C 195.326 236.360,196.023 236.800,196.370 236.800 C 197.535 236.801,201.857 239.092,202.690 240.151 C 203.662 241.387,203.284 243.939,201.903 245.469 C 201.472 245.947,200.696 247.207,200.180 248.269 C 197.651 253.470,195.006 254.940,192.012 252.809 C 191.367 252.349,189.885 251.524,188.719 250.976 C 186.577 249.967,184.397 248.588,183.082 247.408 C 182.687 247.054,181.520 246.293,180.488 245.717 C 179.457 245.141,178.372 244.429,178.078 244.135 C 176.741 242.798,175.164 242.921,170.000 244.767 L 166.600 245.983 156.600 245.982 C 145.990 245.981,145.684 245.945,140.400 244.070 C 138.530 243.407,136.518 242.760,135.928 242.632 C 135.338 242.504,134.600 242.142,134.286 241.829 C 133.973 241.516,133.035 240.974,132.201 240.626 C 131.367 240.278,130.284 239.589,129.794 239.096 C 129.304 238.603,127.610 237.216,126.031 236.014 C 124.452 234.812,122.768 233.192,122.289 232.414 C 121.811 231.636,121.095 230.640,120.700 230.200 C 119.206 228.540,117.243 225.247,116.828 223.705 C 116.591 222.825,116.076 221.676,115.683 221.152 C 114.595 219.702,114.000 218.104,114.000 216.630 C 114.000 215.896,113.512 214.240,112.916 212.948 L 111.832 210.600 111.832 198.180 C 111.832 185.843,111.838 185.751,112.757 184.461 C 113.265 183.747,113.762 182.406,113.860 181.481 C 114.122 179.020,114.843 176.712,115.634 175.800 C 116.016 175.360,116.529 174.243,116.775 173.318 C 117.020 172.393,117.640 171.133,118.151 170.518 C 118.663 169.903,119.317 168.950,119.605 168.400 C 120.317 167.043,122.303 164.556,124.000 162.896 C 125.894 161.043,131.117 156.800,131.503 156.800 C 131.674 156.800,132.470 156.354,133.272 155.810 C 134.073 155.265,135.594 154.625,136.652 154.388 C 137.709 154.151,139.143 153.606,139.838 153.177 C 142.953 151.251,161.029 150.364,168.400 151.774 M83.200 152.951 C 84.190 153.335,86.058 153.911,87.351 154.232 C 88.644 154.552,90.233 155.261,90.882 155.807 C 91.530 156.353,92.225 156.800,92.425 156.800 C 93.889 156.800,102.000 166.715,102.000 168.505 C 102.000 168.895,102.464 170.101,103.030 171.185 C 104.631 174.246,104.641 187.167,103.045 190.160 C 102.470 191.237,102.000 192.606,102.000 193.200 C 102.000 193.795,101.558 194.893,101.017 195.641 C 100.476 196.388,99.738 197.540,99.376 198.200 C 99.015 198.860,98.296 199.850,97.780 200.400 C 97.263 200.950,96.507 201.760,96.098 202.200 C 94.670 203.739,92.618 205.217,90.717 206.076 C 89.663 206.553,88.800 207.077,88.800 207.240 C 88.800 207.616,86.727 208.254,84.458 208.576 C 83.500 208.712,82.213 209.083,81.598 209.401 C 80.159 210.145,70.862 210.786,61.389 210.794 C 55.517 210.799,54.013 210.916,53.289 211.423 L 52.400 212.045 52.400 227.009 L 52.400 241.972 51.159 243.386 L 49.917 244.800 42.753 244.800 L 35.588 244.800 34.793 243.500 C 33.544 241.459,33.741 154.191,34.998 152.802 L 35.796 151.920 58.598 152.087 C 79.079 152.236,81.583 152.324,83.200 152.951 M150.800 168.797 C 149.590 168.957,147.970 169.456,147.200 169.906 C 146.430 170.355,145.170 170.852,144.400 171.011 C 143.630 171.170,142.280 171.927,141.400 172.692 C 140.520 173.458,139.229 174.587,138.530 175.202 C 136.681 176.830,135.247 179.033,133.036 183.645 C 130.792 188.324,130.226 209.439,132.309 210.748 C 132.530 210.887,133.106 212.350,133.590 214.000 C 134.116 215.793,134.858 217.368,135.435 217.916 C 135.966 218.420,136.400 219.021,136.400 219.252 C 136.400 220.443,142.570 225.688,144.816 226.405 C 146.079 226.809,147.448 227.321,147.857 227.543 C 149.869 228.636,156.252 229.194,158.167 228.443 C 158.966 228.130,158.520 227.816,153.853 225.400 C 151.376 224.118,150.843 220.593,152.807 218.484 C 153.234 218.026,153.913 216.695,154.316 215.526 C 155.463 212.198,159.641 211.466,163.165 213.975 C 163.760 214.398,165.046 215.055,166.023 215.433 C 167.000 215.812,168.160 216.433,168.600 216.814 C 172.634 220.305,176.834 219.068,178.372 213.937 C 178.628 213.080,179.252 211.770,179.757 211.025 C 180.447 210.008,180.738 208.864,180.926 206.432 C 181.063 204.651,181.361 202.847,181.588 202.423 C 182.117 201.434,182.121 196.613,181.594 194.797 C 181.371 194.029,181.078 191.510,180.942 189.200 C 180.732 185.614,180.555 184.811,179.732 183.706 C 179.203 182.995,178.503 181.660,178.179 180.740 C 177.854 179.820,177.231 178.817,176.794 178.511 C 176.357 178.205,176.000 177.765,176.000 177.533 C 176.000 177.148,174.989 176.107,171.142 172.530 C 170.390 171.831,169.241 171.141,168.588 170.997 C 166.860 170.616,165.037 169.899,164.757 169.491 C 164.148 168.603,155.501 168.173,150.800 168.797 M53.641 170.614 L 52.400 172.028 52.400 181.393 C 52.400 193.673,51.740 192.800,61.022 192.800 C 64.723 192.800,68.753 192.626,69.976 192.414 C 71.199 192.202,73.506 191.859,75.102 191.651 C 78.533 191.206,81.959 189.230,82.794 187.215 C 83.071 186.547,83.441 186.000,83.618 186.000 C 85.082 186.000,85.111 178.208,83.652 176.655 C 83.183 176.157,82.800 175.539,82.800 175.284 C 82.800 173.557,77.311 170.816,73.800 170.789 C 72.700 170.781,70.810 170.426,69.600 170.000 C 67.793 169.364,66.281 169.224,61.141 169.213 L 54.883 169.200 53.641 170.614 M160.174 169.935 C 160.907 170.587,166.908 172.010,168.892 172.003 C 169.294 172.001,169.688 172.410,169.830 172.976 C 169.994 173.630,170.450 174.035,171.207 174.202 C 171.988 174.373,172.466 174.815,172.749 175.625 C 172.974 176.271,173.442 176.800,173.788 176.800 C 174.134 176.800,174.627 177.295,174.883 177.900 C 175.140 178.505,175.850 179.542,176.461 180.205 C 177.073 180.868,177.720 182.128,177.900 183.005 C 178.114 184.052,178.522 184.732,179.087 184.984 C 180.628 185.670,181.070 207.425,179.565 208.533 C 178.668 209.193,178.137 210.334,177.811 212.302 C 177.651 213.268,177.201 214.234,176.772 214.534 C 176.356 214.826,175.740 215.725,175.403 216.532 C 174.568 218.530,170.800 218.460,170.800 216.446 C 170.800 216.043,168.143 214.800,167.283 214.800 C 166.903 214.800,166.371 214.446,166.101 214.012 C 165.818 213.560,164.629 212.945,163.304 212.567 C 162.037 212.205,160.609 211.552,160.131 211.114 C 158.249 209.392,154.437 211.328,153.804 214.327 C 153.651 215.057,153.264 215.754,152.945 215.876 C 152.120 216.193,150.800 218.952,150.800 220.360 C 150.800 221.016,150.620 221.664,150.400 221.800 C 149.769 222.190,149.929 223.177,150.828 224.440 C 151.906 225.953,151.359 226.196,147.582 225.880 C 144.686 225.637,144.743 225.670,140.732 221.919 C 140.096 221.324,139.073 220.479,138.458 220.041 C 137.819 219.586,137.138 218.569,136.867 217.667 C 136.607 216.799,135.969 215.809,135.449 215.469 C 134.714 214.987,134.454 214.375,134.284 212.725 C 133.871 208.717,133.129 204.999,132.565 204.114 C 131.752 202.839,131.777 194.170,132.598 192.525 C 132.926 191.866,133.492 189.363,133.855 186.963 C 134.424 183.198,134.667 182.447,135.625 181.484 C 136.254 180.851,136.845 179.717,136.989 178.864 C 137.192 177.664,137.489 177.266,138.453 176.902 C 139.119 176.651,139.758 176.081,139.875 175.636 C 139.991 175.191,140.472 174.713,140.943 174.575 C 141.414 174.437,142.250 173.830,142.800 173.226 C 143.633 172.311,144.444 172.012,147.662 171.434 C 150.185 170.980,151.779 170.481,152.262 169.994 C 153.334 168.910,158.976 168.869,160.174 169.935 M77.159 172.286 C 77.779 173.165,79.800 174.400,80.619 174.400 C 81.380 174.400,81.576 174.680,81.811 176.100 C 82.135 178.056,82.684 179.263,83.458 179.720 C 84.325 180.232,84.097 182.255,83.044 183.391 C 82.488 183.990,81.975 185.172,81.819 186.212 C 81.561 187.931,81.481 188.018,79.765 188.451 C 78.741 188.708,77.652 189.316,77.213 189.875 L 76.446 190.849 65.523 190.925 L 54.600 191.000 54.493 181.238 L 54.385 171.475 65.652 171.710 C 71.848 171.839,77.027 172.098,77.159 172.286 M291.595 184.809 C 291.002 185.917,291.224 214.185,291.830 214.791 C 292.350 215.310,350.145 215.189,350.667 214.667 C 350.850 214.484,351.000 207.740,351.000 199.679 L 351.000 185.025 350.000 184.518 C 348.028 183.519,292.137 183.797,291.595 184.809 M348.300 185.052 L 349.200 185.293 349.200 198.798 C 349.200 210.879,349.130 212.360,348.538 212.851 C 347.860 213.413,308.126 213.740,296.700 213.277 L 292.000 213.087 292.000 198.943 L 292.000 184.800 319.700 184.805 C 334.935 184.808,347.805 184.919,348.300 185.052 M156.200 228.074 C 156.453 228.312,155.949 228.404,154.831 228.325 C 153.819 228.254,152.988 227.975,152.889 227.674 C 152.690 227.070,155.494 227.408,156.200 228.074 M291.696 229.995 C 291.078 230.985,290.981 257.771,291.590 259.374 L 291.980 260.400 320.890 260.394 C 338.392 260.390,350.037 260.238,350.400 260.009 C 350.912 259.686,351.018 257.478,351.123 245.004 L 351.246 230.378 349.836 229.789 C 347.301 228.730,292.365 228.924,291.696 229.995 M349.105 243.962 C 349.200 255.972,349.143 257.400,348.543 258.062 C 347.907 258.766,346.579 258.800,319.938 258.800 L 292.000 258.800 292.000 244.597 L 292.000 230.395 320.500 230.497 L 349.000 230.600 349.105 243.962 M291.614 275.574 C 290.973 276.772,291.056 302.450,291.704 303.336 C 292.391 304.276,349.404 304.193,350.539 303.251 C 351.517 302.439,351.548 276.405,350.571 275.429 C 349.488 274.345,292.196 274.486,291.614 275.574 M348.300 275.852 L 349.200 276.093 349.200 289.447 L 349.200 302.800 320.600 302.800 L 292.000 302.800 292.000 289.200 L 292.000 275.600 319.700 275.605 C 334.935 275.608,347.805 275.719,348.300 275.852 " stroke="none" fill="#3e845c" fill-rule="evenodd"></path><path id="path4" d="M227.060 66.997 C 225.673 68.384,225.543 90.036,226.909 92.119 L 227.618 93.200 251.747 93.200 C 274.911 93.200,275.903 93.230,276.561 93.957 C 277.532 95.030,277.380 123.790,276.400 124.409 C 276.040 124.636,266.108 124.790,251.523 124.794 L 227.245 124.800 226.623 125.689 C 225.870 126.763,225.753 133.694,226.445 136.187 C 227.203 138.916,225.782 138.773,252.286 138.787 C 276.120 138.800,276.376 138.809,276.809 139.617 C 277.323 140.577,277.198 168.694,276.676 169.500 C 276.423 169.891,271.008 170.000,251.825 170.000 C 229.498 170.000,227.249 170.059,226.749 170.661 C 225.937 171.639,225.981 180.967,226.805 182.600 L 227.411 183.800 251.893 183.903 C 276.049 184.005,276.381 184.017,276.811 184.820 C 277.323 185.777,277.197 213.896,276.676 214.700 C 276.423 215.091,271.044 215.200,252.005 215.200 L 227.658 215.200 226.798 216.294 C 225.727 217.655,225.732 225.673,226.805 227.800 L 227.411 229.000 251.577 229.103 C 273.661 229.197,275.809 229.265,276.494 229.885 C 277.294 230.609,277.465 258.682,276.676 259.900 C 276.423 260.291,271.075 260.400,252.158 260.400 L 227.964 260.400 226.941 261.422 C 225.532 262.831,225.606 271.547,227.043 273.471 L 227.886 274.600 252.043 274.700 C 274.189 274.793,276.242 274.857,276.700 275.477 C 277.529 276.598,277.410 302.533,276.571 303.371 C 276.014 303.929,273.195 304.000,251.586 304.000 L 227.228 304.000 226.714 304.900 C 225.862 306.391,225.745 328.747,226.580 330.362 C 227.494 332.128,222.768 332.032,303.135 331.912 L 377.269 331.800 378.239 330.672 L 379.210 329.544 379.105 198.786 C 379.005 73.872,378.968 67.997,378.286 67.314 C 377.269 66.297,228.073 65.984,227.060 66.997 M377.255 67.326 C 377.615 67.505,378.020 68.202,378.155 68.876 C 378.822 72.209,378.412 329.892,377.739 330.451 C 376.639 331.363,228.329 331.472,227.419 330.561 C 226.480 329.623,226.651 305.391,227.600 304.791 C 227.960 304.564,237.828 304.410,252.300 304.406 C 275.862 304.400,276.418 304.382,277.200 303.600 C 277.969 302.831,278.000 302.267,278.000 289.182 L 278.000 275.564 277.018 274.582 L 276.036 273.600 252.041 273.600 L 228.045 273.600 227.423 272.711 C 226.631 271.580,226.513 262.447,227.280 261.680 C 227.643 261.317,233.605 261.200,251.661 261.200 C 277.438 261.200,277.338 261.208,277.759 259.104 C 278.499 255.405,278.005 230.515,277.171 229.454 L 276.342 228.400 252.194 228.400 L 228.045 228.400 227.423 227.511 C 226.631 226.380,226.513 217.247,227.280 216.480 C 227.643 216.117,233.691 216.000,252.051 216.000 L 276.342 216.000 277.171 214.946 C 277.975 213.924,278.000 213.455,278.000 199.468 L 278.000 185.044 276.925 183.922 L 275.850 182.800 251.869 182.800 C 229.499 182.800,227.852 182.753,227.357 182.100 C 226.413 180.856,226.595 171.338,227.574 170.814 C 228.083 170.542,236.624 170.400,252.525 170.400 C 274.519 170.400,276.752 170.340,277.251 169.739 C 278.206 168.589,278.264 140.313,277.314 139.007 L 276.600 138.025 252.310 138.013 L 228.021 138.000 227.410 136.820 C 226.635 135.321,226.531 126.429,227.280 125.680 C 227.643 125.317,233.681 125.200,252.004 125.200 C 272.303 125.200,276.373 125.108,277.024 124.633 C 278.293 123.705,278.442 95.344,277.187 93.582 L 276.346 92.400 252.195 92.400 L 228.045 92.400 227.423 91.511 C 226.455 90.130,226.495 68.600,227.467 67.526 C 228.182 66.736,375.670 66.538,377.255 67.326 M291.423 93.289 C 290.337 94.838,290.500 124.211,291.597 124.798 C 292.858 125.473,350.594 125.166,351.280 124.480 C 352.121 123.640,352.273 95.688,351.445 94.088 C 350.569 92.392,350.883 92.409,319.923 92.404 L 292.045 92.400 291.423 93.289 M349.600 93.723 L 351.000 94.200 351.000 108.880 C 351.000 120.389,350.888 123.673,350.480 124.080 C 349.787 124.773,292.521 125.081,291.835 124.396 C 291.177 123.738,291.002 95.318,291.648 94.110 L 292.135 93.200 320.168 93.223 C 340.787 93.239,348.570 93.371,349.600 93.723 M291.214 138.774 C 290.589 139.942,290.651 169.291,291.280 169.920 C 292.050 170.690,349.966 170.605,351.024 169.833 C 352.172 168.993,352.485 141.387,351.369 139.300 L 350.674 138.000 321.151 138.000 C 292.372 138.000,291.618 138.019,291.214 138.774 M350.594 139.451 C 351.310 140.167,351.380 168.755,350.667 169.467 C 350.145 169.989,292.350 170.110,291.830 169.591 C 291.224 168.985,291.002 140.717,291.595 139.609 C 292.204 138.471,349.461 138.318,350.594 139.451 M143.650 151.838 C 142.248 152.145,140.532 152.747,139.838 153.177 C 139.143 153.606,137.709 154.151,136.652 154.388 C 135.594 154.625,134.073 155.265,133.272 155.810 C 132.470 156.354,131.674 156.800,131.503 156.800 C 131.117 156.800,125.894 161.043,124.000 162.896 C 122.303 164.556,120.317 167.043,119.605 168.400 C 119.317 168.950,118.663 169.903,118.151 170.518 C 117.640 171.133,117.020 172.393,116.775 173.318 C 116.529 174.243,116.016 175.360,115.634 175.800 C 114.843 176.712,114.122 179.020,113.860 181.481 C 113.762 182.406,113.265 183.747,112.757 184.461 C 111.838 185.751,111.832 185.843,111.832 198.180 L 111.832 210.600 112.916 212.948 C 113.512 214.240,114.000 215.896,114.000 216.630 C 114.000 218.104,114.595 219.702,115.683 221.152 C 116.076 221.676,116.591 222.825,116.828 223.705 C 117.243 225.247,119.206 228.540,120.700 230.200 C 121.095 230.640,121.811 231.636,122.289 232.414 C 122.768 233.192,124.452 234.812,126.031 236.014 C 127.610 237.216,129.304 238.603,129.794 239.096 C 130.284 239.589,131.367 240.278,132.201 240.626 C 133.035 240.974,133.973 241.516,134.286 241.829 C 134.600 242.142,135.338 242.504,135.928 242.632 C 136.518 242.760,138.530 243.407,140.400 244.070 C 145.684 245.945,145.990 245.981,156.600 245.982 L 166.600 245.983 170.000 244.767 C 175.164 242.921,176.741 242.798,178.078 244.135 C 178.372 244.429,179.457 245.141,180.488 245.717 C 181.520 246.293,182.687 247.054,183.082 247.408 C 184.397 248.588,186.577 249.967,188.719 250.976 C 189.885 251.524,191.367 252.349,192.012 252.809 C 195.006 254.940,197.651 253.470,200.180 248.269 C 200.696 247.207,201.472 245.947,201.903 245.469 C 203.284 243.939,203.662 241.387,202.690 240.151 C 201.857 239.092,197.535 236.801,196.370 236.800 C 196.023 236.800,195.326 236.360,194.821 235.823 C 194.316 235.285,193.295 234.556,192.551 234.204 C 191.808 233.851,191.200 233.273,191.200 232.920 C 191.200 231.922,193.044 228.265,193.969 227.428 C 194.426 227.014,194.800 226.513,194.800 226.314 C 194.800 226.115,195.509 224.478,196.376 222.676 C 199.160 216.891,200.027 213.389,200.474 206.138 C 200.973 198.030,200.423 184.790,199.514 182.998 C 199.179 182.339,198.666 180.810,198.373 179.600 C 198.079 178.390,197.156 176.022,196.320 174.337 C 195.484 172.653,194.800 171.109,194.800 170.907 C 194.800 170.705,194.350 170.117,193.800 169.600 C 193.250 169.083,192.800 168.447,192.800 168.186 C 192.800 167.925,192.166 167.039,191.390 166.217 C 190.615 165.395,189.710 164.200,189.380 163.561 C 189.050 162.922,188.613 162.400,188.410 162.400 C 188.207 162.400,187.593 161.995,187.045 161.500 C 185.163 159.801,181.295 156.800,180.985 156.800 C 180.815 156.800,180.081 156.347,179.355 155.793 C 178.629 155.239,177.172 154.622,176.117 154.421 C 173.779 153.975,172.800 153.615,172.800 153.200 C 172.800 151.408,150.399 150.362,143.650 151.838 M34.998 152.802 C 33.741 154.191,33.544 241.459,34.793 243.500 L 35.588 244.800 42.753 244.800 L 49.917 244.800 51.159 243.386 L 52.400 241.972 52.400 227.009 L 52.400 212.045 53.289 211.423 C 54.013 210.916,55.517 210.799,61.389 210.794 C 70.862 210.786,80.159 210.145,81.598 209.401 C 82.213 209.083,83.500 208.712,84.458 208.576 C 86.727 208.254,88.800 207.616,88.800 207.240 C 88.800 207.077,89.663 206.553,90.717 206.076 C 92.618 205.217,94.670 203.739,96.098 202.200 C 96.507 201.760,97.263 200.950,97.780 200.400 C 98.296 199.850,99.015 198.860,99.376 198.200 C 99.738 197.540,100.476 196.388,101.017 195.641 C 101.558 194.893,102.000 193.795,102.000 193.200 C 102.000 192.606,102.470 191.237,103.045 190.160 C 104.641 187.167,104.631 174.246,103.030 171.185 C 102.464 170.101,102.000 168.895,102.000 168.505 C 102.000 166.715,93.889 156.800,92.425 156.800 C 92.225 156.800,91.530 156.353,90.882 155.807 C 90.233 155.261,88.644 154.552,87.351 154.232 C 86.058 153.911,84.190 153.335,83.200 152.951 C 81.583 152.324,79.079 152.236,58.598 152.087 L 35.796 151.920 34.998 152.802 M168.600 152.558 C 169.700 152.860,171.419 153.466,172.419 153.905 C 173.420 154.343,174.974 154.827,175.873 154.979 C 176.772 155.130,177.844 155.559,178.254 155.930 C 178.664 156.302,179.450 156.805,180.000 157.050 C 180.550 157.294,181.746 158.103,182.658 158.847 C 183.569 159.591,184.978 160.740,185.787 161.400 C 186.596 162.060,187.417 162.657,187.612 162.727 C 187.976 162.859,189.914 165.390,192.470 169.073 C 194.989 172.704,198.000 179.451,198.000 181.466 C 198.000 181.997,198.405 183.190,198.900 184.116 C 200.270 186.679,200.296 209.739,198.934 213.200 C 198.457 214.410,197.970 216.098,197.851 216.950 C 197.510 219.387,192.305 229.431,191.123 229.931 C 189.413 230.655,190.353 234.753,192.238 234.791 C 192.479 234.796,193.019 235.180,193.438 235.646 C 193.857 236.111,195.917 237.289,198.015 238.264 C 203.226 240.685,203.597 241.611,200.932 245.538 C 200.420 246.293,200.000 247.134,200.000 247.407 C 200.000 247.679,199.729 248.127,199.397 248.403 C 199.065 248.678,198.317 249.780,197.733 250.852 C 196.428 253.249,194.204 253.607,191.836 251.800 C 191.114 251.250,190.350 250.800,190.137 250.800 C 189.700 250.800,184.310 247.628,184.000 247.189 C 183.890 247.033,182.810 246.312,181.600 245.587 C 180.390 244.862,179.040 243.957,178.600 243.577 C 177.025 242.214,174.932 242.255,170.600 243.734 C 164.545 245.800,146.547 246.180,143.580 244.304 C 143.041 243.963,141.356 243.379,139.836 243.007 C 137.488 242.432,131.435 239.648,130.800 238.851 C 130.634 238.643,128.149 236.675,126.600 235.525 C 124.687 234.104,123.056 232.482,122.541 231.486 C 122.201 230.828,121.535 229.910,121.061 229.445 C 120.052 228.455,119.199 227.035,117.790 224.000 C 117.228 222.790,116.346 220.990,115.830 220.000 C 115.314 219.010,114.680 216.956,114.423 215.436 C 114.165 213.916,113.650 212.116,113.277 211.436 C 112.119 209.321,112.272 187.285,113.462 184.800 C 113.937 183.810,114.455 182.100,114.615 181.000 C 114.775 179.900,115.398 178.010,116.001 176.800 C 116.603 175.590,117.336 173.978,117.631 173.217 C 120.489 165.830,130.816 156.720,139.200 154.189 C 140.410 153.824,142.210 153.200,143.200 152.804 C 145.583 151.848,165.318 151.658,168.600 152.558 M81.200 153.560 C 86.854 154.683,87.957 155.024,90.200 156.339 C 92.529 157.705,98.800 163.403,98.800 164.153 C 98.800 164.357,99.233 165.092,99.762 165.786 C 103.045 170.090,104.679 183.188,102.625 188.728 C 102.325 189.538,101.854 191.071,101.578 192.135 C 101.302 193.200,100.656 194.690,100.143 195.446 C 99.629 196.203,98.931 197.361,98.590 198.019 C 97.260 200.591,93.714 203.608,89.019 206.161 C 84.614 208.557,80.911 209.093,66.600 209.403 C 49.686 209.770,51.600 207.594,51.600 226.454 C 51.600 240.834,51.575 241.311,50.766 242.447 L 49.933 243.618 42.678 243.509 L 35.423 243.400 34.913 242.400 C 33.976 240.560,34.383 155.296,35.335 153.842 L 36.071 152.720 57.535 152.922 C 70.585 153.044,79.862 153.295,81.200 153.560 M150.482 168.194 C 148.658 168.476,146.858 168.981,146.482 169.315 C 146.107 169.648,144.990 170.159,144.000 170.451 C 143.010 170.742,141.660 171.468,141.000 172.064 C 140.340 172.660,139.104 173.737,138.253 174.457 C 136.942 175.565,135.968 176.779,134.319 179.360 C 132.358 182.427,131.131 186.093,130.692 190.200 C 129.858 198.008,130.375 208.882,131.700 211.419 C 132.051 212.090,132.718 213.770,133.184 215.153 C 133.650 216.536,134.474 218.111,135.016 218.652 C 135.557 219.193,136.000 219.803,136.000 220.007 C 136.000 220.211,137.215 221.574,138.700 223.037 C 143.007 227.280,148.578 229.441,155.000 229.362 C 160.933 229.289,161.169 228.129,155.800 225.439 C 151.717 223.394,151.302 222.115,153.644 218.800 C 154.033 218.250,154.543 217.056,154.778 216.147 C 155.893 211.836,159.646 212.440,170.143 218.621 C 173.922 220.846,176.521 219.956,178.377 215.800 C 178.671 215.140,179.358 213.727,179.903 212.659 C 181.777 208.990,183.335 197.618,182.429 194.231 C 182.189 193.334,181.815 190.890,181.597 188.800 C 181.107 184.084,175.983 174.044,174.041 173.994 C 173.908 173.990,172.990 173.268,172.000 172.389 C 171.010 171.510,169.750 170.679,169.200 170.542 C 168.650 170.406,167.300 169.880,166.200 169.374 C 162.555 167.699,156.571 167.250,150.482 168.194 M161.757 168.781 C 163.273 168.977,164.623 169.296,164.757 169.491 C 165.037 169.899,166.860 170.616,168.588 170.997 C 169.241 171.141,170.390 171.831,171.142 172.530 C 174.989 176.107,176.000 177.148,176.000 177.533 C 176.000 177.765,176.357 178.205,176.794 178.511 C 177.231 178.817,177.854 179.820,178.179 180.740 C 178.503 181.660,179.203 182.995,179.732 183.706 C 180.555 184.811,180.732 185.614,180.942 189.200 C 181.078 191.510,181.371 194.029,181.594 194.797 C 182.121 196.613,182.117 201.434,181.588 202.423 C 181.361 202.847,181.063 204.651,180.926 206.432 C 180.738 208.864,180.447 210.008,179.757 211.025 C 179.252 211.770,178.628 213.080,178.372 213.937 C 176.834 219.068,172.634 220.305,168.600 216.814 C 168.160 216.433,167.000 215.812,166.023 215.433 C 165.046 215.055,163.760 214.398,163.165 213.975 C 159.641 211.466,155.463 212.198,154.316 215.526 C 153.913 216.695,153.234 218.026,152.807 218.484 C 150.843 220.593,151.376 224.118,153.853 225.400 C 158.520 227.816,158.966 228.130,158.167 228.443 C 156.252 229.194,149.869 228.636,147.857 227.543 C 147.448 227.321,146.079 226.809,144.816 226.405 C 142.570 225.688,136.400 220.443,136.400 219.252 C 136.400 219.021,135.966 218.420,135.435 217.916 C 134.858 217.368,134.116 215.793,133.590 214.000 C 133.106 212.350,132.530 210.887,132.309 210.748 C 131.154 210.022,130.647 197.024,131.494 189.845 C 132.138 184.382,135.097 178.224,138.530 175.202 C 139.229 174.587,140.520 173.458,141.400 172.692 C 142.280 171.927,143.630 171.170,144.400 171.011 C 145.170 170.852,146.430 170.355,147.200 169.906 C 149.498 168.565,156.111 168.054,161.757 168.781 M52.629 169.428 C 51.200 170.857,51.149 191.607,52.570 193.029 C 53.622 194.081,67.410 194.425,69.727 193.456 C 70.505 193.131,72.855 192.650,74.949 192.386 C 88.293 190.706,89.424 172.647,76.322 170.446 C 74.715 170.176,72.484 169.695,71.365 169.377 C 68.309 168.510,53.507 168.550,52.629 169.428 M69.600 170.000 C 70.810 170.426,72.700 170.781,73.800 170.789 C 77.311 170.816,82.800 173.557,82.800 175.284 C 82.800 175.539,83.183 176.157,83.652 176.655 C 85.111 178.208,85.082 186.000,83.618 186.000 C 83.441 186.000,83.071 186.547,82.794 187.215 C 81.959 189.230,78.533 191.206,75.102 191.651 C 73.506 191.859,71.199 192.202,69.976 192.414 C 68.753 192.626,64.723 192.800,61.022 192.800 C 51.740 192.800,52.400 193.673,52.400 181.393 L 52.400 172.028 53.641 170.614 L 54.883 169.200 61.141 169.213 C 66.281 169.224,67.793 169.364,69.600 170.000 M291.500 183.788 C 290.390 185.315,290.431 214.343,291.545 215.351 C 292.725 216.418,350.008 216.163,351.086 215.086 C 352.203 213.969,352.425 185.813,351.326 184.457 C 350.076 182.914,348.244 182.819,319.800 182.822 L 292.200 182.825 291.500 183.788 M350.000 184.518 L 351.000 185.025 351.000 199.679 C 351.000 207.740,350.850 214.484,350.667 214.667 C 350.145 215.189,292.350 215.310,291.830 214.791 C 291.224 214.185,291.002 185.917,291.595 184.809 C 292.137 183.797,348.028 183.519,350.000 184.518 M291.423 229.289 C 290.470 230.650,290.487 259.629,291.441 260.584 C 292.479 261.621,350.037 261.334,351.086 260.286 C 352.102 259.271,352.422 231.977,351.441 230.079 C 350.560 228.376,351.015 228.400,320.173 228.400 L 292.045 228.400 291.423 229.289 M349.836 229.789 L 351.246 230.378 351.123 245.004 C 351.018 257.478,350.912 259.686,350.400 260.009 C 350.037 260.238,338.392 260.390,320.890 260.394 L 291.980 260.400 291.590 259.374 C 290.981 257.771,291.078 230.985,291.696 229.995 C 292.365 228.924,347.301 228.730,349.836 229.789 M291.423 274.489 C 290.346 276.026,290.500 303.411,291.588 303.994 C 293.285 304.902,350.666 304.332,351.370 303.400 C 352.319 302.145,352.290 276.815,351.339 275.204 C 350.386 273.591,350.735 273.609,319.923 273.604 L 292.045 273.600 291.423 274.489 M350.571 275.429 C 351.548 276.405,351.517 302.439,350.539 303.251 C 349.404 304.193,292.391 304.276,291.704 303.336 C 291.056 302.450,290.973 276.772,291.614 275.574 C 292.196 274.486,349.488 274.345,350.571 275.429 " stroke="none" fill="#84b494" fill-rule="evenodd"></path></g></svg>