<svg id="svg" version="1.1" xmlns="http://www.w3.org/2000/svg" xmlns:xlink="http://www.w3.org/1999/xlink" width="400" height="400" viewBox="0, 0, 400,400"><g id="svgg"><path id="path0" d="M310.547 125.293 C 310.546 139.196,310.371 151.664,310.141 154.102 C 307.771 179.235,294.570 196.888,273.633 202.924 C 265.286 205.330,268.983 205.188,207.617 205.474 C 147.017 205.756,150.199 205.643,141.797 207.805 C 121.165 213.113,108.090 226.779,104.706 246.572 C 103.466 253.822,103.444 352.522,104.681 357.227 C 111.953 384.887,145.630 399.394,202.539 399.381 C 249.308 399.370,278.825 390.772,292.035 373.314 C 297.858 365.618,298.047 364.393,298.047 334.313 L 298.047 309.375 249.414 309.375 L 200.781 309.375 200.781 302.525 L 200.781 295.674 272.949 295.718 C 344.603 295.761,345.146 295.756,349.097 294.948 C 375.516 289.553,393.210 267.376,399.241 232.098 C 399.945 227.978,400.000 225.598,400.000 199.211 L 400.000 170.765 399.029 165.033 C 393.415 131.893,378.827 110.147,357.397 102.972 C 351.387 100.960,349.078 100.781,329.050 100.781 L 310.547 100.781 310.547 125.293 M262.109 335.092 C 274.893 340.089,276.888 357.807,265.517 365.355 C 254.013 372.990,238.672 364.902,238.672 351.202 C 238.672 339.133,250.916 330.717,262.109 335.092 " stroke="none" fill="#fccc39" fill-rule="evenodd"></path><path id="path1" d="M181.445 0.271 C 139.702 2.467,111.999 14.928,104.926 34.690 L 103.711 38.086 103.600 64.160 L 103.489 90.234 152.135 90.234 L 200.781 90.234 200.781 96.867 L 200.781 103.500 127.832 103.620 L 54.883 103.740 51.528 104.574 C 16.199 113.352,-0.708 145.934,0.110 203.661 C 0.855 256.289,16.716 288.285,46.484 297.213 L 49.805 298.208 70.410 298.342 L 91.016 298.476 91.016 273.693 C 91.016 259.256,91.186 247.222,91.425 244.866 C 94.009 219.318,107.770 201.590,129.278 196.098 C 137.705 193.947,135.635 194.020,195.898 193.756 L 251.758 193.511 256.250 192.509 C 279.782 187.262,293.855 173.108,297.038 151.489 C 297.950 145.295,298.017 47.149,297.112 43.267 C 289.949 12.546,247.568 -3.207,181.445 0.271 M148.242 31.245 C 162.092 33.495,167.640 50.025,157.953 60.180 C 149.571 68.968,135.418 66.583,130.120 55.490 C 124.310 43.324,134.952 29.085,148.242 31.245 " stroke="none" fill="#347cb0" fill-rule="evenodd"></path></g></svg>