<svg id="svg" version="1.1" xmlns="http://www.w3.org/2000/svg" xmlns:xlink="http://www.w3.org/1999/xlink" width="400" height="309.9447513812155" viewBox="0, 0, 400,309.9447513812155"><g id="svgg"><path id="path0" d="M182.481 1.559 C 181.798 1.705,179.679 1.833,177.770 1.843 C 175.812 1.853,174.217 1.996,174.109 2.171 C 174.003 2.341,172.669 2.481,171.144 2.481 C 169.503 2.481,168.372 2.607,168.372 2.791 C 168.372 2.972,167.339 3.101,165.891 3.101 C 164.527 3.101,163.411 3.220,163.411 3.365 C 163.411 3.511,161.799 3.726,159.829 3.844 C 157.860 3.962,155.897 4.192,155.468 4.355 C 155.039 4.518,154.078 4.651,153.331 4.651 C 152.585 4.651,151.888 4.791,151.783 4.961 C 151.678 5.132,150.902 5.271,150.059 5.271 C 149.217 5.271,148.527 5.411,148.527 5.581 C 148.527 5.752,147.838 5.891,146.995 5.891 C 146.152 5.891,145.386 6.016,145.291 6.169 C 145.197 6.322,144.002 6.546,142.636 6.667 C 141.269 6.788,140.074 7.012,139.980 7.164 C 139.886 7.317,139.258 7.442,138.586 7.442 C 137.914 7.442,137.364 7.581,137.364 7.752 C 137.364 7.922,136.814 8.062,136.142 8.062 C 135.470 8.062,134.844 8.185,134.751 8.336 C 134.658 8.486,133.675 8.706,132.566 8.825 C 131.457 8.944,130.470 9.169,130.373 9.327 C 130.275 9.484,129.716 9.612,129.129 9.612 C 128.542 9.612,128.062 9.752,128.062 9.922 C 128.062 10.093,127.574 10.233,126.977 10.233 C 126.380 10.233,125.891 10.372,125.891 10.543 C 125.891 10.713,125.481 10.853,124.980 10.853 C 124.478 10.853,123.991 10.976,123.898 11.127 C 123.805 11.277,122.962 11.496,122.024 11.613 C 121.087 11.731,120.240 11.956,120.142 12.115 C 120.044 12.273,119.553 12.403,119.051 12.403 C 118.550 12.403,118.140 12.543,118.140 12.713 C 118.140 12.884,117.721 13.023,117.209 13.023 C 116.698 13.023,116.279 13.128,116.278 13.256 C 116.278 13.384,115.158 13.753,113.789 14.075 C 112.420 14.398,111.226 14.782,111.135 14.928 C 111.045 15.074,110.631 15.194,110.214 15.194 C 109.798 15.194,109.457 15.333,109.457 15.504 C 109.457 15.674,109.117 15.814,108.700 15.814 C 108.284 15.814,107.865 15.941,107.769 16.097 C 107.672 16.253,107.037 16.474,106.357 16.589 C 105.676 16.704,105.041 16.926,104.945 17.081 C 104.848 17.237,104.429 17.364,104.013 17.364 C 103.596 17.364,103.256 17.504,103.256 17.674 C 103.256 17.845,102.981 17.984,102.645 17.984 C 102.309 17.984,101.552 18.255,100.963 18.586 C 100.374 18.917,99.393 19.282,98.783 19.396 C 98.173 19.510,97.674 19.728,97.674 19.879 C 97.674 20.031,97.423 20.155,97.116 20.155 C 96.453 20.155,94.890 20.843,94.886 21.136 C 94.885 21.248,94.326 21.435,93.645 21.550 C 92.964 21.665,92.328 21.887,92.231 22.042 C 92.135 22.198,91.786 22.326,91.455 22.326 C 91.124 22.326,90.853 22.465,90.853 22.636 C 90.853 22.806,90.582 22.946,90.251 22.946 C 89.920 22.946,89.563 23.085,89.457 23.256 C 89.352 23.426,88.995 23.566,88.664 23.566 C 88.333 23.566,88.062 23.705,88.062 23.876 C 88.062 24.047,87.923 24.186,87.754 24.186 C 87.225 24.186,84.961 25.250,84.961 25.500 C 84.961 25.630,84.759 25.736,84.513 25.736 C 84.266 25.736,83.408 26.085,82.606 26.512 C 81.804 26.938,80.971 27.287,80.755 27.287 C 80.539 27.287,80.315 27.391,80.258 27.519 C 80.101 27.869,76.968 29.457,76.434 29.457 C 76.178 29.457,75.969 29.571,75.969 29.710 C 75.969 29.848,75.481 30.153,74.884 30.388 C 74.287 30.622,73.798 30.898,73.798 31.002 C 73.798 31.106,73.171 31.450,72.403 31.766 C 71.636 32.083,71.008 32.434,71.008 32.547 C 71.008 32.660,70.519 32.944,69.922 33.178 C 69.326 33.412,68.837 33.702,68.837 33.823 C 68.837 33.943,68.488 34.129,68.062 34.236 C 67.636 34.343,67.287 34.567,67.287 34.735 C 67.287 34.902,67.008 35.039,66.667 35.039 C 66.326 35.039,66.047 35.178,66.047 35.349 C 66.047 35.519,65.868 35.659,65.650 35.659 C 65.432 35.659,65.052 35.938,64.806 36.279 C 64.560 36.620,64.176 36.899,63.952 36.899 C 63.591 36.899,62.441 37.531,61.550 38.219 C 60.926 38.701,58.883 40.000,58.749 40.000 C 58.623 40.000,57.799 40.638,56.942 41.399 C 56.748 41.571,56.202 41.884,55.728 42.094 C 55.254 42.304,54.786 42.686,54.687 42.943 C 54.588 43.200,54.348 43.411,54.153 43.411 C 53.958 43.411,53.393 43.760,52.898 44.186 C 52.402 44.613,51.877 44.961,51.732 44.961 C 51.586 44.961,51.029 45.380,50.494 45.891 C 49.958 46.403,49.408 46.822,49.270 46.822 C 49.133 46.822,48.672 47.171,48.245 47.597 C 47.819 48.023,47.375 48.372,47.260 48.372 C 47.144 48.372,46.824 48.623,46.548 48.931 C 46.272 49.238,45.488 49.897,44.806 50.394 C 44.124 50.892,43.138 51.722,42.616 52.239 C 42.093 52.756,41.147 53.572,40.514 54.053 C 38.930 55.257,28.265 65.916,27.126 67.433 C 26.618 68.111,25.748 69.152,25.194 69.746 C 24.640 70.341,24.186 70.974,24.186 71.154 C 24.186 71.334,23.836 71.744,23.408 72.065 C 22.980 72.386,22.320 73.152,21.941 73.767 C 21.286 74.829,21.030 75.170,19.767 76.663 C 19.469 77.016,19.225 77.441,19.225 77.608 C 19.225 77.775,18.979 78.137,18.680 78.413 C 17.919 79.113,16.434 81.352,16.434 81.800 C 16.434 82.004,16.295 82.171,16.124 82.171 C 15.953 82.171,15.814 82.380,15.814 82.636 C 15.814 82.891,15.698 83.101,15.555 83.101 C 15.413 83.101,14.895 83.868,14.405 84.806 C 13.914 85.744,13.402 86.512,13.268 86.512 C 13.133 86.512,13.023 86.791,13.023 87.132 C 13.023 87.473,12.884 87.752,12.713 87.752 C 12.543 87.752,12.403 87.961,12.403 88.217 C 12.403 88.473,12.279 88.682,12.128 88.682 C 11.976 88.682,11.760 89.171,11.648 89.767 C 11.536 90.364,11.346 90.853,11.226 90.854 C 11.106 90.854,10.659 91.621,10.233 92.558 C 9.806 93.495,9.368 94.262,9.259 94.262 C 9.150 94.263,8.970 94.752,8.858 95.349 C 8.746 95.946,8.521 96.434,8.358 96.434 C 8.195 96.434,8.062 96.705,8.062 97.036 C 8.062 97.367,7.922 97.724,7.752 97.829 C 7.581 97.935,7.442 98.292,7.442 98.623 C 7.442 98.954,7.311 99.225,7.151 99.225 C 6.991 99.225,6.766 99.853,6.650 100.620 C 6.535 101.388,6.318 102.016,6.166 102.016 C 6.015 102.016,5.891 102.295,5.891 102.636 C 5.891 102.977,5.752 103.256,5.581 103.256 C 5.411 103.256,5.271 103.537,5.271 103.880 C 5.271 104.224,5.136 104.747,4.971 105.043 C 4.433 106.008,3.721 108.527,3.721 109.468 C 3.721 109.974,3.581 110.388,3.411 110.388 C 3.240 110.388,3.101 110.876,3.101 111.473 C 3.101 112.070,2.961 112.558,2.791 112.558 C 2.620 112.558,2.481 113.019,2.481 113.581 C 2.481 114.144,2.355 114.737,2.202 114.899 C 2.049 115.061,1.849 115.752,1.757 116.434 C 1.666 117.116,1.450 118.372,1.279 119.225 C 1.107 120.078,0.959 121.636,0.949 122.687 C 0.938 123.812,0.787 124.647,0.582 124.716 C 0.083 124.882,0.080 145.505,0.578 145.671 C 0.773 145.736,0.933 146.436,0.936 147.235 C 0.943 148.697,1.281 151.110,1.879 153.953 C 2.058 154.806,2.282 155.959,2.377 156.515 C 2.472 157.070,2.673 157.602,2.825 157.696 C 2.977 157.789,3.101 158.346,3.101 158.933 C 3.101 159.520,3.224 160.000,3.375 160.000 C 3.526 160.000,3.745 160.765,3.862 161.701 C 3.979 162.636,4.204 163.481,4.363 163.579 C 4.521 163.677,4.651 164.098,4.651 164.514 C 4.651 164.931,4.791 165.271,4.961 165.271 C 5.132 165.271,5.271 165.620,5.271 166.047 C 5.271 166.473,5.411 166.822,5.581 166.822 C 5.752 166.822,5.891 167.171,5.891 167.597 C 5.891 168.023,6.031 168.372,6.202 168.372 C 6.372 168.372,6.512 168.665,6.512 169.023 C 6.512 169.649,6.671 170.067,8.216 173.488 C 8.601 174.341,9.107 175.492,9.340 176.047 C 9.573 176.601,9.869 177.054,9.998 177.054 C 10.127 177.054,10.233 177.307,10.233 177.616 C 10.233 177.925,10.512 178.477,10.853 178.843 C 11.194 179.209,11.473 179.668,11.473 179.863 C 11.473 180.355,12.454 182.398,12.920 182.877 C 13.132 183.095,13.750 184.106,14.293 185.125 C 14.836 186.143,15.400 186.977,15.547 186.977 C 15.694 186.977,15.814 187.256,15.814 187.597 C 15.814 187.938,15.922 188.217,16.054 188.217 C 16.185 188.217,16.556 188.705,16.878 189.302 C 17.199 189.899,17.580 190.388,17.723 190.388 C 17.867 190.388,17.984 190.575,17.984 190.805 C 17.984 191.034,18.264 191.474,18.605 191.783 C 18.946 192.092,19.225 192.511,19.225 192.714 C 19.225 192.917,19.469 193.372,19.767 193.725 C 21.109 195.311,21.388 195.670,21.912 196.491 C 22.219 196.971,22.856 197.734,23.328 198.186 C 23.800 198.639,24.186 199.102,24.186 199.216 C 24.186 199.331,24.360 199.603,24.574 199.821 C 24.787 200.040,25.519 200.899,26.202 201.732 C 28.012 203.940,32.109 208.261,33.863 209.811 C 34.083 210.006,34.705 210.634,35.245 211.207 C 35.785 211.779,36.413 212.402,36.640 212.591 C 36.868 212.780,37.340 213.268,37.689 213.677 C 38.038 214.085,38.860 214.837,39.515 215.349 C 40.171 215.860,41.281 216.816,41.982 217.471 C 42.682 218.127,43.744 219.032,44.341 219.483 C 44.938 219.934,45.652 220.549,45.928 220.849 C 46.204 221.150,46.558 221.395,46.716 221.395 C 46.874 221.395,47.520 221.884,48.153 222.481 C 48.786 223.078,49.379 223.566,49.472 223.566 C 49.564 223.566,50.016 223.915,50.475 224.341 C 50.935 224.767,51.453 225.116,51.626 225.116 C 51.799 225.116,52.335 225.535,52.818 226.047 C 53.301 226.558,53.893 226.977,54.135 226.977 C 54.376 226.977,54.574 227.085,54.574 227.216 C 54.574 227.348,55.062 227.719,55.659 228.040 C 56.256 228.362,56.744 228.742,56.744 228.886 C 56.744 229.030,56.897 229.147,57.083 229.147 C 57.269 229.147,57.774 229.424,58.205 229.763 C 58.635 230.102,59.132 230.290,59.309 230.180 C 59.486 230.071,59.544 230.122,59.438 230.293 C 59.333 230.464,59.625 230.800,60.088 231.039 C 60.551 231.277,61.199 231.715,61.528 232.012 C 61.856 232.308,62.379 232.632,62.690 232.731 C 63.001 232.829,63.256 233.040,63.256 233.199 C 63.256 233.358,63.471 233.488,63.734 233.488 C 63.997 233.488,64.520 233.777,64.897 234.130 C 65.273 234.483,65.965 234.849,66.434 234.944 C 66.903 235.039,67.287 235.238,67.287 235.388 C 67.287 235.537,67.445 235.659,67.638 235.659 C 67.831 235.659,68.239 235.947,68.545 236.299 C 68.850 236.652,69.216 236.932,69.356 236.922 C 69.787 236.891,72.812 238.506,73.467 239.116 C 73.805 239.432,74.263 239.694,74.483 239.700 C 74.703 239.705,75.155 239.915,75.486 240.165 C 75.817 240.415,76.340 240.620,76.648 240.620 C 76.957 240.620,77.209 240.760,77.209 240.930 C 77.209 241.101,77.419 241.240,77.674 241.240 C 77.930 241.240,78.140 241.380,78.140 241.550 C 78.140 241.721,78.419 241.860,78.760 241.860 C 79.101 241.860,79.380 241.994,79.380 242.156 C 79.380 242.319,79.868 242.544,80.465 242.656 C 81.062 242.768,81.550 242.958,81.550 243.077 C 81.550 243.197,82.039 243.487,82.636 243.721 C 83.233 243.955,83.721 244.260,83.721 244.399 C 83.721 244.538,83.992 244.651,84.323 244.651 C 84.654 244.651,85.004 244.780,85.102 244.937 C 85.199 245.095,85.695 245.315,86.205 245.427 C 86.715 245.539,87.132 245.759,87.132 245.916 C 87.132 246.073,87.403 246.202,87.734 246.202 C 88.065 246.202,88.422 246.341,88.527 246.512 C 88.633 246.682,88.990 246.822,89.321 246.822 C 89.652 246.822,89.922 246.955,89.922 247.118 C 89.922 247.281,90.412 247.506,91.011 247.618 C 91.610 247.730,92.176 247.946,92.270 248.097 C 92.363 248.248,92.711 248.372,93.042 248.372 C 93.373 248.372,93.643 248.512,93.643 248.682 C 93.643 248.853,93.922 248.992,94.264 248.992 C 94.605 248.992,94.884 249.132,94.884 249.302 C 94.884 249.473,95.233 249.612,95.659 249.612 C 96.085 249.612,96.434 249.752,96.434 249.922 C 96.434 250.093,96.539 250.205,96.667 250.171 C 97.062 250.067,99.062 250.758,100.538 251.509 C 100.835 251.660,101.288 251.783,101.546 251.783 C 101.804 251.783,102.016 251.922,102.016 252.093 C 102.016 252.264,102.286 252.403,102.617 252.403 C 102.948 252.403,103.300 252.535,103.400 252.695 C 103.499 252.856,104.205 253.081,104.968 253.196 C 105.732 253.310,106.357 253.527,106.357 253.679 C 106.357 253.830,106.697 253.953,107.113 253.953 C 107.530 253.953,107.957 254.093,108.062 254.264 C 108.167 254.434,108.594 254.574,109.011 254.574 C 109.427 254.574,109.767 254.700,109.767 254.855 C 109.767 255.009,110.465 255.232,111.317 255.349 C 112.170 255.466,112.946 255.688,113.041 255.843 C 113.137 255.998,113.488 256.124,113.821 256.124 C 114.154 256.124,114.669 256.247,114.965 256.398 C 116.149 257.000,117.150 257.337,119.225 257.831 C 120.419 258.115,121.638 258.475,121.934 258.631 C 122.230 258.787,122.815 258.915,123.233 258.915 C 123.652 258.915,124.081 259.054,124.186 259.225 C 124.291 259.395,124.788 259.535,125.290 259.535 C 125.791 259.535,126.202 259.658,126.202 259.809 C 126.202 259.960,127.107 260.180,128.214 260.298 C 129.321 260.417,130.306 260.642,130.403 260.800 C 130.500 260.957,131.129 261.085,131.801 261.085 C 132.473 261.085,133.023 261.225,133.023 261.395 C 133.023 261.566,133.512 261.705,134.109 261.705 C 134.705 261.705,135.194 261.845,135.194 262.016 C 135.194 262.186,135.744 262.326,136.416 262.326 C 137.088 262.326,137.718 262.456,137.817 262.615 C 137.915 262.774,139.112 263.001,140.477 263.121 C 141.842 263.240,143.034 263.458,143.126 263.607 C 143.217 263.755,143.834 263.876,144.496 263.876 C 145.158 263.876,145.786 264.016,145.891 264.186 C 145.997 264.357,146.625 264.496,147.287 264.496 C 147.949 264.496,148.561 264.610,148.647 264.750 C 148.734 264.890,149.540 265.038,150.439 265.079 C 151.338 265.120,152.218 265.273,152.394 265.419 C 152.570 265.565,154.218 265.785,156.055 265.908 C 157.893 266.032,159.471 266.252,159.561 266.399 C 159.652 266.546,160.614 266.667,161.698 266.667 C 162.994 266.667,163.717 266.799,163.808 267.054 C 164.349 268.570,164.507 264.637,164.587 247.649 C 164.683 227.352,164.645 226.357,163.780 226.357 C 163.487 226.357,162.500 226.084,161.588 225.750 C 160.675 225.416,159.316 225.052,158.569 224.940 C 157.821 224.828,157.209 224.612,157.209 224.461 C 157.209 224.310,156.938 224.186,156.607 224.186 C 156.276 224.186,155.919 224.047,155.814 223.876 C 155.709 223.705,155.350 223.566,155.016 223.566 C 154.683 223.566,154.168 223.439,153.872 223.283 C 153.576 223.128,152.636 222.768,151.783 222.484 C 150.930 222.200,149.884 221.820,149.457 221.640 C 149.031 221.460,148.403 221.206,148.062 221.075 C 147.721 220.945,146.932 220.615,146.310 220.342 C 145.687 220.068,144.885 219.845,144.527 219.845 C 144.169 219.845,143.876 219.739,143.876 219.611 C 143.876 219.482,143.422 219.180,142.868 218.940 C 142.314 218.701,141.137 218.178,140.252 217.779 C 139.368 217.381,138.438 217.054,138.185 217.054 C 137.933 217.054,137.680 216.944,137.623 216.810 C 137.495 216.508,134.179 214.884,133.690 214.884 C 133.494 214.884,133.333 214.744,133.333 214.574 C 133.333 214.403,133.124 214.264,132.868 214.264 C 132.612 214.264,132.403 214.124,132.403 213.953 C 132.403 213.783,132.124 213.643,131.783 213.643 C 131.442 213.643,131.163 213.504,131.163 213.333 C 131.163 213.163,130.975 213.023,130.745 213.023 C 130.333 213.023,124.231 209.640,123.501 209.007 C 123.295 208.828,123.045 208.682,122.946 208.682 C 122.846 208.682,122.596 208.538,122.390 208.362 C 121.780 207.840,118.398 205.891,118.102 205.891 C 117.952 205.891,117.829 205.756,117.829 205.589 C 117.829 205.423,117.376 205.055,116.822 204.771 C 116.267 204.487,115.744 204.169,115.659 204.063 C 115.371 203.709,113.221 202.171,113.013 202.171 C 112.900 202.171,112.416 201.752,111.938 201.240 C 111.460 200.729,110.949 200.310,110.803 200.310 C 110.656 200.310,110.188 199.996,109.762 199.612 C 109.336 199.229,108.430 198.449,107.750 197.880 C 105.556 196.045,101.620 192.437,100.484 191.219 C 99.877 190.568,98.368 188.993,97.132 187.720 C 95.895 186.448,94.884 185.292,94.884 185.152 C 94.884 185.012,94.465 184.460,93.953 183.925 C 93.442 183.389,93.023 182.870,93.023 182.771 C 93.023 182.672,92.849 182.397,92.636 182.159 C 91.737 181.157,91.473 180.786,91.473 180.526 C 91.473 180.375,91.194 179.999,90.853 179.690 C 90.512 179.381,90.233 179.001,90.233 178.846 C 90.233 178.521,88.643 176.331,88.295 176.176 C 88.167 176.119,88.062 175.805,88.062 175.478 C 88.062 175.151,87.957 174.882,87.829 174.881 C 87.702 174.879,87.321 174.251,86.985 173.485 C 86.648 172.720,86.264 172.093,86.132 172.093 C 86.000 172.093,85.891 171.931,85.891 171.732 C 85.891 171.533,85.403 170.342,84.806 169.084 C 84.209 167.827,83.721 166.664,83.721 166.500 C 83.721 166.336,83.581 166.202,83.411 166.202 C 83.240 166.202,83.101 165.783,83.101 165.271 C 83.101 164.760,82.979 164.341,82.830 164.341 C 82.682 164.341,82.470 163.777,82.359 163.087 C 82.249 162.398,82.039 161.595,81.893 161.304 C 81.444 160.413,80.930 158.597,80.930 157.903 C 80.930 157.542,80.791 157.160,80.620 157.054 C 80.450 156.949,80.310 156.341,80.310 155.703 C 80.310 155.065,80.136 154.368,79.922 154.155 C 79.631 153.863,79.535 151.610,79.535 145.049 C 79.535 138.350,79.625 136.301,79.922 136.202 C 80.163 136.121,80.310 135.488,80.310 134.530 C 80.310 133.580,80.429 133.060,80.620 133.178 C 80.807 133.294,80.930 132.871,80.930 132.111 C 80.930 131.419,81.070 130.853,81.240 130.853 C 81.411 130.853,81.550 130.442,81.550 129.941 C 81.550 129.439,81.672 128.954,81.820 128.862 C 81.968 128.771,82.180 128.129,82.291 127.435 C 82.402 126.742,82.617 125.936,82.770 125.645 C 82.923 125.354,83.255 124.628,83.507 124.031 C 83.759 123.434,84.240 122.318,84.574 121.550 C 84.909 120.783,85.377 119.702,85.613 119.147 C 85.849 118.593,86.117 118.140,86.208 118.140 C 86.298 118.140,86.648 117.513,86.985 116.747 C 87.321 115.981,87.702 115.353,87.829 115.352 C 87.957 115.350,88.062 115.101,88.062 114.797 C 88.062 114.494,88.341 114.044,88.682 113.798 C 89.023 113.553,89.302 113.190,89.302 112.993 C 89.302 112.795,89.512 112.460,89.767 112.248 C 90.023 112.036,90.233 111.634,90.233 111.354 C 90.233 111.075,90.512 110.673,90.853 110.460 C 91.194 110.247,91.473 109.924,91.473 109.743 C 91.473 109.561,91.647 109.219,91.860 108.981 C 92.684 108.062,93.023 107.617,93.023 107.452 C 93.023 107.358,93.442 106.843,93.953 106.308 C 94.465 105.772,94.884 105.228,94.884 105.099 C 94.884 104.969,96.209 103.494,97.829 101.820 C 99.450 100.146,100.775 98.599,100.775 98.381 C 100.775 98.163,100.950 97.984,101.163 97.984 C 101.377 97.984,102.786 96.798,104.296 95.349 C 105.805 93.899,107.155 92.713,107.294 92.713 C 107.434 92.713,108.176 92.085,108.943 91.318 C 109.711 90.550,110.468 89.922,110.627 89.922 C 110.786 89.922,111.354 89.504,111.889 88.992 C 112.425 88.481,112.943 88.062,113.041 88.062 C 113.299 88.062,115.416 86.459,116.005 85.817 C 116.281 85.517,116.739 85.271,117.023 85.271 C 117.307 85.271,117.619 85.062,117.717 84.806 C 117.815 84.550,118.129 84.341,118.414 84.341 C 118.700 84.341,119.134 84.062,119.380 83.721 C 119.626 83.380,119.994 83.101,120.198 83.101 C 120.402 83.101,120.615 82.996,120.672 82.868 C 120.729 82.740,121.333 82.359,122.016 82.020 C 122.698 81.681,123.481 81.158,123.757 80.857 C 124.033 80.556,124.430 80.310,124.640 80.310 C 125.172 80.310,126.877 79.332,127.478 78.682 C 127.754 78.384,128.208 78.140,128.486 78.140 C 128.764 78.140,128.992 78.016,128.992 77.864 C 128.992 77.712,129.481 77.497,130.078 77.385 C 130.674 77.273,131.163 77.048,131.163 76.885 C 131.163 76.722,131.442 76.589,131.783 76.589 C 132.124 76.589,132.403 76.450,132.403 76.279 C 132.403 76.109,132.612 75.969,132.868 75.969 C 133.124 75.969,133.333 75.829,133.333 75.659 C 133.333 75.488,133.586 75.349,133.894 75.349 C 134.203 75.349,134.726 75.144,135.057 74.894 C 135.388 74.643,135.903 74.434,136.202 74.428 C 136.500 74.423,136.744 74.305,136.744 74.166 C 136.744 74.028,137.233 73.723,137.829 73.488 C 138.426 73.254,138.915 72.966,138.915 72.849 C 138.915 72.732,139.323 72.554,139.822 72.454 C 140.919 72.235,143.680 70.980,143.824 70.635 C 143.881 70.499,144.265 70.388,144.677 70.388 C 145.089 70.388,145.426 70.260,145.426 70.105 C 145.426 69.949,145.984 69.728,146.665 69.613 C 147.346 69.498,147.982 69.276,148.079 69.120 C 148.175 68.965,148.524 68.837,148.856 68.837 C 149.187 68.837,149.457 68.698,149.457 68.527 C 149.457 68.357,149.806 68.217,150.233 68.217 C 150.659 68.217,151.008 68.095,151.008 67.947 C 151.008 67.798,151.572 67.586,152.262 67.476 C 152.951 67.365,153.788 67.138,154.122 66.971 C 154.456 66.804,155.006 66.527,155.345 66.357 C 155.683 66.186,156.242 66.047,156.585 66.047 C 156.928 66.047,157.209 65.907,157.209 65.736 C 157.209 65.566,157.558 65.426,157.984 65.426 C 158.411 65.426,158.760 65.301,158.760 65.149 C 158.760 64.996,159.283 64.805,159.922 64.725 C 161.678 64.503,164.341 63.760,164.341 63.493 C 164.341 63.362,164.690 63.256,165.116 63.256 C 165.543 63.256,165.891 63.133,165.891 62.982 C 165.891 62.831,166.797 62.611,167.904 62.492 C 169.010 62.374,169.995 62.148,170.093 61.991 C 170.190 61.834,170.671 61.705,171.163 61.705 C 171.654 61.705,172.143 61.566,172.248 61.395 C 172.353 61.225,172.912 61.085,173.488 61.085 C 174.065 61.085,174.623 60.946,174.729 60.775 C 174.834 60.605,175.400 60.465,175.987 60.465 C 176.574 60.465,177.054 60.335,177.054 60.176 C 177.054 60.018,178.174 59.790,179.542 59.671 C 180.910 59.551,182.104 59.332,182.196 59.184 C 182.287 59.036,182.912 58.915,183.584 58.915 C 184.256 58.915,184.806 58.775,184.806 58.605 C 184.806 58.434,185.496 58.295,186.338 58.295 C 187.181 58.295,187.957 58.155,188.062 57.984 C 188.167 57.814,188.865 57.674,189.612 57.674 C 190.360 57.674,191.049 57.549,191.144 57.395 C 191.239 57.241,192.924 57.015,194.888 56.892 C 196.852 56.770,198.535 56.547,198.628 56.397 C 198.720 56.247,199.835 56.124,201.104 56.124 C 202.373 56.124,203.411 55.994,203.411 55.835 C 203.411 55.676,204.702 55.474,206.279 55.385 C 207.857 55.296,211.798 55.068,215.039 54.878 C 222.287 54.454,254.415 54.676,254.991 55.155 C 255.201 55.329,256.800 55.496,258.545 55.526 C 260.289 55.556,261.792 55.703,261.884 55.852 C 261.977 56.002,263.082 56.124,264.341 56.124 C 265.600 56.124,266.707 56.248,266.800 56.399 C 266.894 56.551,268.786 56.776,271.005 56.899 C 273.223 57.022,275.039 57.247,275.039 57.399 C 275.039 57.550,275.876 57.674,276.899 57.674 C 277.933 57.674,278.760 57.812,278.760 57.984 C 278.760 58.155,279.449 58.295,280.292 58.295 C 281.134 58.295,281.910 58.434,282.016 58.605 C 282.121 58.775,282.827 58.915,283.584 58.915 C 284.342 58.915,284.961 59.027,284.961 59.165 C 284.961 59.303,286.182 59.584,287.674 59.789 C 292.157 60.406,292.713 60.518,292.713 60.808 C 292.713 60.960,293.271 61.085,293.953 61.085 C 294.636 61.085,295.194 61.225,295.194 61.395 C 295.194 61.566,295.674 61.705,296.261 61.705 C 296.848 61.705,297.410 61.839,297.511 62.001 C 297.611 62.164,298.526 62.391,299.544 62.506 C 300.562 62.622,301.395 62.837,301.395 62.986 C 301.395 63.134,301.814 63.256,302.326 63.256 C 302.837 63.256,303.256 63.395,303.256 63.566 C 303.256 63.736,303.744 63.876,304.341 63.876 C 304.938 63.876,305.426 64.002,305.426 64.157 C 305.426 64.311,306.124 64.534,306.976 64.651 C 307.829 64.768,308.605 64.991,308.700 65.145 C 308.796 65.300,309.214 65.426,309.631 65.426 C 310.047 65.426,310.388 65.566,310.388 65.736 C 310.388 65.907,310.669 66.047,311.012 66.047 C 311.355 66.047,311.913 66.186,312.252 66.357 C 312.591 66.527,313.130 66.797,313.450 66.956 C 313.770 67.114,314.538 67.339,315.156 67.455 C 315.774 67.571,316.279 67.790,316.279 67.941 C 316.279 68.093,316.628 68.217,317.054 68.217 C 317.481 68.217,317.829 68.357,317.829 68.527 C 317.829 68.698,318.023 68.837,318.259 68.837 C 318.495 68.837,319.088 69.046,319.577 69.300 C 320.065 69.555,320.779 69.764,321.163 69.766 C 321.547 69.767,321.860 69.907,321.860 70.078 C 321.860 70.248,322.140 70.388,322.481 70.388 C 322.822 70.388,323.101 70.527,323.101 70.698 C 323.101 70.868,323.380 71.008,323.721 71.008 C 324.062 71.008,324.341 71.113,324.341 71.242 C 324.341 71.371,324.795 71.667,325.349 71.900 C 327.053 72.617,329.759 73.915,329.922 74.094 C 330.281 74.486,332.072 75.349,332.528 75.349 C 332.801 75.349,333.023 75.488,333.023 75.659 C 333.023 75.829,333.169 75.969,333.346 75.969 C 333.524 75.969,333.956 76.236,334.307 76.563 C 334.658 76.890,335.292 77.245,335.716 77.351 C 336.140 77.457,336.780 77.818,337.139 78.152 C 337.498 78.486,337.974 78.760,338.198 78.760 C 338.422 78.760,338.605 78.899,338.605 79.070 C 338.605 79.240,338.754 79.380,338.937 79.380 C 339.120 79.380,339.464 79.554,339.701 79.767 C 340.727 80.688,341.078 80.930,341.382 80.930 C 341.560 80.930,341.705 81.060,341.705 81.219 C 341.705 81.378,341.960 81.589,342.271 81.688 C 342.582 81.787,343.141 82.151,343.513 82.498 C 343.885 82.845,345.131 83.839,346.281 84.707 C 348.840 86.638,348.964 86.751,353.917 91.682 C 356.114 93.869,358.244 96.182,358.650 96.822 C 359.056 97.461,359.525 97.984,359.694 97.984 C 359.862 97.984,360.000 98.124,360.000 98.294 C 360.000 98.590,362.091 101.693,362.508 102.016 C 362.885 102.307,364.961 105.706,364.961 106.032 C 364.961 106.210,365.066 106.357,365.194 106.358 C 365.322 106.358,365.695 107.021,366.024 107.831 C 366.352 108.640,366.708 109.372,366.813 109.457 C 367.177 109.750,368.682 113.085,368.682 113.597 C 368.682 113.878,368.822 114.109,368.992 114.109 C 369.163 114.109,369.302 114.379,369.302 114.710 C 369.302 115.041,369.442 115.398,369.612 115.504 C 369.783 115.609,369.922 115.966,369.922 116.297 C 369.922 116.628,370.030 116.899,370.162 116.899 C 370.407 116.899,371.060 119.040,371.369 120.853 C 371.463 121.407,371.665 121.860,371.817 121.860 C 371.969 121.860,372.093 122.271,372.093 122.772 C 372.093 123.274,372.233 123.771,372.403 123.876 C 372.574 123.981,372.713 124.548,372.713 125.135 C 372.713 125.721,372.828 126.202,372.969 126.202 C 373.255 126.202,373.906 130.682,374.150 134.341 C 374.239 135.663,374.444 136.744,374.607 136.744 C 375.268 136.744,374.603 156.058,373.838 159.070 C 373.730 159.496,373.552 160.787,373.443 161.938 C 373.334 163.089,373.125 164.031,372.979 164.031 C 372.833 164.031,372.713 164.519,372.713 165.116 C 372.713 165.713,372.589 166.202,372.438 166.202 C 372.287 166.202,372.089 166.585,371.999 167.054 C 371.853 167.808,371.545 168.991,370.967 171.008 C 370.870 171.349,370.719 172.012,370.631 172.481 C 370.544 172.950,370.349 173.333,370.197 173.333 C 370.046 173.333,369.922 173.612,369.922 173.953 C 369.922 174.295,369.783 174.574,369.612 174.574 C 369.442 174.574,369.302 174.914,369.302 175.331 C 369.302 175.747,369.174 176.167,369.016 176.264 C 368.859 176.362,368.638 176.858,368.526 177.368 C 368.414 177.878,368.194 178.295,368.037 178.295 C 367.880 178.295,367.752 178.500,367.752 178.750 C 367.752 179.197,366.856 180.950,366.009 182.162 C 365.774 182.498,365.581 183.022,365.581 183.325 C 365.581 183.628,365.465 183.876,365.324 183.876 C 365.182 183.876,364.530 184.853,363.876 186.047 C 363.222 187.240,362.570 188.217,362.428 188.217 C 362.287 188.217,362.171 188.393,362.171 188.608 C 362.171 188.823,361.857 189.346,361.473 189.771 C 361.089 190.195,360.287 191.213,359.690 192.033 C 356.915 195.843,347.480 205.271,346.442 205.271 C 346.204 205.271,346.083 205.390,346.173 205.535 C 346.262 205.680,345.956 205.993,345.493 206.230 C 345.030 206.468,344.442 206.883,344.186 207.152 C 343.930 207.421,343.267 207.905,342.713 208.228 C 342.159 208.552,341.705 208.925,341.705 209.059 C 341.705 209.193,341.569 209.302,341.401 209.302 C 341.234 209.302,340.088 210.000,338.854 210.853 C 337.620 211.705,336.431 212.403,336.212 212.403 C 335.993 212.403,335.814 212.526,335.814 212.676 C 335.814 212.825,335.395 213.121,334.884 213.333 C 334.372 213.545,333.953 213.841,333.953 213.991 C 333.953 214.141,333.744 214.264,333.488 214.264 C 333.233 214.264,333.023 214.386,333.023 214.535 C 333.023 214.684,332.602 214.890,332.087 214.993 C 331.572 215.096,330.848 215.463,330.478 215.807 C 330.108 216.152,329.545 216.434,329.226 216.434 C 328.907 216.434,328.726 216.564,328.824 216.722 C 328.921 216.880,328.696 217.055,328.323 217.110 C 327.115 217.287,327.378 217.878,329.367 219.447 C 331.451 221.091,334.574 224.138,334.574 224.527 C 334.574 224.656,334.757 224.946,334.981 225.172 C 335.205 225.397,335.992 226.628,336.730 227.907 C 338.843 231.571,338.735 231.505,340.511 230.229 C 341.339 229.634,342.155 229.147,342.324 229.147 C 342.492 229.147,342.805 228.868,343.018 228.527 C 343.231 228.186,343.547 227.907,343.721 227.907 C 343.895 227.907,344.414 227.558,344.873 227.132 C 345.333 226.705,345.874 226.357,346.074 226.357 C 346.275 226.357,346.665 226.108,346.940 225.803 C 347.216 225.499,348.209 224.697,349.147 224.021 C 350.838 222.802,351.959 221.909,352.732 221.163 C 352.953 220.950,353.232 220.775,353.352 220.775 C 353.472 220.775,353.831 220.475,354.150 220.108 C 354.468 219.740,354.729 219.531,354.729 219.642 C 354.729 219.754,354.981 219.601,355.290 219.302 C 355.598 219.004,356.870 217.853,358.116 216.744 C 359.363 215.636,360.575 214.544,360.811 214.319 C 361.047 214.094,361.240 213.975,361.240 214.055 C 361.240 214.136,363.303 212.157,365.824 209.659 C 368.345 207.160,370.379 205.069,370.343 205.010 C 370.308 204.952,370.607 204.533,371.009 204.080 C 372.350 202.566,373.070 201.714,373.903 200.656 C 374.357 200.078,375.112 199.217,375.581 198.741 C 376.050 198.266,376.434 197.747,376.434 197.588 C 376.434 197.429,376.834 196.965,377.322 196.557 C 377.811 196.148,378.309 195.500,378.429 195.116 C 378.548 194.733,378.777 194.419,378.936 194.419 C 379.095 194.419,379.225 194.279,379.225 194.109 C 379.225 193.938,379.469 193.529,379.767 193.201 C 380.824 192.037,381.046 191.692,380.860 191.506 C 380.756 191.402,380.835 191.318,381.034 191.318 C 381.233 191.318,381.395 191.172,381.395 190.995 C 381.395 190.652,381.538 190.449,382.782 189.024 C 383.213 188.531,383.566 187.868,383.566 187.552 C 383.566 187.235,383.705 186.977,383.876 186.977 C 384.047 186.977,384.186 186.794,384.186 186.570 C 384.186 186.346,384.465 185.864,384.806 185.498 C 385.147 185.132,385.426 184.687,385.426 184.509 C 385.426 184.331,385.566 184.186,385.736 184.186 C 385.907 184.186,386.031 184.081,386.013 183.953 C 385.935 183.415,386.450 182.347,386.710 182.507 C 386.865 182.603,386.972 182.567,386.948 182.426 C 386.851 181.871,387.000 181.487,387.537 180.911 C 387.845 180.581,388.121 180.205,388.151 180.076 C 388.473 178.697,388.636 178.295,388.871 178.295 C 389.023 178.295,389.147 178.016,389.147 177.674 C 389.147 177.333,389.287 177.054,389.457 177.054 C 389.628 177.054,389.767 176.767,389.767 176.416 C 389.767 176.065,389.907 175.864,390.078 175.969 C 390.248 176.074,390.388 175.897,390.388 175.574 C 390.388 175.251,390.492 174.882,390.620 174.755 C 390.748 174.627,390.868 174.429,390.887 174.315 C 391.083 173.130,391.447 172.093,391.667 172.093 C 391.816 172.093,391.942 171.849,391.948 171.550 C 391.953 171.252,392.158 170.743,392.403 170.419 C 392.648 170.096,392.775 169.712,392.685 169.567 C 392.595 169.421,392.650 169.302,392.807 169.302 C 392.965 169.302,393.330 168.500,393.619 167.519 C 393.908 166.539,394.276 165.494,394.437 165.198 C 394.597 164.902,394.729 164.387,394.729 164.054 C 394.729 163.720,394.868 163.361,395.039 163.256 C 395.209 163.150,395.349 162.724,395.349 162.307 C 395.349 161.891,395.465 161.550,395.607 161.550 C 395.749 161.550,395.878 161.376,395.894 161.163 C 396.018 159.469,396.413 157.519,396.632 157.519 C 396.779 157.519,396.899 156.969,396.899 156.297 C 396.899 155.625,397.039 154.989,397.209 154.884 C 397.380 154.778,397.519 154.310,397.519 153.842 C 397.519 153.375,397.646 152.860,397.801 152.698 C 397.956 152.536,398.162 151.636,398.260 150.698 C 398.358 149.760,398.545 148.085,398.676 146.977 C 399.155 142.931,398.930 121.382,398.406 121.058 C 398.259 120.968,398.140 120.204,398.140 119.362 C 398.140 118.519,398.000 117.829,397.829 117.829 C 397.659 117.829,397.519 117.271,397.519 116.589 C 397.519 115.907,397.380 115.349,397.209 115.349 C 397.039 115.349,396.899 114.799,396.899 114.127 C 396.899 113.455,396.773 112.827,396.620 112.732 C 396.466 112.637,396.243 111.722,396.124 110.698 C 396.005 109.675,395.782 108.837,395.628 108.837 C 395.475 108.837,395.349 108.419,395.349 107.907 C 395.349 107.395,395.209 106.977,395.039 106.977 C 394.868 106.977,394.729 106.644,394.729 106.237 C 394.729 105.830,394.520 105.098,394.265 104.609 C 394.011 104.121,393.801 103.475,393.800 103.174 C 393.799 102.873,393.659 102.350,393.488 102.011 C 393.318 101.673,393.039 101.118,392.868 100.779 C 392.698 100.441,392.558 99.952,392.558 99.694 C 392.558 99.436,392.453 99.225,392.324 99.225 C 392.053 99.225,391.446 97.905,391.146 96.664 C 391.032 96.193,390.815 95.731,390.663 95.638 C 390.512 95.544,390.388 95.196,390.388 94.865 C 390.388 94.534,390.274 94.264,390.135 94.264 C 389.997 94.264,389.692 93.775,389.457 93.178 C 389.223 92.581,388.918 92.093,388.779 92.093 C 388.641 92.093,388.527 91.841,388.527 91.532 C 388.527 91.224,388.322 90.700,388.072 90.369 C 387.821 90.038,387.612 89.523,387.607 89.225 C 387.601 88.926,387.457 88.682,387.287 88.682 C 387.116 88.682,386.977 88.473,386.977 88.217 C 386.977 87.961,386.851 87.752,386.697 87.752 C 386.543 87.752,386.268 87.368,386.086 86.899 C 385.686 85.870,384.205 83.317,383.881 83.101 C 383.754 83.016,383.551 82.632,383.432 82.248 C 383.312 81.864,383.084 81.550,382.925 81.550 C 382.766 81.550,382.636 81.342,382.636 81.088 C 382.636 80.834,382.357 80.451,382.016 80.238 C 381.674 80.025,381.395 79.630,381.395 79.359 C 381.395 79.089,381.047 78.540,380.620 78.140 C 380.194 77.739,379.845 77.226,379.845 77.000 C 379.845 76.774,379.736 76.589,379.602 76.589 C 379.468 76.589,379.094 76.141,378.770 75.593 C 378.261 74.732,377.570 73.857,376.275 72.437 C 376.102 72.248,375.199 71.116,374.268 69.922 C 373.337 68.729,372.327 67.526,372.024 67.250 C 371.721 66.975,371.473 66.583,371.473 66.379 C 371.473 66.176,371.333 66.096,371.163 66.202 C 370.992 66.307,370.853 66.238,370.853 66.048 C 370.853 65.459,359.105 53.953,358.504 53.953 C 358.327 53.953,358.093 53.674,357.984 53.333 C 357.876 52.992,357.664 52.713,357.513 52.713 C 357.361 52.713,356.889 52.364,356.462 51.938 C 356.036 51.512,355.605 51.163,355.504 51.163 C 355.403 51.163,354.980 50.849,354.563 50.465 C 352.568 48.628,352.248 48.372,351.949 48.372 C 351.772 48.372,351.627 48.267,351.626 48.140 C 351.625 48.012,351.119 47.563,350.503 47.144 C 349.887 46.724,348.966 45.991,348.457 45.516 C 347.948 45.040,347.348 44.651,347.125 44.651 C 346.901 44.651,346.672 44.547,346.615 44.419 C 346.456 44.060,343.948 42.171,343.632 42.171 C 343.477 42.171,343.062 41.926,342.709 41.628 C 341.090 40.258,340.758 40.000,340.617 40.000 C 340.534 40.000,339.787 39.512,338.956 38.915 C 338.125 38.318,337.288 37.829,337.095 37.829 C 336.902 37.829,336.744 37.699,336.744 37.540 C 336.744 37.381,336.430 37.153,336.047 37.033 C 335.663 36.914,335.279 36.711,335.194 36.584 C 334.978 36.260,332.425 34.779,331.395 34.379 C 330.926 34.197,330.543 33.948,330.543 33.826 C 330.543 33.704,330.054 33.412,329.457 33.178 C 328.860 32.944,328.371 32.674,328.369 32.578 C 328.368 32.482,327.740 32.128,326.974 31.791 C 326.208 31.454,325.581 31.071,325.581 30.938 C 325.581 30.806,325.372 30.698,325.116 30.698 C 324.860 30.698,324.651 30.558,324.651 30.388 C 324.651 30.217,324.372 30.078,324.031 30.078 C 323.690 30.078,323.411 29.944,323.411 29.781 C 323.411 29.619,322.922 29.394,322.326 29.282 C 321.729 29.170,321.240 28.954,321.240 28.803 C 321.240 28.651,321.031 28.527,320.775 28.527 C 320.519 28.527,320.310 28.416,320.310 28.281 C 320.310 28.003,317.496 26.779,317.133 26.899 C 317.005 26.942,316.899 26.837,316.899 26.667 C 316.899 26.496,316.632 26.357,316.305 26.357 C 315.978 26.357,315.664 26.247,315.607 26.113 C 315.479 25.810,312.164 24.186,311.675 24.186 C 311.478 24.186,311.318 24.047,311.318 23.876 C 311.318 23.705,311.047 23.566,310.716 23.566 C 310.385 23.566,310.028 23.426,309.922 23.256 C 309.817 23.085,309.460 22.946,309.129 22.946 C 308.798 22.946,308.527 22.806,308.527 22.636 C 308.527 22.465,308.334 22.326,308.097 22.326 C 307.861 22.326,307.268 22.117,306.780 21.862 C 306.291 21.608,305.647 21.398,305.349 21.397 C 305.050 21.396,304.806 21.256,304.806 21.085 C 304.806 20.915,304.595 20.775,304.337 20.775 C 303.890 20.775,303.612 20.668,302.160 19.933 C 301.814 19.757,301.046 19.509,300.455 19.380 C 299.864 19.252,299.302 19.026,299.207 18.877 C 299.113 18.729,298.659 18.577,298.200 18.539 C 297.740 18.501,297.364 18.360,297.364 18.227 C 297.364 18.094,297.218 17.984,297.039 17.984 C 296.861 17.984,296.162 17.717,295.486 17.391 C 294.811 17.065,293.702 16.704,293.022 16.589 C 292.342 16.474,291.707 16.253,291.611 16.097 C 291.515 15.941,291.096 15.814,290.679 15.814 C 290.263 15.814,289.922 15.674,289.922 15.504 C 289.922 15.333,289.597 15.194,289.199 15.194 C 288.801 15.194,288.373 15.092,288.248 14.967 C 287.898 14.617,285.502 13.966,285.215 14.143 C 285.076 14.229,284.961 14.152,284.961 13.972 C 284.961 13.791,284.543 13.643,284.031 13.643 C 283.519 13.643,283.101 13.504,283.101 13.333 C 283.101 13.163,282.820 13.023,282.476 13.023 C 282.133 13.023,281.610 12.901,281.314 12.751 C 280.313 12.246,278.503 11.760,276.922 11.573 C 276.057 11.470,275.349 11.266,275.349 11.120 C 275.349 10.973,275.115 10.853,274.828 10.853 C 274.327 10.853,272.764 10.410,271.473 9.903 C 270.616 9.566,269.374 9.303,266.744 8.902 C 265.508 8.714,264.496 8.447,264.496 8.311 C 264.496 8.174,263.938 8.062,263.256 8.062 C 262.574 8.062,262.016 7.922,262.016 7.752 C 262.016 7.581,261.466 7.442,260.793 7.442 C 260.121 7.442,259.494 7.317,259.400 7.164 C 259.306 7.012,258.110 6.788,256.744 6.667 C 255.378 6.546,254.183 6.322,254.088 6.169 C 253.994 6.016,253.227 5.891,252.385 5.891 C 251.542 5.891,250.853 5.752,250.853 5.581 C 250.853 5.411,250.163 5.271,249.321 5.271 C 248.478 5.271,247.702 5.132,247.597 4.961 C 247.491 4.791,246.795 4.651,246.048 4.651 C 245.302 4.651,244.325 4.512,243.877 4.341 C 243.428 4.171,241.466 3.940,239.515 3.829 C 237.565 3.718,235.969 3.508,235.969 3.364 C 235.969 3.219,234.950 3.101,233.705 3.101 C 232.460 3.101,231.309 2.971,231.147 2.813 C 230.985 2.654,229.597 2.444,228.062 2.346 C 226.527 2.248,223.527 2.026,221.395 1.851 C 216.459 1.448,184.130 1.205,182.481 1.559 M261.270 234.370 C 261.181 234.515,259.115 234.735,256.678 234.861 C 254.242 234.987,251.411 235.136,250.388 235.192 C 249.364 235.248,245.015 235.394,240.723 235.516 C 233.124 235.733,232.915 235.756,232.743 236.396 C 232.497 237.312,232.512 265.119,232.759 266.353 C 232.959 267.352,232.967 267.356,234.387 267.141 C 237.317 266.698,239.934 266.369,242.946 266.064 C 244.651 265.891,246.465 265.613,246.977 265.446 C 247.488 265.279,248.509 265.108,249.245 265.067 C 249.980 265.026,250.651 264.881,250.736 264.744 C 250.820 264.608,251.509 264.496,252.266 264.496 C 253.024 264.496,253.643 264.357,253.643 264.186 C 253.643 264.016,254.193 263.876,254.865 263.876 C 255.538 263.876,256.174 263.736,256.279 263.566 C 256.384 263.395,256.991 263.256,257.628 263.256 C 258.264 263.256,259.588 263.047,260.570 262.791 C 261.552 262.535,262.768 262.326,263.271 262.326 C 263.774 262.326,264.186 262.186,264.186 262.016 C 264.186 261.845,264.666 261.705,265.253 261.705 C 265.840 261.705,266.406 261.566,266.512 261.395 C 266.617 261.225,267.160 261.085,267.719 261.085 C 268.277 261.085,268.838 260.981,268.965 260.853 C 269.182 260.635,271.523 260.095,274.186 259.648 C 274.826 259.541,275.349 259.332,275.349 259.184 C 275.349 259.036,275.759 258.915,276.261 258.915 C 276.762 258.915,277.259 258.775,277.364 258.605 C 277.470 258.434,277.907 258.295,278.335 258.295 C 280.555 258.295,280.413 257.854,274.889 247.597 C 274.338 246.574,273.291 244.620,272.564 243.256 C 271.836 241.891,270.979 240.405,270.659 239.952 C 270.339 239.499,270.078 239.046,270.078 238.945 C 270.078 238.844,269.589 238.081,268.992 237.251 C 268.395 236.420,267.907 235.633,267.907 235.503 C 267.907 234.384,261.896 233.358,261.270 234.370 " stroke="none" fill="#b2b4b8" fill-rule="evenodd"></path><path id="path1" d="M164.395 196.434 L 164.467 309.147 198.719 309.147 L 232.971 309.147 232.764 276.732 C 232.651 258.904,232.650 239.160,232.763 232.856 L 232.969 221.395 241.656 221.395 C 246.434 221.395,250.772 221.531,251.296 221.697 C 251.820 221.863,252.890 222.078,253.676 222.174 C 254.461 222.271,255.397 222.624,255.756 222.958 C 256.115 223.292,256.529 223.566,256.677 223.566 C 256.825 223.566,257.274 223.915,257.674 224.341 C 258.075 224.767,258.553 225.118,258.736 225.120 C 258.920 225.123,259.767 225.898,260.620 226.843 C 261.473 227.789,262.694 229.141,263.333 229.848 C 263.973 230.554,264.496 231.253,264.496 231.401 C 264.496 231.711,266.047 233.846,266.510 234.174 C 267.698 235.015,267.907 235.207,267.907 235.458 C 267.907 235.613,268.395 236.420,268.992 237.251 C 269.589 238.081,270.078 238.844,270.078 238.945 C 270.078 239.046,270.339 239.499,270.659 239.952 C 270.979 240.405,271.836 241.891,272.564 243.256 C 273.291 244.620,274.338 246.574,274.889 247.597 C 278.925 255.091,280.053 257.450,279.701 257.667 C 279.429 257.836,279.461 257.949,279.819 258.087 C 280.089 258.190,280.310 258.559,280.310 258.905 C 280.310 259.251,280.450 259.535,280.620 259.535 C 280.791 259.535,280.930 259.744,280.930 260.000 C 280.930 260.256,281.070 260.465,281.240 260.465 C 281.411 260.465,281.550 260.733,281.550 261.059 C 281.550 261.386,281.655 261.700,281.783 261.757 C 281.911 261.814,282.434 262.730,282.946 263.793 C 283.457 264.856,283.981 265.729,284.109 265.731 C 284.236 265.734,284.341 265.946,284.341 266.202 C 284.341 266.457,284.465 266.667,284.617 266.667 C 284.768 266.667,284.984 267.155,285.096 267.752 C 285.208 268.349,285.433 268.837,285.595 268.837 C 285.758 268.837,285.891 269.116,285.891 269.457 C 285.891 269.798,286.031 270.078,286.202 270.078 C 286.372 270.078,286.512 270.287,286.512 270.543 C 286.512 270.798,286.651 271.008,286.822 271.008 C 286.992 271.008,287.132 271.220,287.132 271.479 C 287.132 271.738,287.481 272.503,287.907 273.178 C 288.333 273.854,288.682 274.549,288.682 274.723 C 288.682 274.896,288.822 275.039,288.992 275.039 C 289.163 275.039,289.302 275.248,289.302 275.504 C 289.302 275.760,289.442 275.969,289.612 275.969 C 289.783 275.969,289.922 276.192,289.922 276.465 C 289.922 276.954,290.815 279.079,291.147 279.380 C 291.317 279.534,292.833 282.319,293.466 283.641 C 293.649 284.023,293.903 284.337,294.031 284.339 C 294.159 284.340,294.264 284.620,294.264 284.961 C 294.264 285.302,294.403 285.581,294.574 285.581 C 294.744 285.581,294.884 285.720,294.884 285.889 C 294.884 286.419,295.948 288.682,296.197 288.682 C 296.327 288.682,296.434 288.824,296.434 288.998 C 296.434 289.172,296.783 289.867,297.209 290.543 C 297.636 291.218,297.984 291.983,297.984 292.242 C 297.984 292.501,298.124 292.713,298.295 292.713 C 298.465 292.713,298.605 292.922,298.605 293.178 C 298.605 293.434,298.744 293.643,298.915 293.643 C 299.085 293.643,299.225 293.922,299.225 294.264 C 299.225 294.605,299.334 294.884,299.467 294.884 C 299.600 294.884,299.979 295.581,300.310 296.434 C 300.641 297.287,301.021 297.984,301.154 297.984 C 301.287 297.984,301.395 298.167,301.395 298.391 C 301.395 298.615,301.658 299.080,301.980 299.425 C 302.301 299.770,302.661 300.494,302.779 301.034 C 302.898 301.574,303.123 302.016,303.280 302.016 C 303.437 302.016,303.566 302.295,303.566 302.636 C 303.566 302.977,303.705 303.256,303.876 303.256 C 304.047 303.256,304.186 303.465,304.186 303.721 C 304.186 303.977,304.326 304.186,304.496 304.186 C 304.667 304.186,304.806 304.382,304.806 304.621 C 304.806 305.140,306.764 308.668,307.410 309.315 C 307.965 309.870,343.876 310.011,343.876 309.457 C 343.876 309.254,350.904 309.147,364.341 309.147 L 384.806 309.147 384.806 308.372 C 384.806 307.946,384.667 307.597,384.496 307.597 C 384.326 307.597,384.186 307.447,384.186 307.265 C 384.186 307.082,383.977 306.723,383.721 306.467 C 383.465 306.212,383.256 305.733,383.256 305.404 C 383.256 305.075,383.116 304.806,382.946 304.806 C 382.775 304.806,382.636 304.628,382.636 304.410 C 382.636 304.191,382.357 303.812,382.016 303.566 C 381.674 303.320,381.395 302.903,381.395 302.639 C 381.395 302.375,381.047 301.646,380.620 301.019 C 380.194 300.391,379.845 299.731,379.845 299.551 C 379.845 299.372,379.705 299.225,379.535 299.225 C 379.364 299.225,379.225 299.016,379.225 298.760 C 379.225 298.504,379.120 298.293,378.992 298.292 C 378.864 298.290,378.484 297.662,378.148 296.896 C 377.811 296.130,377.427 295.504,377.295 295.504 C 377.163 295.504,377.054 295.321,377.054 295.097 C 377.054 294.874,376.810 294.416,376.512 294.081 C 376.213 293.746,375.703 292.952,375.378 292.317 C 375.052 291.682,374.669 291.163,374.525 291.163 C 374.381 291.163,374.264 290.884,374.264 290.543 C 374.264 290.202,374.139 289.922,373.987 289.922 C 373.835 289.922,373.623 289.574,373.516 289.147 C 373.409 288.721,373.185 288.372,373.017 288.372 C 372.850 288.372,372.713 288.093,372.713 287.752 C 372.713 287.411,372.574 287.132,372.403 287.132 C 372.233 287.132,372.093 286.986,372.093 286.809 C 372.093 286.631,371.826 286.199,371.499 285.848 C 371.172 285.497,370.817 284.863,370.711 284.439 C 370.605 284.015,370.244 283.375,369.910 283.016 C 369.576 282.657,369.302 282.181,369.302 281.957 C 369.302 281.733,369.198 281.549,369.070 281.547 C 368.942 281.546,368.562 280.918,368.225 280.152 C 367.888 279.386,367.505 278.760,367.372 278.760 C 367.240 278.760,367.132 278.550,367.132 278.295 C 367.132 278.039,367.024 277.829,366.891 277.829 C 366.759 277.829,366.375 277.203,366.038 276.437 C 365.702 275.671,365.322 275.043,365.194 275.042 C 365.066 275.040,364.961 274.847,364.961 274.612 C 364.961 274.377,364.759 274.017,364.512 273.811 C 364.264 273.606,363.764 272.822,363.399 272.068 C 363.034 271.314,362.608 270.698,362.453 270.698 C 362.298 270.698,362.171 270.419,362.171 270.078 C 362.171 269.736,362.031 269.457,361.860 269.457 C 361.690 269.457,361.550 269.248,361.550 268.992 C 361.550 268.736,361.446 268.526,361.318 268.524 C 361.190 268.523,360.810 267.895,360.473 267.129 C 360.136 266.363,359.753 265.736,359.620 265.736 C 359.488 265.736,359.380 265.553,359.380 265.330 C 359.380 265.106,359.134 264.653,358.833 264.322 C 358.532 263.991,358.023 263.128,357.701 262.403 C 357.379 261.678,356.997 261.085,356.852 261.085 C 356.707 261.085,356.589 260.876,356.589 260.620 C 356.589 260.364,356.450 260.155,356.279 260.155 C 356.109 260.155,355.969 259.893,355.969 259.573 C 355.969 259.253,355.760 258.817,355.504 258.605 C 355.248 258.392,355.039 258.026,355.039 257.791 C 355.039 257.557,354.899 257.364,354.729 257.364 C 354.558 257.364,354.419 257.181,354.419 256.958 C 354.419 256.734,354.145 256.258,353.811 255.899 C 353.477 255.540,353.115 254.896,353.008 254.468 C 352.900 254.040,352.546 253.448,352.220 253.153 C 351.894 252.858,351.628 252.429,351.628 252.200 C 351.628 251.971,351.523 251.782,351.395 251.780 C 351.267 251.778,350.887 251.150,350.551 250.385 C 350.214 249.619,349.830 248.992,349.698 248.992 C 349.566 248.992,349.457 248.783,349.457 248.527 C 349.457 248.271,349.349 248.062,349.217 248.062 C 349.084 248.062,348.701 247.435,348.364 246.670 C 348.027 245.904,347.647 245.276,347.519 245.274 C 347.391 245.273,347.287 245.088,347.287 244.865 C 347.287 244.641,347.008 244.158,346.667 243.792 C 346.326 243.426,346.047 242.981,346.047 242.804 C 346.047 242.626,345.907 242.481,345.736 242.481 C 345.566 242.481,345.426 242.212,345.426 241.883 C 345.426 241.554,345.217 241.075,344.961 240.819 C 344.705 240.564,344.496 240.205,344.496 240.022 C 344.496 239.839,344.357 239.690,344.186 239.690 C 344.016 239.690,343.876 239.411,343.876 239.070 C 343.876 238.729,343.739 238.450,343.572 238.450 C 343.405 238.450,343.180 238.101,343.073 237.674 C 342.966 237.248,342.788 236.899,342.678 236.899 C 342.567 236.899,342.303 236.507,342.091 236.027 C 341.879 235.548,341.426 234.856,341.085 234.490 C 340.744 234.124,340.465 233.709,340.465 233.567 C 340.465 233.425,340.186 232.762,339.845 232.093 C 339.504 231.424,339.225 230.993,339.225 231.135 C 339.225 231.752,338.208 230.453,336.859 228.115 C 336.059 226.728,335.217 225.406,334.989 225.177 C 334.761 224.949,334.574 224.656,334.574 224.527 C 334.574 224.137,331.450 221.091,329.363 219.444 C 328.287 218.595,327.470 217.739,327.546 217.541 C 327.622 217.343,327.419 217.161,327.095 217.137 C 326.771 217.112,326.273 216.860,325.988 216.575 C 325.516 216.103,323.238 214.954,320.698 213.907 C 320.143 213.679,319.690 213.416,319.690 213.323 C 319.690 213.231,318.783 212.881,317.674 212.546 C 316.566 212.212,315.659 211.833,315.659 211.705 C 315.659 211.578,315.310 211.473,314.884 211.473 C 314.457 211.473,314.109 211.333,314.109 211.163 C 314.109 210.992,313.783 210.853,313.385 210.853 C 312.987 210.853,312.569 210.760,312.456 210.647 C 312.092 210.283,309.041 209.302,308.273 209.302 C 307.723 209.302,307.579 209.175,307.719 208.812 C 307.822 208.542,307.907 208.263,307.907 208.192 C 307.907 208.120,308.596 208.062,309.439 208.062 C 310.282 208.062,311.047 207.939,311.140 207.789 C 311.233 207.638,312.217 207.418,313.326 207.299 C 314.435 207.180,315.422 206.955,315.519 206.797 C 315.616 206.640,316.098 206.512,316.589 206.512 C 317.081 206.512,317.569 206.372,317.674 206.202 C 317.780 206.031,318.276 205.891,318.778 205.891 C 319.280 205.891,319.690 205.752,319.690 205.581 C 319.690 205.411,320.039 205.271,320.465 205.271 C 320.891 205.271,321.240 205.148,321.240 204.996 C 321.240 204.845,321.868 204.627,322.636 204.512 C 323.403 204.397,324.031 204.172,324.031 204.012 C 324.031 203.852,324.380 203.721,324.806 203.721 C 325.233 203.721,325.581 203.581,325.581 203.411 C 325.581 203.240,325.860 203.101,326.202 203.101 C 326.543 203.101,326.822 202.961,326.822 202.791 C 326.822 202.620,327.066 202.480,327.364 202.480 C 327.862 202.479,328.642 202.109,333.643 199.497 C 334.581 199.007,335.575 198.361,335.850 198.063 C 336.126 197.764,336.580 197.519,336.858 197.519 C 337.137 197.519,337.364 197.389,337.364 197.230 C 337.364 197.071,337.678 196.842,338.062 196.721 C 338.446 196.600,338.985 196.241,339.261 195.925 C 339.537 195.608,339.861 195.349,339.981 195.349 C 340.101 195.349,340.383 195.174,340.608 194.961 C 340.833 194.748,341.402 194.295,341.874 193.953 C 342.709 193.350,344.335 191.956,344.961 191.309 C 345.132 191.132,345.587 190.678,345.974 190.300 C 346.360 189.922,346.988 189.293,347.369 188.902 C 347.750 188.512,348.725 187.545,349.535 186.754 C 350.345 185.963,351.008 185.071,351.008 184.772 C 351.008 184.473,351.264 184.146,351.578 184.047 C 351.892 183.947,352.343 183.484,352.580 183.018 C 352.974 182.243,354.347 180.216,354.730 179.845 C 354.818 179.760,355.167 179.132,355.507 178.450 C 355.846 177.767,356.229 177.163,356.357 177.106 C 356.484 177.049,356.589 176.805,356.589 176.563 C 356.589 176.322,356.729 176.124,356.899 176.124 C 357.070 176.124,357.209 175.845,357.209 175.504 C 357.209 175.163,357.349 174.884,357.519 174.884 C 357.690 174.884,357.830 174.640,357.831 174.341 C 357.832 174.043,358.042 173.399,358.296 172.910 C 358.551 172.422,358.760 171.829,358.760 171.592 C 358.760 171.356,358.899 171.163,359.070 171.163 C 359.240 171.163,359.380 170.952,359.380 170.693 C 359.380 170.435,359.515 169.982,359.680 169.686 C 360.219 168.720,360.930 166.201,360.930 165.260 C 360.930 164.755,361.070 164.341,361.240 164.341 C 361.411 164.341,361.550 163.931,361.550 163.429 C 361.550 162.928,361.690 162.431,361.860 162.326 C 362.031 162.220,362.171 161.662,362.171 161.085 C 362.171 160.509,362.310 159.950,362.481 159.845 C 362.651 159.740,362.791 158.992,362.791 158.183 C 362.791 157.375,362.965 156.539,363.178 156.326 C 363.474 156.030,363.566 153.329,363.566 144.961 C 363.566 136.593,363.474 133.892,363.178 133.597 C 362.965 133.384,362.791 132.540,362.791 131.721 C 362.791 130.902,362.651 130.233,362.481 130.233 C 362.310 130.233,362.171 129.683,362.171 129.011 C 362.171 128.338,362.031 127.702,361.860 127.597 C 361.690 127.491,361.550 127.073,361.550 126.667 C 361.550 126.260,361.411 125.842,361.240 125.736 C 361.070 125.631,360.930 125.220,360.930 124.824 C 360.930 123.840,359.968 120.930,359.643 120.930 C 359.498 120.930,359.380 120.512,359.380 120.000 C 359.380 119.488,359.240 119.070,359.070 119.070 C 358.899 119.070,358.760 118.860,358.760 118.605 C 358.760 118.349,358.620 118.140,358.450 118.140 C 358.279 118.140,358.140 117.931,358.140 117.677 C 358.140 117.030,357.114 114.729,356.826 114.729 C 356.696 114.729,356.589 114.450,356.589 114.109 C 356.589 113.767,356.465 113.488,356.313 113.488 C 356.161 113.488,355.949 113.140,355.842 112.713 C 355.735 112.287,355.510 111.938,355.343 111.938 C 355.176 111.938,355.039 111.759,355.039 111.541 C 355.039 111.323,354.760 110.944,354.419 110.698 C 354.078 110.452,353.798 110.066,353.798 109.840 C 353.798 109.615,353.450 109.054,353.023 108.594 C 352.597 108.134,352.248 107.634,352.248 107.482 C 352.248 107.073,344.200 99.195,342.861 98.295 C 342.228 97.868,341.709 97.415,341.708 97.287 C 341.706 97.159,341.441 97.054,341.118 97.054 C 340.796 97.054,340.449 96.838,340.347 96.574 C 340.246 96.311,339.743 95.948,339.229 95.769 C 338.715 95.590,338.295 95.317,338.295 95.163 C 338.295 95.010,338.085 94.884,337.829 94.884 C 337.574 94.884,337.364 94.744,337.364 94.574 C 337.364 94.403,337.149 94.264,336.886 94.264 C 336.623 94.264,336.103 93.979,335.730 93.631 C 335.356 93.284,334.699 92.913,334.270 92.808 C 333.840 92.704,333.419 92.526,333.333 92.415 C 333.093 92.101,329.227 90.303,328.280 90.066 C 327.816 89.949,327.359 89.730,327.266 89.578 C 327.172 89.426,326.755 89.302,326.338 89.302 C 325.922 89.302,325.581 89.163,325.581 88.992 C 325.581 88.822,325.233 88.682,324.806 88.682 C 324.380 88.682,324.031 88.553,324.031 88.394 C 324.031 88.236,323.264 88.011,322.326 87.894 C 321.388 87.776,320.620 87.573,320.620 87.441 C 320.620 87.310,320.236 87.125,319.767 87.031 C 317.628 86.601,317.013 86.447,316.434 86.199 C 316.093 86.053,315.395 85.861,314.884 85.771 C 314.372 85.682,313.256 85.472,312.403 85.304 C 311.550 85.136,310.198 84.990,309.398 84.980 C 308.598 84.970,307.857 84.822,307.752 84.651 C 307.647 84.481,306.321 84.341,304.806 84.341 C 303.291 84.341,301.966 84.202,301.860 84.031 C 301.734 83.826,278.443 83.721,232.996 83.721 L 164.323 83.721 164.395 196.434 M275.039 133.643 C 275.039 133.821,275.969 133.953,277.209 133.953 C 278.450 133.953,279.380 134.086,279.380 134.264 C 279.380 134.434,279.731 134.574,280.159 134.574 C 280.936 134.574,281.136 134.647,282.994 135.615 C 283.532 135.895,284.194 136.124,284.466 136.124 C 284.739 136.124,284.961 136.264,284.961 136.434 C 284.961 136.605,285.106 136.744,285.282 136.744 C 285.581 136.744,286.117 137.168,287.847 138.769 C 288.951 139.791,290.233 141.484,290.233 141.920 C 290.233 142.143,290.338 142.326,290.467 142.326 C 290.596 142.326,290.884 142.779,291.107 143.333 C 291.331 143.888,291.644 144.584,291.804 144.881 C 292.739 146.618,292.761 158.357,291.830 159.070 C 291.474 159.342,290.853 160.597,290.853 161.043 C 290.853 161.280,290.643 161.648,290.388 161.860 C 290.132 162.073,289.922 162.438,289.922 162.673 C 289.922 163.031,288.980 164.020,286.044 166.744 C 285.814 166.957,285.476 167.132,285.293 167.132 C 285.111 167.132,284.961 167.271,284.961 167.442 C 284.961 167.612,284.787 167.755,284.574 167.759 C 284.360 167.763,283.837 168.039,283.411 168.372 C 282.984 168.706,282.426 168.982,282.171 168.987 C 281.915 168.992,281.306 169.205,280.817 169.459 C 280.329 169.714,279.526 169.922,279.034 169.922 C 278.542 169.922,278.140 170.062,278.140 170.233 C 278.140 170.405,277.313 170.543,276.279 170.543 C 275.245 170.543,274.419 170.680,274.419 170.853 C 274.419 171.056,267.379 171.163,253.920 171.163 L 233.421 171.163 233.599 166.279 C 233.698 163.593,233.783 155.081,233.788 147.364 L 233.798 133.333 254.419 133.333 C 267.959 133.333,275.039 133.440,275.039 133.643 " stroke="none" fill="#2066b8" fill-rule="evenodd"></path></g></svg>