<svg id="svg" version="1.1" xmlns="http://www.w3.org/2000/svg" xmlns:xlink="http://www.w3.org/1999/xlink" width="400" height="459.5348837209302" viewBox="0, 0, 400,459.5348837209302"><g id="svgg"><path id="path0" d="M0.000 229.600 L 0.000 459.200 200.000 459.200 L 400.000 459.200 400.000 229.600 L 400.000 0.000 200.000 0.000 L 0.000 0.000 0.000 229.600 M214.800 19.200 C 214.800 19.452,212.688 19.569,209.100 19.517 L 203.400 19.435 209.000 19.200 C 212.080 19.071,214.645 18.928,214.700 18.883 C 214.755 18.837,214.800 18.980,214.800 19.200 M195.119 19.497 C 193.424 19.572,190.544 19.572,188.719 19.498 C 186.894 19.424,188.280 19.362,191.800 19.362 C 195.320 19.361,196.814 19.422,195.119 19.497 M178.500 19.889 C 177.785 19.978,176.615 19.978,175.900 19.889 C 175.185 19.801,175.770 19.728,177.200 19.728 C 178.630 19.728,179.215 19.801,178.500 19.889 M223.700 19.889 C 222.985 19.978,221.815 19.978,221.100 19.889 C 220.385 19.801,220.970 19.728,222.400 19.728 C 223.830 19.728,224.415 19.801,223.700 19.889 M170.500 20.282 C 170.005 20.378,169.195 20.378,168.700 20.282 C 168.205 20.187,168.610 20.109,169.600 20.109 C 170.590 20.109,170.995 20.187,170.500 20.282 M231.305 20.282 C 230.814 20.377,229.914 20.379,229.305 20.287 C 228.697 20.195,229.100 20.117,230.200 20.114 C 231.300 20.111,231.797 20.187,231.305 20.282 M164.705 20.675 C 164.322 20.775,163.602 20.779,163.105 20.683 C 162.607 20.587,162.920 20.505,163.800 20.501 C 164.680 20.496,165.087 20.575,164.705 20.675 M237.105 20.675 C 236.722 20.775,236.002 20.779,235.505 20.683 C 235.007 20.587,235.320 20.505,236.200 20.501 C 237.080 20.496,237.487 20.575,237.105 20.675 M158.800 21.200 C 158.017 21.706,157.200 21.706,157.200 21.200 C 157.200 20.980,157.695 20.803,158.300 20.806 C 159.157 20.811,159.268 20.898,158.800 21.200 M242.400 21.200 C 242.400 21.701,241.976 21.701,241.200 21.200 C 240.715 20.886,240.772 20.811,241.500 20.806 C 241.995 20.803,242.400 20.980,242.400 21.200 M154.000 21.600 C 154.000 21.820,153.730 22.000,153.400 22.000 C 153.070 22.000,152.800 21.820,152.800 21.600 C 152.800 21.380,153.070 21.200,153.400 21.200 C 153.730 21.200,154.000 21.380,154.000 21.600 M246.800 21.600 C 246.800 21.820,246.429 22.000,245.976 22.000 C 245.523 22.000,245.264 21.820,245.400 21.600 C 245.536 21.380,245.907 21.200,246.224 21.200 C 246.541 21.200,246.800 21.380,246.800 21.600 M119.200 27.200 C 119.200 27.420,118.930 27.600,118.600 27.600 C 118.270 27.600,118.000 27.420,118.000 27.200 C 118.000 26.980,118.270 26.800,118.600 26.800 C 118.930 26.800,119.200 26.980,119.200 27.200 M214.800 35.798 C 228.525 36.388,240.854 37.262,246.200 38.024 C 247.740 38.244,250.980 38.693,253.400 39.022 C 320.899 48.206,347.182 74.262,307.965 93.116 C 236.908 127.277,62.772 109.903,74.007 69.774 C 76.954 59.249,99.196 47.759,126.946 42.425 C 129.337 41.966,131.417 41.513,131.569 41.419 C 131.943 41.188,140.911 39.763,145.600 39.189 C 147.690 38.934,149.940 38.569,150.600 38.380 C 153.567 37.526,184.426 35.494,198.000 35.257 C 199.650 35.228,207.210 35.472,214.800 35.798 M347.826 55.242 C 348.020 55.556,347.862 55.554,347.271 55.238 C 346.816 54.995,346.323 54.599,346.174 54.358 C 345.980 54.044,346.138 54.046,346.729 54.362 C 347.184 54.605,347.677 55.001,347.826 55.242 M50.799 57.002 C 50.283 57.551,49.678 58.000,49.455 58.000 C 49.233 58.000,49.566 57.462,50.196 56.804 C 50.826 56.146,51.431 55.697,51.539 55.806 C 51.648 55.914,51.314 56.452,50.799 57.002 M352.523 60.364 C 352.355 60.598,350.800 59.142,350.800 58.752 C 350.800 58.574,351.214 58.827,351.720 59.314 C 352.226 59.801,352.587 60.274,352.523 60.364 M47.398 60.802 C 46.998 61.244,46.566 61.499,46.436 61.370 C 46.307 61.240,46.550 60.879,46.977 60.567 C 48.073 59.766,48.248 59.863,47.398 60.802 M43.022 67.639 C 42.697 68.388,42.424 68.783,42.416 68.519 C 42.396 67.927,43.276 65.943,43.471 66.138 C 43.549 66.215,43.347 66.891,43.022 67.639 M359.194 75.700 C 359.189 76.686,359.094 76.855,358.800 76.400 C 358.292 75.614,358.292 74.400,358.800 74.400 C 359.020 74.400,359.197 74.985,359.194 75.700 M359.103 259.115 C 359.018 365.045,358.908 387.286,358.469 387.557 C 358.177 387.738,357.981 388.136,358.032 388.443 C 358.139 389.074,357.921 389.689,356.487 392.800 C 355.929 394.010,355.502 395.135,355.537 395.300 C 355.571 395.465,355.416 395.600,355.190 395.600 C 354.965 395.600,354.609 396.050,354.400 396.600 C 354.191 397.150,353.835 397.600,353.610 397.600 C 353.384 397.600,353.200 397.801,353.200 398.046 C 353.200 398.291,352.752 398.966,352.205 399.546 C 348.014 403.986,345.033 406.800,344.519 406.800 C 344.320 406.800,343.469 407.430,342.628 408.200 C 341.787 408.970,341.020 409.600,340.922 409.600 C 340.824 409.600,339.970 410.133,339.023 410.784 C 338.076 411.436,337.189 411.856,337.051 411.718 C 336.913 411.580,336.800 411.686,336.800 411.954 C 336.800 412.222,336.170 412.704,335.400 413.026 C 334.630 413.348,334.000 413.788,334.000 414.005 C 334.000 414.222,333.865 414.360,333.700 414.310 C 333.535 414.261,331.060 415.362,328.200 416.758 C 321.170 420.189,319.378 420.990,316.800 421.855 C 315.590 422.261,314.468 422.775,314.306 422.997 C 314.112 423.263,314.008 423.264,314.000 423.000 C 313.992 422.748,313.879 422.755,313.694 423.018 C 313.532 423.247,311.600 423.956,309.400 424.592 C 307.200 425.228,305.310 425.871,305.200 426.020 C 305.090 426.170,303.290 426.718,301.200 427.238 C 299.110 427.759,297.340 428.325,297.266 428.495 C 297.192 428.666,296.959 428.698,296.748 428.568 C 296.537 428.438,296.105 428.547,295.788 428.810 C 295.470 429.074,294.938 429.185,294.605 429.057 C 294.272 428.930,294.000 428.969,294.000 429.144 C 294.000 429.320,292.290 429.799,290.200 430.210 C 288.110 430.621,286.400 431.096,286.400 431.266 C 286.400 431.436,286.128 431.470,285.795 431.343 C 285.462 431.215,284.931 431.326,284.614 431.588 C 284.297 431.851,283.670 431.949,283.219 431.806 C 282.769 431.663,282.400 431.709,282.400 431.908 C 282.400 432.107,279.925 432.678,276.900 433.176 C 273.875 433.675,271.130 434.181,270.800 434.301 C 270.470 434.421,269.795 434.479,269.300 434.431 C 268.805 434.382,268.400 434.505,268.400 434.703 C 268.400 434.901,265.025 435.468,260.900 435.964 C 256.775 436.460,253.083 437.034,252.695 437.239 C 252.308 437.445,251.529 437.497,250.964 437.355 C 250.400 437.214,249.547 437.292,249.069 437.530 C 248.079 438.023,235.644 439.080,226.291 439.466 C 222.831 439.608,220.000 439.867,220.000 440.040 C 220.000 440.213,215.888 440.247,210.861 440.116 C 204.166 439.941,201.647 440.001,201.438 440.339 C 201.074 440.927,197.600 440.951,197.600 440.366 C 197.600 440.058,194.982 440.016,188.600 440.222 C 182.764 440.410,179.600 440.374,179.600 440.118 C 179.600 439.889,177.140 439.623,173.700 439.480 C 165.011 439.121,151.054 437.972,150.642 437.582 C 150.445 437.396,149.759 437.348,149.118 437.476 C 148.477 437.605,147.558 437.519,147.076 437.285 C 146.594 437.052,142.915 436.458,138.900 435.967 C 134.885 435.475,131.600 434.926,131.600 434.746 C 131.600 434.567,131.042 434.532,130.360 434.668 C 129.677 434.805,129.002 434.736,128.860 434.516 C 128.717 434.296,127.340 433.920,125.800 433.680 C 119.829 432.753,115.788 431.922,115.310 431.525 C 115.035 431.297,114.515 431.224,114.154 431.362 C 113.794 431.501,113.296 431.453,113.049 431.257 C 112.802 431.061,110.811 430.511,108.624 430.036 C 106.437 429.560,104.414 428.978,104.129 428.741 C 103.844 428.504,103.338 428.415,103.005 428.543 C 102.672 428.670,102.400 428.640,102.400 428.475 C 102.400 428.310,100.645 427.740,98.500 427.208 C 96.355 426.676,94.494 426.087,94.363 425.899 C 94.233 425.711,93.963 425.596,93.763 425.642 C 93.564 425.689,93.130 425.611,92.800 425.469 C 92.470 425.328,90.760 424.749,89.000 424.182 C 87.240 423.616,84.866 422.713,83.725 422.176 C 82.583 421.639,81.456 421.200,81.220 421.200 C 80.503 421.200,70.819 416.586,66.000 413.948 C 63.164 412.396,59.833 410.205,57.759 408.527 C 56.856 407.797,55.916 407.200,55.669 407.200 C 55.114 407.200,47.107 399.560,47.377 399.289 C 47.485 399.182,47.129 398.745,46.586 398.318 C 46.044 397.891,45.600 397.285,45.600 396.971 C 45.600 396.657,45.285 396.078,44.900 395.684 C 44.122 394.888,42.401 391.453,42.398 390.689 C 42.396 390.420,42.081 389.660,41.698 389.000 C 41.038 387.866,40.316 79.383,40.974 80.041 C 41.072 80.139,41.595 81.615,42.137 83.321 C 48.714 104.032,85.460 121.696,138.800 129.789 C 238.951 144.984,350.625 120.014,358.328 80.703 C 359.199 76.257,359.243 86.277,359.103 259.115 M203.200 215.661 C 194.098 216.611,185.109 220.121,178.122 225.454 C 155.423 242.781,152.432 282.977,172.249 304.370 C 179.784 312.504,193.118 318.777,202.935 318.806 C 205.522 318.814,204.663 318.085,212.597 327.000 C 216.317 331.180,220.964 336.355,222.924 338.500 L 226.488 342.400 240.844 342.400 C 248.740 342.400,255.200 342.258,255.200 342.084 C 255.200 341.911,253.175 339.898,250.700 337.611 C 248.225 335.324,241.838 329.411,236.507 324.472 L 226.814 315.491 230.384 313.808 C 247.773 305.607,257.168 288.992,257.191 266.400 C 257.223 233.636,234.609 212.384,203.200 215.661 M110.314 216.368 C 92.353 220.273,82.255 232.731,84.393 248.346 C 86.005 260.120,92.474 267.246,109.098 275.555 C 122.780 282.393,126.142 285.829,125.476 292.289 C 124.285 303.826,102.107 304.378,87.243 293.239 C 84.307 291.039,84.400 290.733,84.400 302.629 L 84.400 313.212 85.700 314.011 C 91.820 317.774,109.019 319.992,119.903 318.421 C 139.018 315.662,149.200 305.418,149.200 288.942 C 149.200 275.456,143.625 268.927,123.226 258.525 C 110.470 252.021,108.000 249.549,108.000 243.290 C 108.000 232.487,125.555 229.597,141.145 237.833 C 142.985 238.805,144.650 239.600,144.845 239.600 C 145.436 239.600,145.295 219.775,144.700 219.291 C 144.075 218.782,139.610 217.480,135.400 216.579 C 130.329 215.494,114.930 215.365,110.314 216.368 M274.000 267.403 L 274.000 317.605 303.700 317.503 L 333.400 317.400 333.507 308.100 L 333.615 298.800 315.007 298.800 L 296.400 298.800 296.400 258.000 L 296.400 217.200 285.200 217.200 L 274.000 217.200 274.000 267.403 M214.992 235.632 C 229.490 239.360,237.168 259.340,231.994 279.870 C 225.587 305.286,193.279 306.426,185.028 281.527 C 176.232 254.983,192.622 229.880,214.992 235.632 " stroke="none" fill="#f6f6f6" fill-rule="evenodd"></path><path id="path1" d="M191.715 19.496 C 192.988 19.576,194.968 19.575,196.115 19.494 C 197.262 19.414,196.220 19.349,193.800 19.350 C 191.380 19.351,190.442 19.416,191.715 19.496 M205.111 19.493 C 206.051 19.578,207.491 19.577,208.311 19.491 C 209.130 19.405,208.360 19.336,206.600 19.337 C 204.840 19.339,204.170 19.409,205.111 19.493 M177.700 19.876 C 178.085 19.976,178.715 19.976,179.100 19.876 C 179.485 19.775,179.170 19.693,178.400 19.693 C 177.630 19.693,177.315 19.775,177.700 19.876 M220.705 19.883 C 221.202 19.979,221.922 19.975,222.305 19.875 C 222.687 19.775,222.280 19.696,221.400 19.701 C 220.520 19.705,220.207 19.787,220.705 19.883 M157.200 21.200 C 157.200 21.706,158.017 21.706,158.800 21.200 C 159.268 20.898,159.157 20.811,158.300 20.806 C 157.695 20.803,157.200 20.980,157.200 21.200 M241.200 21.200 C 241.976 21.701,242.400 21.701,242.400 21.200 C 242.400 20.980,241.995 20.803,241.500 20.806 C 240.772 20.811,240.715 20.886,241.200 21.200 M152.800 21.600 C 152.800 21.820,153.070 22.000,153.400 22.000 C 153.730 22.000,154.000 21.820,154.000 21.600 C 154.000 21.380,153.730 21.200,153.400 21.200 C 153.070 21.200,152.800 21.380,152.800 21.600 M245.400 21.600 C 245.264 21.820,245.523 22.000,245.976 22.000 C 246.429 22.000,246.800 21.820,246.800 21.600 C 246.800 21.380,246.541 21.200,246.224 21.200 C 245.907 21.200,245.536 21.380,245.400 21.600 M118.000 27.200 C 118.000 27.420,118.270 27.600,118.600 27.600 C 118.930 27.600,119.200 27.420,119.200 27.200 C 119.200 26.980,118.930 26.800,118.600 26.800 C 118.270 26.800,118.000 26.980,118.000 27.200 M183.211 35.832 C 170.738 36.385,152.614 37.801,150.600 38.380 C 149.940 38.569,147.690 38.934,145.600 39.189 C 140.911 39.763,131.943 41.188,131.569 41.419 C 131.417 41.513,129.337 41.966,126.946 42.425 C 99.196 47.759,76.954 59.249,74.007 69.774 C 64.817 102.600,187.420 123.455,275.000 103.962 C 351.788 86.871,339.783 50.776,253.400 39.022 C 250.980 38.693,247.740 38.244,246.200 38.024 C 240.854 37.262,228.525 36.388,214.800 35.798 C 199.127 35.124,199.177 35.124,183.211 35.832 M50.200 56.800 C 49.568 57.460,49.219 57.990,49.425 57.978 C 49.778 57.957,51.839 55.600,51.505 55.600 C 51.420 55.600,50.832 56.140,50.200 56.800 M46.977 60.567 C 46.550 60.879,46.307 61.240,46.436 61.370 C 46.566 61.499,46.998 61.244,47.398 60.802 C 48.248 59.863,48.073 59.766,46.977 60.567 M358.406 75.033 C 358.409 75.455,358.595 76.070,358.818 76.400 C 359.115 76.838,359.152 76.676,358.956 75.800 C 358.627 74.329,358.398 74.010,358.406 75.033 M180.100 440.276 C 180.485 440.376,181.115 440.376,181.500 440.276 C 181.885 440.175,181.570 440.093,180.800 440.093 C 180.030 440.093,179.715 440.175,180.100 440.276 M215.891 440.289 C 216.601 440.377,217.861 440.379,218.691 440.292 C 219.521 440.205,218.940 440.133,217.400 440.131 C 215.860 440.129,215.181 440.200,215.891 440.289 " stroke="none" fill="#aacd27" fill-rule="evenodd"></path><path id="path2" d="M186.500 19.487 C 187.105 19.578,188.095 19.578,188.700 19.487 C 189.305 19.395,188.810 19.320,187.600 19.320 C 186.390 19.320,185.895 19.395,186.500 19.487 M210.691 19.489 C 211.401 19.577,212.661 19.579,213.491 19.492 C 214.321 19.405,213.740 19.333,212.200 19.331 C 210.660 19.329,209.981 19.400,210.691 19.489 M358.328 80.703 C 350.625 120.014,238.951 144.984,138.800 129.789 C 85.460 121.696,48.714 104.032,42.137 83.321 C 41.595 81.615,41.072 80.138,40.974 80.040 C 40.315 79.382,41.038 387.865,41.698 389.000 C 42.081 389.660,42.400 390.470,42.407 390.800 C 42.413 391.130,42.942 392.300,43.582 393.400 C 44.223 394.500,45.126 396.084,45.591 396.919 C 46.056 397.755,46.698 398.539,47.018 398.662 C 47.338 398.785,47.600 399.119,47.600 399.404 C 47.600 400.001,55.083 407.200,55.704 407.200 C 55.932 407.200,56.856 407.797,57.759 408.527 C 60.758 410.953,64.911 413.454,71.200 416.623 C 78.240 420.169,80.611 421.151,89.400 424.158 C 92.040 425.061,94.290 425.897,94.400 426.015 C 94.510 426.134,96.670 426.747,99.200 427.378 C 101.730 428.009,103.990 428.669,104.222 428.846 C 104.453 429.023,106.883 429.644,109.622 430.225 C 112.360 430.806,114.960 431.447,115.400 431.648 C 116.194 432.011,120.617 432.875,125.600 433.640 C 127.030 433.860,128.593 434.235,129.073 434.473 C 129.553 434.711,130.259 434.786,130.641 434.640 C 131.023 434.493,131.440 434.535,131.568 434.732 C 131.764 435.036,145.289 437.091,149.000 437.381 C 149.660 437.433,150.470 437.585,150.800 437.720 C 151.381 437.957,160.362 438.696,174.800 439.694 C 178.650 439.960,185.337 440.126,189.659 440.062 C 194.924 439.984,197.606 440.086,197.783 440.373 C 198.117 440.913,201.069 440.935,201.400 440.400 C 201.551 440.156,204.640 439.999,209.324 439.998 C 220.975 439.995,247.023 438.434,249.000 437.620 C 249.440 437.439,253.940 436.798,259.000 436.196 C 264.060 435.594,268.290 434.980,268.400 434.833 C 268.510 434.685,271.660 434.059,275.400 433.442 C 279.140 432.825,282.304 432.151,282.432 431.946 C 282.560 431.741,282.967 431.689,283.337 431.831 C 283.707 431.973,284.233 431.910,284.505 431.691 C 284.777 431.473,286.980 430.883,289.400 430.380 C 291.820 429.878,293.857 429.327,293.926 429.156 C 293.995 428.985,294.312 428.945,294.631 429.067 C 294.950 429.189,295.433 429.105,295.705 428.879 C 295.977 428.654,297.820 428.079,299.800 427.603 C 301.780 427.126,303.940 426.491,304.600 426.192 C 305.260 425.892,307.420 425.166,309.400 424.577 C 311.380 423.989,313.180 423.363,313.400 423.187 C 313.620 423.012,314.970 422.470,316.400 421.982 C 321.691 420.180,336.132 413.062,336.877 411.889 C 337.048 411.620,337.191 411.544,337.194 411.719 C 337.201 412.081,340.186 410.113,342.641 408.127 C 343.544 407.397,344.417 406.800,344.582 406.800 C 345.036 406.800,348.205 403.784,352.205 399.546 C 352.752 398.966,353.200 398.389,353.200 398.264 C 353.200 398.138,353.916 397.013,354.792 395.763 C 356.398 393.470,358.000 389.803,358.000 388.418 C 358.000 388.005,358.225 387.592,358.500 387.500 C 358.981 387.340,359.412 184.543,359.103 104.136 C 359.002 77.735,358.988 77.331,358.328 80.703 M215.116 215.615 C 240.649 218.345,257.219 238.344,257.191 266.400 C 257.168 288.992,247.773 305.607,230.384 313.808 L 226.814 315.491 236.507 324.472 C 241.838 329.411,248.225 335.324,250.700 337.611 C 253.175 339.898,255.200 341.911,255.200 342.084 C 255.200 342.258,248.740 342.400,240.844 342.400 L 226.488 342.400 222.924 338.500 C 220.964 336.355,216.317 331.180,212.597 327.000 C 204.663 318.085,205.522 318.814,202.935 318.806 C 190.747 318.770,175.215 309.992,167.909 299.011 C 155.976 281.075,156.214 253.859,168.464 235.706 C 178.126 221.387,196.219 213.595,215.116 215.615 M135.400 216.579 C 139.610 217.480,144.075 218.782,144.700 219.291 C 145.295 219.775,145.436 239.600,144.845 239.600 C 144.650 239.600,142.985 238.805,141.145 237.833 C 125.555 229.597,108.000 232.487,108.000 243.290 C 108.000 249.549,110.470 252.021,123.226 258.525 C 143.625 268.927,149.200 275.456,149.200 288.942 C 149.200 305.418,139.018 315.662,119.903 318.421 C 109.019 319.992,91.820 317.774,85.700 314.011 L 84.400 313.212 84.400 302.629 C 84.400 290.733,84.307 291.039,87.243 293.239 C 102.107 304.378,124.285 303.826,125.476 292.289 C 126.142 285.829,122.780 282.393,109.098 275.555 C 92.474 267.246,86.005 260.120,84.393 248.346 C 82.255 232.731,92.353 220.273,110.314 216.368 C 114.930 215.365,130.329 215.494,135.400 216.579 M296.400 258.000 L 296.400 298.800 315.007 298.800 L 333.615 298.800 333.507 308.100 L 333.400 317.400 303.700 317.503 L 274.000 317.605 274.000 267.403 L 274.000 217.200 285.200 217.200 L 296.400 217.200 296.400 258.000 M204.561 235.173 C 187.330 237.916,177.952 260.171,185.028 281.527 C 193.279 306.426,225.587 305.286,231.994 279.870 C 238.574 253.764,225.152 231.895,204.561 235.173 " stroke="none" fill="#147cc8" fill-rule="evenodd"></path></g></svg>